G04 #@! TF.GenerationSoftware,KiCad,Pcbnew,no-vcs-found-7584~57~ubuntu16.04.1*
G04 #@! TF.CreationDate,2017-02-08T11:01:07-05:00*
G04 #@! TF.ProjectId,modular_device_base_3x2,6D6F64756C61725F6465766963655F62,1.0*
G04 #@! TF.FileFunction,Copper,L2,Bot,Signal*
G04 #@! TF.FilePolarity,Positive*
%FSLAX46Y46*%
G04 Gerber Fmt 4.6, Leading zero omitted, Abs format (unit mm)*
G04 Created by KiCad (PCBNEW no-vcs-found-7584~57~ubuntu16.04.1) date Wed Feb  8 11:01:07 2017*
%MOMM*%
%LPD*%
G01*
G04 APERTURE LIST*
%ADD10C,0.100000*%
%ADD11C,0.228600*%
%ADD12R,2.500000X2.710000*%
%ADD13R,1.270000X2.540000*%
%ADD14R,2.540000X1.270000*%
%ADD15O,2.540000X1.524000*%
%ADD16C,1.397000*%
%ADD17C,3.556000*%
%ADD18O,1.854200X2.540000*%
%ADD19R,1.854200X2.540000*%
%ADD20R,1.524000X2.540000*%
%ADD21O,1.524000X2.540000*%
%ADD22O,5.080000X3.048000*%
%ADD23O,2.032000X1.524000*%
%ADD24O,1.524000X2.032000*%
%ADD25R,2.794000X4.826000*%
%ADD26R,1.778000X4.191000*%
%ADD27C,1.930400*%
%ADD28O,4.572000X3.556000*%
%ADD29O,4.064000X5.080000*%
%ADD30O,5.080000X3.556000*%
%ADD31C,0.889000*%
%ADD32C,1.219200*%
%ADD33C,0.609600*%
%ADD34C,0.203200*%
G04 APERTURE END LIST*
D10*
D11*
X143510000Y-79375000D02*
X59690000Y-79375000D01*
X143510000Y-120015000D02*
X143510000Y-79375000D01*
X59690000Y-120015000D02*
X143510000Y-120015000D01*
X59690000Y-79375000D02*
X59690000Y-120015000D01*
D12*
X71755000Y-111725000D03*
X71755000Y-115605000D03*
D13*
X67056000Y-106680000D03*
X70104000Y-106680000D03*
D14*
X62865000Y-112014000D03*
X62865000Y-108966000D03*
D15*
X67310000Y-113030000D03*
X67310000Y-115570000D03*
X67310000Y-110490000D03*
D16*
X131318000Y-113919000D03*
X123952000Y-113919000D03*
D14*
X69850000Y-84201000D03*
X69850000Y-87249000D03*
D13*
X75819000Y-106680000D03*
X72771000Y-106680000D03*
D17*
X62230000Y-81915000D03*
X62230000Y-117475000D03*
X140970000Y-81915000D03*
D18*
X78740000Y-81915000D03*
X81280000Y-81915000D03*
D19*
X76200000Y-81915000D03*
D18*
X83820000Y-81915000D03*
X86360000Y-81915000D03*
X88900000Y-81915000D03*
X91440000Y-81915000D03*
X93980000Y-81915000D03*
X96520000Y-81915000D03*
X99060000Y-81915000D03*
X101600000Y-81915000D03*
X104140000Y-81915000D03*
X106680000Y-81915000D03*
X109220000Y-81915000D03*
X111760000Y-81915000D03*
X114300000Y-81915000D03*
X114300000Y-117475000D03*
X111760000Y-117475000D03*
X109220000Y-117475000D03*
X106680000Y-117475000D03*
X104140000Y-117475000D03*
X101600000Y-117475000D03*
X99060000Y-117475000D03*
X96520000Y-117475000D03*
X93980000Y-117475000D03*
X91440000Y-117475000D03*
X88900000Y-117475000D03*
X86360000Y-117475000D03*
X83820000Y-117475000D03*
X81280000Y-117475000D03*
X78740000Y-117475000D03*
X76200000Y-117475000D03*
D17*
X77470000Y-86995000D03*
X77470000Y-112395000D03*
X118110000Y-117475000D03*
X118110000Y-81915000D03*
D20*
X78740000Y-92075000D03*
D21*
X81280000Y-92075000D03*
X83820000Y-92075000D03*
X86360000Y-92075000D03*
X88900000Y-92075000D03*
X91440000Y-92075000D03*
X93980000Y-92075000D03*
X96520000Y-92075000D03*
X99060000Y-92075000D03*
X101600000Y-92075000D03*
X104140000Y-92075000D03*
X106680000Y-92075000D03*
X109220000Y-92075000D03*
X111760000Y-92075000D03*
X111760000Y-107315000D03*
X109220000Y-107315000D03*
X106680000Y-107315000D03*
X104140000Y-107315000D03*
X101600000Y-107315000D03*
X99060000Y-107315000D03*
X96520000Y-107315000D03*
X93980000Y-107315000D03*
X91440000Y-107315000D03*
X88900000Y-107315000D03*
X86360000Y-107315000D03*
X83820000Y-107315000D03*
X81280000Y-107315000D03*
X78740000Y-107315000D03*
D15*
X111760000Y-104775000D03*
X111760000Y-102235000D03*
X111760000Y-99695000D03*
X111760000Y-97155000D03*
X111760000Y-94615000D03*
D21*
X81280000Y-104267000D03*
X86360000Y-104267000D03*
X88900000Y-104267000D03*
X91440000Y-104267000D03*
X93980000Y-102743000D03*
X93980000Y-99187000D03*
X96520000Y-102743000D03*
X96520000Y-99187000D03*
X99060000Y-99187000D03*
X101600000Y-99187000D03*
X104140000Y-99187000D03*
X106680000Y-99187000D03*
X109220000Y-99187000D03*
X99060000Y-102743000D03*
X101600000Y-102743000D03*
X104140000Y-102743000D03*
X106680000Y-102743000D03*
X109220000Y-102743000D03*
D22*
X63500000Y-104775000D03*
X63500000Y-94615000D03*
D23*
X69596000Y-99695000D03*
D24*
X72390000Y-99695000D03*
X72390000Y-96901000D03*
X72390000Y-102489000D03*
D25*
X121640600Y-83185000D03*
X133629400Y-83185000D03*
D16*
X122682000Y-86741000D03*
X132588000Y-86741000D03*
D26*
X125095000Y-89916000D03*
X127635000Y-89916000D03*
X130175000Y-89916000D03*
D16*
X123952000Y-85471000D03*
X131318000Y-85471000D03*
D26*
X125095000Y-109474000D03*
X127635000Y-109474000D03*
X130175000Y-109474000D03*
D16*
X122682000Y-112649000D03*
X132588000Y-112649000D03*
D25*
X121640600Y-116205000D03*
X133629400Y-116205000D03*
D27*
X140512800Y-99695000D03*
D28*
X137007600Y-99695000D03*
D29*
X131521200Y-99695000D03*
D30*
X138506200Y-104190800D03*
X138506200Y-95199200D03*
D17*
X140970000Y-117475000D03*
D31*
X86362400Y-86567200D03*
X72580400Y-109071000D03*
X76575500Y-92086800D03*
D32*
X72390000Y-97155000D02*
X70764100Y-97155000D01*
X69443900Y-109474000D02*
X70104000Y-108813900D01*
X69443900Y-113030000D02*
X69443900Y-109474000D01*
X69850000Y-96240900D02*
X70764100Y-97155000D01*
X69850000Y-88747900D02*
X69850000Y-96240900D01*
X69850000Y-87249000D02*
X69850000Y-88747900D01*
X67697400Y-113030000D02*
X69443900Y-113030000D01*
X67697400Y-113030000D02*
X67310000Y-113030000D01*
X62946000Y-108966000D02*
X62865000Y-108966000D01*
X65176100Y-111196100D02*
X62946000Y-108966000D01*
X65176100Y-113030000D02*
X65176100Y-111196100D01*
X67310000Y-113030000D02*
X65176100Y-113030000D01*
X72567200Y-104546100D02*
X72771000Y-104546100D01*
X72390000Y-104368900D02*
X72567200Y-104546100D01*
X72390000Y-102235000D02*
X72390000Y-104368900D01*
X72771000Y-106680000D02*
X72771000Y-104546100D01*
X70104000Y-106680000D02*
X70104000Y-107507100D01*
X70104000Y-107507100D02*
X70104000Y-108813900D01*
X70445000Y-107507100D02*
X71272100Y-106680000D01*
X70104000Y-107507100D02*
X70445000Y-107507100D01*
X72771000Y-106680000D02*
X71272100Y-106680000D01*
X130721800Y-92901200D02*
X127635000Y-92901200D01*
X137515600Y-99695000D02*
X130721800Y-92901200D01*
X127635000Y-92901200D02*
X127635000Y-89916000D01*
X130696000Y-106514600D02*
X137515600Y-99695000D01*
X127635000Y-106514600D02*
X130696000Y-106514600D01*
X127635000Y-109474000D02*
X127635000Y-106514600D01*
X120312400Y-92901200D02*
X127635000Y-92901200D01*
X113978400Y-86567200D02*
X120312400Y-92901200D01*
X86362400Y-86567200D02*
X113978400Y-86567200D01*
D33*
X130175000Y-89916000D02*
X130175000Y-87390700D01*
X81280000Y-88955600D02*
X81280000Y-92075000D01*
X85554300Y-84681300D02*
X81280000Y-88955600D01*
X116260700Y-84681300D02*
X85554300Y-84681300D01*
X119560200Y-87980800D02*
X116260700Y-84681300D01*
X123436700Y-87980800D02*
X119560200Y-87980800D01*
X124176800Y-87240700D02*
X123436700Y-87980800D01*
X130025000Y-87240700D02*
X124176800Y-87240700D01*
X130175000Y-87390700D02*
X130025000Y-87240700D01*
X83820000Y-87421900D02*
X83820000Y-90375200D01*
X85849100Y-85392800D02*
X83820000Y-87421900D01*
X115905000Y-85392800D02*
X85849100Y-85392800D01*
X120428200Y-89916000D02*
X115905000Y-85392800D01*
X125095000Y-89916000D02*
X120428200Y-89916000D01*
X83820000Y-92075000D02*
X83820000Y-90375200D01*
X102088000Y-90375200D02*
X99060000Y-90375200D01*
X102870000Y-91157200D02*
X102088000Y-90375200D01*
X102870000Y-92990300D02*
X102870000Y-91157200D01*
X105086600Y-95206900D02*
X102870000Y-92990300D01*
X110051900Y-95206900D02*
X105086600Y-95206900D01*
X110732800Y-95887800D02*
X110051900Y-95206900D01*
X114034100Y-95887800D02*
X110732800Y-95887800D01*
X125095000Y-106948700D02*
X114034100Y-95887800D01*
X125095000Y-109474000D02*
X125095000Y-106948700D01*
X99060000Y-92075000D02*
X99060000Y-90375200D01*
X130175000Y-109474000D02*
X130175000Y-111999300D01*
X101600000Y-92075000D02*
X101600000Y-93774800D01*
X103743700Y-95918500D02*
X101600000Y-93774800D01*
X108223500Y-95918500D02*
X103743700Y-95918500D01*
X110727100Y-98422100D02*
X108223500Y-95918500D01*
X112818500Y-98422100D02*
X110727100Y-98422100D01*
X118347400Y-103951000D02*
X112818500Y-98422100D01*
X118347400Y-106320000D02*
X118347400Y-103951000D01*
X124184500Y-112157100D02*
X118347400Y-106320000D01*
X130017200Y-112157100D02*
X124184500Y-112157100D01*
X130175000Y-111999300D02*
X130017200Y-112157100D01*
D32*
X69478900Y-115605000D02*
X71755000Y-115605000D01*
X69443900Y-115570000D02*
X69478900Y-115605000D01*
X67697400Y-115570000D02*
X69443900Y-115570000D01*
X67697400Y-115570000D02*
X67310000Y-115570000D01*
X63119000Y-113512900D02*
X62865000Y-113512900D01*
X65176100Y-115570000D02*
X63119000Y-113512900D01*
X67310000Y-115570000D02*
X65176100Y-115570000D01*
X62865000Y-112014000D02*
X62865000Y-113512900D01*
X69850000Y-84201000D02*
X67716100Y-84201000D01*
X67056000Y-84861100D02*
X67716100Y-84201000D01*
X67056000Y-106680000D02*
X67056000Y-84861100D01*
X67106200Y-108864100D02*
X67310000Y-108864100D01*
X67056000Y-108813900D02*
X67106200Y-108864100D01*
X67056000Y-106680000D02*
X67056000Y-108813900D01*
X67310000Y-110490000D02*
X67310000Y-108864100D01*
X69850000Y-84201000D02*
X69850000Y-82702100D01*
X70637100Y-81915000D02*
X69850000Y-82702100D01*
X76200000Y-81915000D02*
X70637100Y-81915000D01*
X78740000Y-107315000D02*
X78740000Y-108381900D01*
X75819000Y-106680000D02*
X77317900Y-106680000D01*
X72145300Y-109506100D02*
X71755000Y-109506100D01*
X72580400Y-109071000D02*
X72145300Y-109506100D01*
X71755000Y-111725000D02*
X71755000Y-109506100D01*
X77317900Y-106959800D02*
X77317900Y-106680000D01*
X78740000Y-108381900D02*
X77317900Y-106959800D01*
X78740000Y-109928700D02*
X78740000Y-108381900D01*
X80112000Y-111300700D02*
X78740000Y-109928700D01*
X80112000Y-113969100D02*
X80112000Y-111300700D01*
X78740000Y-115341100D02*
X80112000Y-113969100D01*
X78740000Y-117475000D02*
X78740000Y-115341100D01*
D33*
X76575500Y-92783100D02*
X76575500Y-92086800D01*
X78595200Y-94802800D02*
X76575500Y-92783100D01*
X101621700Y-94802800D02*
X78595200Y-94802800D01*
X103842700Y-97023800D02*
X101621700Y-94802800D01*
X106855500Y-97023800D02*
X103842700Y-97023800D01*
X108019600Y-98187900D02*
X106855500Y-97023800D01*
X108019600Y-100171300D02*
X108019600Y-98187900D01*
X108761300Y-100913000D02*
X108019600Y-100171300D01*
X110438000Y-100913000D02*
X108761300Y-100913000D01*
X111760000Y-102235000D02*
X110438000Y-100913000D01*
X113459800Y-114935000D02*
X114300000Y-115775200D01*
X113459800Y-104775000D02*
X113459800Y-114935000D01*
X111760000Y-104775000D02*
X113459800Y-104775000D01*
X114300000Y-117475000D02*
X114300000Y-115775200D01*
X111760000Y-107315000D02*
X111760000Y-117475000D01*
X109220000Y-107315000D02*
X109220000Y-117475000D01*
X106680000Y-107315000D02*
X106680000Y-117475000D01*
X104140000Y-107315000D02*
X104140000Y-117475000D01*
X101600000Y-107315000D02*
X101600000Y-117475000D01*
X99060000Y-107315000D02*
X99060000Y-117475000D01*
X96520000Y-107315000D02*
X96520000Y-117475000D01*
X93980000Y-107315000D02*
X93980000Y-117475000D01*
X91440000Y-107315000D02*
X91440000Y-117475000D01*
X88900000Y-107315000D02*
X88900000Y-117475000D01*
X86360000Y-107315000D02*
X86360000Y-117475000D01*
D32*
X83820000Y-117475000D02*
X83820000Y-107315000D01*
X81280000Y-117475000D02*
X81280000Y-115341100D01*
X81280000Y-107315000D02*
X81280000Y-109448900D01*
X81613500Y-109782400D02*
X81280000Y-109448900D01*
X81613500Y-115007600D02*
X81613500Y-109782400D01*
X81280000Y-115341100D02*
X81613500Y-115007600D01*
X77207100Y-102133100D02*
X86360000Y-102133100D01*
X74320000Y-105020200D02*
X77207100Y-102133100D01*
X74320000Y-117386000D02*
X74320000Y-105020200D01*
X74409000Y-117475000D02*
X74320000Y-117386000D01*
X76200000Y-117475000D02*
X74409000Y-117475000D01*
X86360000Y-104775000D02*
X86360000Y-102133100D01*
D33*
X83820000Y-83949300D02*
X83820000Y-81915000D01*
X78293200Y-89476100D02*
X83820000Y-83949300D01*
X77980400Y-89476100D02*
X78293200Y-89476100D01*
X75721800Y-91734700D02*
X77980400Y-89476100D01*
X75721800Y-92935700D02*
X75721800Y-91734700D01*
X79500800Y-96714700D02*
X75721800Y-92935700D01*
X100827500Y-96714700D02*
X79500800Y-96714700D01*
X101600000Y-97487200D02*
X100827500Y-96714700D01*
X101600000Y-99695000D02*
X101600000Y-97487200D01*
X101521800Y-100965000D02*
X101600000Y-101043200D01*
X86844800Y-100965000D02*
X101521800Y-100965000D01*
X85574800Y-99695000D02*
X86844800Y-100965000D01*
X72390000Y-99695000D02*
X85574800Y-99695000D01*
X101600000Y-102235000D02*
X101600000Y-101043200D01*
D34*
G36*
X143090900Y-119595900D02*
X60109100Y-119595900D01*
X60109100Y-117887477D01*
X60146840Y-117887477D01*
X60463259Y-118653270D01*
X61048648Y-119239682D01*
X61813888Y-119557437D01*
X62642477Y-119558160D01*
X63408270Y-119241741D01*
X63994682Y-118656352D01*
X64312437Y-117891112D01*
X64313160Y-117062523D01*
X63996741Y-116296730D01*
X63411352Y-115710318D01*
X62646112Y-115392563D01*
X61817523Y-115391840D01*
X61051730Y-115708259D01*
X60465318Y-116293648D01*
X60147563Y-117058888D01*
X60146840Y-117887477D01*
X60109100Y-117887477D01*
X60109100Y-111379000D01*
X61232434Y-111379000D01*
X61232434Y-112649000D01*
X61260033Y-112787748D01*
X61338627Y-112905373D01*
X61456252Y-112983967D01*
X61595000Y-113011566D01*
X61899800Y-113011566D01*
X61899800Y-113512900D01*
X61973271Y-113882266D01*
X62182501Y-114195399D01*
X62495634Y-114404629D01*
X62683000Y-114441898D01*
X64493601Y-116252500D01*
X64806734Y-116461729D01*
X65176100Y-116535200D01*
X66241702Y-116535200D01*
X66342466Y-116602528D01*
X66770153Y-116687600D01*
X67849847Y-116687600D01*
X68277534Y-116602528D01*
X68378298Y-116535200D01*
X69302942Y-116535200D01*
X69478900Y-116570200D01*
X70142434Y-116570200D01*
X70142434Y-116960000D01*
X70170033Y-117098748D01*
X70248627Y-117216373D01*
X70366252Y-117294967D01*
X70505000Y-117322566D01*
X73005000Y-117322566D01*
X73143748Y-117294967D01*
X73261373Y-117216373D01*
X73339967Y-117098748D01*
X73354800Y-117024178D01*
X73354800Y-117386000D01*
X73418906Y-117708284D01*
X73428271Y-117755366D01*
X73637501Y-118068499D01*
X73726501Y-118157499D01*
X74039634Y-118366729D01*
X74409000Y-118440200D01*
X75081480Y-118440200D01*
X75292994Y-118756753D01*
X75709132Y-119034807D01*
X76200000Y-119132447D01*
X76690868Y-119034807D01*
X77107006Y-118756753D01*
X77385060Y-118340615D01*
X77470000Y-117913594D01*
X77554940Y-118340615D01*
X77832994Y-118756753D01*
X78249132Y-119034807D01*
X78740000Y-119132447D01*
X79230868Y-119034807D01*
X79647006Y-118756753D01*
X79925060Y-118340615D01*
X80010000Y-117913594D01*
X80094940Y-118340615D01*
X80372994Y-118756753D01*
X80789132Y-119034807D01*
X81280000Y-119132447D01*
X81770868Y-119034807D01*
X82187006Y-118756753D01*
X82465060Y-118340615D01*
X82550000Y-117913594D01*
X82634940Y-118340615D01*
X82912994Y-118756753D01*
X83329132Y-119034807D01*
X83820000Y-119132447D01*
X84310868Y-119034807D01*
X84727006Y-118756753D01*
X85005060Y-118340615D01*
X85102700Y-117849747D01*
X85102700Y-117100253D01*
X85005060Y-116609385D01*
X84785200Y-116280341D01*
X84785200Y-108383298D01*
X84852528Y-108282534D01*
X84937600Y-107854847D01*
X84937600Y-106775153D01*
X84852528Y-106347466D01*
X84610263Y-105984890D01*
X84247687Y-105742625D01*
X83820000Y-105657553D01*
X83392313Y-105742625D01*
X83029737Y-105984890D01*
X82787472Y-106347466D01*
X82702400Y-106775153D01*
X82702400Y-107854847D01*
X82787472Y-108282534D01*
X82854800Y-108383298D01*
X82854800Y-116280341D01*
X82634940Y-116609385D01*
X82550000Y-117036406D01*
X82465060Y-116609385D01*
X82245200Y-116280341D01*
X82245200Y-115740899D01*
X82295999Y-115690100D01*
X82505229Y-115376967D01*
X82517418Y-115315685D01*
X82578700Y-115007600D01*
X82578700Y-109782400D01*
X82505229Y-109413034D01*
X82505229Y-109413033D01*
X82295999Y-109099900D01*
X82245200Y-109049101D01*
X82245200Y-108383298D01*
X82312528Y-108282534D01*
X82397600Y-107854847D01*
X82397600Y-106775153D01*
X82312528Y-106347466D01*
X82070263Y-105984890D01*
X81780085Y-105791000D01*
X82070263Y-105597110D01*
X82312528Y-105234534D01*
X82397600Y-104806847D01*
X82397600Y-103727153D01*
X82312528Y-103299466D01*
X82178113Y-103098300D01*
X85394800Y-103098300D01*
X85394800Y-103198702D01*
X85327472Y-103299466D01*
X85242400Y-103727153D01*
X85242400Y-104806847D01*
X85327472Y-105234534D01*
X85569737Y-105597110D01*
X85905499Y-105821459D01*
X85605658Y-106021806D01*
X85374405Y-106367901D01*
X85293200Y-106776148D01*
X85293200Y-107853852D01*
X85374405Y-108262099D01*
X85605658Y-108608194D01*
X85750400Y-108704907D01*
X85750400Y-116055444D01*
X85488915Y-116230163D01*
X85221873Y-116629820D01*
X85128100Y-117101248D01*
X85128100Y-117848752D01*
X85221873Y-118320180D01*
X85488915Y-118719837D01*
X85888572Y-118986879D01*
X86360000Y-119080652D01*
X86831428Y-118986879D01*
X87231085Y-118719837D01*
X87498127Y-118320180D01*
X87591900Y-117848752D01*
X87591900Y-117101248D01*
X87668100Y-117101248D01*
X87668100Y-117848752D01*
X87761873Y-118320180D01*
X88028915Y-118719837D01*
X88428572Y-118986879D01*
X88900000Y-119080652D01*
X89371428Y-118986879D01*
X89771085Y-118719837D01*
X90038127Y-118320180D01*
X90131900Y-117848752D01*
X90131900Y-117101248D01*
X90208100Y-117101248D01*
X90208100Y-117848752D01*
X90301873Y-118320180D01*
X90568915Y-118719837D01*
X90968572Y-118986879D01*
X91440000Y-119080652D01*
X91911428Y-118986879D01*
X92311085Y-118719837D01*
X92578127Y-118320180D01*
X92671900Y-117848752D01*
X92671900Y-117101248D01*
X92748100Y-117101248D01*
X92748100Y-117848752D01*
X92841873Y-118320180D01*
X93108915Y-118719837D01*
X93508572Y-118986879D01*
X93980000Y-119080652D01*
X94451428Y-118986879D01*
X94851085Y-118719837D01*
X95118127Y-118320180D01*
X95211900Y-117848752D01*
X95211900Y-117101248D01*
X95288100Y-117101248D01*
X95288100Y-117848752D01*
X95381873Y-118320180D01*
X95648915Y-118719837D01*
X96048572Y-118986879D01*
X96520000Y-119080652D01*
X96991428Y-118986879D01*
X97391085Y-118719837D01*
X97658127Y-118320180D01*
X97751900Y-117848752D01*
X97751900Y-117101248D01*
X97828100Y-117101248D01*
X97828100Y-117848752D01*
X97921873Y-118320180D01*
X98188915Y-118719837D01*
X98588572Y-118986879D01*
X99060000Y-119080652D01*
X99531428Y-118986879D01*
X99931085Y-118719837D01*
X100198127Y-118320180D01*
X100291900Y-117848752D01*
X100291900Y-117101248D01*
X100368100Y-117101248D01*
X100368100Y-117848752D01*
X100461873Y-118320180D01*
X100728915Y-118719837D01*
X101128572Y-118986879D01*
X101600000Y-119080652D01*
X102071428Y-118986879D01*
X102471085Y-118719837D01*
X102738127Y-118320180D01*
X102831900Y-117848752D01*
X102831900Y-117101248D01*
X102908100Y-117101248D01*
X102908100Y-117848752D01*
X103001873Y-118320180D01*
X103268915Y-118719837D01*
X103668572Y-118986879D01*
X104140000Y-119080652D01*
X104611428Y-118986879D01*
X105011085Y-118719837D01*
X105278127Y-118320180D01*
X105371900Y-117848752D01*
X105371900Y-117101248D01*
X105448100Y-117101248D01*
X105448100Y-117848752D01*
X105541873Y-118320180D01*
X105808915Y-118719837D01*
X106208572Y-118986879D01*
X106680000Y-119080652D01*
X107151428Y-118986879D01*
X107551085Y-118719837D01*
X107818127Y-118320180D01*
X107911900Y-117848752D01*
X107911900Y-117101248D01*
X107988100Y-117101248D01*
X107988100Y-117848752D01*
X108081873Y-118320180D01*
X108348915Y-118719837D01*
X108748572Y-118986879D01*
X109220000Y-119080652D01*
X109691428Y-118986879D01*
X110091085Y-118719837D01*
X110358127Y-118320180D01*
X110451900Y-117848752D01*
X110451900Y-117101248D01*
X110358127Y-116629820D01*
X110091085Y-116230163D01*
X109829600Y-116055444D01*
X109829600Y-108704907D01*
X109974342Y-108608194D01*
X110205595Y-108262099D01*
X110286800Y-107853852D01*
X110286800Y-106776148D01*
X110205595Y-106367901D01*
X109974342Y-106021806D01*
X109628247Y-105790553D01*
X109220000Y-105709348D01*
X108811753Y-105790553D01*
X108465658Y-106021806D01*
X108234405Y-106367901D01*
X108153200Y-106776148D01*
X108153200Y-107853852D01*
X108234405Y-108262099D01*
X108465658Y-108608194D01*
X108610400Y-108704907D01*
X108610400Y-116055444D01*
X108348915Y-116230163D01*
X108081873Y-116629820D01*
X107988100Y-117101248D01*
X107911900Y-117101248D01*
X107818127Y-116629820D01*
X107551085Y-116230163D01*
X107289600Y-116055444D01*
X107289600Y-108704907D01*
X107434342Y-108608194D01*
X107665595Y-108262099D01*
X107746800Y-107853852D01*
X107746800Y-106776148D01*
X107665595Y-106367901D01*
X107434342Y-106021806D01*
X107088247Y-105790553D01*
X106680000Y-105709348D01*
X106271753Y-105790553D01*
X105925658Y-106021806D01*
X105694405Y-106367901D01*
X105613200Y-106776148D01*
X105613200Y-107853852D01*
X105694405Y-108262099D01*
X105925658Y-108608194D01*
X106070400Y-108704907D01*
X106070400Y-116055444D01*
X105808915Y-116230163D01*
X105541873Y-116629820D01*
X105448100Y-117101248D01*
X105371900Y-117101248D01*
X105278127Y-116629820D01*
X105011085Y-116230163D01*
X104749600Y-116055444D01*
X104749600Y-108704907D01*
X104894342Y-108608194D01*
X105125595Y-108262099D01*
X105206800Y-107853852D01*
X105206800Y-106776148D01*
X105125595Y-106367901D01*
X104894342Y-106021806D01*
X104548247Y-105790553D01*
X104140000Y-105709348D01*
X103731753Y-105790553D01*
X103385658Y-106021806D01*
X103154405Y-106367901D01*
X103073200Y-106776148D01*
X103073200Y-107853852D01*
X103154405Y-108262099D01*
X103385658Y-108608194D01*
X103530400Y-108704907D01*
X103530400Y-116055444D01*
X103268915Y-116230163D01*
X103001873Y-116629820D01*
X102908100Y-117101248D01*
X102831900Y-117101248D01*
X102738127Y-116629820D01*
X102471085Y-116230163D01*
X102209600Y-116055444D01*
X102209600Y-108704907D01*
X102354342Y-108608194D01*
X102585595Y-108262099D01*
X102666800Y-107853852D01*
X102666800Y-106776148D01*
X102585595Y-106367901D01*
X102354342Y-106021806D01*
X102008247Y-105790553D01*
X101600000Y-105709348D01*
X101191753Y-105790553D01*
X100845658Y-106021806D01*
X100614405Y-106367901D01*
X100533200Y-106776148D01*
X100533200Y-107853852D01*
X100614405Y-108262099D01*
X100845658Y-108608194D01*
X100990400Y-108704907D01*
X100990400Y-116055444D01*
X100728915Y-116230163D01*
X100461873Y-116629820D01*
X100368100Y-117101248D01*
X100291900Y-117101248D01*
X100198127Y-116629820D01*
X99931085Y-116230163D01*
X99669600Y-116055444D01*
X99669600Y-108704907D01*
X99814342Y-108608194D01*
X100045595Y-108262099D01*
X100126800Y-107853852D01*
X100126800Y-106776148D01*
X100045595Y-106367901D01*
X99814342Y-106021806D01*
X99468247Y-105790553D01*
X99060000Y-105709348D01*
X98651753Y-105790553D01*
X98305658Y-106021806D01*
X98074405Y-106367901D01*
X97993200Y-106776148D01*
X97993200Y-107853852D01*
X98074405Y-108262099D01*
X98305658Y-108608194D01*
X98450400Y-108704907D01*
X98450400Y-116055444D01*
X98188915Y-116230163D01*
X97921873Y-116629820D01*
X97828100Y-117101248D01*
X97751900Y-117101248D01*
X97658127Y-116629820D01*
X97391085Y-116230163D01*
X97129600Y-116055444D01*
X97129600Y-108704907D01*
X97274342Y-108608194D01*
X97505595Y-108262099D01*
X97586800Y-107853852D01*
X97586800Y-106776148D01*
X97505595Y-106367901D01*
X97274342Y-106021806D01*
X96928247Y-105790553D01*
X96520000Y-105709348D01*
X96111753Y-105790553D01*
X95765658Y-106021806D01*
X95534405Y-106367901D01*
X95453200Y-106776148D01*
X95453200Y-107853852D01*
X95534405Y-108262099D01*
X95765658Y-108608194D01*
X95910400Y-108704907D01*
X95910400Y-116055444D01*
X95648915Y-116230163D01*
X95381873Y-116629820D01*
X95288100Y-117101248D01*
X95211900Y-117101248D01*
X95118127Y-116629820D01*
X94851085Y-116230163D01*
X94589600Y-116055444D01*
X94589600Y-108704907D01*
X94734342Y-108608194D01*
X94965595Y-108262099D01*
X95046800Y-107853852D01*
X95046800Y-106776148D01*
X94965595Y-106367901D01*
X94734342Y-106021806D01*
X94388247Y-105790553D01*
X93980000Y-105709348D01*
X93571753Y-105790553D01*
X93225658Y-106021806D01*
X92994405Y-106367901D01*
X92913200Y-106776148D01*
X92913200Y-107853852D01*
X92994405Y-108262099D01*
X93225658Y-108608194D01*
X93370400Y-108704907D01*
X93370400Y-116055444D01*
X93108915Y-116230163D01*
X92841873Y-116629820D01*
X92748100Y-117101248D01*
X92671900Y-117101248D01*
X92578127Y-116629820D01*
X92311085Y-116230163D01*
X92049600Y-116055444D01*
X92049600Y-108704907D01*
X92194342Y-108608194D01*
X92425595Y-108262099D01*
X92506800Y-107853852D01*
X92506800Y-106776148D01*
X92425595Y-106367901D01*
X92194342Y-106021806D01*
X91848916Y-105791000D01*
X92194342Y-105560194D01*
X92425595Y-105214099D01*
X92506800Y-104805852D01*
X92506800Y-104775000D01*
X110154348Y-104775000D01*
X110235553Y-105183247D01*
X110466806Y-105529342D01*
X110812901Y-105760595D01*
X111221148Y-105841800D01*
X111275056Y-105841800D01*
X111005658Y-106021806D01*
X110774405Y-106367901D01*
X110693200Y-106776148D01*
X110693200Y-107853852D01*
X110774405Y-108262099D01*
X111005658Y-108608194D01*
X111150400Y-108704907D01*
X111150400Y-116055444D01*
X110888915Y-116230163D01*
X110621873Y-116629820D01*
X110528100Y-117101248D01*
X110528100Y-117848752D01*
X110621873Y-118320180D01*
X110888915Y-118719837D01*
X111288572Y-118986879D01*
X111760000Y-119080652D01*
X112231428Y-118986879D01*
X112631085Y-118719837D01*
X112898127Y-118320180D01*
X112991900Y-117848752D01*
X112991900Y-117101248D01*
X112898127Y-116629820D01*
X112631085Y-116230163D01*
X112369600Y-116055444D01*
X112369600Y-108704907D01*
X112514342Y-108608194D01*
X112745595Y-108262099D01*
X112826800Y-107853852D01*
X112826800Y-106776148D01*
X112745595Y-106367901D01*
X112514342Y-106021806D01*
X112244944Y-105841800D01*
X112298852Y-105841800D01*
X112707099Y-105760595D01*
X112850200Y-105664978D01*
X112850200Y-114935000D01*
X112896603Y-115168284D01*
X113028748Y-115366052D01*
X113690400Y-116027704D01*
X113690400Y-116055444D01*
X113428915Y-116230163D01*
X113161873Y-116629820D01*
X113068100Y-117101248D01*
X113068100Y-117848752D01*
X113161873Y-118320180D01*
X113428915Y-118719837D01*
X113828572Y-118986879D01*
X114300000Y-119080652D01*
X114771428Y-118986879D01*
X115171085Y-118719837D01*
X115438127Y-118320180D01*
X115531900Y-117848752D01*
X115531900Y-117101248D01*
X115438127Y-116629820D01*
X115171085Y-116230163D01*
X114909600Y-116055444D01*
X114909600Y-115775200D01*
X114863197Y-115541916D01*
X114731052Y-115344148D01*
X114069400Y-114682496D01*
X114069400Y-104775000D01*
X114022997Y-104541716D01*
X113890852Y-104343948D01*
X113693084Y-104211803D01*
X113459800Y-104165400D01*
X113149907Y-104165400D01*
X113053194Y-104020658D01*
X112707099Y-103789405D01*
X112298852Y-103708200D01*
X111221148Y-103708200D01*
X110812901Y-103789405D01*
X110466806Y-104020658D01*
X110235553Y-104366753D01*
X110154348Y-104775000D01*
X92506800Y-104775000D01*
X92506800Y-103728148D01*
X92425595Y-103319901D01*
X92194342Y-102973806D01*
X91848247Y-102742553D01*
X91440000Y-102661348D01*
X91031753Y-102742553D01*
X90685658Y-102973806D01*
X90454405Y-103319901D01*
X90373200Y-103728148D01*
X90373200Y-104805852D01*
X90454405Y-105214099D01*
X90685658Y-105560194D01*
X91031084Y-105791000D01*
X90685658Y-106021806D01*
X90454405Y-106367901D01*
X90373200Y-106776148D01*
X90373200Y-107853852D01*
X90454405Y-108262099D01*
X90685658Y-108608194D01*
X90830400Y-108704907D01*
X90830400Y-116055444D01*
X90568915Y-116230163D01*
X90301873Y-116629820D01*
X90208100Y-117101248D01*
X90131900Y-117101248D01*
X90038127Y-116629820D01*
X89771085Y-116230163D01*
X89509600Y-116055444D01*
X89509600Y-108704907D01*
X89654342Y-108608194D01*
X89885595Y-108262099D01*
X89966800Y-107853852D01*
X89966800Y-106776148D01*
X89885595Y-106367901D01*
X89654342Y-106021806D01*
X89308916Y-105791000D01*
X89654342Y-105560194D01*
X89885595Y-105214099D01*
X89966800Y-104805852D01*
X89966800Y-103728148D01*
X89885595Y-103319901D01*
X89654342Y-102973806D01*
X89308247Y-102742553D01*
X88900000Y-102661348D01*
X88491753Y-102742553D01*
X88145658Y-102973806D01*
X87914405Y-103319901D01*
X87833200Y-103728148D01*
X87833200Y-104805852D01*
X87914405Y-105214099D01*
X88145658Y-105560194D01*
X88491084Y-105791000D01*
X88145658Y-106021806D01*
X87914405Y-106367901D01*
X87833200Y-106776148D01*
X87833200Y-107853852D01*
X87914405Y-108262099D01*
X88145658Y-108608194D01*
X88290400Y-108704907D01*
X88290400Y-116055444D01*
X88028915Y-116230163D01*
X87761873Y-116629820D01*
X87668100Y-117101248D01*
X87591900Y-117101248D01*
X87498127Y-116629820D01*
X87231085Y-116230163D01*
X86969600Y-116055444D01*
X86969600Y-108704907D01*
X87114342Y-108608194D01*
X87345595Y-108262099D01*
X87426800Y-107853852D01*
X87426800Y-106776148D01*
X87345595Y-106367901D01*
X87114342Y-106021806D01*
X86814501Y-105821459D01*
X87150263Y-105597110D01*
X87392528Y-105234534D01*
X87477600Y-104806847D01*
X87477600Y-103727153D01*
X87392528Y-103299466D01*
X87325200Y-103198702D01*
X87325200Y-102133100D01*
X87251729Y-101763734D01*
X87125353Y-101574600D01*
X93142273Y-101574600D01*
X92994405Y-101795901D01*
X92913200Y-102204148D01*
X92913200Y-103281852D01*
X92994405Y-103690099D01*
X93225658Y-104036194D01*
X93571753Y-104267447D01*
X93980000Y-104348652D01*
X94388247Y-104267447D01*
X94734342Y-104036194D01*
X94965595Y-103690099D01*
X95046800Y-103281852D01*
X95046800Y-102204148D01*
X94965595Y-101795901D01*
X94817727Y-101574600D01*
X95682273Y-101574600D01*
X95534405Y-101795901D01*
X95453200Y-102204148D01*
X95453200Y-103281852D01*
X95534405Y-103690099D01*
X95765658Y-104036194D01*
X96111753Y-104267447D01*
X96520000Y-104348652D01*
X96928247Y-104267447D01*
X97274342Y-104036194D01*
X97505595Y-103690099D01*
X97586800Y-103281852D01*
X97586800Y-102204148D01*
X97505595Y-101795901D01*
X97357727Y-101574600D01*
X98222273Y-101574600D01*
X98074405Y-101795901D01*
X97993200Y-102204148D01*
X97993200Y-103281852D01*
X98074405Y-103690099D01*
X98305658Y-104036194D01*
X98651753Y-104267447D01*
X99060000Y-104348652D01*
X99468247Y-104267447D01*
X99814342Y-104036194D01*
X100045595Y-103690099D01*
X100126800Y-103281852D01*
X100126800Y-102204148D01*
X100045595Y-101795901D01*
X99897727Y-101574600D01*
X100762273Y-101574600D01*
X100614405Y-101795901D01*
X100533200Y-102204148D01*
X100533200Y-103281852D01*
X100614405Y-103690099D01*
X100845658Y-104036194D01*
X101191753Y-104267447D01*
X101600000Y-104348652D01*
X102008247Y-104267447D01*
X102354342Y-104036194D01*
X102585595Y-103690099D01*
X102666800Y-103281852D01*
X102666800Y-102204148D01*
X103073200Y-102204148D01*
X103073200Y-103281852D01*
X103154405Y-103690099D01*
X103385658Y-104036194D01*
X103731753Y-104267447D01*
X104140000Y-104348652D01*
X104548247Y-104267447D01*
X104894342Y-104036194D01*
X105125595Y-103690099D01*
X105206800Y-103281852D01*
X105206800Y-102204148D01*
X105613200Y-102204148D01*
X105613200Y-103281852D01*
X105694405Y-103690099D01*
X105925658Y-104036194D01*
X106271753Y-104267447D01*
X106680000Y-104348652D01*
X107088247Y-104267447D01*
X107434342Y-104036194D01*
X107665595Y-103690099D01*
X107746800Y-103281852D01*
X107746800Y-102204148D01*
X107665595Y-101795901D01*
X107434342Y-101449806D01*
X107088247Y-101218553D01*
X106680000Y-101137348D01*
X106271753Y-101218553D01*
X105925658Y-101449806D01*
X105694405Y-101795901D01*
X105613200Y-102204148D01*
X105206800Y-102204148D01*
X105125595Y-101795901D01*
X104894342Y-101449806D01*
X104548247Y-101218553D01*
X104140000Y-101137348D01*
X103731753Y-101218553D01*
X103385658Y-101449806D01*
X103154405Y-101795901D01*
X103073200Y-102204148D01*
X102666800Y-102204148D01*
X102585595Y-101795901D01*
X102354342Y-101449806D01*
X102209600Y-101353093D01*
X102209600Y-101043200D01*
X102163197Y-100809916D01*
X102076200Y-100679716D01*
X102069884Y-100670263D01*
X102354342Y-100480194D01*
X102585595Y-100134099D01*
X102666800Y-99725852D01*
X102666800Y-98648148D01*
X102585595Y-98239901D01*
X102354342Y-97893806D01*
X102209600Y-97797093D01*
X102209600Y-97487200D01*
X102163197Y-97253916D01*
X102031052Y-97056148D01*
X101258552Y-96283648D01*
X101060784Y-96151503D01*
X100827500Y-96105100D01*
X79753304Y-96105100D01*
X79060604Y-95412400D01*
X101369196Y-95412400D01*
X103411647Y-97454852D01*
X103550254Y-97547466D01*
X103609416Y-97586997D01*
X103842700Y-97633400D01*
X103878316Y-97633400D01*
X103731753Y-97662553D01*
X103385658Y-97893806D01*
X103154405Y-98239901D01*
X103073200Y-98648148D01*
X103073200Y-99725852D01*
X103154405Y-100134099D01*
X103385658Y-100480194D01*
X103731753Y-100711447D01*
X104140000Y-100792652D01*
X104548247Y-100711447D01*
X104894342Y-100480194D01*
X105125595Y-100134099D01*
X105206800Y-99725852D01*
X105206800Y-98648148D01*
X105125595Y-98239901D01*
X104894342Y-97893806D01*
X104548247Y-97662553D01*
X104401684Y-97633400D01*
X106418316Y-97633400D01*
X106271753Y-97662553D01*
X105925658Y-97893806D01*
X105694405Y-98239901D01*
X105613200Y-98648148D01*
X105613200Y-99725852D01*
X105694405Y-100134099D01*
X105925658Y-100480194D01*
X106271753Y-100711447D01*
X106680000Y-100792652D01*
X107088247Y-100711447D01*
X107434342Y-100480194D01*
X107470633Y-100425881D01*
X107588548Y-100602352D01*
X108330248Y-101344052D01*
X108477089Y-101442168D01*
X108465658Y-101449806D01*
X108234405Y-101795901D01*
X108153200Y-102204148D01*
X108153200Y-103281852D01*
X108234405Y-103690099D01*
X108465658Y-104036194D01*
X108811753Y-104267447D01*
X109220000Y-104348652D01*
X109628247Y-104267447D01*
X109974342Y-104036194D01*
X110205595Y-103690099D01*
X110286800Y-103281852D01*
X110286800Y-102719944D01*
X110466806Y-102989342D01*
X110812901Y-103220595D01*
X111221148Y-103301800D01*
X112298852Y-103301800D01*
X112707099Y-103220595D01*
X113053194Y-102989342D01*
X113284447Y-102643247D01*
X113365652Y-102235000D01*
X113284447Y-101826753D01*
X113053194Y-101480658D01*
X112707099Y-101249405D01*
X112298852Y-101168200D01*
X111555305Y-101168200D01*
X111130966Y-100743862D01*
X111221148Y-100761800D01*
X112298852Y-100761800D01*
X112707099Y-100680595D01*
X113053194Y-100449342D01*
X113284447Y-100103247D01*
X113343029Y-99808733D01*
X117737800Y-104203505D01*
X117737800Y-106320000D01*
X117784203Y-106553284D01*
X117916348Y-106751052D01*
X122811108Y-111645812D01*
X122483307Y-111645526D01*
X122114419Y-111797948D01*
X121831939Y-112079934D01*
X121678874Y-112448556D01*
X121678526Y-112847693D01*
X121830948Y-113216581D01*
X122095133Y-113481229D01*
X120243600Y-113481229D01*
X120124673Y-113504885D01*
X120023852Y-113572252D01*
X119956485Y-113673073D01*
X119932829Y-113792000D01*
X119932829Y-116432473D01*
X119876741Y-116296730D01*
X119291352Y-115710318D01*
X118526112Y-115392563D01*
X117697523Y-115391840D01*
X116931730Y-115708259D01*
X116345318Y-116293648D01*
X116027563Y-117058888D01*
X116026840Y-117887477D01*
X116343259Y-118653270D01*
X116928648Y-119239682D01*
X117693888Y-119557437D01*
X118522477Y-119558160D01*
X119288270Y-119241741D01*
X119874682Y-118656352D01*
X119932829Y-118516318D01*
X119932829Y-118618000D01*
X119956485Y-118736927D01*
X120023852Y-118837748D01*
X120124673Y-118905115D01*
X120243600Y-118928771D01*
X123037600Y-118928771D01*
X123156527Y-118905115D01*
X123257348Y-118837748D01*
X123324715Y-118736927D01*
X123348371Y-118618000D01*
X123348371Y-114734437D01*
X123382934Y-114769061D01*
X123751556Y-114922126D01*
X124150693Y-114922474D01*
X124519581Y-114770052D01*
X124802061Y-114488066D01*
X124955126Y-114119444D01*
X124955127Y-114117693D01*
X130314526Y-114117693D01*
X130466948Y-114486581D01*
X130748934Y-114769061D01*
X131117556Y-114922126D01*
X131516693Y-114922474D01*
X131885581Y-114770052D01*
X131921629Y-114734067D01*
X131921629Y-118618000D01*
X131945285Y-118736927D01*
X132012652Y-118837748D01*
X132113473Y-118905115D01*
X132232400Y-118928771D01*
X135026400Y-118928771D01*
X135145327Y-118905115D01*
X135246148Y-118837748D01*
X135313515Y-118736927D01*
X135337171Y-118618000D01*
X135337171Y-117887477D01*
X138886840Y-117887477D01*
X139203259Y-118653270D01*
X139788648Y-119239682D01*
X140553888Y-119557437D01*
X141382477Y-119558160D01*
X142148270Y-119241741D01*
X142734682Y-118656352D01*
X143052437Y-117891112D01*
X143053160Y-117062523D01*
X142736741Y-116296730D01*
X142151352Y-115710318D01*
X141386112Y-115392563D01*
X140557523Y-115391840D01*
X139791730Y-115708259D01*
X139205318Y-116293648D01*
X138887563Y-117058888D01*
X138886840Y-117887477D01*
X135337171Y-117887477D01*
X135337171Y-113792000D01*
X135313515Y-113673073D01*
X135246148Y-113572252D01*
X135145327Y-113504885D01*
X135026400Y-113481229D01*
X133174437Y-113481229D01*
X133438061Y-113218066D01*
X133591126Y-112849444D01*
X133591474Y-112450307D01*
X133439052Y-112081419D01*
X133157066Y-111798939D01*
X132788444Y-111645874D01*
X132389307Y-111645526D01*
X132020419Y-111797948D01*
X131737939Y-112079934D01*
X131584874Y-112448556D01*
X131584526Y-112847693D01*
X131632219Y-112963117D01*
X131518444Y-112915874D01*
X131119307Y-112915526D01*
X130750419Y-113067948D01*
X130467939Y-113349934D01*
X130314874Y-113718556D01*
X130314526Y-114117693D01*
X124955127Y-114117693D01*
X124955474Y-113720307D01*
X124803052Y-113351419D01*
X124521066Y-113068939D01*
X124152444Y-112915874D01*
X123753307Y-112915526D01*
X123637883Y-112963219D01*
X123685126Y-112849444D01*
X123685413Y-112520117D01*
X123753448Y-112588152D01*
X123951216Y-112720297D01*
X124184500Y-112766700D01*
X130017200Y-112766700D01*
X130250484Y-112720297D01*
X130448252Y-112588152D01*
X130606052Y-112430352D01*
X130738197Y-112232584D01*
X130784600Y-111999300D01*
X130784600Y-111880271D01*
X131064000Y-111880271D01*
X131182927Y-111856615D01*
X131283748Y-111789248D01*
X131351115Y-111688427D01*
X131374771Y-111569500D01*
X131374771Y-107378500D01*
X131351115Y-107259573D01*
X131283748Y-107158752D01*
X131182927Y-107091385D01*
X131064000Y-107067729D01*
X129286000Y-107067729D01*
X129167073Y-107091385D01*
X129087048Y-107144856D01*
X129040794Y-107033189D01*
X128869311Y-106861706D01*
X128645257Y-106768900D01*
X127939800Y-106768900D01*
X127787400Y-106921300D01*
X127787400Y-109321600D01*
X127807400Y-109321600D01*
X127807400Y-109626400D01*
X127787400Y-109626400D01*
X127787400Y-109646400D01*
X127482600Y-109646400D01*
X127482600Y-109626400D01*
X127462600Y-109626400D01*
X127462600Y-109321600D01*
X127482600Y-109321600D01*
X127482600Y-106921300D01*
X127330200Y-106768900D01*
X126624743Y-106768900D01*
X126400689Y-106861706D01*
X126229206Y-107033189D01*
X126182952Y-107144856D01*
X126102927Y-107091385D01*
X125984000Y-107067729D01*
X125704600Y-107067729D01*
X125704600Y-106948700D01*
X125658197Y-106715416D01*
X125526052Y-106517648D01*
X123199204Y-104190800D01*
X135605667Y-104190800D01*
X135764211Y-104987853D01*
X136215705Y-105663562D01*
X136891414Y-106115056D01*
X137688467Y-106273600D01*
X139323933Y-106273600D01*
X140120986Y-106115056D01*
X140796695Y-105663562D01*
X141248189Y-104987853D01*
X141406733Y-104190800D01*
X141248189Y-103393747D01*
X140796695Y-102718038D01*
X140120986Y-102266544D01*
X139323933Y-102108000D01*
X137688467Y-102108000D01*
X136891414Y-102266544D01*
X136215705Y-102718038D01*
X135764211Y-103393747D01*
X135605667Y-104190800D01*
X123199204Y-104190800D01*
X118138676Y-99130272D01*
X129133600Y-99130272D01*
X129133600Y-100259728D01*
X129315345Y-101173423D01*
X129832912Y-101948016D01*
X130607505Y-102465583D01*
X131521200Y-102647328D01*
X132434895Y-102465583D01*
X133209488Y-101948016D01*
X133727055Y-101173423D01*
X133908800Y-100259728D01*
X133908800Y-100218265D01*
X134170045Y-100218265D01*
X134235425Y-100467896D01*
X134703549Y-101275525D01*
X135445106Y-101842534D01*
X136347200Y-102082600D01*
X136855200Y-102082600D01*
X136855200Y-99847400D01*
X134269602Y-99847400D01*
X134170045Y-100218265D01*
X133908800Y-100218265D01*
X133908800Y-99171735D01*
X134170045Y-99171735D01*
X134269602Y-99542600D01*
X136855200Y-99542600D01*
X136855200Y-97307400D01*
X137160000Y-97307400D01*
X137160000Y-99542600D01*
X137180000Y-99542600D01*
X137180000Y-99847400D01*
X137160000Y-99847400D01*
X137160000Y-102082600D01*
X137668000Y-102082600D01*
X138570094Y-101842534D01*
X139311651Y-101275525D01*
X139673277Y-100651632D01*
X139792463Y-100771026D01*
X140259073Y-100964779D01*
X140764310Y-100965220D01*
X141231258Y-100772282D01*
X141588826Y-100415337D01*
X141782579Y-99948727D01*
X141783020Y-99443490D01*
X141590082Y-98976542D01*
X141233137Y-98618974D01*
X140766527Y-98425221D01*
X140261290Y-98424780D01*
X139794342Y-98617718D01*
X139673352Y-98738498D01*
X139311651Y-98114475D01*
X138570094Y-97547466D01*
X137668000Y-97307400D01*
X137160000Y-97307400D01*
X136855200Y-97307400D01*
X136347200Y-97307400D01*
X135445106Y-97547466D01*
X134703549Y-98114475D01*
X134235425Y-98922104D01*
X134170045Y-99171735D01*
X133908800Y-99171735D01*
X133908800Y-99130272D01*
X133727055Y-98216577D01*
X133209488Y-97441984D01*
X132434895Y-96924417D01*
X131521200Y-96742672D01*
X130607505Y-96924417D01*
X129832912Y-97441984D01*
X129315345Y-98216577D01*
X129133600Y-99130272D01*
X118138676Y-99130272D01*
X114465152Y-95456748D01*
X114267384Y-95324603D01*
X114034100Y-95278200D01*
X113114093Y-95278200D01*
X113166879Y-95199200D01*
X135605667Y-95199200D01*
X135764211Y-95996253D01*
X136215705Y-96671962D01*
X136891414Y-97123456D01*
X137688467Y-97282000D01*
X139323933Y-97282000D01*
X140120986Y-97123456D01*
X140796695Y-96671962D01*
X141248189Y-95996253D01*
X141406733Y-95199200D01*
X141248189Y-94402147D01*
X140796695Y-93726438D01*
X140120986Y-93274944D01*
X139323933Y-93116400D01*
X137688467Y-93116400D01*
X136891414Y-93274944D01*
X136215705Y-93726438D01*
X135764211Y-94402147D01*
X135605667Y-95199200D01*
X113166879Y-95199200D01*
X113284447Y-95023247D01*
X113365652Y-94615000D01*
X113284447Y-94206753D01*
X113053194Y-93860658D01*
X112707099Y-93629405D01*
X112298852Y-93548200D01*
X112244944Y-93548200D01*
X112514342Y-93368194D01*
X112745595Y-93022099D01*
X112826800Y-92613852D01*
X112826800Y-91536148D01*
X112745595Y-91127901D01*
X112514342Y-90781806D01*
X112168247Y-90550553D01*
X111760000Y-90469348D01*
X111351753Y-90550553D01*
X111005658Y-90781806D01*
X110774405Y-91127901D01*
X110693200Y-91536148D01*
X110693200Y-92613852D01*
X110774405Y-93022099D01*
X111005658Y-93368194D01*
X111275056Y-93548200D01*
X111221148Y-93548200D01*
X110812901Y-93629405D01*
X110466806Y-93860658D01*
X110235553Y-94206753D01*
X110154348Y-94615000D01*
X110154903Y-94617788D01*
X110051900Y-94597300D01*
X105339104Y-94597300D01*
X104375594Y-93633790D01*
X104548247Y-93599447D01*
X104894342Y-93368194D01*
X105125595Y-93022099D01*
X105206800Y-92613852D01*
X105206800Y-91536148D01*
X105613200Y-91536148D01*
X105613200Y-92613852D01*
X105694405Y-93022099D01*
X105925658Y-93368194D01*
X106271753Y-93599447D01*
X106680000Y-93680652D01*
X107088247Y-93599447D01*
X107434342Y-93368194D01*
X107665595Y-93022099D01*
X107746800Y-92613852D01*
X107746800Y-91536148D01*
X108153200Y-91536148D01*
X108153200Y-92613852D01*
X108234405Y-93022099D01*
X108465658Y-93368194D01*
X108811753Y-93599447D01*
X109220000Y-93680652D01*
X109628247Y-93599447D01*
X109974342Y-93368194D01*
X110205595Y-93022099D01*
X110286800Y-92613852D01*
X110286800Y-91536148D01*
X110205595Y-91127901D01*
X109974342Y-90781806D01*
X109628247Y-90550553D01*
X109220000Y-90469348D01*
X108811753Y-90550553D01*
X108465658Y-90781806D01*
X108234405Y-91127901D01*
X108153200Y-91536148D01*
X107746800Y-91536148D01*
X107665595Y-91127901D01*
X107434342Y-90781806D01*
X107088247Y-90550553D01*
X106680000Y-90469348D01*
X106271753Y-90550553D01*
X105925658Y-90781806D01*
X105694405Y-91127901D01*
X105613200Y-91536148D01*
X105206800Y-91536148D01*
X105125595Y-91127901D01*
X104894342Y-90781806D01*
X104548247Y-90550553D01*
X104140000Y-90469348D01*
X103731753Y-90550553D01*
X103385658Y-90781806D01*
X103361950Y-90817288D01*
X103301052Y-90726148D01*
X102519052Y-89944148D01*
X102321284Y-89812003D01*
X102088000Y-89765600D01*
X99060000Y-89765600D01*
X98826716Y-89812003D01*
X98628948Y-89944148D01*
X98496803Y-90141916D01*
X98450400Y-90375200D01*
X98450400Y-90685093D01*
X98305658Y-90781806D01*
X98074405Y-91127901D01*
X97993200Y-91536148D01*
X97993200Y-92613852D01*
X98074405Y-93022099D01*
X98305658Y-93368194D01*
X98651753Y-93599447D01*
X99060000Y-93680652D01*
X99468247Y-93599447D01*
X99814342Y-93368194D01*
X100045595Y-93022099D01*
X100126800Y-92613852D01*
X100126800Y-91536148D01*
X100045595Y-91127901D01*
X99949978Y-90984800D01*
X100710022Y-90984800D01*
X100614405Y-91127901D01*
X100533200Y-91536148D01*
X100533200Y-92613852D01*
X100614405Y-93022099D01*
X100845658Y-93368194D01*
X100990400Y-93464907D01*
X100990400Y-93774800D01*
X101036803Y-94008084D01*
X101160494Y-94193200D01*
X78847704Y-94193200D01*
X78522152Y-93867648D01*
X78587600Y-93802200D01*
X78587600Y-92227400D01*
X78892400Y-92227400D01*
X78892400Y-93802200D01*
X79044800Y-93954600D01*
X79623257Y-93954600D01*
X79847311Y-93861794D01*
X80018794Y-93690311D01*
X80111600Y-93466257D01*
X80111600Y-92379800D01*
X79959200Y-92227400D01*
X78892400Y-92227400D01*
X78587600Y-92227400D01*
X77520800Y-92227400D01*
X77368400Y-92379800D01*
X77368400Y-92713896D01*
X77188310Y-92533806D01*
X77210356Y-92511799D01*
X77324670Y-92236499D01*
X77324930Y-91938409D01*
X77211096Y-91662910D01*
X77000499Y-91451944D01*
X76905929Y-91412675D01*
X77368400Y-90950204D01*
X77368400Y-91770200D01*
X77520800Y-91922600D01*
X78587600Y-91922600D01*
X78587600Y-90347800D01*
X78892400Y-90347800D01*
X78892400Y-91922600D01*
X79959200Y-91922600D01*
X80111600Y-91770200D01*
X80111600Y-91536148D01*
X80213200Y-91536148D01*
X80213200Y-92613852D01*
X80294405Y-93022099D01*
X80525658Y-93368194D01*
X80871753Y-93599447D01*
X81280000Y-93680652D01*
X81688247Y-93599447D01*
X82034342Y-93368194D01*
X82265595Y-93022099D01*
X82346800Y-92613852D01*
X82346800Y-91536148D01*
X82265595Y-91127901D01*
X82034342Y-90781806D01*
X81889600Y-90685093D01*
X81889600Y-89208104D01*
X83210400Y-87887304D01*
X83210400Y-90685093D01*
X83065658Y-90781806D01*
X82834405Y-91127901D01*
X82753200Y-91536148D01*
X82753200Y-92613852D01*
X82834405Y-93022099D01*
X83065658Y-93368194D01*
X83411753Y-93599447D01*
X83820000Y-93680652D01*
X84228247Y-93599447D01*
X84574342Y-93368194D01*
X84805595Y-93022099D01*
X84886800Y-92613852D01*
X84886800Y-91536148D01*
X85293200Y-91536148D01*
X85293200Y-92613852D01*
X85374405Y-93022099D01*
X85605658Y-93368194D01*
X85951753Y-93599447D01*
X86360000Y-93680652D01*
X86768247Y-93599447D01*
X87114342Y-93368194D01*
X87345595Y-93022099D01*
X87426800Y-92613852D01*
X87426800Y-91536148D01*
X87833200Y-91536148D01*
X87833200Y-92613852D01*
X87914405Y-93022099D01*
X88145658Y-93368194D01*
X88491753Y-93599447D01*
X88900000Y-93680652D01*
X89308247Y-93599447D01*
X89654342Y-93368194D01*
X89885595Y-93022099D01*
X89966800Y-92613852D01*
X89966800Y-91536148D01*
X90373200Y-91536148D01*
X90373200Y-92613852D01*
X90454405Y-93022099D01*
X90685658Y-93368194D01*
X91031753Y-93599447D01*
X91440000Y-93680652D01*
X91848247Y-93599447D01*
X92194342Y-93368194D01*
X92425595Y-93022099D01*
X92506800Y-92613852D01*
X92506800Y-91536148D01*
X92913200Y-91536148D01*
X92913200Y-92613852D01*
X92994405Y-93022099D01*
X93225658Y-93368194D01*
X93571753Y-93599447D01*
X93980000Y-93680652D01*
X94388247Y-93599447D01*
X94734342Y-93368194D01*
X94965595Y-93022099D01*
X95046800Y-92613852D01*
X95046800Y-91536148D01*
X95453200Y-91536148D01*
X95453200Y-92613852D01*
X95534405Y-93022099D01*
X95765658Y-93368194D01*
X96111753Y-93599447D01*
X96520000Y-93680652D01*
X96928247Y-93599447D01*
X97274342Y-93368194D01*
X97505595Y-93022099D01*
X97586800Y-92613852D01*
X97586800Y-91536148D01*
X97505595Y-91127901D01*
X97274342Y-90781806D01*
X96928247Y-90550553D01*
X96520000Y-90469348D01*
X96111753Y-90550553D01*
X95765658Y-90781806D01*
X95534405Y-91127901D01*
X95453200Y-91536148D01*
X95046800Y-91536148D01*
X94965595Y-91127901D01*
X94734342Y-90781806D01*
X94388247Y-90550553D01*
X93980000Y-90469348D01*
X93571753Y-90550553D01*
X93225658Y-90781806D01*
X92994405Y-91127901D01*
X92913200Y-91536148D01*
X92506800Y-91536148D01*
X92425595Y-91127901D01*
X92194342Y-90781806D01*
X91848247Y-90550553D01*
X91440000Y-90469348D01*
X91031753Y-90550553D01*
X90685658Y-90781806D01*
X90454405Y-91127901D01*
X90373200Y-91536148D01*
X89966800Y-91536148D01*
X89885595Y-91127901D01*
X89654342Y-90781806D01*
X89308247Y-90550553D01*
X88900000Y-90469348D01*
X88491753Y-90550553D01*
X88145658Y-90781806D01*
X87914405Y-91127901D01*
X87833200Y-91536148D01*
X87426800Y-91536148D01*
X87345595Y-91127901D01*
X87114342Y-90781806D01*
X86768247Y-90550553D01*
X86360000Y-90469348D01*
X85951753Y-90550553D01*
X85605658Y-90781806D01*
X85374405Y-91127901D01*
X85293200Y-91536148D01*
X84886800Y-91536148D01*
X84805595Y-91127901D01*
X84574342Y-90781806D01*
X84429600Y-90685093D01*
X84429600Y-87674404D01*
X86101604Y-86002400D01*
X115652496Y-86002400D01*
X119997148Y-90347052D01*
X120194916Y-90479197D01*
X120428200Y-90525600D01*
X123895229Y-90525600D01*
X123895229Y-92011500D01*
X123918885Y-92130427D01*
X123986252Y-92231248D01*
X124087073Y-92298615D01*
X124206000Y-92322271D01*
X125984000Y-92322271D01*
X126102927Y-92298615D01*
X126182952Y-92245144D01*
X126229206Y-92356811D01*
X126400689Y-92528294D01*
X126624743Y-92621100D01*
X127330200Y-92621100D01*
X127482600Y-92468700D01*
X127482600Y-90068400D01*
X127462600Y-90068400D01*
X127462600Y-89763600D01*
X127482600Y-89763600D01*
X127482600Y-89743600D01*
X127787400Y-89743600D01*
X127787400Y-89763600D01*
X127807400Y-89763600D01*
X127807400Y-90068400D01*
X127787400Y-90068400D01*
X127787400Y-92468700D01*
X127939800Y-92621100D01*
X128645257Y-92621100D01*
X128869311Y-92528294D01*
X129040794Y-92356811D01*
X129087048Y-92245144D01*
X129167073Y-92298615D01*
X129286000Y-92322271D01*
X131064000Y-92322271D01*
X131182927Y-92298615D01*
X131283748Y-92231248D01*
X131351115Y-92130427D01*
X131374771Y-92011500D01*
X131374771Y-87820500D01*
X131351115Y-87701573D01*
X131283748Y-87600752D01*
X131182927Y-87533385D01*
X131064000Y-87509729D01*
X130784600Y-87509729D01*
X130784600Y-87390700D01*
X130738197Y-87157416D01*
X130606052Y-86959648D01*
X130456052Y-86809648D01*
X130258284Y-86677503D01*
X130025000Y-86631100D01*
X124176800Y-86631100D01*
X123943516Y-86677503D01*
X123745747Y-86809648D01*
X123685188Y-86870207D01*
X123685474Y-86542307D01*
X123637781Y-86426883D01*
X123751556Y-86474126D01*
X124150693Y-86474474D01*
X124519581Y-86322052D01*
X124802061Y-86040066D01*
X124955126Y-85671444D01*
X124955127Y-85669693D01*
X130314526Y-85669693D01*
X130466948Y-86038581D01*
X130748934Y-86321061D01*
X131117556Y-86474126D01*
X131516693Y-86474474D01*
X131632117Y-86426781D01*
X131584874Y-86540556D01*
X131584526Y-86939693D01*
X131736948Y-87308581D01*
X132018934Y-87591061D01*
X132387556Y-87744126D01*
X132786693Y-87744474D01*
X133155581Y-87592052D01*
X133438061Y-87310066D01*
X133591126Y-86941444D01*
X133591474Y-86542307D01*
X133439052Y-86173419D01*
X133174867Y-85908771D01*
X135026400Y-85908771D01*
X135145327Y-85885115D01*
X135246148Y-85817748D01*
X135313515Y-85716927D01*
X135337171Y-85598000D01*
X135337171Y-82327477D01*
X138886840Y-82327477D01*
X139203259Y-83093270D01*
X139788648Y-83679682D01*
X140553888Y-83997437D01*
X141382477Y-83998160D01*
X142148270Y-83681741D01*
X142734682Y-83096352D01*
X143052437Y-82331112D01*
X143053160Y-81502523D01*
X142736741Y-80736730D01*
X142151352Y-80150318D01*
X141386112Y-79832563D01*
X140557523Y-79831840D01*
X139791730Y-80148259D01*
X139205318Y-80733648D01*
X138887563Y-81498888D01*
X138886840Y-82327477D01*
X135337171Y-82327477D01*
X135337171Y-80772000D01*
X135313515Y-80653073D01*
X135246148Y-80552252D01*
X135145327Y-80484885D01*
X135026400Y-80461229D01*
X132232400Y-80461229D01*
X132113473Y-80484885D01*
X132012652Y-80552252D01*
X131945285Y-80653073D01*
X131921629Y-80772000D01*
X131921629Y-84655563D01*
X131887066Y-84620939D01*
X131518444Y-84467874D01*
X131119307Y-84467526D01*
X130750419Y-84619948D01*
X130467939Y-84901934D01*
X130314874Y-85270556D01*
X130314526Y-85669693D01*
X124955127Y-85669693D01*
X124955474Y-85272307D01*
X124803052Y-84903419D01*
X124521066Y-84620939D01*
X124152444Y-84467874D01*
X123753307Y-84467526D01*
X123384419Y-84619948D01*
X123348371Y-84655933D01*
X123348371Y-80772000D01*
X123324715Y-80653073D01*
X123257348Y-80552252D01*
X123156527Y-80484885D01*
X123037600Y-80461229D01*
X120243600Y-80461229D01*
X120124673Y-80484885D01*
X120023852Y-80552252D01*
X119956485Y-80653073D01*
X119932829Y-80772000D01*
X119932829Y-80872473D01*
X119876741Y-80736730D01*
X119291352Y-80150318D01*
X118526112Y-79832563D01*
X117697523Y-79831840D01*
X116931730Y-80148259D01*
X116345318Y-80733648D01*
X116027563Y-81498888D01*
X116026840Y-82327477D01*
X116343259Y-83093270D01*
X116928648Y-83679682D01*
X117693888Y-83997437D01*
X118522477Y-83998160D01*
X119288270Y-83681741D01*
X119874682Y-83096352D01*
X119932829Y-82956318D01*
X119932829Y-85598000D01*
X119956485Y-85716927D01*
X120023852Y-85817748D01*
X120124673Y-85885115D01*
X120243600Y-85908771D01*
X122095563Y-85908771D01*
X121831939Y-86171934D01*
X121678874Y-86540556D01*
X121678526Y-86939693D01*
X121830948Y-87308581D01*
X121893457Y-87371200D01*
X119812705Y-87371200D01*
X116691752Y-84250248D01*
X116493984Y-84118103D01*
X116260700Y-84071700D01*
X85554300Y-84071700D01*
X85321016Y-84118103D01*
X85123248Y-84250248D01*
X80848948Y-88524548D01*
X80716803Y-88722316D01*
X80670400Y-88955600D01*
X80670400Y-90685093D01*
X80525658Y-90781806D01*
X80294405Y-91127901D01*
X80213200Y-91536148D01*
X80111600Y-91536148D01*
X80111600Y-90683743D01*
X80018794Y-90459689D01*
X79847311Y-90288206D01*
X79623257Y-90195400D01*
X79044800Y-90195400D01*
X78892400Y-90347800D01*
X78587600Y-90347800D01*
X78435200Y-90195400D01*
X78123204Y-90195400D01*
X78232904Y-90085700D01*
X78293200Y-90085700D01*
X78526484Y-90039297D01*
X78724252Y-89907152D01*
X84251053Y-84380352D01*
X84337985Y-84250248D01*
X84383197Y-84182584D01*
X84429600Y-83949300D01*
X84429600Y-83334556D01*
X84691085Y-83159837D01*
X84958127Y-82760180D01*
X85051900Y-82288752D01*
X85051900Y-81541248D01*
X85128100Y-81541248D01*
X85128100Y-82288752D01*
X85221873Y-82760180D01*
X85488915Y-83159837D01*
X85888572Y-83426879D01*
X86360000Y-83520652D01*
X86831428Y-83426879D01*
X87231085Y-83159837D01*
X87498127Y-82760180D01*
X87591900Y-82288752D01*
X87591900Y-81541248D01*
X87668100Y-81541248D01*
X87668100Y-82288752D01*
X87761873Y-82760180D01*
X88028915Y-83159837D01*
X88428572Y-83426879D01*
X88900000Y-83520652D01*
X89371428Y-83426879D01*
X89771085Y-83159837D01*
X90038127Y-82760180D01*
X90131900Y-82288752D01*
X90131900Y-81541248D01*
X90208100Y-81541248D01*
X90208100Y-82288752D01*
X90301873Y-82760180D01*
X90568915Y-83159837D01*
X90968572Y-83426879D01*
X91440000Y-83520652D01*
X91911428Y-83426879D01*
X92311085Y-83159837D01*
X92578127Y-82760180D01*
X92671900Y-82288752D01*
X92671900Y-81541248D01*
X92748100Y-81541248D01*
X92748100Y-82288752D01*
X92841873Y-82760180D01*
X93108915Y-83159837D01*
X93508572Y-83426879D01*
X93980000Y-83520652D01*
X94451428Y-83426879D01*
X94851085Y-83159837D01*
X95118127Y-82760180D01*
X95211900Y-82288752D01*
X95211900Y-81541248D01*
X95288100Y-81541248D01*
X95288100Y-82288752D01*
X95381873Y-82760180D01*
X95648915Y-83159837D01*
X96048572Y-83426879D01*
X96520000Y-83520652D01*
X96991428Y-83426879D01*
X97391085Y-83159837D01*
X97658127Y-82760180D01*
X97751900Y-82288752D01*
X97751900Y-81541248D01*
X97828100Y-81541248D01*
X97828100Y-82288752D01*
X97921873Y-82760180D01*
X98188915Y-83159837D01*
X98588572Y-83426879D01*
X99060000Y-83520652D01*
X99531428Y-83426879D01*
X99931085Y-83159837D01*
X100198127Y-82760180D01*
X100291900Y-82288752D01*
X100291900Y-81541248D01*
X100368100Y-81541248D01*
X100368100Y-82288752D01*
X100461873Y-82760180D01*
X100728915Y-83159837D01*
X101128572Y-83426879D01*
X101600000Y-83520652D01*
X102071428Y-83426879D01*
X102471085Y-83159837D01*
X102738127Y-82760180D01*
X102831900Y-82288752D01*
X102831900Y-81541248D01*
X102908100Y-81541248D01*
X102908100Y-82288752D01*
X103001873Y-82760180D01*
X103268915Y-83159837D01*
X103668572Y-83426879D01*
X104140000Y-83520652D01*
X104611428Y-83426879D01*
X105011085Y-83159837D01*
X105278127Y-82760180D01*
X105371900Y-82288752D01*
X105371900Y-81541248D01*
X105448100Y-81541248D01*
X105448100Y-82288752D01*
X105541873Y-82760180D01*
X105808915Y-83159837D01*
X106208572Y-83426879D01*
X106680000Y-83520652D01*
X107151428Y-83426879D01*
X107551085Y-83159837D01*
X107818127Y-82760180D01*
X107911900Y-82288752D01*
X107911900Y-81541248D01*
X107988100Y-81541248D01*
X107988100Y-82288752D01*
X108081873Y-82760180D01*
X108348915Y-83159837D01*
X108748572Y-83426879D01*
X109220000Y-83520652D01*
X109691428Y-83426879D01*
X110091085Y-83159837D01*
X110358127Y-82760180D01*
X110451900Y-82288752D01*
X110451900Y-81541248D01*
X110528100Y-81541248D01*
X110528100Y-82288752D01*
X110621873Y-82760180D01*
X110888915Y-83159837D01*
X111288572Y-83426879D01*
X111760000Y-83520652D01*
X112231428Y-83426879D01*
X112631085Y-83159837D01*
X112898127Y-82760180D01*
X112991900Y-82288752D01*
X112991900Y-81541248D01*
X113068100Y-81541248D01*
X113068100Y-82288752D01*
X113161873Y-82760180D01*
X113428915Y-83159837D01*
X113828572Y-83426879D01*
X114300000Y-83520652D01*
X114771428Y-83426879D01*
X115171085Y-83159837D01*
X115438127Y-82760180D01*
X115531900Y-82288752D01*
X115531900Y-81541248D01*
X115438127Y-81069820D01*
X115171085Y-80670163D01*
X114771428Y-80403121D01*
X114300000Y-80309348D01*
X113828572Y-80403121D01*
X113428915Y-80670163D01*
X113161873Y-81069820D01*
X113068100Y-81541248D01*
X112991900Y-81541248D01*
X112898127Y-81069820D01*
X112631085Y-80670163D01*
X112231428Y-80403121D01*
X111760000Y-80309348D01*
X111288572Y-80403121D01*
X110888915Y-80670163D01*
X110621873Y-81069820D01*
X110528100Y-81541248D01*
X110451900Y-81541248D01*
X110358127Y-81069820D01*
X110091085Y-80670163D01*
X109691428Y-80403121D01*
X109220000Y-80309348D01*
X108748572Y-80403121D01*
X108348915Y-80670163D01*
X108081873Y-81069820D01*
X107988100Y-81541248D01*
X107911900Y-81541248D01*
X107818127Y-81069820D01*
X107551085Y-80670163D01*
X107151428Y-80403121D01*
X106680000Y-80309348D01*
X106208572Y-80403121D01*
X105808915Y-80670163D01*
X105541873Y-81069820D01*
X105448100Y-81541248D01*
X105371900Y-81541248D01*
X105278127Y-81069820D01*
X105011085Y-80670163D01*
X104611428Y-80403121D01*
X104140000Y-80309348D01*
X103668572Y-80403121D01*
X103268915Y-80670163D01*
X103001873Y-81069820D01*
X102908100Y-81541248D01*
X102831900Y-81541248D01*
X102738127Y-81069820D01*
X102471085Y-80670163D01*
X102071428Y-80403121D01*
X101600000Y-80309348D01*
X101128572Y-80403121D01*
X100728915Y-80670163D01*
X100461873Y-81069820D01*
X100368100Y-81541248D01*
X100291900Y-81541248D01*
X100198127Y-81069820D01*
X99931085Y-80670163D01*
X99531428Y-80403121D01*
X99060000Y-80309348D01*
X98588572Y-80403121D01*
X98188915Y-80670163D01*
X97921873Y-81069820D01*
X97828100Y-81541248D01*
X97751900Y-81541248D01*
X97658127Y-81069820D01*
X97391085Y-80670163D01*
X96991428Y-80403121D01*
X96520000Y-80309348D01*
X96048572Y-80403121D01*
X95648915Y-80670163D01*
X95381873Y-81069820D01*
X95288100Y-81541248D01*
X95211900Y-81541248D01*
X95118127Y-81069820D01*
X94851085Y-80670163D01*
X94451428Y-80403121D01*
X93980000Y-80309348D01*
X93508572Y-80403121D01*
X93108915Y-80670163D01*
X92841873Y-81069820D01*
X92748100Y-81541248D01*
X92671900Y-81541248D01*
X92578127Y-81069820D01*
X92311085Y-80670163D01*
X91911428Y-80403121D01*
X91440000Y-80309348D01*
X90968572Y-80403121D01*
X90568915Y-80670163D01*
X90301873Y-81069820D01*
X90208100Y-81541248D01*
X90131900Y-81541248D01*
X90038127Y-81069820D01*
X89771085Y-80670163D01*
X89371428Y-80403121D01*
X88900000Y-80309348D01*
X88428572Y-80403121D01*
X88028915Y-80670163D01*
X87761873Y-81069820D01*
X87668100Y-81541248D01*
X87591900Y-81541248D01*
X87498127Y-81069820D01*
X87231085Y-80670163D01*
X86831428Y-80403121D01*
X86360000Y-80309348D01*
X85888572Y-80403121D01*
X85488915Y-80670163D01*
X85221873Y-81069820D01*
X85128100Y-81541248D01*
X85051900Y-81541248D01*
X84958127Y-81069820D01*
X84691085Y-80670163D01*
X84291428Y-80403121D01*
X83820000Y-80309348D01*
X83348572Y-80403121D01*
X82948915Y-80670163D01*
X82681873Y-81069820D01*
X82588100Y-81541248D01*
X82588100Y-82288752D01*
X82681873Y-82760180D01*
X82948915Y-83159837D01*
X83210400Y-83334556D01*
X83210400Y-83696795D01*
X79552486Y-87354709D01*
X79553160Y-86582523D01*
X79236741Y-85816730D01*
X78651352Y-85230318D01*
X77886112Y-84912563D01*
X77057523Y-84911840D01*
X76291730Y-85228259D01*
X75705318Y-85813648D01*
X75387563Y-86578888D01*
X75386840Y-87407477D01*
X75703259Y-88173270D01*
X76288648Y-88759682D01*
X77053888Y-89077437D01*
X77516555Y-89077841D01*
X75290748Y-91303648D01*
X75158603Y-91501416D01*
X75112200Y-91734700D01*
X75112200Y-92935700D01*
X75158603Y-93168984D01*
X75290748Y-93366752D01*
X79069748Y-97145752D01*
X79267516Y-97277897D01*
X79500800Y-97324300D01*
X100574996Y-97324300D01*
X100990400Y-97739704D01*
X100990400Y-97797093D01*
X100845658Y-97893806D01*
X100614405Y-98239901D01*
X100533200Y-98648148D01*
X100533200Y-99725852D01*
X100614405Y-100134099D01*
X100762273Y-100355400D01*
X99897727Y-100355400D01*
X100045595Y-100134099D01*
X100126800Y-99725852D01*
X100126800Y-98648148D01*
X100045595Y-98239901D01*
X99814342Y-97893806D01*
X99468247Y-97662553D01*
X99060000Y-97581348D01*
X98651753Y-97662553D01*
X98305658Y-97893806D01*
X98074405Y-98239901D01*
X97993200Y-98648148D01*
X97993200Y-99725852D01*
X98074405Y-100134099D01*
X98222273Y-100355400D01*
X97357727Y-100355400D01*
X97505595Y-100134099D01*
X97586800Y-99725852D01*
X97586800Y-98648148D01*
X97505595Y-98239901D01*
X97274342Y-97893806D01*
X96928247Y-97662553D01*
X96520000Y-97581348D01*
X96111753Y-97662553D01*
X95765658Y-97893806D01*
X95534405Y-98239901D01*
X95453200Y-98648148D01*
X95453200Y-99725852D01*
X95534405Y-100134099D01*
X95682273Y-100355400D01*
X94817727Y-100355400D01*
X94965595Y-100134099D01*
X95046800Y-99725852D01*
X95046800Y-98648148D01*
X94965595Y-98239901D01*
X94734342Y-97893806D01*
X94388247Y-97662553D01*
X93980000Y-97581348D01*
X93571753Y-97662553D01*
X93225658Y-97893806D01*
X92994405Y-98239901D01*
X92913200Y-98648148D01*
X92913200Y-99725852D01*
X92994405Y-100134099D01*
X93142273Y-100355400D01*
X87097304Y-100355400D01*
X86005852Y-99263948D01*
X85808084Y-99131803D01*
X85574800Y-99085400D01*
X73391214Y-99085400D01*
X73375595Y-99006877D01*
X73144342Y-98660782D01*
X72837204Y-98455559D01*
X73281708Y-98209480D01*
X73617363Y-97787970D01*
X73766163Y-97270096D01*
X73614825Y-97053400D01*
X72542400Y-97053400D01*
X72542400Y-97073400D01*
X72237600Y-97073400D01*
X72237600Y-97053400D01*
X71165175Y-97053400D01*
X71013837Y-97270096D01*
X71162637Y-97787970D01*
X71498292Y-98209480D01*
X71942796Y-98455559D01*
X71635658Y-98660782D01*
X71404405Y-99006877D01*
X71323200Y-99415124D01*
X71323200Y-99974876D01*
X71404405Y-100383123D01*
X71635658Y-100729218D01*
X71942796Y-100934441D01*
X71498292Y-101180520D01*
X71162637Y-101602030D01*
X71013837Y-102119904D01*
X71165175Y-102336600D01*
X72237600Y-102336600D01*
X72237600Y-102316600D01*
X72542400Y-102316600D01*
X72542400Y-102336600D01*
X73614825Y-102336600D01*
X73766163Y-102119904D01*
X73617363Y-101602030D01*
X73281708Y-101180520D01*
X72837204Y-100934441D01*
X73144342Y-100729218D01*
X73375595Y-100383123D01*
X73391214Y-100304600D01*
X85322296Y-100304600D01*
X86185596Y-101167900D01*
X77207100Y-101167900D01*
X76837734Y-101241371D01*
X76524601Y-101450601D01*
X73637501Y-104337701D01*
X73428271Y-104650834D01*
X73398521Y-104800400D01*
X73075800Y-104800400D01*
X72923400Y-104952800D01*
X72923400Y-106527600D01*
X72943400Y-106527600D01*
X72943400Y-106832400D01*
X72923400Y-106832400D01*
X72923400Y-106852400D01*
X72618600Y-106852400D01*
X72618600Y-106832400D01*
X71678800Y-106832400D01*
X71526400Y-106984800D01*
X71526400Y-108071257D01*
X71619206Y-108295311D01*
X71790689Y-108466794D01*
X71811137Y-108475264D01*
X71743143Y-108543259D01*
X71385634Y-108614371D01*
X71072501Y-108823601D01*
X70863271Y-109136734D01*
X70789800Y-109506100D01*
X70789800Y-110007434D01*
X70505000Y-110007434D01*
X70366252Y-110035033D01*
X70248627Y-110113627D01*
X70170033Y-110231252D01*
X70142434Y-110370000D01*
X70142434Y-113080000D01*
X70170033Y-113218748D01*
X70248627Y-113336373D01*
X70366252Y-113414967D01*
X70505000Y-113442566D01*
X73005000Y-113442566D01*
X73143748Y-113414967D01*
X73261373Y-113336373D01*
X73339967Y-113218748D01*
X73354800Y-113144178D01*
X73354800Y-114185822D01*
X73339967Y-114111252D01*
X73261373Y-113993627D01*
X73143748Y-113915033D01*
X73005000Y-113887434D01*
X70505000Y-113887434D01*
X70366252Y-113915033D01*
X70248627Y-113993627D01*
X70170033Y-114111252D01*
X70142434Y-114250000D01*
X70142434Y-114639800D01*
X69619858Y-114639800D01*
X69443900Y-114604800D01*
X68378298Y-114604800D01*
X68277534Y-114537472D01*
X67849847Y-114452400D01*
X66770153Y-114452400D01*
X66342466Y-114537472D01*
X66241702Y-114604800D01*
X65575899Y-114604800D01*
X64364860Y-113393761D01*
X65479516Y-113393761D01*
X65724369Y-113892104D01*
X66136312Y-114238872D01*
X66649600Y-114401600D01*
X67157600Y-114401600D01*
X67157600Y-113182400D01*
X67462400Y-113182400D01*
X67462400Y-114401600D01*
X67970400Y-114401600D01*
X68483688Y-114238872D01*
X68895631Y-113892104D01*
X69140484Y-113393761D01*
X69027637Y-113182400D01*
X67462400Y-113182400D01*
X67157600Y-113182400D01*
X65592363Y-113182400D01*
X65479516Y-113393761D01*
X64364860Y-113393761D01*
X63982664Y-113011566D01*
X64135000Y-113011566D01*
X64273748Y-112983967D01*
X64391373Y-112905373D01*
X64469967Y-112787748D01*
X64494136Y-112666239D01*
X65479516Y-112666239D01*
X65592363Y-112877600D01*
X67157600Y-112877600D01*
X67157600Y-111658400D01*
X67462400Y-111658400D01*
X67462400Y-112877600D01*
X69027637Y-112877600D01*
X69140484Y-112666239D01*
X68895631Y-112167896D01*
X68483688Y-111821128D01*
X67970400Y-111658400D01*
X67462400Y-111658400D01*
X67157600Y-111658400D01*
X66649600Y-111658400D01*
X66136312Y-111821128D01*
X65724369Y-112167896D01*
X65479516Y-112666239D01*
X64494136Y-112666239D01*
X64497566Y-112649000D01*
X64497566Y-111379000D01*
X64469967Y-111240252D01*
X64391373Y-111122627D01*
X64273748Y-111044033D01*
X64135000Y-111016434D01*
X61595000Y-111016434D01*
X61456252Y-111044033D01*
X61338627Y-111122627D01*
X61260033Y-111240252D01*
X61232434Y-111379000D01*
X60109100Y-111379000D01*
X60109100Y-109270800D01*
X60985400Y-109270800D01*
X60985400Y-109722257D01*
X61078206Y-109946311D01*
X61249689Y-110117794D01*
X61473743Y-110210600D01*
X62560200Y-110210600D01*
X62712600Y-110058200D01*
X62712600Y-109118400D01*
X63017400Y-109118400D01*
X63017400Y-110058200D01*
X63169800Y-110210600D01*
X64256257Y-110210600D01*
X64480311Y-110117794D01*
X64651794Y-109946311D01*
X64744600Y-109722257D01*
X64744600Y-109270800D01*
X64592200Y-109118400D01*
X63017400Y-109118400D01*
X62712600Y-109118400D01*
X61137800Y-109118400D01*
X60985400Y-109270800D01*
X60109100Y-109270800D01*
X60109100Y-108209743D01*
X60985400Y-108209743D01*
X60985400Y-108661200D01*
X61137800Y-108813600D01*
X62712600Y-108813600D01*
X62712600Y-107873800D01*
X63017400Y-107873800D01*
X63017400Y-108813600D01*
X64592200Y-108813600D01*
X64744600Y-108661200D01*
X64744600Y-108209743D01*
X64651794Y-107985689D01*
X64480311Y-107814206D01*
X64256257Y-107721400D01*
X63169800Y-107721400D01*
X63017400Y-107873800D01*
X62712600Y-107873800D01*
X62560200Y-107721400D01*
X61473743Y-107721400D01*
X61249689Y-107814206D01*
X61078206Y-107985689D01*
X60985400Y-108209743D01*
X60109100Y-108209743D01*
X60109100Y-94615000D01*
X60599467Y-94615000D01*
X60738676Y-95314851D01*
X61135110Y-95908157D01*
X61728416Y-96304591D01*
X62428267Y-96443800D01*
X64571733Y-96443800D01*
X65271584Y-96304591D01*
X65864890Y-95908157D01*
X66090800Y-95570058D01*
X66090800Y-103819942D01*
X65864890Y-103481843D01*
X65271584Y-103085409D01*
X64571733Y-102946200D01*
X62428267Y-102946200D01*
X61728416Y-103085409D01*
X61135110Y-103481843D01*
X60738676Y-104075149D01*
X60599467Y-104775000D01*
X60738676Y-105474851D01*
X61135110Y-106068157D01*
X61728416Y-106464591D01*
X62428267Y-106603800D01*
X64571733Y-106603800D01*
X65271584Y-106464591D01*
X65864890Y-106068157D01*
X66058434Y-105778498D01*
X66058434Y-107950000D01*
X66086033Y-108088748D01*
X66090800Y-108095882D01*
X66090800Y-108813900D01*
X66155015Y-109136734D01*
X66164271Y-109183266D01*
X66344800Y-109453445D01*
X66344800Y-109457008D01*
X66342466Y-109457472D01*
X65979890Y-109699737D01*
X65737625Y-110062313D01*
X65652553Y-110490000D01*
X65737625Y-110917687D01*
X65979890Y-111280263D01*
X66342466Y-111522528D01*
X66770153Y-111607600D01*
X67849847Y-111607600D01*
X68277534Y-111522528D01*
X68640110Y-111280263D01*
X68882375Y-110917687D01*
X68967447Y-110490000D01*
X68882375Y-110062313D01*
X68640110Y-109699737D01*
X68277534Y-109457472D01*
X68275200Y-109457008D01*
X68275200Y-108864100D01*
X68201729Y-108494734D01*
X68021200Y-108224555D01*
X68021200Y-108095882D01*
X68025967Y-108088748D01*
X68053566Y-107950000D01*
X68053566Y-106984800D01*
X68859400Y-106984800D01*
X68859400Y-108071257D01*
X68952206Y-108295311D01*
X69123689Y-108466794D01*
X69347743Y-108559600D01*
X69799200Y-108559600D01*
X69951600Y-108407200D01*
X69951600Y-106832400D01*
X70256400Y-106832400D01*
X70256400Y-108407200D01*
X70408800Y-108559600D01*
X70860257Y-108559600D01*
X71084311Y-108466794D01*
X71255794Y-108295311D01*
X71348600Y-108071257D01*
X71348600Y-106984800D01*
X71196200Y-106832400D01*
X70256400Y-106832400D01*
X69951600Y-106832400D01*
X69011800Y-106832400D01*
X68859400Y-106984800D01*
X68053566Y-106984800D01*
X68053566Y-105410000D01*
X68029447Y-105288743D01*
X68859400Y-105288743D01*
X68859400Y-106375200D01*
X69011800Y-106527600D01*
X69951600Y-106527600D01*
X69951600Y-104952800D01*
X70256400Y-104952800D01*
X70256400Y-106527600D01*
X71196200Y-106527600D01*
X71348600Y-106375200D01*
X71348600Y-105288743D01*
X71526400Y-105288743D01*
X71526400Y-106375200D01*
X71678800Y-106527600D01*
X72618600Y-106527600D01*
X72618600Y-104952800D01*
X72466200Y-104800400D01*
X72014743Y-104800400D01*
X71790689Y-104893206D01*
X71619206Y-105064689D01*
X71526400Y-105288743D01*
X71348600Y-105288743D01*
X71255794Y-105064689D01*
X71084311Y-104893206D01*
X70860257Y-104800400D01*
X70408800Y-104800400D01*
X70256400Y-104952800D01*
X69951600Y-104952800D01*
X69799200Y-104800400D01*
X69347743Y-104800400D01*
X69123689Y-104893206D01*
X68952206Y-105064689D01*
X68859400Y-105288743D01*
X68029447Y-105288743D01*
X68025967Y-105271252D01*
X68021200Y-105264118D01*
X68021200Y-102858096D01*
X71013837Y-102858096D01*
X71162637Y-103375970D01*
X71498292Y-103797480D01*
X71969701Y-104058454D01*
X72026239Y-104065484D01*
X72237600Y-103952637D01*
X72237600Y-102641400D01*
X72542400Y-102641400D01*
X72542400Y-103952637D01*
X72753761Y-104065484D01*
X72810299Y-104058454D01*
X73281708Y-103797480D01*
X73617363Y-103375970D01*
X73766163Y-102858096D01*
X73614825Y-102641400D01*
X72542400Y-102641400D01*
X72237600Y-102641400D01*
X71165175Y-102641400D01*
X71013837Y-102858096D01*
X68021200Y-102858096D01*
X68021200Y-99695000D01*
X68249324Y-99695000D01*
X68330529Y-100103247D01*
X68561782Y-100449342D01*
X68907877Y-100680595D01*
X69316124Y-100761800D01*
X69875876Y-100761800D01*
X70284123Y-100680595D01*
X70630218Y-100449342D01*
X70861471Y-100103247D01*
X70942676Y-99695000D01*
X70861471Y-99286753D01*
X70630218Y-98940658D01*
X70284123Y-98709405D01*
X69875876Y-98628200D01*
X69316124Y-98628200D01*
X68907877Y-98709405D01*
X68561782Y-98940658D01*
X68330529Y-99286753D01*
X68249324Y-99695000D01*
X68021200Y-99695000D01*
X68021200Y-96531904D01*
X71013837Y-96531904D01*
X71165175Y-96748600D01*
X72237600Y-96748600D01*
X72237600Y-95437363D01*
X72542400Y-95437363D01*
X72542400Y-96748600D01*
X73614825Y-96748600D01*
X73766163Y-96531904D01*
X73617363Y-96014030D01*
X73281708Y-95592520D01*
X72810299Y-95331546D01*
X72753761Y-95324516D01*
X72542400Y-95437363D01*
X72237600Y-95437363D01*
X72026239Y-95324516D01*
X71969701Y-95331546D01*
X71498292Y-95592520D01*
X71162637Y-96014030D01*
X71013837Y-96531904D01*
X68021200Y-96531904D01*
X68021200Y-88127899D01*
X68063206Y-88229311D01*
X68234689Y-88400794D01*
X68458743Y-88493600D01*
X69545200Y-88493600D01*
X69697600Y-88341200D01*
X69697600Y-87401400D01*
X70002400Y-87401400D01*
X70002400Y-88341200D01*
X70154800Y-88493600D01*
X71241257Y-88493600D01*
X71465311Y-88400794D01*
X71636794Y-88229311D01*
X71729600Y-88005257D01*
X71729600Y-87553800D01*
X71577200Y-87401400D01*
X70002400Y-87401400D01*
X69697600Y-87401400D01*
X69677600Y-87401400D01*
X69677600Y-87096600D01*
X69697600Y-87096600D01*
X69697600Y-86156800D01*
X70002400Y-86156800D01*
X70002400Y-87096600D01*
X71577200Y-87096600D01*
X71729600Y-86944200D01*
X71729600Y-86492743D01*
X71636794Y-86268689D01*
X71465311Y-86097206D01*
X71241257Y-86004400D01*
X70154800Y-86004400D01*
X70002400Y-86156800D01*
X69697600Y-86156800D01*
X69545200Y-86004400D01*
X68458743Y-86004400D01*
X68234689Y-86097206D01*
X68063206Y-86268689D01*
X68021200Y-86370101D01*
X68021200Y-85260898D01*
X68115899Y-85166200D01*
X68434118Y-85166200D01*
X68441252Y-85170967D01*
X68580000Y-85198566D01*
X71120000Y-85198566D01*
X71258748Y-85170967D01*
X71376373Y-85092373D01*
X71454967Y-84974748D01*
X71482566Y-84836000D01*
X71482566Y-83566000D01*
X71454967Y-83427252D01*
X71376373Y-83309627D01*
X71258748Y-83231033D01*
X71120000Y-83203434D01*
X70815200Y-83203434D01*
X70815200Y-83101898D01*
X71036899Y-82880200D01*
X74910334Y-82880200D01*
X74910334Y-83185000D01*
X74937933Y-83323748D01*
X75016527Y-83441373D01*
X75134152Y-83519967D01*
X75272900Y-83547566D01*
X77127100Y-83547566D01*
X77265848Y-83519967D01*
X77383473Y-83441373D01*
X77462067Y-83323748D01*
X77489666Y-83185000D01*
X77489666Y-83121923D01*
X77761152Y-83452274D01*
X78292730Y-83735947D01*
X78350269Y-83744357D01*
X78587600Y-83633785D01*
X78587600Y-82067400D01*
X78567600Y-82067400D01*
X78567600Y-81762600D01*
X78587600Y-81762600D01*
X78587600Y-80196215D01*
X78892400Y-80196215D01*
X78892400Y-81762600D01*
X78912400Y-81762600D01*
X78912400Y-82067400D01*
X78892400Y-82067400D01*
X78892400Y-83633785D01*
X79129731Y-83744357D01*
X79187270Y-83735947D01*
X79718848Y-83452274D01*
X80101405Y-82986769D01*
X80161414Y-82789425D01*
X80408915Y-83159837D01*
X80808572Y-83426879D01*
X81280000Y-83520652D01*
X81751428Y-83426879D01*
X82151085Y-83159837D01*
X82418127Y-82760180D01*
X82511900Y-82288752D01*
X82511900Y-81541248D01*
X82418127Y-81069820D01*
X82151085Y-80670163D01*
X81751428Y-80403121D01*
X81280000Y-80309348D01*
X80808572Y-80403121D01*
X80408915Y-80670163D01*
X80161414Y-81040575D01*
X80101405Y-80843231D01*
X79718848Y-80377726D01*
X79187270Y-80094053D01*
X79129731Y-80085643D01*
X78892400Y-80196215D01*
X78587600Y-80196215D01*
X78350269Y-80085643D01*
X78292730Y-80094053D01*
X77761152Y-80377726D01*
X77489666Y-80708077D01*
X77489666Y-80645000D01*
X77462067Y-80506252D01*
X77383473Y-80388627D01*
X77265848Y-80310033D01*
X77127100Y-80282434D01*
X75272900Y-80282434D01*
X75134152Y-80310033D01*
X75016527Y-80388627D01*
X74937933Y-80506252D01*
X74910334Y-80645000D01*
X74910334Y-80949800D01*
X70637100Y-80949800D01*
X70267734Y-81023271D01*
X70267732Y-81023272D01*
X70267733Y-81023272D01*
X69954600Y-81232501D01*
X69167501Y-82019601D01*
X68958271Y-82332734D01*
X68884800Y-82702100D01*
X68884800Y-83203434D01*
X68580000Y-83203434D01*
X68441252Y-83231033D01*
X68434118Y-83235800D01*
X67716100Y-83235800D01*
X67408015Y-83297082D01*
X67346733Y-83309271D01*
X67033600Y-83518501D01*
X66373501Y-84178601D01*
X66164271Y-84491734D01*
X66090800Y-84861100D01*
X66090800Y-93659942D01*
X65864890Y-93321843D01*
X65271584Y-92925409D01*
X64571733Y-92786200D01*
X62428267Y-92786200D01*
X61728416Y-92925409D01*
X61135110Y-93321843D01*
X60738676Y-93915149D01*
X60599467Y-94615000D01*
X60109100Y-94615000D01*
X60109100Y-82327477D01*
X60146840Y-82327477D01*
X60463259Y-83093270D01*
X61048648Y-83679682D01*
X61813888Y-83997437D01*
X62642477Y-83998160D01*
X63408270Y-83681741D01*
X63994682Y-83096352D01*
X64312437Y-82331112D01*
X64313160Y-81502523D01*
X63996741Y-80736730D01*
X63411352Y-80150318D01*
X62646112Y-79832563D01*
X61817523Y-79831840D01*
X61051730Y-80148259D01*
X60465318Y-80733648D01*
X60147563Y-81498888D01*
X60146840Y-82327477D01*
X60109100Y-82327477D01*
X60109100Y-79794100D01*
X143090900Y-79794100D01*
X143090900Y-119595900D01*
X143090900Y-119595900D01*
G37*
X143090900Y-119595900D02*
X60109100Y-119595900D01*
X60109100Y-117887477D01*
X60146840Y-117887477D01*
X60463259Y-118653270D01*
X61048648Y-119239682D01*
X61813888Y-119557437D01*
X62642477Y-119558160D01*
X63408270Y-119241741D01*
X63994682Y-118656352D01*
X64312437Y-117891112D01*
X64313160Y-117062523D01*
X63996741Y-116296730D01*
X63411352Y-115710318D01*
X62646112Y-115392563D01*
X61817523Y-115391840D01*
X61051730Y-115708259D01*
X60465318Y-116293648D01*
X60147563Y-117058888D01*
X60146840Y-117887477D01*
X60109100Y-117887477D01*
X60109100Y-111379000D01*
X61232434Y-111379000D01*
X61232434Y-112649000D01*
X61260033Y-112787748D01*
X61338627Y-112905373D01*
X61456252Y-112983967D01*
X61595000Y-113011566D01*
X61899800Y-113011566D01*
X61899800Y-113512900D01*
X61973271Y-113882266D01*
X62182501Y-114195399D01*
X62495634Y-114404629D01*
X62683000Y-114441898D01*
X64493601Y-116252500D01*
X64806734Y-116461729D01*
X65176100Y-116535200D01*
X66241702Y-116535200D01*
X66342466Y-116602528D01*
X66770153Y-116687600D01*
X67849847Y-116687600D01*
X68277534Y-116602528D01*
X68378298Y-116535200D01*
X69302942Y-116535200D01*
X69478900Y-116570200D01*
X70142434Y-116570200D01*
X70142434Y-116960000D01*
X70170033Y-117098748D01*
X70248627Y-117216373D01*
X70366252Y-117294967D01*
X70505000Y-117322566D01*
X73005000Y-117322566D01*
X73143748Y-117294967D01*
X73261373Y-117216373D01*
X73339967Y-117098748D01*
X73354800Y-117024178D01*
X73354800Y-117386000D01*
X73418906Y-117708284D01*
X73428271Y-117755366D01*
X73637501Y-118068499D01*
X73726501Y-118157499D01*
X74039634Y-118366729D01*
X74409000Y-118440200D01*
X75081480Y-118440200D01*
X75292994Y-118756753D01*
X75709132Y-119034807D01*
X76200000Y-119132447D01*
X76690868Y-119034807D01*
X77107006Y-118756753D01*
X77385060Y-118340615D01*
X77470000Y-117913594D01*
X77554940Y-118340615D01*
X77832994Y-118756753D01*
X78249132Y-119034807D01*
X78740000Y-119132447D01*
X79230868Y-119034807D01*
X79647006Y-118756753D01*
X79925060Y-118340615D01*
X80010000Y-117913594D01*
X80094940Y-118340615D01*
X80372994Y-118756753D01*
X80789132Y-119034807D01*
X81280000Y-119132447D01*
X81770868Y-119034807D01*
X82187006Y-118756753D01*
X82465060Y-118340615D01*
X82550000Y-117913594D01*
X82634940Y-118340615D01*
X82912994Y-118756753D01*
X83329132Y-119034807D01*
X83820000Y-119132447D01*
X84310868Y-119034807D01*
X84727006Y-118756753D01*
X85005060Y-118340615D01*
X85102700Y-117849747D01*
X85102700Y-117100253D01*
X85005060Y-116609385D01*
X84785200Y-116280341D01*
X84785200Y-108383298D01*
X84852528Y-108282534D01*
X84937600Y-107854847D01*
X84937600Y-106775153D01*
X84852528Y-106347466D01*
X84610263Y-105984890D01*
X84247687Y-105742625D01*
X83820000Y-105657553D01*
X83392313Y-105742625D01*
X83029737Y-105984890D01*
X82787472Y-106347466D01*
X82702400Y-106775153D01*
X82702400Y-107854847D01*
X82787472Y-108282534D01*
X82854800Y-108383298D01*
X82854800Y-116280341D01*
X82634940Y-116609385D01*
X82550000Y-117036406D01*
X82465060Y-116609385D01*
X82245200Y-116280341D01*
X82245200Y-115740899D01*
X82295999Y-115690100D01*
X82505229Y-115376967D01*
X82517418Y-115315685D01*
X82578700Y-115007600D01*
X82578700Y-109782400D01*
X82505229Y-109413034D01*
X82505229Y-109413033D01*
X82295999Y-109099900D01*
X82245200Y-109049101D01*
X82245200Y-108383298D01*
X82312528Y-108282534D01*
X82397600Y-107854847D01*
X82397600Y-106775153D01*
X82312528Y-106347466D01*
X82070263Y-105984890D01*
X81780085Y-105791000D01*
X82070263Y-105597110D01*
X82312528Y-105234534D01*
X82397600Y-104806847D01*
X82397600Y-103727153D01*
X82312528Y-103299466D01*
X82178113Y-103098300D01*
X85394800Y-103098300D01*
X85394800Y-103198702D01*
X85327472Y-103299466D01*
X85242400Y-103727153D01*
X85242400Y-104806847D01*
X85327472Y-105234534D01*
X85569737Y-105597110D01*
X85905499Y-105821459D01*
X85605658Y-106021806D01*
X85374405Y-106367901D01*
X85293200Y-106776148D01*
X85293200Y-107853852D01*
X85374405Y-108262099D01*
X85605658Y-108608194D01*
X85750400Y-108704907D01*
X85750400Y-116055444D01*
X85488915Y-116230163D01*
X85221873Y-116629820D01*
X85128100Y-117101248D01*
X85128100Y-117848752D01*
X85221873Y-118320180D01*
X85488915Y-118719837D01*
X85888572Y-118986879D01*
X86360000Y-119080652D01*
X86831428Y-118986879D01*
X87231085Y-118719837D01*
X87498127Y-118320180D01*
X87591900Y-117848752D01*
X87591900Y-117101248D01*
X87668100Y-117101248D01*
X87668100Y-117848752D01*
X87761873Y-118320180D01*
X88028915Y-118719837D01*
X88428572Y-118986879D01*
X88900000Y-119080652D01*
X89371428Y-118986879D01*
X89771085Y-118719837D01*
X90038127Y-118320180D01*
X90131900Y-117848752D01*
X90131900Y-117101248D01*
X90208100Y-117101248D01*
X90208100Y-117848752D01*
X90301873Y-118320180D01*
X90568915Y-118719837D01*
X90968572Y-118986879D01*
X91440000Y-119080652D01*
X91911428Y-118986879D01*
X92311085Y-118719837D01*
X92578127Y-118320180D01*
X92671900Y-117848752D01*
X92671900Y-117101248D01*
X92748100Y-117101248D01*
X92748100Y-117848752D01*
X92841873Y-118320180D01*
X93108915Y-118719837D01*
X93508572Y-118986879D01*
X93980000Y-119080652D01*
X94451428Y-118986879D01*
X94851085Y-118719837D01*
X95118127Y-118320180D01*
X95211900Y-117848752D01*
X95211900Y-117101248D01*
X95288100Y-117101248D01*
X95288100Y-117848752D01*
X95381873Y-118320180D01*
X95648915Y-118719837D01*
X96048572Y-118986879D01*
X96520000Y-119080652D01*
X96991428Y-118986879D01*
X97391085Y-118719837D01*
X97658127Y-118320180D01*
X97751900Y-117848752D01*
X97751900Y-117101248D01*
X97828100Y-117101248D01*
X97828100Y-117848752D01*
X97921873Y-118320180D01*
X98188915Y-118719837D01*
X98588572Y-118986879D01*
X99060000Y-119080652D01*
X99531428Y-118986879D01*
X99931085Y-118719837D01*
X100198127Y-118320180D01*
X100291900Y-117848752D01*
X100291900Y-117101248D01*
X100368100Y-117101248D01*
X100368100Y-117848752D01*
X100461873Y-118320180D01*
X100728915Y-118719837D01*
X101128572Y-118986879D01*
X101600000Y-119080652D01*
X102071428Y-118986879D01*
X102471085Y-118719837D01*
X102738127Y-118320180D01*
X102831900Y-117848752D01*
X102831900Y-117101248D01*
X102908100Y-117101248D01*
X102908100Y-117848752D01*
X103001873Y-118320180D01*
X103268915Y-118719837D01*
X103668572Y-118986879D01*
X104140000Y-119080652D01*
X104611428Y-118986879D01*
X105011085Y-118719837D01*
X105278127Y-118320180D01*
X105371900Y-117848752D01*
X105371900Y-117101248D01*
X105448100Y-117101248D01*
X105448100Y-117848752D01*
X105541873Y-118320180D01*
X105808915Y-118719837D01*
X106208572Y-118986879D01*
X106680000Y-119080652D01*
X107151428Y-118986879D01*
X107551085Y-118719837D01*
X107818127Y-118320180D01*
X107911900Y-117848752D01*
X107911900Y-117101248D01*
X107988100Y-117101248D01*
X107988100Y-117848752D01*
X108081873Y-118320180D01*
X108348915Y-118719837D01*
X108748572Y-118986879D01*
X109220000Y-119080652D01*
X109691428Y-118986879D01*
X110091085Y-118719837D01*
X110358127Y-118320180D01*
X110451900Y-117848752D01*
X110451900Y-117101248D01*
X110358127Y-116629820D01*
X110091085Y-116230163D01*
X109829600Y-116055444D01*
X109829600Y-108704907D01*
X109974342Y-108608194D01*
X110205595Y-108262099D01*
X110286800Y-107853852D01*
X110286800Y-106776148D01*
X110205595Y-106367901D01*
X109974342Y-106021806D01*
X109628247Y-105790553D01*
X109220000Y-105709348D01*
X108811753Y-105790553D01*
X108465658Y-106021806D01*
X108234405Y-106367901D01*
X108153200Y-106776148D01*
X108153200Y-107853852D01*
X108234405Y-108262099D01*
X108465658Y-108608194D01*
X108610400Y-108704907D01*
X108610400Y-116055444D01*
X108348915Y-116230163D01*
X108081873Y-116629820D01*
X107988100Y-117101248D01*
X107911900Y-117101248D01*
X107818127Y-116629820D01*
X107551085Y-116230163D01*
X107289600Y-116055444D01*
X107289600Y-108704907D01*
X107434342Y-108608194D01*
X107665595Y-108262099D01*
X107746800Y-107853852D01*
X107746800Y-106776148D01*
X107665595Y-106367901D01*
X107434342Y-106021806D01*
X107088247Y-105790553D01*
X106680000Y-105709348D01*
X106271753Y-105790553D01*
X105925658Y-106021806D01*
X105694405Y-106367901D01*
X105613200Y-106776148D01*
X105613200Y-107853852D01*
X105694405Y-108262099D01*
X105925658Y-108608194D01*
X106070400Y-108704907D01*
X106070400Y-116055444D01*
X105808915Y-116230163D01*
X105541873Y-116629820D01*
X105448100Y-117101248D01*
X105371900Y-117101248D01*
X105278127Y-116629820D01*
X105011085Y-116230163D01*
X104749600Y-116055444D01*
X104749600Y-108704907D01*
X104894342Y-108608194D01*
X105125595Y-108262099D01*
X105206800Y-107853852D01*
X105206800Y-106776148D01*
X105125595Y-106367901D01*
X104894342Y-106021806D01*
X104548247Y-105790553D01*
X104140000Y-105709348D01*
X103731753Y-105790553D01*
X103385658Y-106021806D01*
X103154405Y-106367901D01*
X103073200Y-106776148D01*
X103073200Y-107853852D01*
X103154405Y-108262099D01*
X103385658Y-108608194D01*
X103530400Y-108704907D01*
X103530400Y-116055444D01*
X103268915Y-116230163D01*
X103001873Y-116629820D01*
X102908100Y-117101248D01*
X102831900Y-117101248D01*
X102738127Y-116629820D01*
X102471085Y-116230163D01*
X102209600Y-116055444D01*
X102209600Y-108704907D01*
X102354342Y-108608194D01*
X102585595Y-108262099D01*
X102666800Y-107853852D01*
X102666800Y-106776148D01*
X102585595Y-106367901D01*
X102354342Y-106021806D01*
X102008247Y-105790553D01*
X101600000Y-105709348D01*
X101191753Y-105790553D01*
X100845658Y-106021806D01*
X100614405Y-106367901D01*
X100533200Y-106776148D01*
X100533200Y-107853852D01*
X100614405Y-108262099D01*
X100845658Y-108608194D01*
X100990400Y-108704907D01*
X100990400Y-116055444D01*
X100728915Y-116230163D01*
X100461873Y-116629820D01*
X100368100Y-117101248D01*
X100291900Y-117101248D01*
X100198127Y-116629820D01*
X99931085Y-116230163D01*
X99669600Y-116055444D01*
X99669600Y-108704907D01*
X99814342Y-108608194D01*
X100045595Y-108262099D01*
X100126800Y-107853852D01*
X100126800Y-106776148D01*
X100045595Y-106367901D01*
X99814342Y-106021806D01*
X99468247Y-105790553D01*
X99060000Y-105709348D01*
X98651753Y-105790553D01*
X98305658Y-106021806D01*
X98074405Y-106367901D01*
X97993200Y-106776148D01*
X97993200Y-107853852D01*
X98074405Y-108262099D01*
X98305658Y-108608194D01*
X98450400Y-108704907D01*
X98450400Y-116055444D01*
X98188915Y-116230163D01*
X97921873Y-116629820D01*
X97828100Y-117101248D01*
X97751900Y-117101248D01*
X97658127Y-116629820D01*
X97391085Y-116230163D01*
X97129600Y-116055444D01*
X97129600Y-108704907D01*
X97274342Y-108608194D01*
X97505595Y-108262099D01*
X97586800Y-107853852D01*
X97586800Y-106776148D01*
X97505595Y-106367901D01*
X97274342Y-106021806D01*
X96928247Y-105790553D01*
X96520000Y-105709348D01*
X96111753Y-105790553D01*
X95765658Y-106021806D01*
X95534405Y-106367901D01*
X95453200Y-106776148D01*
X95453200Y-107853852D01*
X95534405Y-108262099D01*
X95765658Y-108608194D01*
X95910400Y-108704907D01*
X95910400Y-116055444D01*
X95648915Y-116230163D01*
X95381873Y-116629820D01*
X95288100Y-117101248D01*
X95211900Y-117101248D01*
X95118127Y-116629820D01*
X94851085Y-116230163D01*
X94589600Y-116055444D01*
X94589600Y-108704907D01*
X94734342Y-108608194D01*
X94965595Y-108262099D01*
X95046800Y-107853852D01*
X95046800Y-106776148D01*
X94965595Y-106367901D01*
X94734342Y-106021806D01*
X94388247Y-105790553D01*
X93980000Y-105709348D01*
X93571753Y-105790553D01*
X93225658Y-106021806D01*
X92994405Y-106367901D01*
X92913200Y-106776148D01*
X92913200Y-107853852D01*
X92994405Y-108262099D01*
X93225658Y-108608194D01*
X93370400Y-108704907D01*
X93370400Y-116055444D01*
X93108915Y-116230163D01*
X92841873Y-116629820D01*
X92748100Y-117101248D01*
X92671900Y-117101248D01*
X92578127Y-116629820D01*
X92311085Y-116230163D01*
X92049600Y-116055444D01*
X92049600Y-108704907D01*
X92194342Y-108608194D01*
X92425595Y-108262099D01*
X92506800Y-107853852D01*
X92506800Y-106776148D01*
X92425595Y-106367901D01*
X92194342Y-106021806D01*
X91848916Y-105791000D01*
X92194342Y-105560194D01*
X92425595Y-105214099D01*
X92506800Y-104805852D01*
X92506800Y-104775000D01*
X110154348Y-104775000D01*
X110235553Y-105183247D01*
X110466806Y-105529342D01*
X110812901Y-105760595D01*
X111221148Y-105841800D01*
X111275056Y-105841800D01*
X111005658Y-106021806D01*
X110774405Y-106367901D01*
X110693200Y-106776148D01*
X110693200Y-107853852D01*
X110774405Y-108262099D01*
X111005658Y-108608194D01*
X111150400Y-108704907D01*
X111150400Y-116055444D01*
X110888915Y-116230163D01*
X110621873Y-116629820D01*
X110528100Y-117101248D01*
X110528100Y-117848752D01*
X110621873Y-118320180D01*
X110888915Y-118719837D01*
X111288572Y-118986879D01*
X111760000Y-119080652D01*
X112231428Y-118986879D01*
X112631085Y-118719837D01*
X112898127Y-118320180D01*
X112991900Y-117848752D01*
X112991900Y-117101248D01*
X112898127Y-116629820D01*
X112631085Y-116230163D01*
X112369600Y-116055444D01*
X112369600Y-108704907D01*
X112514342Y-108608194D01*
X112745595Y-108262099D01*
X112826800Y-107853852D01*
X112826800Y-106776148D01*
X112745595Y-106367901D01*
X112514342Y-106021806D01*
X112244944Y-105841800D01*
X112298852Y-105841800D01*
X112707099Y-105760595D01*
X112850200Y-105664978D01*
X112850200Y-114935000D01*
X112896603Y-115168284D01*
X113028748Y-115366052D01*
X113690400Y-116027704D01*
X113690400Y-116055444D01*
X113428915Y-116230163D01*
X113161873Y-116629820D01*
X113068100Y-117101248D01*
X113068100Y-117848752D01*
X113161873Y-118320180D01*
X113428915Y-118719837D01*
X113828572Y-118986879D01*
X114300000Y-119080652D01*
X114771428Y-118986879D01*
X115171085Y-118719837D01*
X115438127Y-118320180D01*
X115531900Y-117848752D01*
X115531900Y-117101248D01*
X115438127Y-116629820D01*
X115171085Y-116230163D01*
X114909600Y-116055444D01*
X114909600Y-115775200D01*
X114863197Y-115541916D01*
X114731052Y-115344148D01*
X114069400Y-114682496D01*
X114069400Y-104775000D01*
X114022997Y-104541716D01*
X113890852Y-104343948D01*
X113693084Y-104211803D01*
X113459800Y-104165400D01*
X113149907Y-104165400D01*
X113053194Y-104020658D01*
X112707099Y-103789405D01*
X112298852Y-103708200D01*
X111221148Y-103708200D01*
X110812901Y-103789405D01*
X110466806Y-104020658D01*
X110235553Y-104366753D01*
X110154348Y-104775000D01*
X92506800Y-104775000D01*
X92506800Y-103728148D01*
X92425595Y-103319901D01*
X92194342Y-102973806D01*
X91848247Y-102742553D01*
X91440000Y-102661348D01*
X91031753Y-102742553D01*
X90685658Y-102973806D01*
X90454405Y-103319901D01*
X90373200Y-103728148D01*
X90373200Y-104805852D01*
X90454405Y-105214099D01*
X90685658Y-105560194D01*
X91031084Y-105791000D01*
X90685658Y-106021806D01*
X90454405Y-106367901D01*
X90373200Y-106776148D01*
X90373200Y-107853852D01*
X90454405Y-108262099D01*
X90685658Y-108608194D01*
X90830400Y-108704907D01*
X90830400Y-116055444D01*
X90568915Y-116230163D01*
X90301873Y-116629820D01*
X90208100Y-117101248D01*
X90131900Y-117101248D01*
X90038127Y-116629820D01*
X89771085Y-116230163D01*
X89509600Y-116055444D01*
X89509600Y-108704907D01*
X89654342Y-108608194D01*
X89885595Y-108262099D01*
X89966800Y-107853852D01*
X89966800Y-106776148D01*
X89885595Y-106367901D01*
X89654342Y-106021806D01*
X89308916Y-105791000D01*
X89654342Y-105560194D01*
X89885595Y-105214099D01*
X89966800Y-104805852D01*
X89966800Y-103728148D01*
X89885595Y-103319901D01*
X89654342Y-102973806D01*
X89308247Y-102742553D01*
X88900000Y-102661348D01*
X88491753Y-102742553D01*
X88145658Y-102973806D01*
X87914405Y-103319901D01*
X87833200Y-103728148D01*
X87833200Y-104805852D01*
X87914405Y-105214099D01*
X88145658Y-105560194D01*
X88491084Y-105791000D01*
X88145658Y-106021806D01*
X87914405Y-106367901D01*
X87833200Y-106776148D01*
X87833200Y-107853852D01*
X87914405Y-108262099D01*
X88145658Y-108608194D01*
X88290400Y-108704907D01*
X88290400Y-116055444D01*
X88028915Y-116230163D01*
X87761873Y-116629820D01*
X87668100Y-117101248D01*
X87591900Y-117101248D01*
X87498127Y-116629820D01*
X87231085Y-116230163D01*
X86969600Y-116055444D01*
X86969600Y-108704907D01*
X87114342Y-108608194D01*
X87345595Y-108262099D01*
X87426800Y-107853852D01*
X87426800Y-106776148D01*
X87345595Y-106367901D01*
X87114342Y-106021806D01*
X86814501Y-105821459D01*
X87150263Y-105597110D01*
X87392528Y-105234534D01*
X87477600Y-104806847D01*
X87477600Y-103727153D01*
X87392528Y-103299466D01*
X87325200Y-103198702D01*
X87325200Y-102133100D01*
X87251729Y-101763734D01*
X87125353Y-101574600D01*
X93142273Y-101574600D01*
X92994405Y-101795901D01*
X92913200Y-102204148D01*
X92913200Y-103281852D01*
X92994405Y-103690099D01*
X93225658Y-104036194D01*
X93571753Y-104267447D01*
X93980000Y-104348652D01*
X94388247Y-104267447D01*
X94734342Y-104036194D01*
X94965595Y-103690099D01*
X95046800Y-103281852D01*
X95046800Y-102204148D01*
X94965595Y-101795901D01*
X94817727Y-101574600D01*
X95682273Y-101574600D01*
X95534405Y-101795901D01*
X95453200Y-102204148D01*
X95453200Y-103281852D01*
X95534405Y-103690099D01*
X95765658Y-104036194D01*
X96111753Y-104267447D01*
X96520000Y-104348652D01*
X96928247Y-104267447D01*
X97274342Y-104036194D01*
X97505595Y-103690099D01*
X97586800Y-103281852D01*
X97586800Y-102204148D01*
X97505595Y-101795901D01*
X97357727Y-101574600D01*
X98222273Y-101574600D01*
X98074405Y-101795901D01*
X97993200Y-102204148D01*
X97993200Y-103281852D01*
X98074405Y-103690099D01*
X98305658Y-104036194D01*
X98651753Y-104267447D01*
X99060000Y-104348652D01*
X99468247Y-104267447D01*
X99814342Y-104036194D01*
X100045595Y-103690099D01*
X100126800Y-103281852D01*
X100126800Y-102204148D01*
X100045595Y-101795901D01*
X99897727Y-101574600D01*
X100762273Y-101574600D01*
X100614405Y-101795901D01*
X100533200Y-102204148D01*
X100533200Y-103281852D01*
X100614405Y-103690099D01*
X100845658Y-104036194D01*
X101191753Y-104267447D01*
X101600000Y-104348652D01*
X102008247Y-104267447D01*
X102354342Y-104036194D01*
X102585595Y-103690099D01*
X102666800Y-103281852D01*
X102666800Y-102204148D01*
X103073200Y-102204148D01*
X103073200Y-103281852D01*
X103154405Y-103690099D01*
X103385658Y-104036194D01*
X103731753Y-104267447D01*
X104140000Y-104348652D01*
X104548247Y-104267447D01*
X104894342Y-104036194D01*
X105125595Y-103690099D01*
X105206800Y-103281852D01*
X105206800Y-102204148D01*
X105613200Y-102204148D01*
X105613200Y-103281852D01*
X105694405Y-103690099D01*
X105925658Y-104036194D01*
X106271753Y-104267447D01*
X106680000Y-104348652D01*
X107088247Y-104267447D01*
X107434342Y-104036194D01*
X107665595Y-103690099D01*
X107746800Y-103281852D01*
X107746800Y-102204148D01*
X107665595Y-101795901D01*
X107434342Y-101449806D01*
X107088247Y-101218553D01*
X106680000Y-101137348D01*
X106271753Y-101218553D01*
X105925658Y-101449806D01*
X105694405Y-101795901D01*
X105613200Y-102204148D01*
X105206800Y-102204148D01*
X105125595Y-101795901D01*
X104894342Y-101449806D01*
X104548247Y-101218553D01*
X104140000Y-101137348D01*
X103731753Y-101218553D01*
X103385658Y-101449806D01*
X103154405Y-101795901D01*
X103073200Y-102204148D01*
X102666800Y-102204148D01*
X102585595Y-101795901D01*
X102354342Y-101449806D01*
X102209600Y-101353093D01*
X102209600Y-101043200D01*
X102163197Y-100809916D01*
X102076200Y-100679716D01*
X102069884Y-100670263D01*
X102354342Y-100480194D01*
X102585595Y-100134099D01*
X102666800Y-99725852D01*
X102666800Y-98648148D01*
X102585595Y-98239901D01*
X102354342Y-97893806D01*
X102209600Y-97797093D01*
X102209600Y-97487200D01*
X102163197Y-97253916D01*
X102031052Y-97056148D01*
X101258552Y-96283648D01*
X101060784Y-96151503D01*
X100827500Y-96105100D01*
X79753304Y-96105100D01*
X79060604Y-95412400D01*
X101369196Y-95412400D01*
X103411647Y-97454852D01*
X103550254Y-97547466D01*
X103609416Y-97586997D01*
X103842700Y-97633400D01*
X103878316Y-97633400D01*
X103731753Y-97662553D01*
X103385658Y-97893806D01*
X103154405Y-98239901D01*
X103073200Y-98648148D01*
X103073200Y-99725852D01*
X103154405Y-100134099D01*
X103385658Y-100480194D01*
X103731753Y-100711447D01*
X104140000Y-100792652D01*
X104548247Y-100711447D01*
X104894342Y-100480194D01*
X105125595Y-100134099D01*
X105206800Y-99725852D01*
X105206800Y-98648148D01*
X105125595Y-98239901D01*
X104894342Y-97893806D01*
X104548247Y-97662553D01*
X104401684Y-97633400D01*
X106418316Y-97633400D01*
X106271753Y-97662553D01*
X105925658Y-97893806D01*
X105694405Y-98239901D01*
X105613200Y-98648148D01*
X105613200Y-99725852D01*
X105694405Y-100134099D01*
X105925658Y-100480194D01*
X106271753Y-100711447D01*
X106680000Y-100792652D01*
X107088247Y-100711447D01*
X107434342Y-100480194D01*
X107470633Y-100425881D01*
X107588548Y-100602352D01*
X108330248Y-101344052D01*
X108477089Y-101442168D01*
X108465658Y-101449806D01*
X108234405Y-101795901D01*
X108153200Y-102204148D01*
X108153200Y-103281852D01*
X108234405Y-103690099D01*
X108465658Y-104036194D01*
X108811753Y-104267447D01*
X109220000Y-104348652D01*
X109628247Y-104267447D01*
X109974342Y-104036194D01*
X110205595Y-103690099D01*
X110286800Y-103281852D01*
X110286800Y-102719944D01*
X110466806Y-102989342D01*
X110812901Y-103220595D01*
X111221148Y-103301800D01*
X112298852Y-103301800D01*
X112707099Y-103220595D01*
X113053194Y-102989342D01*
X113284447Y-102643247D01*
X113365652Y-102235000D01*
X113284447Y-101826753D01*
X113053194Y-101480658D01*
X112707099Y-101249405D01*
X112298852Y-101168200D01*
X111555305Y-101168200D01*
X111130966Y-100743862D01*
X111221148Y-100761800D01*
X112298852Y-100761800D01*
X112707099Y-100680595D01*
X113053194Y-100449342D01*
X113284447Y-100103247D01*
X113343029Y-99808733D01*
X117737800Y-104203505D01*
X117737800Y-106320000D01*
X117784203Y-106553284D01*
X117916348Y-106751052D01*
X122811108Y-111645812D01*
X122483307Y-111645526D01*
X122114419Y-111797948D01*
X121831939Y-112079934D01*
X121678874Y-112448556D01*
X121678526Y-112847693D01*
X121830948Y-113216581D01*
X122095133Y-113481229D01*
X120243600Y-113481229D01*
X120124673Y-113504885D01*
X120023852Y-113572252D01*
X119956485Y-113673073D01*
X119932829Y-113792000D01*
X119932829Y-116432473D01*
X119876741Y-116296730D01*
X119291352Y-115710318D01*
X118526112Y-115392563D01*
X117697523Y-115391840D01*
X116931730Y-115708259D01*
X116345318Y-116293648D01*
X116027563Y-117058888D01*
X116026840Y-117887477D01*
X116343259Y-118653270D01*
X116928648Y-119239682D01*
X117693888Y-119557437D01*
X118522477Y-119558160D01*
X119288270Y-119241741D01*
X119874682Y-118656352D01*
X119932829Y-118516318D01*
X119932829Y-118618000D01*
X119956485Y-118736927D01*
X120023852Y-118837748D01*
X120124673Y-118905115D01*
X120243600Y-118928771D01*
X123037600Y-118928771D01*
X123156527Y-118905115D01*
X123257348Y-118837748D01*
X123324715Y-118736927D01*
X123348371Y-118618000D01*
X123348371Y-114734437D01*
X123382934Y-114769061D01*
X123751556Y-114922126D01*
X124150693Y-114922474D01*
X124519581Y-114770052D01*
X124802061Y-114488066D01*
X124955126Y-114119444D01*
X124955127Y-114117693D01*
X130314526Y-114117693D01*
X130466948Y-114486581D01*
X130748934Y-114769061D01*
X131117556Y-114922126D01*
X131516693Y-114922474D01*
X131885581Y-114770052D01*
X131921629Y-114734067D01*
X131921629Y-118618000D01*
X131945285Y-118736927D01*
X132012652Y-118837748D01*
X132113473Y-118905115D01*
X132232400Y-118928771D01*
X135026400Y-118928771D01*
X135145327Y-118905115D01*
X135246148Y-118837748D01*
X135313515Y-118736927D01*
X135337171Y-118618000D01*
X135337171Y-117887477D01*
X138886840Y-117887477D01*
X139203259Y-118653270D01*
X139788648Y-119239682D01*
X140553888Y-119557437D01*
X141382477Y-119558160D01*
X142148270Y-119241741D01*
X142734682Y-118656352D01*
X143052437Y-117891112D01*
X143053160Y-117062523D01*
X142736741Y-116296730D01*
X142151352Y-115710318D01*
X141386112Y-115392563D01*
X140557523Y-115391840D01*
X139791730Y-115708259D01*
X139205318Y-116293648D01*
X138887563Y-117058888D01*
X138886840Y-117887477D01*
X135337171Y-117887477D01*
X135337171Y-113792000D01*
X135313515Y-113673073D01*
X135246148Y-113572252D01*
X135145327Y-113504885D01*
X135026400Y-113481229D01*
X133174437Y-113481229D01*
X133438061Y-113218066D01*
X133591126Y-112849444D01*
X133591474Y-112450307D01*
X133439052Y-112081419D01*
X133157066Y-111798939D01*
X132788444Y-111645874D01*
X132389307Y-111645526D01*
X132020419Y-111797948D01*
X131737939Y-112079934D01*
X131584874Y-112448556D01*
X131584526Y-112847693D01*
X131632219Y-112963117D01*
X131518444Y-112915874D01*
X131119307Y-112915526D01*
X130750419Y-113067948D01*
X130467939Y-113349934D01*
X130314874Y-113718556D01*
X130314526Y-114117693D01*
X124955127Y-114117693D01*
X124955474Y-113720307D01*
X124803052Y-113351419D01*
X124521066Y-113068939D01*
X124152444Y-112915874D01*
X123753307Y-112915526D01*
X123637883Y-112963219D01*
X123685126Y-112849444D01*
X123685413Y-112520117D01*
X123753448Y-112588152D01*
X123951216Y-112720297D01*
X124184500Y-112766700D01*
X130017200Y-112766700D01*
X130250484Y-112720297D01*
X130448252Y-112588152D01*
X130606052Y-112430352D01*
X130738197Y-112232584D01*
X130784600Y-111999300D01*
X130784600Y-111880271D01*
X131064000Y-111880271D01*
X131182927Y-111856615D01*
X131283748Y-111789248D01*
X131351115Y-111688427D01*
X131374771Y-111569500D01*
X131374771Y-107378500D01*
X131351115Y-107259573D01*
X131283748Y-107158752D01*
X131182927Y-107091385D01*
X131064000Y-107067729D01*
X129286000Y-107067729D01*
X129167073Y-107091385D01*
X129087048Y-107144856D01*
X129040794Y-107033189D01*
X128869311Y-106861706D01*
X128645257Y-106768900D01*
X127939800Y-106768900D01*
X127787400Y-106921300D01*
X127787400Y-109321600D01*
X127807400Y-109321600D01*
X127807400Y-109626400D01*
X127787400Y-109626400D01*
X127787400Y-109646400D01*
X127482600Y-109646400D01*
X127482600Y-109626400D01*
X127462600Y-109626400D01*
X127462600Y-109321600D01*
X127482600Y-109321600D01*
X127482600Y-106921300D01*
X127330200Y-106768900D01*
X126624743Y-106768900D01*
X126400689Y-106861706D01*
X126229206Y-107033189D01*
X126182952Y-107144856D01*
X126102927Y-107091385D01*
X125984000Y-107067729D01*
X125704600Y-107067729D01*
X125704600Y-106948700D01*
X125658197Y-106715416D01*
X125526052Y-106517648D01*
X123199204Y-104190800D01*
X135605667Y-104190800D01*
X135764211Y-104987853D01*
X136215705Y-105663562D01*
X136891414Y-106115056D01*
X137688467Y-106273600D01*
X139323933Y-106273600D01*
X140120986Y-106115056D01*
X140796695Y-105663562D01*
X141248189Y-104987853D01*
X141406733Y-104190800D01*
X141248189Y-103393747D01*
X140796695Y-102718038D01*
X140120986Y-102266544D01*
X139323933Y-102108000D01*
X137688467Y-102108000D01*
X136891414Y-102266544D01*
X136215705Y-102718038D01*
X135764211Y-103393747D01*
X135605667Y-104190800D01*
X123199204Y-104190800D01*
X118138676Y-99130272D01*
X129133600Y-99130272D01*
X129133600Y-100259728D01*
X129315345Y-101173423D01*
X129832912Y-101948016D01*
X130607505Y-102465583D01*
X131521200Y-102647328D01*
X132434895Y-102465583D01*
X133209488Y-101948016D01*
X133727055Y-101173423D01*
X133908800Y-100259728D01*
X133908800Y-100218265D01*
X134170045Y-100218265D01*
X134235425Y-100467896D01*
X134703549Y-101275525D01*
X135445106Y-101842534D01*
X136347200Y-102082600D01*
X136855200Y-102082600D01*
X136855200Y-99847400D01*
X134269602Y-99847400D01*
X134170045Y-100218265D01*
X133908800Y-100218265D01*
X133908800Y-99171735D01*
X134170045Y-99171735D01*
X134269602Y-99542600D01*
X136855200Y-99542600D01*
X136855200Y-97307400D01*
X137160000Y-97307400D01*
X137160000Y-99542600D01*
X137180000Y-99542600D01*
X137180000Y-99847400D01*
X137160000Y-99847400D01*
X137160000Y-102082600D01*
X137668000Y-102082600D01*
X138570094Y-101842534D01*
X139311651Y-101275525D01*
X139673277Y-100651632D01*
X139792463Y-100771026D01*
X140259073Y-100964779D01*
X140764310Y-100965220D01*
X141231258Y-100772282D01*
X141588826Y-100415337D01*
X141782579Y-99948727D01*
X141783020Y-99443490D01*
X141590082Y-98976542D01*
X141233137Y-98618974D01*
X140766527Y-98425221D01*
X140261290Y-98424780D01*
X139794342Y-98617718D01*
X139673352Y-98738498D01*
X139311651Y-98114475D01*
X138570094Y-97547466D01*
X137668000Y-97307400D01*
X137160000Y-97307400D01*
X136855200Y-97307400D01*
X136347200Y-97307400D01*
X135445106Y-97547466D01*
X134703549Y-98114475D01*
X134235425Y-98922104D01*
X134170045Y-99171735D01*
X133908800Y-99171735D01*
X133908800Y-99130272D01*
X133727055Y-98216577D01*
X133209488Y-97441984D01*
X132434895Y-96924417D01*
X131521200Y-96742672D01*
X130607505Y-96924417D01*
X129832912Y-97441984D01*
X129315345Y-98216577D01*
X129133600Y-99130272D01*
X118138676Y-99130272D01*
X114465152Y-95456748D01*
X114267384Y-95324603D01*
X114034100Y-95278200D01*
X113114093Y-95278200D01*
X113166879Y-95199200D01*
X135605667Y-95199200D01*
X135764211Y-95996253D01*
X136215705Y-96671962D01*
X136891414Y-97123456D01*
X137688467Y-97282000D01*
X139323933Y-97282000D01*
X140120986Y-97123456D01*
X140796695Y-96671962D01*
X141248189Y-95996253D01*
X141406733Y-95199200D01*
X141248189Y-94402147D01*
X140796695Y-93726438D01*
X140120986Y-93274944D01*
X139323933Y-93116400D01*
X137688467Y-93116400D01*
X136891414Y-93274944D01*
X136215705Y-93726438D01*
X135764211Y-94402147D01*
X135605667Y-95199200D01*
X113166879Y-95199200D01*
X113284447Y-95023247D01*
X113365652Y-94615000D01*
X113284447Y-94206753D01*
X113053194Y-93860658D01*
X112707099Y-93629405D01*
X112298852Y-93548200D01*
X112244944Y-93548200D01*
X112514342Y-93368194D01*
X112745595Y-93022099D01*
X112826800Y-92613852D01*
X112826800Y-91536148D01*
X112745595Y-91127901D01*
X112514342Y-90781806D01*
X112168247Y-90550553D01*
X111760000Y-90469348D01*
X111351753Y-90550553D01*
X111005658Y-90781806D01*
X110774405Y-91127901D01*
X110693200Y-91536148D01*
X110693200Y-92613852D01*
X110774405Y-93022099D01*
X111005658Y-93368194D01*
X111275056Y-93548200D01*
X111221148Y-93548200D01*
X110812901Y-93629405D01*
X110466806Y-93860658D01*
X110235553Y-94206753D01*
X110154348Y-94615000D01*
X110154903Y-94617788D01*
X110051900Y-94597300D01*
X105339104Y-94597300D01*
X104375594Y-93633790D01*
X104548247Y-93599447D01*
X104894342Y-93368194D01*
X105125595Y-93022099D01*
X105206800Y-92613852D01*
X105206800Y-91536148D01*
X105613200Y-91536148D01*
X105613200Y-92613852D01*
X105694405Y-93022099D01*
X105925658Y-93368194D01*
X106271753Y-93599447D01*
X106680000Y-93680652D01*
X107088247Y-93599447D01*
X107434342Y-93368194D01*
X107665595Y-93022099D01*
X107746800Y-92613852D01*
X107746800Y-91536148D01*
X108153200Y-91536148D01*
X108153200Y-92613852D01*
X108234405Y-93022099D01*
X108465658Y-93368194D01*
X108811753Y-93599447D01*
X109220000Y-93680652D01*
X109628247Y-93599447D01*
X109974342Y-93368194D01*
X110205595Y-93022099D01*
X110286800Y-92613852D01*
X110286800Y-91536148D01*
X110205595Y-91127901D01*
X109974342Y-90781806D01*
X109628247Y-90550553D01*
X109220000Y-90469348D01*
X108811753Y-90550553D01*
X108465658Y-90781806D01*
X108234405Y-91127901D01*
X108153200Y-91536148D01*
X107746800Y-91536148D01*
X107665595Y-91127901D01*
X107434342Y-90781806D01*
X107088247Y-90550553D01*
X106680000Y-90469348D01*
X106271753Y-90550553D01*
X105925658Y-90781806D01*
X105694405Y-91127901D01*
X105613200Y-91536148D01*
X105206800Y-91536148D01*
X105125595Y-91127901D01*
X104894342Y-90781806D01*
X104548247Y-90550553D01*
X104140000Y-90469348D01*
X103731753Y-90550553D01*
X103385658Y-90781806D01*
X103361950Y-90817288D01*
X103301052Y-90726148D01*
X102519052Y-89944148D01*
X102321284Y-89812003D01*
X102088000Y-89765600D01*
X99060000Y-89765600D01*
X98826716Y-89812003D01*
X98628948Y-89944148D01*
X98496803Y-90141916D01*
X98450400Y-90375200D01*
X98450400Y-90685093D01*
X98305658Y-90781806D01*
X98074405Y-91127901D01*
X97993200Y-91536148D01*
X97993200Y-92613852D01*
X98074405Y-93022099D01*
X98305658Y-93368194D01*
X98651753Y-93599447D01*
X99060000Y-93680652D01*
X99468247Y-93599447D01*
X99814342Y-93368194D01*
X100045595Y-93022099D01*
X100126800Y-92613852D01*
X100126800Y-91536148D01*
X100045595Y-91127901D01*
X99949978Y-90984800D01*
X100710022Y-90984800D01*
X100614405Y-91127901D01*
X100533200Y-91536148D01*
X100533200Y-92613852D01*
X100614405Y-93022099D01*
X100845658Y-93368194D01*
X100990400Y-93464907D01*
X100990400Y-93774800D01*
X101036803Y-94008084D01*
X101160494Y-94193200D01*
X78847704Y-94193200D01*
X78522152Y-93867648D01*
X78587600Y-93802200D01*
X78587600Y-92227400D01*
X78892400Y-92227400D01*
X78892400Y-93802200D01*
X79044800Y-93954600D01*
X79623257Y-93954600D01*
X79847311Y-93861794D01*
X80018794Y-93690311D01*
X80111600Y-93466257D01*
X80111600Y-92379800D01*
X79959200Y-92227400D01*
X78892400Y-92227400D01*
X78587600Y-92227400D01*
X77520800Y-92227400D01*
X77368400Y-92379800D01*
X77368400Y-92713896D01*
X77188310Y-92533806D01*
X77210356Y-92511799D01*
X77324670Y-92236499D01*
X77324930Y-91938409D01*
X77211096Y-91662910D01*
X77000499Y-91451944D01*
X76905929Y-91412675D01*
X77368400Y-90950204D01*
X77368400Y-91770200D01*
X77520800Y-91922600D01*
X78587600Y-91922600D01*
X78587600Y-90347800D01*
X78892400Y-90347800D01*
X78892400Y-91922600D01*
X79959200Y-91922600D01*
X80111600Y-91770200D01*
X80111600Y-91536148D01*
X80213200Y-91536148D01*
X80213200Y-92613852D01*
X80294405Y-93022099D01*
X80525658Y-93368194D01*
X80871753Y-93599447D01*
X81280000Y-93680652D01*
X81688247Y-93599447D01*
X82034342Y-93368194D01*
X82265595Y-93022099D01*
X82346800Y-92613852D01*
X82346800Y-91536148D01*
X82265595Y-91127901D01*
X82034342Y-90781806D01*
X81889600Y-90685093D01*
X81889600Y-89208104D01*
X83210400Y-87887304D01*
X83210400Y-90685093D01*
X83065658Y-90781806D01*
X82834405Y-91127901D01*
X82753200Y-91536148D01*
X82753200Y-92613852D01*
X82834405Y-93022099D01*
X83065658Y-93368194D01*
X83411753Y-93599447D01*
X83820000Y-93680652D01*
X84228247Y-93599447D01*
X84574342Y-93368194D01*
X84805595Y-93022099D01*
X84886800Y-92613852D01*
X84886800Y-91536148D01*
X85293200Y-91536148D01*
X85293200Y-92613852D01*
X85374405Y-93022099D01*
X85605658Y-93368194D01*
X85951753Y-93599447D01*
X86360000Y-93680652D01*
X86768247Y-93599447D01*
X87114342Y-93368194D01*
X87345595Y-93022099D01*
X87426800Y-92613852D01*
X87426800Y-91536148D01*
X87833200Y-91536148D01*
X87833200Y-92613852D01*
X87914405Y-93022099D01*
X88145658Y-93368194D01*
X88491753Y-93599447D01*
X88900000Y-93680652D01*
X89308247Y-93599447D01*
X89654342Y-93368194D01*
X89885595Y-93022099D01*
X89966800Y-92613852D01*
X89966800Y-91536148D01*
X90373200Y-91536148D01*
X90373200Y-92613852D01*
X90454405Y-93022099D01*
X90685658Y-93368194D01*
X91031753Y-93599447D01*
X91440000Y-93680652D01*
X91848247Y-93599447D01*
X92194342Y-93368194D01*
X92425595Y-93022099D01*
X92506800Y-92613852D01*
X92506800Y-91536148D01*
X92913200Y-91536148D01*
X92913200Y-92613852D01*
X92994405Y-93022099D01*
X93225658Y-93368194D01*
X93571753Y-93599447D01*
X93980000Y-93680652D01*
X94388247Y-93599447D01*
X94734342Y-93368194D01*
X94965595Y-93022099D01*
X95046800Y-92613852D01*
X95046800Y-91536148D01*
X95453200Y-91536148D01*
X95453200Y-92613852D01*
X95534405Y-93022099D01*
X95765658Y-93368194D01*
X96111753Y-93599447D01*
X96520000Y-93680652D01*
X96928247Y-93599447D01*
X97274342Y-93368194D01*
X97505595Y-93022099D01*
X97586800Y-92613852D01*
X97586800Y-91536148D01*
X97505595Y-91127901D01*
X97274342Y-90781806D01*
X96928247Y-90550553D01*
X96520000Y-90469348D01*
X96111753Y-90550553D01*
X95765658Y-90781806D01*
X95534405Y-91127901D01*
X95453200Y-91536148D01*
X95046800Y-91536148D01*
X94965595Y-91127901D01*
X94734342Y-90781806D01*
X94388247Y-90550553D01*
X93980000Y-90469348D01*
X93571753Y-90550553D01*
X93225658Y-90781806D01*
X92994405Y-91127901D01*
X92913200Y-91536148D01*
X92506800Y-91536148D01*
X92425595Y-91127901D01*
X92194342Y-90781806D01*
X91848247Y-90550553D01*
X91440000Y-90469348D01*
X91031753Y-90550553D01*
X90685658Y-90781806D01*
X90454405Y-91127901D01*
X90373200Y-91536148D01*
X89966800Y-91536148D01*
X89885595Y-91127901D01*
X89654342Y-90781806D01*
X89308247Y-90550553D01*
X88900000Y-90469348D01*
X88491753Y-90550553D01*
X88145658Y-90781806D01*
X87914405Y-91127901D01*
X87833200Y-91536148D01*
X87426800Y-91536148D01*
X87345595Y-91127901D01*
X87114342Y-90781806D01*
X86768247Y-90550553D01*
X86360000Y-90469348D01*
X85951753Y-90550553D01*
X85605658Y-90781806D01*
X85374405Y-91127901D01*
X85293200Y-91536148D01*
X84886800Y-91536148D01*
X84805595Y-91127901D01*
X84574342Y-90781806D01*
X84429600Y-90685093D01*
X84429600Y-87674404D01*
X86101604Y-86002400D01*
X115652496Y-86002400D01*
X119997148Y-90347052D01*
X120194916Y-90479197D01*
X120428200Y-90525600D01*
X123895229Y-90525600D01*
X123895229Y-92011500D01*
X123918885Y-92130427D01*
X123986252Y-92231248D01*
X124087073Y-92298615D01*
X124206000Y-92322271D01*
X125984000Y-92322271D01*
X126102927Y-92298615D01*
X126182952Y-92245144D01*
X126229206Y-92356811D01*
X126400689Y-92528294D01*
X126624743Y-92621100D01*
X127330200Y-92621100D01*
X127482600Y-92468700D01*
X127482600Y-90068400D01*
X127462600Y-90068400D01*
X127462600Y-89763600D01*
X127482600Y-89763600D01*
X127482600Y-89743600D01*
X127787400Y-89743600D01*
X127787400Y-89763600D01*
X127807400Y-89763600D01*
X127807400Y-90068400D01*
X127787400Y-90068400D01*
X127787400Y-92468700D01*
X127939800Y-92621100D01*
X128645257Y-92621100D01*
X128869311Y-92528294D01*
X129040794Y-92356811D01*
X129087048Y-92245144D01*
X129167073Y-92298615D01*
X129286000Y-92322271D01*
X131064000Y-92322271D01*
X131182927Y-92298615D01*
X131283748Y-92231248D01*
X131351115Y-92130427D01*
X131374771Y-92011500D01*
X131374771Y-87820500D01*
X131351115Y-87701573D01*
X131283748Y-87600752D01*
X131182927Y-87533385D01*
X131064000Y-87509729D01*
X130784600Y-87509729D01*
X130784600Y-87390700D01*
X130738197Y-87157416D01*
X130606052Y-86959648D01*
X130456052Y-86809648D01*
X130258284Y-86677503D01*
X130025000Y-86631100D01*
X124176800Y-86631100D01*
X123943516Y-86677503D01*
X123745747Y-86809648D01*
X123685188Y-86870207D01*
X123685474Y-86542307D01*
X123637781Y-86426883D01*
X123751556Y-86474126D01*
X124150693Y-86474474D01*
X124519581Y-86322052D01*
X124802061Y-86040066D01*
X124955126Y-85671444D01*
X124955127Y-85669693D01*
X130314526Y-85669693D01*
X130466948Y-86038581D01*
X130748934Y-86321061D01*
X131117556Y-86474126D01*
X131516693Y-86474474D01*
X131632117Y-86426781D01*
X131584874Y-86540556D01*
X131584526Y-86939693D01*
X131736948Y-87308581D01*
X132018934Y-87591061D01*
X132387556Y-87744126D01*
X132786693Y-87744474D01*
X133155581Y-87592052D01*
X133438061Y-87310066D01*
X133591126Y-86941444D01*
X133591474Y-86542307D01*
X133439052Y-86173419D01*
X133174867Y-85908771D01*
X135026400Y-85908771D01*
X135145327Y-85885115D01*
X135246148Y-85817748D01*
X135313515Y-85716927D01*
X135337171Y-85598000D01*
X135337171Y-82327477D01*
X138886840Y-82327477D01*
X139203259Y-83093270D01*
X139788648Y-83679682D01*
X140553888Y-83997437D01*
X141382477Y-83998160D01*
X142148270Y-83681741D01*
X142734682Y-83096352D01*
X143052437Y-82331112D01*
X143053160Y-81502523D01*
X142736741Y-80736730D01*
X142151352Y-80150318D01*
X141386112Y-79832563D01*
X140557523Y-79831840D01*
X139791730Y-80148259D01*
X139205318Y-80733648D01*
X138887563Y-81498888D01*
X138886840Y-82327477D01*
X135337171Y-82327477D01*
X135337171Y-80772000D01*
X135313515Y-80653073D01*
X135246148Y-80552252D01*
X135145327Y-80484885D01*
X135026400Y-80461229D01*
X132232400Y-80461229D01*
X132113473Y-80484885D01*
X132012652Y-80552252D01*
X131945285Y-80653073D01*
X131921629Y-80772000D01*
X131921629Y-84655563D01*
X131887066Y-84620939D01*
X131518444Y-84467874D01*
X131119307Y-84467526D01*
X130750419Y-84619948D01*
X130467939Y-84901934D01*
X130314874Y-85270556D01*
X130314526Y-85669693D01*
X124955127Y-85669693D01*
X124955474Y-85272307D01*
X124803052Y-84903419D01*
X124521066Y-84620939D01*
X124152444Y-84467874D01*
X123753307Y-84467526D01*
X123384419Y-84619948D01*
X123348371Y-84655933D01*
X123348371Y-80772000D01*
X123324715Y-80653073D01*
X123257348Y-80552252D01*
X123156527Y-80484885D01*
X123037600Y-80461229D01*
X120243600Y-80461229D01*
X120124673Y-80484885D01*
X120023852Y-80552252D01*
X119956485Y-80653073D01*
X119932829Y-80772000D01*
X119932829Y-80872473D01*
X119876741Y-80736730D01*
X119291352Y-80150318D01*
X118526112Y-79832563D01*
X117697523Y-79831840D01*
X116931730Y-80148259D01*
X116345318Y-80733648D01*
X116027563Y-81498888D01*
X116026840Y-82327477D01*
X116343259Y-83093270D01*
X116928648Y-83679682D01*
X117693888Y-83997437D01*
X118522477Y-83998160D01*
X119288270Y-83681741D01*
X119874682Y-83096352D01*
X119932829Y-82956318D01*
X119932829Y-85598000D01*
X119956485Y-85716927D01*
X120023852Y-85817748D01*
X120124673Y-85885115D01*
X120243600Y-85908771D01*
X122095563Y-85908771D01*
X121831939Y-86171934D01*
X121678874Y-86540556D01*
X121678526Y-86939693D01*
X121830948Y-87308581D01*
X121893457Y-87371200D01*
X119812705Y-87371200D01*
X116691752Y-84250248D01*
X116493984Y-84118103D01*
X116260700Y-84071700D01*
X85554300Y-84071700D01*
X85321016Y-84118103D01*
X85123248Y-84250248D01*
X80848948Y-88524548D01*
X80716803Y-88722316D01*
X80670400Y-88955600D01*
X80670400Y-90685093D01*
X80525658Y-90781806D01*
X80294405Y-91127901D01*
X80213200Y-91536148D01*
X80111600Y-91536148D01*
X80111600Y-90683743D01*
X80018794Y-90459689D01*
X79847311Y-90288206D01*
X79623257Y-90195400D01*
X79044800Y-90195400D01*
X78892400Y-90347800D01*
X78587600Y-90347800D01*
X78435200Y-90195400D01*
X78123204Y-90195400D01*
X78232904Y-90085700D01*
X78293200Y-90085700D01*
X78526484Y-90039297D01*
X78724252Y-89907152D01*
X84251053Y-84380352D01*
X84337985Y-84250248D01*
X84383197Y-84182584D01*
X84429600Y-83949300D01*
X84429600Y-83334556D01*
X84691085Y-83159837D01*
X84958127Y-82760180D01*
X85051900Y-82288752D01*
X85051900Y-81541248D01*
X85128100Y-81541248D01*
X85128100Y-82288752D01*
X85221873Y-82760180D01*
X85488915Y-83159837D01*
X85888572Y-83426879D01*
X86360000Y-83520652D01*
X86831428Y-83426879D01*
X87231085Y-83159837D01*
X87498127Y-82760180D01*
X87591900Y-82288752D01*
X87591900Y-81541248D01*
X87668100Y-81541248D01*
X87668100Y-82288752D01*
X87761873Y-82760180D01*
X88028915Y-83159837D01*
X88428572Y-83426879D01*
X88900000Y-83520652D01*
X89371428Y-83426879D01*
X89771085Y-83159837D01*
X90038127Y-82760180D01*
X90131900Y-82288752D01*
X90131900Y-81541248D01*
X90208100Y-81541248D01*
X90208100Y-82288752D01*
X90301873Y-82760180D01*
X90568915Y-83159837D01*
X90968572Y-83426879D01*
X91440000Y-83520652D01*
X91911428Y-83426879D01*
X92311085Y-83159837D01*
X92578127Y-82760180D01*
X92671900Y-82288752D01*
X92671900Y-81541248D01*
X92748100Y-81541248D01*
X92748100Y-82288752D01*
X92841873Y-82760180D01*
X93108915Y-83159837D01*
X93508572Y-83426879D01*
X93980000Y-83520652D01*
X94451428Y-83426879D01*
X94851085Y-83159837D01*
X95118127Y-82760180D01*
X95211900Y-82288752D01*
X95211900Y-81541248D01*
X95288100Y-81541248D01*
X95288100Y-82288752D01*
X95381873Y-82760180D01*
X95648915Y-83159837D01*
X96048572Y-83426879D01*
X96520000Y-83520652D01*
X96991428Y-83426879D01*
X97391085Y-83159837D01*
X97658127Y-82760180D01*
X97751900Y-82288752D01*
X97751900Y-81541248D01*
X97828100Y-81541248D01*
X97828100Y-82288752D01*
X97921873Y-82760180D01*
X98188915Y-83159837D01*
X98588572Y-83426879D01*
X99060000Y-83520652D01*
X99531428Y-83426879D01*
X99931085Y-83159837D01*
X100198127Y-82760180D01*
X100291900Y-82288752D01*
X100291900Y-81541248D01*
X100368100Y-81541248D01*
X100368100Y-82288752D01*
X100461873Y-82760180D01*
X100728915Y-83159837D01*
X101128572Y-83426879D01*
X101600000Y-83520652D01*
X102071428Y-83426879D01*
X102471085Y-83159837D01*
X102738127Y-82760180D01*
X102831900Y-82288752D01*
X102831900Y-81541248D01*
X102908100Y-81541248D01*
X102908100Y-82288752D01*
X103001873Y-82760180D01*
X103268915Y-83159837D01*
X103668572Y-83426879D01*
X104140000Y-83520652D01*
X104611428Y-83426879D01*
X105011085Y-83159837D01*
X105278127Y-82760180D01*
X105371900Y-82288752D01*
X105371900Y-81541248D01*
X105448100Y-81541248D01*
X105448100Y-82288752D01*
X105541873Y-82760180D01*
X105808915Y-83159837D01*
X106208572Y-83426879D01*
X106680000Y-83520652D01*
X107151428Y-83426879D01*
X107551085Y-83159837D01*
X107818127Y-82760180D01*
X107911900Y-82288752D01*
X107911900Y-81541248D01*
X107988100Y-81541248D01*
X107988100Y-82288752D01*
X108081873Y-82760180D01*
X108348915Y-83159837D01*
X108748572Y-83426879D01*
X109220000Y-83520652D01*
X109691428Y-83426879D01*
X110091085Y-83159837D01*
X110358127Y-82760180D01*
X110451900Y-82288752D01*
X110451900Y-81541248D01*
X110528100Y-81541248D01*
X110528100Y-82288752D01*
X110621873Y-82760180D01*
X110888915Y-83159837D01*
X111288572Y-83426879D01*
X111760000Y-83520652D01*
X112231428Y-83426879D01*
X112631085Y-83159837D01*
X112898127Y-82760180D01*
X112991900Y-82288752D01*
X112991900Y-81541248D01*
X113068100Y-81541248D01*
X113068100Y-82288752D01*
X113161873Y-82760180D01*
X113428915Y-83159837D01*
X113828572Y-83426879D01*
X114300000Y-83520652D01*
X114771428Y-83426879D01*
X115171085Y-83159837D01*
X115438127Y-82760180D01*
X115531900Y-82288752D01*
X115531900Y-81541248D01*
X115438127Y-81069820D01*
X115171085Y-80670163D01*
X114771428Y-80403121D01*
X114300000Y-80309348D01*
X113828572Y-80403121D01*
X113428915Y-80670163D01*
X113161873Y-81069820D01*
X113068100Y-81541248D01*
X112991900Y-81541248D01*
X112898127Y-81069820D01*
X112631085Y-80670163D01*
X112231428Y-80403121D01*
X111760000Y-80309348D01*
X111288572Y-80403121D01*
X110888915Y-80670163D01*
X110621873Y-81069820D01*
X110528100Y-81541248D01*
X110451900Y-81541248D01*
X110358127Y-81069820D01*
X110091085Y-80670163D01*
X109691428Y-80403121D01*
X109220000Y-80309348D01*
X108748572Y-80403121D01*
X108348915Y-80670163D01*
X108081873Y-81069820D01*
X107988100Y-81541248D01*
X107911900Y-81541248D01*
X107818127Y-81069820D01*
X107551085Y-80670163D01*
X107151428Y-80403121D01*
X106680000Y-80309348D01*
X106208572Y-80403121D01*
X105808915Y-80670163D01*
X105541873Y-81069820D01*
X105448100Y-81541248D01*
X105371900Y-81541248D01*
X105278127Y-81069820D01*
X105011085Y-80670163D01*
X104611428Y-80403121D01*
X104140000Y-80309348D01*
X103668572Y-80403121D01*
X103268915Y-80670163D01*
X103001873Y-81069820D01*
X102908100Y-81541248D01*
X102831900Y-81541248D01*
X102738127Y-81069820D01*
X102471085Y-80670163D01*
X102071428Y-80403121D01*
X101600000Y-80309348D01*
X101128572Y-80403121D01*
X100728915Y-80670163D01*
X100461873Y-81069820D01*
X100368100Y-81541248D01*
X100291900Y-81541248D01*
X100198127Y-81069820D01*
X99931085Y-80670163D01*
X99531428Y-80403121D01*
X99060000Y-80309348D01*
X98588572Y-80403121D01*
X98188915Y-80670163D01*
X97921873Y-81069820D01*
X97828100Y-81541248D01*
X97751900Y-81541248D01*
X97658127Y-81069820D01*
X97391085Y-80670163D01*
X96991428Y-80403121D01*
X96520000Y-80309348D01*
X96048572Y-80403121D01*
X95648915Y-80670163D01*
X95381873Y-81069820D01*
X95288100Y-81541248D01*
X95211900Y-81541248D01*
X95118127Y-81069820D01*
X94851085Y-80670163D01*
X94451428Y-80403121D01*
X93980000Y-80309348D01*
X93508572Y-80403121D01*
X93108915Y-80670163D01*
X92841873Y-81069820D01*
X92748100Y-81541248D01*
X92671900Y-81541248D01*
X92578127Y-81069820D01*
X92311085Y-80670163D01*
X91911428Y-80403121D01*
X91440000Y-80309348D01*
X90968572Y-80403121D01*
X90568915Y-80670163D01*
X90301873Y-81069820D01*
X90208100Y-81541248D01*
X90131900Y-81541248D01*
X90038127Y-81069820D01*
X89771085Y-80670163D01*
X89371428Y-80403121D01*
X88900000Y-80309348D01*
X88428572Y-80403121D01*
X88028915Y-80670163D01*
X87761873Y-81069820D01*
X87668100Y-81541248D01*
X87591900Y-81541248D01*
X87498127Y-81069820D01*
X87231085Y-80670163D01*
X86831428Y-80403121D01*
X86360000Y-80309348D01*
X85888572Y-80403121D01*
X85488915Y-80670163D01*
X85221873Y-81069820D01*
X85128100Y-81541248D01*
X85051900Y-81541248D01*
X84958127Y-81069820D01*
X84691085Y-80670163D01*
X84291428Y-80403121D01*
X83820000Y-80309348D01*
X83348572Y-80403121D01*
X82948915Y-80670163D01*
X82681873Y-81069820D01*
X82588100Y-81541248D01*
X82588100Y-82288752D01*
X82681873Y-82760180D01*
X82948915Y-83159837D01*
X83210400Y-83334556D01*
X83210400Y-83696795D01*
X79552486Y-87354709D01*
X79553160Y-86582523D01*
X79236741Y-85816730D01*
X78651352Y-85230318D01*
X77886112Y-84912563D01*
X77057523Y-84911840D01*
X76291730Y-85228259D01*
X75705318Y-85813648D01*
X75387563Y-86578888D01*
X75386840Y-87407477D01*
X75703259Y-88173270D01*
X76288648Y-88759682D01*
X77053888Y-89077437D01*
X77516555Y-89077841D01*
X75290748Y-91303648D01*
X75158603Y-91501416D01*
X75112200Y-91734700D01*
X75112200Y-92935700D01*
X75158603Y-93168984D01*
X75290748Y-93366752D01*
X79069748Y-97145752D01*
X79267516Y-97277897D01*
X79500800Y-97324300D01*
X100574996Y-97324300D01*
X100990400Y-97739704D01*
X100990400Y-97797093D01*
X100845658Y-97893806D01*
X100614405Y-98239901D01*
X100533200Y-98648148D01*
X100533200Y-99725852D01*
X100614405Y-100134099D01*
X100762273Y-100355400D01*
X99897727Y-100355400D01*
X100045595Y-100134099D01*
X100126800Y-99725852D01*
X100126800Y-98648148D01*
X100045595Y-98239901D01*
X99814342Y-97893806D01*
X99468247Y-97662553D01*
X99060000Y-97581348D01*
X98651753Y-97662553D01*
X98305658Y-97893806D01*
X98074405Y-98239901D01*
X97993200Y-98648148D01*
X97993200Y-99725852D01*
X98074405Y-100134099D01*
X98222273Y-100355400D01*
X97357727Y-100355400D01*
X97505595Y-100134099D01*
X97586800Y-99725852D01*
X97586800Y-98648148D01*
X97505595Y-98239901D01*
X97274342Y-97893806D01*
X96928247Y-97662553D01*
X96520000Y-97581348D01*
X96111753Y-97662553D01*
X95765658Y-97893806D01*
X95534405Y-98239901D01*
X95453200Y-98648148D01*
X95453200Y-99725852D01*
X95534405Y-100134099D01*
X95682273Y-100355400D01*
X94817727Y-100355400D01*
X94965595Y-100134099D01*
X95046800Y-99725852D01*
X95046800Y-98648148D01*
X94965595Y-98239901D01*
X94734342Y-97893806D01*
X94388247Y-97662553D01*
X93980000Y-97581348D01*
X93571753Y-97662553D01*
X93225658Y-97893806D01*
X92994405Y-98239901D01*
X92913200Y-98648148D01*
X92913200Y-99725852D01*
X92994405Y-100134099D01*
X93142273Y-100355400D01*
X87097304Y-100355400D01*
X86005852Y-99263948D01*
X85808084Y-99131803D01*
X85574800Y-99085400D01*
X73391214Y-99085400D01*
X73375595Y-99006877D01*
X73144342Y-98660782D01*
X72837204Y-98455559D01*
X73281708Y-98209480D01*
X73617363Y-97787970D01*
X73766163Y-97270096D01*
X73614825Y-97053400D01*
X72542400Y-97053400D01*
X72542400Y-97073400D01*
X72237600Y-97073400D01*
X72237600Y-97053400D01*
X71165175Y-97053400D01*
X71013837Y-97270096D01*
X71162637Y-97787970D01*
X71498292Y-98209480D01*
X71942796Y-98455559D01*
X71635658Y-98660782D01*
X71404405Y-99006877D01*
X71323200Y-99415124D01*
X71323200Y-99974876D01*
X71404405Y-100383123D01*
X71635658Y-100729218D01*
X71942796Y-100934441D01*
X71498292Y-101180520D01*
X71162637Y-101602030D01*
X71013837Y-102119904D01*
X71165175Y-102336600D01*
X72237600Y-102336600D01*
X72237600Y-102316600D01*
X72542400Y-102316600D01*
X72542400Y-102336600D01*
X73614825Y-102336600D01*
X73766163Y-102119904D01*
X73617363Y-101602030D01*
X73281708Y-101180520D01*
X72837204Y-100934441D01*
X73144342Y-100729218D01*
X73375595Y-100383123D01*
X73391214Y-100304600D01*
X85322296Y-100304600D01*
X86185596Y-101167900D01*
X77207100Y-101167900D01*
X76837734Y-101241371D01*
X76524601Y-101450601D01*
X73637501Y-104337701D01*
X73428271Y-104650834D01*
X73398521Y-104800400D01*
X73075800Y-104800400D01*
X72923400Y-104952800D01*
X72923400Y-106527600D01*
X72943400Y-106527600D01*
X72943400Y-106832400D01*
X72923400Y-106832400D01*
X72923400Y-106852400D01*
X72618600Y-106852400D01*
X72618600Y-106832400D01*
X71678800Y-106832400D01*
X71526400Y-106984800D01*
X71526400Y-108071257D01*
X71619206Y-108295311D01*
X71790689Y-108466794D01*
X71811137Y-108475264D01*
X71743143Y-108543259D01*
X71385634Y-108614371D01*
X71072501Y-108823601D01*
X70863271Y-109136734D01*
X70789800Y-109506100D01*
X70789800Y-110007434D01*
X70505000Y-110007434D01*
X70366252Y-110035033D01*
X70248627Y-110113627D01*
X70170033Y-110231252D01*
X70142434Y-110370000D01*
X70142434Y-113080000D01*
X70170033Y-113218748D01*
X70248627Y-113336373D01*
X70366252Y-113414967D01*
X70505000Y-113442566D01*
X73005000Y-113442566D01*
X73143748Y-113414967D01*
X73261373Y-113336373D01*
X73339967Y-113218748D01*
X73354800Y-113144178D01*
X73354800Y-114185822D01*
X73339967Y-114111252D01*
X73261373Y-113993627D01*
X73143748Y-113915033D01*
X73005000Y-113887434D01*
X70505000Y-113887434D01*
X70366252Y-113915033D01*
X70248627Y-113993627D01*
X70170033Y-114111252D01*
X70142434Y-114250000D01*
X70142434Y-114639800D01*
X69619858Y-114639800D01*
X69443900Y-114604800D01*
X68378298Y-114604800D01*
X68277534Y-114537472D01*
X67849847Y-114452400D01*
X66770153Y-114452400D01*
X66342466Y-114537472D01*
X66241702Y-114604800D01*
X65575899Y-114604800D01*
X64364860Y-113393761D01*
X65479516Y-113393761D01*
X65724369Y-113892104D01*
X66136312Y-114238872D01*
X66649600Y-114401600D01*
X67157600Y-114401600D01*
X67157600Y-113182400D01*
X67462400Y-113182400D01*
X67462400Y-114401600D01*
X67970400Y-114401600D01*
X68483688Y-114238872D01*
X68895631Y-113892104D01*
X69140484Y-113393761D01*
X69027637Y-113182400D01*
X67462400Y-113182400D01*
X67157600Y-113182400D01*
X65592363Y-113182400D01*
X65479516Y-113393761D01*
X64364860Y-113393761D01*
X63982664Y-113011566D01*
X64135000Y-113011566D01*
X64273748Y-112983967D01*
X64391373Y-112905373D01*
X64469967Y-112787748D01*
X64494136Y-112666239D01*
X65479516Y-112666239D01*
X65592363Y-112877600D01*
X67157600Y-112877600D01*
X67157600Y-111658400D01*
X67462400Y-111658400D01*
X67462400Y-112877600D01*
X69027637Y-112877600D01*
X69140484Y-112666239D01*
X68895631Y-112167896D01*
X68483688Y-111821128D01*
X67970400Y-111658400D01*
X67462400Y-111658400D01*
X67157600Y-111658400D01*
X66649600Y-111658400D01*
X66136312Y-111821128D01*
X65724369Y-112167896D01*
X65479516Y-112666239D01*
X64494136Y-112666239D01*
X64497566Y-112649000D01*
X64497566Y-111379000D01*
X64469967Y-111240252D01*
X64391373Y-111122627D01*
X64273748Y-111044033D01*
X64135000Y-111016434D01*
X61595000Y-111016434D01*
X61456252Y-111044033D01*
X61338627Y-111122627D01*
X61260033Y-111240252D01*
X61232434Y-111379000D01*
X60109100Y-111379000D01*
X60109100Y-109270800D01*
X60985400Y-109270800D01*
X60985400Y-109722257D01*
X61078206Y-109946311D01*
X61249689Y-110117794D01*
X61473743Y-110210600D01*
X62560200Y-110210600D01*
X62712600Y-110058200D01*
X62712600Y-109118400D01*
X63017400Y-109118400D01*
X63017400Y-110058200D01*
X63169800Y-110210600D01*
X64256257Y-110210600D01*
X64480311Y-110117794D01*
X64651794Y-109946311D01*
X64744600Y-109722257D01*
X64744600Y-109270800D01*
X64592200Y-109118400D01*
X63017400Y-109118400D01*
X62712600Y-109118400D01*
X61137800Y-109118400D01*
X60985400Y-109270800D01*
X60109100Y-109270800D01*
X60109100Y-108209743D01*
X60985400Y-108209743D01*
X60985400Y-108661200D01*
X61137800Y-108813600D01*
X62712600Y-108813600D01*
X62712600Y-107873800D01*
X63017400Y-107873800D01*
X63017400Y-108813600D01*
X64592200Y-108813600D01*
X64744600Y-108661200D01*
X64744600Y-108209743D01*
X64651794Y-107985689D01*
X64480311Y-107814206D01*
X64256257Y-107721400D01*
X63169800Y-107721400D01*
X63017400Y-107873800D01*
X62712600Y-107873800D01*
X62560200Y-107721400D01*
X61473743Y-107721400D01*
X61249689Y-107814206D01*
X61078206Y-107985689D01*
X60985400Y-108209743D01*
X60109100Y-108209743D01*
X60109100Y-94615000D01*
X60599467Y-94615000D01*
X60738676Y-95314851D01*
X61135110Y-95908157D01*
X61728416Y-96304591D01*
X62428267Y-96443800D01*
X64571733Y-96443800D01*
X65271584Y-96304591D01*
X65864890Y-95908157D01*
X66090800Y-95570058D01*
X66090800Y-103819942D01*
X65864890Y-103481843D01*
X65271584Y-103085409D01*
X64571733Y-102946200D01*
X62428267Y-102946200D01*
X61728416Y-103085409D01*
X61135110Y-103481843D01*
X60738676Y-104075149D01*
X60599467Y-104775000D01*
X60738676Y-105474851D01*
X61135110Y-106068157D01*
X61728416Y-106464591D01*
X62428267Y-106603800D01*
X64571733Y-106603800D01*
X65271584Y-106464591D01*
X65864890Y-106068157D01*
X66058434Y-105778498D01*
X66058434Y-107950000D01*
X66086033Y-108088748D01*
X66090800Y-108095882D01*
X66090800Y-108813900D01*
X66155015Y-109136734D01*
X66164271Y-109183266D01*
X66344800Y-109453445D01*
X66344800Y-109457008D01*
X66342466Y-109457472D01*
X65979890Y-109699737D01*
X65737625Y-110062313D01*
X65652553Y-110490000D01*
X65737625Y-110917687D01*
X65979890Y-111280263D01*
X66342466Y-111522528D01*
X66770153Y-111607600D01*
X67849847Y-111607600D01*
X68277534Y-111522528D01*
X68640110Y-111280263D01*
X68882375Y-110917687D01*
X68967447Y-110490000D01*
X68882375Y-110062313D01*
X68640110Y-109699737D01*
X68277534Y-109457472D01*
X68275200Y-109457008D01*
X68275200Y-108864100D01*
X68201729Y-108494734D01*
X68021200Y-108224555D01*
X68021200Y-108095882D01*
X68025967Y-108088748D01*
X68053566Y-107950000D01*
X68053566Y-106984800D01*
X68859400Y-106984800D01*
X68859400Y-108071257D01*
X68952206Y-108295311D01*
X69123689Y-108466794D01*
X69347743Y-108559600D01*
X69799200Y-108559600D01*
X69951600Y-108407200D01*
X69951600Y-106832400D01*
X70256400Y-106832400D01*
X70256400Y-108407200D01*
X70408800Y-108559600D01*
X70860257Y-108559600D01*
X71084311Y-108466794D01*
X71255794Y-108295311D01*
X71348600Y-108071257D01*
X71348600Y-106984800D01*
X71196200Y-106832400D01*
X70256400Y-106832400D01*
X69951600Y-106832400D01*
X69011800Y-106832400D01*
X68859400Y-106984800D01*
X68053566Y-106984800D01*
X68053566Y-105410000D01*
X68029447Y-105288743D01*
X68859400Y-105288743D01*
X68859400Y-106375200D01*
X69011800Y-106527600D01*
X69951600Y-106527600D01*
X69951600Y-104952800D01*
X70256400Y-104952800D01*
X70256400Y-106527600D01*
X71196200Y-106527600D01*
X71348600Y-106375200D01*
X71348600Y-105288743D01*
X71526400Y-105288743D01*
X71526400Y-106375200D01*
X71678800Y-106527600D01*
X72618600Y-106527600D01*
X72618600Y-104952800D01*
X72466200Y-104800400D01*
X72014743Y-104800400D01*
X71790689Y-104893206D01*
X71619206Y-105064689D01*
X71526400Y-105288743D01*
X71348600Y-105288743D01*
X71255794Y-105064689D01*
X71084311Y-104893206D01*
X70860257Y-104800400D01*
X70408800Y-104800400D01*
X70256400Y-104952800D01*
X69951600Y-104952800D01*
X69799200Y-104800400D01*
X69347743Y-104800400D01*
X69123689Y-104893206D01*
X68952206Y-105064689D01*
X68859400Y-105288743D01*
X68029447Y-105288743D01*
X68025967Y-105271252D01*
X68021200Y-105264118D01*
X68021200Y-102858096D01*
X71013837Y-102858096D01*
X71162637Y-103375970D01*
X71498292Y-103797480D01*
X71969701Y-104058454D01*
X72026239Y-104065484D01*
X72237600Y-103952637D01*
X72237600Y-102641400D01*
X72542400Y-102641400D01*
X72542400Y-103952637D01*
X72753761Y-104065484D01*
X72810299Y-104058454D01*
X73281708Y-103797480D01*
X73617363Y-103375970D01*
X73766163Y-102858096D01*
X73614825Y-102641400D01*
X72542400Y-102641400D01*
X72237600Y-102641400D01*
X71165175Y-102641400D01*
X71013837Y-102858096D01*
X68021200Y-102858096D01*
X68021200Y-99695000D01*
X68249324Y-99695000D01*
X68330529Y-100103247D01*
X68561782Y-100449342D01*
X68907877Y-100680595D01*
X69316124Y-100761800D01*
X69875876Y-100761800D01*
X70284123Y-100680595D01*
X70630218Y-100449342D01*
X70861471Y-100103247D01*
X70942676Y-99695000D01*
X70861471Y-99286753D01*
X70630218Y-98940658D01*
X70284123Y-98709405D01*
X69875876Y-98628200D01*
X69316124Y-98628200D01*
X68907877Y-98709405D01*
X68561782Y-98940658D01*
X68330529Y-99286753D01*
X68249324Y-99695000D01*
X68021200Y-99695000D01*
X68021200Y-96531904D01*
X71013837Y-96531904D01*
X71165175Y-96748600D01*
X72237600Y-96748600D01*
X72237600Y-95437363D01*
X72542400Y-95437363D01*
X72542400Y-96748600D01*
X73614825Y-96748600D01*
X73766163Y-96531904D01*
X73617363Y-96014030D01*
X73281708Y-95592520D01*
X72810299Y-95331546D01*
X72753761Y-95324516D01*
X72542400Y-95437363D01*
X72237600Y-95437363D01*
X72026239Y-95324516D01*
X71969701Y-95331546D01*
X71498292Y-95592520D01*
X71162637Y-96014030D01*
X71013837Y-96531904D01*
X68021200Y-96531904D01*
X68021200Y-88127899D01*
X68063206Y-88229311D01*
X68234689Y-88400794D01*
X68458743Y-88493600D01*
X69545200Y-88493600D01*
X69697600Y-88341200D01*
X69697600Y-87401400D01*
X70002400Y-87401400D01*
X70002400Y-88341200D01*
X70154800Y-88493600D01*
X71241257Y-88493600D01*
X71465311Y-88400794D01*
X71636794Y-88229311D01*
X71729600Y-88005257D01*
X71729600Y-87553800D01*
X71577200Y-87401400D01*
X70002400Y-87401400D01*
X69697600Y-87401400D01*
X69677600Y-87401400D01*
X69677600Y-87096600D01*
X69697600Y-87096600D01*
X69697600Y-86156800D01*
X70002400Y-86156800D01*
X70002400Y-87096600D01*
X71577200Y-87096600D01*
X71729600Y-86944200D01*
X71729600Y-86492743D01*
X71636794Y-86268689D01*
X71465311Y-86097206D01*
X71241257Y-86004400D01*
X70154800Y-86004400D01*
X70002400Y-86156800D01*
X69697600Y-86156800D01*
X69545200Y-86004400D01*
X68458743Y-86004400D01*
X68234689Y-86097206D01*
X68063206Y-86268689D01*
X68021200Y-86370101D01*
X68021200Y-85260898D01*
X68115899Y-85166200D01*
X68434118Y-85166200D01*
X68441252Y-85170967D01*
X68580000Y-85198566D01*
X71120000Y-85198566D01*
X71258748Y-85170967D01*
X71376373Y-85092373D01*
X71454967Y-84974748D01*
X71482566Y-84836000D01*
X71482566Y-83566000D01*
X71454967Y-83427252D01*
X71376373Y-83309627D01*
X71258748Y-83231033D01*
X71120000Y-83203434D01*
X70815200Y-83203434D01*
X70815200Y-83101898D01*
X71036899Y-82880200D01*
X74910334Y-82880200D01*
X74910334Y-83185000D01*
X74937933Y-83323748D01*
X75016527Y-83441373D01*
X75134152Y-83519967D01*
X75272900Y-83547566D01*
X77127100Y-83547566D01*
X77265848Y-83519967D01*
X77383473Y-83441373D01*
X77462067Y-83323748D01*
X77489666Y-83185000D01*
X77489666Y-83121923D01*
X77761152Y-83452274D01*
X78292730Y-83735947D01*
X78350269Y-83744357D01*
X78587600Y-83633785D01*
X78587600Y-82067400D01*
X78567600Y-82067400D01*
X78567600Y-81762600D01*
X78587600Y-81762600D01*
X78587600Y-80196215D01*
X78892400Y-80196215D01*
X78892400Y-81762600D01*
X78912400Y-81762600D01*
X78912400Y-82067400D01*
X78892400Y-82067400D01*
X78892400Y-83633785D01*
X79129731Y-83744357D01*
X79187270Y-83735947D01*
X79718848Y-83452274D01*
X80101405Y-82986769D01*
X80161414Y-82789425D01*
X80408915Y-83159837D01*
X80808572Y-83426879D01*
X81280000Y-83520652D01*
X81751428Y-83426879D01*
X82151085Y-83159837D01*
X82418127Y-82760180D01*
X82511900Y-82288752D01*
X82511900Y-81541248D01*
X82418127Y-81069820D01*
X82151085Y-80670163D01*
X81751428Y-80403121D01*
X81280000Y-80309348D01*
X80808572Y-80403121D01*
X80408915Y-80670163D01*
X80161414Y-81040575D01*
X80101405Y-80843231D01*
X79718848Y-80377726D01*
X79187270Y-80094053D01*
X79129731Y-80085643D01*
X78892400Y-80196215D01*
X78587600Y-80196215D01*
X78350269Y-80085643D01*
X78292730Y-80094053D01*
X77761152Y-80377726D01*
X77489666Y-80708077D01*
X77489666Y-80645000D01*
X77462067Y-80506252D01*
X77383473Y-80388627D01*
X77265848Y-80310033D01*
X77127100Y-80282434D01*
X75272900Y-80282434D01*
X75134152Y-80310033D01*
X75016527Y-80388627D01*
X74937933Y-80506252D01*
X74910334Y-80645000D01*
X74910334Y-80949800D01*
X70637100Y-80949800D01*
X70267734Y-81023271D01*
X70267732Y-81023272D01*
X70267733Y-81023272D01*
X69954600Y-81232501D01*
X69167501Y-82019601D01*
X68958271Y-82332734D01*
X68884800Y-82702100D01*
X68884800Y-83203434D01*
X68580000Y-83203434D01*
X68441252Y-83231033D01*
X68434118Y-83235800D01*
X67716100Y-83235800D01*
X67408015Y-83297082D01*
X67346733Y-83309271D01*
X67033600Y-83518501D01*
X66373501Y-84178601D01*
X66164271Y-84491734D01*
X66090800Y-84861100D01*
X66090800Y-93659942D01*
X65864890Y-93321843D01*
X65271584Y-92925409D01*
X64571733Y-92786200D01*
X62428267Y-92786200D01*
X61728416Y-92925409D01*
X61135110Y-93321843D01*
X60738676Y-93915149D01*
X60599467Y-94615000D01*
X60109100Y-94615000D01*
X60109100Y-82327477D01*
X60146840Y-82327477D01*
X60463259Y-83093270D01*
X61048648Y-83679682D01*
X61813888Y-83997437D01*
X62642477Y-83998160D01*
X63408270Y-83681741D01*
X63994682Y-83096352D01*
X64312437Y-82331112D01*
X64313160Y-81502523D01*
X63996741Y-80736730D01*
X63411352Y-80150318D01*
X62646112Y-79832563D01*
X61817523Y-79831840D01*
X61051730Y-80148259D01*
X60465318Y-80733648D01*
X60147563Y-81498888D01*
X60146840Y-82327477D01*
X60109100Y-82327477D01*
X60109100Y-79794100D01*
X143090900Y-79794100D01*
X143090900Y-119595900D01*
M02*
