G04 #@! TF.GenerationSoftware,KiCad,Pcbnew,no-vcs-found-7584~57~ubuntu16.04.1*
G04 #@! TF.CreationDate,2017-02-03T14:33:48-05:00*
G04 #@! TF.ProjectId,modular_device_base_3x2,6D6F64756C61725F6465766963655F62,1.2*
G04 #@! TF.FileFunction,Legend,Bot*
G04 #@! TF.FilePolarity,Positive*
%FSLAX46Y46*%
G04 Gerber Fmt 4.6, Leading zero omitted, Abs format (unit mm)*
G04 Created by KiCad (PCBNEW no-vcs-found-7584~57~ubuntu16.04.1) date Fri Feb  3 14:33:48 2017*
%MOMM*%
%LPD*%
G01*
G04 APERTURE LIST*
%ADD10C,0.100000*%
%ADD11C,0.254000*%
%ADD12C,0.228600*%
%ADD13C,0.190500*%
%ADD14C,0.150000*%
%ADD15C,0.127000*%
%ADD16C,0.381000*%
%ADD17C,0.158750*%
%ADD18R,2.900000X3.110000*%
%ADD19R,1.670000X2.940000*%
%ADD20R,2.940000X1.670000*%
%ADD21R,2.178000X4.591000*%
%ADD22C,1.600200*%
%ADD23R,2.997200X5.029200*%
%ADD24O,2.940000X1.924000*%
%ADD25O,5.480000X3.448000*%
%ADD26O,2.432000X1.924000*%
%ADD27O,1.924000X2.432000*%
%ADD28R,5.160000X4.000000*%
%ADD29R,1.640000X1.800000*%
%ADD30R,3.200000X2.800000*%
%ADD31C,2.400000*%
%ADD32C,2.600000*%
%ADD33C,3.956000*%
%ADD34O,2.254200X2.940000*%
%ADD35R,2.254200X2.940000*%
%ADD36R,1.924000X2.940000*%
%ADD37O,1.924000X2.940000*%
G04 APERTURE END LIST*
D10*
D11*
X112667142Y-89994619D02*
X112667142Y-88978619D01*
X112231714Y-89994619D02*
X112231714Y-89462428D01*
X112280095Y-89365666D01*
X112376857Y-89317285D01*
X112522000Y-89317285D01*
X112618761Y-89365666D01*
X112667142Y-89414047D01*
X111893047Y-89317285D02*
X111506000Y-89317285D01*
X111747904Y-88978619D02*
X111747904Y-89849476D01*
X111699523Y-89946238D01*
X111602761Y-89994619D01*
X111506000Y-89994619D01*
X111312476Y-89317285D02*
X110925428Y-89317285D01*
X111167333Y-88978619D02*
X111167333Y-89849476D01*
X111118952Y-89946238D01*
X111022190Y-89994619D01*
X110925428Y-89994619D01*
X110586761Y-89317285D02*
X110586761Y-90333285D01*
X110586761Y-89365666D02*
X110490000Y-89317285D01*
X110296476Y-89317285D01*
X110199714Y-89365666D01*
X110151333Y-89414047D01*
X110102952Y-89510809D01*
X110102952Y-89801095D01*
X110151333Y-89897857D01*
X110199714Y-89946238D01*
X110296476Y-89994619D01*
X110490000Y-89994619D01*
X110586761Y-89946238D01*
X109715904Y-89946238D02*
X109619142Y-89994619D01*
X109425619Y-89994619D01*
X109328857Y-89946238D01*
X109280476Y-89849476D01*
X109280476Y-89801095D01*
X109328857Y-89704333D01*
X109425619Y-89655952D01*
X109570761Y-89655952D01*
X109667523Y-89607571D01*
X109715904Y-89510809D01*
X109715904Y-89462428D01*
X109667523Y-89365666D01*
X109570761Y-89317285D01*
X109425619Y-89317285D01*
X109328857Y-89365666D01*
X108845047Y-89897857D02*
X108796666Y-89946238D01*
X108845047Y-89994619D01*
X108893428Y-89946238D01*
X108845047Y-89897857D01*
X108845047Y-89994619D01*
X108845047Y-89365666D02*
X108796666Y-89414047D01*
X108845047Y-89462428D01*
X108893428Y-89414047D01*
X108845047Y-89365666D01*
X108845047Y-89462428D01*
X107635523Y-88930238D02*
X108506380Y-90236523D01*
X106571142Y-88930238D02*
X107442000Y-90236523D01*
X105797047Y-89317285D02*
X105797047Y-90139761D01*
X105845428Y-90236523D01*
X105893809Y-90284904D01*
X105990571Y-90333285D01*
X106135714Y-90333285D01*
X106232476Y-90284904D01*
X105797047Y-89946238D02*
X105893809Y-89994619D01*
X106087333Y-89994619D01*
X106184095Y-89946238D01*
X106232476Y-89897857D01*
X106280857Y-89801095D01*
X106280857Y-89510809D01*
X106232476Y-89414047D01*
X106184095Y-89365666D01*
X106087333Y-89317285D01*
X105893809Y-89317285D01*
X105797047Y-89365666D01*
X105313238Y-89994619D02*
X105313238Y-89317285D01*
X105313238Y-88978619D02*
X105361619Y-89027000D01*
X105313238Y-89075380D01*
X105264857Y-89027000D01*
X105313238Y-88978619D01*
X105313238Y-89075380D01*
X104974571Y-89317285D02*
X104587523Y-89317285D01*
X104829428Y-88978619D02*
X104829428Y-89849476D01*
X104781047Y-89946238D01*
X104684285Y-89994619D01*
X104587523Y-89994619D01*
X104248857Y-89994619D02*
X104248857Y-88978619D01*
X103813428Y-89994619D02*
X103813428Y-89462428D01*
X103861809Y-89365666D01*
X103958571Y-89317285D01*
X104103714Y-89317285D01*
X104200476Y-89365666D01*
X104248857Y-89414047D01*
X102894190Y-89317285D02*
X102894190Y-89994619D01*
X103329619Y-89317285D02*
X103329619Y-89849476D01*
X103281238Y-89946238D01*
X103184476Y-89994619D01*
X103039333Y-89994619D01*
X102942571Y-89946238D01*
X102894190Y-89897857D01*
X102410380Y-89994619D02*
X102410380Y-88978619D01*
X102410380Y-89365666D02*
X102313619Y-89317285D01*
X102120095Y-89317285D01*
X102023333Y-89365666D01*
X101974952Y-89414047D01*
X101926571Y-89510809D01*
X101926571Y-89801095D01*
X101974952Y-89897857D01*
X102023333Y-89946238D01*
X102120095Y-89994619D01*
X102313619Y-89994619D01*
X102410380Y-89946238D01*
X101491142Y-89897857D02*
X101442761Y-89946238D01*
X101491142Y-89994619D01*
X101539523Y-89946238D01*
X101491142Y-89897857D01*
X101491142Y-89994619D01*
X100571904Y-89946238D02*
X100668666Y-89994619D01*
X100862190Y-89994619D01*
X100958952Y-89946238D01*
X101007333Y-89897857D01*
X101055714Y-89801095D01*
X101055714Y-89510809D01*
X101007333Y-89414047D01*
X100958952Y-89365666D01*
X100862190Y-89317285D01*
X100668666Y-89317285D01*
X100571904Y-89365666D01*
X99991333Y-89994619D02*
X100088095Y-89946238D01*
X100136476Y-89897857D01*
X100184857Y-89801095D01*
X100184857Y-89510809D01*
X100136476Y-89414047D01*
X100088095Y-89365666D01*
X99991333Y-89317285D01*
X99846190Y-89317285D01*
X99749428Y-89365666D01*
X99701047Y-89414047D01*
X99652666Y-89510809D01*
X99652666Y-89801095D01*
X99701047Y-89897857D01*
X99749428Y-89946238D01*
X99846190Y-89994619D01*
X99991333Y-89994619D01*
X99217238Y-89994619D02*
X99217238Y-89317285D01*
X99217238Y-89414047D02*
X99168857Y-89365666D01*
X99072095Y-89317285D01*
X98926952Y-89317285D01*
X98830190Y-89365666D01*
X98781809Y-89462428D01*
X98781809Y-89994619D01*
X98781809Y-89462428D02*
X98733428Y-89365666D01*
X98636666Y-89317285D01*
X98491523Y-89317285D01*
X98394761Y-89365666D01*
X98346380Y-89462428D01*
X98346380Y-89994619D01*
X97136857Y-88930238D02*
X98007714Y-90236523D01*
X96798190Y-89317285D02*
X96798190Y-90188142D01*
X96846571Y-90284904D01*
X96943333Y-90333285D01*
X96991714Y-90333285D01*
X96798190Y-88978619D02*
X96846571Y-89027000D01*
X96798190Y-89075380D01*
X96749809Y-89027000D01*
X96798190Y-88978619D01*
X96798190Y-89075380D01*
X95878952Y-89994619D02*
X95878952Y-89462428D01*
X95927333Y-89365666D01*
X96024095Y-89317285D01*
X96217619Y-89317285D01*
X96314380Y-89365666D01*
X95878952Y-89946238D02*
X95975714Y-89994619D01*
X96217619Y-89994619D01*
X96314380Y-89946238D01*
X96362761Y-89849476D01*
X96362761Y-89752714D01*
X96314380Y-89655952D01*
X96217619Y-89607571D01*
X95975714Y-89607571D01*
X95878952Y-89559190D01*
X95395142Y-89317285D02*
X95395142Y-89994619D01*
X95395142Y-89414047D02*
X95346761Y-89365666D01*
X95250000Y-89317285D01*
X95104857Y-89317285D01*
X95008095Y-89365666D01*
X94959714Y-89462428D01*
X94959714Y-89994619D01*
X94088857Y-89946238D02*
X94185619Y-89994619D01*
X94379142Y-89994619D01*
X94475904Y-89946238D01*
X94524285Y-89849476D01*
X94524285Y-89462428D01*
X94475904Y-89365666D01*
X94379142Y-89317285D01*
X94185619Y-89317285D01*
X94088857Y-89365666D01*
X94040476Y-89462428D01*
X94040476Y-89559190D01*
X94524285Y-89655952D01*
X93459904Y-89994619D02*
X93556666Y-89946238D01*
X93605047Y-89849476D01*
X93605047Y-88978619D01*
X93072857Y-89994619D02*
X93072857Y-89317285D01*
X93072857Y-88978619D02*
X93121238Y-89027000D01*
X93072857Y-89075380D01*
X93024476Y-89027000D01*
X93072857Y-88978619D01*
X93072857Y-89075380D01*
X92153619Y-89994619D02*
X92153619Y-89462428D01*
X92202000Y-89365666D01*
X92298761Y-89317285D01*
X92492285Y-89317285D01*
X92589047Y-89365666D01*
X92153619Y-89946238D02*
X92250380Y-89994619D01*
X92492285Y-89994619D01*
X92589047Y-89946238D01*
X92637428Y-89849476D01*
X92637428Y-89752714D01*
X92589047Y-89655952D01*
X92492285Y-89607571D01*
X92250380Y-89607571D01*
X92153619Y-89559190D01*
X91669809Y-89607571D02*
X90895714Y-89607571D01*
X90411904Y-89994619D02*
X90411904Y-89317285D01*
X90411904Y-89414047D02*
X90363523Y-89365666D01*
X90266761Y-89317285D01*
X90121619Y-89317285D01*
X90024857Y-89365666D01*
X89976476Y-89462428D01*
X89976476Y-89994619D01*
X89976476Y-89462428D02*
X89928095Y-89365666D01*
X89831333Y-89317285D01*
X89686190Y-89317285D01*
X89589428Y-89365666D01*
X89541047Y-89462428D01*
X89541047Y-89994619D01*
X88912095Y-89994619D02*
X89008857Y-89946238D01*
X89057238Y-89897857D01*
X89105619Y-89801095D01*
X89105619Y-89510809D01*
X89057238Y-89414047D01*
X89008857Y-89365666D01*
X88912095Y-89317285D01*
X88766952Y-89317285D01*
X88670190Y-89365666D01*
X88621809Y-89414047D01*
X88573428Y-89510809D01*
X88573428Y-89801095D01*
X88621809Y-89897857D01*
X88670190Y-89946238D01*
X88766952Y-89994619D01*
X88912095Y-89994619D01*
X87702571Y-89994619D02*
X87702571Y-88978619D01*
X87702571Y-89946238D02*
X87799333Y-89994619D01*
X87992857Y-89994619D01*
X88089619Y-89946238D01*
X88138000Y-89897857D01*
X88186380Y-89801095D01*
X88186380Y-89510809D01*
X88138000Y-89414047D01*
X88089619Y-89365666D01*
X87992857Y-89317285D01*
X87799333Y-89317285D01*
X87702571Y-89365666D01*
X86783333Y-89317285D02*
X86783333Y-89994619D01*
X87218761Y-89317285D02*
X87218761Y-89849476D01*
X87170380Y-89946238D01*
X87073619Y-89994619D01*
X86928476Y-89994619D01*
X86831714Y-89946238D01*
X86783333Y-89897857D01*
X86154380Y-89994619D02*
X86251142Y-89946238D01*
X86299523Y-89849476D01*
X86299523Y-88978619D01*
X85331904Y-89994619D02*
X85331904Y-89462428D01*
X85380285Y-89365666D01*
X85477047Y-89317285D01*
X85670571Y-89317285D01*
X85767333Y-89365666D01*
X85331904Y-89946238D02*
X85428666Y-89994619D01*
X85670571Y-89994619D01*
X85767333Y-89946238D01*
X85815714Y-89849476D01*
X85815714Y-89752714D01*
X85767333Y-89655952D01*
X85670571Y-89607571D01*
X85428666Y-89607571D01*
X85331904Y-89559190D01*
X84848095Y-89994619D02*
X84848095Y-89317285D01*
X84848095Y-89510809D02*
X84799714Y-89414047D01*
X84751333Y-89365666D01*
X84654571Y-89317285D01*
X84557809Y-89317285D01*
X84219142Y-89607571D02*
X83445047Y-89607571D01*
X82525809Y-89994619D02*
X82525809Y-88978619D01*
X82525809Y-89946238D02*
X82622571Y-89994619D01*
X82816095Y-89994619D01*
X82912857Y-89946238D01*
X82961238Y-89897857D01*
X83009619Y-89801095D01*
X83009619Y-89510809D01*
X82961238Y-89414047D01*
X82912857Y-89365666D01*
X82816095Y-89317285D01*
X82622571Y-89317285D01*
X82525809Y-89365666D01*
X81654952Y-89946238D02*
X81751714Y-89994619D01*
X81945238Y-89994619D01*
X82042000Y-89946238D01*
X82090380Y-89849476D01*
X82090380Y-89462428D01*
X82042000Y-89365666D01*
X81945238Y-89317285D01*
X81751714Y-89317285D01*
X81654952Y-89365666D01*
X81606571Y-89462428D01*
X81606571Y-89559190D01*
X82090380Y-89655952D01*
X81267904Y-89317285D02*
X81026000Y-89994619D01*
X80784095Y-89317285D01*
X80397047Y-89994619D02*
X80397047Y-89317285D01*
X80397047Y-88978619D02*
X80445428Y-89027000D01*
X80397047Y-89075380D01*
X80348666Y-89027000D01*
X80397047Y-88978619D01*
X80397047Y-89075380D01*
X79477809Y-89946238D02*
X79574571Y-89994619D01*
X79768095Y-89994619D01*
X79864857Y-89946238D01*
X79913238Y-89897857D01*
X79961619Y-89801095D01*
X79961619Y-89510809D01*
X79913238Y-89414047D01*
X79864857Y-89365666D01*
X79768095Y-89317285D01*
X79574571Y-89317285D01*
X79477809Y-89365666D01*
X78655333Y-89946238D02*
X78752095Y-89994619D01*
X78945619Y-89994619D01*
X79042380Y-89946238D01*
X79090761Y-89849476D01*
X79090761Y-89462428D01*
X79042380Y-89365666D01*
X78945619Y-89317285D01*
X78752095Y-89317285D01*
X78655333Y-89365666D01*
X78606952Y-89462428D01*
X78606952Y-89559190D01*
X79090761Y-89655952D01*
X78219904Y-89946238D02*
X78123142Y-89994619D01*
X77929619Y-89994619D01*
X77832857Y-89946238D01*
X77784476Y-89849476D01*
X77784476Y-89801095D01*
X77832857Y-89704333D01*
X77929619Y-89655952D01*
X78074761Y-89655952D01*
X78171523Y-89607571D01*
X78219904Y-89510809D01*
X78219904Y-89462428D01*
X78171523Y-89365666D01*
X78074761Y-89317285D01*
X77929619Y-89317285D01*
X77832857Y-89365666D01*
D12*
X143510000Y-79375000D02*
X59690000Y-79375000D01*
X143510000Y-120015000D02*
X143510000Y-79375000D01*
X59690000Y-120015000D02*
X143510000Y-120015000D01*
D11*
X103644095Y-109425619D02*
X103644095Y-110151333D01*
X103692476Y-110296476D01*
X103789238Y-110393238D01*
X103934380Y-110441619D01*
X104031142Y-110441619D01*
X102724857Y-110441619D02*
X102724857Y-109909428D01*
X102773238Y-109812666D01*
X102870000Y-109764285D01*
X103063523Y-109764285D01*
X103160285Y-109812666D01*
X102724857Y-110393238D02*
X102821619Y-110441619D01*
X103063523Y-110441619D01*
X103160285Y-110393238D01*
X103208666Y-110296476D01*
X103208666Y-110199714D01*
X103160285Y-110102952D01*
X103063523Y-110054571D01*
X102821619Y-110054571D01*
X102724857Y-110006190D01*
X102241047Y-109764285D02*
X102241047Y-110441619D01*
X102241047Y-109861047D02*
X102192666Y-109812666D01*
X102095904Y-109764285D01*
X101950761Y-109764285D01*
X101854000Y-109812666D01*
X101805619Y-109909428D01*
X101805619Y-110441619D01*
X100934761Y-110393238D02*
X101031523Y-110441619D01*
X101225047Y-110441619D01*
X101321809Y-110393238D01*
X101370190Y-110296476D01*
X101370190Y-109909428D01*
X101321809Y-109812666D01*
X101225047Y-109764285D01*
X101031523Y-109764285D01*
X100934761Y-109812666D01*
X100886380Y-109909428D01*
X100886380Y-110006190D01*
X101370190Y-110102952D01*
X100305809Y-110441619D02*
X100402571Y-110393238D01*
X100450952Y-110296476D01*
X100450952Y-109425619D01*
X99918761Y-110441619D02*
X99918761Y-109764285D01*
X99918761Y-109425619D02*
X99967142Y-109474000D01*
X99918761Y-109522380D01*
X99870380Y-109474000D01*
X99918761Y-109425619D01*
X99918761Y-109522380D01*
X98999523Y-110441619D02*
X98999523Y-109909428D01*
X99047904Y-109812666D01*
X99144666Y-109764285D01*
X99338190Y-109764285D01*
X99434952Y-109812666D01*
X98999523Y-110393238D02*
X99096285Y-110441619D01*
X99338190Y-110441619D01*
X99434952Y-110393238D01*
X99483333Y-110296476D01*
X99483333Y-110199714D01*
X99434952Y-110102952D01*
X99338190Y-110054571D01*
X99096285Y-110054571D01*
X98999523Y-110006190D01*
X97741619Y-110441619D02*
X97741619Y-109425619D01*
X97402952Y-110151333D01*
X97064285Y-109425619D01*
X97064285Y-110441619D01*
X96435333Y-110441619D02*
X96532095Y-110393238D01*
X96580476Y-110344857D01*
X96628857Y-110248095D01*
X96628857Y-109957809D01*
X96580476Y-109861047D01*
X96532095Y-109812666D01*
X96435333Y-109764285D01*
X96290190Y-109764285D01*
X96193428Y-109812666D01*
X96145047Y-109861047D01*
X96096666Y-109957809D01*
X96096666Y-110248095D01*
X96145047Y-110344857D01*
X96193428Y-110393238D01*
X96290190Y-110441619D01*
X96435333Y-110441619D01*
X95225809Y-110441619D02*
X95225809Y-109425619D01*
X95225809Y-110393238D02*
X95322571Y-110441619D01*
X95516095Y-110441619D01*
X95612857Y-110393238D01*
X95661238Y-110344857D01*
X95709619Y-110248095D01*
X95709619Y-109957809D01*
X95661238Y-109861047D01*
X95612857Y-109812666D01*
X95516095Y-109764285D01*
X95322571Y-109764285D01*
X95225809Y-109812666D01*
X94306571Y-109764285D02*
X94306571Y-110441619D01*
X94742000Y-109764285D02*
X94742000Y-110296476D01*
X94693619Y-110393238D01*
X94596857Y-110441619D01*
X94451714Y-110441619D01*
X94354952Y-110393238D01*
X94306571Y-110344857D01*
X93677619Y-110441619D02*
X93774380Y-110393238D01*
X93822761Y-110296476D01*
X93822761Y-109425619D01*
X92855142Y-110441619D02*
X92855142Y-109909428D01*
X92903523Y-109812666D01*
X93000285Y-109764285D01*
X93193809Y-109764285D01*
X93290571Y-109812666D01*
X92855142Y-110393238D02*
X92951904Y-110441619D01*
X93193809Y-110441619D01*
X93290571Y-110393238D01*
X93338952Y-110296476D01*
X93338952Y-110199714D01*
X93290571Y-110102952D01*
X93193809Y-110054571D01*
X92951904Y-110054571D01*
X92855142Y-110006190D01*
X92371333Y-110441619D02*
X92371333Y-109764285D01*
X92371333Y-109957809D02*
X92322952Y-109861047D01*
X92274571Y-109812666D01*
X92177809Y-109764285D01*
X92081047Y-109764285D01*
X90968285Y-110441619D02*
X90968285Y-109425619D01*
X90726380Y-109425619D01*
X90581238Y-109474000D01*
X90484476Y-109570761D01*
X90436095Y-109667523D01*
X90387714Y-109861047D01*
X90387714Y-110006190D01*
X90436095Y-110199714D01*
X90484476Y-110296476D01*
X90581238Y-110393238D01*
X90726380Y-110441619D01*
X90968285Y-110441619D01*
X89565238Y-110393238D02*
X89662000Y-110441619D01*
X89855523Y-110441619D01*
X89952285Y-110393238D01*
X90000666Y-110296476D01*
X90000666Y-109909428D01*
X89952285Y-109812666D01*
X89855523Y-109764285D01*
X89662000Y-109764285D01*
X89565238Y-109812666D01*
X89516857Y-109909428D01*
X89516857Y-110006190D01*
X90000666Y-110102952D01*
X89178190Y-109764285D02*
X88936285Y-110441619D01*
X88694380Y-109764285D01*
X88307333Y-110441619D02*
X88307333Y-109764285D01*
X88307333Y-109425619D02*
X88355714Y-109474000D01*
X88307333Y-109522380D01*
X88258952Y-109474000D01*
X88307333Y-109425619D01*
X88307333Y-109522380D01*
X87388095Y-110393238D02*
X87484857Y-110441619D01*
X87678380Y-110441619D01*
X87775142Y-110393238D01*
X87823523Y-110344857D01*
X87871904Y-110248095D01*
X87871904Y-109957809D01*
X87823523Y-109861047D01*
X87775142Y-109812666D01*
X87678380Y-109764285D01*
X87484857Y-109764285D01*
X87388095Y-109812666D01*
X86565619Y-110393238D02*
X86662380Y-110441619D01*
X86855904Y-110441619D01*
X86952666Y-110393238D01*
X87001047Y-110296476D01*
X87001047Y-109909428D01*
X86952666Y-109812666D01*
X86855904Y-109764285D01*
X86662380Y-109764285D01*
X86565619Y-109812666D01*
X86517238Y-109909428D01*
X86517238Y-110006190D01*
X87001047Y-110102952D01*
X103039333Y-112219619D02*
X103039333Y-111542285D01*
X103039333Y-111639047D02*
X102990952Y-111590666D01*
X102894190Y-111542285D01*
X102749047Y-111542285D01*
X102652285Y-111590666D01*
X102603904Y-111687428D01*
X102603904Y-112219619D01*
X102603904Y-111687428D02*
X102555523Y-111590666D01*
X102458761Y-111542285D01*
X102313619Y-111542285D01*
X102216857Y-111590666D01*
X102168476Y-111687428D01*
X102168476Y-112219619D01*
X101539523Y-112219619D02*
X101636285Y-112171238D01*
X101684666Y-112122857D01*
X101733047Y-112026095D01*
X101733047Y-111735809D01*
X101684666Y-111639047D01*
X101636285Y-111590666D01*
X101539523Y-111542285D01*
X101394380Y-111542285D01*
X101297619Y-111590666D01*
X101249238Y-111639047D01*
X101200857Y-111735809D01*
X101200857Y-112026095D01*
X101249238Y-112122857D01*
X101297619Y-112171238D01*
X101394380Y-112219619D01*
X101539523Y-112219619D01*
X100330000Y-112219619D02*
X100330000Y-111203619D01*
X100330000Y-112171238D02*
X100426761Y-112219619D01*
X100620285Y-112219619D01*
X100717047Y-112171238D01*
X100765428Y-112122857D01*
X100813809Y-112026095D01*
X100813809Y-111735809D01*
X100765428Y-111639047D01*
X100717047Y-111590666D01*
X100620285Y-111542285D01*
X100426761Y-111542285D01*
X100330000Y-111590666D01*
X99410761Y-111542285D02*
X99410761Y-112219619D01*
X99846190Y-111542285D02*
X99846190Y-112074476D01*
X99797809Y-112171238D01*
X99701047Y-112219619D01*
X99555904Y-112219619D01*
X99459142Y-112171238D01*
X99410761Y-112122857D01*
X98781809Y-112219619D02*
X98878571Y-112171238D01*
X98926952Y-112074476D01*
X98926952Y-111203619D01*
X97959333Y-112219619D02*
X97959333Y-111687428D01*
X98007714Y-111590666D01*
X98104476Y-111542285D01*
X98298000Y-111542285D01*
X98394761Y-111590666D01*
X97959333Y-112171238D02*
X98056095Y-112219619D01*
X98298000Y-112219619D01*
X98394761Y-112171238D01*
X98443142Y-112074476D01*
X98443142Y-111977714D01*
X98394761Y-111880952D01*
X98298000Y-111832571D01*
X98056095Y-111832571D01*
X97959333Y-111784190D01*
X97475523Y-112219619D02*
X97475523Y-111542285D01*
X97475523Y-111735809D02*
X97427142Y-111639047D01*
X97378761Y-111590666D01*
X97282000Y-111542285D01*
X97185238Y-111542285D01*
X97088476Y-112316380D02*
X96314380Y-112316380D01*
X95637047Y-112219619D02*
X95637047Y-111203619D01*
X95637047Y-112171238D02*
X95733809Y-112219619D01*
X95927333Y-112219619D01*
X96024095Y-112171238D01*
X96072476Y-112122857D01*
X96120857Y-112026095D01*
X96120857Y-111735809D01*
X96072476Y-111639047D01*
X96024095Y-111590666D01*
X95927333Y-111542285D01*
X95733809Y-111542285D01*
X95637047Y-111590666D01*
X94766190Y-112171238D02*
X94862952Y-112219619D01*
X95056476Y-112219619D01*
X95153238Y-112171238D01*
X95201619Y-112074476D01*
X95201619Y-111687428D01*
X95153238Y-111590666D01*
X95056476Y-111542285D01*
X94862952Y-111542285D01*
X94766190Y-111590666D01*
X94717809Y-111687428D01*
X94717809Y-111784190D01*
X95201619Y-111880952D01*
X94379142Y-111542285D02*
X94137238Y-112219619D01*
X93895333Y-111542285D01*
X93508285Y-112219619D02*
X93508285Y-111542285D01*
X93508285Y-111203619D02*
X93556666Y-111252000D01*
X93508285Y-111300380D01*
X93459904Y-111252000D01*
X93508285Y-111203619D01*
X93508285Y-111300380D01*
X92589047Y-112171238D02*
X92685809Y-112219619D01*
X92879333Y-112219619D01*
X92976095Y-112171238D01*
X93024476Y-112122857D01*
X93072857Y-112026095D01*
X93072857Y-111735809D01*
X93024476Y-111639047D01*
X92976095Y-111590666D01*
X92879333Y-111542285D01*
X92685809Y-111542285D01*
X92589047Y-111590666D01*
X91766571Y-112171238D02*
X91863333Y-112219619D01*
X92056857Y-112219619D01*
X92153619Y-112171238D01*
X92202000Y-112074476D01*
X92202000Y-111687428D01*
X92153619Y-111590666D01*
X92056857Y-111542285D01*
X91863333Y-111542285D01*
X91766571Y-111590666D01*
X91718190Y-111687428D01*
X91718190Y-111784190D01*
X92202000Y-111880952D01*
X91524666Y-112316380D02*
X90750571Y-112316380D01*
X90508666Y-112219619D02*
X90508666Y-111203619D01*
X90508666Y-111590666D02*
X90411904Y-111542285D01*
X90218380Y-111542285D01*
X90121619Y-111590666D01*
X90073238Y-111639047D01*
X90024857Y-111735809D01*
X90024857Y-112026095D01*
X90073238Y-112122857D01*
X90121619Y-112171238D01*
X90218380Y-112219619D01*
X90411904Y-112219619D01*
X90508666Y-112171238D01*
X89154000Y-112219619D02*
X89154000Y-111687428D01*
X89202380Y-111590666D01*
X89299142Y-111542285D01*
X89492666Y-111542285D01*
X89589428Y-111590666D01*
X89154000Y-112171238D02*
X89250761Y-112219619D01*
X89492666Y-112219619D01*
X89589428Y-112171238D01*
X89637809Y-112074476D01*
X89637809Y-111977714D01*
X89589428Y-111880952D01*
X89492666Y-111832571D01*
X89250761Y-111832571D01*
X89154000Y-111784190D01*
X88718571Y-112171238D02*
X88621809Y-112219619D01*
X88428285Y-112219619D01*
X88331523Y-112171238D01*
X88283142Y-112074476D01*
X88283142Y-112026095D01*
X88331523Y-111929333D01*
X88428285Y-111880952D01*
X88573428Y-111880952D01*
X88670190Y-111832571D01*
X88718571Y-111735809D01*
X88718571Y-111687428D01*
X88670190Y-111590666D01*
X88573428Y-111542285D01*
X88428285Y-111542285D01*
X88331523Y-111590666D01*
X87460666Y-112171238D02*
X87557428Y-112219619D01*
X87750952Y-112219619D01*
X87847714Y-112171238D01*
X87896095Y-112074476D01*
X87896095Y-111687428D01*
X87847714Y-111590666D01*
X87750952Y-111542285D01*
X87557428Y-111542285D01*
X87460666Y-111590666D01*
X87412285Y-111687428D01*
X87412285Y-111784190D01*
X87896095Y-111880952D01*
X110998000Y-113320285D02*
X110998000Y-114336285D01*
X110998000Y-113368666D02*
X110901238Y-113320285D01*
X110707714Y-113320285D01*
X110610952Y-113368666D01*
X110562571Y-113417047D01*
X110514190Y-113513809D01*
X110514190Y-113804095D01*
X110562571Y-113900857D01*
X110610952Y-113949238D01*
X110707714Y-113997619D01*
X110901238Y-113997619D01*
X110998000Y-113949238D01*
X109643333Y-113997619D02*
X109643333Y-113465428D01*
X109691714Y-113368666D01*
X109788476Y-113320285D01*
X109982000Y-113320285D01*
X110078761Y-113368666D01*
X109643333Y-113949238D02*
X109740095Y-113997619D01*
X109982000Y-113997619D01*
X110078761Y-113949238D01*
X110127142Y-113852476D01*
X110127142Y-113755714D01*
X110078761Y-113658952D01*
X109982000Y-113610571D01*
X109740095Y-113610571D01*
X109643333Y-113562190D01*
X109159523Y-113997619D02*
X109159523Y-113320285D01*
X109159523Y-113513809D02*
X109111142Y-113417047D01*
X109062761Y-113368666D01*
X108966000Y-113320285D01*
X108869238Y-113320285D01*
X108675714Y-113320285D02*
X108288666Y-113320285D01*
X108530571Y-112981619D02*
X108530571Y-113852476D01*
X108482190Y-113949238D01*
X108385428Y-113997619D01*
X108288666Y-113997619D01*
X108191904Y-114094380D02*
X107417809Y-114094380D01*
X107175904Y-113320285D02*
X107175904Y-113997619D01*
X107175904Y-113417047D02*
X107127523Y-113368666D01*
X107030761Y-113320285D01*
X106885619Y-113320285D01*
X106788857Y-113368666D01*
X106740476Y-113465428D01*
X106740476Y-113997619D01*
X105821238Y-113320285D02*
X105821238Y-113997619D01*
X106256666Y-113320285D02*
X106256666Y-113852476D01*
X106208285Y-113949238D01*
X106111523Y-113997619D01*
X105966380Y-113997619D01*
X105869619Y-113949238D01*
X105821238Y-113900857D01*
X105337428Y-113997619D02*
X105337428Y-113320285D01*
X105337428Y-113417047D02*
X105289047Y-113368666D01*
X105192285Y-113320285D01*
X105047142Y-113320285D01*
X104950380Y-113368666D01*
X104902000Y-113465428D01*
X104902000Y-113997619D01*
X104902000Y-113465428D02*
X104853619Y-113368666D01*
X104756857Y-113320285D01*
X104611714Y-113320285D01*
X104514952Y-113368666D01*
X104466571Y-113465428D01*
X104466571Y-113997619D01*
X103982761Y-113997619D02*
X103982761Y-112981619D01*
X103982761Y-113368666D02*
X103886000Y-113320285D01*
X103692476Y-113320285D01*
X103595714Y-113368666D01*
X103547333Y-113417047D01*
X103498952Y-113513809D01*
X103498952Y-113804095D01*
X103547333Y-113900857D01*
X103595714Y-113949238D01*
X103692476Y-113997619D01*
X103886000Y-113997619D01*
X103982761Y-113949238D01*
X102676476Y-113949238D02*
X102773238Y-113997619D01*
X102966761Y-113997619D01*
X103063523Y-113949238D01*
X103111904Y-113852476D01*
X103111904Y-113465428D01*
X103063523Y-113368666D01*
X102966761Y-113320285D01*
X102773238Y-113320285D01*
X102676476Y-113368666D01*
X102628095Y-113465428D01*
X102628095Y-113562190D01*
X103111904Y-113658952D01*
X102192666Y-113997619D02*
X102192666Y-113320285D01*
X102192666Y-113513809D02*
X102144285Y-113417047D01*
X102095904Y-113368666D01*
X101999142Y-113320285D01*
X101902380Y-113320285D01*
X101563714Y-113900857D02*
X101515333Y-113949238D01*
X101563714Y-113997619D01*
X101612095Y-113949238D01*
X101563714Y-113900857D01*
X101563714Y-113997619D01*
X101563714Y-113368666D02*
X101515333Y-113417047D01*
X101563714Y-113465428D01*
X101612095Y-113417047D01*
X101563714Y-113368666D01*
X101563714Y-113465428D01*
X99773619Y-113997619D02*
X100354190Y-113997619D01*
X100063904Y-113997619D02*
X100063904Y-112981619D01*
X100160666Y-113126761D01*
X100257428Y-113223523D01*
X100354190Y-113271904D01*
X99144666Y-112981619D02*
X99047904Y-112981619D01*
X98951142Y-113030000D01*
X98902761Y-113078380D01*
X98854380Y-113175142D01*
X98806000Y-113368666D01*
X98806000Y-113610571D01*
X98854380Y-113804095D01*
X98902761Y-113900857D01*
X98951142Y-113949238D01*
X99047904Y-113997619D01*
X99144666Y-113997619D01*
X99241428Y-113949238D01*
X99289809Y-113900857D01*
X99338190Y-113804095D01*
X99386571Y-113610571D01*
X99386571Y-113368666D01*
X99338190Y-113175142D01*
X99289809Y-113078380D01*
X99241428Y-113030000D01*
X99144666Y-112981619D01*
X98177047Y-112981619D02*
X98080285Y-112981619D01*
X97983523Y-113030000D01*
X97935142Y-113078380D01*
X97886761Y-113175142D01*
X97838380Y-113368666D01*
X97838380Y-113610571D01*
X97886761Y-113804095D01*
X97935142Y-113900857D01*
X97983523Y-113949238D01*
X98080285Y-113997619D01*
X98177047Y-113997619D01*
X98273809Y-113949238D01*
X98322190Y-113900857D01*
X98370571Y-113804095D01*
X98418952Y-113610571D01*
X98418952Y-113368666D01*
X98370571Y-113175142D01*
X98322190Y-113078380D01*
X98273809Y-113030000D01*
X98177047Y-112981619D01*
X96870761Y-113997619D02*
X97451333Y-113997619D01*
X97161047Y-113997619D02*
X97161047Y-112981619D01*
X97257809Y-113126761D01*
X97354571Y-113223523D01*
X97451333Y-113271904D01*
X95467714Y-112981619D02*
X95370952Y-112981619D01*
X95274190Y-113030000D01*
X95225809Y-113078380D01*
X95177428Y-113175142D01*
X95129047Y-113368666D01*
X95129047Y-113610571D01*
X95177428Y-113804095D01*
X95225809Y-113900857D01*
X95274190Y-113949238D01*
X95370952Y-113997619D01*
X95467714Y-113997619D01*
X95564476Y-113949238D01*
X95612857Y-113900857D01*
X95661238Y-113804095D01*
X95709619Y-113610571D01*
X95709619Y-113368666D01*
X95661238Y-113175142D01*
X95612857Y-113078380D01*
X95564476Y-113030000D01*
X95467714Y-112981619D01*
X94742000Y-113078380D02*
X94693619Y-113030000D01*
X94596857Y-112981619D01*
X94354952Y-112981619D01*
X94258190Y-113030000D01*
X94209809Y-113078380D01*
X94161428Y-113175142D01*
X94161428Y-113271904D01*
X94209809Y-113417047D01*
X94790380Y-113997619D01*
X94161428Y-113997619D01*
X93000285Y-112933238D02*
X93871142Y-114239523D01*
X92710000Y-113078380D02*
X92661619Y-113030000D01*
X92564857Y-112981619D01*
X92322952Y-112981619D01*
X92226190Y-113030000D01*
X92177809Y-113078380D01*
X92129428Y-113175142D01*
X92129428Y-113271904D01*
X92177809Y-113417047D01*
X92758380Y-113997619D01*
X92129428Y-113997619D01*
X91500476Y-112981619D02*
X91403714Y-112981619D01*
X91306952Y-113030000D01*
X91258571Y-113078380D01*
X91210190Y-113175142D01*
X91161809Y-113368666D01*
X91161809Y-113610571D01*
X91210190Y-113804095D01*
X91258571Y-113900857D01*
X91306952Y-113949238D01*
X91403714Y-113997619D01*
X91500476Y-113997619D01*
X91597238Y-113949238D01*
X91645619Y-113900857D01*
X91694000Y-113804095D01*
X91742380Y-113610571D01*
X91742380Y-113368666D01*
X91694000Y-113175142D01*
X91645619Y-113078380D01*
X91597238Y-113030000D01*
X91500476Y-112981619D01*
X90194190Y-113997619D02*
X90774761Y-113997619D01*
X90484476Y-113997619D02*
X90484476Y-112981619D01*
X90581238Y-113126761D01*
X90678000Y-113223523D01*
X90774761Y-113271904D01*
X89855523Y-112981619D02*
X89178190Y-112981619D01*
X89613619Y-113997619D01*
X88113809Y-113320285D02*
X87871904Y-113997619D01*
X87630000Y-113320285D01*
X86855904Y-113949238D02*
X86952666Y-113997619D01*
X87146190Y-113997619D01*
X87242952Y-113949238D01*
X87291333Y-113852476D01*
X87291333Y-113465428D01*
X87242952Y-113368666D01*
X87146190Y-113320285D01*
X86952666Y-113320285D01*
X86855904Y-113368666D01*
X86807523Y-113465428D01*
X86807523Y-113562190D01*
X87291333Y-113658952D01*
X86372095Y-113997619D02*
X86372095Y-113320285D01*
X86372095Y-113513809D02*
X86323714Y-113417047D01*
X86275333Y-113368666D01*
X86178571Y-113320285D01*
X86081809Y-113320285D01*
X84436857Y-113997619D02*
X85017428Y-113997619D01*
X84727142Y-113997619D02*
X84727142Y-112981619D01*
X84823904Y-113126761D01*
X84920666Y-113223523D01*
X85017428Y-113271904D01*
X84001428Y-113900857D02*
X83953047Y-113949238D01*
X84001428Y-113997619D01*
X84049809Y-113949238D01*
X84001428Y-113900857D01*
X84001428Y-113997619D01*
X83566000Y-113078380D02*
X83517619Y-113030000D01*
X83420857Y-112981619D01*
X83178952Y-112981619D01*
X83082190Y-113030000D01*
X83033809Y-113078380D01*
X82985428Y-113175142D01*
X82985428Y-113271904D01*
X83033809Y-113417047D01*
X83614380Y-113997619D01*
X82985428Y-113997619D01*
X81872666Y-112981619D02*
X81243714Y-112981619D01*
X81582380Y-113368666D01*
X81437238Y-113368666D01*
X81340476Y-113417047D01*
X81292095Y-113465428D01*
X81243714Y-113562190D01*
X81243714Y-113804095D01*
X81292095Y-113900857D01*
X81340476Y-113949238D01*
X81437238Y-113997619D01*
X81727523Y-113997619D01*
X81824285Y-113949238D01*
X81872666Y-113900857D01*
X80905047Y-113997619D02*
X80372857Y-113320285D01*
X80905047Y-113320285D02*
X80372857Y-113997619D01*
X80034190Y-113078380D02*
X79985809Y-113030000D01*
X79889047Y-112981619D01*
X79647142Y-112981619D01*
X79550380Y-113030000D01*
X79502000Y-113078380D01*
X79453619Y-113175142D01*
X79453619Y-113271904D01*
X79502000Y-113417047D01*
X80082571Y-113997619D01*
X79453619Y-113997619D01*
D13*
X142929428Y-84690857D02*
X142929428Y-85271428D01*
X143219714Y-84981142D02*
X142639142Y-84981142D01*
X143219714Y-85670571D02*
X143219714Y-85815714D01*
X143183428Y-85888285D01*
X143147142Y-85924571D01*
X143038285Y-85997142D01*
X142893142Y-86033428D01*
X142602857Y-86033428D01*
X142530285Y-85997142D01*
X142494000Y-85960857D01*
X142457714Y-85888285D01*
X142457714Y-85743142D01*
X142494000Y-85670571D01*
X142530285Y-85634285D01*
X142602857Y-85598000D01*
X142784285Y-85598000D01*
X142856857Y-85634285D01*
X142893142Y-85670571D01*
X142929428Y-85743142D01*
X142929428Y-85888285D01*
X142893142Y-85960857D01*
X142856857Y-85997142D01*
X142784285Y-86033428D01*
X142929428Y-86360000D02*
X142929428Y-86940571D01*
X142711714Y-87630000D02*
X143219714Y-87630000D01*
X142421428Y-87448571D02*
X142965714Y-87267142D01*
X142965714Y-87738857D01*
X142530285Y-87992857D02*
X142494000Y-88029142D01*
X142457714Y-88101714D01*
X142457714Y-88283142D01*
X142494000Y-88355714D01*
X142530285Y-88392000D01*
X142602857Y-88428285D01*
X142675428Y-88428285D01*
X142784285Y-88392000D01*
X143219714Y-87956571D01*
X143219714Y-88428285D01*
X142457714Y-88646000D02*
X143219714Y-88900000D01*
X142457714Y-89154000D01*
X143219714Y-89408000D02*
X142457714Y-89408000D01*
X142457714Y-89589428D01*
X142494000Y-89698285D01*
X142566571Y-89770857D01*
X142639142Y-89807142D01*
X142784285Y-89843428D01*
X142893142Y-89843428D01*
X143038285Y-89807142D01*
X143110857Y-89770857D01*
X143183428Y-89698285D01*
X143219714Y-89589428D01*
X143219714Y-89408000D01*
X143147142Y-90605428D02*
X143183428Y-90569142D01*
X143219714Y-90460285D01*
X143219714Y-90387714D01*
X143183428Y-90278857D01*
X143110857Y-90206285D01*
X143038285Y-90170000D01*
X142893142Y-90133714D01*
X142784285Y-90133714D01*
X142639142Y-90170000D01*
X142566571Y-90206285D01*
X142494000Y-90278857D01*
X142457714Y-90387714D01*
X142457714Y-90460285D01*
X142494000Y-90569142D01*
X142530285Y-90605428D01*
D11*
X141556619Y-81056238D02*
X141411476Y-81104619D01*
X141169571Y-81104619D01*
X141072809Y-81056238D01*
X141024428Y-81007857D01*
X140976047Y-80911095D01*
X140976047Y-80814333D01*
X141024428Y-80717571D01*
X141072809Y-80669190D01*
X141169571Y-80620809D01*
X141363095Y-80572428D01*
X141459857Y-80524047D01*
X141508238Y-80475666D01*
X141556619Y-80378904D01*
X141556619Y-80282142D01*
X141508238Y-80185380D01*
X141459857Y-80137000D01*
X141363095Y-80088619D01*
X141121190Y-80088619D01*
X140976047Y-80137000D01*
X140153571Y-81056238D02*
X140250333Y-81104619D01*
X140443857Y-81104619D01*
X140540619Y-81056238D01*
X140589000Y-80959476D01*
X140589000Y-80572428D01*
X140540619Y-80475666D01*
X140443857Y-80427285D01*
X140250333Y-80427285D01*
X140153571Y-80475666D01*
X140105190Y-80572428D01*
X140105190Y-80669190D01*
X140589000Y-80765952D01*
X139669761Y-81104619D02*
X139669761Y-80427285D01*
X139669761Y-80620809D02*
X139621380Y-80524047D01*
X139573000Y-80475666D01*
X139476238Y-80427285D01*
X139379476Y-80427285D01*
X139040809Y-81104619D02*
X139040809Y-80427285D01*
X139040809Y-80088619D02*
X139089190Y-80137000D01*
X139040809Y-80185380D01*
X138992428Y-80137000D01*
X139040809Y-80088619D01*
X139040809Y-80185380D01*
X138121571Y-81104619D02*
X138121571Y-80572428D01*
X138169952Y-80475666D01*
X138266714Y-80427285D01*
X138460238Y-80427285D01*
X138557000Y-80475666D01*
X138121571Y-81056238D02*
X138218333Y-81104619D01*
X138460238Y-81104619D01*
X138557000Y-81056238D01*
X138605380Y-80959476D01*
X138605380Y-80862714D01*
X138557000Y-80765952D01*
X138460238Y-80717571D01*
X138218333Y-80717571D01*
X138121571Y-80669190D01*
X137492619Y-81104619D02*
X137589380Y-81056238D01*
X137637761Y-80959476D01*
X137637761Y-80088619D01*
X136573380Y-81104619D02*
X137153952Y-81104619D01*
X136863666Y-81104619D02*
X136863666Y-80088619D01*
X136960428Y-80233761D01*
X137057190Y-80330523D01*
X137153952Y-80378904D01*
X141556619Y-119156238D02*
X141411476Y-119204619D01*
X141169571Y-119204619D01*
X141072809Y-119156238D01*
X141024428Y-119107857D01*
X140976047Y-119011095D01*
X140976047Y-118914333D01*
X141024428Y-118817571D01*
X141072809Y-118769190D01*
X141169571Y-118720809D01*
X141363095Y-118672428D01*
X141459857Y-118624047D01*
X141508238Y-118575666D01*
X141556619Y-118478904D01*
X141556619Y-118382142D01*
X141508238Y-118285380D01*
X141459857Y-118237000D01*
X141363095Y-118188619D01*
X141121190Y-118188619D01*
X140976047Y-118237000D01*
X140153571Y-119156238D02*
X140250333Y-119204619D01*
X140443857Y-119204619D01*
X140540619Y-119156238D01*
X140589000Y-119059476D01*
X140589000Y-118672428D01*
X140540619Y-118575666D01*
X140443857Y-118527285D01*
X140250333Y-118527285D01*
X140153571Y-118575666D01*
X140105190Y-118672428D01*
X140105190Y-118769190D01*
X140589000Y-118865952D01*
X139669761Y-119204619D02*
X139669761Y-118527285D01*
X139669761Y-118720809D02*
X139621380Y-118624047D01*
X139573000Y-118575666D01*
X139476238Y-118527285D01*
X139379476Y-118527285D01*
X139040809Y-119204619D02*
X139040809Y-118527285D01*
X139040809Y-118188619D02*
X139089190Y-118237000D01*
X139040809Y-118285380D01*
X138992428Y-118237000D01*
X139040809Y-118188619D01*
X139040809Y-118285380D01*
X138121571Y-119204619D02*
X138121571Y-118672428D01*
X138169952Y-118575666D01*
X138266714Y-118527285D01*
X138460238Y-118527285D01*
X138557000Y-118575666D01*
X138121571Y-119156238D02*
X138218333Y-119204619D01*
X138460238Y-119204619D01*
X138557000Y-119156238D01*
X138605380Y-119059476D01*
X138605380Y-118962714D01*
X138557000Y-118865952D01*
X138460238Y-118817571D01*
X138218333Y-118817571D01*
X138121571Y-118769190D01*
X137492619Y-119204619D02*
X137589380Y-119156238D01*
X137637761Y-119059476D01*
X137637761Y-118188619D01*
X137202333Y-118188619D02*
X136573380Y-118188619D01*
X136912047Y-118575666D01*
X136766904Y-118575666D01*
X136670142Y-118624047D01*
X136621761Y-118672428D01*
X136573380Y-118769190D01*
X136573380Y-119011095D01*
X136621761Y-119107857D01*
X136670142Y-119156238D01*
X136766904Y-119204619D01*
X137057190Y-119204619D01*
X137153952Y-119156238D01*
X137202333Y-119107857D01*
D13*
X141260285Y-82767714D02*
X141224000Y-82804000D01*
X141187714Y-82876571D01*
X141187714Y-83058000D01*
X141224000Y-83130571D01*
X141260285Y-83166857D01*
X141332857Y-83203142D01*
X141405428Y-83203142D01*
X141514285Y-83166857D01*
X141949714Y-82731428D01*
X141949714Y-83203142D01*
X141877142Y-83529714D02*
X141913428Y-83566000D01*
X141949714Y-83529714D01*
X141913428Y-83493428D01*
X141877142Y-83529714D01*
X141949714Y-83529714D01*
X141187714Y-84255428D02*
X141187714Y-83892571D01*
X141550571Y-83856285D01*
X141514285Y-83892571D01*
X141478000Y-83965142D01*
X141478000Y-84146571D01*
X141514285Y-84219142D01*
X141550571Y-84255428D01*
X141623142Y-84291714D01*
X141804571Y-84291714D01*
X141877142Y-84255428D01*
X141913428Y-84219142D01*
X141949714Y-84146571D01*
X141949714Y-83965142D01*
X141913428Y-83892571D01*
X141877142Y-83856285D01*
X141949714Y-84545714D02*
X141441714Y-84944857D01*
X141441714Y-84545714D02*
X141949714Y-84944857D01*
X141187714Y-85598000D02*
X141187714Y-85235142D01*
X141550571Y-85198857D01*
X141514285Y-85235142D01*
X141478000Y-85307714D01*
X141478000Y-85489142D01*
X141514285Y-85561714D01*
X141550571Y-85598000D01*
X141623142Y-85634285D01*
X141804571Y-85634285D01*
X141877142Y-85598000D01*
X141913428Y-85561714D01*
X141949714Y-85489142D01*
X141949714Y-85307714D01*
X141913428Y-85235142D01*
X141877142Y-85198857D01*
X141877142Y-85960857D02*
X141913428Y-85997142D01*
X141949714Y-85960857D01*
X141913428Y-85924571D01*
X141877142Y-85960857D01*
X141949714Y-85960857D01*
X141187714Y-86686571D02*
X141187714Y-86323714D01*
X141550571Y-86287428D01*
X141514285Y-86323714D01*
X141478000Y-86396285D01*
X141478000Y-86577714D01*
X141514285Y-86650285D01*
X141550571Y-86686571D01*
X141623142Y-86722857D01*
X141804571Y-86722857D01*
X141877142Y-86686571D01*
X141913428Y-86650285D01*
X141949714Y-86577714D01*
X141949714Y-86396285D01*
X141913428Y-86323714D01*
X141877142Y-86287428D01*
X141877142Y-88065428D02*
X141913428Y-88029142D01*
X141949714Y-87920285D01*
X141949714Y-87847714D01*
X141913428Y-87738857D01*
X141840857Y-87666285D01*
X141768285Y-87630000D01*
X141623142Y-87593714D01*
X141514285Y-87593714D01*
X141369142Y-87630000D01*
X141296571Y-87666285D01*
X141224000Y-87738857D01*
X141187714Y-87847714D01*
X141187714Y-87920285D01*
X141224000Y-88029142D01*
X141260285Y-88065428D01*
X141913428Y-88682285D02*
X141949714Y-88609714D01*
X141949714Y-88464571D01*
X141913428Y-88392000D01*
X141840857Y-88355714D01*
X141550571Y-88355714D01*
X141478000Y-88392000D01*
X141441714Y-88464571D01*
X141441714Y-88609714D01*
X141478000Y-88682285D01*
X141550571Y-88718571D01*
X141623142Y-88718571D01*
X141695714Y-88355714D01*
X141441714Y-89045142D02*
X141949714Y-89045142D01*
X141514285Y-89045142D02*
X141478000Y-89081428D01*
X141441714Y-89154000D01*
X141441714Y-89262857D01*
X141478000Y-89335428D01*
X141550571Y-89371714D01*
X141949714Y-89371714D01*
X141441714Y-89625714D02*
X141441714Y-89916000D01*
X141187714Y-89734571D02*
X141840857Y-89734571D01*
X141913428Y-89770857D01*
X141949714Y-89843428D01*
X141949714Y-89916000D01*
X141913428Y-90460285D02*
X141949714Y-90387714D01*
X141949714Y-90242571D01*
X141913428Y-90170000D01*
X141840857Y-90133714D01*
X141550571Y-90133714D01*
X141478000Y-90170000D01*
X141441714Y-90242571D01*
X141441714Y-90387714D01*
X141478000Y-90460285D01*
X141550571Y-90496571D01*
X141623142Y-90496571D01*
X141695714Y-90133714D01*
X141949714Y-90823142D02*
X141441714Y-90823142D01*
X141586857Y-90823142D02*
X141514285Y-90859428D01*
X141478000Y-90895714D01*
X141441714Y-90968285D01*
X141441714Y-91040857D01*
X141659428Y-91875428D02*
X141659428Y-92456000D01*
X141949714Y-92165714D02*
X141369142Y-92165714D01*
D11*
X142651238Y-107363380D02*
X142699619Y-107508523D01*
X142699619Y-107750428D01*
X142651238Y-107847190D01*
X142602857Y-107895571D01*
X142506095Y-107943952D01*
X142409333Y-107943952D01*
X142312571Y-107895571D01*
X142264190Y-107847190D01*
X142215809Y-107750428D01*
X142167428Y-107556904D01*
X142119047Y-107460142D01*
X142070666Y-107411761D01*
X141973904Y-107363380D01*
X141877142Y-107363380D01*
X141780380Y-107411761D01*
X141732000Y-107460142D01*
X141683619Y-107556904D01*
X141683619Y-107798809D01*
X141732000Y-107943952D01*
X142651238Y-108766428D02*
X142699619Y-108669666D01*
X142699619Y-108476142D01*
X142651238Y-108379380D01*
X142554476Y-108331000D01*
X142167428Y-108331000D01*
X142070666Y-108379380D01*
X142022285Y-108476142D01*
X142022285Y-108669666D01*
X142070666Y-108766428D01*
X142167428Y-108814809D01*
X142264190Y-108814809D01*
X142360952Y-108331000D01*
X142699619Y-109250238D02*
X142022285Y-109250238D01*
X142215809Y-109250238D02*
X142119047Y-109298619D01*
X142070666Y-109347000D01*
X142022285Y-109443761D01*
X142022285Y-109540523D01*
X142699619Y-109879190D02*
X142022285Y-109879190D01*
X141683619Y-109879190D02*
X141732000Y-109830809D01*
X141780380Y-109879190D01*
X141732000Y-109927571D01*
X141683619Y-109879190D01*
X141780380Y-109879190D01*
X142699619Y-110798428D02*
X142167428Y-110798428D01*
X142070666Y-110750047D01*
X142022285Y-110653285D01*
X142022285Y-110459761D01*
X142070666Y-110363000D01*
X142651238Y-110798428D02*
X142699619Y-110701666D01*
X142699619Y-110459761D01*
X142651238Y-110363000D01*
X142554476Y-110314619D01*
X142457714Y-110314619D01*
X142360952Y-110363000D01*
X142312571Y-110459761D01*
X142312571Y-110701666D01*
X142264190Y-110798428D01*
X142699619Y-111427380D02*
X142651238Y-111330619D01*
X142554476Y-111282238D01*
X141683619Y-111282238D01*
X141780380Y-111766047D02*
X141732000Y-111814428D01*
X141683619Y-111911190D01*
X141683619Y-112153095D01*
X141732000Y-112249857D01*
X141780380Y-112298238D01*
X141877142Y-112346619D01*
X141973904Y-112346619D01*
X142119047Y-112298238D01*
X142699619Y-111717666D01*
X142699619Y-112346619D01*
D12*
X59690000Y-79375000D02*
X59690000Y-120015000D01*
D14*
X73705000Y-115915000D02*
X73705000Y-111415000D01*
X69805000Y-111415000D02*
X69805000Y-115915000D01*
X70205000Y-112465000D02*
X69805000Y-112465000D01*
X70205000Y-112315000D02*
X70205000Y-112465000D01*
X69805000Y-112315000D02*
X70205000Y-112315000D01*
X73305000Y-112465000D02*
X73705000Y-112465000D01*
X73305000Y-112315000D02*
X73305000Y-112465000D01*
X73705000Y-112315000D02*
X73305000Y-112315000D01*
X69805000Y-115915000D02*
X70205000Y-115915000D01*
X73705000Y-115915000D02*
X73305000Y-115915000D01*
X73705000Y-111415000D02*
X73305000Y-111415000D01*
X69805000Y-111415000D02*
X70205000Y-111415000D01*
D15*
X67818000Y-108077000D02*
X66294000Y-108077000D01*
X66294000Y-108077000D02*
X66294000Y-105283000D01*
X66294000Y-105283000D02*
X67818000Y-105283000D01*
X69342000Y-105283000D02*
X70866000Y-105283000D01*
X70866000Y-105283000D02*
X70866000Y-108077000D01*
X70866000Y-108077000D02*
X69342000Y-108077000D01*
X64262000Y-111252000D02*
X64262000Y-112776000D01*
X64262000Y-112776000D02*
X61468000Y-112776000D01*
X61468000Y-112776000D02*
X61468000Y-111252000D01*
X61468000Y-109728000D02*
X61468000Y-108204000D01*
X61468000Y-108204000D02*
X64262000Y-108204000D01*
X64262000Y-108204000D02*
X64262000Y-109728000D01*
D16*
X133985000Y-74930000D02*
X121285000Y-74930000D01*
X121285000Y-74930000D02*
X121285000Y-88900000D01*
X133985000Y-74930000D02*
X133985000Y-88900000D01*
X133985000Y-88900000D02*
X121285000Y-88900000D01*
X121285000Y-124460000D02*
X133985000Y-124460000D01*
X133985000Y-124460000D02*
X133985000Y-110490000D01*
X121285000Y-124460000D02*
X121285000Y-110490000D01*
X121285000Y-110490000D02*
X133985000Y-110490000D01*
D12*
X67885000Y-101995000D02*
X67885000Y-97395000D01*
X67885000Y-97395000D02*
X60385000Y-97395000D01*
X60385000Y-97395000D02*
X60385000Y-101995000D01*
X60385000Y-101995000D02*
X67885000Y-101995000D01*
D15*
X68453000Y-84963000D02*
X68453000Y-83439000D01*
X68453000Y-83439000D02*
X71247000Y-83439000D01*
X71247000Y-83439000D02*
X71247000Y-84963000D01*
X71247000Y-86487000D02*
X71247000Y-88011000D01*
X71247000Y-88011000D02*
X68453000Y-88011000D01*
X68453000Y-88011000D02*
X68453000Y-86487000D01*
X75057000Y-105283000D02*
X76581000Y-105283000D01*
X76581000Y-105283000D02*
X76581000Y-108077000D01*
X76581000Y-108077000D02*
X75057000Y-108077000D01*
X73533000Y-108077000D02*
X72009000Y-108077000D01*
X72009000Y-108077000D02*
X72009000Y-105283000D01*
X72009000Y-105283000D02*
X73533000Y-105283000D01*
D16*
X133604000Y-104140000D02*
X133604000Y-101600000D01*
X133604000Y-101600000D02*
X131445000Y-101600000D01*
X146431000Y-96774000D02*
X143256000Y-96774000D01*
X143256000Y-96774000D02*
X143256000Y-102616000D01*
X143256000Y-102616000D02*
X146431000Y-102616000D01*
X146430000Y-95195000D02*
X146430000Y-104195000D01*
X146430000Y-104195000D02*
X131430000Y-104195000D01*
X131430000Y-104195000D02*
X131430000Y-95195000D01*
X131430000Y-95195000D02*
X146430000Y-95195000D01*
D12*
X64490600Y-81915000D02*
G75*
G03X64490600Y-81915000I-2260600J0D01*
G01*
X64490600Y-117475000D02*
G75*
G03X64490600Y-117475000I-2260600J0D01*
G01*
X120370600Y-99695000D02*
G75*
G03X120370600Y-99695000I-2260600J0D01*
G01*
D16*
X109855000Y-99695000D02*
G75*
G03X109855000Y-99695000I-1270000J0D01*
G01*
X109855000Y-97155000D02*
X109855000Y-102235000D01*
X109855000Y-102235000D02*
X107315000Y-102235000D01*
X107315000Y-102235000D02*
X107315000Y-97155000D01*
X107315000Y-97155000D02*
X109855000Y-97155000D01*
X77470000Y-95885000D02*
X76200000Y-95885000D01*
X76200000Y-95885000D02*
X76200000Y-103505000D01*
X76200000Y-103505000D02*
X77470000Y-103505000D01*
X77470000Y-90805000D02*
X113030000Y-90805000D01*
X113030000Y-90805000D02*
X113030000Y-108585000D01*
X113030000Y-108585000D02*
X77470000Y-108585000D01*
X77470000Y-108585000D02*
X77470000Y-90805000D01*
D11*
X72504904Y-118569619D02*
X72504904Y-117553619D01*
X72263000Y-117553619D01*
X72117857Y-117602000D01*
X72021095Y-117698761D01*
X71972714Y-117795523D01*
X71924333Y-117989047D01*
X71924333Y-118134190D01*
X71972714Y-118327714D01*
X72021095Y-118424476D01*
X72117857Y-118521238D01*
X72263000Y-118569619D01*
X72504904Y-118569619D01*
X71537285Y-117650380D02*
X71488904Y-117602000D01*
X71392142Y-117553619D01*
X71150238Y-117553619D01*
X71053476Y-117602000D01*
X71005095Y-117650380D01*
X70956714Y-117747142D01*
X70956714Y-117843904D01*
X71005095Y-117989047D01*
X71585666Y-118569619D01*
X70956714Y-118569619D01*
X68749333Y-109328857D02*
X68797714Y-109377238D01*
X68942857Y-109425619D01*
X69039619Y-109425619D01*
X69184761Y-109377238D01*
X69281523Y-109280476D01*
X69329904Y-109183714D01*
X69378285Y-108990190D01*
X69378285Y-108845047D01*
X69329904Y-108651523D01*
X69281523Y-108554761D01*
X69184761Y-108458000D01*
X69039619Y-108409619D01*
X68942857Y-108409619D01*
X68797714Y-108458000D01*
X68749333Y-108506380D01*
X67781714Y-109425619D02*
X68362285Y-109425619D01*
X68072000Y-109425619D02*
X68072000Y-108409619D01*
X68168761Y-108554761D01*
X68265523Y-108651523D01*
X68362285Y-108699904D01*
X69668571Y-104853619D02*
X70249142Y-104853619D01*
X69958857Y-104853619D02*
X69958857Y-103837619D01*
X70055619Y-103982761D01*
X70152380Y-104079523D01*
X70249142Y-104127904D01*
X69039619Y-103837619D02*
X68942857Y-103837619D01*
X68846095Y-103886000D01*
X68797714Y-103934380D01*
X68749333Y-104031142D01*
X68700952Y-104224666D01*
X68700952Y-104466571D01*
X68749333Y-104660095D01*
X68797714Y-104756857D01*
X68846095Y-104805238D01*
X68942857Y-104853619D01*
X69039619Y-104853619D01*
X69136380Y-104805238D01*
X69184761Y-104756857D01*
X69233142Y-104660095D01*
X69281523Y-104466571D01*
X69281523Y-104224666D01*
X69233142Y-104031142D01*
X69184761Y-103934380D01*
X69136380Y-103886000D01*
X69039619Y-103837619D01*
X67830095Y-104176285D02*
X67830095Y-104853619D01*
X68265523Y-104176285D02*
X68265523Y-104708476D01*
X68217142Y-104805238D01*
X68120380Y-104853619D01*
X67975238Y-104853619D01*
X67878476Y-104805238D01*
X67830095Y-104756857D01*
X67007619Y-104321428D02*
X67346285Y-104321428D01*
X67346285Y-104853619D02*
X67346285Y-103837619D01*
X66862476Y-103837619D01*
X65513857Y-110320666D02*
X65562238Y-110272285D01*
X65610619Y-110127142D01*
X65610619Y-110030380D01*
X65562238Y-109885238D01*
X65465476Y-109788476D01*
X65368714Y-109740095D01*
X65175190Y-109691714D01*
X65030047Y-109691714D01*
X64836523Y-109740095D01*
X64739761Y-109788476D01*
X64643000Y-109885238D01*
X64594619Y-110030380D01*
X64594619Y-110127142D01*
X64643000Y-110272285D01*
X64691380Y-110320666D01*
X64691380Y-110707714D02*
X64643000Y-110756095D01*
X64594619Y-110852857D01*
X64594619Y-111094761D01*
X64643000Y-111191523D01*
X64691380Y-111239904D01*
X64788142Y-111288285D01*
X64884904Y-111288285D01*
X65030047Y-111239904D01*
X65610619Y-110659333D01*
X65610619Y-111288285D01*
X61038619Y-109401428D02*
X61038619Y-108820857D01*
X61038619Y-109111142D02*
X60022619Y-109111142D01*
X60167761Y-109014380D01*
X60264523Y-108917619D01*
X60312904Y-108820857D01*
X60022619Y-110030380D02*
X60022619Y-110127142D01*
X60071000Y-110223904D01*
X60119380Y-110272285D01*
X60216142Y-110320666D01*
X60409666Y-110369047D01*
X60651571Y-110369047D01*
X60845095Y-110320666D01*
X60941857Y-110272285D01*
X60990238Y-110223904D01*
X61038619Y-110127142D01*
X61038619Y-110030380D01*
X60990238Y-109933619D01*
X60941857Y-109885238D01*
X60845095Y-109836857D01*
X60651571Y-109788476D01*
X60409666Y-109788476D01*
X60216142Y-109836857D01*
X60119380Y-109885238D01*
X60071000Y-109933619D01*
X60022619Y-110030380D01*
X60361285Y-111239904D02*
X61038619Y-111239904D01*
X60361285Y-110804476D02*
X60893476Y-110804476D01*
X60990238Y-110852857D01*
X61038619Y-110949619D01*
X61038619Y-111094761D01*
X60990238Y-111191523D01*
X60941857Y-111239904D01*
X60506428Y-112062380D02*
X60506428Y-111723714D01*
X61038619Y-111723714D02*
X60022619Y-111723714D01*
X60022619Y-112207523D01*
X134099904Y-90629619D02*
X134099904Y-89613619D01*
X133712857Y-89613619D01*
X133616095Y-89662000D01*
X133567714Y-89710380D01*
X133519333Y-89807142D01*
X133519333Y-89952285D01*
X133567714Y-90049047D01*
X133616095Y-90097428D01*
X133712857Y-90145809D01*
X134099904Y-90145809D01*
X133132285Y-89710380D02*
X133083904Y-89662000D01*
X132987142Y-89613619D01*
X132745238Y-89613619D01*
X132648476Y-89662000D01*
X132600095Y-89710380D01*
X132551714Y-89807142D01*
X132551714Y-89903904D01*
X132600095Y-90049047D01*
X133180666Y-90629619D01*
X132551714Y-90629619D01*
X122669904Y-109679619D02*
X122669904Y-108663619D01*
X122282857Y-108663619D01*
X122186095Y-108712000D01*
X122137714Y-108760380D01*
X122089333Y-108857142D01*
X122089333Y-109002285D01*
X122137714Y-109099047D01*
X122186095Y-109147428D01*
X122282857Y-109195809D01*
X122669904Y-109195809D01*
X121218476Y-109002285D02*
X121218476Y-109679619D01*
X121460380Y-108615238D02*
X121702285Y-109340952D01*
X121073333Y-109340952D01*
X68059904Y-96979619D02*
X68059904Y-95963619D01*
X67818000Y-95963619D01*
X67672857Y-96012000D01*
X67576095Y-96108761D01*
X67527714Y-96205523D01*
X67479333Y-96399047D01*
X67479333Y-96544190D01*
X67527714Y-96737714D01*
X67576095Y-96834476D01*
X67672857Y-96931238D01*
X67818000Y-96979619D01*
X68059904Y-96979619D01*
X67140666Y-95963619D02*
X66511714Y-95963619D01*
X66850380Y-96350666D01*
X66705238Y-96350666D01*
X66608476Y-96399047D01*
X66560095Y-96447428D01*
X66511714Y-96544190D01*
X66511714Y-96786095D01*
X66560095Y-96882857D01*
X66608476Y-96931238D01*
X66705238Y-96979619D01*
X66995523Y-96979619D01*
X67092285Y-96931238D01*
X67140666Y-96882857D01*
X67926857Y-85555666D02*
X67975238Y-85507285D01*
X68023619Y-85362142D01*
X68023619Y-85265380D01*
X67975238Y-85120238D01*
X67878476Y-85023476D01*
X67781714Y-84975095D01*
X67588190Y-84926714D01*
X67443047Y-84926714D01*
X67249523Y-84975095D01*
X67152761Y-85023476D01*
X67056000Y-85120238D01*
X67007619Y-85265380D01*
X67007619Y-85362142D01*
X67056000Y-85507285D01*
X67104380Y-85555666D01*
X67007619Y-85894333D02*
X67007619Y-86523285D01*
X67394666Y-86184619D01*
X67394666Y-86329761D01*
X67443047Y-86426523D01*
X67491428Y-86474904D01*
X67588190Y-86523285D01*
X67830095Y-86523285D01*
X67926857Y-86474904D01*
X67975238Y-86426523D01*
X68023619Y-86329761D01*
X68023619Y-86039476D01*
X67975238Y-85942714D01*
X67926857Y-85894333D01*
X72595619Y-84636428D02*
X72595619Y-84055857D01*
X72595619Y-84346142D02*
X71579619Y-84346142D01*
X71724761Y-84249380D01*
X71821523Y-84152619D01*
X71869904Y-84055857D01*
X71579619Y-85265380D02*
X71579619Y-85362142D01*
X71628000Y-85458904D01*
X71676380Y-85507285D01*
X71773142Y-85555666D01*
X71966666Y-85604047D01*
X72208571Y-85604047D01*
X72402095Y-85555666D01*
X72498857Y-85507285D01*
X72547238Y-85458904D01*
X72595619Y-85362142D01*
X72595619Y-85265380D01*
X72547238Y-85168619D01*
X72498857Y-85120238D01*
X72402095Y-85071857D01*
X72208571Y-85023476D01*
X71966666Y-85023476D01*
X71773142Y-85071857D01*
X71676380Y-85120238D01*
X71628000Y-85168619D01*
X71579619Y-85265380D01*
X71918285Y-86474904D02*
X72595619Y-86474904D01*
X71918285Y-86039476D02*
X72450476Y-86039476D01*
X72547238Y-86087857D01*
X72595619Y-86184619D01*
X72595619Y-86329761D01*
X72547238Y-86426523D01*
X72498857Y-86474904D01*
X72063428Y-87297380D02*
X72063428Y-86958714D01*
X72595619Y-86958714D02*
X71579619Y-86958714D01*
X71579619Y-87442523D01*
X74464333Y-104756857D02*
X74512714Y-104805238D01*
X74657857Y-104853619D01*
X74754619Y-104853619D01*
X74899761Y-104805238D01*
X74996523Y-104708476D01*
X75044904Y-104611714D01*
X75093285Y-104418190D01*
X75093285Y-104273047D01*
X75044904Y-104079523D01*
X74996523Y-103982761D01*
X74899761Y-103886000D01*
X74754619Y-103837619D01*
X74657857Y-103837619D01*
X74512714Y-103886000D01*
X74464333Y-103934380D01*
X73593476Y-104176285D02*
X73593476Y-104853619D01*
X73835380Y-103789238D02*
X74077285Y-104514952D01*
X73448333Y-104514952D01*
X75383571Y-109425619D02*
X75964142Y-109425619D01*
X75673857Y-109425619D02*
X75673857Y-108409619D01*
X75770619Y-108554761D01*
X75867380Y-108651523D01*
X75964142Y-108699904D01*
X74754619Y-108409619D02*
X74657857Y-108409619D01*
X74561095Y-108458000D01*
X74512714Y-108506380D01*
X74464333Y-108603142D01*
X74415952Y-108796666D01*
X74415952Y-109038571D01*
X74464333Y-109232095D01*
X74512714Y-109328857D01*
X74561095Y-109377238D01*
X74657857Y-109425619D01*
X74754619Y-109425619D01*
X74851380Y-109377238D01*
X74899761Y-109328857D01*
X74948142Y-109232095D01*
X74996523Y-109038571D01*
X74996523Y-108796666D01*
X74948142Y-108603142D01*
X74899761Y-108506380D01*
X74851380Y-108458000D01*
X74754619Y-108409619D01*
X73545095Y-108748285D02*
X73545095Y-109425619D01*
X73980523Y-108748285D02*
X73980523Y-109280476D01*
X73932142Y-109377238D01*
X73835380Y-109425619D01*
X73690238Y-109425619D01*
X73593476Y-109377238D01*
X73545095Y-109328857D01*
X72722619Y-108893428D02*
X73061285Y-108893428D01*
X73061285Y-109425619D02*
X73061285Y-108409619D01*
X72577476Y-108409619D01*
X146179904Y-105654619D02*
X146179904Y-104638619D01*
X145792857Y-104638619D01*
X145696095Y-104687000D01*
X145647714Y-104735380D01*
X145599333Y-104832142D01*
X145599333Y-104977285D01*
X145647714Y-105074047D01*
X145696095Y-105122428D01*
X145792857Y-105170809D01*
X146179904Y-105170809D01*
X144631714Y-105654619D02*
X145212285Y-105654619D01*
X144922000Y-105654619D02*
X144922000Y-104638619D01*
X145018761Y-104783761D01*
X145115523Y-104880523D01*
X145212285Y-104928904D01*
D17*
X115055952Y-115222261D02*
X115055952Y-114587261D01*
X114904761Y-114587261D01*
X114814047Y-114617500D01*
X114753571Y-114677976D01*
X114723333Y-114738452D01*
X114693095Y-114859404D01*
X114693095Y-114950119D01*
X114723333Y-115071071D01*
X114753571Y-115131547D01*
X114814047Y-115192023D01*
X114904761Y-115222261D01*
X115055952Y-115222261D01*
X114451190Y-115040833D02*
X114148809Y-115040833D01*
X114511666Y-115222261D02*
X114300000Y-114587261D01*
X114088333Y-115222261D01*
X113513809Y-115161785D02*
X113544047Y-115192023D01*
X113634761Y-115222261D01*
X113695238Y-115222261D01*
X113785952Y-115192023D01*
X113846428Y-115131547D01*
X113876666Y-115071071D01*
X113906904Y-114950119D01*
X113906904Y-114859404D01*
X113876666Y-114738452D01*
X113846428Y-114677976D01*
X113785952Y-114617500D01*
X113695238Y-114587261D01*
X113634761Y-114587261D01*
X113544047Y-114617500D01*
X113513809Y-114647738D01*
D13*
X111905142Y-115279714D02*
X112340571Y-115279714D01*
X112122857Y-115279714D02*
X112122857Y-114517714D01*
X112195428Y-114626571D01*
X112268000Y-114699142D01*
X112340571Y-114735428D01*
X111651142Y-114517714D02*
X111179428Y-114517714D01*
X111433428Y-114808000D01*
X111324571Y-114808000D01*
X111252000Y-114844285D01*
X111215714Y-114880571D01*
X111179428Y-114953142D01*
X111179428Y-115134571D01*
X111215714Y-115207142D01*
X111252000Y-115243428D01*
X111324571Y-115279714D01*
X111542285Y-115279714D01*
X111614857Y-115243428D01*
X111651142Y-115207142D01*
X109365142Y-115279714D02*
X109800571Y-115279714D01*
X109582857Y-115279714D02*
X109582857Y-114517714D01*
X109655428Y-114626571D01*
X109728000Y-114699142D01*
X109800571Y-114735428D01*
X108712000Y-114771714D02*
X108712000Y-115279714D01*
X108893428Y-114481428D02*
X109074857Y-115025714D01*
X108603142Y-115025714D01*
X106825142Y-115279714D02*
X107260571Y-115279714D01*
X107042857Y-115279714D02*
X107042857Y-114517714D01*
X107115428Y-114626571D01*
X107188000Y-114699142D01*
X107260571Y-114735428D01*
X106135714Y-114517714D02*
X106498571Y-114517714D01*
X106534857Y-114880571D01*
X106498571Y-114844285D01*
X106426000Y-114808000D01*
X106244571Y-114808000D01*
X106172000Y-114844285D01*
X106135714Y-114880571D01*
X106099428Y-114953142D01*
X106099428Y-115134571D01*
X106135714Y-115207142D01*
X106172000Y-115243428D01*
X106244571Y-115279714D01*
X106426000Y-115279714D01*
X106498571Y-115243428D01*
X106534857Y-115207142D01*
X104285142Y-115279714D02*
X104720571Y-115279714D01*
X104502857Y-115279714D02*
X104502857Y-114517714D01*
X104575428Y-114626571D01*
X104648000Y-114699142D01*
X104720571Y-114735428D01*
X103632000Y-114517714D02*
X103777142Y-114517714D01*
X103849714Y-114554000D01*
X103886000Y-114590285D01*
X103958571Y-114699142D01*
X103994857Y-114844285D01*
X103994857Y-115134571D01*
X103958571Y-115207142D01*
X103922285Y-115243428D01*
X103849714Y-115279714D01*
X103704571Y-115279714D01*
X103632000Y-115243428D01*
X103595714Y-115207142D01*
X103559428Y-115134571D01*
X103559428Y-114953142D01*
X103595714Y-114880571D01*
X103632000Y-114844285D01*
X103704571Y-114808000D01*
X103849714Y-114808000D01*
X103922285Y-114844285D01*
X103958571Y-114880571D01*
X103994857Y-114953142D01*
X101745142Y-115279714D02*
X102180571Y-115279714D01*
X101962857Y-115279714D02*
X101962857Y-114517714D01*
X102035428Y-114626571D01*
X102108000Y-114699142D01*
X102180571Y-114735428D01*
X101491142Y-114517714D02*
X100983142Y-114517714D01*
X101309714Y-115279714D01*
X99205142Y-115279714D02*
X99640571Y-115279714D01*
X99422857Y-115279714D02*
X99422857Y-114517714D01*
X99495428Y-114626571D01*
X99568000Y-114699142D01*
X99640571Y-114735428D01*
X98769714Y-114844285D02*
X98842285Y-114808000D01*
X98878571Y-114771714D01*
X98914857Y-114699142D01*
X98914857Y-114662857D01*
X98878571Y-114590285D01*
X98842285Y-114554000D01*
X98769714Y-114517714D01*
X98624571Y-114517714D01*
X98552000Y-114554000D01*
X98515714Y-114590285D01*
X98479428Y-114662857D01*
X98479428Y-114699142D01*
X98515714Y-114771714D01*
X98552000Y-114808000D01*
X98624571Y-114844285D01*
X98769714Y-114844285D01*
X98842285Y-114880571D01*
X98878571Y-114916857D01*
X98914857Y-114989428D01*
X98914857Y-115134571D01*
X98878571Y-115207142D01*
X98842285Y-115243428D01*
X98769714Y-115279714D01*
X98624571Y-115279714D01*
X98552000Y-115243428D01*
X98515714Y-115207142D01*
X98479428Y-115134571D01*
X98479428Y-114989428D01*
X98515714Y-114916857D01*
X98552000Y-114880571D01*
X98624571Y-114844285D01*
X96665142Y-115279714D02*
X97100571Y-115279714D01*
X96882857Y-115279714D02*
X96882857Y-114517714D01*
X96955428Y-114626571D01*
X97028000Y-114699142D01*
X97100571Y-114735428D01*
X96302285Y-115279714D02*
X96157142Y-115279714D01*
X96084571Y-115243428D01*
X96048285Y-115207142D01*
X95975714Y-115098285D01*
X95939428Y-114953142D01*
X95939428Y-114662857D01*
X95975714Y-114590285D01*
X96012000Y-114554000D01*
X96084571Y-114517714D01*
X96229714Y-114517714D01*
X96302285Y-114554000D01*
X96338571Y-114590285D01*
X96374857Y-114662857D01*
X96374857Y-114844285D01*
X96338571Y-114916857D01*
X96302285Y-114953142D01*
X96229714Y-114989428D01*
X96084571Y-114989428D01*
X96012000Y-114953142D01*
X95975714Y-114916857D01*
X95939428Y-114844285D01*
X94560571Y-114590285D02*
X94524285Y-114554000D01*
X94451714Y-114517714D01*
X94270285Y-114517714D01*
X94197714Y-114554000D01*
X94161428Y-114590285D01*
X94125142Y-114662857D01*
X94125142Y-114735428D01*
X94161428Y-114844285D01*
X94596857Y-115279714D01*
X94125142Y-115279714D01*
X93653428Y-114517714D02*
X93580857Y-114517714D01*
X93508285Y-114554000D01*
X93472000Y-114590285D01*
X93435714Y-114662857D01*
X93399428Y-114808000D01*
X93399428Y-114989428D01*
X93435714Y-115134571D01*
X93472000Y-115207142D01*
X93508285Y-115243428D01*
X93580857Y-115279714D01*
X93653428Y-115279714D01*
X93726000Y-115243428D01*
X93762285Y-115207142D01*
X93798571Y-115134571D01*
X93834857Y-114989428D01*
X93834857Y-114808000D01*
X93798571Y-114662857D01*
X93762285Y-114590285D01*
X93726000Y-114554000D01*
X93653428Y-114517714D01*
X92020571Y-114590285D02*
X91984285Y-114554000D01*
X91911714Y-114517714D01*
X91730285Y-114517714D01*
X91657714Y-114554000D01*
X91621428Y-114590285D01*
X91585142Y-114662857D01*
X91585142Y-114735428D01*
X91621428Y-114844285D01*
X92056857Y-115279714D01*
X91585142Y-115279714D01*
X90859428Y-115279714D02*
X91294857Y-115279714D01*
X91077142Y-115279714D02*
X91077142Y-114517714D01*
X91149714Y-114626571D01*
X91222285Y-114699142D01*
X91294857Y-114735428D01*
X89480571Y-114590285D02*
X89444285Y-114554000D01*
X89371714Y-114517714D01*
X89190285Y-114517714D01*
X89117714Y-114554000D01*
X89081428Y-114590285D01*
X89045142Y-114662857D01*
X89045142Y-114735428D01*
X89081428Y-114844285D01*
X89516857Y-115279714D01*
X89045142Y-115279714D01*
X88754857Y-114590285D02*
X88718571Y-114554000D01*
X88646000Y-114517714D01*
X88464571Y-114517714D01*
X88392000Y-114554000D01*
X88355714Y-114590285D01*
X88319428Y-114662857D01*
X88319428Y-114735428D01*
X88355714Y-114844285D01*
X88791142Y-115279714D01*
X88319428Y-115279714D01*
X86940571Y-114590285D02*
X86904285Y-114554000D01*
X86831714Y-114517714D01*
X86650285Y-114517714D01*
X86577714Y-114554000D01*
X86541428Y-114590285D01*
X86505142Y-114662857D01*
X86505142Y-114735428D01*
X86541428Y-114844285D01*
X86976857Y-115279714D01*
X86505142Y-115279714D01*
X86251142Y-114517714D02*
X85779428Y-114517714D01*
X86033428Y-114808000D01*
X85924571Y-114808000D01*
X85852000Y-114844285D01*
X85815714Y-114880571D01*
X85779428Y-114953142D01*
X85779428Y-115134571D01*
X85815714Y-115207142D01*
X85852000Y-115243428D01*
X85924571Y-115279714D01*
X86142285Y-115279714D01*
X86214857Y-115243428D01*
X86251142Y-115207142D01*
D17*
X84757380Y-114587261D02*
X84364285Y-114587261D01*
X84575952Y-114829166D01*
X84485238Y-114829166D01*
X84424761Y-114859404D01*
X84394523Y-114889642D01*
X84364285Y-114950119D01*
X84364285Y-115101309D01*
X84394523Y-115161785D01*
X84424761Y-115192023D01*
X84485238Y-115222261D01*
X84666666Y-115222261D01*
X84727142Y-115192023D01*
X84757380Y-115161785D01*
X84092142Y-115161785D02*
X84061904Y-115192023D01*
X84092142Y-115222261D01*
X84122380Y-115192023D01*
X84092142Y-115161785D01*
X84092142Y-115222261D01*
X83850238Y-114587261D02*
X83457142Y-114587261D01*
X83668809Y-114829166D01*
X83578095Y-114829166D01*
X83517619Y-114859404D01*
X83487380Y-114889642D01*
X83457142Y-114950119D01*
X83457142Y-115101309D01*
X83487380Y-115161785D01*
X83517619Y-115192023D01*
X83578095Y-115222261D01*
X83759523Y-115222261D01*
X83820000Y-115192023D01*
X83850238Y-115161785D01*
X83275714Y-114587261D02*
X83064047Y-115222261D01*
X82852380Y-114587261D01*
X82398809Y-115040833D02*
X82096428Y-115040833D01*
X82459285Y-115222261D02*
X82247619Y-114587261D01*
X82035952Y-115222261D01*
X81491666Y-114617500D02*
X81552142Y-114587261D01*
X81642857Y-114587261D01*
X81733571Y-114617500D01*
X81794047Y-114677976D01*
X81824285Y-114738452D01*
X81854523Y-114859404D01*
X81854523Y-114950119D01*
X81824285Y-115071071D01*
X81794047Y-115131547D01*
X81733571Y-115192023D01*
X81642857Y-115222261D01*
X81582380Y-115222261D01*
X81491666Y-115192023D01*
X81461428Y-115161785D01*
X81461428Y-114950119D01*
X81582380Y-114950119D01*
X81189285Y-115222261D02*
X81189285Y-114587261D01*
X80826428Y-115222261D01*
X80826428Y-114587261D01*
X80524047Y-115222261D02*
X80524047Y-114587261D01*
X80372857Y-114587261D01*
X80282142Y-114617500D01*
X80221666Y-114677976D01*
X80191428Y-114738452D01*
X80161190Y-114859404D01*
X80161190Y-114950119D01*
X80191428Y-115071071D01*
X80221666Y-115131547D01*
X80282142Y-115192023D01*
X80372857Y-115222261D01*
X80524047Y-115222261D01*
X79526190Y-114587261D02*
X79314523Y-115222261D01*
X79102857Y-114587261D01*
X78891190Y-114889642D02*
X78679523Y-114889642D01*
X78588809Y-115222261D02*
X78891190Y-115222261D01*
X78891190Y-114587261D01*
X78588809Y-114587261D01*
X78316666Y-114889642D02*
X78105000Y-114889642D01*
X78014285Y-115222261D02*
X78316666Y-115222261D01*
X78316666Y-114587261D01*
X78014285Y-114587261D01*
X77228095Y-115040833D02*
X76925714Y-115040833D01*
X77288571Y-115222261D02*
X77076904Y-114587261D01*
X76865238Y-115222261D01*
X76290714Y-115222261D02*
X76502380Y-114919880D01*
X76653571Y-115222261D02*
X76653571Y-114587261D01*
X76411666Y-114587261D01*
X76351190Y-114617500D01*
X76320952Y-114647738D01*
X76290714Y-114708214D01*
X76290714Y-114798928D01*
X76320952Y-114859404D01*
X76351190Y-114889642D01*
X76411666Y-114919880D01*
X76653571Y-114919880D01*
X76018571Y-114889642D02*
X75806904Y-114889642D01*
X75716190Y-115222261D02*
X76018571Y-115222261D01*
X76018571Y-114587261D01*
X75716190Y-114587261D01*
X75232380Y-114889642D02*
X75444047Y-114889642D01*
X75444047Y-115222261D02*
X75444047Y-114587261D01*
X75141666Y-114587261D01*
D13*
X114880571Y-84110285D02*
X114844285Y-84074000D01*
X114771714Y-84037714D01*
X114590285Y-84037714D01*
X114517714Y-84074000D01*
X114481428Y-84110285D01*
X114445142Y-84182857D01*
X114445142Y-84255428D01*
X114481428Y-84364285D01*
X114916857Y-84799714D01*
X114445142Y-84799714D01*
X114009714Y-84364285D02*
X114082285Y-84328000D01*
X114118571Y-84291714D01*
X114154857Y-84219142D01*
X114154857Y-84182857D01*
X114118571Y-84110285D01*
X114082285Y-84074000D01*
X114009714Y-84037714D01*
X113864571Y-84037714D01*
X113792000Y-84074000D01*
X113755714Y-84110285D01*
X113719428Y-84182857D01*
X113719428Y-84219142D01*
X113755714Y-84291714D01*
X113792000Y-84328000D01*
X113864571Y-84364285D01*
X114009714Y-84364285D01*
X114082285Y-84400571D01*
X114118571Y-84436857D01*
X114154857Y-84509428D01*
X114154857Y-84654571D01*
X114118571Y-84727142D01*
X114082285Y-84763428D01*
X114009714Y-84799714D01*
X113864571Y-84799714D01*
X113792000Y-84763428D01*
X113755714Y-84727142D01*
X113719428Y-84654571D01*
X113719428Y-84509428D01*
X113755714Y-84436857D01*
X113792000Y-84400571D01*
X113864571Y-84364285D01*
X111905142Y-84799714D02*
X112340571Y-84799714D01*
X112122857Y-84799714D02*
X112122857Y-84037714D01*
X112195428Y-84146571D01*
X112268000Y-84219142D01*
X112340571Y-84255428D01*
X111614857Y-84110285D02*
X111578571Y-84074000D01*
X111506000Y-84037714D01*
X111324571Y-84037714D01*
X111252000Y-84074000D01*
X111215714Y-84110285D01*
X111179428Y-84182857D01*
X111179428Y-84255428D01*
X111215714Y-84364285D01*
X111651142Y-84799714D01*
X111179428Y-84799714D01*
X109365142Y-84799714D02*
X109800571Y-84799714D01*
X109582857Y-84799714D02*
X109582857Y-84037714D01*
X109655428Y-84146571D01*
X109728000Y-84219142D01*
X109800571Y-84255428D01*
X108639428Y-84799714D02*
X109074857Y-84799714D01*
X108857142Y-84799714D02*
X108857142Y-84037714D01*
X108929714Y-84146571D01*
X109002285Y-84219142D01*
X109074857Y-84255428D01*
X106825142Y-84799714D02*
X107260571Y-84799714D01*
X107042857Y-84799714D02*
X107042857Y-84037714D01*
X107115428Y-84146571D01*
X107188000Y-84219142D01*
X107260571Y-84255428D01*
X106353428Y-84037714D02*
X106280857Y-84037714D01*
X106208285Y-84074000D01*
X106172000Y-84110285D01*
X106135714Y-84182857D01*
X106099428Y-84328000D01*
X106099428Y-84509428D01*
X106135714Y-84654571D01*
X106172000Y-84727142D01*
X106208285Y-84763428D01*
X106280857Y-84799714D01*
X106353428Y-84799714D01*
X106426000Y-84763428D01*
X106462285Y-84727142D01*
X106498571Y-84654571D01*
X106534857Y-84509428D01*
X106534857Y-84328000D01*
X106498571Y-84182857D01*
X106462285Y-84110285D01*
X106426000Y-84074000D01*
X106353428Y-84037714D01*
X104285142Y-84799714D02*
X104140000Y-84799714D01*
X104067428Y-84763428D01*
X104031142Y-84727142D01*
X103958571Y-84618285D01*
X103922285Y-84473142D01*
X103922285Y-84182857D01*
X103958571Y-84110285D01*
X103994857Y-84074000D01*
X104067428Y-84037714D01*
X104212571Y-84037714D01*
X104285142Y-84074000D01*
X104321428Y-84110285D01*
X104357714Y-84182857D01*
X104357714Y-84364285D01*
X104321428Y-84436857D01*
X104285142Y-84473142D01*
X104212571Y-84509428D01*
X104067428Y-84509428D01*
X103994857Y-84473142D01*
X103958571Y-84436857D01*
X103922285Y-84364285D01*
X102180571Y-84110285D02*
X102144285Y-84074000D01*
X102071714Y-84037714D01*
X101890285Y-84037714D01*
X101817714Y-84074000D01*
X101781428Y-84110285D01*
X101745142Y-84182857D01*
X101745142Y-84255428D01*
X101781428Y-84364285D01*
X102216857Y-84799714D01*
X101745142Y-84799714D01*
X101382285Y-84799714D02*
X101237142Y-84799714D01*
X101164571Y-84763428D01*
X101128285Y-84727142D01*
X101055714Y-84618285D01*
X101019428Y-84473142D01*
X101019428Y-84182857D01*
X101055714Y-84110285D01*
X101092000Y-84074000D01*
X101164571Y-84037714D01*
X101309714Y-84037714D01*
X101382285Y-84074000D01*
X101418571Y-84110285D01*
X101454857Y-84182857D01*
X101454857Y-84364285D01*
X101418571Y-84436857D01*
X101382285Y-84473142D01*
X101309714Y-84509428D01*
X101164571Y-84509428D01*
X101092000Y-84473142D01*
X101055714Y-84436857D01*
X101019428Y-84364285D01*
X99676857Y-84037714D02*
X99205142Y-84037714D01*
X99459142Y-84328000D01*
X99350285Y-84328000D01*
X99277714Y-84364285D01*
X99241428Y-84400571D01*
X99205142Y-84473142D01*
X99205142Y-84654571D01*
X99241428Y-84727142D01*
X99277714Y-84763428D01*
X99350285Y-84799714D01*
X99568000Y-84799714D01*
X99640571Y-84763428D01*
X99676857Y-84727142D01*
X98733428Y-84037714D02*
X98660857Y-84037714D01*
X98588285Y-84074000D01*
X98552000Y-84110285D01*
X98515714Y-84182857D01*
X98479428Y-84328000D01*
X98479428Y-84509428D01*
X98515714Y-84654571D01*
X98552000Y-84727142D01*
X98588285Y-84763428D01*
X98660857Y-84799714D01*
X98733428Y-84799714D01*
X98806000Y-84763428D01*
X98842285Y-84727142D01*
X98878571Y-84654571D01*
X98914857Y-84509428D01*
X98914857Y-84328000D01*
X98878571Y-84182857D01*
X98842285Y-84110285D01*
X98806000Y-84074000D01*
X98733428Y-84037714D01*
X96374857Y-84037714D02*
X96520000Y-84037714D01*
X96592571Y-84074000D01*
X96628857Y-84110285D01*
X96701428Y-84219142D01*
X96737714Y-84364285D01*
X96737714Y-84654571D01*
X96701428Y-84727142D01*
X96665142Y-84763428D01*
X96592571Y-84799714D01*
X96447428Y-84799714D01*
X96374857Y-84763428D01*
X96338571Y-84727142D01*
X96302285Y-84654571D01*
X96302285Y-84473142D01*
X96338571Y-84400571D01*
X96374857Y-84364285D01*
X96447428Y-84328000D01*
X96592571Y-84328000D01*
X96665142Y-84364285D01*
X96701428Y-84400571D01*
X96737714Y-84473142D01*
X93798571Y-84037714D02*
X94161428Y-84037714D01*
X94197714Y-84400571D01*
X94161428Y-84364285D01*
X94088857Y-84328000D01*
X93907428Y-84328000D01*
X93834857Y-84364285D01*
X93798571Y-84400571D01*
X93762285Y-84473142D01*
X93762285Y-84654571D01*
X93798571Y-84727142D01*
X93834857Y-84763428D01*
X93907428Y-84799714D01*
X94088857Y-84799714D01*
X94161428Y-84763428D01*
X94197714Y-84727142D01*
X91294857Y-84291714D02*
X91294857Y-84799714D01*
X91476285Y-84001428D02*
X91657714Y-84545714D01*
X91186000Y-84545714D01*
X89154000Y-84037714D02*
X88682285Y-84037714D01*
X88936285Y-84328000D01*
X88827428Y-84328000D01*
X88754857Y-84364285D01*
X88718571Y-84400571D01*
X88682285Y-84473142D01*
X88682285Y-84654571D01*
X88718571Y-84727142D01*
X88754857Y-84763428D01*
X88827428Y-84799714D01*
X89045142Y-84799714D01*
X89117714Y-84763428D01*
X89154000Y-84727142D01*
X86577714Y-84110285D02*
X86541428Y-84074000D01*
X86468857Y-84037714D01*
X86287428Y-84037714D01*
X86214857Y-84074000D01*
X86178571Y-84110285D01*
X86142285Y-84182857D01*
X86142285Y-84255428D01*
X86178571Y-84364285D01*
X86614000Y-84799714D01*
X86142285Y-84799714D01*
X84400571Y-84110285D02*
X84364285Y-84074000D01*
X84291714Y-84037714D01*
X84110285Y-84037714D01*
X84037714Y-84074000D01*
X84001428Y-84110285D01*
X83965142Y-84182857D01*
X83965142Y-84255428D01*
X84001428Y-84364285D01*
X84436857Y-84799714D01*
X83965142Y-84799714D01*
X83275714Y-84037714D02*
X83638571Y-84037714D01*
X83674857Y-84400571D01*
X83638571Y-84364285D01*
X83566000Y-84328000D01*
X83384571Y-84328000D01*
X83312000Y-84364285D01*
X83275714Y-84400571D01*
X83239428Y-84473142D01*
X83239428Y-84654571D01*
X83275714Y-84727142D01*
X83312000Y-84763428D01*
X83384571Y-84799714D01*
X83566000Y-84799714D01*
X83638571Y-84763428D01*
X83674857Y-84727142D01*
X81860571Y-84110285D02*
X81824285Y-84074000D01*
X81751714Y-84037714D01*
X81570285Y-84037714D01*
X81497714Y-84074000D01*
X81461428Y-84110285D01*
X81425142Y-84182857D01*
X81425142Y-84255428D01*
X81461428Y-84364285D01*
X81896857Y-84799714D01*
X81425142Y-84799714D01*
X80772000Y-84291714D02*
X80772000Y-84799714D01*
X80953428Y-84001428D02*
X81134857Y-84545714D01*
X80663142Y-84545714D01*
D17*
X79223809Y-84137500D02*
X79284285Y-84107261D01*
X79375000Y-84107261D01*
X79465714Y-84137500D01*
X79526190Y-84197976D01*
X79556428Y-84258452D01*
X79586666Y-84379404D01*
X79586666Y-84470119D01*
X79556428Y-84591071D01*
X79526190Y-84651547D01*
X79465714Y-84712023D01*
X79375000Y-84742261D01*
X79314523Y-84742261D01*
X79223809Y-84712023D01*
X79193571Y-84681785D01*
X79193571Y-84470119D01*
X79314523Y-84470119D01*
X78921428Y-84742261D02*
X78921428Y-84107261D01*
X78558571Y-84742261D01*
X78558571Y-84107261D01*
X78256190Y-84742261D02*
X78256190Y-84107261D01*
X78105000Y-84107261D01*
X78014285Y-84137500D01*
X77953809Y-84197976D01*
X77923571Y-84258452D01*
X77893333Y-84379404D01*
X77893333Y-84470119D01*
X77923571Y-84591071D01*
X77953809Y-84651547D01*
X78014285Y-84712023D01*
X78105000Y-84742261D01*
X78256190Y-84742261D01*
X77046666Y-84107261D02*
X76835000Y-84742261D01*
X76623333Y-84107261D01*
X76411666Y-84742261D02*
X76411666Y-84107261D01*
X76260476Y-84107261D01*
X76169761Y-84137500D01*
X76109285Y-84197976D01*
X76079047Y-84258452D01*
X76048809Y-84379404D01*
X76048809Y-84470119D01*
X76079047Y-84591071D01*
X76109285Y-84651547D01*
X76169761Y-84712023D01*
X76260476Y-84742261D01*
X76411666Y-84742261D01*
X75776666Y-84742261D02*
X75776666Y-84107261D01*
X75625476Y-84107261D01*
X75534761Y-84137500D01*
X75474285Y-84197976D01*
X75444047Y-84258452D01*
X75413809Y-84379404D01*
X75413809Y-84470119D01*
X75444047Y-84591071D01*
X75474285Y-84651547D01*
X75534761Y-84712023D01*
X75625476Y-84742261D01*
X75776666Y-84742261D01*
D11*
X113743619Y-96550238D02*
X113743619Y-97130809D01*
X114759619Y-96840523D02*
X113743619Y-96840523D01*
X114227428Y-97469476D02*
X114227428Y-97808142D01*
X114759619Y-97953285D02*
X114759619Y-97469476D01*
X113743619Y-97469476D01*
X113743619Y-97953285D01*
X114227428Y-98388714D02*
X114227428Y-98727380D01*
X114759619Y-98872523D02*
X114759619Y-98388714D01*
X113743619Y-98388714D01*
X113743619Y-98872523D01*
X114759619Y-99307952D02*
X113743619Y-99307952D01*
X114759619Y-99888523D01*
X113743619Y-99888523D01*
X114711238Y-100323952D02*
X114759619Y-100469095D01*
X114759619Y-100711000D01*
X114711238Y-100807761D01*
X114662857Y-100856142D01*
X114566095Y-100904523D01*
X114469333Y-100904523D01*
X114372571Y-100856142D01*
X114324190Y-100807761D01*
X114275809Y-100711000D01*
X114227428Y-100517476D01*
X114179047Y-100420714D01*
X114130666Y-100372333D01*
X114033904Y-100323952D01*
X113937142Y-100323952D01*
X113840380Y-100372333D01*
X113792000Y-100420714D01*
X113743619Y-100517476D01*
X113743619Y-100759380D01*
X113792000Y-100904523D01*
X114275809Y-101533476D02*
X114759619Y-101533476D01*
X113743619Y-101194809D02*
X114275809Y-101533476D01*
X113743619Y-101872142D01*
X114759619Y-102743000D02*
X114759619Y-102162428D01*
X114759619Y-102452714D02*
X113743619Y-102452714D01*
X113888761Y-102355952D01*
X113985523Y-102259190D01*
X114033904Y-102162428D01*
X78193619Y-95437476D02*
X78193619Y-96018047D01*
X79209619Y-95727761D02*
X78193619Y-95727761D01*
X78677428Y-96356714D02*
X78677428Y-96695380D01*
X79209619Y-96840523D02*
X79209619Y-96356714D01*
X78193619Y-96356714D01*
X78193619Y-96840523D01*
X78677428Y-97275952D02*
X78677428Y-97614619D01*
X79209619Y-97759761D02*
X79209619Y-97275952D01*
X78193619Y-97275952D01*
X78193619Y-97759761D01*
X79209619Y-98195190D02*
X78193619Y-98195190D01*
X79209619Y-98775761D01*
X78193619Y-98775761D01*
X79161238Y-99211190D02*
X79209619Y-99356333D01*
X79209619Y-99598238D01*
X79161238Y-99695000D01*
X79112857Y-99743380D01*
X79016095Y-99791761D01*
X78919333Y-99791761D01*
X78822571Y-99743380D01*
X78774190Y-99695000D01*
X78725809Y-99598238D01*
X78677428Y-99404714D01*
X78629047Y-99307952D01*
X78580666Y-99259571D01*
X78483904Y-99211190D01*
X78387142Y-99211190D01*
X78290380Y-99259571D01*
X78242000Y-99307952D01*
X78193619Y-99404714D01*
X78193619Y-99646619D01*
X78242000Y-99791761D01*
X78725809Y-100420714D02*
X79209619Y-100420714D01*
X78193619Y-100082047D02*
X78725809Y-100420714D01*
X78193619Y-100759380D01*
X79306380Y-100856142D02*
X79306380Y-101630238D01*
X78193619Y-101775380D02*
X78193619Y-102404333D01*
X78580666Y-102065666D01*
X78580666Y-102210809D01*
X78629047Y-102307571D01*
X78677428Y-102355952D01*
X78774190Y-102404333D01*
X79016095Y-102404333D01*
X79112857Y-102355952D01*
X79161238Y-102307571D01*
X79209619Y-102210809D01*
X79209619Y-101920523D01*
X79161238Y-101823761D01*
X79112857Y-101775380D01*
X79112857Y-102839761D02*
X79161238Y-102888142D01*
X79209619Y-102839761D01*
X79161238Y-102791380D01*
X79112857Y-102839761D01*
X79209619Y-102839761D01*
X78290380Y-103275190D02*
X78242000Y-103323571D01*
X78193619Y-103420333D01*
X78193619Y-103662238D01*
X78242000Y-103759000D01*
X78290380Y-103807380D01*
X78387142Y-103855761D01*
X78483904Y-103855761D01*
X78629047Y-103807380D01*
X79209619Y-103226809D01*
X79209619Y-103855761D01*
%LPC*%
D18*
X71755000Y-111725000D03*
X71755000Y-115605000D03*
D19*
X67056000Y-106680000D03*
X70104000Y-106680000D03*
D20*
X62865000Y-112014000D03*
X62865000Y-108966000D03*
D21*
X130175000Y-89916000D03*
X127635000Y-89916000D03*
X125095000Y-89916000D03*
D22*
X132588000Y-86741000D03*
X122682000Y-86741000D03*
D23*
X133629400Y-83185000D03*
X121640600Y-83185000D03*
D22*
X132969000Y-94742000D03*
X132969000Y-104648000D03*
D21*
X125095000Y-109474000D03*
X127635000Y-109474000D03*
X130175000Y-109474000D03*
D22*
X122682000Y-112649000D03*
X132588000Y-112649000D03*
D23*
X121640600Y-116205000D03*
X133629400Y-116205000D03*
D24*
X67310000Y-113030000D03*
X67310000Y-115570000D03*
X67310000Y-110490000D03*
D25*
X63500000Y-104775000D03*
X63500000Y-94615000D03*
D26*
X69596000Y-99695000D03*
D27*
X72390000Y-99695000D03*
X72390000Y-96901000D03*
X72390000Y-102489000D03*
D22*
X123952000Y-85471000D03*
X131318000Y-85471000D03*
X131318000Y-113919000D03*
X123952000Y-113919000D03*
D28*
X63115000Y-99695000D03*
D29*
X66915000Y-100760000D03*
X66915000Y-98630000D03*
D20*
X69850000Y-84201000D03*
X69850000Y-87249000D03*
D19*
X75819000Y-106680000D03*
X72771000Y-106680000D03*
D30*
X141480000Y-93995000D03*
X135380000Y-93995000D03*
X141480000Y-105395000D03*
X135380000Y-105395000D03*
D31*
X141480000Y-99695000D03*
D32*
X136980000Y-99695000D03*
D33*
X62230000Y-81915000D03*
X62230000Y-117475000D03*
X118110000Y-99695000D03*
D34*
X78740000Y-81915000D03*
X81280000Y-81915000D03*
D35*
X76200000Y-81915000D03*
D34*
X83820000Y-81915000D03*
X86360000Y-81915000D03*
X88900000Y-81915000D03*
X91440000Y-81915000D03*
X93980000Y-81915000D03*
X96520000Y-81915000D03*
X99060000Y-81915000D03*
X101600000Y-81915000D03*
X104140000Y-81915000D03*
X106680000Y-81915000D03*
X109220000Y-81915000D03*
X111760000Y-81915000D03*
X114300000Y-81915000D03*
X114300000Y-117475000D03*
X111760000Y-117475000D03*
X109220000Y-117475000D03*
X106680000Y-117475000D03*
X104140000Y-117475000D03*
X101600000Y-117475000D03*
X99060000Y-117475000D03*
X96520000Y-117475000D03*
X93980000Y-117475000D03*
X91440000Y-117475000D03*
X88900000Y-117475000D03*
X86360000Y-117475000D03*
X83820000Y-117475000D03*
X81280000Y-117475000D03*
X78740000Y-117475000D03*
X76200000Y-117475000D03*
D33*
X77470000Y-86995000D03*
X77470000Y-112395000D03*
X118110000Y-117475000D03*
X118110000Y-81915000D03*
D36*
X78740000Y-92075000D03*
D37*
X81280000Y-92075000D03*
X83820000Y-92075000D03*
X86360000Y-92075000D03*
X88900000Y-92075000D03*
X91440000Y-92075000D03*
X93980000Y-92075000D03*
X96520000Y-92075000D03*
X99060000Y-92075000D03*
X101600000Y-92075000D03*
X104140000Y-92075000D03*
X106680000Y-92075000D03*
X109220000Y-92075000D03*
X111760000Y-92075000D03*
X111760000Y-107315000D03*
X109220000Y-107315000D03*
X106680000Y-107315000D03*
X104140000Y-107315000D03*
X101600000Y-107315000D03*
X99060000Y-107315000D03*
X96520000Y-107315000D03*
X93980000Y-107315000D03*
X91440000Y-107315000D03*
X88900000Y-107315000D03*
X86360000Y-107315000D03*
X83820000Y-107315000D03*
X81280000Y-107315000D03*
X78740000Y-107315000D03*
D24*
X111760000Y-104775000D03*
X111760000Y-102235000D03*
X111760000Y-99695000D03*
X111760000Y-97155000D03*
X111760000Y-94615000D03*
D37*
X81280000Y-104267000D03*
X86360000Y-104267000D03*
X88900000Y-104267000D03*
X91440000Y-104267000D03*
X93980000Y-102743000D03*
X93980000Y-99187000D03*
X96520000Y-102743000D03*
X96520000Y-99187000D03*
X99060000Y-99187000D03*
X101600000Y-99187000D03*
X104140000Y-99187000D03*
X106680000Y-99187000D03*
X109220000Y-99187000D03*
X99060000Y-102743000D03*
X101600000Y-102743000D03*
X104140000Y-102743000D03*
X106680000Y-102743000D03*
X109220000Y-102743000D03*
M02*
