G04 #@! TF.GenerationSoftware,KiCad,Pcbnew,no-vcs-found-7584~57~ubuntu16.04.1*
G04 #@! TF.CreationDate,2017-02-08T11:01:07-05:00*
G04 #@! TF.ProjectId,modular_device_base_3x2,6D6F64756C61725F6465766963655F62,1.0*
G04 #@! TF.FileFunction,Soldermask,Top*
G04 #@! TF.FilePolarity,Negative*
%FSLAX46Y46*%
G04 Gerber Fmt 4.6, Leading zero omitted, Abs format (unit mm)*
G04 Created by KiCad (PCBNEW no-vcs-found-7584~57~ubuntu16.04.1) date Wed Feb  8 11:01:07 2017*
%MOMM*%
%LPD*%
G01*
G04 APERTURE LIST*
%ADD10C,0.100000*%
%ADD11C,0.228600*%
%ADD12R,1.640000X1.800000*%
%ADD13R,5.160000X4.000000*%
%ADD14O,2.940000X1.924000*%
%ADD15R,1.990040X3.067000*%
%ADD16R,2.178000X4.591000*%
%ADD17C,1.600200*%
%ADD18R,2.997200X5.029200*%
%ADD19R,1.670000X2.940000*%
%ADD20R,3.110000X2.900000*%
%ADD21C,3.956000*%
%ADD22O,2.254200X2.940000*%
%ADD23R,2.254200X2.940000*%
%ADD24R,1.924000X2.940000*%
%ADD25O,1.924000X2.940000*%
%ADD26O,5.480000X3.448000*%
%ADD27O,2.432000X1.924000*%
%ADD28O,1.924000X2.432000*%
%ADD29C,2.330400*%
%ADD30O,4.972000X3.956000*%
%ADD31O,4.464000X5.480000*%
%ADD32O,5.480000X3.956000*%
G04 APERTURE END LIST*
D10*
D11*
X143510000Y-79375000D02*
X59690000Y-79375000D01*
X143510000Y-120015000D02*
X143510000Y-79375000D01*
X59690000Y-120015000D02*
X143510000Y-120015000D01*
X59690000Y-79375000D02*
X59690000Y-120015000D01*
D12*
X126605000Y-97585000D03*
X126605000Y-95455000D03*
D13*
X122805000Y-96520000D03*
D12*
X126605000Y-103935000D03*
X126605000Y-101805000D03*
D13*
X122805000Y-102870000D03*
D14*
X67310000Y-113030000D03*
X67310000Y-115570000D03*
X67310000Y-110490000D03*
D15*
X67851020Y-81597500D03*
X67851020Y-89852500D03*
X71848980Y-81597500D03*
X71848980Y-89852500D03*
D16*
X128905000Y-110744000D03*
X126365000Y-110744000D03*
D17*
X131318000Y-113919000D03*
X123952000Y-113919000D03*
D18*
X132359400Y-117475000D03*
X122910600Y-117475000D03*
D19*
X86741000Y-99695000D03*
X89789000Y-99695000D03*
D20*
X83220000Y-99695000D03*
X79340000Y-99695000D03*
D21*
X62230000Y-81915000D03*
X62230000Y-117475000D03*
X140970000Y-81915000D03*
D22*
X78740000Y-81915000D03*
X81280000Y-81915000D03*
D23*
X76200000Y-81915000D03*
D22*
X83820000Y-81915000D03*
X86360000Y-81915000D03*
X88900000Y-81915000D03*
X91440000Y-81915000D03*
X93980000Y-81915000D03*
X96520000Y-81915000D03*
X99060000Y-81915000D03*
X101600000Y-81915000D03*
X104140000Y-81915000D03*
X106680000Y-81915000D03*
X109220000Y-81915000D03*
X111760000Y-81915000D03*
X114300000Y-81915000D03*
X114300000Y-117475000D03*
X111760000Y-117475000D03*
X109220000Y-117475000D03*
X106680000Y-117475000D03*
X104140000Y-117475000D03*
X101600000Y-117475000D03*
X99060000Y-117475000D03*
X96520000Y-117475000D03*
X93980000Y-117475000D03*
X91440000Y-117475000D03*
X88900000Y-117475000D03*
X86360000Y-117475000D03*
X83820000Y-117475000D03*
X81280000Y-117475000D03*
X78740000Y-117475000D03*
X76200000Y-117475000D03*
D21*
X77470000Y-86995000D03*
X77470000Y-112395000D03*
X118110000Y-117475000D03*
X118110000Y-81915000D03*
D24*
X78740000Y-92075000D03*
D25*
X81280000Y-92075000D03*
X83820000Y-92075000D03*
X86360000Y-92075000D03*
X88900000Y-92075000D03*
X91440000Y-92075000D03*
X93980000Y-92075000D03*
X96520000Y-92075000D03*
X99060000Y-92075000D03*
X101600000Y-92075000D03*
X104140000Y-92075000D03*
X106680000Y-92075000D03*
X109220000Y-92075000D03*
X111760000Y-92075000D03*
X111760000Y-107315000D03*
X109220000Y-107315000D03*
X106680000Y-107315000D03*
X104140000Y-107315000D03*
X101600000Y-107315000D03*
X99060000Y-107315000D03*
X96520000Y-107315000D03*
X93980000Y-107315000D03*
X91440000Y-107315000D03*
X88900000Y-107315000D03*
X86360000Y-107315000D03*
X83820000Y-107315000D03*
X81280000Y-107315000D03*
X78740000Y-107315000D03*
D14*
X111760000Y-104775000D03*
X111760000Y-102235000D03*
X111760000Y-99695000D03*
X111760000Y-97155000D03*
X111760000Y-94615000D03*
D25*
X81280000Y-104267000D03*
X86360000Y-104267000D03*
X88900000Y-104267000D03*
X91440000Y-104267000D03*
X93980000Y-102743000D03*
X93980000Y-99187000D03*
X96520000Y-102743000D03*
X96520000Y-99187000D03*
X99060000Y-99187000D03*
X101600000Y-99187000D03*
X104140000Y-99187000D03*
X106680000Y-99187000D03*
X109220000Y-99187000D03*
X99060000Y-102743000D03*
X101600000Y-102743000D03*
X104140000Y-102743000D03*
X106680000Y-102743000D03*
X109220000Y-102743000D03*
D26*
X63500000Y-104775000D03*
X63500000Y-94615000D03*
D27*
X69596000Y-99695000D03*
D28*
X72390000Y-99695000D03*
X72390000Y-96901000D03*
X72390000Y-102489000D03*
D17*
X122682000Y-86741000D03*
X132588000Y-86741000D03*
D16*
X126365000Y-88646000D03*
X128905000Y-88646000D03*
D17*
X123952000Y-85471000D03*
X131318000Y-85471000D03*
D18*
X122910600Y-81915000D03*
X132359400Y-81915000D03*
D17*
X122682000Y-112649000D03*
X132588000Y-112649000D03*
D29*
X140512800Y-99695000D03*
D30*
X137007600Y-99695000D03*
D31*
X131521200Y-99695000D03*
D32*
X138506200Y-104190800D03*
X138506200Y-95199200D03*
D21*
X140970000Y-117475000D03*
M02*
