G04 #@! TF.GenerationSoftware,KiCad,Pcbnew,no-vcs-found-ea855c1~58~ubuntu16.04.1*
G04 #@! TF.CreationDate,2017-05-24T14:39:48-04:00*
G04 #@! TF.ProjectId,modular_device_base_3x2,6D6F64756C61725F6465766963655F62,1.1*
G04 #@! TF.FileFunction,Copper,L1,Top,Signal*
G04 #@! TF.FilePolarity,Positive*
%FSLAX46Y46*%
G04 Gerber Fmt 4.6, Leading zero omitted, Abs format (unit mm)*
G04 Created by KiCad (PCBNEW no-vcs-found-ea855c1~58~ubuntu16.04.1) date Wed May 24 14:39:48 2017*
%MOMM*%
%LPD*%
G01*
G04 APERTURE LIST*
%ADD10C,0.100000*%
%ADD11C,0.228600*%
%ADD12O,2.032000X1.524000*%
%ADD13O,1.524000X2.032000*%
%ADD14R,2.540000X1.854200*%
%ADD15O,2.540000X1.854200*%
%ADD16R,1.440000X1.600000*%
%ADD17R,4.960000X3.800000*%
%ADD18O,2.540000X1.524000*%
%ADD19R,2.667000X1.590040*%
%ADD20R,1.778000X4.191000*%
%ADD21C,1.397000*%
%ADD22R,2.794000X4.826000*%
%ADD23R,1.270000X2.540000*%
%ADD24R,2.710000X2.500000*%
%ADD25C,3.556000*%
%ADD26O,1.854200X2.540000*%
%ADD27R,1.854200X2.540000*%
%ADD28R,1.524000X2.540000*%
%ADD29O,1.524000X2.540000*%
%ADD30O,5.080000X3.048000*%
%ADD31C,1.930400*%
%ADD32O,4.572000X3.556000*%
%ADD33O,4.064000X5.080000*%
%ADD34O,5.080000X3.556000*%
%ADD35C,0.889000*%
%ADD36C,1.219200*%
%ADD37C,0.609600*%
%ADD38C,0.203200*%
G04 APERTURE END LIST*
D10*
D11*
X144145000Y-78740000D02*
X59055000Y-78740000D01*
X144145000Y-120650000D02*
X144145000Y-78740000D01*
X59055000Y-120650000D02*
X144145000Y-120650000D01*
X59055000Y-78740000D02*
X59055000Y-120650000D01*
D12*
X139954000Y-110490000D03*
X142494000Y-110490000D03*
D13*
X67945000Y-116459000D03*
X67945000Y-118999000D03*
X70485000Y-116459000D03*
X70485000Y-118999000D03*
D14*
X136525000Y-91440000D03*
D15*
X136525000Y-86360000D03*
X136525000Y-88900000D03*
D16*
X121525000Y-93140000D03*
X121525000Y-91010000D03*
D17*
X117725000Y-92075000D03*
D16*
X121525000Y-103300000D03*
X121525000Y-101170000D03*
D17*
X117725000Y-102235000D03*
D18*
X67310000Y-86360000D03*
X67310000Y-88900000D03*
X67310000Y-83820000D03*
D19*
X73342500Y-109126020D03*
X65087500Y-109126020D03*
X73342500Y-113123980D03*
X65087500Y-113123980D03*
D20*
X128905000Y-110744000D03*
X126365000Y-110744000D03*
D21*
X131318000Y-113919000D03*
X123952000Y-113919000D03*
D22*
X132359400Y-117475000D03*
X122910600Y-117475000D03*
D23*
X86741000Y-99695000D03*
X89789000Y-99695000D03*
D24*
X83220000Y-99695000D03*
X79340000Y-99695000D03*
D25*
X62230000Y-81915000D03*
X62230000Y-117475000D03*
X140970000Y-81915000D03*
D26*
X78740000Y-81915000D03*
X81280000Y-81915000D03*
D27*
X76200000Y-81915000D03*
D26*
X83820000Y-81915000D03*
X86360000Y-81915000D03*
X88900000Y-81915000D03*
X91440000Y-81915000D03*
X93980000Y-81915000D03*
X96520000Y-81915000D03*
X99060000Y-81915000D03*
X101600000Y-81915000D03*
X104140000Y-81915000D03*
X106680000Y-81915000D03*
X109220000Y-81915000D03*
X111760000Y-81915000D03*
X114300000Y-81915000D03*
X114300000Y-117475000D03*
X111760000Y-117475000D03*
X109220000Y-117475000D03*
X106680000Y-117475000D03*
X104140000Y-117475000D03*
X101600000Y-117475000D03*
X99060000Y-117475000D03*
X96520000Y-117475000D03*
X93980000Y-117475000D03*
X91440000Y-117475000D03*
X88900000Y-117475000D03*
X86360000Y-117475000D03*
X83820000Y-117475000D03*
X81280000Y-117475000D03*
X78740000Y-117475000D03*
X76200000Y-117475000D03*
D25*
X77470000Y-86995000D03*
X77470000Y-112395000D03*
X118110000Y-117475000D03*
X118110000Y-81915000D03*
D28*
X78740000Y-92075000D03*
D29*
X81280000Y-92075000D03*
X83820000Y-92075000D03*
X86360000Y-92075000D03*
X88900000Y-92075000D03*
X91440000Y-92075000D03*
X93980000Y-92075000D03*
X96520000Y-92075000D03*
X99060000Y-92075000D03*
X101600000Y-92075000D03*
X104140000Y-92075000D03*
X106680000Y-92075000D03*
X109220000Y-92075000D03*
X111760000Y-92075000D03*
X111760000Y-107315000D03*
X109220000Y-107315000D03*
X106680000Y-107315000D03*
X104140000Y-107315000D03*
X101600000Y-107315000D03*
X99060000Y-107315000D03*
X96520000Y-107315000D03*
X93980000Y-107315000D03*
X91440000Y-107315000D03*
X88900000Y-107315000D03*
X86360000Y-107315000D03*
X83820000Y-107315000D03*
X81280000Y-107315000D03*
X78740000Y-107315000D03*
D18*
X111760000Y-104775000D03*
X111760000Y-102235000D03*
X111760000Y-99695000D03*
X111760000Y-97155000D03*
X111760000Y-94615000D03*
D29*
X81280000Y-104267000D03*
X86360000Y-104267000D03*
X88900000Y-104267000D03*
X91440000Y-104267000D03*
X93980000Y-102743000D03*
X93980000Y-99187000D03*
X96520000Y-102743000D03*
X96520000Y-99187000D03*
X99060000Y-99187000D03*
X101600000Y-99187000D03*
X104140000Y-99187000D03*
X106680000Y-99187000D03*
X109220000Y-99187000D03*
X99060000Y-102743000D03*
X101600000Y-102743000D03*
X104140000Y-102743000D03*
X106680000Y-102743000D03*
X109220000Y-102743000D03*
D30*
X63500000Y-104775000D03*
X63500000Y-94615000D03*
D12*
X69596000Y-99695000D03*
D13*
X72390000Y-99695000D03*
X72390000Y-96901000D03*
X72390000Y-102489000D03*
D21*
X122682000Y-86741000D03*
X132588000Y-86741000D03*
D20*
X126365000Y-88646000D03*
X128905000Y-88646000D03*
D21*
X123952000Y-85471000D03*
X131318000Y-85471000D03*
D22*
X122910600Y-81915000D03*
X132359400Y-81915000D03*
D21*
X122682000Y-112649000D03*
X132588000Y-112649000D03*
D31*
X141147800Y-99695000D03*
D32*
X137642600Y-99695000D03*
D33*
X132156200Y-99695000D03*
D34*
X139141200Y-104190800D03*
X139141200Y-95199200D03*
D25*
X140970000Y-117475000D03*
D16*
X121525000Y-98220000D03*
X121525000Y-96090000D03*
D17*
X117725000Y-97155000D03*
D16*
X121525000Y-108380000D03*
X121525000Y-106250000D03*
D17*
X117725000Y-107315000D03*
D35*
X123290100Y-88048300D03*
X113382200Y-88048300D03*
X123204000Y-111276000D03*
X111008900Y-109900300D03*
X123108900Y-98220000D03*
X121525000Y-89346100D03*
X84311700Y-86473400D03*
X84022200Y-89657600D03*
X114422700Y-107297800D03*
X121275900Y-109990400D03*
X105058200Y-104561400D03*
X71436700Y-109199200D03*
X69224100Y-109619400D03*
D36*
X121525000Y-101170000D02*
X121525000Y-102833900D01*
X121525000Y-103300000D02*
X121525000Y-102833900D01*
X127785300Y-101170000D02*
X121525000Y-101170000D01*
X129260300Y-99695000D02*
X127785300Y-101170000D01*
X132156200Y-99695000D02*
X129260300Y-99695000D01*
D37*
X128905000Y-110744000D02*
X128905000Y-108218700D01*
X139954000Y-110490000D02*
X139954000Y-109298200D01*
X66753200Y-115711400D02*
X66753200Y-116459000D01*
X66850800Y-115613800D02*
X66753200Y-115711400D01*
X66850800Y-113124000D02*
X66850800Y-115613800D01*
X65087500Y-113124000D02*
X66850800Y-113124000D01*
X67945000Y-116459000D02*
X66753200Y-116459000D01*
X138874500Y-108218700D02*
X139954000Y-109298200D01*
X128905000Y-108218700D02*
X138874500Y-108218700D01*
X78740000Y-92075000D02*
X78740000Y-93774800D01*
X135220900Y-97487200D02*
X138150600Y-97487200D01*
X128905000Y-91171300D02*
X135220900Y-97487200D01*
X128905000Y-88646000D02*
X128905000Y-91171300D01*
X138150600Y-99695000D02*
X138150600Y-97487200D01*
X76962000Y-93774800D02*
X78740000Y-93774800D01*
X73581800Y-97155000D02*
X76962000Y-93774800D01*
X72390000Y-97155000D02*
X73581800Y-97155000D01*
X88724200Y-98896400D02*
X88724200Y-99695000D01*
X87693600Y-97865800D02*
X88724200Y-98896400D01*
X77951000Y-97865800D02*
X87693600Y-97865800D01*
X73581800Y-102235000D02*
X77951000Y-97865800D01*
X72390000Y-102235000D02*
X73581800Y-102235000D01*
X89789000Y-99695000D02*
X88724200Y-99695000D01*
X123290100Y-88048300D02*
X113382200Y-88048300D01*
X112384600Y-111276000D02*
X111008900Y-109900300D01*
X123204000Y-111276000D02*
X112384600Y-111276000D01*
D36*
X123108900Y-94861500D02*
X123108900Y-96090000D01*
X126365000Y-91605400D02*
X123108900Y-94861500D01*
X126365000Y-88646000D02*
X126365000Y-91605400D01*
X122317000Y-96090000D02*
X122317000Y-98220000D01*
X121525000Y-96090000D02*
X122317000Y-96090000D01*
X122317000Y-96090000D02*
X123108900Y-96090000D01*
X121525000Y-98220000D02*
X122317000Y-98220000D01*
X122317000Y-98220000D02*
X123108900Y-98220000D01*
X82895800Y-102133100D02*
X83220000Y-101808900D01*
X81280000Y-102133100D02*
X82895800Y-102133100D01*
X83220000Y-99695000D02*
X83220000Y-101808900D01*
X81280000Y-104775000D02*
X81280000Y-102133100D01*
X121525000Y-91010000D02*
X121525000Y-93140000D01*
X121525000Y-91010000D02*
X121525000Y-89346100D01*
X76200000Y-81915000D02*
X76200000Y-84048900D01*
X81887200Y-84048900D02*
X84311700Y-86473400D01*
X76200000Y-84048900D02*
X81887200Y-84048900D01*
D37*
X78740000Y-101974800D02*
X79340000Y-101374800D01*
X78740000Y-107315000D02*
X78740000Y-101974800D01*
X79340000Y-99695000D02*
X79340000Y-101374800D01*
X86360000Y-92075000D02*
X86360000Y-90375200D01*
X86360000Y-81915000D02*
X86360000Y-83614800D01*
X86360000Y-90375200D02*
X86360000Y-83614800D01*
X88900000Y-92075000D02*
X88900000Y-81915000D01*
X91440000Y-92075000D02*
X91440000Y-81915000D01*
X93980000Y-92075000D02*
X93980000Y-81915000D01*
X96520000Y-92075000D02*
X96520000Y-81915000D01*
X104140000Y-92075000D02*
X104140000Y-81915000D01*
X106680000Y-92075000D02*
X106680000Y-81915000D01*
X109220000Y-92075000D02*
X109220000Y-81915000D01*
X111760000Y-90375200D02*
X111760000Y-83614800D01*
X111760000Y-92075000D02*
X111760000Y-90375200D01*
X111760000Y-81915000D02*
X111760000Y-83614800D01*
X111760000Y-104775000D02*
X110060200Y-104775000D01*
X110157700Y-113332700D02*
X114300000Y-117475000D01*
X110157700Y-109547700D02*
X110157700Y-113332700D01*
X110449200Y-109256200D02*
X110157700Y-109547700D01*
X110449200Y-105657600D02*
X110449200Y-109256200D01*
X110060200Y-105268600D02*
X110449200Y-105657600D01*
X110060200Y-104775000D02*
X110060200Y-105268600D01*
D36*
X85976400Y-101828900D02*
X86741000Y-101828900D01*
X83820000Y-103985300D02*
X85976400Y-101828900D01*
X83820000Y-107315000D02*
X83820000Y-103985300D01*
X86741000Y-99695000D02*
X86741000Y-101828900D01*
D37*
X83820000Y-81915000D02*
X83820000Y-83614800D01*
X101600000Y-99695000D02*
X101600000Y-97487200D01*
X85480400Y-85275200D02*
X83820000Y-83614800D01*
X85480400Y-89593000D02*
X85480400Y-85275200D01*
X85190900Y-89882500D02*
X85480400Y-89593000D01*
X85190900Y-93084400D02*
X85190900Y-89882500D01*
X86073300Y-93966800D02*
X85190900Y-93084400D01*
X98079600Y-93966800D02*
X86073300Y-93966800D01*
X101600000Y-97487200D02*
X98079600Y-93966800D01*
X100266100Y-83121100D02*
X99060000Y-81915000D01*
X100266100Y-93110400D02*
X100266100Y-83121100D01*
X105410000Y-98254300D02*
X100266100Y-93110400D01*
X105410000Y-100965000D02*
X105410000Y-98254300D01*
X106680000Y-102235000D02*
X105410000Y-100965000D01*
X102806100Y-83121100D02*
X101600000Y-81915000D01*
X102806100Y-93104100D02*
X102806100Y-83121100D01*
X107950000Y-98248000D02*
X102806100Y-93104100D01*
X107950000Y-100146100D02*
X107950000Y-98248000D01*
X108847100Y-101043200D02*
X107950000Y-100146100D01*
X109220000Y-101043200D02*
X108847100Y-101043200D01*
X109220000Y-102235000D02*
X109220000Y-101043200D01*
X112525500Y-83689500D02*
X114300000Y-81915000D01*
X112525500Y-89893500D02*
X112525500Y-83689500D01*
X113572200Y-90940200D02*
X112525500Y-89893500D01*
X113572200Y-95125800D02*
X113572200Y-90940200D01*
X112813000Y-95885000D02*
X113572200Y-95125800D01*
X110686100Y-95885000D02*
X112813000Y-95885000D01*
X109220000Y-97351100D02*
X110686100Y-95885000D01*
X109220000Y-99695000D02*
X109220000Y-97351100D01*
X98404200Y-105098600D02*
X99060000Y-104442800D01*
X93992900Y-105098600D02*
X98404200Y-105098600D01*
X92710000Y-106381500D02*
X93992900Y-105098600D01*
X92710000Y-108281200D02*
X92710000Y-106381500D01*
X91819300Y-109171900D02*
X92710000Y-108281200D01*
X77084900Y-109171900D02*
X91819300Y-109171900D01*
X69850000Y-101937000D02*
X77084900Y-109171900D01*
X69850000Y-99695000D02*
X69850000Y-101937000D01*
X99060000Y-102235000D02*
X99060000Y-104442800D01*
X101521800Y-100965000D02*
X101600000Y-101043200D01*
X93424800Y-100965000D02*
X101521800Y-100965000D01*
X90833600Y-98373800D02*
X93424800Y-100965000D01*
X90833600Y-98200900D02*
X90833600Y-98373800D01*
X89778500Y-97145800D02*
X90833600Y-98200900D01*
X76131000Y-97145800D02*
X89778500Y-97145800D01*
X73581800Y-99695000D02*
X76131000Y-97145800D01*
X72390000Y-99695000D02*
X73581800Y-99695000D01*
X101600000Y-102235000D02*
X101600000Y-101043200D01*
D36*
X117725000Y-97155000D02*
X117725000Y-92075000D01*
X117725000Y-107315000D02*
X117725000Y-102235000D01*
X117725000Y-102235000D02*
X117725000Y-97155000D01*
X76380300Y-89657600D02*
X84022200Y-89657600D01*
X70542700Y-83820000D02*
X76380300Y-89657600D01*
X67310000Y-83820000D02*
X70542700Y-83820000D01*
X117725000Y-107315000D02*
X114381100Y-107315000D01*
X114398300Y-107297800D02*
X114422700Y-107297800D01*
X114381100Y-107315000D02*
X114398300Y-107297800D01*
X126365000Y-110744000D02*
X126365000Y-107784600D01*
X121525000Y-106250000D02*
X121525000Y-107913900D01*
X123704300Y-107784600D02*
X123108900Y-108380000D01*
X126365000Y-107784600D02*
X123704300Y-107784600D01*
X121525000Y-108380000D02*
X121525000Y-107913900D01*
X121525000Y-108380000D02*
X123108900Y-108380000D01*
X121525000Y-108380000D02*
X121525000Y-110043900D01*
X121329400Y-110043900D02*
X121275900Y-109990400D01*
X121525000Y-110043900D02*
X121329400Y-110043900D01*
D37*
X67945000Y-118999000D02*
X69136800Y-118999000D01*
X69136800Y-115830800D02*
X69136800Y-118999000D01*
X70280300Y-114687300D02*
X69136800Y-115830800D01*
X96438800Y-114687300D02*
X70280300Y-114687300D01*
X102870000Y-108256100D02*
X96438800Y-114687300D01*
X102870000Y-106376000D02*
X102870000Y-108256100D01*
X103990400Y-105255600D02*
X102870000Y-106376000D01*
X104364000Y-105255600D02*
X103990400Y-105255600D01*
X105058200Y-104561400D02*
X104364000Y-105255600D01*
X75276700Y-115399100D02*
X71676800Y-118999000D01*
X100776000Y-115399100D02*
X75276700Y-115399100D01*
X107870600Y-108304500D02*
X100776000Y-115399100D01*
X107870600Y-101744200D02*
X107870600Y-108304500D01*
X107013200Y-100886800D02*
X107870600Y-101744200D01*
X106680000Y-100886800D02*
X107013200Y-100886800D01*
X106680000Y-99695000D02*
X106680000Y-100886800D01*
X70485000Y-118999000D02*
X71676800Y-118999000D01*
X73342500Y-109126000D02*
X71579200Y-109126000D01*
X71506000Y-109199200D02*
X71436700Y-109199200D01*
X71579200Y-109126000D02*
X71506000Y-109199200D01*
X104140000Y-102235000D02*
X104140000Y-104442800D01*
X69983400Y-110378700D02*
X69224100Y-109619400D01*
X74815800Y-110378700D02*
X69983400Y-110378700D01*
X75244300Y-109950200D02*
X74815800Y-110378700D01*
X98652400Y-109950200D02*
X75244300Y-109950200D01*
X100330000Y-108272600D02*
X98652400Y-109950200D01*
X100330000Y-106362800D02*
X100330000Y-108272600D01*
X102250000Y-104442800D02*
X100330000Y-106362800D01*
X104140000Y-104442800D02*
X102250000Y-104442800D01*
X142660400Y-109131800D02*
X142494000Y-109298200D01*
X142660400Y-94696100D02*
X142660400Y-109131800D01*
X139404300Y-91440000D02*
X142660400Y-94696100D01*
X136525000Y-91440000D02*
X139404300Y-91440000D01*
X142494000Y-110490000D02*
X142494000Y-109298200D01*
D38*
G36*
X143725900Y-110031510D02*
X143528218Y-109735658D01*
X143182123Y-109504405D01*
X143136561Y-109495342D01*
X143223597Y-109365084D01*
X143226816Y-109348899D01*
X143270000Y-109131800D01*
X143270000Y-94696100D01*
X143223597Y-94462816D01*
X143091452Y-94265048D01*
X139835352Y-91008948D01*
X139637584Y-90876803D01*
X139404300Y-90830400D01*
X138105771Y-90830400D01*
X138105771Y-90512900D01*
X138082115Y-90393973D01*
X138014748Y-90293152D01*
X137913927Y-90225785D01*
X137795000Y-90202129D01*
X135255000Y-90202129D01*
X135136073Y-90225785D01*
X135035252Y-90293152D01*
X134967885Y-90393973D01*
X134944229Y-90512900D01*
X134944229Y-92367100D01*
X134967885Y-92486027D01*
X135035252Y-92586848D01*
X135136073Y-92654215D01*
X135255000Y-92677871D01*
X137795000Y-92677871D01*
X137913927Y-92654215D01*
X138014748Y-92586848D01*
X138082115Y-92486027D01*
X138105771Y-92367100D01*
X138105771Y-92049600D01*
X139151796Y-92049600D01*
X140283071Y-93180875D01*
X139958933Y-93116400D01*
X138323467Y-93116400D01*
X137526414Y-93274944D01*
X136850705Y-93726438D01*
X136399211Y-94402147D01*
X136240667Y-95199200D01*
X136399211Y-95996253D01*
X136850705Y-96671962D01*
X137526414Y-97123456D01*
X138323467Y-97282000D01*
X139958933Y-97282000D01*
X140755986Y-97123456D01*
X141431695Y-96671962D01*
X141883189Y-95996253D01*
X142041733Y-95199200D01*
X141977258Y-94875062D01*
X142050800Y-94948604D01*
X142050800Y-98801956D01*
X141868137Y-98618974D01*
X141401527Y-98425221D01*
X140896290Y-98424780D01*
X140429342Y-98617718D01*
X140308352Y-98738498D01*
X139946651Y-98114475D01*
X139205094Y-97547466D01*
X138303000Y-97307400D01*
X137795000Y-97307400D01*
X137795000Y-99542600D01*
X137815000Y-99542600D01*
X137815000Y-99847400D01*
X137795000Y-99847400D01*
X137795000Y-102082600D01*
X138303000Y-102082600D01*
X139205094Y-101842534D01*
X139946651Y-101275525D01*
X140308277Y-100651632D01*
X140427463Y-100771026D01*
X140894073Y-100964779D01*
X141399310Y-100965220D01*
X141866258Y-100772282D01*
X142050800Y-100588062D01*
X142050800Y-108885329D01*
X141930803Y-109064916D01*
X141884400Y-109298200D01*
X141884400Y-109488786D01*
X141805877Y-109504405D01*
X141459782Y-109735658D01*
X141393469Y-109834903D01*
X141262480Y-109598292D01*
X140840970Y-109262637D01*
X140323096Y-109113837D01*
X140106400Y-109265175D01*
X140106400Y-110337600D01*
X140126400Y-110337600D01*
X140126400Y-110642400D01*
X140106400Y-110642400D01*
X140106400Y-111714825D01*
X140323096Y-111866163D01*
X140840970Y-111717363D01*
X141262480Y-111381708D01*
X141393469Y-111145097D01*
X141459782Y-111244342D01*
X141805877Y-111475595D01*
X142214124Y-111556800D01*
X142773876Y-111556800D01*
X143182123Y-111475595D01*
X143528218Y-111244342D01*
X143725900Y-110948490D01*
X143725900Y-120230900D01*
X70943490Y-120230900D01*
X71239342Y-120033218D01*
X71470595Y-119687123D01*
X71486214Y-119608600D01*
X71676800Y-119608600D01*
X71910084Y-119562197D01*
X72107852Y-119430052D01*
X75188961Y-116348944D01*
X75014940Y-116609385D01*
X74917300Y-117100253D01*
X74917300Y-117849747D01*
X75014940Y-118340615D01*
X75292994Y-118756753D01*
X75709132Y-119034807D01*
X76200000Y-119132447D01*
X76690868Y-119034807D01*
X77107006Y-118756753D01*
X77385060Y-118340615D01*
X77482700Y-117849747D01*
X77482700Y-117100253D01*
X77385060Y-116609385D01*
X77107006Y-116193247D01*
X76830811Y-116008700D01*
X78200358Y-116008700D01*
X77868915Y-116230163D01*
X77601873Y-116629820D01*
X77508100Y-117101248D01*
X77508100Y-117848752D01*
X77601873Y-118320180D01*
X77868915Y-118719837D01*
X78268572Y-118986879D01*
X78740000Y-119080652D01*
X79211428Y-118986879D01*
X79611085Y-118719837D01*
X79878127Y-118320180D01*
X79971900Y-117848752D01*
X79971900Y-117101248D01*
X79878127Y-116629820D01*
X79611085Y-116230163D01*
X79279642Y-116008700D01*
X80649189Y-116008700D01*
X80372994Y-116193247D01*
X80094940Y-116609385D01*
X79997300Y-117100253D01*
X79997300Y-117849747D01*
X80094940Y-118340615D01*
X80372994Y-118756753D01*
X80789132Y-119034807D01*
X81280000Y-119132447D01*
X81770868Y-119034807D01*
X82187006Y-118756753D01*
X82465060Y-118340615D01*
X82550000Y-117913594D01*
X82634940Y-118340615D01*
X82912994Y-118756753D01*
X83329132Y-119034807D01*
X83820000Y-119132447D01*
X84310868Y-119034807D01*
X84727006Y-118756753D01*
X85005060Y-118340615D01*
X85102700Y-117849747D01*
X85102700Y-117100253D01*
X85005060Y-116609385D01*
X84727006Y-116193247D01*
X84450811Y-116008700D01*
X85820358Y-116008700D01*
X85488915Y-116230163D01*
X85221873Y-116629820D01*
X85128100Y-117101248D01*
X85128100Y-117848752D01*
X85221873Y-118320180D01*
X85488915Y-118719837D01*
X85888572Y-118986879D01*
X86360000Y-119080652D01*
X86831428Y-118986879D01*
X87231085Y-118719837D01*
X87498127Y-118320180D01*
X87591900Y-117848752D01*
X87591900Y-117101248D01*
X87498127Y-116629820D01*
X87231085Y-116230163D01*
X86899642Y-116008700D01*
X88360358Y-116008700D01*
X88028915Y-116230163D01*
X87761873Y-116629820D01*
X87668100Y-117101248D01*
X87668100Y-117848752D01*
X87761873Y-118320180D01*
X88028915Y-118719837D01*
X88428572Y-118986879D01*
X88900000Y-119080652D01*
X89371428Y-118986879D01*
X89771085Y-118719837D01*
X90038127Y-118320180D01*
X90131900Y-117848752D01*
X90131900Y-117101248D01*
X90038127Y-116629820D01*
X89771085Y-116230163D01*
X89439642Y-116008700D01*
X90900358Y-116008700D01*
X90568915Y-116230163D01*
X90301873Y-116629820D01*
X90208100Y-117101248D01*
X90208100Y-117848752D01*
X90301873Y-118320180D01*
X90568915Y-118719837D01*
X90968572Y-118986879D01*
X91440000Y-119080652D01*
X91911428Y-118986879D01*
X92311085Y-118719837D01*
X92578127Y-118320180D01*
X92671900Y-117848752D01*
X92671900Y-117101248D01*
X92578127Y-116629820D01*
X92311085Y-116230163D01*
X91979642Y-116008700D01*
X93440358Y-116008700D01*
X93108915Y-116230163D01*
X92841873Y-116629820D01*
X92748100Y-117101248D01*
X92748100Y-117848752D01*
X92841873Y-118320180D01*
X93108915Y-118719837D01*
X93508572Y-118986879D01*
X93980000Y-119080652D01*
X94451428Y-118986879D01*
X94851085Y-118719837D01*
X95118127Y-118320180D01*
X95211900Y-117848752D01*
X95211900Y-117101248D01*
X95118127Y-116629820D01*
X94851085Y-116230163D01*
X94519642Y-116008700D01*
X95980358Y-116008700D01*
X95648915Y-116230163D01*
X95381873Y-116629820D01*
X95288100Y-117101248D01*
X95288100Y-117848752D01*
X95381873Y-118320180D01*
X95648915Y-118719837D01*
X96048572Y-118986879D01*
X96520000Y-119080652D01*
X96991428Y-118986879D01*
X97391085Y-118719837D01*
X97658127Y-118320180D01*
X97751900Y-117848752D01*
X97751900Y-117101248D01*
X97658127Y-116629820D01*
X97391085Y-116230163D01*
X97059642Y-116008700D01*
X98520358Y-116008700D01*
X98188915Y-116230163D01*
X97921873Y-116629820D01*
X97828100Y-117101248D01*
X97828100Y-117848752D01*
X97921873Y-118320180D01*
X98188915Y-118719837D01*
X98588572Y-118986879D01*
X99060000Y-119080652D01*
X99531428Y-118986879D01*
X99931085Y-118719837D01*
X100198127Y-118320180D01*
X100291900Y-117848752D01*
X100291900Y-117101248D01*
X100368100Y-117101248D01*
X100368100Y-117848752D01*
X100461873Y-118320180D01*
X100728915Y-118719837D01*
X101128572Y-118986879D01*
X101600000Y-119080652D01*
X102071428Y-118986879D01*
X102471085Y-118719837D01*
X102738127Y-118320180D01*
X102831900Y-117848752D01*
X102831900Y-117101248D01*
X102908100Y-117101248D01*
X102908100Y-117848752D01*
X103001873Y-118320180D01*
X103268915Y-118719837D01*
X103668572Y-118986879D01*
X104140000Y-119080652D01*
X104611428Y-118986879D01*
X105011085Y-118719837D01*
X105278127Y-118320180D01*
X105371900Y-117848752D01*
X105371900Y-117101248D01*
X105448100Y-117101248D01*
X105448100Y-117848752D01*
X105541873Y-118320180D01*
X105808915Y-118719837D01*
X106208572Y-118986879D01*
X106680000Y-119080652D01*
X107151428Y-118986879D01*
X107551085Y-118719837D01*
X107818127Y-118320180D01*
X107911900Y-117848752D01*
X107911900Y-117101248D01*
X107988100Y-117101248D01*
X107988100Y-117848752D01*
X108081873Y-118320180D01*
X108348915Y-118719837D01*
X108748572Y-118986879D01*
X109220000Y-119080652D01*
X109691428Y-118986879D01*
X110091085Y-118719837D01*
X110358127Y-118320180D01*
X110451900Y-117848752D01*
X110451900Y-117101248D01*
X110358127Y-116629820D01*
X110091085Y-116230163D01*
X109691428Y-115963121D01*
X109220000Y-115869348D01*
X108748572Y-115963121D01*
X108348915Y-116230163D01*
X108081873Y-116629820D01*
X107988100Y-117101248D01*
X107911900Y-117101248D01*
X107818127Y-116629820D01*
X107551085Y-116230163D01*
X107151428Y-115963121D01*
X106680000Y-115869348D01*
X106208572Y-115963121D01*
X105808915Y-116230163D01*
X105541873Y-116629820D01*
X105448100Y-117101248D01*
X105371900Y-117101248D01*
X105278127Y-116629820D01*
X105011085Y-116230163D01*
X104611428Y-115963121D01*
X104140000Y-115869348D01*
X103668572Y-115963121D01*
X103268915Y-116230163D01*
X103001873Y-116629820D01*
X102908100Y-117101248D01*
X102831900Y-117101248D01*
X102738127Y-116629820D01*
X102471085Y-116230163D01*
X102071428Y-115963121D01*
X101600000Y-115869348D01*
X101128572Y-115963121D01*
X100728915Y-116230163D01*
X100461873Y-116629820D01*
X100368100Y-117101248D01*
X100291900Y-117101248D01*
X100198127Y-116629820D01*
X99931085Y-116230163D01*
X99599642Y-116008700D01*
X100776000Y-116008700D01*
X101009284Y-115962297D01*
X101207052Y-115830152D01*
X108301653Y-108735552D01*
X108386750Y-108608194D01*
X108426204Y-108549147D01*
X108465658Y-108608194D01*
X108811753Y-108839447D01*
X109220000Y-108920652D01*
X109628247Y-108839447D01*
X109839600Y-108698226D01*
X109839600Y-109003696D01*
X109726648Y-109116648D01*
X109594503Y-109314416D01*
X109548100Y-109547700D01*
X109548100Y-113332700D01*
X109594503Y-113565984D01*
X109726648Y-113763752D01*
X111850182Y-115887286D01*
X111760000Y-115869348D01*
X111288572Y-115963121D01*
X110888915Y-116230163D01*
X110621873Y-116629820D01*
X110528100Y-117101248D01*
X110528100Y-117848752D01*
X110621873Y-118320180D01*
X110888915Y-118719837D01*
X111288572Y-118986879D01*
X111760000Y-119080652D01*
X112231428Y-118986879D01*
X112631085Y-118719837D01*
X112898127Y-118320180D01*
X112991900Y-117848752D01*
X112991900Y-117101248D01*
X112973962Y-117011066D01*
X113068100Y-117105204D01*
X113068100Y-117848752D01*
X113161873Y-118320180D01*
X113428915Y-118719837D01*
X113828572Y-118986879D01*
X114300000Y-119080652D01*
X114771428Y-118986879D01*
X115171085Y-118719837D01*
X115438127Y-118320180D01*
X115524197Y-117887477D01*
X116026840Y-117887477D01*
X116343259Y-118653270D01*
X116928648Y-119239682D01*
X117693888Y-119557437D01*
X118522477Y-119558160D01*
X119288270Y-119241741D01*
X119874682Y-118656352D01*
X120192437Y-117891112D01*
X120193160Y-117062523D01*
X119876741Y-116296730D01*
X119291352Y-115710318D01*
X118526112Y-115392563D01*
X117697523Y-115391840D01*
X116931730Y-115708259D01*
X116345318Y-116293648D01*
X116027563Y-117058888D01*
X116026840Y-117887477D01*
X115524197Y-117887477D01*
X115531900Y-117848752D01*
X115531900Y-117101248D01*
X115438127Y-116629820D01*
X115171085Y-116230163D01*
X114771428Y-115963121D01*
X114300000Y-115869348D01*
X113828572Y-115963121D01*
X113721661Y-116034557D01*
X110767300Y-113080196D01*
X110767300Y-110611310D01*
X110859201Y-110649470D01*
X110895998Y-110649502D01*
X111953548Y-111707053D01*
X112072102Y-111786267D01*
X112151316Y-111839197D01*
X112384600Y-111885600D01*
X122026613Y-111885600D01*
X121831939Y-112079934D01*
X121678874Y-112448556D01*
X121678526Y-112847693D01*
X121830948Y-113216581D01*
X122112934Y-113499061D01*
X122481556Y-113652126D01*
X122880693Y-113652474D01*
X122996117Y-113604781D01*
X122948874Y-113718556D01*
X122948526Y-114117693D01*
X123100948Y-114486581D01*
X123365133Y-114751229D01*
X121513600Y-114751229D01*
X121394673Y-114774885D01*
X121293852Y-114842252D01*
X121226485Y-114943073D01*
X121202829Y-115062000D01*
X121202829Y-119888000D01*
X121226485Y-120006927D01*
X121293852Y-120107748D01*
X121394673Y-120175115D01*
X121513600Y-120198771D01*
X124307600Y-120198771D01*
X124426527Y-120175115D01*
X124527348Y-120107748D01*
X124594715Y-120006927D01*
X124618371Y-119888000D01*
X124618371Y-115062000D01*
X124594715Y-114943073D01*
X124527348Y-114842252D01*
X124457614Y-114795657D01*
X124519581Y-114770052D01*
X124802061Y-114488066D01*
X124955126Y-114119444D01*
X124955127Y-114117693D01*
X130314526Y-114117693D01*
X130466948Y-114486581D01*
X130748934Y-114769061D01*
X130812615Y-114795504D01*
X130742652Y-114842252D01*
X130675285Y-114943073D01*
X130651629Y-115062000D01*
X130651629Y-119888000D01*
X130675285Y-120006927D01*
X130742652Y-120107748D01*
X130843473Y-120175115D01*
X130962400Y-120198771D01*
X133756400Y-120198771D01*
X133875327Y-120175115D01*
X133976148Y-120107748D01*
X134043515Y-120006927D01*
X134067171Y-119888000D01*
X134067171Y-117887477D01*
X138886840Y-117887477D01*
X139203259Y-118653270D01*
X139788648Y-119239682D01*
X140553888Y-119557437D01*
X141382477Y-119558160D01*
X142148270Y-119241741D01*
X142734682Y-118656352D01*
X143052437Y-117891112D01*
X143053160Y-117062523D01*
X142736741Y-116296730D01*
X142151352Y-115710318D01*
X141386112Y-115392563D01*
X140557523Y-115391840D01*
X139791730Y-115708259D01*
X139205318Y-116293648D01*
X138887563Y-117058888D01*
X138886840Y-117887477D01*
X134067171Y-117887477D01*
X134067171Y-115062000D01*
X134043515Y-114943073D01*
X133976148Y-114842252D01*
X133875327Y-114774885D01*
X133756400Y-114751229D01*
X131904437Y-114751229D01*
X132168061Y-114488066D01*
X132321126Y-114119444D01*
X132321474Y-113720307D01*
X132273781Y-113604883D01*
X132387556Y-113652126D01*
X132786693Y-113652474D01*
X133155581Y-113500052D01*
X133438061Y-113218066D01*
X133591126Y-112849444D01*
X133591474Y-112450307D01*
X133439052Y-112081419D01*
X133157066Y-111798939D01*
X132788444Y-111645874D01*
X132389307Y-111645526D01*
X132020419Y-111797948D01*
X131737939Y-112079934D01*
X131584874Y-112448556D01*
X131584526Y-112847693D01*
X131632219Y-112963117D01*
X131518444Y-112915874D01*
X131119307Y-112915526D01*
X130750419Y-113067948D01*
X130467939Y-113349934D01*
X130314874Y-113718556D01*
X130314526Y-114117693D01*
X124955127Y-114117693D01*
X124955474Y-113720307D01*
X124803052Y-113351419D01*
X124521066Y-113068939D01*
X124152444Y-112915874D01*
X123753307Y-112915526D01*
X123637883Y-112963219D01*
X123685126Y-112849444D01*
X123685474Y-112450307D01*
X123533052Y-112081419D01*
X123440726Y-111988931D01*
X123627890Y-111911596D01*
X123838856Y-111700999D01*
X123953170Y-111425699D01*
X123953430Y-111127609D01*
X123839596Y-110852110D01*
X123628999Y-110641144D01*
X123353699Y-110526830D01*
X123055609Y-110526570D01*
X122780110Y-110640404D01*
X122754068Y-110666400D01*
X122247589Y-110666400D01*
X122416729Y-110413266D01*
X122490200Y-110043900D01*
X122490200Y-109361657D01*
X122501196Y-109345200D01*
X123108900Y-109345200D01*
X123478266Y-109271729D01*
X123791399Y-109062499D01*
X124104099Y-108749800D01*
X125113434Y-108749800D01*
X125113434Y-112839500D01*
X125141033Y-112978248D01*
X125219627Y-113095873D01*
X125337252Y-113174467D01*
X125476000Y-113202066D01*
X127254000Y-113202066D01*
X127392748Y-113174467D01*
X127472773Y-113120996D01*
X127499206Y-113184811D01*
X127670689Y-113356294D01*
X127894743Y-113449100D01*
X128600200Y-113449100D01*
X128752600Y-113296700D01*
X128752600Y-110896400D01*
X129057400Y-110896400D01*
X129057400Y-113296700D01*
X129209800Y-113449100D01*
X129915257Y-113449100D01*
X130139311Y-113356294D01*
X130310794Y-113184811D01*
X130403600Y-112960757D01*
X130403600Y-111048800D01*
X130251200Y-110896400D01*
X129057400Y-110896400D01*
X128752600Y-110896400D01*
X128732600Y-110896400D01*
X128732600Y-110853761D01*
X138377516Y-110853761D01*
X138384546Y-110910299D01*
X138645520Y-111381708D01*
X139067030Y-111717363D01*
X139584904Y-111866163D01*
X139801600Y-111714825D01*
X139801600Y-110642400D01*
X138490363Y-110642400D01*
X138377516Y-110853761D01*
X128732600Y-110853761D01*
X128732600Y-110591600D01*
X128752600Y-110591600D01*
X128752600Y-108191300D01*
X129057400Y-108191300D01*
X129057400Y-110591600D01*
X130251200Y-110591600D01*
X130403600Y-110439200D01*
X130403600Y-110126239D01*
X138377516Y-110126239D01*
X138490363Y-110337600D01*
X139801600Y-110337600D01*
X139801600Y-109265175D01*
X139584904Y-109113837D01*
X139067030Y-109262637D01*
X138645520Y-109598292D01*
X138384546Y-110069701D01*
X138377516Y-110126239D01*
X130403600Y-110126239D01*
X130403600Y-108527243D01*
X130310794Y-108303189D01*
X130139311Y-108131706D01*
X129915257Y-108038900D01*
X129209800Y-108038900D01*
X129057400Y-108191300D01*
X128752600Y-108191300D01*
X128600200Y-108038900D01*
X127894743Y-108038900D01*
X127670689Y-108131706D01*
X127499206Y-108303189D01*
X127472773Y-108367004D01*
X127392748Y-108313533D01*
X127330200Y-108301091D01*
X127330200Y-107784600D01*
X127256729Y-107415234D01*
X127047499Y-107102101D01*
X126734366Y-106892871D01*
X126365000Y-106819400D01*
X123704300Y-106819400D01*
X123334934Y-106892871D01*
X123021801Y-107102100D01*
X122709102Y-107414800D01*
X122501196Y-107414800D01*
X122490200Y-107398343D01*
X122490200Y-107231657D01*
X122532115Y-107168927D01*
X122555771Y-107050000D01*
X122555771Y-105450000D01*
X122532115Y-105331073D01*
X122464748Y-105230252D01*
X122363927Y-105162885D01*
X122245000Y-105139229D01*
X120805000Y-105139229D01*
X120686073Y-105162885D01*
X120585252Y-105230252D01*
X120517885Y-105331073D01*
X120508481Y-105378350D01*
X120492115Y-105296073D01*
X120424748Y-105195252D01*
X120323927Y-105127885D01*
X120205000Y-105104229D01*
X118690200Y-105104229D01*
X118690200Y-104445771D01*
X120205000Y-104445771D01*
X120323927Y-104422115D01*
X120424748Y-104354748D01*
X120492115Y-104253927D01*
X120508481Y-104171650D01*
X120517885Y-104218927D01*
X120585252Y-104319748D01*
X120686073Y-104387115D01*
X120805000Y-104410771D01*
X122245000Y-104410771D01*
X122363927Y-104387115D01*
X122464748Y-104319748D01*
X122532115Y-104218927D01*
X122537709Y-104190800D01*
X136240667Y-104190800D01*
X136399211Y-104987853D01*
X136850705Y-105663562D01*
X137526414Y-106115056D01*
X138323467Y-106273600D01*
X139958933Y-106273600D01*
X140755986Y-106115056D01*
X141431695Y-105663562D01*
X141883189Y-104987853D01*
X142041733Y-104190800D01*
X141883189Y-103393747D01*
X141431695Y-102718038D01*
X140755986Y-102266544D01*
X139958933Y-102108000D01*
X138323467Y-102108000D01*
X137526414Y-102266544D01*
X136850705Y-102718038D01*
X136399211Y-103393747D01*
X136240667Y-104190800D01*
X122537709Y-104190800D01*
X122555771Y-104100000D01*
X122555771Y-102500000D01*
X122532115Y-102381073D01*
X122490200Y-102318343D01*
X122490200Y-102151657D01*
X122501196Y-102135200D01*
X127785300Y-102135200D01*
X128154666Y-102061729D01*
X128467799Y-101852499D01*
X129660098Y-100660200D01*
X129848259Y-100660200D01*
X129950345Y-101173423D01*
X130467912Y-101948016D01*
X131242505Y-102465583D01*
X132156200Y-102647328D01*
X133069895Y-102465583D01*
X133844488Y-101948016D01*
X134362055Y-101173423D01*
X134543800Y-100259728D01*
X134543800Y-100218265D01*
X134805045Y-100218265D01*
X134870425Y-100467896D01*
X135338549Y-101275525D01*
X136080106Y-101842534D01*
X136982200Y-102082600D01*
X137490200Y-102082600D01*
X137490200Y-99847400D01*
X134904602Y-99847400D01*
X134805045Y-100218265D01*
X134543800Y-100218265D01*
X134543800Y-99171735D01*
X134805045Y-99171735D01*
X134904602Y-99542600D01*
X137490200Y-99542600D01*
X137490200Y-97307400D01*
X136982200Y-97307400D01*
X136080106Y-97547466D01*
X135338549Y-98114475D01*
X134870425Y-98922104D01*
X134805045Y-99171735D01*
X134543800Y-99171735D01*
X134543800Y-99130272D01*
X134362055Y-98216577D01*
X133844488Y-97441984D01*
X133069895Y-96924417D01*
X132156200Y-96742672D01*
X131242505Y-96924417D01*
X130467912Y-97441984D01*
X129950345Y-98216577D01*
X129848259Y-98729800D01*
X129260300Y-98729800D01*
X128890934Y-98803271D01*
X128577801Y-99012501D01*
X127385502Y-100204800D01*
X122501196Y-100204800D01*
X122464748Y-100150252D01*
X122363927Y-100082885D01*
X122245000Y-100059229D01*
X120805000Y-100059229D01*
X120686073Y-100082885D01*
X120585252Y-100150252D01*
X120517885Y-100251073D01*
X120508481Y-100298350D01*
X120492115Y-100216073D01*
X120424748Y-100115252D01*
X120323927Y-100047885D01*
X120205000Y-100024229D01*
X118690200Y-100024229D01*
X118690200Y-99365771D01*
X120205000Y-99365771D01*
X120323927Y-99342115D01*
X120424748Y-99274748D01*
X120492115Y-99173927D01*
X120508481Y-99091650D01*
X120517885Y-99138927D01*
X120585252Y-99239748D01*
X120686073Y-99307115D01*
X120805000Y-99330771D01*
X122245000Y-99330771D01*
X122363927Y-99307115D01*
X122464748Y-99239748D01*
X122501196Y-99185200D01*
X123108900Y-99185200D01*
X123478266Y-99111729D01*
X123791399Y-98902499D01*
X124000629Y-98589366D01*
X124074100Y-98220000D01*
X124000629Y-97850634D01*
X123791399Y-97537501D01*
X123478266Y-97328271D01*
X123282200Y-97289271D01*
X123282200Y-97020729D01*
X123478266Y-96981729D01*
X123791399Y-96772499D01*
X124000629Y-96459366D01*
X124074100Y-96090000D01*
X124074100Y-95261298D01*
X127047500Y-92287899D01*
X127256729Y-91974766D01*
X127277359Y-91871052D01*
X127330200Y-91605400D01*
X127330200Y-91088909D01*
X127392748Y-91076467D01*
X127472773Y-91022996D01*
X127499206Y-91086811D01*
X127670689Y-91258294D01*
X127894743Y-91351100D01*
X128600200Y-91351100D01*
X128752600Y-91198700D01*
X128752600Y-88798400D01*
X129057400Y-88798400D01*
X129057400Y-91198700D01*
X129209800Y-91351100D01*
X129915257Y-91351100D01*
X130139311Y-91258294D01*
X130310794Y-91086811D01*
X130403600Y-90862757D01*
X130403600Y-88950800D01*
X130352800Y-88900000D01*
X134919348Y-88900000D01*
X135013121Y-89371428D01*
X135280163Y-89771085D01*
X135679820Y-90038127D01*
X136151248Y-90131900D01*
X136898752Y-90131900D01*
X137370180Y-90038127D01*
X137769837Y-89771085D01*
X138036879Y-89371428D01*
X138130652Y-88900000D01*
X138036879Y-88428572D01*
X137769837Y-88028915D01*
X137370180Y-87761873D01*
X136898752Y-87668100D01*
X136151248Y-87668100D01*
X135679820Y-87761873D01*
X135280163Y-88028915D01*
X135013121Y-88428572D01*
X134919348Y-88900000D01*
X130352800Y-88900000D01*
X130251200Y-88798400D01*
X129057400Y-88798400D01*
X128752600Y-88798400D01*
X128732600Y-88798400D01*
X128732600Y-88493600D01*
X128752600Y-88493600D01*
X128752600Y-86093300D01*
X129057400Y-86093300D01*
X129057400Y-88493600D01*
X130251200Y-88493600D01*
X130403600Y-88341200D01*
X130403600Y-86429243D01*
X130310794Y-86205189D01*
X130139311Y-86033706D01*
X129915257Y-85940900D01*
X129209800Y-85940900D01*
X129057400Y-86093300D01*
X128752600Y-86093300D01*
X128600200Y-85940900D01*
X127894743Y-85940900D01*
X127670689Y-86033706D01*
X127499206Y-86205189D01*
X127472773Y-86269004D01*
X127392748Y-86215533D01*
X127254000Y-86187934D01*
X125476000Y-86187934D01*
X125337252Y-86215533D01*
X125219627Y-86294127D01*
X125141033Y-86411752D01*
X125113434Y-86550500D01*
X125113434Y-90741500D01*
X125141033Y-90880248D01*
X125219627Y-90997873D01*
X125337252Y-91076467D01*
X125399800Y-91088909D01*
X125399800Y-91205601D01*
X122503198Y-94102204D01*
X122532115Y-94058927D01*
X122555771Y-93940000D01*
X122555771Y-92340000D01*
X122532115Y-92221073D01*
X122490200Y-92158343D01*
X122490200Y-91991657D01*
X122532115Y-91928927D01*
X122555771Y-91810000D01*
X122555771Y-90210000D01*
X122532115Y-90091073D01*
X122490200Y-90028343D01*
X122490200Y-89346100D01*
X122416729Y-88976734D01*
X122207499Y-88663601D01*
X122198967Y-88657900D01*
X122839889Y-88657900D01*
X122865101Y-88683156D01*
X123140401Y-88797470D01*
X123438491Y-88797730D01*
X123713990Y-88683896D01*
X123924956Y-88473299D01*
X124039270Y-88197999D01*
X124039530Y-87899909D01*
X123925696Y-87624410D01*
X123715099Y-87413444D01*
X123512694Y-87329399D01*
X123532061Y-87310066D01*
X123685126Y-86941444D01*
X123685474Y-86542307D01*
X123637781Y-86426883D01*
X123751556Y-86474126D01*
X124150693Y-86474474D01*
X124519581Y-86322052D01*
X124802061Y-86040066D01*
X124955126Y-85671444D01*
X124955127Y-85669693D01*
X130314526Y-85669693D01*
X130466948Y-86038581D01*
X130748934Y-86321061D01*
X131117556Y-86474126D01*
X131516693Y-86474474D01*
X131632117Y-86426781D01*
X131584874Y-86540556D01*
X131584526Y-86939693D01*
X131736948Y-87308581D01*
X132018934Y-87591061D01*
X132387556Y-87744126D01*
X132786693Y-87744474D01*
X133155581Y-87592052D01*
X133438061Y-87310066D01*
X133591126Y-86941444D01*
X133591474Y-86542307D01*
X133516146Y-86360000D01*
X134919348Y-86360000D01*
X135013121Y-86831428D01*
X135280163Y-87231085D01*
X135679820Y-87498127D01*
X136151248Y-87591900D01*
X136898752Y-87591900D01*
X137370180Y-87498127D01*
X137769837Y-87231085D01*
X138036879Y-86831428D01*
X138130652Y-86360000D01*
X138036879Y-85888572D01*
X137769837Y-85488915D01*
X137370180Y-85221873D01*
X136898752Y-85128100D01*
X136151248Y-85128100D01*
X135679820Y-85221873D01*
X135280163Y-85488915D01*
X135013121Y-85888572D01*
X134919348Y-86360000D01*
X133516146Y-86360000D01*
X133439052Y-86173419D01*
X133157066Y-85890939D01*
X132788444Y-85737874D01*
X132389307Y-85737526D01*
X132273883Y-85785219D01*
X132321126Y-85671444D01*
X132321474Y-85272307D01*
X132169052Y-84903419D01*
X131904867Y-84638771D01*
X133756400Y-84638771D01*
X133875327Y-84615115D01*
X133976148Y-84547748D01*
X134043515Y-84446927D01*
X134067171Y-84328000D01*
X134067171Y-82327477D01*
X138886840Y-82327477D01*
X139203259Y-83093270D01*
X139788648Y-83679682D01*
X140553888Y-83997437D01*
X141382477Y-83998160D01*
X142148270Y-83681741D01*
X142734682Y-83096352D01*
X143052437Y-82331112D01*
X143053160Y-81502523D01*
X142736741Y-80736730D01*
X142151352Y-80150318D01*
X141386112Y-79832563D01*
X140557523Y-79831840D01*
X139791730Y-80148259D01*
X139205318Y-80733648D01*
X138887563Y-81498888D01*
X138886840Y-82327477D01*
X134067171Y-82327477D01*
X134067171Y-79502000D01*
X134043515Y-79383073D01*
X133976148Y-79282252D01*
X133875327Y-79214885D01*
X133756400Y-79191229D01*
X130962400Y-79191229D01*
X130843473Y-79214885D01*
X130742652Y-79282252D01*
X130675285Y-79383073D01*
X130651629Y-79502000D01*
X130651629Y-84328000D01*
X130675285Y-84446927D01*
X130742652Y-84547748D01*
X130812386Y-84594343D01*
X130750419Y-84619948D01*
X130467939Y-84901934D01*
X130314874Y-85270556D01*
X130314526Y-85669693D01*
X124955127Y-85669693D01*
X124955474Y-85272307D01*
X124803052Y-84903419D01*
X124521066Y-84620939D01*
X124457385Y-84594496D01*
X124527348Y-84547748D01*
X124594715Y-84446927D01*
X124618371Y-84328000D01*
X124618371Y-79502000D01*
X124594715Y-79383073D01*
X124527348Y-79282252D01*
X124426527Y-79214885D01*
X124307600Y-79191229D01*
X121513600Y-79191229D01*
X121394673Y-79214885D01*
X121293852Y-79282252D01*
X121226485Y-79383073D01*
X121202829Y-79502000D01*
X121202829Y-84328000D01*
X121226485Y-84446927D01*
X121293852Y-84547748D01*
X121394673Y-84615115D01*
X121513600Y-84638771D01*
X123365563Y-84638771D01*
X123101939Y-84901934D01*
X122948874Y-85270556D01*
X122948526Y-85669693D01*
X122996219Y-85785117D01*
X122882444Y-85737874D01*
X122483307Y-85737526D01*
X122114419Y-85889948D01*
X121831939Y-86171934D01*
X121678874Y-86540556D01*
X121678526Y-86939693D01*
X121830948Y-87308581D01*
X121960839Y-87438700D01*
X113832411Y-87438700D01*
X113807199Y-87413444D01*
X113531899Y-87299130D01*
X113233809Y-87298870D01*
X113135100Y-87339656D01*
X113135100Y-83942004D01*
X113721661Y-83355443D01*
X113828572Y-83426879D01*
X114300000Y-83520652D01*
X114771428Y-83426879D01*
X115171085Y-83159837D01*
X115438127Y-82760180D01*
X115524197Y-82327477D01*
X116026840Y-82327477D01*
X116343259Y-83093270D01*
X116928648Y-83679682D01*
X117693888Y-83997437D01*
X118522477Y-83998160D01*
X119288270Y-83681741D01*
X119874682Y-83096352D01*
X120192437Y-82331112D01*
X120193160Y-81502523D01*
X119876741Y-80736730D01*
X119291352Y-80150318D01*
X118526112Y-79832563D01*
X117697523Y-79831840D01*
X116931730Y-80148259D01*
X116345318Y-80733648D01*
X116027563Y-81498888D01*
X116026840Y-82327477D01*
X115524197Y-82327477D01*
X115531900Y-82288752D01*
X115531900Y-81541248D01*
X115438127Y-81069820D01*
X115171085Y-80670163D01*
X114771428Y-80403121D01*
X114300000Y-80309348D01*
X113828572Y-80403121D01*
X113428915Y-80670163D01*
X113161873Y-81069820D01*
X113068100Y-81541248D01*
X113068100Y-82284796D01*
X112973962Y-82378934D01*
X112991900Y-82288752D01*
X112991900Y-81541248D01*
X112898127Y-81069820D01*
X112631085Y-80670163D01*
X112231428Y-80403121D01*
X111760000Y-80309348D01*
X111288572Y-80403121D01*
X110888915Y-80670163D01*
X110621873Y-81069820D01*
X110528100Y-81541248D01*
X110528100Y-82288752D01*
X110621873Y-82760180D01*
X110888915Y-83159837D01*
X111150400Y-83334556D01*
X111150400Y-90685093D01*
X111005658Y-90781806D01*
X110774405Y-91127901D01*
X110693200Y-91536148D01*
X110693200Y-92613852D01*
X110774405Y-93022099D01*
X111005658Y-93368194D01*
X111275056Y-93548200D01*
X111221148Y-93548200D01*
X110812901Y-93629405D01*
X110466806Y-93860658D01*
X110235553Y-94206753D01*
X110154348Y-94615000D01*
X110235553Y-95023247D01*
X110440528Y-95330014D01*
X110381669Y-95369342D01*
X110255048Y-95453947D01*
X108788948Y-96920048D01*
X108656803Y-97117816D01*
X108610400Y-97351100D01*
X108610400Y-97797093D01*
X108465658Y-97893806D01*
X108449033Y-97918688D01*
X108381052Y-97816948D01*
X104227376Y-93663272D01*
X104548247Y-93599447D01*
X104894342Y-93368194D01*
X105125595Y-93022099D01*
X105206800Y-92613852D01*
X105206800Y-91536148D01*
X105125595Y-91127901D01*
X104894342Y-90781806D01*
X104749600Y-90685093D01*
X104749600Y-83334556D01*
X105011085Y-83159837D01*
X105278127Y-82760180D01*
X105371900Y-82288752D01*
X105371900Y-81541248D01*
X105448100Y-81541248D01*
X105448100Y-82288752D01*
X105541873Y-82760180D01*
X105808915Y-83159837D01*
X106070400Y-83334556D01*
X106070400Y-90685093D01*
X105925658Y-90781806D01*
X105694405Y-91127901D01*
X105613200Y-91536148D01*
X105613200Y-92613852D01*
X105694405Y-93022099D01*
X105925658Y-93368194D01*
X106271753Y-93599447D01*
X106680000Y-93680652D01*
X107088247Y-93599447D01*
X107434342Y-93368194D01*
X107665595Y-93022099D01*
X107746800Y-92613852D01*
X107746800Y-91536148D01*
X107665595Y-91127901D01*
X107434342Y-90781806D01*
X107289600Y-90685093D01*
X107289600Y-83334556D01*
X107551085Y-83159837D01*
X107818127Y-82760180D01*
X107911900Y-82288752D01*
X107911900Y-81541248D01*
X107988100Y-81541248D01*
X107988100Y-82288752D01*
X108081873Y-82760180D01*
X108348915Y-83159837D01*
X108610400Y-83334556D01*
X108610400Y-90685093D01*
X108465658Y-90781806D01*
X108234405Y-91127901D01*
X108153200Y-91536148D01*
X108153200Y-92613852D01*
X108234405Y-93022099D01*
X108465658Y-93368194D01*
X108811753Y-93599447D01*
X109220000Y-93680652D01*
X109628247Y-93599447D01*
X109974342Y-93368194D01*
X110205595Y-93022099D01*
X110286800Y-92613852D01*
X110286800Y-91536148D01*
X110205595Y-91127901D01*
X109974342Y-90781806D01*
X109829600Y-90685093D01*
X109829600Y-83334556D01*
X110091085Y-83159837D01*
X110358127Y-82760180D01*
X110451900Y-82288752D01*
X110451900Y-81541248D01*
X110358127Y-81069820D01*
X110091085Y-80670163D01*
X109691428Y-80403121D01*
X109220000Y-80309348D01*
X108748572Y-80403121D01*
X108348915Y-80670163D01*
X108081873Y-81069820D01*
X107988100Y-81541248D01*
X107911900Y-81541248D01*
X107818127Y-81069820D01*
X107551085Y-80670163D01*
X107151428Y-80403121D01*
X106680000Y-80309348D01*
X106208572Y-80403121D01*
X105808915Y-80670163D01*
X105541873Y-81069820D01*
X105448100Y-81541248D01*
X105371900Y-81541248D01*
X105278127Y-81069820D01*
X105011085Y-80670163D01*
X104611428Y-80403121D01*
X104140000Y-80309348D01*
X103668572Y-80403121D01*
X103268915Y-80670163D01*
X103001873Y-81069820D01*
X102908100Y-81541248D01*
X102908100Y-82288752D01*
X102926038Y-82378934D01*
X102831900Y-82284796D01*
X102831900Y-81541248D01*
X102738127Y-81069820D01*
X102471085Y-80670163D01*
X102071428Y-80403121D01*
X101600000Y-80309348D01*
X101128572Y-80403121D01*
X100728915Y-80670163D01*
X100461873Y-81069820D01*
X100368100Y-81541248D01*
X100368100Y-82288752D01*
X100386038Y-82378934D01*
X100291900Y-82284796D01*
X100291900Y-81541248D01*
X100198127Y-81069820D01*
X99931085Y-80670163D01*
X99531428Y-80403121D01*
X99060000Y-80309348D01*
X98588572Y-80403121D01*
X98188915Y-80670163D01*
X97921873Y-81069820D01*
X97828100Y-81541248D01*
X97828100Y-82288752D01*
X97921873Y-82760180D01*
X98188915Y-83159837D01*
X98588572Y-83426879D01*
X99060000Y-83520652D01*
X99531428Y-83426879D01*
X99638339Y-83355443D01*
X99656500Y-83373604D01*
X99656500Y-90676339D01*
X99468247Y-90550553D01*
X99060000Y-90469348D01*
X98651753Y-90550553D01*
X98305658Y-90781806D01*
X98074405Y-91127901D01*
X97993200Y-91536148D01*
X97993200Y-92613852D01*
X98074405Y-93022099D01*
X98305658Y-93368194D01*
X98651753Y-93599447D01*
X99060000Y-93680652D01*
X99468247Y-93599447D01*
X99748622Y-93412107D01*
X99835048Y-93541452D01*
X103918919Y-97625323D01*
X103731753Y-97662553D01*
X103385658Y-97893806D01*
X103154405Y-98239901D01*
X103073200Y-98648148D01*
X103073200Y-99725852D01*
X103154405Y-100134099D01*
X103385658Y-100480194D01*
X103731753Y-100711447D01*
X104140000Y-100792652D01*
X104548247Y-100711447D01*
X104800400Y-100542964D01*
X104800400Y-100965000D01*
X104846803Y-101198284D01*
X104978948Y-101396052D01*
X105642042Y-102059146D01*
X105613200Y-102204148D01*
X105613200Y-103281852D01*
X105694405Y-103690099D01*
X105925658Y-104036194D01*
X106271753Y-104267447D01*
X106680000Y-104348652D01*
X107088247Y-104267447D01*
X107261000Y-104152017D01*
X107261000Y-105905983D01*
X107088247Y-105790553D01*
X106680000Y-105709348D01*
X106271753Y-105790553D01*
X105925658Y-106021806D01*
X105694405Y-106367901D01*
X105613200Y-106776148D01*
X105613200Y-107853852D01*
X105694405Y-108262099D01*
X105925658Y-108608194D01*
X106271753Y-108839447D01*
X106440068Y-108872927D01*
X100523496Y-114789500D01*
X97198704Y-114789500D01*
X103301052Y-108687152D01*
X103369734Y-108584362D01*
X103385658Y-108608194D01*
X103731753Y-108839447D01*
X104140000Y-108920652D01*
X104548247Y-108839447D01*
X104894342Y-108608194D01*
X105125595Y-108262099D01*
X105206800Y-107853852D01*
X105206800Y-106776148D01*
X105125595Y-106367901D01*
X104894342Y-106021806D01*
X104592070Y-105819834D01*
X104597284Y-105818797D01*
X104795052Y-105686652D01*
X105170905Y-105310799D01*
X105206591Y-105310830D01*
X105482090Y-105196996D01*
X105693056Y-104986399D01*
X105807370Y-104711099D01*
X105807630Y-104413009D01*
X105693796Y-104137510D01*
X105483199Y-103926544D01*
X105207899Y-103812230D01*
X105044085Y-103812087D01*
X105125595Y-103690099D01*
X105206800Y-103281852D01*
X105206800Y-102204148D01*
X105125595Y-101795901D01*
X104894342Y-101449806D01*
X104548247Y-101218553D01*
X104140000Y-101137348D01*
X103731753Y-101218553D01*
X103385658Y-101449806D01*
X103154405Y-101795901D01*
X103073200Y-102204148D01*
X103073200Y-103281852D01*
X103154405Y-103690099D01*
X103250022Y-103833200D01*
X102489978Y-103833200D01*
X102585595Y-103690099D01*
X102666800Y-103281852D01*
X102666800Y-102204148D01*
X102585595Y-101795901D01*
X102354342Y-101449806D01*
X102209600Y-101353093D01*
X102209600Y-101043200D01*
X102163197Y-100809916D01*
X102076787Y-100680595D01*
X102069884Y-100670263D01*
X102354342Y-100480194D01*
X102585595Y-100134099D01*
X102666800Y-99725852D01*
X102666800Y-98648148D01*
X102585595Y-98239901D01*
X102354342Y-97893806D01*
X102209600Y-97797093D01*
X102209600Y-97487200D01*
X102163197Y-97253916D01*
X102031052Y-97056147D01*
X98510652Y-93535748D01*
X98312884Y-93403603D01*
X98079600Y-93357200D01*
X97281688Y-93357200D01*
X97505595Y-93022099D01*
X97586800Y-92613852D01*
X97586800Y-91536148D01*
X97505595Y-91127901D01*
X97274342Y-90781806D01*
X97129600Y-90685093D01*
X97129600Y-83334556D01*
X97391085Y-83159837D01*
X97658127Y-82760180D01*
X97751900Y-82288752D01*
X97751900Y-81541248D01*
X97658127Y-81069820D01*
X97391085Y-80670163D01*
X96991428Y-80403121D01*
X96520000Y-80309348D01*
X96048572Y-80403121D01*
X95648915Y-80670163D01*
X95381873Y-81069820D01*
X95288100Y-81541248D01*
X95288100Y-82288752D01*
X95381873Y-82760180D01*
X95648915Y-83159837D01*
X95910400Y-83334556D01*
X95910400Y-90685093D01*
X95765658Y-90781806D01*
X95534405Y-91127901D01*
X95453200Y-91536148D01*
X95453200Y-92613852D01*
X95534405Y-93022099D01*
X95758312Y-93357200D01*
X94741688Y-93357200D01*
X94965595Y-93022099D01*
X95046800Y-92613852D01*
X95046800Y-91536148D01*
X94965595Y-91127901D01*
X94734342Y-90781806D01*
X94589600Y-90685093D01*
X94589600Y-83334556D01*
X94851085Y-83159837D01*
X95118127Y-82760180D01*
X95211900Y-82288752D01*
X95211900Y-81541248D01*
X95118127Y-81069820D01*
X94851085Y-80670163D01*
X94451428Y-80403121D01*
X93980000Y-80309348D01*
X93508572Y-80403121D01*
X93108915Y-80670163D01*
X92841873Y-81069820D01*
X92748100Y-81541248D01*
X92748100Y-82288752D01*
X92841873Y-82760180D01*
X93108915Y-83159837D01*
X93370400Y-83334556D01*
X93370400Y-90685093D01*
X93225658Y-90781806D01*
X92994405Y-91127901D01*
X92913200Y-91536148D01*
X92913200Y-92613852D01*
X92994405Y-93022099D01*
X93218312Y-93357200D01*
X92201688Y-93357200D01*
X92425595Y-93022099D01*
X92506800Y-92613852D01*
X92506800Y-91536148D01*
X92425595Y-91127901D01*
X92194342Y-90781806D01*
X92049600Y-90685093D01*
X92049600Y-83334556D01*
X92311085Y-83159837D01*
X92578127Y-82760180D01*
X92671900Y-82288752D01*
X92671900Y-81541248D01*
X92578127Y-81069820D01*
X92311085Y-80670163D01*
X91911428Y-80403121D01*
X91440000Y-80309348D01*
X90968572Y-80403121D01*
X90568915Y-80670163D01*
X90301873Y-81069820D01*
X90208100Y-81541248D01*
X90208100Y-82288752D01*
X90301873Y-82760180D01*
X90568915Y-83159837D01*
X90830400Y-83334556D01*
X90830400Y-90685093D01*
X90685658Y-90781806D01*
X90454405Y-91127901D01*
X90373200Y-91536148D01*
X90373200Y-92613852D01*
X90454405Y-93022099D01*
X90678312Y-93357200D01*
X89661688Y-93357200D01*
X89885595Y-93022099D01*
X89966800Y-92613852D01*
X89966800Y-91536148D01*
X89885595Y-91127901D01*
X89654342Y-90781806D01*
X89509600Y-90685093D01*
X89509600Y-83334556D01*
X89771085Y-83159837D01*
X90038127Y-82760180D01*
X90131900Y-82288752D01*
X90131900Y-81541248D01*
X90038127Y-81069820D01*
X89771085Y-80670163D01*
X89371428Y-80403121D01*
X88900000Y-80309348D01*
X88428572Y-80403121D01*
X88028915Y-80670163D01*
X87761873Y-81069820D01*
X87668100Y-81541248D01*
X87668100Y-82288752D01*
X87761873Y-82760180D01*
X88028915Y-83159837D01*
X88290400Y-83334556D01*
X88290400Y-90685093D01*
X88145658Y-90781806D01*
X87914405Y-91127901D01*
X87833200Y-91536148D01*
X87833200Y-92613852D01*
X87914405Y-93022099D01*
X88138312Y-93357200D01*
X87121688Y-93357200D01*
X87345595Y-93022099D01*
X87426800Y-92613852D01*
X87426800Y-91536148D01*
X87345595Y-91127901D01*
X87114342Y-90781806D01*
X86969600Y-90685093D01*
X86969600Y-83334556D01*
X87231085Y-83159837D01*
X87498127Y-82760180D01*
X87591900Y-82288752D01*
X87591900Y-81541248D01*
X87498127Y-81069820D01*
X87231085Y-80670163D01*
X86831428Y-80403121D01*
X86360000Y-80309348D01*
X85888572Y-80403121D01*
X85488915Y-80670163D01*
X85221873Y-81069820D01*
X85128100Y-81541248D01*
X85128100Y-82288752D01*
X85221873Y-82760180D01*
X85488915Y-83159837D01*
X85750400Y-83334556D01*
X85750400Y-84683096D01*
X84429600Y-83362296D01*
X84429600Y-83334556D01*
X84691085Y-83159837D01*
X84958127Y-82760180D01*
X85051900Y-82288752D01*
X85051900Y-81541248D01*
X84958127Y-81069820D01*
X84691085Y-80670163D01*
X84291428Y-80403121D01*
X83820000Y-80309348D01*
X83348572Y-80403121D01*
X82948915Y-80670163D01*
X82681873Y-81069820D01*
X82588100Y-81541248D01*
X82588100Y-82288752D01*
X82681873Y-82760180D01*
X82948915Y-83159837D01*
X83210400Y-83334556D01*
X83210400Y-83614800D01*
X83256803Y-83848084D01*
X83388948Y-84045852D01*
X84870800Y-85527704D01*
X84870800Y-85667501D01*
X82569699Y-83366401D01*
X82256566Y-83157171D01*
X82165032Y-83138964D01*
X82418127Y-82760180D01*
X82511900Y-82288752D01*
X82511900Y-81541248D01*
X82418127Y-81069820D01*
X82151085Y-80670163D01*
X81751428Y-80403121D01*
X81280000Y-80309348D01*
X80808572Y-80403121D01*
X80408915Y-80670163D01*
X80161414Y-81040575D01*
X80101405Y-80843231D01*
X79718848Y-80377726D01*
X79187270Y-80094053D01*
X79129731Y-80085643D01*
X78892400Y-80196215D01*
X78892400Y-81762600D01*
X78912400Y-81762600D01*
X78912400Y-82067400D01*
X78892400Y-82067400D01*
X78892400Y-82087400D01*
X78587600Y-82087400D01*
X78587600Y-82067400D01*
X78567600Y-82067400D01*
X78567600Y-81762600D01*
X78587600Y-81762600D01*
X78587600Y-80196215D01*
X78350269Y-80085643D01*
X78292730Y-80094053D01*
X77761152Y-80377726D01*
X77489666Y-80708077D01*
X77489666Y-80645000D01*
X77462067Y-80506252D01*
X77383473Y-80388627D01*
X77265848Y-80310033D01*
X77127100Y-80282434D01*
X75272900Y-80282434D01*
X75134152Y-80310033D01*
X75016527Y-80388627D01*
X74937933Y-80506252D01*
X74910334Y-80645000D01*
X74910334Y-83185000D01*
X74937933Y-83323748D01*
X75016527Y-83441373D01*
X75134152Y-83519967D01*
X75234800Y-83539987D01*
X75234800Y-84048900D01*
X75308271Y-84418266D01*
X75517501Y-84731399D01*
X75830634Y-84940629D01*
X76200000Y-85014100D01*
X76810035Y-85014100D01*
X76291730Y-85228259D01*
X75705318Y-85813648D01*
X75387563Y-86578888D01*
X75386934Y-87299236D01*
X71225199Y-83137501D01*
X70912066Y-82928271D01*
X70542700Y-82854800D01*
X68378298Y-82854800D01*
X68277534Y-82787472D01*
X67849847Y-82702400D01*
X66770153Y-82702400D01*
X66342466Y-82787472D01*
X65979890Y-83029737D01*
X65737625Y-83392313D01*
X65652553Y-83820000D01*
X65737625Y-84247687D01*
X65979890Y-84610263D01*
X66342466Y-84852528D01*
X66770153Y-84937600D01*
X67849847Y-84937600D01*
X68277534Y-84852528D01*
X68378298Y-84785200D01*
X70142902Y-84785200D01*
X75697800Y-90340099D01*
X75925285Y-90492100D01*
X76010934Y-90549329D01*
X76380300Y-90622800D01*
X77393643Y-90622800D01*
X77368400Y-90683743D01*
X77368400Y-91770200D01*
X77520800Y-91922600D01*
X78587600Y-91922600D01*
X78587600Y-91902600D01*
X78892400Y-91902600D01*
X78892400Y-91922600D01*
X79959200Y-91922600D01*
X80111600Y-91770200D01*
X80111600Y-90683743D01*
X80086357Y-90622800D01*
X80763628Y-90622800D01*
X80525658Y-90781806D01*
X80294405Y-91127901D01*
X80213200Y-91536148D01*
X80213200Y-92613852D01*
X80294405Y-93022099D01*
X80525658Y-93368194D01*
X80871753Y-93599447D01*
X81280000Y-93680652D01*
X81688247Y-93599447D01*
X82034342Y-93368194D01*
X82265595Y-93022099D01*
X82346800Y-92613852D01*
X82346800Y-91536148D01*
X82265595Y-91127901D01*
X82034342Y-90781806D01*
X81796372Y-90622800D01*
X83303628Y-90622800D01*
X83065658Y-90781806D01*
X82834405Y-91127901D01*
X82753200Y-91536148D01*
X82753200Y-92613852D01*
X82834405Y-93022099D01*
X83065658Y-93368194D01*
X83411753Y-93599447D01*
X83820000Y-93680652D01*
X84228247Y-93599447D01*
X84574342Y-93368194D01*
X84623204Y-93295067D01*
X84627703Y-93317684D01*
X84759848Y-93515452D01*
X85642248Y-94397852D01*
X85840016Y-94529997D01*
X86073300Y-94576400D01*
X97827096Y-94576400D01*
X100990400Y-97739705D01*
X100990400Y-97797093D01*
X100845658Y-97893806D01*
X100614405Y-98239901D01*
X100533200Y-98648148D01*
X100533200Y-99725852D01*
X100614405Y-100134099D01*
X100762273Y-100355400D01*
X99897727Y-100355400D01*
X100045595Y-100134099D01*
X100126800Y-99725852D01*
X100126800Y-98648148D01*
X100045595Y-98239901D01*
X99814342Y-97893806D01*
X99468247Y-97662553D01*
X99060000Y-97581348D01*
X98651753Y-97662553D01*
X98305658Y-97893806D01*
X98074405Y-98239901D01*
X97993200Y-98648148D01*
X97993200Y-99725852D01*
X98074405Y-100134099D01*
X98222273Y-100355400D01*
X97357727Y-100355400D01*
X97505595Y-100134099D01*
X97586800Y-99725852D01*
X97586800Y-98648148D01*
X97505595Y-98239901D01*
X97274342Y-97893806D01*
X96928247Y-97662553D01*
X96520000Y-97581348D01*
X96111753Y-97662553D01*
X95765658Y-97893806D01*
X95534405Y-98239901D01*
X95453200Y-98648148D01*
X95453200Y-99725852D01*
X95534405Y-100134099D01*
X95682273Y-100355400D01*
X94817727Y-100355400D01*
X94965595Y-100134099D01*
X95046800Y-99725852D01*
X95046800Y-98648148D01*
X94965595Y-98239901D01*
X94734342Y-97893806D01*
X94388247Y-97662553D01*
X93980000Y-97581348D01*
X93571753Y-97662553D01*
X93225658Y-97893806D01*
X92994405Y-98239901D01*
X92913200Y-98648148D01*
X92913200Y-99591296D01*
X91423434Y-98101530D01*
X91396797Y-97967616D01*
X91264652Y-97769848D01*
X90209552Y-96714748D01*
X90011784Y-96582603D01*
X89778500Y-96536200D01*
X76131000Y-96536200D01*
X75897716Y-96582603D01*
X75699948Y-96714748D01*
X73380941Y-99033755D01*
X73375595Y-99006877D01*
X73144342Y-98660782D01*
X72837204Y-98455559D01*
X73281708Y-98209480D01*
X73617363Y-97787970D01*
X73766163Y-97270096D01*
X73614825Y-97053400D01*
X72542400Y-97053400D01*
X72542400Y-97073400D01*
X72237600Y-97073400D01*
X72237600Y-97053400D01*
X71165175Y-97053400D01*
X71013837Y-97270096D01*
X71162637Y-97787970D01*
X71498292Y-98209480D01*
X71942796Y-98455559D01*
X71635658Y-98660782D01*
X71404405Y-99006877D01*
X71323200Y-99415124D01*
X71323200Y-99974876D01*
X71404405Y-100383123D01*
X71635658Y-100729218D01*
X71942796Y-100934441D01*
X71498292Y-101180520D01*
X71162637Y-101602030D01*
X71013837Y-102119904D01*
X71165174Y-102336598D01*
X71111702Y-102336598D01*
X70459600Y-101684496D01*
X70459600Y-100563345D01*
X70630218Y-100449342D01*
X70861471Y-100103247D01*
X70942676Y-99695000D01*
X70861471Y-99286753D01*
X70630218Y-98940658D01*
X70284123Y-98709405D01*
X69875876Y-98628200D01*
X69316124Y-98628200D01*
X68907877Y-98709405D01*
X68561782Y-98940658D01*
X68330529Y-99286753D01*
X68249324Y-99695000D01*
X68330529Y-100103247D01*
X68561782Y-100449342D01*
X68907877Y-100680595D01*
X69240400Y-100746738D01*
X69240400Y-101937000D01*
X69286803Y-102170284D01*
X69418948Y-102368052D01*
X76391495Y-109340600D01*
X75244300Y-109340600D01*
X75011016Y-109387003D01*
X74986771Y-109403203D01*
X74986771Y-108331000D01*
X74963115Y-108212073D01*
X74895748Y-108111252D01*
X74794927Y-108043885D01*
X74676000Y-108020229D01*
X72009000Y-108020229D01*
X71890073Y-108043885D01*
X71789252Y-108111252D01*
X71721885Y-108212073D01*
X71698229Y-108331000D01*
X71698229Y-108496466D01*
X71586399Y-108450030D01*
X71288309Y-108449770D01*
X71012810Y-108563604D01*
X70801844Y-108774201D01*
X70687530Y-109049501D01*
X70687270Y-109347591D01*
X70801104Y-109623090D01*
X70946859Y-109769100D01*
X70235905Y-109769100D01*
X69973499Y-109506694D01*
X69973530Y-109471009D01*
X69859696Y-109195510D01*
X69649099Y-108984544D01*
X69373799Y-108870230D01*
X69075709Y-108869970D01*
X68800210Y-108983804D01*
X68589244Y-109194401D01*
X68474930Y-109469701D01*
X68474670Y-109767791D01*
X68588504Y-110043290D01*
X68799101Y-110254256D01*
X69074401Y-110368570D01*
X69111198Y-110368602D01*
X69552347Y-110809752D01*
X69682025Y-110896400D01*
X69750116Y-110941897D01*
X69983400Y-110988300D01*
X74815800Y-110988300D01*
X75049084Y-110941897D01*
X75246852Y-110809752D01*
X75496805Y-110559800D01*
X76457414Y-110559800D01*
X76291730Y-110628259D01*
X75705318Y-111213648D01*
X75387563Y-111978888D01*
X75386840Y-112807477D01*
X75703259Y-113573270D01*
X76206809Y-114077700D01*
X74936539Y-114077700D01*
X74963115Y-114037927D01*
X74986771Y-113919000D01*
X74986771Y-112328960D01*
X74963115Y-112210033D01*
X74895748Y-112109212D01*
X74794927Y-112041845D01*
X74676000Y-112018189D01*
X72009000Y-112018189D01*
X71890073Y-112041845D01*
X71789252Y-112109212D01*
X71721885Y-112210033D01*
X71698229Y-112328960D01*
X71698229Y-113919000D01*
X71721885Y-114037927D01*
X71748461Y-114077700D01*
X70280300Y-114077700D01*
X70047016Y-114124103D01*
X69849248Y-114256248D01*
X68889137Y-115216359D01*
X68836708Y-115150520D01*
X68365299Y-114889546D01*
X68308761Y-114882516D01*
X68097400Y-114995363D01*
X68097400Y-116306600D01*
X68117400Y-116306600D01*
X68117400Y-116611400D01*
X68097400Y-116611400D01*
X68097400Y-116631400D01*
X67792600Y-116631400D01*
X67792600Y-116611400D01*
X66720175Y-116611400D01*
X66568837Y-116828096D01*
X66717637Y-117345970D01*
X67053292Y-117767480D01*
X67289903Y-117898469D01*
X67190658Y-117964782D01*
X66959405Y-118310877D01*
X66878200Y-118719124D01*
X66878200Y-119278876D01*
X66959405Y-119687123D01*
X67190658Y-120033218D01*
X67486510Y-120230900D01*
X59474100Y-120230900D01*
X59474100Y-117887477D01*
X60146840Y-117887477D01*
X60463259Y-118653270D01*
X61048648Y-119239682D01*
X61813888Y-119557437D01*
X62642477Y-119558160D01*
X63408270Y-119241741D01*
X63994682Y-118656352D01*
X64312437Y-117891112D01*
X64313160Y-117062523D01*
X63996741Y-116296730D01*
X63790276Y-116089904D01*
X66568837Y-116089904D01*
X66720175Y-116306600D01*
X67792600Y-116306600D01*
X67792600Y-114995363D01*
X67581239Y-114882516D01*
X67524701Y-114889546D01*
X67053292Y-115150520D01*
X66717637Y-115572030D01*
X66568837Y-116089904D01*
X63790276Y-116089904D01*
X63411352Y-115710318D01*
X62646112Y-115392563D01*
X61817523Y-115391840D01*
X61051730Y-115708259D01*
X60465318Y-116293648D01*
X60147563Y-117058888D01*
X60146840Y-117887477D01*
X59474100Y-117887477D01*
X59474100Y-113428780D01*
X63144400Y-113428780D01*
X63144400Y-114040257D01*
X63237206Y-114264311D01*
X63408689Y-114435794D01*
X63632743Y-114528600D01*
X64782700Y-114528600D01*
X64935100Y-114376200D01*
X64935100Y-113276380D01*
X65239900Y-113276380D01*
X65239900Y-114376200D01*
X65392300Y-114528600D01*
X66542257Y-114528600D01*
X66766311Y-114435794D01*
X66937794Y-114264311D01*
X67030600Y-114040257D01*
X67030600Y-113428780D01*
X66878200Y-113276380D01*
X65239900Y-113276380D01*
X64935100Y-113276380D01*
X63296800Y-113276380D01*
X63144400Y-113428780D01*
X59474100Y-113428780D01*
X59474100Y-112207703D01*
X63144400Y-112207703D01*
X63144400Y-112819180D01*
X63296800Y-112971580D01*
X64935100Y-112971580D01*
X64935100Y-111871760D01*
X65239900Y-111871760D01*
X65239900Y-112971580D01*
X66878200Y-112971580D01*
X67030600Y-112819180D01*
X67030600Y-112207703D01*
X66937794Y-111983649D01*
X66766311Y-111812166D01*
X66542257Y-111719360D01*
X65392300Y-111719360D01*
X65239900Y-111871760D01*
X64935100Y-111871760D01*
X64782700Y-111719360D01*
X63632743Y-111719360D01*
X63408689Y-111812166D01*
X63237206Y-111983649D01*
X63144400Y-112207703D01*
X59474100Y-112207703D01*
X59474100Y-108331000D01*
X63443229Y-108331000D01*
X63443229Y-109921040D01*
X63466885Y-110039967D01*
X63534252Y-110140788D01*
X63635073Y-110208155D01*
X63754000Y-110231811D01*
X66421000Y-110231811D01*
X66539927Y-110208155D01*
X66640748Y-110140788D01*
X66708115Y-110039967D01*
X66731771Y-109921040D01*
X66731771Y-108331000D01*
X66708115Y-108212073D01*
X66640748Y-108111252D01*
X66539927Y-108043885D01*
X66421000Y-108020229D01*
X63754000Y-108020229D01*
X63635073Y-108043885D01*
X63534252Y-108111252D01*
X63466885Y-108212073D01*
X63443229Y-108331000D01*
X59474100Y-108331000D01*
X59474100Y-104775000D01*
X60599467Y-104775000D01*
X60738676Y-105474851D01*
X61135110Y-106068157D01*
X61728416Y-106464591D01*
X62428267Y-106603800D01*
X64571733Y-106603800D01*
X65271584Y-106464591D01*
X65864890Y-106068157D01*
X66261324Y-105474851D01*
X66400533Y-104775000D01*
X66261324Y-104075149D01*
X65864890Y-103481843D01*
X65271584Y-103085409D01*
X64571733Y-102946200D01*
X62428267Y-102946200D01*
X61728416Y-103085409D01*
X61135110Y-103481843D01*
X60738676Y-104075149D01*
X60599467Y-104775000D01*
X59474100Y-104775000D01*
X59474100Y-96531904D01*
X71013837Y-96531904D01*
X71165175Y-96748600D01*
X72237600Y-96748600D01*
X72237600Y-95437363D01*
X72542400Y-95437363D01*
X72542400Y-96748600D01*
X73614825Y-96748600D01*
X73766163Y-96531904D01*
X73617363Y-96014030D01*
X73281708Y-95592520D01*
X72810299Y-95331546D01*
X72753761Y-95324516D01*
X72542400Y-95437363D01*
X72237600Y-95437363D01*
X72026239Y-95324516D01*
X71969701Y-95331546D01*
X71498292Y-95592520D01*
X71162637Y-96014030D01*
X71013837Y-96531904D01*
X59474100Y-96531904D01*
X59474100Y-94615000D01*
X60599467Y-94615000D01*
X60738676Y-95314851D01*
X61135110Y-95908157D01*
X61728416Y-96304591D01*
X62428267Y-96443800D01*
X64571733Y-96443800D01*
X65271584Y-96304591D01*
X65864890Y-95908157D01*
X66261324Y-95314851D01*
X66400533Y-94615000D01*
X66261324Y-93915149D01*
X65864890Y-93321843D01*
X65271584Y-92925409D01*
X64571733Y-92786200D01*
X62428267Y-92786200D01*
X61728416Y-92925409D01*
X61135110Y-93321843D01*
X60738676Y-93915149D01*
X60599467Y-94615000D01*
X59474100Y-94615000D01*
X59474100Y-92379800D01*
X77368400Y-92379800D01*
X77368400Y-93466257D01*
X77461206Y-93690311D01*
X77632689Y-93861794D01*
X77856743Y-93954600D01*
X78435200Y-93954600D01*
X78587600Y-93802200D01*
X78587600Y-92227400D01*
X78892400Y-92227400D01*
X78892400Y-93802200D01*
X79044800Y-93954600D01*
X79623257Y-93954600D01*
X79847311Y-93861794D01*
X80018794Y-93690311D01*
X80111600Y-93466257D01*
X80111600Y-92379800D01*
X79959200Y-92227400D01*
X78892400Y-92227400D01*
X78587600Y-92227400D01*
X77520800Y-92227400D01*
X77368400Y-92379800D01*
X59474100Y-92379800D01*
X59474100Y-88900000D01*
X65652553Y-88900000D01*
X65737625Y-89327687D01*
X65979890Y-89690263D01*
X66342466Y-89932528D01*
X66770153Y-90017600D01*
X67849847Y-90017600D01*
X68277534Y-89932528D01*
X68640110Y-89690263D01*
X68882375Y-89327687D01*
X68967447Y-88900000D01*
X68882375Y-88472313D01*
X68640110Y-88109737D01*
X68277534Y-87867472D01*
X67849847Y-87782400D01*
X66770153Y-87782400D01*
X66342466Y-87867472D01*
X65979890Y-88109737D01*
X65737625Y-88472313D01*
X65652553Y-88900000D01*
X59474100Y-88900000D01*
X59474100Y-86723761D01*
X65479516Y-86723761D01*
X65724369Y-87222104D01*
X66136312Y-87568872D01*
X66649600Y-87731600D01*
X67157600Y-87731600D01*
X67157600Y-86512400D01*
X67462400Y-86512400D01*
X67462400Y-87731600D01*
X67970400Y-87731600D01*
X68483688Y-87568872D01*
X68895631Y-87222104D01*
X69140484Y-86723761D01*
X69027637Y-86512400D01*
X67462400Y-86512400D01*
X67157600Y-86512400D01*
X65592363Y-86512400D01*
X65479516Y-86723761D01*
X59474100Y-86723761D01*
X59474100Y-85996239D01*
X65479516Y-85996239D01*
X65592363Y-86207600D01*
X67157600Y-86207600D01*
X67157600Y-84988400D01*
X67462400Y-84988400D01*
X67462400Y-86207600D01*
X69027637Y-86207600D01*
X69140484Y-85996239D01*
X68895631Y-85497896D01*
X68483688Y-85151128D01*
X67970400Y-84988400D01*
X67462400Y-84988400D01*
X67157600Y-84988400D01*
X66649600Y-84988400D01*
X66136312Y-85151128D01*
X65724369Y-85497896D01*
X65479516Y-85996239D01*
X59474100Y-85996239D01*
X59474100Y-82327477D01*
X60146840Y-82327477D01*
X60463259Y-83093270D01*
X61048648Y-83679682D01*
X61813888Y-83997437D01*
X62642477Y-83998160D01*
X63408270Y-83681741D01*
X63994682Y-83096352D01*
X64312437Y-82331112D01*
X64313160Y-81502523D01*
X63996741Y-80736730D01*
X63411352Y-80150318D01*
X62646112Y-79832563D01*
X61817523Y-79831840D01*
X61051730Y-80148259D01*
X60465318Y-80733648D01*
X60147563Y-81498888D01*
X60146840Y-82327477D01*
X59474100Y-82327477D01*
X59474100Y-79159100D01*
X143725900Y-79159100D01*
X143725900Y-110031510D01*
X143725900Y-110031510D01*
G37*
X143725900Y-110031510D02*
X143528218Y-109735658D01*
X143182123Y-109504405D01*
X143136561Y-109495342D01*
X143223597Y-109365084D01*
X143226816Y-109348899D01*
X143270000Y-109131800D01*
X143270000Y-94696100D01*
X143223597Y-94462816D01*
X143091452Y-94265048D01*
X139835352Y-91008948D01*
X139637584Y-90876803D01*
X139404300Y-90830400D01*
X138105771Y-90830400D01*
X138105771Y-90512900D01*
X138082115Y-90393973D01*
X138014748Y-90293152D01*
X137913927Y-90225785D01*
X137795000Y-90202129D01*
X135255000Y-90202129D01*
X135136073Y-90225785D01*
X135035252Y-90293152D01*
X134967885Y-90393973D01*
X134944229Y-90512900D01*
X134944229Y-92367100D01*
X134967885Y-92486027D01*
X135035252Y-92586848D01*
X135136073Y-92654215D01*
X135255000Y-92677871D01*
X137795000Y-92677871D01*
X137913927Y-92654215D01*
X138014748Y-92586848D01*
X138082115Y-92486027D01*
X138105771Y-92367100D01*
X138105771Y-92049600D01*
X139151796Y-92049600D01*
X140283071Y-93180875D01*
X139958933Y-93116400D01*
X138323467Y-93116400D01*
X137526414Y-93274944D01*
X136850705Y-93726438D01*
X136399211Y-94402147D01*
X136240667Y-95199200D01*
X136399211Y-95996253D01*
X136850705Y-96671962D01*
X137526414Y-97123456D01*
X138323467Y-97282000D01*
X139958933Y-97282000D01*
X140755986Y-97123456D01*
X141431695Y-96671962D01*
X141883189Y-95996253D01*
X142041733Y-95199200D01*
X141977258Y-94875062D01*
X142050800Y-94948604D01*
X142050800Y-98801956D01*
X141868137Y-98618974D01*
X141401527Y-98425221D01*
X140896290Y-98424780D01*
X140429342Y-98617718D01*
X140308352Y-98738498D01*
X139946651Y-98114475D01*
X139205094Y-97547466D01*
X138303000Y-97307400D01*
X137795000Y-97307400D01*
X137795000Y-99542600D01*
X137815000Y-99542600D01*
X137815000Y-99847400D01*
X137795000Y-99847400D01*
X137795000Y-102082600D01*
X138303000Y-102082600D01*
X139205094Y-101842534D01*
X139946651Y-101275525D01*
X140308277Y-100651632D01*
X140427463Y-100771026D01*
X140894073Y-100964779D01*
X141399310Y-100965220D01*
X141866258Y-100772282D01*
X142050800Y-100588062D01*
X142050800Y-108885329D01*
X141930803Y-109064916D01*
X141884400Y-109298200D01*
X141884400Y-109488786D01*
X141805877Y-109504405D01*
X141459782Y-109735658D01*
X141393469Y-109834903D01*
X141262480Y-109598292D01*
X140840970Y-109262637D01*
X140323096Y-109113837D01*
X140106400Y-109265175D01*
X140106400Y-110337600D01*
X140126400Y-110337600D01*
X140126400Y-110642400D01*
X140106400Y-110642400D01*
X140106400Y-111714825D01*
X140323096Y-111866163D01*
X140840970Y-111717363D01*
X141262480Y-111381708D01*
X141393469Y-111145097D01*
X141459782Y-111244342D01*
X141805877Y-111475595D01*
X142214124Y-111556800D01*
X142773876Y-111556800D01*
X143182123Y-111475595D01*
X143528218Y-111244342D01*
X143725900Y-110948490D01*
X143725900Y-120230900D01*
X70943490Y-120230900D01*
X71239342Y-120033218D01*
X71470595Y-119687123D01*
X71486214Y-119608600D01*
X71676800Y-119608600D01*
X71910084Y-119562197D01*
X72107852Y-119430052D01*
X75188961Y-116348944D01*
X75014940Y-116609385D01*
X74917300Y-117100253D01*
X74917300Y-117849747D01*
X75014940Y-118340615D01*
X75292994Y-118756753D01*
X75709132Y-119034807D01*
X76200000Y-119132447D01*
X76690868Y-119034807D01*
X77107006Y-118756753D01*
X77385060Y-118340615D01*
X77482700Y-117849747D01*
X77482700Y-117100253D01*
X77385060Y-116609385D01*
X77107006Y-116193247D01*
X76830811Y-116008700D01*
X78200358Y-116008700D01*
X77868915Y-116230163D01*
X77601873Y-116629820D01*
X77508100Y-117101248D01*
X77508100Y-117848752D01*
X77601873Y-118320180D01*
X77868915Y-118719837D01*
X78268572Y-118986879D01*
X78740000Y-119080652D01*
X79211428Y-118986879D01*
X79611085Y-118719837D01*
X79878127Y-118320180D01*
X79971900Y-117848752D01*
X79971900Y-117101248D01*
X79878127Y-116629820D01*
X79611085Y-116230163D01*
X79279642Y-116008700D01*
X80649189Y-116008700D01*
X80372994Y-116193247D01*
X80094940Y-116609385D01*
X79997300Y-117100253D01*
X79997300Y-117849747D01*
X80094940Y-118340615D01*
X80372994Y-118756753D01*
X80789132Y-119034807D01*
X81280000Y-119132447D01*
X81770868Y-119034807D01*
X82187006Y-118756753D01*
X82465060Y-118340615D01*
X82550000Y-117913594D01*
X82634940Y-118340615D01*
X82912994Y-118756753D01*
X83329132Y-119034807D01*
X83820000Y-119132447D01*
X84310868Y-119034807D01*
X84727006Y-118756753D01*
X85005060Y-118340615D01*
X85102700Y-117849747D01*
X85102700Y-117100253D01*
X85005060Y-116609385D01*
X84727006Y-116193247D01*
X84450811Y-116008700D01*
X85820358Y-116008700D01*
X85488915Y-116230163D01*
X85221873Y-116629820D01*
X85128100Y-117101248D01*
X85128100Y-117848752D01*
X85221873Y-118320180D01*
X85488915Y-118719837D01*
X85888572Y-118986879D01*
X86360000Y-119080652D01*
X86831428Y-118986879D01*
X87231085Y-118719837D01*
X87498127Y-118320180D01*
X87591900Y-117848752D01*
X87591900Y-117101248D01*
X87498127Y-116629820D01*
X87231085Y-116230163D01*
X86899642Y-116008700D01*
X88360358Y-116008700D01*
X88028915Y-116230163D01*
X87761873Y-116629820D01*
X87668100Y-117101248D01*
X87668100Y-117848752D01*
X87761873Y-118320180D01*
X88028915Y-118719837D01*
X88428572Y-118986879D01*
X88900000Y-119080652D01*
X89371428Y-118986879D01*
X89771085Y-118719837D01*
X90038127Y-118320180D01*
X90131900Y-117848752D01*
X90131900Y-117101248D01*
X90038127Y-116629820D01*
X89771085Y-116230163D01*
X89439642Y-116008700D01*
X90900358Y-116008700D01*
X90568915Y-116230163D01*
X90301873Y-116629820D01*
X90208100Y-117101248D01*
X90208100Y-117848752D01*
X90301873Y-118320180D01*
X90568915Y-118719837D01*
X90968572Y-118986879D01*
X91440000Y-119080652D01*
X91911428Y-118986879D01*
X92311085Y-118719837D01*
X92578127Y-118320180D01*
X92671900Y-117848752D01*
X92671900Y-117101248D01*
X92578127Y-116629820D01*
X92311085Y-116230163D01*
X91979642Y-116008700D01*
X93440358Y-116008700D01*
X93108915Y-116230163D01*
X92841873Y-116629820D01*
X92748100Y-117101248D01*
X92748100Y-117848752D01*
X92841873Y-118320180D01*
X93108915Y-118719837D01*
X93508572Y-118986879D01*
X93980000Y-119080652D01*
X94451428Y-118986879D01*
X94851085Y-118719837D01*
X95118127Y-118320180D01*
X95211900Y-117848752D01*
X95211900Y-117101248D01*
X95118127Y-116629820D01*
X94851085Y-116230163D01*
X94519642Y-116008700D01*
X95980358Y-116008700D01*
X95648915Y-116230163D01*
X95381873Y-116629820D01*
X95288100Y-117101248D01*
X95288100Y-117848752D01*
X95381873Y-118320180D01*
X95648915Y-118719837D01*
X96048572Y-118986879D01*
X96520000Y-119080652D01*
X96991428Y-118986879D01*
X97391085Y-118719837D01*
X97658127Y-118320180D01*
X97751900Y-117848752D01*
X97751900Y-117101248D01*
X97658127Y-116629820D01*
X97391085Y-116230163D01*
X97059642Y-116008700D01*
X98520358Y-116008700D01*
X98188915Y-116230163D01*
X97921873Y-116629820D01*
X97828100Y-117101248D01*
X97828100Y-117848752D01*
X97921873Y-118320180D01*
X98188915Y-118719837D01*
X98588572Y-118986879D01*
X99060000Y-119080652D01*
X99531428Y-118986879D01*
X99931085Y-118719837D01*
X100198127Y-118320180D01*
X100291900Y-117848752D01*
X100291900Y-117101248D01*
X100368100Y-117101248D01*
X100368100Y-117848752D01*
X100461873Y-118320180D01*
X100728915Y-118719837D01*
X101128572Y-118986879D01*
X101600000Y-119080652D01*
X102071428Y-118986879D01*
X102471085Y-118719837D01*
X102738127Y-118320180D01*
X102831900Y-117848752D01*
X102831900Y-117101248D01*
X102908100Y-117101248D01*
X102908100Y-117848752D01*
X103001873Y-118320180D01*
X103268915Y-118719837D01*
X103668572Y-118986879D01*
X104140000Y-119080652D01*
X104611428Y-118986879D01*
X105011085Y-118719837D01*
X105278127Y-118320180D01*
X105371900Y-117848752D01*
X105371900Y-117101248D01*
X105448100Y-117101248D01*
X105448100Y-117848752D01*
X105541873Y-118320180D01*
X105808915Y-118719837D01*
X106208572Y-118986879D01*
X106680000Y-119080652D01*
X107151428Y-118986879D01*
X107551085Y-118719837D01*
X107818127Y-118320180D01*
X107911900Y-117848752D01*
X107911900Y-117101248D01*
X107988100Y-117101248D01*
X107988100Y-117848752D01*
X108081873Y-118320180D01*
X108348915Y-118719837D01*
X108748572Y-118986879D01*
X109220000Y-119080652D01*
X109691428Y-118986879D01*
X110091085Y-118719837D01*
X110358127Y-118320180D01*
X110451900Y-117848752D01*
X110451900Y-117101248D01*
X110358127Y-116629820D01*
X110091085Y-116230163D01*
X109691428Y-115963121D01*
X109220000Y-115869348D01*
X108748572Y-115963121D01*
X108348915Y-116230163D01*
X108081873Y-116629820D01*
X107988100Y-117101248D01*
X107911900Y-117101248D01*
X107818127Y-116629820D01*
X107551085Y-116230163D01*
X107151428Y-115963121D01*
X106680000Y-115869348D01*
X106208572Y-115963121D01*
X105808915Y-116230163D01*
X105541873Y-116629820D01*
X105448100Y-117101248D01*
X105371900Y-117101248D01*
X105278127Y-116629820D01*
X105011085Y-116230163D01*
X104611428Y-115963121D01*
X104140000Y-115869348D01*
X103668572Y-115963121D01*
X103268915Y-116230163D01*
X103001873Y-116629820D01*
X102908100Y-117101248D01*
X102831900Y-117101248D01*
X102738127Y-116629820D01*
X102471085Y-116230163D01*
X102071428Y-115963121D01*
X101600000Y-115869348D01*
X101128572Y-115963121D01*
X100728915Y-116230163D01*
X100461873Y-116629820D01*
X100368100Y-117101248D01*
X100291900Y-117101248D01*
X100198127Y-116629820D01*
X99931085Y-116230163D01*
X99599642Y-116008700D01*
X100776000Y-116008700D01*
X101009284Y-115962297D01*
X101207052Y-115830152D01*
X108301653Y-108735552D01*
X108386750Y-108608194D01*
X108426204Y-108549147D01*
X108465658Y-108608194D01*
X108811753Y-108839447D01*
X109220000Y-108920652D01*
X109628247Y-108839447D01*
X109839600Y-108698226D01*
X109839600Y-109003696D01*
X109726648Y-109116648D01*
X109594503Y-109314416D01*
X109548100Y-109547700D01*
X109548100Y-113332700D01*
X109594503Y-113565984D01*
X109726648Y-113763752D01*
X111850182Y-115887286D01*
X111760000Y-115869348D01*
X111288572Y-115963121D01*
X110888915Y-116230163D01*
X110621873Y-116629820D01*
X110528100Y-117101248D01*
X110528100Y-117848752D01*
X110621873Y-118320180D01*
X110888915Y-118719837D01*
X111288572Y-118986879D01*
X111760000Y-119080652D01*
X112231428Y-118986879D01*
X112631085Y-118719837D01*
X112898127Y-118320180D01*
X112991900Y-117848752D01*
X112991900Y-117101248D01*
X112973962Y-117011066D01*
X113068100Y-117105204D01*
X113068100Y-117848752D01*
X113161873Y-118320180D01*
X113428915Y-118719837D01*
X113828572Y-118986879D01*
X114300000Y-119080652D01*
X114771428Y-118986879D01*
X115171085Y-118719837D01*
X115438127Y-118320180D01*
X115524197Y-117887477D01*
X116026840Y-117887477D01*
X116343259Y-118653270D01*
X116928648Y-119239682D01*
X117693888Y-119557437D01*
X118522477Y-119558160D01*
X119288270Y-119241741D01*
X119874682Y-118656352D01*
X120192437Y-117891112D01*
X120193160Y-117062523D01*
X119876741Y-116296730D01*
X119291352Y-115710318D01*
X118526112Y-115392563D01*
X117697523Y-115391840D01*
X116931730Y-115708259D01*
X116345318Y-116293648D01*
X116027563Y-117058888D01*
X116026840Y-117887477D01*
X115524197Y-117887477D01*
X115531900Y-117848752D01*
X115531900Y-117101248D01*
X115438127Y-116629820D01*
X115171085Y-116230163D01*
X114771428Y-115963121D01*
X114300000Y-115869348D01*
X113828572Y-115963121D01*
X113721661Y-116034557D01*
X110767300Y-113080196D01*
X110767300Y-110611310D01*
X110859201Y-110649470D01*
X110895998Y-110649502D01*
X111953548Y-111707053D01*
X112072102Y-111786267D01*
X112151316Y-111839197D01*
X112384600Y-111885600D01*
X122026613Y-111885600D01*
X121831939Y-112079934D01*
X121678874Y-112448556D01*
X121678526Y-112847693D01*
X121830948Y-113216581D01*
X122112934Y-113499061D01*
X122481556Y-113652126D01*
X122880693Y-113652474D01*
X122996117Y-113604781D01*
X122948874Y-113718556D01*
X122948526Y-114117693D01*
X123100948Y-114486581D01*
X123365133Y-114751229D01*
X121513600Y-114751229D01*
X121394673Y-114774885D01*
X121293852Y-114842252D01*
X121226485Y-114943073D01*
X121202829Y-115062000D01*
X121202829Y-119888000D01*
X121226485Y-120006927D01*
X121293852Y-120107748D01*
X121394673Y-120175115D01*
X121513600Y-120198771D01*
X124307600Y-120198771D01*
X124426527Y-120175115D01*
X124527348Y-120107748D01*
X124594715Y-120006927D01*
X124618371Y-119888000D01*
X124618371Y-115062000D01*
X124594715Y-114943073D01*
X124527348Y-114842252D01*
X124457614Y-114795657D01*
X124519581Y-114770052D01*
X124802061Y-114488066D01*
X124955126Y-114119444D01*
X124955127Y-114117693D01*
X130314526Y-114117693D01*
X130466948Y-114486581D01*
X130748934Y-114769061D01*
X130812615Y-114795504D01*
X130742652Y-114842252D01*
X130675285Y-114943073D01*
X130651629Y-115062000D01*
X130651629Y-119888000D01*
X130675285Y-120006927D01*
X130742652Y-120107748D01*
X130843473Y-120175115D01*
X130962400Y-120198771D01*
X133756400Y-120198771D01*
X133875327Y-120175115D01*
X133976148Y-120107748D01*
X134043515Y-120006927D01*
X134067171Y-119888000D01*
X134067171Y-117887477D01*
X138886840Y-117887477D01*
X139203259Y-118653270D01*
X139788648Y-119239682D01*
X140553888Y-119557437D01*
X141382477Y-119558160D01*
X142148270Y-119241741D01*
X142734682Y-118656352D01*
X143052437Y-117891112D01*
X143053160Y-117062523D01*
X142736741Y-116296730D01*
X142151352Y-115710318D01*
X141386112Y-115392563D01*
X140557523Y-115391840D01*
X139791730Y-115708259D01*
X139205318Y-116293648D01*
X138887563Y-117058888D01*
X138886840Y-117887477D01*
X134067171Y-117887477D01*
X134067171Y-115062000D01*
X134043515Y-114943073D01*
X133976148Y-114842252D01*
X133875327Y-114774885D01*
X133756400Y-114751229D01*
X131904437Y-114751229D01*
X132168061Y-114488066D01*
X132321126Y-114119444D01*
X132321474Y-113720307D01*
X132273781Y-113604883D01*
X132387556Y-113652126D01*
X132786693Y-113652474D01*
X133155581Y-113500052D01*
X133438061Y-113218066D01*
X133591126Y-112849444D01*
X133591474Y-112450307D01*
X133439052Y-112081419D01*
X133157066Y-111798939D01*
X132788444Y-111645874D01*
X132389307Y-111645526D01*
X132020419Y-111797948D01*
X131737939Y-112079934D01*
X131584874Y-112448556D01*
X131584526Y-112847693D01*
X131632219Y-112963117D01*
X131518444Y-112915874D01*
X131119307Y-112915526D01*
X130750419Y-113067948D01*
X130467939Y-113349934D01*
X130314874Y-113718556D01*
X130314526Y-114117693D01*
X124955127Y-114117693D01*
X124955474Y-113720307D01*
X124803052Y-113351419D01*
X124521066Y-113068939D01*
X124152444Y-112915874D01*
X123753307Y-112915526D01*
X123637883Y-112963219D01*
X123685126Y-112849444D01*
X123685474Y-112450307D01*
X123533052Y-112081419D01*
X123440726Y-111988931D01*
X123627890Y-111911596D01*
X123838856Y-111700999D01*
X123953170Y-111425699D01*
X123953430Y-111127609D01*
X123839596Y-110852110D01*
X123628999Y-110641144D01*
X123353699Y-110526830D01*
X123055609Y-110526570D01*
X122780110Y-110640404D01*
X122754068Y-110666400D01*
X122247589Y-110666400D01*
X122416729Y-110413266D01*
X122490200Y-110043900D01*
X122490200Y-109361657D01*
X122501196Y-109345200D01*
X123108900Y-109345200D01*
X123478266Y-109271729D01*
X123791399Y-109062499D01*
X124104099Y-108749800D01*
X125113434Y-108749800D01*
X125113434Y-112839500D01*
X125141033Y-112978248D01*
X125219627Y-113095873D01*
X125337252Y-113174467D01*
X125476000Y-113202066D01*
X127254000Y-113202066D01*
X127392748Y-113174467D01*
X127472773Y-113120996D01*
X127499206Y-113184811D01*
X127670689Y-113356294D01*
X127894743Y-113449100D01*
X128600200Y-113449100D01*
X128752600Y-113296700D01*
X128752600Y-110896400D01*
X129057400Y-110896400D01*
X129057400Y-113296700D01*
X129209800Y-113449100D01*
X129915257Y-113449100D01*
X130139311Y-113356294D01*
X130310794Y-113184811D01*
X130403600Y-112960757D01*
X130403600Y-111048800D01*
X130251200Y-110896400D01*
X129057400Y-110896400D01*
X128752600Y-110896400D01*
X128732600Y-110896400D01*
X128732600Y-110853761D01*
X138377516Y-110853761D01*
X138384546Y-110910299D01*
X138645520Y-111381708D01*
X139067030Y-111717363D01*
X139584904Y-111866163D01*
X139801600Y-111714825D01*
X139801600Y-110642400D01*
X138490363Y-110642400D01*
X138377516Y-110853761D01*
X128732600Y-110853761D01*
X128732600Y-110591600D01*
X128752600Y-110591600D01*
X128752600Y-108191300D01*
X129057400Y-108191300D01*
X129057400Y-110591600D01*
X130251200Y-110591600D01*
X130403600Y-110439200D01*
X130403600Y-110126239D01*
X138377516Y-110126239D01*
X138490363Y-110337600D01*
X139801600Y-110337600D01*
X139801600Y-109265175D01*
X139584904Y-109113837D01*
X139067030Y-109262637D01*
X138645520Y-109598292D01*
X138384546Y-110069701D01*
X138377516Y-110126239D01*
X130403600Y-110126239D01*
X130403600Y-108527243D01*
X130310794Y-108303189D01*
X130139311Y-108131706D01*
X129915257Y-108038900D01*
X129209800Y-108038900D01*
X129057400Y-108191300D01*
X128752600Y-108191300D01*
X128600200Y-108038900D01*
X127894743Y-108038900D01*
X127670689Y-108131706D01*
X127499206Y-108303189D01*
X127472773Y-108367004D01*
X127392748Y-108313533D01*
X127330200Y-108301091D01*
X127330200Y-107784600D01*
X127256729Y-107415234D01*
X127047499Y-107102101D01*
X126734366Y-106892871D01*
X126365000Y-106819400D01*
X123704300Y-106819400D01*
X123334934Y-106892871D01*
X123021801Y-107102100D01*
X122709102Y-107414800D01*
X122501196Y-107414800D01*
X122490200Y-107398343D01*
X122490200Y-107231657D01*
X122532115Y-107168927D01*
X122555771Y-107050000D01*
X122555771Y-105450000D01*
X122532115Y-105331073D01*
X122464748Y-105230252D01*
X122363927Y-105162885D01*
X122245000Y-105139229D01*
X120805000Y-105139229D01*
X120686073Y-105162885D01*
X120585252Y-105230252D01*
X120517885Y-105331073D01*
X120508481Y-105378350D01*
X120492115Y-105296073D01*
X120424748Y-105195252D01*
X120323927Y-105127885D01*
X120205000Y-105104229D01*
X118690200Y-105104229D01*
X118690200Y-104445771D01*
X120205000Y-104445771D01*
X120323927Y-104422115D01*
X120424748Y-104354748D01*
X120492115Y-104253927D01*
X120508481Y-104171650D01*
X120517885Y-104218927D01*
X120585252Y-104319748D01*
X120686073Y-104387115D01*
X120805000Y-104410771D01*
X122245000Y-104410771D01*
X122363927Y-104387115D01*
X122464748Y-104319748D01*
X122532115Y-104218927D01*
X122537709Y-104190800D01*
X136240667Y-104190800D01*
X136399211Y-104987853D01*
X136850705Y-105663562D01*
X137526414Y-106115056D01*
X138323467Y-106273600D01*
X139958933Y-106273600D01*
X140755986Y-106115056D01*
X141431695Y-105663562D01*
X141883189Y-104987853D01*
X142041733Y-104190800D01*
X141883189Y-103393747D01*
X141431695Y-102718038D01*
X140755986Y-102266544D01*
X139958933Y-102108000D01*
X138323467Y-102108000D01*
X137526414Y-102266544D01*
X136850705Y-102718038D01*
X136399211Y-103393747D01*
X136240667Y-104190800D01*
X122537709Y-104190800D01*
X122555771Y-104100000D01*
X122555771Y-102500000D01*
X122532115Y-102381073D01*
X122490200Y-102318343D01*
X122490200Y-102151657D01*
X122501196Y-102135200D01*
X127785300Y-102135200D01*
X128154666Y-102061729D01*
X128467799Y-101852499D01*
X129660098Y-100660200D01*
X129848259Y-100660200D01*
X129950345Y-101173423D01*
X130467912Y-101948016D01*
X131242505Y-102465583D01*
X132156200Y-102647328D01*
X133069895Y-102465583D01*
X133844488Y-101948016D01*
X134362055Y-101173423D01*
X134543800Y-100259728D01*
X134543800Y-100218265D01*
X134805045Y-100218265D01*
X134870425Y-100467896D01*
X135338549Y-101275525D01*
X136080106Y-101842534D01*
X136982200Y-102082600D01*
X137490200Y-102082600D01*
X137490200Y-99847400D01*
X134904602Y-99847400D01*
X134805045Y-100218265D01*
X134543800Y-100218265D01*
X134543800Y-99171735D01*
X134805045Y-99171735D01*
X134904602Y-99542600D01*
X137490200Y-99542600D01*
X137490200Y-97307400D01*
X136982200Y-97307400D01*
X136080106Y-97547466D01*
X135338549Y-98114475D01*
X134870425Y-98922104D01*
X134805045Y-99171735D01*
X134543800Y-99171735D01*
X134543800Y-99130272D01*
X134362055Y-98216577D01*
X133844488Y-97441984D01*
X133069895Y-96924417D01*
X132156200Y-96742672D01*
X131242505Y-96924417D01*
X130467912Y-97441984D01*
X129950345Y-98216577D01*
X129848259Y-98729800D01*
X129260300Y-98729800D01*
X128890934Y-98803271D01*
X128577801Y-99012501D01*
X127385502Y-100204800D01*
X122501196Y-100204800D01*
X122464748Y-100150252D01*
X122363927Y-100082885D01*
X122245000Y-100059229D01*
X120805000Y-100059229D01*
X120686073Y-100082885D01*
X120585252Y-100150252D01*
X120517885Y-100251073D01*
X120508481Y-100298350D01*
X120492115Y-100216073D01*
X120424748Y-100115252D01*
X120323927Y-100047885D01*
X120205000Y-100024229D01*
X118690200Y-100024229D01*
X118690200Y-99365771D01*
X120205000Y-99365771D01*
X120323927Y-99342115D01*
X120424748Y-99274748D01*
X120492115Y-99173927D01*
X120508481Y-99091650D01*
X120517885Y-99138927D01*
X120585252Y-99239748D01*
X120686073Y-99307115D01*
X120805000Y-99330771D01*
X122245000Y-99330771D01*
X122363927Y-99307115D01*
X122464748Y-99239748D01*
X122501196Y-99185200D01*
X123108900Y-99185200D01*
X123478266Y-99111729D01*
X123791399Y-98902499D01*
X124000629Y-98589366D01*
X124074100Y-98220000D01*
X124000629Y-97850634D01*
X123791399Y-97537501D01*
X123478266Y-97328271D01*
X123282200Y-97289271D01*
X123282200Y-97020729D01*
X123478266Y-96981729D01*
X123791399Y-96772499D01*
X124000629Y-96459366D01*
X124074100Y-96090000D01*
X124074100Y-95261298D01*
X127047500Y-92287899D01*
X127256729Y-91974766D01*
X127277359Y-91871052D01*
X127330200Y-91605400D01*
X127330200Y-91088909D01*
X127392748Y-91076467D01*
X127472773Y-91022996D01*
X127499206Y-91086811D01*
X127670689Y-91258294D01*
X127894743Y-91351100D01*
X128600200Y-91351100D01*
X128752600Y-91198700D01*
X128752600Y-88798400D01*
X129057400Y-88798400D01*
X129057400Y-91198700D01*
X129209800Y-91351100D01*
X129915257Y-91351100D01*
X130139311Y-91258294D01*
X130310794Y-91086811D01*
X130403600Y-90862757D01*
X130403600Y-88950800D01*
X130352800Y-88900000D01*
X134919348Y-88900000D01*
X135013121Y-89371428D01*
X135280163Y-89771085D01*
X135679820Y-90038127D01*
X136151248Y-90131900D01*
X136898752Y-90131900D01*
X137370180Y-90038127D01*
X137769837Y-89771085D01*
X138036879Y-89371428D01*
X138130652Y-88900000D01*
X138036879Y-88428572D01*
X137769837Y-88028915D01*
X137370180Y-87761873D01*
X136898752Y-87668100D01*
X136151248Y-87668100D01*
X135679820Y-87761873D01*
X135280163Y-88028915D01*
X135013121Y-88428572D01*
X134919348Y-88900000D01*
X130352800Y-88900000D01*
X130251200Y-88798400D01*
X129057400Y-88798400D01*
X128752600Y-88798400D01*
X128732600Y-88798400D01*
X128732600Y-88493600D01*
X128752600Y-88493600D01*
X128752600Y-86093300D01*
X129057400Y-86093300D01*
X129057400Y-88493600D01*
X130251200Y-88493600D01*
X130403600Y-88341200D01*
X130403600Y-86429243D01*
X130310794Y-86205189D01*
X130139311Y-86033706D01*
X129915257Y-85940900D01*
X129209800Y-85940900D01*
X129057400Y-86093300D01*
X128752600Y-86093300D01*
X128600200Y-85940900D01*
X127894743Y-85940900D01*
X127670689Y-86033706D01*
X127499206Y-86205189D01*
X127472773Y-86269004D01*
X127392748Y-86215533D01*
X127254000Y-86187934D01*
X125476000Y-86187934D01*
X125337252Y-86215533D01*
X125219627Y-86294127D01*
X125141033Y-86411752D01*
X125113434Y-86550500D01*
X125113434Y-90741500D01*
X125141033Y-90880248D01*
X125219627Y-90997873D01*
X125337252Y-91076467D01*
X125399800Y-91088909D01*
X125399800Y-91205601D01*
X122503198Y-94102204D01*
X122532115Y-94058927D01*
X122555771Y-93940000D01*
X122555771Y-92340000D01*
X122532115Y-92221073D01*
X122490200Y-92158343D01*
X122490200Y-91991657D01*
X122532115Y-91928927D01*
X122555771Y-91810000D01*
X122555771Y-90210000D01*
X122532115Y-90091073D01*
X122490200Y-90028343D01*
X122490200Y-89346100D01*
X122416729Y-88976734D01*
X122207499Y-88663601D01*
X122198967Y-88657900D01*
X122839889Y-88657900D01*
X122865101Y-88683156D01*
X123140401Y-88797470D01*
X123438491Y-88797730D01*
X123713990Y-88683896D01*
X123924956Y-88473299D01*
X124039270Y-88197999D01*
X124039530Y-87899909D01*
X123925696Y-87624410D01*
X123715099Y-87413444D01*
X123512694Y-87329399D01*
X123532061Y-87310066D01*
X123685126Y-86941444D01*
X123685474Y-86542307D01*
X123637781Y-86426883D01*
X123751556Y-86474126D01*
X124150693Y-86474474D01*
X124519581Y-86322052D01*
X124802061Y-86040066D01*
X124955126Y-85671444D01*
X124955127Y-85669693D01*
X130314526Y-85669693D01*
X130466948Y-86038581D01*
X130748934Y-86321061D01*
X131117556Y-86474126D01*
X131516693Y-86474474D01*
X131632117Y-86426781D01*
X131584874Y-86540556D01*
X131584526Y-86939693D01*
X131736948Y-87308581D01*
X132018934Y-87591061D01*
X132387556Y-87744126D01*
X132786693Y-87744474D01*
X133155581Y-87592052D01*
X133438061Y-87310066D01*
X133591126Y-86941444D01*
X133591474Y-86542307D01*
X133516146Y-86360000D01*
X134919348Y-86360000D01*
X135013121Y-86831428D01*
X135280163Y-87231085D01*
X135679820Y-87498127D01*
X136151248Y-87591900D01*
X136898752Y-87591900D01*
X137370180Y-87498127D01*
X137769837Y-87231085D01*
X138036879Y-86831428D01*
X138130652Y-86360000D01*
X138036879Y-85888572D01*
X137769837Y-85488915D01*
X137370180Y-85221873D01*
X136898752Y-85128100D01*
X136151248Y-85128100D01*
X135679820Y-85221873D01*
X135280163Y-85488915D01*
X135013121Y-85888572D01*
X134919348Y-86360000D01*
X133516146Y-86360000D01*
X133439052Y-86173419D01*
X133157066Y-85890939D01*
X132788444Y-85737874D01*
X132389307Y-85737526D01*
X132273883Y-85785219D01*
X132321126Y-85671444D01*
X132321474Y-85272307D01*
X132169052Y-84903419D01*
X131904867Y-84638771D01*
X133756400Y-84638771D01*
X133875327Y-84615115D01*
X133976148Y-84547748D01*
X134043515Y-84446927D01*
X134067171Y-84328000D01*
X134067171Y-82327477D01*
X138886840Y-82327477D01*
X139203259Y-83093270D01*
X139788648Y-83679682D01*
X140553888Y-83997437D01*
X141382477Y-83998160D01*
X142148270Y-83681741D01*
X142734682Y-83096352D01*
X143052437Y-82331112D01*
X143053160Y-81502523D01*
X142736741Y-80736730D01*
X142151352Y-80150318D01*
X141386112Y-79832563D01*
X140557523Y-79831840D01*
X139791730Y-80148259D01*
X139205318Y-80733648D01*
X138887563Y-81498888D01*
X138886840Y-82327477D01*
X134067171Y-82327477D01*
X134067171Y-79502000D01*
X134043515Y-79383073D01*
X133976148Y-79282252D01*
X133875327Y-79214885D01*
X133756400Y-79191229D01*
X130962400Y-79191229D01*
X130843473Y-79214885D01*
X130742652Y-79282252D01*
X130675285Y-79383073D01*
X130651629Y-79502000D01*
X130651629Y-84328000D01*
X130675285Y-84446927D01*
X130742652Y-84547748D01*
X130812386Y-84594343D01*
X130750419Y-84619948D01*
X130467939Y-84901934D01*
X130314874Y-85270556D01*
X130314526Y-85669693D01*
X124955127Y-85669693D01*
X124955474Y-85272307D01*
X124803052Y-84903419D01*
X124521066Y-84620939D01*
X124457385Y-84594496D01*
X124527348Y-84547748D01*
X124594715Y-84446927D01*
X124618371Y-84328000D01*
X124618371Y-79502000D01*
X124594715Y-79383073D01*
X124527348Y-79282252D01*
X124426527Y-79214885D01*
X124307600Y-79191229D01*
X121513600Y-79191229D01*
X121394673Y-79214885D01*
X121293852Y-79282252D01*
X121226485Y-79383073D01*
X121202829Y-79502000D01*
X121202829Y-84328000D01*
X121226485Y-84446927D01*
X121293852Y-84547748D01*
X121394673Y-84615115D01*
X121513600Y-84638771D01*
X123365563Y-84638771D01*
X123101939Y-84901934D01*
X122948874Y-85270556D01*
X122948526Y-85669693D01*
X122996219Y-85785117D01*
X122882444Y-85737874D01*
X122483307Y-85737526D01*
X122114419Y-85889948D01*
X121831939Y-86171934D01*
X121678874Y-86540556D01*
X121678526Y-86939693D01*
X121830948Y-87308581D01*
X121960839Y-87438700D01*
X113832411Y-87438700D01*
X113807199Y-87413444D01*
X113531899Y-87299130D01*
X113233809Y-87298870D01*
X113135100Y-87339656D01*
X113135100Y-83942004D01*
X113721661Y-83355443D01*
X113828572Y-83426879D01*
X114300000Y-83520652D01*
X114771428Y-83426879D01*
X115171085Y-83159837D01*
X115438127Y-82760180D01*
X115524197Y-82327477D01*
X116026840Y-82327477D01*
X116343259Y-83093270D01*
X116928648Y-83679682D01*
X117693888Y-83997437D01*
X118522477Y-83998160D01*
X119288270Y-83681741D01*
X119874682Y-83096352D01*
X120192437Y-82331112D01*
X120193160Y-81502523D01*
X119876741Y-80736730D01*
X119291352Y-80150318D01*
X118526112Y-79832563D01*
X117697523Y-79831840D01*
X116931730Y-80148259D01*
X116345318Y-80733648D01*
X116027563Y-81498888D01*
X116026840Y-82327477D01*
X115524197Y-82327477D01*
X115531900Y-82288752D01*
X115531900Y-81541248D01*
X115438127Y-81069820D01*
X115171085Y-80670163D01*
X114771428Y-80403121D01*
X114300000Y-80309348D01*
X113828572Y-80403121D01*
X113428915Y-80670163D01*
X113161873Y-81069820D01*
X113068100Y-81541248D01*
X113068100Y-82284796D01*
X112973962Y-82378934D01*
X112991900Y-82288752D01*
X112991900Y-81541248D01*
X112898127Y-81069820D01*
X112631085Y-80670163D01*
X112231428Y-80403121D01*
X111760000Y-80309348D01*
X111288572Y-80403121D01*
X110888915Y-80670163D01*
X110621873Y-81069820D01*
X110528100Y-81541248D01*
X110528100Y-82288752D01*
X110621873Y-82760180D01*
X110888915Y-83159837D01*
X111150400Y-83334556D01*
X111150400Y-90685093D01*
X111005658Y-90781806D01*
X110774405Y-91127901D01*
X110693200Y-91536148D01*
X110693200Y-92613852D01*
X110774405Y-93022099D01*
X111005658Y-93368194D01*
X111275056Y-93548200D01*
X111221148Y-93548200D01*
X110812901Y-93629405D01*
X110466806Y-93860658D01*
X110235553Y-94206753D01*
X110154348Y-94615000D01*
X110235553Y-95023247D01*
X110440528Y-95330014D01*
X110381669Y-95369342D01*
X110255048Y-95453947D01*
X108788948Y-96920048D01*
X108656803Y-97117816D01*
X108610400Y-97351100D01*
X108610400Y-97797093D01*
X108465658Y-97893806D01*
X108449033Y-97918688D01*
X108381052Y-97816948D01*
X104227376Y-93663272D01*
X104548247Y-93599447D01*
X104894342Y-93368194D01*
X105125595Y-93022099D01*
X105206800Y-92613852D01*
X105206800Y-91536148D01*
X105125595Y-91127901D01*
X104894342Y-90781806D01*
X104749600Y-90685093D01*
X104749600Y-83334556D01*
X105011085Y-83159837D01*
X105278127Y-82760180D01*
X105371900Y-82288752D01*
X105371900Y-81541248D01*
X105448100Y-81541248D01*
X105448100Y-82288752D01*
X105541873Y-82760180D01*
X105808915Y-83159837D01*
X106070400Y-83334556D01*
X106070400Y-90685093D01*
X105925658Y-90781806D01*
X105694405Y-91127901D01*
X105613200Y-91536148D01*
X105613200Y-92613852D01*
X105694405Y-93022099D01*
X105925658Y-93368194D01*
X106271753Y-93599447D01*
X106680000Y-93680652D01*
X107088247Y-93599447D01*
X107434342Y-93368194D01*
X107665595Y-93022099D01*
X107746800Y-92613852D01*
X107746800Y-91536148D01*
X107665595Y-91127901D01*
X107434342Y-90781806D01*
X107289600Y-90685093D01*
X107289600Y-83334556D01*
X107551085Y-83159837D01*
X107818127Y-82760180D01*
X107911900Y-82288752D01*
X107911900Y-81541248D01*
X107988100Y-81541248D01*
X107988100Y-82288752D01*
X108081873Y-82760180D01*
X108348915Y-83159837D01*
X108610400Y-83334556D01*
X108610400Y-90685093D01*
X108465658Y-90781806D01*
X108234405Y-91127901D01*
X108153200Y-91536148D01*
X108153200Y-92613852D01*
X108234405Y-93022099D01*
X108465658Y-93368194D01*
X108811753Y-93599447D01*
X109220000Y-93680652D01*
X109628247Y-93599447D01*
X109974342Y-93368194D01*
X110205595Y-93022099D01*
X110286800Y-92613852D01*
X110286800Y-91536148D01*
X110205595Y-91127901D01*
X109974342Y-90781806D01*
X109829600Y-90685093D01*
X109829600Y-83334556D01*
X110091085Y-83159837D01*
X110358127Y-82760180D01*
X110451900Y-82288752D01*
X110451900Y-81541248D01*
X110358127Y-81069820D01*
X110091085Y-80670163D01*
X109691428Y-80403121D01*
X109220000Y-80309348D01*
X108748572Y-80403121D01*
X108348915Y-80670163D01*
X108081873Y-81069820D01*
X107988100Y-81541248D01*
X107911900Y-81541248D01*
X107818127Y-81069820D01*
X107551085Y-80670163D01*
X107151428Y-80403121D01*
X106680000Y-80309348D01*
X106208572Y-80403121D01*
X105808915Y-80670163D01*
X105541873Y-81069820D01*
X105448100Y-81541248D01*
X105371900Y-81541248D01*
X105278127Y-81069820D01*
X105011085Y-80670163D01*
X104611428Y-80403121D01*
X104140000Y-80309348D01*
X103668572Y-80403121D01*
X103268915Y-80670163D01*
X103001873Y-81069820D01*
X102908100Y-81541248D01*
X102908100Y-82288752D01*
X102926038Y-82378934D01*
X102831900Y-82284796D01*
X102831900Y-81541248D01*
X102738127Y-81069820D01*
X102471085Y-80670163D01*
X102071428Y-80403121D01*
X101600000Y-80309348D01*
X101128572Y-80403121D01*
X100728915Y-80670163D01*
X100461873Y-81069820D01*
X100368100Y-81541248D01*
X100368100Y-82288752D01*
X100386038Y-82378934D01*
X100291900Y-82284796D01*
X100291900Y-81541248D01*
X100198127Y-81069820D01*
X99931085Y-80670163D01*
X99531428Y-80403121D01*
X99060000Y-80309348D01*
X98588572Y-80403121D01*
X98188915Y-80670163D01*
X97921873Y-81069820D01*
X97828100Y-81541248D01*
X97828100Y-82288752D01*
X97921873Y-82760180D01*
X98188915Y-83159837D01*
X98588572Y-83426879D01*
X99060000Y-83520652D01*
X99531428Y-83426879D01*
X99638339Y-83355443D01*
X99656500Y-83373604D01*
X99656500Y-90676339D01*
X99468247Y-90550553D01*
X99060000Y-90469348D01*
X98651753Y-90550553D01*
X98305658Y-90781806D01*
X98074405Y-91127901D01*
X97993200Y-91536148D01*
X97993200Y-92613852D01*
X98074405Y-93022099D01*
X98305658Y-93368194D01*
X98651753Y-93599447D01*
X99060000Y-93680652D01*
X99468247Y-93599447D01*
X99748622Y-93412107D01*
X99835048Y-93541452D01*
X103918919Y-97625323D01*
X103731753Y-97662553D01*
X103385658Y-97893806D01*
X103154405Y-98239901D01*
X103073200Y-98648148D01*
X103073200Y-99725852D01*
X103154405Y-100134099D01*
X103385658Y-100480194D01*
X103731753Y-100711447D01*
X104140000Y-100792652D01*
X104548247Y-100711447D01*
X104800400Y-100542964D01*
X104800400Y-100965000D01*
X104846803Y-101198284D01*
X104978948Y-101396052D01*
X105642042Y-102059146D01*
X105613200Y-102204148D01*
X105613200Y-103281852D01*
X105694405Y-103690099D01*
X105925658Y-104036194D01*
X106271753Y-104267447D01*
X106680000Y-104348652D01*
X107088247Y-104267447D01*
X107261000Y-104152017D01*
X107261000Y-105905983D01*
X107088247Y-105790553D01*
X106680000Y-105709348D01*
X106271753Y-105790553D01*
X105925658Y-106021806D01*
X105694405Y-106367901D01*
X105613200Y-106776148D01*
X105613200Y-107853852D01*
X105694405Y-108262099D01*
X105925658Y-108608194D01*
X106271753Y-108839447D01*
X106440068Y-108872927D01*
X100523496Y-114789500D01*
X97198704Y-114789500D01*
X103301052Y-108687152D01*
X103369734Y-108584362D01*
X103385658Y-108608194D01*
X103731753Y-108839447D01*
X104140000Y-108920652D01*
X104548247Y-108839447D01*
X104894342Y-108608194D01*
X105125595Y-108262099D01*
X105206800Y-107853852D01*
X105206800Y-106776148D01*
X105125595Y-106367901D01*
X104894342Y-106021806D01*
X104592070Y-105819834D01*
X104597284Y-105818797D01*
X104795052Y-105686652D01*
X105170905Y-105310799D01*
X105206591Y-105310830D01*
X105482090Y-105196996D01*
X105693056Y-104986399D01*
X105807370Y-104711099D01*
X105807630Y-104413009D01*
X105693796Y-104137510D01*
X105483199Y-103926544D01*
X105207899Y-103812230D01*
X105044085Y-103812087D01*
X105125595Y-103690099D01*
X105206800Y-103281852D01*
X105206800Y-102204148D01*
X105125595Y-101795901D01*
X104894342Y-101449806D01*
X104548247Y-101218553D01*
X104140000Y-101137348D01*
X103731753Y-101218553D01*
X103385658Y-101449806D01*
X103154405Y-101795901D01*
X103073200Y-102204148D01*
X103073200Y-103281852D01*
X103154405Y-103690099D01*
X103250022Y-103833200D01*
X102489978Y-103833200D01*
X102585595Y-103690099D01*
X102666800Y-103281852D01*
X102666800Y-102204148D01*
X102585595Y-101795901D01*
X102354342Y-101449806D01*
X102209600Y-101353093D01*
X102209600Y-101043200D01*
X102163197Y-100809916D01*
X102076787Y-100680595D01*
X102069884Y-100670263D01*
X102354342Y-100480194D01*
X102585595Y-100134099D01*
X102666800Y-99725852D01*
X102666800Y-98648148D01*
X102585595Y-98239901D01*
X102354342Y-97893806D01*
X102209600Y-97797093D01*
X102209600Y-97487200D01*
X102163197Y-97253916D01*
X102031052Y-97056147D01*
X98510652Y-93535748D01*
X98312884Y-93403603D01*
X98079600Y-93357200D01*
X97281688Y-93357200D01*
X97505595Y-93022099D01*
X97586800Y-92613852D01*
X97586800Y-91536148D01*
X97505595Y-91127901D01*
X97274342Y-90781806D01*
X97129600Y-90685093D01*
X97129600Y-83334556D01*
X97391085Y-83159837D01*
X97658127Y-82760180D01*
X97751900Y-82288752D01*
X97751900Y-81541248D01*
X97658127Y-81069820D01*
X97391085Y-80670163D01*
X96991428Y-80403121D01*
X96520000Y-80309348D01*
X96048572Y-80403121D01*
X95648915Y-80670163D01*
X95381873Y-81069820D01*
X95288100Y-81541248D01*
X95288100Y-82288752D01*
X95381873Y-82760180D01*
X95648915Y-83159837D01*
X95910400Y-83334556D01*
X95910400Y-90685093D01*
X95765658Y-90781806D01*
X95534405Y-91127901D01*
X95453200Y-91536148D01*
X95453200Y-92613852D01*
X95534405Y-93022099D01*
X95758312Y-93357200D01*
X94741688Y-93357200D01*
X94965595Y-93022099D01*
X95046800Y-92613852D01*
X95046800Y-91536148D01*
X94965595Y-91127901D01*
X94734342Y-90781806D01*
X94589600Y-90685093D01*
X94589600Y-83334556D01*
X94851085Y-83159837D01*
X95118127Y-82760180D01*
X95211900Y-82288752D01*
X95211900Y-81541248D01*
X95118127Y-81069820D01*
X94851085Y-80670163D01*
X94451428Y-80403121D01*
X93980000Y-80309348D01*
X93508572Y-80403121D01*
X93108915Y-80670163D01*
X92841873Y-81069820D01*
X92748100Y-81541248D01*
X92748100Y-82288752D01*
X92841873Y-82760180D01*
X93108915Y-83159837D01*
X93370400Y-83334556D01*
X93370400Y-90685093D01*
X93225658Y-90781806D01*
X92994405Y-91127901D01*
X92913200Y-91536148D01*
X92913200Y-92613852D01*
X92994405Y-93022099D01*
X93218312Y-93357200D01*
X92201688Y-93357200D01*
X92425595Y-93022099D01*
X92506800Y-92613852D01*
X92506800Y-91536148D01*
X92425595Y-91127901D01*
X92194342Y-90781806D01*
X92049600Y-90685093D01*
X92049600Y-83334556D01*
X92311085Y-83159837D01*
X92578127Y-82760180D01*
X92671900Y-82288752D01*
X92671900Y-81541248D01*
X92578127Y-81069820D01*
X92311085Y-80670163D01*
X91911428Y-80403121D01*
X91440000Y-80309348D01*
X90968572Y-80403121D01*
X90568915Y-80670163D01*
X90301873Y-81069820D01*
X90208100Y-81541248D01*
X90208100Y-82288752D01*
X90301873Y-82760180D01*
X90568915Y-83159837D01*
X90830400Y-83334556D01*
X90830400Y-90685093D01*
X90685658Y-90781806D01*
X90454405Y-91127901D01*
X90373200Y-91536148D01*
X90373200Y-92613852D01*
X90454405Y-93022099D01*
X90678312Y-93357200D01*
X89661688Y-93357200D01*
X89885595Y-93022099D01*
X89966800Y-92613852D01*
X89966800Y-91536148D01*
X89885595Y-91127901D01*
X89654342Y-90781806D01*
X89509600Y-90685093D01*
X89509600Y-83334556D01*
X89771085Y-83159837D01*
X90038127Y-82760180D01*
X90131900Y-82288752D01*
X90131900Y-81541248D01*
X90038127Y-81069820D01*
X89771085Y-80670163D01*
X89371428Y-80403121D01*
X88900000Y-80309348D01*
X88428572Y-80403121D01*
X88028915Y-80670163D01*
X87761873Y-81069820D01*
X87668100Y-81541248D01*
X87668100Y-82288752D01*
X87761873Y-82760180D01*
X88028915Y-83159837D01*
X88290400Y-83334556D01*
X88290400Y-90685093D01*
X88145658Y-90781806D01*
X87914405Y-91127901D01*
X87833200Y-91536148D01*
X87833200Y-92613852D01*
X87914405Y-93022099D01*
X88138312Y-93357200D01*
X87121688Y-93357200D01*
X87345595Y-93022099D01*
X87426800Y-92613852D01*
X87426800Y-91536148D01*
X87345595Y-91127901D01*
X87114342Y-90781806D01*
X86969600Y-90685093D01*
X86969600Y-83334556D01*
X87231085Y-83159837D01*
X87498127Y-82760180D01*
X87591900Y-82288752D01*
X87591900Y-81541248D01*
X87498127Y-81069820D01*
X87231085Y-80670163D01*
X86831428Y-80403121D01*
X86360000Y-80309348D01*
X85888572Y-80403121D01*
X85488915Y-80670163D01*
X85221873Y-81069820D01*
X85128100Y-81541248D01*
X85128100Y-82288752D01*
X85221873Y-82760180D01*
X85488915Y-83159837D01*
X85750400Y-83334556D01*
X85750400Y-84683096D01*
X84429600Y-83362296D01*
X84429600Y-83334556D01*
X84691085Y-83159837D01*
X84958127Y-82760180D01*
X85051900Y-82288752D01*
X85051900Y-81541248D01*
X84958127Y-81069820D01*
X84691085Y-80670163D01*
X84291428Y-80403121D01*
X83820000Y-80309348D01*
X83348572Y-80403121D01*
X82948915Y-80670163D01*
X82681873Y-81069820D01*
X82588100Y-81541248D01*
X82588100Y-82288752D01*
X82681873Y-82760180D01*
X82948915Y-83159837D01*
X83210400Y-83334556D01*
X83210400Y-83614800D01*
X83256803Y-83848084D01*
X83388948Y-84045852D01*
X84870800Y-85527704D01*
X84870800Y-85667501D01*
X82569699Y-83366401D01*
X82256566Y-83157171D01*
X82165032Y-83138964D01*
X82418127Y-82760180D01*
X82511900Y-82288752D01*
X82511900Y-81541248D01*
X82418127Y-81069820D01*
X82151085Y-80670163D01*
X81751428Y-80403121D01*
X81280000Y-80309348D01*
X80808572Y-80403121D01*
X80408915Y-80670163D01*
X80161414Y-81040575D01*
X80101405Y-80843231D01*
X79718848Y-80377726D01*
X79187270Y-80094053D01*
X79129731Y-80085643D01*
X78892400Y-80196215D01*
X78892400Y-81762600D01*
X78912400Y-81762600D01*
X78912400Y-82067400D01*
X78892400Y-82067400D01*
X78892400Y-82087400D01*
X78587600Y-82087400D01*
X78587600Y-82067400D01*
X78567600Y-82067400D01*
X78567600Y-81762600D01*
X78587600Y-81762600D01*
X78587600Y-80196215D01*
X78350269Y-80085643D01*
X78292730Y-80094053D01*
X77761152Y-80377726D01*
X77489666Y-80708077D01*
X77489666Y-80645000D01*
X77462067Y-80506252D01*
X77383473Y-80388627D01*
X77265848Y-80310033D01*
X77127100Y-80282434D01*
X75272900Y-80282434D01*
X75134152Y-80310033D01*
X75016527Y-80388627D01*
X74937933Y-80506252D01*
X74910334Y-80645000D01*
X74910334Y-83185000D01*
X74937933Y-83323748D01*
X75016527Y-83441373D01*
X75134152Y-83519967D01*
X75234800Y-83539987D01*
X75234800Y-84048900D01*
X75308271Y-84418266D01*
X75517501Y-84731399D01*
X75830634Y-84940629D01*
X76200000Y-85014100D01*
X76810035Y-85014100D01*
X76291730Y-85228259D01*
X75705318Y-85813648D01*
X75387563Y-86578888D01*
X75386934Y-87299236D01*
X71225199Y-83137501D01*
X70912066Y-82928271D01*
X70542700Y-82854800D01*
X68378298Y-82854800D01*
X68277534Y-82787472D01*
X67849847Y-82702400D01*
X66770153Y-82702400D01*
X66342466Y-82787472D01*
X65979890Y-83029737D01*
X65737625Y-83392313D01*
X65652553Y-83820000D01*
X65737625Y-84247687D01*
X65979890Y-84610263D01*
X66342466Y-84852528D01*
X66770153Y-84937600D01*
X67849847Y-84937600D01*
X68277534Y-84852528D01*
X68378298Y-84785200D01*
X70142902Y-84785200D01*
X75697800Y-90340099D01*
X75925285Y-90492100D01*
X76010934Y-90549329D01*
X76380300Y-90622800D01*
X77393643Y-90622800D01*
X77368400Y-90683743D01*
X77368400Y-91770200D01*
X77520800Y-91922600D01*
X78587600Y-91922600D01*
X78587600Y-91902600D01*
X78892400Y-91902600D01*
X78892400Y-91922600D01*
X79959200Y-91922600D01*
X80111600Y-91770200D01*
X80111600Y-90683743D01*
X80086357Y-90622800D01*
X80763628Y-90622800D01*
X80525658Y-90781806D01*
X80294405Y-91127901D01*
X80213200Y-91536148D01*
X80213200Y-92613852D01*
X80294405Y-93022099D01*
X80525658Y-93368194D01*
X80871753Y-93599447D01*
X81280000Y-93680652D01*
X81688247Y-93599447D01*
X82034342Y-93368194D01*
X82265595Y-93022099D01*
X82346800Y-92613852D01*
X82346800Y-91536148D01*
X82265595Y-91127901D01*
X82034342Y-90781806D01*
X81796372Y-90622800D01*
X83303628Y-90622800D01*
X83065658Y-90781806D01*
X82834405Y-91127901D01*
X82753200Y-91536148D01*
X82753200Y-92613852D01*
X82834405Y-93022099D01*
X83065658Y-93368194D01*
X83411753Y-93599447D01*
X83820000Y-93680652D01*
X84228247Y-93599447D01*
X84574342Y-93368194D01*
X84623204Y-93295067D01*
X84627703Y-93317684D01*
X84759848Y-93515452D01*
X85642248Y-94397852D01*
X85840016Y-94529997D01*
X86073300Y-94576400D01*
X97827096Y-94576400D01*
X100990400Y-97739705D01*
X100990400Y-97797093D01*
X100845658Y-97893806D01*
X100614405Y-98239901D01*
X100533200Y-98648148D01*
X100533200Y-99725852D01*
X100614405Y-100134099D01*
X100762273Y-100355400D01*
X99897727Y-100355400D01*
X100045595Y-100134099D01*
X100126800Y-99725852D01*
X100126800Y-98648148D01*
X100045595Y-98239901D01*
X99814342Y-97893806D01*
X99468247Y-97662553D01*
X99060000Y-97581348D01*
X98651753Y-97662553D01*
X98305658Y-97893806D01*
X98074405Y-98239901D01*
X97993200Y-98648148D01*
X97993200Y-99725852D01*
X98074405Y-100134099D01*
X98222273Y-100355400D01*
X97357727Y-100355400D01*
X97505595Y-100134099D01*
X97586800Y-99725852D01*
X97586800Y-98648148D01*
X97505595Y-98239901D01*
X97274342Y-97893806D01*
X96928247Y-97662553D01*
X96520000Y-97581348D01*
X96111753Y-97662553D01*
X95765658Y-97893806D01*
X95534405Y-98239901D01*
X95453200Y-98648148D01*
X95453200Y-99725852D01*
X95534405Y-100134099D01*
X95682273Y-100355400D01*
X94817727Y-100355400D01*
X94965595Y-100134099D01*
X95046800Y-99725852D01*
X95046800Y-98648148D01*
X94965595Y-98239901D01*
X94734342Y-97893806D01*
X94388247Y-97662553D01*
X93980000Y-97581348D01*
X93571753Y-97662553D01*
X93225658Y-97893806D01*
X92994405Y-98239901D01*
X92913200Y-98648148D01*
X92913200Y-99591296D01*
X91423434Y-98101530D01*
X91396797Y-97967616D01*
X91264652Y-97769848D01*
X90209552Y-96714748D01*
X90011784Y-96582603D01*
X89778500Y-96536200D01*
X76131000Y-96536200D01*
X75897716Y-96582603D01*
X75699948Y-96714748D01*
X73380941Y-99033755D01*
X73375595Y-99006877D01*
X73144342Y-98660782D01*
X72837204Y-98455559D01*
X73281708Y-98209480D01*
X73617363Y-97787970D01*
X73766163Y-97270096D01*
X73614825Y-97053400D01*
X72542400Y-97053400D01*
X72542400Y-97073400D01*
X72237600Y-97073400D01*
X72237600Y-97053400D01*
X71165175Y-97053400D01*
X71013837Y-97270096D01*
X71162637Y-97787970D01*
X71498292Y-98209480D01*
X71942796Y-98455559D01*
X71635658Y-98660782D01*
X71404405Y-99006877D01*
X71323200Y-99415124D01*
X71323200Y-99974876D01*
X71404405Y-100383123D01*
X71635658Y-100729218D01*
X71942796Y-100934441D01*
X71498292Y-101180520D01*
X71162637Y-101602030D01*
X71013837Y-102119904D01*
X71165174Y-102336598D01*
X71111702Y-102336598D01*
X70459600Y-101684496D01*
X70459600Y-100563345D01*
X70630218Y-100449342D01*
X70861471Y-100103247D01*
X70942676Y-99695000D01*
X70861471Y-99286753D01*
X70630218Y-98940658D01*
X70284123Y-98709405D01*
X69875876Y-98628200D01*
X69316124Y-98628200D01*
X68907877Y-98709405D01*
X68561782Y-98940658D01*
X68330529Y-99286753D01*
X68249324Y-99695000D01*
X68330529Y-100103247D01*
X68561782Y-100449342D01*
X68907877Y-100680595D01*
X69240400Y-100746738D01*
X69240400Y-101937000D01*
X69286803Y-102170284D01*
X69418948Y-102368052D01*
X76391495Y-109340600D01*
X75244300Y-109340600D01*
X75011016Y-109387003D01*
X74986771Y-109403203D01*
X74986771Y-108331000D01*
X74963115Y-108212073D01*
X74895748Y-108111252D01*
X74794927Y-108043885D01*
X74676000Y-108020229D01*
X72009000Y-108020229D01*
X71890073Y-108043885D01*
X71789252Y-108111252D01*
X71721885Y-108212073D01*
X71698229Y-108331000D01*
X71698229Y-108496466D01*
X71586399Y-108450030D01*
X71288309Y-108449770D01*
X71012810Y-108563604D01*
X70801844Y-108774201D01*
X70687530Y-109049501D01*
X70687270Y-109347591D01*
X70801104Y-109623090D01*
X70946859Y-109769100D01*
X70235905Y-109769100D01*
X69973499Y-109506694D01*
X69973530Y-109471009D01*
X69859696Y-109195510D01*
X69649099Y-108984544D01*
X69373799Y-108870230D01*
X69075709Y-108869970D01*
X68800210Y-108983804D01*
X68589244Y-109194401D01*
X68474930Y-109469701D01*
X68474670Y-109767791D01*
X68588504Y-110043290D01*
X68799101Y-110254256D01*
X69074401Y-110368570D01*
X69111198Y-110368602D01*
X69552347Y-110809752D01*
X69682025Y-110896400D01*
X69750116Y-110941897D01*
X69983400Y-110988300D01*
X74815800Y-110988300D01*
X75049084Y-110941897D01*
X75246852Y-110809752D01*
X75496805Y-110559800D01*
X76457414Y-110559800D01*
X76291730Y-110628259D01*
X75705318Y-111213648D01*
X75387563Y-111978888D01*
X75386840Y-112807477D01*
X75703259Y-113573270D01*
X76206809Y-114077700D01*
X74936539Y-114077700D01*
X74963115Y-114037927D01*
X74986771Y-113919000D01*
X74986771Y-112328960D01*
X74963115Y-112210033D01*
X74895748Y-112109212D01*
X74794927Y-112041845D01*
X74676000Y-112018189D01*
X72009000Y-112018189D01*
X71890073Y-112041845D01*
X71789252Y-112109212D01*
X71721885Y-112210033D01*
X71698229Y-112328960D01*
X71698229Y-113919000D01*
X71721885Y-114037927D01*
X71748461Y-114077700D01*
X70280300Y-114077700D01*
X70047016Y-114124103D01*
X69849248Y-114256248D01*
X68889137Y-115216359D01*
X68836708Y-115150520D01*
X68365299Y-114889546D01*
X68308761Y-114882516D01*
X68097400Y-114995363D01*
X68097400Y-116306600D01*
X68117400Y-116306600D01*
X68117400Y-116611400D01*
X68097400Y-116611400D01*
X68097400Y-116631400D01*
X67792600Y-116631400D01*
X67792600Y-116611400D01*
X66720175Y-116611400D01*
X66568837Y-116828096D01*
X66717637Y-117345970D01*
X67053292Y-117767480D01*
X67289903Y-117898469D01*
X67190658Y-117964782D01*
X66959405Y-118310877D01*
X66878200Y-118719124D01*
X66878200Y-119278876D01*
X66959405Y-119687123D01*
X67190658Y-120033218D01*
X67486510Y-120230900D01*
X59474100Y-120230900D01*
X59474100Y-117887477D01*
X60146840Y-117887477D01*
X60463259Y-118653270D01*
X61048648Y-119239682D01*
X61813888Y-119557437D01*
X62642477Y-119558160D01*
X63408270Y-119241741D01*
X63994682Y-118656352D01*
X64312437Y-117891112D01*
X64313160Y-117062523D01*
X63996741Y-116296730D01*
X63790276Y-116089904D01*
X66568837Y-116089904D01*
X66720175Y-116306600D01*
X67792600Y-116306600D01*
X67792600Y-114995363D01*
X67581239Y-114882516D01*
X67524701Y-114889546D01*
X67053292Y-115150520D01*
X66717637Y-115572030D01*
X66568837Y-116089904D01*
X63790276Y-116089904D01*
X63411352Y-115710318D01*
X62646112Y-115392563D01*
X61817523Y-115391840D01*
X61051730Y-115708259D01*
X60465318Y-116293648D01*
X60147563Y-117058888D01*
X60146840Y-117887477D01*
X59474100Y-117887477D01*
X59474100Y-113428780D01*
X63144400Y-113428780D01*
X63144400Y-114040257D01*
X63237206Y-114264311D01*
X63408689Y-114435794D01*
X63632743Y-114528600D01*
X64782700Y-114528600D01*
X64935100Y-114376200D01*
X64935100Y-113276380D01*
X65239900Y-113276380D01*
X65239900Y-114376200D01*
X65392300Y-114528600D01*
X66542257Y-114528600D01*
X66766311Y-114435794D01*
X66937794Y-114264311D01*
X67030600Y-114040257D01*
X67030600Y-113428780D01*
X66878200Y-113276380D01*
X65239900Y-113276380D01*
X64935100Y-113276380D01*
X63296800Y-113276380D01*
X63144400Y-113428780D01*
X59474100Y-113428780D01*
X59474100Y-112207703D01*
X63144400Y-112207703D01*
X63144400Y-112819180D01*
X63296800Y-112971580D01*
X64935100Y-112971580D01*
X64935100Y-111871760D01*
X65239900Y-111871760D01*
X65239900Y-112971580D01*
X66878200Y-112971580D01*
X67030600Y-112819180D01*
X67030600Y-112207703D01*
X66937794Y-111983649D01*
X66766311Y-111812166D01*
X66542257Y-111719360D01*
X65392300Y-111719360D01*
X65239900Y-111871760D01*
X64935100Y-111871760D01*
X64782700Y-111719360D01*
X63632743Y-111719360D01*
X63408689Y-111812166D01*
X63237206Y-111983649D01*
X63144400Y-112207703D01*
X59474100Y-112207703D01*
X59474100Y-108331000D01*
X63443229Y-108331000D01*
X63443229Y-109921040D01*
X63466885Y-110039967D01*
X63534252Y-110140788D01*
X63635073Y-110208155D01*
X63754000Y-110231811D01*
X66421000Y-110231811D01*
X66539927Y-110208155D01*
X66640748Y-110140788D01*
X66708115Y-110039967D01*
X66731771Y-109921040D01*
X66731771Y-108331000D01*
X66708115Y-108212073D01*
X66640748Y-108111252D01*
X66539927Y-108043885D01*
X66421000Y-108020229D01*
X63754000Y-108020229D01*
X63635073Y-108043885D01*
X63534252Y-108111252D01*
X63466885Y-108212073D01*
X63443229Y-108331000D01*
X59474100Y-108331000D01*
X59474100Y-104775000D01*
X60599467Y-104775000D01*
X60738676Y-105474851D01*
X61135110Y-106068157D01*
X61728416Y-106464591D01*
X62428267Y-106603800D01*
X64571733Y-106603800D01*
X65271584Y-106464591D01*
X65864890Y-106068157D01*
X66261324Y-105474851D01*
X66400533Y-104775000D01*
X66261324Y-104075149D01*
X65864890Y-103481843D01*
X65271584Y-103085409D01*
X64571733Y-102946200D01*
X62428267Y-102946200D01*
X61728416Y-103085409D01*
X61135110Y-103481843D01*
X60738676Y-104075149D01*
X60599467Y-104775000D01*
X59474100Y-104775000D01*
X59474100Y-96531904D01*
X71013837Y-96531904D01*
X71165175Y-96748600D01*
X72237600Y-96748600D01*
X72237600Y-95437363D01*
X72542400Y-95437363D01*
X72542400Y-96748600D01*
X73614825Y-96748600D01*
X73766163Y-96531904D01*
X73617363Y-96014030D01*
X73281708Y-95592520D01*
X72810299Y-95331546D01*
X72753761Y-95324516D01*
X72542400Y-95437363D01*
X72237600Y-95437363D01*
X72026239Y-95324516D01*
X71969701Y-95331546D01*
X71498292Y-95592520D01*
X71162637Y-96014030D01*
X71013837Y-96531904D01*
X59474100Y-96531904D01*
X59474100Y-94615000D01*
X60599467Y-94615000D01*
X60738676Y-95314851D01*
X61135110Y-95908157D01*
X61728416Y-96304591D01*
X62428267Y-96443800D01*
X64571733Y-96443800D01*
X65271584Y-96304591D01*
X65864890Y-95908157D01*
X66261324Y-95314851D01*
X66400533Y-94615000D01*
X66261324Y-93915149D01*
X65864890Y-93321843D01*
X65271584Y-92925409D01*
X64571733Y-92786200D01*
X62428267Y-92786200D01*
X61728416Y-92925409D01*
X61135110Y-93321843D01*
X60738676Y-93915149D01*
X60599467Y-94615000D01*
X59474100Y-94615000D01*
X59474100Y-92379800D01*
X77368400Y-92379800D01*
X77368400Y-93466257D01*
X77461206Y-93690311D01*
X77632689Y-93861794D01*
X77856743Y-93954600D01*
X78435200Y-93954600D01*
X78587600Y-93802200D01*
X78587600Y-92227400D01*
X78892400Y-92227400D01*
X78892400Y-93802200D01*
X79044800Y-93954600D01*
X79623257Y-93954600D01*
X79847311Y-93861794D01*
X80018794Y-93690311D01*
X80111600Y-93466257D01*
X80111600Y-92379800D01*
X79959200Y-92227400D01*
X78892400Y-92227400D01*
X78587600Y-92227400D01*
X77520800Y-92227400D01*
X77368400Y-92379800D01*
X59474100Y-92379800D01*
X59474100Y-88900000D01*
X65652553Y-88900000D01*
X65737625Y-89327687D01*
X65979890Y-89690263D01*
X66342466Y-89932528D01*
X66770153Y-90017600D01*
X67849847Y-90017600D01*
X68277534Y-89932528D01*
X68640110Y-89690263D01*
X68882375Y-89327687D01*
X68967447Y-88900000D01*
X68882375Y-88472313D01*
X68640110Y-88109737D01*
X68277534Y-87867472D01*
X67849847Y-87782400D01*
X66770153Y-87782400D01*
X66342466Y-87867472D01*
X65979890Y-88109737D01*
X65737625Y-88472313D01*
X65652553Y-88900000D01*
X59474100Y-88900000D01*
X59474100Y-86723761D01*
X65479516Y-86723761D01*
X65724369Y-87222104D01*
X66136312Y-87568872D01*
X66649600Y-87731600D01*
X67157600Y-87731600D01*
X67157600Y-86512400D01*
X67462400Y-86512400D01*
X67462400Y-87731600D01*
X67970400Y-87731600D01*
X68483688Y-87568872D01*
X68895631Y-87222104D01*
X69140484Y-86723761D01*
X69027637Y-86512400D01*
X67462400Y-86512400D01*
X67157600Y-86512400D01*
X65592363Y-86512400D01*
X65479516Y-86723761D01*
X59474100Y-86723761D01*
X59474100Y-85996239D01*
X65479516Y-85996239D01*
X65592363Y-86207600D01*
X67157600Y-86207600D01*
X67157600Y-84988400D01*
X67462400Y-84988400D01*
X67462400Y-86207600D01*
X69027637Y-86207600D01*
X69140484Y-85996239D01*
X68895631Y-85497896D01*
X68483688Y-85151128D01*
X67970400Y-84988400D01*
X67462400Y-84988400D01*
X67157600Y-84988400D01*
X66649600Y-84988400D01*
X66136312Y-85151128D01*
X65724369Y-85497896D01*
X65479516Y-85996239D01*
X59474100Y-85996239D01*
X59474100Y-82327477D01*
X60146840Y-82327477D01*
X60463259Y-83093270D01*
X61048648Y-83679682D01*
X61813888Y-83997437D01*
X62642477Y-83998160D01*
X63408270Y-83681741D01*
X63994682Y-83096352D01*
X64312437Y-82331112D01*
X64313160Y-81502523D01*
X63996741Y-80736730D01*
X63411352Y-80150318D01*
X62646112Y-79832563D01*
X61817523Y-79831840D01*
X61051730Y-80148259D01*
X60465318Y-80733648D01*
X60147563Y-81498888D01*
X60146840Y-82327477D01*
X59474100Y-82327477D01*
X59474100Y-79159100D01*
X143725900Y-79159100D01*
X143725900Y-110031510D01*
G36*
X71475941Y-118337755D02*
X71470595Y-118310877D01*
X71239342Y-117964782D01*
X71140097Y-117898469D01*
X71376708Y-117767480D01*
X71712363Y-117345970D01*
X71861163Y-116828096D01*
X71709825Y-116611400D01*
X70637400Y-116611400D01*
X70637400Y-116631400D01*
X70332600Y-116631400D01*
X70332600Y-116611400D01*
X70312600Y-116611400D01*
X70312600Y-116306600D01*
X70332600Y-116306600D01*
X70332600Y-116286600D01*
X70637400Y-116286600D01*
X70637400Y-116306600D01*
X71709825Y-116306600D01*
X71861163Y-116089904D01*
X71712363Y-115572030D01*
X71493273Y-115296900D01*
X74516795Y-115296900D01*
X71475941Y-118337755D01*
X71475941Y-118337755D01*
G37*
X71475941Y-118337755D02*
X71470595Y-118310877D01*
X71239342Y-117964782D01*
X71140097Y-117898469D01*
X71376708Y-117767480D01*
X71712363Y-117345970D01*
X71861163Y-116828096D01*
X71709825Y-116611400D01*
X70637400Y-116611400D01*
X70637400Y-116631400D01*
X70332600Y-116631400D01*
X70332600Y-116611400D01*
X70312600Y-116611400D01*
X70312600Y-116306600D01*
X70332600Y-116306600D01*
X70332600Y-116286600D01*
X70637400Y-116286600D01*
X70637400Y-116306600D01*
X71709825Y-116306600D01*
X71861163Y-116089904D01*
X71712363Y-115572030D01*
X71493273Y-115296900D01*
X74516795Y-115296900D01*
X71475941Y-118337755D01*
G36*
X89636598Y-97866002D02*
X89636598Y-97967798D01*
X89484200Y-97815400D01*
X89032743Y-97815400D01*
X88808689Y-97908206D01*
X88637206Y-98079689D01*
X88544400Y-98303743D01*
X88544400Y-99390200D01*
X88696800Y-99542600D01*
X89636600Y-99542600D01*
X89636600Y-99522600D01*
X89941400Y-99522600D01*
X89941400Y-99542600D01*
X90881200Y-99542600D01*
X91010748Y-99413052D01*
X92993748Y-101396052D01*
X93178908Y-101519773D01*
X92994405Y-101795901D01*
X92913200Y-102204148D01*
X92913200Y-103281852D01*
X92994405Y-103690099D01*
X93225658Y-104036194D01*
X93571753Y-104267447D01*
X93980000Y-104348652D01*
X94388247Y-104267447D01*
X94734342Y-104036194D01*
X94965595Y-103690099D01*
X95046800Y-103281852D01*
X95046800Y-102204148D01*
X94965595Y-101795901D01*
X94817727Y-101574600D01*
X95682273Y-101574600D01*
X95534405Y-101795901D01*
X95453200Y-102204148D01*
X95453200Y-103281852D01*
X95534405Y-103690099D01*
X95765658Y-104036194D01*
X96111753Y-104267447D01*
X96520000Y-104348652D01*
X96928247Y-104267447D01*
X97274342Y-104036194D01*
X97505595Y-103690099D01*
X97586800Y-103281852D01*
X97586800Y-102204148D01*
X97505595Y-101795901D01*
X97357727Y-101574600D01*
X98222273Y-101574600D01*
X98074405Y-101795901D01*
X97993200Y-102204148D01*
X97993200Y-103281852D01*
X98074405Y-103690099D01*
X98305658Y-104036194D01*
X98450400Y-104132907D01*
X98450400Y-104190296D01*
X98151696Y-104489000D01*
X93992900Y-104489000D01*
X93759616Y-104535403D01*
X93720709Y-104561400D01*
X93561848Y-104667547D01*
X92278948Y-105950448D01*
X92212805Y-106049438D01*
X92194342Y-106021806D01*
X91848916Y-105791000D01*
X92194342Y-105560194D01*
X92425595Y-105214099D01*
X92506800Y-104805852D01*
X92506800Y-103728148D01*
X92425595Y-103319901D01*
X92194342Y-102973806D01*
X91848247Y-102742553D01*
X91440000Y-102661348D01*
X91031753Y-102742553D01*
X90685658Y-102973806D01*
X90454405Y-103319901D01*
X90373200Y-103728148D01*
X90373200Y-104805852D01*
X90454405Y-105214099D01*
X90685658Y-105560194D01*
X91031084Y-105791000D01*
X90685658Y-106021806D01*
X90454405Y-106367901D01*
X90373200Y-106776148D01*
X90373200Y-107853852D01*
X90454405Y-108262099D01*
X90654993Y-108562300D01*
X89685007Y-108562300D01*
X89885595Y-108262099D01*
X89966800Y-107853852D01*
X89966800Y-106776148D01*
X89885595Y-106367901D01*
X89654342Y-106021806D01*
X89308916Y-105791000D01*
X89654342Y-105560194D01*
X89885595Y-105214099D01*
X89966800Y-104805852D01*
X89966800Y-103728148D01*
X89885595Y-103319901D01*
X89654342Y-102973806D01*
X89308247Y-102742553D01*
X88900000Y-102661348D01*
X88491753Y-102742553D01*
X88145658Y-102973806D01*
X87914405Y-103319901D01*
X87833200Y-103728148D01*
X87833200Y-104805852D01*
X87914405Y-105214099D01*
X88145658Y-105560194D01*
X88491084Y-105791000D01*
X88145658Y-106021806D01*
X87914405Y-106367901D01*
X87833200Y-106776148D01*
X87833200Y-107853852D01*
X87914405Y-108262099D01*
X88114993Y-108562300D01*
X87145007Y-108562300D01*
X87345595Y-108262099D01*
X87426800Y-107853852D01*
X87426800Y-106776148D01*
X87345595Y-106367901D01*
X87114342Y-106021806D01*
X86814501Y-105821459D01*
X87150263Y-105597110D01*
X87392528Y-105234534D01*
X87477600Y-104806847D01*
X87477600Y-103727153D01*
X87392528Y-103299466D01*
X87150263Y-102936890D01*
X86891700Y-102764124D01*
X87110366Y-102720629D01*
X87423499Y-102511399D01*
X87632729Y-102198266D01*
X87706200Y-101828900D01*
X87706200Y-101110882D01*
X87710967Y-101103748D01*
X87738566Y-100965000D01*
X87738566Y-99999800D01*
X88544400Y-99999800D01*
X88544400Y-101086257D01*
X88637206Y-101310311D01*
X88808689Y-101481794D01*
X89032743Y-101574600D01*
X89484200Y-101574600D01*
X89636600Y-101422200D01*
X89636600Y-99847400D01*
X89941400Y-99847400D01*
X89941400Y-101422200D01*
X90093800Y-101574600D01*
X90545257Y-101574600D01*
X90769311Y-101481794D01*
X90940794Y-101310311D01*
X91033600Y-101086257D01*
X91033600Y-99999800D01*
X90881200Y-99847400D01*
X89941400Y-99847400D01*
X89636600Y-99847400D01*
X88696800Y-99847400D01*
X88544400Y-99999800D01*
X87738566Y-99999800D01*
X87738566Y-98425000D01*
X87710967Y-98286252D01*
X87632373Y-98168627D01*
X87514748Y-98090033D01*
X87376000Y-98062434D01*
X86106000Y-98062434D01*
X85967252Y-98090033D01*
X85849627Y-98168627D01*
X85771033Y-98286252D01*
X85743434Y-98425000D01*
X85743434Y-100910040D01*
X85668315Y-100924982D01*
X85607033Y-100937171D01*
X85293900Y-101146401D01*
X83137501Y-103302801D01*
X82928271Y-103615934D01*
X82854800Y-103985300D01*
X82854800Y-106246702D01*
X82787472Y-106347466D01*
X82702400Y-106775153D01*
X82702400Y-107854847D01*
X82787472Y-108282534D01*
X82974405Y-108562300D01*
X82125595Y-108562300D01*
X82312528Y-108282534D01*
X82397600Y-107854847D01*
X82397600Y-106775153D01*
X82312528Y-106347466D01*
X82070263Y-105984890D01*
X81780085Y-105791000D01*
X82070263Y-105597110D01*
X82312528Y-105234534D01*
X82397600Y-104806847D01*
X82397600Y-103727153D01*
X82312528Y-103299466D01*
X82245200Y-103198702D01*
X82245200Y-103098300D01*
X82895800Y-103098300D01*
X83265166Y-103024829D01*
X83578299Y-102815599D01*
X83902499Y-102491399D01*
X84111729Y-102178266D01*
X84120295Y-102135200D01*
X84185200Y-101808900D01*
X84185200Y-101307566D01*
X84575000Y-101307566D01*
X84713748Y-101279967D01*
X84831373Y-101201373D01*
X84909967Y-101083748D01*
X84937566Y-100945000D01*
X84937566Y-98445000D01*
X84909967Y-98306252D01*
X84831373Y-98188627D01*
X84713748Y-98110033D01*
X84575000Y-98082434D01*
X81865000Y-98082434D01*
X81726252Y-98110033D01*
X81608627Y-98188627D01*
X81530033Y-98306252D01*
X81502434Y-98445000D01*
X81502434Y-100945000D01*
X81530033Y-101083748D01*
X81586261Y-101167900D01*
X81280000Y-101167900D01*
X80910634Y-101241371D01*
X80597501Y-101450601D01*
X80388271Y-101763734D01*
X80314800Y-102133100D01*
X80314800Y-103198702D01*
X80247472Y-103299466D01*
X80162400Y-103727153D01*
X80162400Y-104806847D01*
X80247472Y-105234534D01*
X80489737Y-105597110D01*
X80779915Y-105791000D01*
X80489737Y-105984890D01*
X80247472Y-106347466D01*
X80162400Y-106775153D01*
X80162400Y-107854847D01*
X80247472Y-108282534D01*
X80434405Y-108562300D01*
X79525007Y-108562300D01*
X79725595Y-108262099D01*
X79806800Y-107853852D01*
X79806800Y-106776148D01*
X79725595Y-106367901D01*
X79494342Y-106021806D01*
X79349600Y-105925093D01*
X79349600Y-102227304D01*
X79771052Y-101805852D01*
X79903197Y-101608084D01*
X79909857Y-101574600D01*
X79949600Y-101374800D01*
X79949600Y-101255771D01*
X80695000Y-101255771D01*
X80813927Y-101232115D01*
X80914748Y-101164748D01*
X80982115Y-101063927D01*
X81005771Y-100945000D01*
X81005771Y-98445000D01*
X80982115Y-98326073D01*
X80914748Y-98225252D01*
X80813927Y-98157885D01*
X80695000Y-98134229D01*
X77985000Y-98134229D01*
X77866073Y-98157885D01*
X77765252Y-98225252D01*
X77697885Y-98326073D01*
X77674229Y-98445000D01*
X77674229Y-100945000D01*
X77697885Y-101063927D01*
X77765252Y-101164748D01*
X77866073Y-101232115D01*
X77985000Y-101255771D01*
X78596925Y-101255771D01*
X78308948Y-101543748D01*
X78176803Y-101741516D01*
X78130400Y-101974800D01*
X78130400Y-105925093D01*
X77985658Y-106021806D01*
X77754405Y-106367901D01*
X77673200Y-106776148D01*
X77673200Y-107853852D01*
X77754405Y-108262099D01*
X77954993Y-108562300D01*
X77337405Y-108562300D01*
X72825270Y-104050166D01*
X73281708Y-103797480D01*
X73617363Y-103375970D01*
X73766163Y-102858096D01*
X73614825Y-102641400D01*
X72542400Y-102641400D01*
X72542400Y-102661400D01*
X72237600Y-102661400D01*
X72237600Y-102641400D01*
X72217600Y-102641400D01*
X72217600Y-102336600D01*
X72237600Y-102336600D01*
X72237600Y-102316600D01*
X72542400Y-102316600D01*
X72542400Y-102336600D01*
X73614825Y-102336600D01*
X73766163Y-102119904D01*
X73617363Y-101602030D01*
X73281708Y-101180520D01*
X72837204Y-100934441D01*
X73144342Y-100729218D01*
X73375595Y-100383123D01*
X73391214Y-100304600D01*
X73581800Y-100304600D01*
X73815084Y-100258197D01*
X74012852Y-100126052D01*
X76383504Y-97755400D01*
X89525996Y-97755400D01*
X89636598Y-97866002D01*
X89636598Y-97866002D01*
G37*
X89636598Y-97866002D02*
X89636598Y-97967798D01*
X89484200Y-97815400D01*
X89032743Y-97815400D01*
X88808689Y-97908206D01*
X88637206Y-98079689D01*
X88544400Y-98303743D01*
X88544400Y-99390200D01*
X88696800Y-99542600D01*
X89636600Y-99542600D01*
X89636600Y-99522600D01*
X89941400Y-99522600D01*
X89941400Y-99542600D01*
X90881200Y-99542600D01*
X91010748Y-99413052D01*
X92993748Y-101396052D01*
X93178908Y-101519773D01*
X92994405Y-101795901D01*
X92913200Y-102204148D01*
X92913200Y-103281852D01*
X92994405Y-103690099D01*
X93225658Y-104036194D01*
X93571753Y-104267447D01*
X93980000Y-104348652D01*
X94388247Y-104267447D01*
X94734342Y-104036194D01*
X94965595Y-103690099D01*
X95046800Y-103281852D01*
X95046800Y-102204148D01*
X94965595Y-101795901D01*
X94817727Y-101574600D01*
X95682273Y-101574600D01*
X95534405Y-101795901D01*
X95453200Y-102204148D01*
X95453200Y-103281852D01*
X95534405Y-103690099D01*
X95765658Y-104036194D01*
X96111753Y-104267447D01*
X96520000Y-104348652D01*
X96928247Y-104267447D01*
X97274342Y-104036194D01*
X97505595Y-103690099D01*
X97586800Y-103281852D01*
X97586800Y-102204148D01*
X97505595Y-101795901D01*
X97357727Y-101574600D01*
X98222273Y-101574600D01*
X98074405Y-101795901D01*
X97993200Y-102204148D01*
X97993200Y-103281852D01*
X98074405Y-103690099D01*
X98305658Y-104036194D01*
X98450400Y-104132907D01*
X98450400Y-104190296D01*
X98151696Y-104489000D01*
X93992900Y-104489000D01*
X93759616Y-104535403D01*
X93720709Y-104561400D01*
X93561848Y-104667547D01*
X92278948Y-105950448D01*
X92212805Y-106049438D01*
X92194342Y-106021806D01*
X91848916Y-105791000D01*
X92194342Y-105560194D01*
X92425595Y-105214099D01*
X92506800Y-104805852D01*
X92506800Y-103728148D01*
X92425595Y-103319901D01*
X92194342Y-102973806D01*
X91848247Y-102742553D01*
X91440000Y-102661348D01*
X91031753Y-102742553D01*
X90685658Y-102973806D01*
X90454405Y-103319901D01*
X90373200Y-103728148D01*
X90373200Y-104805852D01*
X90454405Y-105214099D01*
X90685658Y-105560194D01*
X91031084Y-105791000D01*
X90685658Y-106021806D01*
X90454405Y-106367901D01*
X90373200Y-106776148D01*
X90373200Y-107853852D01*
X90454405Y-108262099D01*
X90654993Y-108562300D01*
X89685007Y-108562300D01*
X89885595Y-108262099D01*
X89966800Y-107853852D01*
X89966800Y-106776148D01*
X89885595Y-106367901D01*
X89654342Y-106021806D01*
X89308916Y-105791000D01*
X89654342Y-105560194D01*
X89885595Y-105214099D01*
X89966800Y-104805852D01*
X89966800Y-103728148D01*
X89885595Y-103319901D01*
X89654342Y-102973806D01*
X89308247Y-102742553D01*
X88900000Y-102661348D01*
X88491753Y-102742553D01*
X88145658Y-102973806D01*
X87914405Y-103319901D01*
X87833200Y-103728148D01*
X87833200Y-104805852D01*
X87914405Y-105214099D01*
X88145658Y-105560194D01*
X88491084Y-105791000D01*
X88145658Y-106021806D01*
X87914405Y-106367901D01*
X87833200Y-106776148D01*
X87833200Y-107853852D01*
X87914405Y-108262099D01*
X88114993Y-108562300D01*
X87145007Y-108562300D01*
X87345595Y-108262099D01*
X87426800Y-107853852D01*
X87426800Y-106776148D01*
X87345595Y-106367901D01*
X87114342Y-106021806D01*
X86814501Y-105821459D01*
X87150263Y-105597110D01*
X87392528Y-105234534D01*
X87477600Y-104806847D01*
X87477600Y-103727153D01*
X87392528Y-103299466D01*
X87150263Y-102936890D01*
X86891700Y-102764124D01*
X87110366Y-102720629D01*
X87423499Y-102511399D01*
X87632729Y-102198266D01*
X87706200Y-101828900D01*
X87706200Y-101110882D01*
X87710967Y-101103748D01*
X87738566Y-100965000D01*
X87738566Y-99999800D01*
X88544400Y-99999800D01*
X88544400Y-101086257D01*
X88637206Y-101310311D01*
X88808689Y-101481794D01*
X89032743Y-101574600D01*
X89484200Y-101574600D01*
X89636600Y-101422200D01*
X89636600Y-99847400D01*
X89941400Y-99847400D01*
X89941400Y-101422200D01*
X90093800Y-101574600D01*
X90545257Y-101574600D01*
X90769311Y-101481794D01*
X90940794Y-101310311D01*
X91033600Y-101086257D01*
X91033600Y-99999800D01*
X90881200Y-99847400D01*
X89941400Y-99847400D01*
X89636600Y-99847400D01*
X88696800Y-99847400D01*
X88544400Y-99999800D01*
X87738566Y-99999800D01*
X87738566Y-98425000D01*
X87710967Y-98286252D01*
X87632373Y-98168627D01*
X87514748Y-98090033D01*
X87376000Y-98062434D01*
X86106000Y-98062434D01*
X85967252Y-98090033D01*
X85849627Y-98168627D01*
X85771033Y-98286252D01*
X85743434Y-98425000D01*
X85743434Y-100910040D01*
X85668315Y-100924982D01*
X85607033Y-100937171D01*
X85293900Y-101146401D01*
X83137501Y-103302801D01*
X82928271Y-103615934D01*
X82854800Y-103985300D01*
X82854800Y-106246702D01*
X82787472Y-106347466D01*
X82702400Y-106775153D01*
X82702400Y-107854847D01*
X82787472Y-108282534D01*
X82974405Y-108562300D01*
X82125595Y-108562300D01*
X82312528Y-108282534D01*
X82397600Y-107854847D01*
X82397600Y-106775153D01*
X82312528Y-106347466D01*
X82070263Y-105984890D01*
X81780085Y-105791000D01*
X82070263Y-105597110D01*
X82312528Y-105234534D01*
X82397600Y-104806847D01*
X82397600Y-103727153D01*
X82312528Y-103299466D01*
X82245200Y-103198702D01*
X82245200Y-103098300D01*
X82895800Y-103098300D01*
X83265166Y-103024829D01*
X83578299Y-102815599D01*
X83902499Y-102491399D01*
X84111729Y-102178266D01*
X84120295Y-102135200D01*
X84185200Y-101808900D01*
X84185200Y-101307566D01*
X84575000Y-101307566D01*
X84713748Y-101279967D01*
X84831373Y-101201373D01*
X84909967Y-101083748D01*
X84937566Y-100945000D01*
X84937566Y-98445000D01*
X84909967Y-98306252D01*
X84831373Y-98188627D01*
X84713748Y-98110033D01*
X84575000Y-98082434D01*
X81865000Y-98082434D01*
X81726252Y-98110033D01*
X81608627Y-98188627D01*
X81530033Y-98306252D01*
X81502434Y-98445000D01*
X81502434Y-100945000D01*
X81530033Y-101083748D01*
X81586261Y-101167900D01*
X81280000Y-101167900D01*
X80910634Y-101241371D01*
X80597501Y-101450601D01*
X80388271Y-101763734D01*
X80314800Y-102133100D01*
X80314800Y-103198702D01*
X80247472Y-103299466D01*
X80162400Y-103727153D01*
X80162400Y-104806847D01*
X80247472Y-105234534D01*
X80489737Y-105597110D01*
X80779915Y-105791000D01*
X80489737Y-105984890D01*
X80247472Y-106347466D01*
X80162400Y-106775153D01*
X80162400Y-107854847D01*
X80247472Y-108282534D01*
X80434405Y-108562300D01*
X79525007Y-108562300D01*
X79725595Y-108262099D01*
X79806800Y-107853852D01*
X79806800Y-106776148D01*
X79725595Y-106367901D01*
X79494342Y-106021806D01*
X79349600Y-105925093D01*
X79349600Y-102227304D01*
X79771052Y-101805852D01*
X79903197Y-101608084D01*
X79909857Y-101574600D01*
X79949600Y-101374800D01*
X79949600Y-101255771D01*
X80695000Y-101255771D01*
X80813927Y-101232115D01*
X80914748Y-101164748D01*
X80982115Y-101063927D01*
X81005771Y-100945000D01*
X81005771Y-98445000D01*
X80982115Y-98326073D01*
X80914748Y-98225252D01*
X80813927Y-98157885D01*
X80695000Y-98134229D01*
X77985000Y-98134229D01*
X77866073Y-98157885D01*
X77765252Y-98225252D01*
X77697885Y-98326073D01*
X77674229Y-98445000D01*
X77674229Y-100945000D01*
X77697885Y-101063927D01*
X77765252Y-101164748D01*
X77866073Y-101232115D01*
X77985000Y-101255771D01*
X78596925Y-101255771D01*
X78308948Y-101543748D01*
X78176803Y-101741516D01*
X78130400Y-101974800D01*
X78130400Y-105925093D01*
X77985658Y-106021806D01*
X77754405Y-106367901D01*
X77673200Y-106776148D01*
X77673200Y-107853852D01*
X77754405Y-108262099D01*
X77954993Y-108562300D01*
X77337405Y-108562300D01*
X72825270Y-104050166D01*
X73281708Y-103797480D01*
X73617363Y-103375970D01*
X73766163Y-102858096D01*
X73614825Y-102641400D01*
X72542400Y-102641400D01*
X72542400Y-102661400D01*
X72237600Y-102661400D01*
X72237600Y-102641400D01*
X72217600Y-102641400D01*
X72217600Y-102336600D01*
X72237600Y-102336600D01*
X72237600Y-102316600D01*
X72542400Y-102316600D01*
X72542400Y-102336600D01*
X73614825Y-102336600D01*
X73766163Y-102119904D01*
X73617363Y-101602030D01*
X73281708Y-101180520D01*
X72837204Y-100934441D01*
X73144342Y-100729218D01*
X73375595Y-100383123D01*
X73391214Y-100304600D01*
X73581800Y-100304600D01*
X73815084Y-100258197D01*
X74012852Y-100126052D01*
X76383504Y-97755400D01*
X89525996Y-97755400D01*
X89636598Y-97866002D01*
M02*
