M48
;DRILL file {KiCad no-vcs-found-df2ff50~58~ubuntu16.04.1} date Tue May 23 13:41:30 2017
;FORMAT={-:-/ absolute / inch / decimal}
FMAT,2
INCH,TZ
T1C0.025
T2C0.035
T3C0.038
T4C0.039
T5C0.040
T6C0.043
T7C0.047
T8C0.063
T9C0.090
T10C0.106
T11C0.124
T12C0.130
%
G90
G05
M72
T1
X2.3778Y-3.9585
X2.6212Y-3.8575
X2.7251Y-4.3164
X2.7696Y-4.2961
X2.7873Y-4.4954
X3.361Y-3.3046
X3.646Y-3.4047
X3.7324Y-3.8351
X4.0756Y-4.4409
X4.0872Y-3.3527
X4.146Y-3.5775
X4.1461Y-4.4066
X4.2206Y-4.1248
X4.2654Y-4.3672
X4.4959Y-3.4915
X4.5282Y-3.825
X4.6109Y-3.5091
X4.6562Y-4.3672
X4.7575Y-3.1527
X4.8718Y-3.6669
X4.8718Y-3.8669
X4.8936Y-4.1514
X5.0058Y-4.4709
T2
X2.75Y-3.925
X2.85Y-3.825
X2.85Y-3.925
X2.85Y-4.025
T3
X5.485Y-4.25
X5.585Y-4.25
X2.775Y-4.56
X2.775Y-4.66
X2.675Y-4.56
X2.675Y-4.66
T4
X2.65Y-3.3
X2.65Y-3.4
X2.65Y-3.5
T5
X3.1Y-3.625
X3.1Y-4.225
X3.2Y-3.625
X3.2Y-4.125
X3.2Y-4.225
X3.3Y-3.625
X3.3Y-4.225
X3.4Y-3.625
X3.4Y-4.125
X3.4Y-4.225
X3.5Y-3.625
X3.5Y-4.125
X3.5Y-4.225
X3.6Y-3.625
X3.6Y-4.125
X3.6Y-4.225
X3.7Y-3.625
X3.7Y-3.925
X3.7Y-4.025
X3.7Y-4.225
X3.8Y-3.625
X3.8Y-3.925
X3.8Y-4.025
X3.8Y-4.225
X3.9Y-3.625
X3.9Y-3.925
X3.9Y-4.025
X3.9Y-4.225
X4.Y-3.625
X4.Y-3.925
X4.Y-4.025
X4.Y-4.225
X4.1Y-3.625
X4.1Y-3.925
X4.1Y-4.025
X4.1Y-4.225
X4.2Y-3.625
X4.2Y-3.925
X4.2Y-4.025
X4.2Y-4.225
X4.3Y-3.625
X4.3Y-3.925
X4.3Y-4.025
X4.3Y-4.225
X4.4Y-3.625
X4.4Y-3.725
X4.4Y-3.825
X4.4Y-3.925
X4.4Y-4.025
X4.4Y-4.125
X4.4Y-4.225
T6
X3.Y-3.225
X3.Y-4.625
X3.1Y-3.225
X3.1Y-4.625
X3.2Y-3.225
X3.2Y-4.625
X3.3Y-3.225
X3.3Y-4.625
X3.4Y-3.225
X3.4Y-4.625
X3.5Y-3.225
X3.5Y-4.625
X3.6Y-3.225
X3.6Y-4.625
X3.7Y-3.225
X3.7Y-4.625
X3.8Y-3.225
X3.8Y-4.625
X3.9Y-3.225
X3.9Y-4.625
X4.Y-3.225
X4.Y-4.625
X4.1Y-3.225
X4.1Y-4.625
X4.2Y-3.225
X4.2Y-4.625
X4.3Y-3.225
X4.3Y-4.625
X4.4Y-3.225
X4.4Y-4.625
X4.5Y-3.225
X4.5Y-4.625
T7
X4.88Y-4.485
X5.17Y-4.485
X4.83Y-3.415
X5.22Y-3.415
X4.88Y-3.365
X5.17Y-3.365
X4.83Y-4.435
X5.22Y-4.435
T8
X5.532Y-3.925
T9
X2.5Y-3.725
X2.5Y-4.125
T10
X5.414Y-3.925
X5.453Y-3.748
X5.453Y-4.102
T11
X5.178Y-3.925
T12
X2.45Y-4.625
X3.05Y-3.425
X3.05Y-4.425
X4.65Y-3.225
X4.65Y-4.625
X2.45Y-3.225
X5.55Y-3.225
X5.55Y-4.625
T0
M30
