M48
;DRILL file {KiCad no-vcs-found-7584~57~ubuntu16.04.1} date Wed Feb  8 11:01:09 2017
;FORMAT={-:-/ absolute / inch / decimal}
FMAT,2
INCH,TZ
T1C0.025
T2C0.035
T3C0.039
T4C0.040
T5C0.043
T6C0.047
T7C0.063
T8C0.090
T9C0.106
T10C0.124
T11C0.130
%
G90
G05
M72
T1
X2.8575Y-4.2941
X3.0148Y-3.6255
X3.4001Y-3.4082
T2
X2.75Y-3.925
X2.85Y-3.825
X2.85Y-3.925
X2.85Y-4.025
T3
X2.65Y-4.35
X2.65Y-4.45
X2.65Y-4.55
T4
X3.1Y-3.625
X3.1Y-4.225
X3.2Y-3.625
X3.2Y-4.125
X3.2Y-4.225
X3.3Y-3.625
X3.3Y-4.225
X3.4Y-3.625
X3.4Y-4.125
X3.4Y-4.225
X3.5Y-3.625
X3.5Y-4.125
X3.5Y-4.225
X3.6Y-3.625
X3.6Y-4.125
X3.6Y-4.225
X3.7Y-3.625
X3.7Y-3.925
X3.7Y-4.025
X3.7Y-4.225
X3.8Y-3.625
X3.8Y-3.925
X3.8Y-4.025
X3.8Y-4.225
X3.9Y-3.625
X3.9Y-3.925
X3.9Y-4.025
X3.9Y-4.225
X4.Y-3.625
X4.Y-3.925
X4.Y-4.025
X4.Y-4.225
X4.1Y-3.625
X4.1Y-3.925
X4.1Y-4.025
X4.1Y-4.225
X4.2Y-3.625
X4.2Y-3.925
X4.2Y-4.025
X4.2Y-4.225
X4.3Y-3.625
X4.3Y-3.925
X4.3Y-4.025
X4.3Y-4.225
X4.4Y-3.625
X4.4Y-3.725
X4.4Y-3.825
X4.4Y-3.925
X4.4Y-4.025
X4.4Y-4.125
X4.4Y-4.225
T5
X3.Y-3.225
X3.Y-4.625
X3.1Y-3.225
X3.1Y-4.625
X3.2Y-3.225
X3.2Y-4.625
X3.3Y-3.225
X3.3Y-4.625
X3.4Y-3.225
X3.4Y-4.625
X3.5Y-3.225
X3.5Y-4.625
X3.6Y-3.225
X3.6Y-4.625
X3.7Y-3.225
X3.7Y-4.625
X3.8Y-3.225
X3.8Y-4.625
X3.9Y-3.225
X3.9Y-4.625
X4.Y-3.225
X4.Y-4.625
X4.1Y-3.225
X4.1Y-4.625
X4.2Y-3.225
X4.2Y-4.625
X4.3Y-3.225
X4.3Y-4.625
X4.4Y-3.225
X4.4Y-4.625
X4.5Y-3.225
X4.5Y-4.625
T6
X4.83Y-3.415
X4.83Y-4.435
X4.88Y-3.365
X4.88Y-4.485
X5.17Y-3.365
X5.17Y-4.485
X5.22Y-3.415
X5.22Y-4.435
T7
X5.532Y-3.925
T8
X2.5Y-3.725
X2.5Y-4.125
T9
X5.414Y-3.925
X5.453Y-3.748
X5.453Y-4.102
T10
X5.178Y-3.925
T11
X2.45Y-3.225
X2.45Y-4.625
X3.05Y-3.425
X3.05Y-4.425
X4.65Y-3.225
X4.65Y-4.625
X5.55Y-3.225
X5.55Y-4.625
T0
M30
