G04 #@! TF.GenerationSoftware,KiCad,Pcbnew,no-vcs-found-df2ff50~58~ubuntu16.04.1*
G04 #@! TF.CreationDate,2017-05-23T13:41:26-04:00*
G04 #@! TF.ProjectId,modular_device_base_3x2,6D6F64756C61725F6465766963655F62,1.1*
G04 #@! TF.FileFunction,Copper,L1,Top,Signal*
G04 #@! TF.FilePolarity,Positive*
%FSLAX46Y46*%
G04 Gerber Fmt 4.6, Leading zero omitted, Abs format (unit mm)*
G04 Created by KiCad (PCBNEW no-vcs-found-df2ff50~58~ubuntu16.04.1) date Tue May 23 13:41:26 2017*
%MOMM*%
%LPD*%
G01*
G04 APERTURE LIST*
%ADD10C,0.100000*%
%ADD11C,0.228600*%
%ADD12O,2.032000X1.524000*%
%ADD13O,1.524000X2.032000*%
%ADD14R,1.440000X1.600000*%
%ADD15R,4.960000X3.800000*%
%ADD16O,2.540000X1.524000*%
%ADD17R,2.667000X1.590040*%
%ADD18R,1.778000X4.191000*%
%ADD19C,1.397000*%
%ADD20R,2.794000X4.826000*%
%ADD21R,1.270000X2.540000*%
%ADD22R,2.710000X2.500000*%
%ADD23C,3.556000*%
%ADD24O,1.854200X2.540000*%
%ADD25R,1.854200X2.540000*%
%ADD26R,1.524000X2.540000*%
%ADD27O,1.524000X2.540000*%
%ADD28O,5.080000X3.048000*%
%ADD29C,1.930400*%
%ADD30O,4.572000X3.556000*%
%ADD31O,4.064000X5.080000*%
%ADD32O,5.080000X3.556000*%
%ADD33C,0.889000*%
%ADD34C,1.219200*%
%ADD35C,0.609600*%
%ADD36C,0.203200*%
G04 APERTURE END LIST*
D10*
D11*
X143510000Y-79375000D02*
X59690000Y-79375000D01*
X143510000Y-120015000D02*
X143510000Y-79375000D01*
X59690000Y-120015000D02*
X143510000Y-120015000D01*
X59690000Y-79375000D02*
X59690000Y-120015000D01*
D12*
X139319000Y-107950000D03*
X141859000Y-107950000D03*
D13*
X67945000Y-115824000D03*
X67945000Y-118364000D03*
D14*
X122160000Y-93140000D03*
X122160000Y-91010000D03*
D15*
X118360000Y-92075000D03*
D14*
X122160000Y-103300000D03*
X122160000Y-101170000D03*
D15*
X118360000Y-102235000D03*
D16*
X67310000Y-86360000D03*
X67310000Y-88900000D03*
X67310000Y-83820000D03*
D17*
X73342500Y-109126020D03*
X65087500Y-109126020D03*
X73342500Y-113123980D03*
X65087500Y-113123980D03*
D18*
X128905000Y-110744000D03*
X126365000Y-110744000D03*
D19*
X131318000Y-113919000D03*
X123952000Y-113919000D03*
D20*
X132359400Y-117475000D03*
X122910600Y-117475000D03*
D21*
X86741000Y-99695000D03*
X89789000Y-99695000D03*
D22*
X83220000Y-99695000D03*
X79340000Y-99695000D03*
D23*
X62230000Y-81915000D03*
X62230000Y-117475000D03*
X140970000Y-81915000D03*
D24*
X78740000Y-81915000D03*
X81280000Y-81915000D03*
D25*
X76200000Y-81915000D03*
D24*
X83820000Y-81915000D03*
X86360000Y-81915000D03*
X88900000Y-81915000D03*
X91440000Y-81915000D03*
X93980000Y-81915000D03*
X96520000Y-81915000D03*
X99060000Y-81915000D03*
X101600000Y-81915000D03*
X104140000Y-81915000D03*
X106680000Y-81915000D03*
X109220000Y-81915000D03*
X111760000Y-81915000D03*
X114300000Y-81915000D03*
X114300000Y-117475000D03*
X111760000Y-117475000D03*
X109220000Y-117475000D03*
X106680000Y-117475000D03*
X104140000Y-117475000D03*
X101600000Y-117475000D03*
X99060000Y-117475000D03*
X96520000Y-117475000D03*
X93980000Y-117475000D03*
X91440000Y-117475000D03*
X88900000Y-117475000D03*
X86360000Y-117475000D03*
X83820000Y-117475000D03*
X81280000Y-117475000D03*
X78740000Y-117475000D03*
X76200000Y-117475000D03*
D23*
X77470000Y-86995000D03*
X77470000Y-112395000D03*
X118110000Y-117475000D03*
X118110000Y-81915000D03*
D26*
X78740000Y-92075000D03*
D27*
X81280000Y-92075000D03*
X83820000Y-92075000D03*
X86360000Y-92075000D03*
X88900000Y-92075000D03*
X91440000Y-92075000D03*
X93980000Y-92075000D03*
X96520000Y-92075000D03*
X99060000Y-92075000D03*
X101600000Y-92075000D03*
X104140000Y-92075000D03*
X106680000Y-92075000D03*
X109220000Y-92075000D03*
X111760000Y-92075000D03*
X111760000Y-107315000D03*
X109220000Y-107315000D03*
X106680000Y-107315000D03*
X104140000Y-107315000D03*
X101600000Y-107315000D03*
X99060000Y-107315000D03*
X96520000Y-107315000D03*
X93980000Y-107315000D03*
X91440000Y-107315000D03*
X88900000Y-107315000D03*
X86360000Y-107315000D03*
X83820000Y-107315000D03*
X81280000Y-107315000D03*
X78740000Y-107315000D03*
D16*
X111760000Y-104775000D03*
X111760000Y-102235000D03*
X111760000Y-99695000D03*
X111760000Y-97155000D03*
X111760000Y-94615000D03*
D27*
X81280000Y-104267000D03*
X86360000Y-104267000D03*
X88900000Y-104267000D03*
X91440000Y-104267000D03*
X93980000Y-102743000D03*
X93980000Y-99187000D03*
X96520000Y-102743000D03*
X96520000Y-99187000D03*
X99060000Y-99187000D03*
X101600000Y-99187000D03*
X104140000Y-99187000D03*
X106680000Y-99187000D03*
X109220000Y-99187000D03*
X99060000Y-102743000D03*
X101600000Y-102743000D03*
X104140000Y-102743000D03*
X106680000Y-102743000D03*
X109220000Y-102743000D03*
D28*
X63500000Y-104775000D03*
X63500000Y-94615000D03*
D12*
X69596000Y-99695000D03*
D13*
X72390000Y-99695000D03*
X72390000Y-96901000D03*
X72390000Y-102489000D03*
D19*
X122682000Y-86741000D03*
X132588000Y-86741000D03*
D18*
X126365000Y-88646000D03*
X128905000Y-88646000D03*
D19*
X123952000Y-85471000D03*
X131318000Y-85471000D03*
D20*
X122910600Y-81915000D03*
X132359400Y-81915000D03*
D19*
X122682000Y-112649000D03*
X132588000Y-112649000D03*
D29*
X140512800Y-99695000D03*
D30*
X137007600Y-99695000D03*
D31*
X131521200Y-99695000D03*
D32*
X138506200Y-104190800D03*
X138506200Y-95199200D03*
D23*
X140970000Y-117475000D03*
D14*
X122160000Y-98220000D03*
X122160000Y-96090000D03*
D15*
X118360000Y-97155000D03*
D14*
X122160000Y-108380000D03*
X122160000Y-106250000D03*
D15*
X118360000Y-107315000D03*
D13*
X70485000Y-118364000D03*
X70485000Y-115824000D03*
D33*
X117117800Y-89130500D03*
X120841000Y-80078500D03*
X114194700Y-88683900D03*
X118267500Y-110926700D03*
X108340100Y-110926700D03*
X107202400Y-104771000D03*
X127146200Y-113560000D03*
X103519200Y-112798500D03*
X123743900Y-98220000D03*
X123743900Y-93140000D03*
X92608700Y-86479500D03*
X85368800Y-83937500D03*
X70796900Y-114184000D03*
X103814000Y-85157500D03*
X105308800Y-90867400D03*
X66577500Y-97980300D03*
X115016100Y-97155000D03*
X124297000Y-105445200D03*
X94803500Y-97411800D03*
X60395100Y-100545900D03*
X70348800Y-109119800D03*
X69218800Y-109635400D03*
X105311000Y-111928500D03*
D34*
X125218900Y-99695000D02*
X123743900Y-101170000D01*
X131521200Y-99695000D02*
X125218900Y-99695000D01*
X122160000Y-101170000D02*
X122952000Y-101170000D01*
X122952000Y-101170000D02*
X123743900Y-101170000D01*
X122485900Y-101636100D02*
X122160000Y-101636100D01*
X122952000Y-101170000D02*
X122485900Y-101636100D01*
X122160000Y-103300000D02*
X122160000Y-101636100D01*
D35*
X135220900Y-97487200D02*
X137515600Y-97487200D01*
X128905000Y-91171300D02*
X135220900Y-97487200D01*
X128905000Y-88646000D02*
X128905000Y-91171300D01*
X137515600Y-99695000D02*
X137515600Y-97487200D01*
X137604500Y-108218700D02*
X137873200Y-107950000D01*
X128905000Y-108218700D02*
X137604500Y-108218700D01*
X139319000Y-107950000D02*
X137873200Y-107950000D01*
X128905000Y-109481300D02*
X128905000Y-108218700D01*
X128905000Y-109481300D02*
X128905000Y-110744000D01*
X70485000Y-115824000D02*
X67945000Y-115824000D01*
X66850800Y-114251200D02*
X66850800Y-113124000D01*
X66753200Y-114348800D02*
X66850800Y-114251200D01*
X66753200Y-115824000D02*
X66753200Y-114348800D01*
X67945000Y-115824000D02*
X66753200Y-115824000D01*
X65087500Y-113124000D02*
X66850800Y-113124000D01*
X89789000Y-99695000D02*
X89789000Y-97995200D01*
X76962000Y-93774800D02*
X78740000Y-93774800D01*
X73581800Y-97155000D02*
X76962000Y-93774800D01*
X72390000Y-97155000D02*
X73581800Y-97155000D01*
X78740000Y-92075000D02*
X78740000Y-93774800D01*
X89789000Y-97995200D02*
X89789000Y-97702700D01*
X116713200Y-89535100D02*
X117117800Y-89130500D01*
X99378200Y-89535100D02*
X116713200Y-89535100D01*
X97790000Y-91123300D02*
X99378200Y-89535100D01*
X97790000Y-92999000D02*
X97790000Y-91123300D01*
X93086300Y-97702700D02*
X97790000Y-92999000D01*
X89789000Y-97702700D02*
X93086300Y-97702700D01*
X80180100Y-95214900D02*
X78740000Y-93774800D01*
X87301200Y-95214900D02*
X80180100Y-95214900D01*
X89789000Y-97702700D02*
X87301200Y-95214900D01*
X81280000Y-92075000D02*
X81280000Y-90375200D01*
X120841000Y-82447200D02*
X120841000Y-80078500D01*
X119090000Y-84198200D02*
X120841000Y-82447200D01*
X117073900Y-84198200D02*
X119090000Y-84198200D01*
X115705300Y-82829600D02*
X117073900Y-84198200D01*
X115705300Y-81048000D02*
X115705300Y-82829600D01*
X114692200Y-80034900D02*
X115705300Y-81048000D01*
X75087700Y-80034900D02*
X114692200Y-80034900D01*
X74706700Y-80415900D02*
X75087700Y-80034900D01*
X74706700Y-87545700D02*
X74706700Y-80415900D01*
X77536200Y-90375200D02*
X74706700Y-87545700D01*
X81280000Y-90375200D02*
X77536200Y-90375200D01*
X91906500Y-93774800D02*
X83820000Y-93774800D01*
X92710000Y-92971300D02*
X91906500Y-93774800D01*
X92710000Y-91157700D02*
X92710000Y-92971300D01*
X95183800Y-88683900D02*
X92710000Y-91157700D01*
X114194700Y-88683900D02*
X95183800Y-88683900D01*
X83820000Y-92075000D02*
X83820000Y-93774800D01*
X101477800Y-93774800D02*
X99060000Y-93774800D01*
X105419500Y-97716500D02*
X101477800Y-93774800D01*
X105419500Y-103703800D02*
X105419500Y-97716500D01*
X106486700Y-104771000D02*
X105419500Y-103703800D01*
X107202400Y-104771000D02*
X106486700Y-104771000D01*
X99060000Y-92075000D02*
X99060000Y-93774800D01*
X118267500Y-110926700D02*
X108340100Y-110926700D01*
X125380600Y-113560000D02*
X127146200Y-113560000D01*
X123260600Y-111440000D02*
X125380600Y-113560000D01*
X121766800Y-111440000D02*
X123260600Y-111440000D01*
X120408300Y-112798500D02*
X121766800Y-111440000D01*
X103519200Y-112798500D02*
X120408300Y-112798500D01*
D34*
X122160000Y-98220000D02*
X123743900Y-98220000D01*
X122160000Y-96090000D02*
X122160000Y-98220000D01*
X126365000Y-93468900D02*
X126365000Y-88646000D01*
X123743900Y-96090000D02*
X126365000Y-93468900D01*
X122160000Y-96090000D02*
X123743900Y-96090000D01*
X81604200Y-101808900D02*
X83220000Y-101808900D01*
X81280000Y-102133100D02*
X81604200Y-101808900D01*
X81280000Y-104775000D02*
X81280000Y-102133100D01*
X83220000Y-99695000D02*
X83220000Y-101808900D01*
X76200000Y-81915000D02*
X76200000Y-84048900D01*
X122160000Y-91010000D02*
X122160000Y-89346100D01*
X85257400Y-84048900D02*
X85368800Y-83937500D01*
X76200000Y-84048900D02*
X85257400Y-84048900D01*
X119293400Y-86479500D02*
X122160000Y-89346100D01*
X92608700Y-86479500D02*
X119293400Y-86479500D01*
X122160000Y-93140000D02*
X122952000Y-93140000D01*
X122952000Y-93140000D02*
X123743900Y-93140000D01*
X122485900Y-92673900D02*
X122160000Y-92673900D01*
X122952000Y-93140000D02*
X122485900Y-92673900D01*
X122160000Y-91010000D02*
X122160000Y-92673900D01*
D35*
X78740000Y-101974800D02*
X79340000Y-101374800D01*
X78740000Y-107315000D02*
X78740000Y-101974800D01*
X79340000Y-99695000D02*
X79340000Y-101374800D01*
X72130700Y-115517800D02*
X70796900Y-114184000D01*
X76782800Y-115517800D02*
X72130700Y-115517800D01*
X78740000Y-117475000D02*
X76782800Y-115517800D01*
X86360000Y-92075000D02*
X86360000Y-90375200D01*
X86548200Y-82103200D02*
X86360000Y-81915000D01*
X86548200Y-90187000D02*
X86548200Y-82103200D01*
X86360000Y-90375200D02*
X86548200Y-90187000D01*
X88900000Y-92075000D02*
X88900000Y-81915000D01*
X91440000Y-92075000D02*
X91440000Y-81915000D01*
X104140000Y-81915000D02*
X104140000Y-83614800D01*
X103814000Y-83940800D02*
X104140000Y-83614800D01*
X103814000Y-85157500D02*
X103814000Y-83940800D01*
D34*
X85976400Y-101828900D02*
X86741000Y-101828900D01*
X83820000Y-103985300D02*
X85976400Y-101828900D01*
X83820000Y-107315000D02*
X83820000Y-103985300D01*
X86741000Y-99695000D02*
X86741000Y-101828900D01*
D35*
X109220000Y-102235000D02*
X109220000Y-101043200D01*
X105308800Y-92864700D02*
X105308800Y-90867400D01*
X108051200Y-95607100D02*
X105308800Y-92864700D01*
X108051200Y-100232600D02*
X108051200Y-95607100D01*
X108861800Y-101043200D02*
X108051200Y-100232600D01*
X109220000Y-101043200D02*
X108861800Y-101043200D01*
X101521800Y-100965000D02*
X101600000Y-101043200D01*
X92003000Y-100965000D02*
X101521800Y-100965000D01*
X91596200Y-101371800D02*
X92003000Y-100965000D01*
X88938500Y-101371800D02*
X91596200Y-101371800D01*
X87935200Y-100368500D02*
X88938500Y-101371800D01*
X87935200Y-98161200D02*
X87935200Y-100368500D01*
X87639900Y-97865900D02*
X87935200Y-98161200D01*
X75410900Y-97865900D02*
X87639900Y-97865900D01*
X73581800Y-99695000D02*
X75410900Y-97865900D01*
X72390000Y-99695000D02*
X73581800Y-99695000D01*
X101600000Y-102235000D02*
X101600000Y-101043200D01*
D34*
X118360000Y-97155000D02*
X118360000Y-92075000D01*
X118360000Y-97155000D02*
X118360000Y-102235000D01*
X118360000Y-102235000D02*
X118360000Y-107315000D01*
X66904000Y-97653800D02*
X66577500Y-97980300D01*
X66904000Y-91826700D02*
X66904000Y-97653800D01*
X65176100Y-90098800D02*
X66904000Y-91826700D01*
X65176100Y-83820000D02*
X65176100Y-90098800D01*
X67310000Y-83820000D02*
X65176100Y-83820000D01*
X112837100Y-109494000D02*
X115016100Y-107315000D01*
X77764000Y-109494000D02*
X112837100Y-109494000D01*
X75192400Y-106922400D02*
X77764000Y-109494000D01*
X74234100Y-106922400D02*
X75192400Y-106922400D01*
X66577500Y-99265800D02*
X74234100Y-106922400D01*
X66577500Y-97980300D02*
X66577500Y-99265800D01*
X118360000Y-107315000D02*
X115016100Y-107315000D01*
X118360000Y-97155000D02*
X115016100Y-97155000D01*
X126365000Y-110744000D02*
X126365000Y-107784600D01*
X122160000Y-106250000D02*
X123743900Y-106250000D01*
X123743900Y-105998300D02*
X123743900Y-106250000D01*
X124297000Y-105445200D02*
X123743900Y-105998300D01*
X122160000Y-108380000D02*
X123743900Y-108380000D01*
X124339300Y-106845400D02*
X123743900Y-106250000D01*
X124339300Y-107784600D02*
X124339300Y-106845400D01*
X126365000Y-107784600D02*
X124339300Y-107784600D01*
X124339300Y-107784600D02*
X123743900Y-108380000D01*
D35*
X67945000Y-118364000D02*
X66753200Y-118364000D01*
X60395100Y-112005900D02*
X66753200Y-118364000D01*
X60395100Y-100545900D02*
X60395100Y-112005900D01*
X104140000Y-99695000D02*
X104140000Y-97487200D01*
X104064600Y-97411800D02*
X94803500Y-97411800D01*
X104140000Y-97487200D02*
X104064600Y-97411800D01*
X71573000Y-109119800D02*
X71579200Y-109126000D01*
X70348800Y-109119800D02*
X71573000Y-109119800D01*
X73342500Y-109126000D02*
X71579200Y-109126000D01*
X70409800Y-110826400D02*
X69218800Y-109635400D01*
X73929000Y-110826400D02*
X70409800Y-110826400D01*
X75181200Y-112078600D02*
X73929000Y-110826400D01*
X75181200Y-113340700D02*
X75181200Y-112078600D01*
X76518700Y-114678200D02*
X75181200Y-113340700D01*
X93230100Y-114678200D02*
X76518700Y-114678200D01*
X95979800Y-111928500D02*
X93230100Y-114678200D01*
X105311000Y-111928500D02*
X95979800Y-111928500D01*
D36*
G36*
X130651629Y-84328000D02*
X130675285Y-84446927D01*
X130742652Y-84547748D01*
X130812386Y-84594343D01*
X130750419Y-84619948D01*
X130467939Y-84901934D01*
X130314874Y-85270556D01*
X130314526Y-85669693D01*
X130466948Y-86038581D01*
X130748934Y-86321061D01*
X131117556Y-86474126D01*
X131516693Y-86474474D01*
X131632117Y-86426781D01*
X131584874Y-86540556D01*
X131584526Y-86939693D01*
X131736948Y-87308581D01*
X132018934Y-87591061D01*
X132387556Y-87744126D01*
X132786693Y-87744474D01*
X133155581Y-87592052D01*
X133438061Y-87310066D01*
X133591126Y-86941444D01*
X133591474Y-86542307D01*
X133439052Y-86173419D01*
X133157066Y-85890939D01*
X132788444Y-85737874D01*
X132389307Y-85737526D01*
X132273883Y-85785219D01*
X132321126Y-85671444D01*
X132321474Y-85272307D01*
X132169052Y-84903419D01*
X131904867Y-84638771D01*
X133756400Y-84638771D01*
X133875327Y-84615115D01*
X133976148Y-84547748D01*
X134043515Y-84446927D01*
X134067171Y-84328000D01*
X134067171Y-82327477D01*
X138886840Y-82327477D01*
X139203259Y-83093270D01*
X139788648Y-83679682D01*
X140553888Y-83997437D01*
X141382477Y-83998160D01*
X142148270Y-83681741D01*
X142734682Y-83096352D01*
X143052437Y-82331112D01*
X143053160Y-81502523D01*
X142736741Y-80736730D01*
X142151352Y-80150318D01*
X141386112Y-79832563D01*
X140557523Y-79831840D01*
X139791730Y-80148259D01*
X139205318Y-80733648D01*
X138887563Y-81498888D01*
X138886840Y-82327477D01*
X134067171Y-82327477D01*
X134067171Y-79794100D01*
X143090900Y-79794100D01*
X143090900Y-107491510D01*
X142893218Y-107195658D01*
X142547123Y-106964405D01*
X142138876Y-106883200D01*
X141579124Y-106883200D01*
X141170877Y-106964405D01*
X140824782Y-107195658D01*
X140758469Y-107294903D01*
X140627480Y-107058292D01*
X140205970Y-106722637D01*
X139688096Y-106573837D01*
X139471400Y-106725175D01*
X139471400Y-107797600D01*
X139491400Y-107797600D01*
X139491400Y-108102400D01*
X139471400Y-108102400D01*
X139471400Y-109174825D01*
X139688096Y-109326163D01*
X140205970Y-109177363D01*
X140627480Y-108841708D01*
X140758469Y-108605097D01*
X140824782Y-108704342D01*
X141170877Y-108935595D01*
X141579124Y-109016800D01*
X142138876Y-109016800D01*
X142547123Y-108935595D01*
X142893218Y-108704342D01*
X143090900Y-108408490D01*
X143090900Y-119595900D01*
X134067171Y-119595900D01*
X134067171Y-117887477D01*
X138886840Y-117887477D01*
X139203259Y-118653270D01*
X139788648Y-119239682D01*
X140553888Y-119557437D01*
X141382477Y-119558160D01*
X142148270Y-119241741D01*
X142734682Y-118656352D01*
X143052437Y-117891112D01*
X143053160Y-117062523D01*
X142736741Y-116296730D01*
X142151352Y-115710318D01*
X141386112Y-115392563D01*
X140557523Y-115391840D01*
X139791730Y-115708259D01*
X139205318Y-116293648D01*
X138887563Y-117058888D01*
X138886840Y-117887477D01*
X134067171Y-117887477D01*
X134067171Y-115062000D01*
X134043515Y-114943073D01*
X133976148Y-114842252D01*
X133875327Y-114774885D01*
X133756400Y-114751229D01*
X131904437Y-114751229D01*
X132168061Y-114488066D01*
X132321126Y-114119444D01*
X132321474Y-113720307D01*
X132273781Y-113604883D01*
X132387556Y-113652126D01*
X132786693Y-113652474D01*
X133155581Y-113500052D01*
X133438061Y-113218066D01*
X133591126Y-112849444D01*
X133591474Y-112450307D01*
X133439052Y-112081419D01*
X133157066Y-111798939D01*
X132788444Y-111645874D01*
X132389307Y-111645526D01*
X132020419Y-111797948D01*
X131737939Y-112079934D01*
X131584874Y-112448556D01*
X131584526Y-112847693D01*
X131632219Y-112963117D01*
X131518444Y-112915874D01*
X131119307Y-112915526D01*
X130750419Y-113067948D01*
X130467939Y-113349934D01*
X130314874Y-113718556D01*
X130314526Y-114117693D01*
X130466948Y-114486581D01*
X130748934Y-114769061D01*
X130812615Y-114795504D01*
X130742652Y-114842252D01*
X130675285Y-114943073D01*
X130651629Y-115062000D01*
X130651629Y-119595900D01*
X124618371Y-119595900D01*
X124618371Y-115062000D01*
X124594715Y-114943073D01*
X124527348Y-114842252D01*
X124457614Y-114795657D01*
X124519581Y-114770052D01*
X124802061Y-114488066D01*
X124955126Y-114119444D01*
X124955235Y-113994852D01*
X125147316Y-114123197D01*
X125380600Y-114169600D01*
X126695989Y-114169600D01*
X126721201Y-114194856D01*
X126996501Y-114309170D01*
X127294591Y-114309430D01*
X127570090Y-114195596D01*
X127781056Y-113984999D01*
X127895370Y-113709699D01*
X127895597Y-113449100D01*
X128600200Y-113449100D01*
X128752600Y-113296700D01*
X128752600Y-110896400D01*
X129057400Y-110896400D01*
X129057400Y-113296700D01*
X129209800Y-113449100D01*
X129915257Y-113449100D01*
X130139311Y-113356294D01*
X130310794Y-113184811D01*
X130403600Y-112960757D01*
X130403600Y-111048800D01*
X130251200Y-110896400D01*
X129057400Y-110896400D01*
X128752600Y-110896400D01*
X128732600Y-110896400D01*
X128732600Y-110591600D01*
X128752600Y-110591600D01*
X128752600Y-108191300D01*
X129057400Y-108191300D01*
X129057400Y-110591600D01*
X130251200Y-110591600D01*
X130403600Y-110439200D01*
X130403600Y-108527243D01*
X130315174Y-108313761D01*
X137742516Y-108313761D01*
X137749546Y-108370299D01*
X138010520Y-108841708D01*
X138432030Y-109177363D01*
X138949904Y-109326163D01*
X139166600Y-109174825D01*
X139166600Y-108102400D01*
X137855363Y-108102400D01*
X137742516Y-108313761D01*
X130315174Y-108313761D01*
X130310794Y-108303189D01*
X130139311Y-108131706D01*
X129915257Y-108038900D01*
X129209800Y-108038900D01*
X129057400Y-108191300D01*
X128752600Y-108191300D01*
X128600200Y-108038900D01*
X127894743Y-108038900D01*
X127670689Y-108131706D01*
X127499206Y-108303189D01*
X127472773Y-108367004D01*
X127392748Y-108313533D01*
X127330200Y-108301091D01*
X127330200Y-107784600D01*
X127290744Y-107586239D01*
X137742516Y-107586239D01*
X137855363Y-107797600D01*
X139166600Y-107797600D01*
X139166600Y-106725175D01*
X138949904Y-106573837D01*
X138432030Y-106722637D01*
X138010520Y-107058292D01*
X137749546Y-107529701D01*
X137742516Y-107586239D01*
X127290744Y-107586239D01*
X127256729Y-107415234D01*
X127047499Y-107102101D01*
X126734366Y-106892871D01*
X126365000Y-106819400D01*
X125299328Y-106819400D01*
X125231029Y-106476034D01*
X125195774Y-106423271D01*
X125021800Y-106162901D01*
X124982343Y-106123444D01*
X125188729Y-105814566D01*
X125262200Y-105445200D01*
X125188729Y-105075833D01*
X124979500Y-104762700D01*
X124666367Y-104553471D01*
X124297000Y-104480000D01*
X123927634Y-104553471D01*
X123614501Y-104762700D01*
X123118655Y-105258547D01*
X123099748Y-105230252D01*
X122998927Y-105162885D01*
X122880000Y-105139229D01*
X121440000Y-105139229D01*
X121321073Y-105162885D01*
X121220252Y-105230252D01*
X121152885Y-105331073D01*
X121143481Y-105378350D01*
X121127115Y-105296073D01*
X121059748Y-105195252D01*
X120958927Y-105127885D01*
X120840000Y-105104229D01*
X119325200Y-105104229D01*
X119325200Y-104445771D01*
X120840000Y-104445771D01*
X120958927Y-104422115D01*
X121059748Y-104354748D01*
X121127115Y-104253927D01*
X121143481Y-104171650D01*
X121152885Y-104218927D01*
X121220252Y-104319748D01*
X121321073Y-104387115D01*
X121440000Y-104410771D01*
X122880000Y-104410771D01*
X122998927Y-104387115D01*
X123099748Y-104319748D01*
X123167115Y-104218927D01*
X123172709Y-104190800D01*
X135605667Y-104190800D01*
X135764211Y-104987853D01*
X136215705Y-105663562D01*
X136891414Y-106115056D01*
X137688467Y-106273600D01*
X139323933Y-106273600D01*
X140120986Y-106115056D01*
X140796695Y-105663562D01*
X141248189Y-104987853D01*
X141406733Y-104190800D01*
X141248189Y-103393747D01*
X140796695Y-102718038D01*
X140120986Y-102266544D01*
X139323933Y-102108000D01*
X137688467Y-102108000D01*
X136891414Y-102266544D01*
X136215705Y-102718038D01*
X135764211Y-103393747D01*
X135605667Y-104190800D01*
X123172709Y-104190800D01*
X123190771Y-104100000D01*
X123190771Y-102500000D01*
X123167115Y-102381073D01*
X123138652Y-102338475D01*
X123168399Y-102318599D01*
X123351798Y-102135200D01*
X123743900Y-102135200D01*
X124113266Y-102061729D01*
X124426399Y-101852499D01*
X125618698Y-100660200D01*
X129213259Y-100660200D01*
X129315345Y-101173423D01*
X129832912Y-101948016D01*
X130607505Y-102465583D01*
X131521200Y-102647328D01*
X132434895Y-102465583D01*
X133209488Y-101948016D01*
X133727055Y-101173423D01*
X133908800Y-100259728D01*
X133908800Y-100218265D01*
X134170045Y-100218265D01*
X134235425Y-100467896D01*
X134703549Y-101275525D01*
X135445106Y-101842534D01*
X136347200Y-102082600D01*
X136855200Y-102082600D01*
X136855200Y-99847400D01*
X134269602Y-99847400D01*
X134170045Y-100218265D01*
X133908800Y-100218265D01*
X133908800Y-99171735D01*
X134170045Y-99171735D01*
X134269602Y-99542600D01*
X136855200Y-99542600D01*
X136855200Y-97307400D01*
X137160000Y-97307400D01*
X137160000Y-99542600D01*
X137180000Y-99542600D01*
X137180000Y-99847400D01*
X137160000Y-99847400D01*
X137160000Y-102082600D01*
X137668000Y-102082600D01*
X138570094Y-101842534D01*
X139311651Y-101275525D01*
X139673277Y-100651632D01*
X139792463Y-100771026D01*
X140259073Y-100964779D01*
X140764310Y-100965220D01*
X141231258Y-100772282D01*
X141588826Y-100415337D01*
X141782579Y-99948727D01*
X141783020Y-99443490D01*
X141590082Y-98976542D01*
X141233137Y-98618974D01*
X140766527Y-98425221D01*
X140261290Y-98424780D01*
X139794342Y-98617718D01*
X139673352Y-98738498D01*
X139311651Y-98114475D01*
X138570094Y-97547466D01*
X137668000Y-97307400D01*
X137160000Y-97307400D01*
X136855200Y-97307400D01*
X136347200Y-97307400D01*
X135445106Y-97547466D01*
X134703549Y-98114475D01*
X134235425Y-98922104D01*
X134170045Y-99171735D01*
X133908800Y-99171735D01*
X133908800Y-99130272D01*
X133727055Y-98216577D01*
X133209488Y-97441984D01*
X132434895Y-96924417D01*
X131521200Y-96742672D01*
X130607505Y-96924417D01*
X129832912Y-97441984D01*
X129315345Y-98216577D01*
X129213259Y-98729800D01*
X125218900Y-98729800D01*
X124849534Y-98803271D01*
X124536401Y-99012501D01*
X123344102Y-100204800D01*
X123136196Y-100204800D01*
X123099748Y-100150252D01*
X122998927Y-100082885D01*
X122880000Y-100059229D01*
X121440000Y-100059229D01*
X121321073Y-100082885D01*
X121220252Y-100150252D01*
X121152885Y-100251073D01*
X121143481Y-100298350D01*
X121127115Y-100216073D01*
X121059748Y-100115252D01*
X120958927Y-100047885D01*
X120840000Y-100024229D01*
X119325200Y-100024229D01*
X119325200Y-99365771D01*
X120840000Y-99365771D01*
X120958927Y-99342115D01*
X121059748Y-99274748D01*
X121127115Y-99173927D01*
X121143481Y-99091650D01*
X121152885Y-99138927D01*
X121220252Y-99239748D01*
X121321073Y-99307115D01*
X121440000Y-99330771D01*
X122880000Y-99330771D01*
X122998927Y-99307115D01*
X123099748Y-99239748D01*
X123136196Y-99185200D01*
X123743900Y-99185200D01*
X124113266Y-99111729D01*
X124426399Y-98902499D01*
X124635629Y-98589366D01*
X124709100Y-98220000D01*
X124635629Y-97850634D01*
X124426399Y-97537501D01*
X124113266Y-97328271D01*
X123743900Y-97254800D01*
X123136196Y-97254800D01*
X123125200Y-97238343D01*
X123125200Y-97071657D01*
X123136196Y-97055200D01*
X123743900Y-97055200D01*
X124113266Y-96981729D01*
X124426399Y-96772499D01*
X125999698Y-95199200D01*
X135605667Y-95199200D01*
X135764211Y-95996253D01*
X136215705Y-96671962D01*
X136891414Y-97123456D01*
X137688467Y-97282000D01*
X139323933Y-97282000D01*
X140120986Y-97123456D01*
X140796695Y-96671962D01*
X141248189Y-95996253D01*
X141406733Y-95199200D01*
X141248189Y-94402147D01*
X140796695Y-93726438D01*
X140120986Y-93274944D01*
X139323933Y-93116400D01*
X137688467Y-93116400D01*
X136891414Y-93274944D01*
X136215705Y-93726438D01*
X135764211Y-94402147D01*
X135605667Y-95199200D01*
X125999698Y-95199200D01*
X127047499Y-94151400D01*
X127256729Y-93838267D01*
X127296345Y-93639100D01*
X127330200Y-93468900D01*
X127330200Y-91088909D01*
X127392748Y-91076467D01*
X127472773Y-91022996D01*
X127499206Y-91086811D01*
X127670689Y-91258294D01*
X127894743Y-91351100D01*
X128600200Y-91351100D01*
X128752600Y-91198700D01*
X128752600Y-88798400D01*
X129057400Y-88798400D01*
X129057400Y-91198700D01*
X129209800Y-91351100D01*
X129915257Y-91351100D01*
X130139311Y-91258294D01*
X130310794Y-91086811D01*
X130403600Y-90862757D01*
X130403600Y-88950800D01*
X130251200Y-88798400D01*
X129057400Y-88798400D01*
X128752600Y-88798400D01*
X128732600Y-88798400D01*
X128732600Y-88493600D01*
X128752600Y-88493600D01*
X128752600Y-86093300D01*
X129057400Y-86093300D01*
X129057400Y-88493600D01*
X130251200Y-88493600D01*
X130403600Y-88341200D01*
X130403600Y-86429243D01*
X130310794Y-86205189D01*
X130139311Y-86033706D01*
X129915257Y-85940900D01*
X129209800Y-85940900D01*
X129057400Y-86093300D01*
X128752600Y-86093300D01*
X128600200Y-85940900D01*
X127894743Y-85940900D01*
X127670689Y-86033706D01*
X127499206Y-86205189D01*
X127472773Y-86269004D01*
X127392748Y-86215533D01*
X127254000Y-86187934D01*
X125476000Y-86187934D01*
X125337252Y-86215533D01*
X125219627Y-86294127D01*
X125141033Y-86411752D01*
X125113434Y-86550500D01*
X125113434Y-90741500D01*
X125141033Y-90880248D01*
X125219627Y-90997873D01*
X125337252Y-91076467D01*
X125399800Y-91088909D01*
X125399800Y-93069101D01*
X123344102Y-95124800D01*
X123136196Y-95124800D01*
X123099748Y-95070252D01*
X122998927Y-95002885D01*
X122880000Y-94979229D01*
X121440000Y-94979229D01*
X121321073Y-95002885D01*
X121220252Y-95070252D01*
X121152885Y-95171073D01*
X121143481Y-95218350D01*
X121127115Y-95136073D01*
X121059748Y-95035252D01*
X120958927Y-94967885D01*
X120840000Y-94944229D01*
X119325200Y-94944229D01*
X119325200Y-94285771D01*
X120840000Y-94285771D01*
X120958927Y-94262115D01*
X121059748Y-94194748D01*
X121127115Y-94093927D01*
X121143481Y-94011650D01*
X121152885Y-94058927D01*
X121220252Y-94159748D01*
X121321073Y-94227115D01*
X121440000Y-94250771D01*
X122880000Y-94250771D01*
X122998927Y-94227115D01*
X123099748Y-94159748D01*
X123136196Y-94105200D01*
X123743900Y-94105200D01*
X124113266Y-94031729D01*
X124426399Y-93822499D01*
X124635629Y-93509366D01*
X124709100Y-93140000D01*
X124635629Y-92770634D01*
X124426399Y-92457501D01*
X124113266Y-92248271D01*
X123743900Y-92174800D01*
X123351798Y-92174800D01*
X123168399Y-91991401D01*
X123138652Y-91971525D01*
X123167115Y-91928927D01*
X123190771Y-91810000D01*
X123190771Y-90210000D01*
X123167115Y-90091073D01*
X123125200Y-90028343D01*
X123125200Y-89346100D01*
X123051729Y-88976734D01*
X122955215Y-88832291D01*
X122842500Y-88663601D01*
X119975899Y-85797001D01*
X119662766Y-85587771D01*
X119293400Y-85514300D01*
X104477175Y-85514300D01*
X104563170Y-85307199D01*
X104563430Y-85009109D01*
X104449596Y-84733610D01*
X104423600Y-84707568D01*
X104423600Y-84193305D01*
X104571053Y-84045852D01*
X104650267Y-83927298D01*
X104703197Y-83848084D01*
X104749600Y-83614800D01*
X104749600Y-83334556D01*
X105011085Y-83159837D01*
X105278127Y-82760180D01*
X105371900Y-82288752D01*
X105371900Y-81541248D01*
X105278127Y-81069820D01*
X105011085Y-80670163D01*
X104972678Y-80644500D01*
X105847322Y-80644500D01*
X105808915Y-80670163D01*
X105541873Y-81069820D01*
X105448100Y-81541248D01*
X105448100Y-82288752D01*
X105541873Y-82760180D01*
X105808915Y-83159837D01*
X106208572Y-83426879D01*
X106680000Y-83520652D01*
X107151428Y-83426879D01*
X107551085Y-83159837D01*
X107818127Y-82760180D01*
X107911900Y-82288752D01*
X107911900Y-81541248D01*
X107818127Y-81069820D01*
X107551085Y-80670163D01*
X107512678Y-80644500D01*
X108387322Y-80644500D01*
X108348915Y-80670163D01*
X108081873Y-81069820D01*
X107988100Y-81541248D01*
X107988100Y-82288752D01*
X108081873Y-82760180D01*
X108348915Y-83159837D01*
X108748572Y-83426879D01*
X109220000Y-83520652D01*
X109691428Y-83426879D01*
X110091085Y-83159837D01*
X110358127Y-82760180D01*
X110451900Y-82288752D01*
X110451900Y-81541248D01*
X110358127Y-81069820D01*
X110091085Y-80670163D01*
X110052678Y-80644500D01*
X110927322Y-80644500D01*
X110888915Y-80670163D01*
X110621873Y-81069820D01*
X110528100Y-81541248D01*
X110528100Y-82288752D01*
X110621873Y-82760180D01*
X110888915Y-83159837D01*
X111288572Y-83426879D01*
X111760000Y-83520652D01*
X112231428Y-83426879D01*
X112631085Y-83159837D01*
X112898127Y-82760180D01*
X112991900Y-82288752D01*
X112991900Y-81541248D01*
X112898127Y-81069820D01*
X112631085Y-80670163D01*
X112592678Y-80644500D01*
X113467322Y-80644500D01*
X113428915Y-80670163D01*
X113161873Y-81069820D01*
X113068100Y-81541248D01*
X113068100Y-82288752D01*
X113161873Y-82760180D01*
X113428915Y-83159837D01*
X113828572Y-83426879D01*
X114300000Y-83520652D01*
X114771428Y-83426879D01*
X115171085Y-83159837D01*
X115188985Y-83133048D01*
X115274248Y-83260652D01*
X116642848Y-84629253D01*
X116761402Y-84708467D01*
X116840616Y-84761397D01*
X117073900Y-84807800D01*
X119090000Y-84807800D01*
X119323284Y-84761397D01*
X119521052Y-84629252D01*
X121202829Y-82947475D01*
X121202829Y-84328000D01*
X121226485Y-84446927D01*
X121293852Y-84547748D01*
X121394673Y-84615115D01*
X121513600Y-84638771D01*
X123365563Y-84638771D01*
X123101939Y-84901934D01*
X122948874Y-85270556D01*
X122948526Y-85669693D01*
X122996219Y-85785117D01*
X122882444Y-85737874D01*
X122483307Y-85737526D01*
X122114419Y-85889948D01*
X121831939Y-86171934D01*
X121678874Y-86540556D01*
X121678526Y-86939693D01*
X121830948Y-87308581D01*
X122112934Y-87591061D01*
X122481556Y-87744126D01*
X122880693Y-87744474D01*
X123249581Y-87592052D01*
X123532061Y-87310066D01*
X123685126Y-86941444D01*
X123685474Y-86542307D01*
X123637781Y-86426883D01*
X123751556Y-86474126D01*
X124150693Y-86474474D01*
X124519581Y-86322052D01*
X124802061Y-86040066D01*
X124955126Y-85671444D01*
X124955474Y-85272307D01*
X124803052Y-84903419D01*
X124521066Y-84620939D01*
X124457385Y-84594496D01*
X124527348Y-84547748D01*
X124594715Y-84446927D01*
X124618371Y-84328000D01*
X124618371Y-79794100D01*
X130651629Y-79794100D01*
X130651629Y-84328000D01*
X130651629Y-84328000D01*
G37*
X130651629Y-84328000D02*
X130675285Y-84446927D01*
X130742652Y-84547748D01*
X130812386Y-84594343D01*
X130750419Y-84619948D01*
X130467939Y-84901934D01*
X130314874Y-85270556D01*
X130314526Y-85669693D01*
X130466948Y-86038581D01*
X130748934Y-86321061D01*
X131117556Y-86474126D01*
X131516693Y-86474474D01*
X131632117Y-86426781D01*
X131584874Y-86540556D01*
X131584526Y-86939693D01*
X131736948Y-87308581D01*
X132018934Y-87591061D01*
X132387556Y-87744126D01*
X132786693Y-87744474D01*
X133155581Y-87592052D01*
X133438061Y-87310066D01*
X133591126Y-86941444D01*
X133591474Y-86542307D01*
X133439052Y-86173419D01*
X133157066Y-85890939D01*
X132788444Y-85737874D01*
X132389307Y-85737526D01*
X132273883Y-85785219D01*
X132321126Y-85671444D01*
X132321474Y-85272307D01*
X132169052Y-84903419D01*
X131904867Y-84638771D01*
X133756400Y-84638771D01*
X133875327Y-84615115D01*
X133976148Y-84547748D01*
X134043515Y-84446927D01*
X134067171Y-84328000D01*
X134067171Y-82327477D01*
X138886840Y-82327477D01*
X139203259Y-83093270D01*
X139788648Y-83679682D01*
X140553888Y-83997437D01*
X141382477Y-83998160D01*
X142148270Y-83681741D01*
X142734682Y-83096352D01*
X143052437Y-82331112D01*
X143053160Y-81502523D01*
X142736741Y-80736730D01*
X142151352Y-80150318D01*
X141386112Y-79832563D01*
X140557523Y-79831840D01*
X139791730Y-80148259D01*
X139205318Y-80733648D01*
X138887563Y-81498888D01*
X138886840Y-82327477D01*
X134067171Y-82327477D01*
X134067171Y-79794100D01*
X143090900Y-79794100D01*
X143090900Y-107491510D01*
X142893218Y-107195658D01*
X142547123Y-106964405D01*
X142138876Y-106883200D01*
X141579124Y-106883200D01*
X141170877Y-106964405D01*
X140824782Y-107195658D01*
X140758469Y-107294903D01*
X140627480Y-107058292D01*
X140205970Y-106722637D01*
X139688096Y-106573837D01*
X139471400Y-106725175D01*
X139471400Y-107797600D01*
X139491400Y-107797600D01*
X139491400Y-108102400D01*
X139471400Y-108102400D01*
X139471400Y-109174825D01*
X139688096Y-109326163D01*
X140205970Y-109177363D01*
X140627480Y-108841708D01*
X140758469Y-108605097D01*
X140824782Y-108704342D01*
X141170877Y-108935595D01*
X141579124Y-109016800D01*
X142138876Y-109016800D01*
X142547123Y-108935595D01*
X142893218Y-108704342D01*
X143090900Y-108408490D01*
X143090900Y-119595900D01*
X134067171Y-119595900D01*
X134067171Y-117887477D01*
X138886840Y-117887477D01*
X139203259Y-118653270D01*
X139788648Y-119239682D01*
X140553888Y-119557437D01*
X141382477Y-119558160D01*
X142148270Y-119241741D01*
X142734682Y-118656352D01*
X143052437Y-117891112D01*
X143053160Y-117062523D01*
X142736741Y-116296730D01*
X142151352Y-115710318D01*
X141386112Y-115392563D01*
X140557523Y-115391840D01*
X139791730Y-115708259D01*
X139205318Y-116293648D01*
X138887563Y-117058888D01*
X138886840Y-117887477D01*
X134067171Y-117887477D01*
X134067171Y-115062000D01*
X134043515Y-114943073D01*
X133976148Y-114842252D01*
X133875327Y-114774885D01*
X133756400Y-114751229D01*
X131904437Y-114751229D01*
X132168061Y-114488066D01*
X132321126Y-114119444D01*
X132321474Y-113720307D01*
X132273781Y-113604883D01*
X132387556Y-113652126D01*
X132786693Y-113652474D01*
X133155581Y-113500052D01*
X133438061Y-113218066D01*
X133591126Y-112849444D01*
X133591474Y-112450307D01*
X133439052Y-112081419D01*
X133157066Y-111798939D01*
X132788444Y-111645874D01*
X132389307Y-111645526D01*
X132020419Y-111797948D01*
X131737939Y-112079934D01*
X131584874Y-112448556D01*
X131584526Y-112847693D01*
X131632219Y-112963117D01*
X131518444Y-112915874D01*
X131119307Y-112915526D01*
X130750419Y-113067948D01*
X130467939Y-113349934D01*
X130314874Y-113718556D01*
X130314526Y-114117693D01*
X130466948Y-114486581D01*
X130748934Y-114769061D01*
X130812615Y-114795504D01*
X130742652Y-114842252D01*
X130675285Y-114943073D01*
X130651629Y-115062000D01*
X130651629Y-119595900D01*
X124618371Y-119595900D01*
X124618371Y-115062000D01*
X124594715Y-114943073D01*
X124527348Y-114842252D01*
X124457614Y-114795657D01*
X124519581Y-114770052D01*
X124802061Y-114488066D01*
X124955126Y-114119444D01*
X124955235Y-113994852D01*
X125147316Y-114123197D01*
X125380600Y-114169600D01*
X126695989Y-114169600D01*
X126721201Y-114194856D01*
X126996501Y-114309170D01*
X127294591Y-114309430D01*
X127570090Y-114195596D01*
X127781056Y-113984999D01*
X127895370Y-113709699D01*
X127895597Y-113449100D01*
X128600200Y-113449100D01*
X128752600Y-113296700D01*
X128752600Y-110896400D01*
X129057400Y-110896400D01*
X129057400Y-113296700D01*
X129209800Y-113449100D01*
X129915257Y-113449100D01*
X130139311Y-113356294D01*
X130310794Y-113184811D01*
X130403600Y-112960757D01*
X130403600Y-111048800D01*
X130251200Y-110896400D01*
X129057400Y-110896400D01*
X128752600Y-110896400D01*
X128732600Y-110896400D01*
X128732600Y-110591600D01*
X128752600Y-110591600D01*
X128752600Y-108191300D01*
X129057400Y-108191300D01*
X129057400Y-110591600D01*
X130251200Y-110591600D01*
X130403600Y-110439200D01*
X130403600Y-108527243D01*
X130315174Y-108313761D01*
X137742516Y-108313761D01*
X137749546Y-108370299D01*
X138010520Y-108841708D01*
X138432030Y-109177363D01*
X138949904Y-109326163D01*
X139166600Y-109174825D01*
X139166600Y-108102400D01*
X137855363Y-108102400D01*
X137742516Y-108313761D01*
X130315174Y-108313761D01*
X130310794Y-108303189D01*
X130139311Y-108131706D01*
X129915257Y-108038900D01*
X129209800Y-108038900D01*
X129057400Y-108191300D01*
X128752600Y-108191300D01*
X128600200Y-108038900D01*
X127894743Y-108038900D01*
X127670689Y-108131706D01*
X127499206Y-108303189D01*
X127472773Y-108367004D01*
X127392748Y-108313533D01*
X127330200Y-108301091D01*
X127330200Y-107784600D01*
X127290744Y-107586239D01*
X137742516Y-107586239D01*
X137855363Y-107797600D01*
X139166600Y-107797600D01*
X139166600Y-106725175D01*
X138949904Y-106573837D01*
X138432030Y-106722637D01*
X138010520Y-107058292D01*
X137749546Y-107529701D01*
X137742516Y-107586239D01*
X127290744Y-107586239D01*
X127256729Y-107415234D01*
X127047499Y-107102101D01*
X126734366Y-106892871D01*
X126365000Y-106819400D01*
X125299328Y-106819400D01*
X125231029Y-106476034D01*
X125195774Y-106423271D01*
X125021800Y-106162901D01*
X124982343Y-106123444D01*
X125188729Y-105814566D01*
X125262200Y-105445200D01*
X125188729Y-105075833D01*
X124979500Y-104762700D01*
X124666367Y-104553471D01*
X124297000Y-104480000D01*
X123927634Y-104553471D01*
X123614501Y-104762700D01*
X123118655Y-105258547D01*
X123099748Y-105230252D01*
X122998927Y-105162885D01*
X122880000Y-105139229D01*
X121440000Y-105139229D01*
X121321073Y-105162885D01*
X121220252Y-105230252D01*
X121152885Y-105331073D01*
X121143481Y-105378350D01*
X121127115Y-105296073D01*
X121059748Y-105195252D01*
X120958927Y-105127885D01*
X120840000Y-105104229D01*
X119325200Y-105104229D01*
X119325200Y-104445771D01*
X120840000Y-104445771D01*
X120958927Y-104422115D01*
X121059748Y-104354748D01*
X121127115Y-104253927D01*
X121143481Y-104171650D01*
X121152885Y-104218927D01*
X121220252Y-104319748D01*
X121321073Y-104387115D01*
X121440000Y-104410771D01*
X122880000Y-104410771D01*
X122998927Y-104387115D01*
X123099748Y-104319748D01*
X123167115Y-104218927D01*
X123172709Y-104190800D01*
X135605667Y-104190800D01*
X135764211Y-104987853D01*
X136215705Y-105663562D01*
X136891414Y-106115056D01*
X137688467Y-106273600D01*
X139323933Y-106273600D01*
X140120986Y-106115056D01*
X140796695Y-105663562D01*
X141248189Y-104987853D01*
X141406733Y-104190800D01*
X141248189Y-103393747D01*
X140796695Y-102718038D01*
X140120986Y-102266544D01*
X139323933Y-102108000D01*
X137688467Y-102108000D01*
X136891414Y-102266544D01*
X136215705Y-102718038D01*
X135764211Y-103393747D01*
X135605667Y-104190800D01*
X123172709Y-104190800D01*
X123190771Y-104100000D01*
X123190771Y-102500000D01*
X123167115Y-102381073D01*
X123138652Y-102338475D01*
X123168399Y-102318599D01*
X123351798Y-102135200D01*
X123743900Y-102135200D01*
X124113266Y-102061729D01*
X124426399Y-101852499D01*
X125618698Y-100660200D01*
X129213259Y-100660200D01*
X129315345Y-101173423D01*
X129832912Y-101948016D01*
X130607505Y-102465583D01*
X131521200Y-102647328D01*
X132434895Y-102465583D01*
X133209488Y-101948016D01*
X133727055Y-101173423D01*
X133908800Y-100259728D01*
X133908800Y-100218265D01*
X134170045Y-100218265D01*
X134235425Y-100467896D01*
X134703549Y-101275525D01*
X135445106Y-101842534D01*
X136347200Y-102082600D01*
X136855200Y-102082600D01*
X136855200Y-99847400D01*
X134269602Y-99847400D01*
X134170045Y-100218265D01*
X133908800Y-100218265D01*
X133908800Y-99171735D01*
X134170045Y-99171735D01*
X134269602Y-99542600D01*
X136855200Y-99542600D01*
X136855200Y-97307400D01*
X137160000Y-97307400D01*
X137160000Y-99542600D01*
X137180000Y-99542600D01*
X137180000Y-99847400D01*
X137160000Y-99847400D01*
X137160000Y-102082600D01*
X137668000Y-102082600D01*
X138570094Y-101842534D01*
X139311651Y-101275525D01*
X139673277Y-100651632D01*
X139792463Y-100771026D01*
X140259073Y-100964779D01*
X140764310Y-100965220D01*
X141231258Y-100772282D01*
X141588826Y-100415337D01*
X141782579Y-99948727D01*
X141783020Y-99443490D01*
X141590082Y-98976542D01*
X141233137Y-98618974D01*
X140766527Y-98425221D01*
X140261290Y-98424780D01*
X139794342Y-98617718D01*
X139673352Y-98738498D01*
X139311651Y-98114475D01*
X138570094Y-97547466D01*
X137668000Y-97307400D01*
X137160000Y-97307400D01*
X136855200Y-97307400D01*
X136347200Y-97307400D01*
X135445106Y-97547466D01*
X134703549Y-98114475D01*
X134235425Y-98922104D01*
X134170045Y-99171735D01*
X133908800Y-99171735D01*
X133908800Y-99130272D01*
X133727055Y-98216577D01*
X133209488Y-97441984D01*
X132434895Y-96924417D01*
X131521200Y-96742672D01*
X130607505Y-96924417D01*
X129832912Y-97441984D01*
X129315345Y-98216577D01*
X129213259Y-98729800D01*
X125218900Y-98729800D01*
X124849534Y-98803271D01*
X124536401Y-99012501D01*
X123344102Y-100204800D01*
X123136196Y-100204800D01*
X123099748Y-100150252D01*
X122998927Y-100082885D01*
X122880000Y-100059229D01*
X121440000Y-100059229D01*
X121321073Y-100082885D01*
X121220252Y-100150252D01*
X121152885Y-100251073D01*
X121143481Y-100298350D01*
X121127115Y-100216073D01*
X121059748Y-100115252D01*
X120958927Y-100047885D01*
X120840000Y-100024229D01*
X119325200Y-100024229D01*
X119325200Y-99365771D01*
X120840000Y-99365771D01*
X120958927Y-99342115D01*
X121059748Y-99274748D01*
X121127115Y-99173927D01*
X121143481Y-99091650D01*
X121152885Y-99138927D01*
X121220252Y-99239748D01*
X121321073Y-99307115D01*
X121440000Y-99330771D01*
X122880000Y-99330771D01*
X122998927Y-99307115D01*
X123099748Y-99239748D01*
X123136196Y-99185200D01*
X123743900Y-99185200D01*
X124113266Y-99111729D01*
X124426399Y-98902499D01*
X124635629Y-98589366D01*
X124709100Y-98220000D01*
X124635629Y-97850634D01*
X124426399Y-97537501D01*
X124113266Y-97328271D01*
X123743900Y-97254800D01*
X123136196Y-97254800D01*
X123125200Y-97238343D01*
X123125200Y-97071657D01*
X123136196Y-97055200D01*
X123743900Y-97055200D01*
X124113266Y-96981729D01*
X124426399Y-96772499D01*
X125999698Y-95199200D01*
X135605667Y-95199200D01*
X135764211Y-95996253D01*
X136215705Y-96671962D01*
X136891414Y-97123456D01*
X137688467Y-97282000D01*
X139323933Y-97282000D01*
X140120986Y-97123456D01*
X140796695Y-96671962D01*
X141248189Y-95996253D01*
X141406733Y-95199200D01*
X141248189Y-94402147D01*
X140796695Y-93726438D01*
X140120986Y-93274944D01*
X139323933Y-93116400D01*
X137688467Y-93116400D01*
X136891414Y-93274944D01*
X136215705Y-93726438D01*
X135764211Y-94402147D01*
X135605667Y-95199200D01*
X125999698Y-95199200D01*
X127047499Y-94151400D01*
X127256729Y-93838267D01*
X127296345Y-93639100D01*
X127330200Y-93468900D01*
X127330200Y-91088909D01*
X127392748Y-91076467D01*
X127472773Y-91022996D01*
X127499206Y-91086811D01*
X127670689Y-91258294D01*
X127894743Y-91351100D01*
X128600200Y-91351100D01*
X128752600Y-91198700D01*
X128752600Y-88798400D01*
X129057400Y-88798400D01*
X129057400Y-91198700D01*
X129209800Y-91351100D01*
X129915257Y-91351100D01*
X130139311Y-91258294D01*
X130310794Y-91086811D01*
X130403600Y-90862757D01*
X130403600Y-88950800D01*
X130251200Y-88798400D01*
X129057400Y-88798400D01*
X128752600Y-88798400D01*
X128732600Y-88798400D01*
X128732600Y-88493600D01*
X128752600Y-88493600D01*
X128752600Y-86093300D01*
X129057400Y-86093300D01*
X129057400Y-88493600D01*
X130251200Y-88493600D01*
X130403600Y-88341200D01*
X130403600Y-86429243D01*
X130310794Y-86205189D01*
X130139311Y-86033706D01*
X129915257Y-85940900D01*
X129209800Y-85940900D01*
X129057400Y-86093300D01*
X128752600Y-86093300D01*
X128600200Y-85940900D01*
X127894743Y-85940900D01*
X127670689Y-86033706D01*
X127499206Y-86205189D01*
X127472773Y-86269004D01*
X127392748Y-86215533D01*
X127254000Y-86187934D01*
X125476000Y-86187934D01*
X125337252Y-86215533D01*
X125219627Y-86294127D01*
X125141033Y-86411752D01*
X125113434Y-86550500D01*
X125113434Y-90741500D01*
X125141033Y-90880248D01*
X125219627Y-90997873D01*
X125337252Y-91076467D01*
X125399800Y-91088909D01*
X125399800Y-93069101D01*
X123344102Y-95124800D01*
X123136196Y-95124800D01*
X123099748Y-95070252D01*
X122998927Y-95002885D01*
X122880000Y-94979229D01*
X121440000Y-94979229D01*
X121321073Y-95002885D01*
X121220252Y-95070252D01*
X121152885Y-95171073D01*
X121143481Y-95218350D01*
X121127115Y-95136073D01*
X121059748Y-95035252D01*
X120958927Y-94967885D01*
X120840000Y-94944229D01*
X119325200Y-94944229D01*
X119325200Y-94285771D01*
X120840000Y-94285771D01*
X120958927Y-94262115D01*
X121059748Y-94194748D01*
X121127115Y-94093927D01*
X121143481Y-94011650D01*
X121152885Y-94058927D01*
X121220252Y-94159748D01*
X121321073Y-94227115D01*
X121440000Y-94250771D01*
X122880000Y-94250771D01*
X122998927Y-94227115D01*
X123099748Y-94159748D01*
X123136196Y-94105200D01*
X123743900Y-94105200D01*
X124113266Y-94031729D01*
X124426399Y-93822499D01*
X124635629Y-93509366D01*
X124709100Y-93140000D01*
X124635629Y-92770634D01*
X124426399Y-92457501D01*
X124113266Y-92248271D01*
X123743900Y-92174800D01*
X123351798Y-92174800D01*
X123168399Y-91991401D01*
X123138652Y-91971525D01*
X123167115Y-91928927D01*
X123190771Y-91810000D01*
X123190771Y-90210000D01*
X123167115Y-90091073D01*
X123125200Y-90028343D01*
X123125200Y-89346100D01*
X123051729Y-88976734D01*
X122955215Y-88832291D01*
X122842500Y-88663601D01*
X119975899Y-85797001D01*
X119662766Y-85587771D01*
X119293400Y-85514300D01*
X104477175Y-85514300D01*
X104563170Y-85307199D01*
X104563430Y-85009109D01*
X104449596Y-84733610D01*
X104423600Y-84707568D01*
X104423600Y-84193305D01*
X104571053Y-84045852D01*
X104650267Y-83927298D01*
X104703197Y-83848084D01*
X104749600Y-83614800D01*
X104749600Y-83334556D01*
X105011085Y-83159837D01*
X105278127Y-82760180D01*
X105371900Y-82288752D01*
X105371900Y-81541248D01*
X105278127Y-81069820D01*
X105011085Y-80670163D01*
X104972678Y-80644500D01*
X105847322Y-80644500D01*
X105808915Y-80670163D01*
X105541873Y-81069820D01*
X105448100Y-81541248D01*
X105448100Y-82288752D01*
X105541873Y-82760180D01*
X105808915Y-83159837D01*
X106208572Y-83426879D01*
X106680000Y-83520652D01*
X107151428Y-83426879D01*
X107551085Y-83159837D01*
X107818127Y-82760180D01*
X107911900Y-82288752D01*
X107911900Y-81541248D01*
X107818127Y-81069820D01*
X107551085Y-80670163D01*
X107512678Y-80644500D01*
X108387322Y-80644500D01*
X108348915Y-80670163D01*
X108081873Y-81069820D01*
X107988100Y-81541248D01*
X107988100Y-82288752D01*
X108081873Y-82760180D01*
X108348915Y-83159837D01*
X108748572Y-83426879D01*
X109220000Y-83520652D01*
X109691428Y-83426879D01*
X110091085Y-83159837D01*
X110358127Y-82760180D01*
X110451900Y-82288752D01*
X110451900Y-81541248D01*
X110358127Y-81069820D01*
X110091085Y-80670163D01*
X110052678Y-80644500D01*
X110927322Y-80644500D01*
X110888915Y-80670163D01*
X110621873Y-81069820D01*
X110528100Y-81541248D01*
X110528100Y-82288752D01*
X110621873Y-82760180D01*
X110888915Y-83159837D01*
X111288572Y-83426879D01*
X111760000Y-83520652D01*
X112231428Y-83426879D01*
X112631085Y-83159837D01*
X112898127Y-82760180D01*
X112991900Y-82288752D01*
X112991900Y-81541248D01*
X112898127Y-81069820D01*
X112631085Y-80670163D01*
X112592678Y-80644500D01*
X113467322Y-80644500D01*
X113428915Y-80670163D01*
X113161873Y-81069820D01*
X113068100Y-81541248D01*
X113068100Y-82288752D01*
X113161873Y-82760180D01*
X113428915Y-83159837D01*
X113828572Y-83426879D01*
X114300000Y-83520652D01*
X114771428Y-83426879D01*
X115171085Y-83159837D01*
X115188985Y-83133048D01*
X115274248Y-83260652D01*
X116642848Y-84629253D01*
X116761402Y-84708467D01*
X116840616Y-84761397D01*
X117073900Y-84807800D01*
X119090000Y-84807800D01*
X119323284Y-84761397D01*
X119521052Y-84629252D01*
X121202829Y-82947475D01*
X121202829Y-84328000D01*
X121226485Y-84446927D01*
X121293852Y-84547748D01*
X121394673Y-84615115D01*
X121513600Y-84638771D01*
X123365563Y-84638771D01*
X123101939Y-84901934D01*
X122948874Y-85270556D01*
X122948526Y-85669693D01*
X122996219Y-85785117D01*
X122882444Y-85737874D01*
X122483307Y-85737526D01*
X122114419Y-85889948D01*
X121831939Y-86171934D01*
X121678874Y-86540556D01*
X121678526Y-86939693D01*
X121830948Y-87308581D01*
X122112934Y-87591061D01*
X122481556Y-87744126D01*
X122880693Y-87744474D01*
X123249581Y-87592052D01*
X123532061Y-87310066D01*
X123685126Y-86941444D01*
X123685474Y-86542307D01*
X123637781Y-86426883D01*
X123751556Y-86474126D01*
X124150693Y-86474474D01*
X124519581Y-86322052D01*
X124802061Y-86040066D01*
X124955126Y-85671444D01*
X124955474Y-85272307D01*
X124803052Y-84903419D01*
X124521066Y-84620939D01*
X124457385Y-84594496D01*
X124527348Y-84547748D01*
X124594715Y-84446927D01*
X124618371Y-84328000D01*
X124618371Y-79794100D01*
X130651629Y-79794100D01*
X130651629Y-84328000D01*
G36*
X74275648Y-79984848D02*
X74143503Y-80182616D01*
X74097100Y-80415900D01*
X74097100Y-87545700D01*
X74143503Y-87778984D01*
X74275648Y-87976752D01*
X77105148Y-90806252D01*
X77302916Y-90938397D01*
X77368400Y-90951423D01*
X77368400Y-91770200D01*
X77520800Y-91922600D01*
X78587600Y-91922600D01*
X78587600Y-91902600D01*
X78892400Y-91902600D01*
X78892400Y-91922600D01*
X79959200Y-91922600D01*
X80111600Y-91770200D01*
X80111600Y-90984800D01*
X80390022Y-90984800D01*
X80294405Y-91127901D01*
X80213200Y-91536148D01*
X80213200Y-92613852D01*
X80294405Y-93022099D01*
X80525658Y-93368194D01*
X80871753Y-93599447D01*
X81280000Y-93680652D01*
X81688247Y-93599447D01*
X82034342Y-93368194D01*
X82265595Y-93022099D01*
X82346800Y-92613852D01*
X82346800Y-91536148D01*
X82265595Y-91127901D01*
X82034342Y-90781806D01*
X81889600Y-90685093D01*
X81889600Y-90375200D01*
X81843197Y-90141916D01*
X81711052Y-89944148D01*
X81513284Y-89812003D01*
X81280000Y-89765600D01*
X77788704Y-89765600D01*
X77100582Y-89077478D01*
X77882477Y-89078160D01*
X78648270Y-88761741D01*
X79234682Y-88176352D01*
X79552437Y-87411112D01*
X79553160Y-86582523D01*
X79236741Y-85816730D01*
X78651352Y-85230318D01*
X78130641Y-85014100D01*
X85257400Y-85014100D01*
X85626766Y-84940629D01*
X85938600Y-84732267D01*
X85938600Y-89934496D01*
X85928948Y-89944148D01*
X85796803Y-90141916D01*
X85750400Y-90375200D01*
X85750400Y-90685093D01*
X85605658Y-90781806D01*
X85374405Y-91127901D01*
X85293200Y-91536148D01*
X85293200Y-92613852D01*
X85374405Y-93022099D01*
X85470022Y-93165200D01*
X84709978Y-93165200D01*
X84805595Y-93022099D01*
X84886800Y-92613852D01*
X84886800Y-91536148D01*
X84805595Y-91127901D01*
X84574342Y-90781806D01*
X84228247Y-90550553D01*
X83820000Y-90469348D01*
X83411753Y-90550553D01*
X83065658Y-90781806D01*
X82834405Y-91127901D01*
X82753200Y-91536148D01*
X82753200Y-92613852D01*
X82834405Y-93022099D01*
X83065658Y-93368194D01*
X83210400Y-93464907D01*
X83210400Y-93774800D01*
X83256803Y-94008084D01*
X83388948Y-94205852D01*
X83586716Y-94337997D01*
X83820000Y-94384400D01*
X91906500Y-94384400D01*
X92139784Y-94337997D01*
X92337552Y-94205852D01*
X93141053Y-93402352D01*
X93194767Y-93321962D01*
X93225658Y-93368194D01*
X93571753Y-93599447D01*
X93980000Y-93680652D01*
X94388247Y-93599447D01*
X94734342Y-93368194D01*
X94965595Y-93022099D01*
X95046800Y-92613852D01*
X95046800Y-91536148D01*
X95453200Y-91536148D01*
X95453200Y-92613852D01*
X95534405Y-93022099D01*
X95765658Y-93368194D01*
X96111753Y-93599447D01*
X96520000Y-93680652D01*
X96928247Y-93599447D01*
X97274342Y-93368194D01*
X97505595Y-93022099D01*
X97586800Y-92613852D01*
X97586800Y-91536148D01*
X97505595Y-91127901D01*
X97274342Y-90781806D01*
X96928247Y-90550553D01*
X96520000Y-90469348D01*
X96111753Y-90550553D01*
X95765658Y-90781806D01*
X95534405Y-91127901D01*
X95453200Y-91536148D01*
X95046800Y-91536148D01*
X94965595Y-91127901D01*
X94734342Y-90781806D01*
X94388247Y-90550553D01*
X94213926Y-90515879D01*
X95436305Y-89293500D01*
X113744489Y-89293500D01*
X113769701Y-89318756D01*
X114045001Y-89433070D01*
X114343091Y-89433330D01*
X114618590Y-89319496D01*
X114829556Y-89108899D01*
X114943870Y-88833599D01*
X114944130Y-88535509D01*
X114830296Y-88260010D01*
X114619699Y-88049044D01*
X114344399Y-87934730D01*
X114046309Y-87934470D01*
X113770810Y-88048304D01*
X113744768Y-88074300D01*
X95183800Y-88074300D01*
X94950516Y-88120703D01*
X94871844Y-88173270D01*
X94752748Y-88252847D01*
X92278948Y-90726648D01*
X92218217Y-90817538D01*
X92194342Y-90781806D01*
X92049600Y-90685093D01*
X92049600Y-87244452D01*
X92239334Y-87371229D01*
X92608700Y-87444700D01*
X118893602Y-87444700D01*
X121194800Y-89745899D01*
X121194800Y-90028343D01*
X121152885Y-90091073D01*
X121143481Y-90138350D01*
X121127115Y-90056073D01*
X121059748Y-89955252D01*
X120958927Y-89887885D01*
X120840000Y-89864229D01*
X115880000Y-89864229D01*
X115761073Y-89887885D01*
X115660252Y-89955252D01*
X115592885Y-90056073D01*
X115569229Y-90175000D01*
X115569229Y-93975000D01*
X115592885Y-94093927D01*
X115660252Y-94194748D01*
X115761073Y-94262115D01*
X115880000Y-94285771D01*
X117394800Y-94285771D01*
X117394800Y-94944229D01*
X115880000Y-94944229D01*
X115761073Y-94967885D01*
X115660252Y-95035252D01*
X115592885Y-95136073D01*
X115569229Y-95255000D01*
X115569229Y-96189800D01*
X115016100Y-96189800D01*
X114646734Y-96263271D01*
X114333601Y-96472501D01*
X114124371Y-96785634D01*
X114050900Y-97155000D01*
X114124371Y-97524366D01*
X114333601Y-97837499D01*
X114646734Y-98046729D01*
X115016100Y-98120200D01*
X115569229Y-98120200D01*
X115569229Y-99055000D01*
X115592885Y-99173927D01*
X115660252Y-99274748D01*
X115761073Y-99342115D01*
X115880000Y-99365771D01*
X117394800Y-99365771D01*
X117394800Y-100024229D01*
X115880000Y-100024229D01*
X115761073Y-100047885D01*
X115660252Y-100115252D01*
X115592885Y-100216073D01*
X115569229Y-100335000D01*
X115569229Y-104135000D01*
X115592885Y-104253927D01*
X115660252Y-104354748D01*
X115761073Y-104422115D01*
X115880000Y-104445771D01*
X117394800Y-104445771D01*
X117394800Y-105104229D01*
X115880000Y-105104229D01*
X115761073Y-105127885D01*
X115660252Y-105195252D01*
X115592885Y-105296073D01*
X115569229Y-105415000D01*
X115569229Y-106349800D01*
X115016100Y-106349800D01*
X114708015Y-106411082D01*
X114646733Y-106423271D01*
X114333600Y-106632501D01*
X112755922Y-108210179D01*
X112826800Y-107853852D01*
X112826800Y-106776148D01*
X112745595Y-106367901D01*
X112514342Y-106021806D01*
X112244944Y-105841800D01*
X112298852Y-105841800D01*
X112707099Y-105760595D01*
X113053194Y-105529342D01*
X113284447Y-105183247D01*
X113365652Y-104775000D01*
X113284447Y-104366753D01*
X113053194Y-104020658D01*
X112707099Y-103789405D01*
X112298852Y-103708200D01*
X111221148Y-103708200D01*
X110812901Y-103789405D01*
X110466806Y-104020658D01*
X110235553Y-104366753D01*
X110154348Y-104775000D01*
X110235553Y-105183247D01*
X110466806Y-105529342D01*
X110812901Y-105760595D01*
X111221148Y-105841800D01*
X111275056Y-105841800D01*
X111005658Y-106021806D01*
X110774405Y-106367901D01*
X110693200Y-106776148D01*
X110693200Y-107853852D01*
X110774405Y-108262099D01*
X110952609Y-108528800D01*
X110027391Y-108528800D01*
X110205595Y-108262099D01*
X110286800Y-107853852D01*
X110286800Y-106776148D01*
X110205595Y-106367901D01*
X109974342Y-106021806D01*
X109628247Y-105790553D01*
X109220000Y-105709348D01*
X108811753Y-105790553D01*
X108465658Y-106021806D01*
X108234405Y-106367901D01*
X108153200Y-106776148D01*
X108153200Y-107853852D01*
X108234405Y-108262099D01*
X108412609Y-108528800D01*
X107487391Y-108528800D01*
X107665595Y-108262099D01*
X107746800Y-107853852D01*
X107746800Y-106776148D01*
X107665595Y-106367901D01*
X107434342Y-106021806D01*
X107088247Y-105790553D01*
X106680000Y-105709348D01*
X106271753Y-105790553D01*
X105925658Y-106021806D01*
X105694405Y-106367901D01*
X105613200Y-106776148D01*
X105613200Y-107853852D01*
X105694405Y-108262099D01*
X105872609Y-108528800D01*
X104947391Y-108528800D01*
X105125595Y-108262099D01*
X105206800Y-107853852D01*
X105206800Y-106776148D01*
X105125595Y-106367901D01*
X104894342Y-106021806D01*
X104548247Y-105790553D01*
X104140000Y-105709348D01*
X103731753Y-105790553D01*
X103385658Y-106021806D01*
X103154405Y-106367901D01*
X103073200Y-106776148D01*
X103073200Y-107853852D01*
X103154405Y-108262099D01*
X103332609Y-108528800D01*
X102407391Y-108528800D01*
X102585595Y-108262099D01*
X102666800Y-107853852D01*
X102666800Y-106776148D01*
X102585595Y-106367901D01*
X102354342Y-106021806D01*
X102008247Y-105790553D01*
X101600000Y-105709348D01*
X101191753Y-105790553D01*
X100845658Y-106021806D01*
X100614405Y-106367901D01*
X100533200Y-106776148D01*
X100533200Y-107853852D01*
X100614405Y-108262099D01*
X100792609Y-108528800D01*
X99867391Y-108528800D01*
X100045595Y-108262099D01*
X100126800Y-107853852D01*
X100126800Y-106776148D01*
X100045595Y-106367901D01*
X99814342Y-106021806D01*
X99468247Y-105790553D01*
X99060000Y-105709348D01*
X98651753Y-105790553D01*
X98305658Y-106021806D01*
X98074405Y-106367901D01*
X97993200Y-106776148D01*
X97993200Y-107853852D01*
X98074405Y-108262099D01*
X98252609Y-108528800D01*
X97327391Y-108528800D01*
X97505595Y-108262099D01*
X97586800Y-107853852D01*
X97586800Y-106776148D01*
X97505595Y-106367901D01*
X97274342Y-106021806D01*
X96928247Y-105790553D01*
X96520000Y-105709348D01*
X96111753Y-105790553D01*
X95765658Y-106021806D01*
X95534405Y-106367901D01*
X95453200Y-106776148D01*
X95453200Y-107853852D01*
X95534405Y-108262099D01*
X95712609Y-108528800D01*
X94787391Y-108528800D01*
X94965595Y-108262099D01*
X95046800Y-107853852D01*
X95046800Y-106776148D01*
X94965595Y-106367901D01*
X94734342Y-106021806D01*
X94388247Y-105790553D01*
X93980000Y-105709348D01*
X93571753Y-105790553D01*
X93225658Y-106021806D01*
X92994405Y-106367901D01*
X92913200Y-106776148D01*
X92913200Y-107853852D01*
X92994405Y-108262099D01*
X93172609Y-108528800D01*
X92247391Y-108528800D01*
X92425595Y-108262099D01*
X92506800Y-107853852D01*
X92506800Y-106776148D01*
X92425595Y-106367901D01*
X92194342Y-106021806D01*
X91848916Y-105791000D01*
X92194342Y-105560194D01*
X92425595Y-105214099D01*
X92506800Y-104805852D01*
X92506800Y-103728148D01*
X92425595Y-103319901D01*
X92194342Y-102973806D01*
X91848247Y-102742553D01*
X91440000Y-102661348D01*
X91031753Y-102742553D01*
X90685658Y-102973806D01*
X90454405Y-103319901D01*
X90373200Y-103728148D01*
X90373200Y-104805852D01*
X90454405Y-105214099D01*
X90685658Y-105560194D01*
X91031084Y-105791000D01*
X90685658Y-106021806D01*
X90454405Y-106367901D01*
X90373200Y-106776148D01*
X90373200Y-107853852D01*
X90454405Y-108262099D01*
X90632609Y-108528800D01*
X89707391Y-108528800D01*
X89885595Y-108262099D01*
X89966800Y-107853852D01*
X89966800Y-106776148D01*
X89885595Y-106367901D01*
X89654342Y-106021806D01*
X89308916Y-105791000D01*
X89654342Y-105560194D01*
X89885595Y-105214099D01*
X89966800Y-104805852D01*
X89966800Y-103728148D01*
X89885595Y-103319901D01*
X89654342Y-102973806D01*
X89308247Y-102742553D01*
X88900000Y-102661348D01*
X88491753Y-102742553D01*
X88145658Y-102973806D01*
X87914405Y-103319901D01*
X87833200Y-103728148D01*
X87833200Y-104805852D01*
X87914405Y-105214099D01*
X88145658Y-105560194D01*
X88491084Y-105791000D01*
X88145658Y-106021806D01*
X87914405Y-106367901D01*
X87833200Y-106776148D01*
X87833200Y-107853852D01*
X87914405Y-108262099D01*
X88092609Y-108528800D01*
X87167391Y-108528800D01*
X87345595Y-108262099D01*
X87426800Y-107853852D01*
X87426800Y-106776148D01*
X87345595Y-106367901D01*
X87114342Y-106021806D01*
X86814501Y-105821459D01*
X87150263Y-105597110D01*
X87392528Y-105234534D01*
X87477600Y-104806847D01*
X87477600Y-103727153D01*
X87392528Y-103299466D01*
X87150263Y-102936890D01*
X86891700Y-102764124D01*
X87110366Y-102720629D01*
X87423499Y-102511399D01*
X87632729Y-102198266D01*
X87706200Y-101828900D01*
X87706200Y-101110882D01*
X87710967Y-101103748D01*
X87727123Y-101022527D01*
X88507447Y-101802852D01*
X88601407Y-101865634D01*
X88705216Y-101934997D01*
X88938500Y-101981400D01*
X91596200Y-101981400D01*
X91829484Y-101934997D01*
X92027252Y-101802852D01*
X92255504Y-101574600D01*
X93142273Y-101574600D01*
X92994405Y-101795901D01*
X92913200Y-102204148D01*
X92913200Y-103281852D01*
X92994405Y-103690099D01*
X93225658Y-104036194D01*
X93571753Y-104267447D01*
X93980000Y-104348652D01*
X94388247Y-104267447D01*
X94734342Y-104036194D01*
X94965595Y-103690099D01*
X95046800Y-103281852D01*
X95046800Y-102204148D01*
X94965595Y-101795901D01*
X94817727Y-101574600D01*
X95682273Y-101574600D01*
X95534405Y-101795901D01*
X95453200Y-102204148D01*
X95453200Y-103281852D01*
X95534405Y-103690099D01*
X95765658Y-104036194D01*
X96111753Y-104267447D01*
X96520000Y-104348652D01*
X96928247Y-104267447D01*
X97274342Y-104036194D01*
X97505595Y-103690099D01*
X97586800Y-103281852D01*
X97586800Y-102204148D01*
X97505595Y-101795901D01*
X97357727Y-101574600D01*
X98222273Y-101574600D01*
X98074405Y-101795901D01*
X97993200Y-102204148D01*
X97993200Y-103281852D01*
X98074405Y-103690099D01*
X98305658Y-104036194D01*
X98651753Y-104267447D01*
X99060000Y-104348652D01*
X99468247Y-104267447D01*
X99814342Y-104036194D01*
X100045595Y-103690099D01*
X100126800Y-103281852D01*
X100126800Y-102204148D01*
X100045595Y-101795901D01*
X99897727Y-101574600D01*
X100762273Y-101574600D01*
X100614405Y-101795901D01*
X100533200Y-102204148D01*
X100533200Y-103281852D01*
X100614405Y-103690099D01*
X100845658Y-104036194D01*
X101191753Y-104267447D01*
X101600000Y-104348652D01*
X102008247Y-104267447D01*
X102354342Y-104036194D01*
X102585595Y-103690099D01*
X102666800Y-103281852D01*
X102666800Y-102204148D01*
X102585595Y-101795901D01*
X102354342Y-101449806D01*
X102209600Y-101353093D01*
X102209600Y-101043200D01*
X102163197Y-100809916D01*
X102097402Y-100711447D01*
X102069884Y-100670263D01*
X102354342Y-100480194D01*
X102585595Y-100134099D01*
X102666800Y-99725852D01*
X102666800Y-98648148D01*
X102585595Y-98239901D01*
X102439597Y-98021400D01*
X103300403Y-98021400D01*
X103154405Y-98239901D01*
X103073200Y-98648148D01*
X103073200Y-99725852D01*
X103154405Y-100134099D01*
X103385658Y-100480194D01*
X103731753Y-100711447D01*
X104140000Y-100792652D01*
X104548247Y-100711447D01*
X104809900Y-100536616D01*
X104809900Y-101393384D01*
X104548247Y-101218553D01*
X104140000Y-101137348D01*
X103731753Y-101218553D01*
X103385658Y-101449806D01*
X103154405Y-101795901D01*
X103073200Y-102204148D01*
X103073200Y-103281852D01*
X103154405Y-103690099D01*
X103385658Y-104036194D01*
X103731753Y-104267447D01*
X104140000Y-104348652D01*
X104548247Y-104267447D01*
X104894342Y-104036194D01*
X104908434Y-104015103D01*
X104988448Y-104134852D01*
X106055648Y-105202052D01*
X106253416Y-105334197D01*
X106486700Y-105380600D01*
X106752189Y-105380600D01*
X106777401Y-105405856D01*
X107052701Y-105520170D01*
X107350791Y-105520430D01*
X107626290Y-105406596D01*
X107837256Y-105195999D01*
X107951570Y-104920699D01*
X107951830Y-104622609D01*
X107837996Y-104347110D01*
X107627399Y-104136144D01*
X107416079Y-104048397D01*
X107434342Y-104036194D01*
X107665595Y-103690099D01*
X107746800Y-103281852D01*
X107746800Y-102204148D01*
X107665595Y-101795901D01*
X107434342Y-101449806D01*
X107088247Y-101218553D01*
X106680000Y-101137348D01*
X106271753Y-101218553D01*
X106029100Y-101380688D01*
X106029100Y-100549312D01*
X106271753Y-100711447D01*
X106680000Y-100792652D01*
X107088247Y-100711447D01*
X107434342Y-100480194D01*
X107477887Y-100415025D01*
X107488003Y-100465884D01*
X107620148Y-100663652D01*
X108430748Y-101474253D01*
X108443590Y-101482834D01*
X108234405Y-101795901D01*
X108153200Y-102204148D01*
X108153200Y-103281852D01*
X108234405Y-103690099D01*
X108465658Y-104036194D01*
X108811753Y-104267447D01*
X109220000Y-104348652D01*
X109628247Y-104267447D01*
X109974342Y-104036194D01*
X110205595Y-103690099D01*
X110286800Y-103281852D01*
X110286800Y-102719944D01*
X110466806Y-102989342D01*
X110812901Y-103220595D01*
X111221148Y-103301800D01*
X112298852Y-103301800D01*
X112707099Y-103220595D01*
X113053194Y-102989342D01*
X113284447Y-102643247D01*
X113365652Y-102235000D01*
X113284447Y-101826753D01*
X113053194Y-101480658D01*
X112707099Y-101249405D01*
X112298852Y-101168200D01*
X111221148Y-101168200D01*
X110812901Y-101249405D01*
X110466806Y-101480658D01*
X110235553Y-101826753D01*
X110223642Y-101886632D01*
X110205595Y-101795901D01*
X109974342Y-101449806D01*
X109829600Y-101353093D01*
X109829600Y-101043200D01*
X109783197Y-100809916D01*
X109689883Y-100670263D01*
X109974342Y-100480194D01*
X110205595Y-100134099D01*
X110223642Y-100043368D01*
X110235553Y-100103247D01*
X110466806Y-100449342D01*
X110812901Y-100680595D01*
X111221148Y-100761800D01*
X112298852Y-100761800D01*
X112707099Y-100680595D01*
X113053194Y-100449342D01*
X113284447Y-100103247D01*
X113365652Y-99695000D01*
X113284447Y-99286753D01*
X113053194Y-98940658D01*
X112707099Y-98709405D01*
X112298852Y-98628200D01*
X111221148Y-98628200D01*
X110812901Y-98709405D01*
X110466806Y-98940658D01*
X110286800Y-99210056D01*
X110286800Y-98648148D01*
X110205595Y-98239901D01*
X109974342Y-97893806D01*
X109628247Y-97662553D01*
X109220000Y-97581348D01*
X108811753Y-97662553D01*
X108660800Y-97763416D01*
X108660800Y-97155000D01*
X110154348Y-97155000D01*
X110235553Y-97563247D01*
X110466806Y-97909342D01*
X110812901Y-98140595D01*
X111221148Y-98221800D01*
X112298852Y-98221800D01*
X112707099Y-98140595D01*
X113053194Y-97909342D01*
X113284447Y-97563247D01*
X113365652Y-97155000D01*
X113284447Y-96746753D01*
X113053194Y-96400658D01*
X112707099Y-96169405D01*
X112298852Y-96088200D01*
X111221148Y-96088200D01*
X110812901Y-96169405D01*
X110466806Y-96400658D01*
X110235553Y-96746753D01*
X110154348Y-97155000D01*
X108660800Y-97155000D01*
X108660800Y-95607100D01*
X108614397Y-95373816D01*
X108482252Y-95176048D01*
X107921204Y-94615000D01*
X110154348Y-94615000D01*
X110235553Y-95023247D01*
X110466806Y-95369342D01*
X110812901Y-95600595D01*
X111221148Y-95681800D01*
X112298852Y-95681800D01*
X112707099Y-95600595D01*
X113053194Y-95369342D01*
X113284447Y-95023247D01*
X113365652Y-94615000D01*
X113284447Y-94206753D01*
X113053194Y-93860658D01*
X112707099Y-93629405D01*
X112298852Y-93548200D01*
X112244944Y-93548200D01*
X112514342Y-93368194D01*
X112745595Y-93022099D01*
X112826800Y-92613852D01*
X112826800Y-91536148D01*
X112745595Y-91127901D01*
X112514342Y-90781806D01*
X112168247Y-90550553D01*
X111760000Y-90469348D01*
X111351753Y-90550553D01*
X111005658Y-90781806D01*
X110774405Y-91127901D01*
X110693200Y-91536148D01*
X110693200Y-92613852D01*
X110774405Y-93022099D01*
X111005658Y-93368194D01*
X111275056Y-93548200D01*
X111221148Y-93548200D01*
X110812901Y-93629405D01*
X110466806Y-93860658D01*
X110235553Y-94206753D01*
X110154348Y-94615000D01*
X107921204Y-94615000D01*
X106935946Y-93629742D01*
X107088247Y-93599447D01*
X107434342Y-93368194D01*
X107665595Y-93022099D01*
X107746800Y-92613852D01*
X107746800Y-91536148D01*
X108153200Y-91536148D01*
X108153200Y-92613852D01*
X108234405Y-93022099D01*
X108465658Y-93368194D01*
X108811753Y-93599447D01*
X109220000Y-93680652D01*
X109628247Y-93599447D01*
X109974342Y-93368194D01*
X110205595Y-93022099D01*
X110286800Y-92613852D01*
X110286800Y-91536148D01*
X110205595Y-91127901D01*
X109974342Y-90781806D01*
X109628247Y-90550553D01*
X109220000Y-90469348D01*
X108811753Y-90550553D01*
X108465658Y-90781806D01*
X108234405Y-91127901D01*
X108153200Y-91536148D01*
X107746800Y-91536148D01*
X107665595Y-91127901D01*
X107434342Y-90781806D01*
X107088247Y-90550553D01*
X106680000Y-90469348D01*
X106271753Y-90550553D01*
X106049881Y-90698803D01*
X105944396Y-90443510D01*
X105733799Y-90232544D01*
X105458499Y-90118230D01*
X105160409Y-90117970D01*
X104884910Y-90231804D01*
X104673944Y-90442401D01*
X104611489Y-90592810D01*
X104548247Y-90550553D01*
X104140000Y-90469348D01*
X103731753Y-90550553D01*
X103385658Y-90781806D01*
X103154405Y-91127901D01*
X103073200Y-91536148D01*
X103073200Y-92613852D01*
X103154405Y-93022099D01*
X103385658Y-93368194D01*
X103731753Y-93599447D01*
X104140000Y-93680652D01*
X104548247Y-93599447D01*
X104894342Y-93368194D01*
X104916712Y-93334716D01*
X107441600Y-95859604D01*
X107441600Y-97904668D01*
X107434342Y-97893806D01*
X107088247Y-97662553D01*
X106680000Y-97581348D01*
X106271753Y-97662553D01*
X106029100Y-97824688D01*
X106029100Y-97716500D01*
X105982697Y-97483216D01*
X105870197Y-97314848D01*
X105850553Y-97285448D01*
X102101944Y-93536840D01*
X102354342Y-93368194D01*
X102585595Y-93022099D01*
X102666800Y-92613852D01*
X102666800Y-91536148D01*
X102585595Y-91127901D01*
X102354342Y-90781806D01*
X102008247Y-90550553D01*
X101600000Y-90469348D01*
X101191753Y-90550553D01*
X100845658Y-90781806D01*
X100614405Y-91127901D01*
X100533200Y-91536148D01*
X100533200Y-92613852D01*
X100614405Y-93022099D01*
X100710022Y-93165200D01*
X99949978Y-93165200D01*
X100045595Y-93022099D01*
X100126800Y-92613852D01*
X100126800Y-91536148D01*
X100045595Y-91127901D01*
X99814342Y-90781806D01*
X99468247Y-90550553D01*
X99060000Y-90469348D01*
X98651753Y-90550553D01*
X98305658Y-90781806D01*
X98074405Y-91127901D01*
X97993200Y-91536148D01*
X97993200Y-92613852D01*
X98074405Y-93022099D01*
X98305658Y-93368194D01*
X98450400Y-93464907D01*
X98450400Y-93774800D01*
X98496803Y-94008084D01*
X98628948Y-94205852D01*
X98826716Y-94337997D01*
X99060000Y-94384400D01*
X101225296Y-94384400D01*
X103643095Y-96802200D01*
X95253711Y-96802200D01*
X95228499Y-96776944D01*
X94953199Y-96662630D01*
X94655109Y-96662370D01*
X94379610Y-96776204D01*
X94168644Y-96986801D01*
X94054330Y-97262101D01*
X94054070Y-97560191D01*
X94070228Y-97599295D01*
X93980000Y-97581348D01*
X93571753Y-97662553D01*
X93225658Y-97893806D01*
X92994405Y-98239901D01*
X92913200Y-98648148D01*
X92913200Y-99725852D01*
X92994405Y-100134099D01*
X93142273Y-100355400D01*
X92003000Y-100355400D01*
X91769716Y-100401803D01*
X91571948Y-100533948D01*
X91343696Y-100762200D01*
X91033600Y-100762200D01*
X91033600Y-99999800D01*
X90881200Y-99847400D01*
X89941400Y-99847400D01*
X89941400Y-99867400D01*
X89636600Y-99867400D01*
X89636600Y-99847400D01*
X89616600Y-99847400D01*
X89616600Y-99542600D01*
X89636600Y-99542600D01*
X89636600Y-97967800D01*
X89941400Y-97967800D01*
X89941400Y-99542600D01*
X90881200Y-99542600D01*
X91033600Y-99390200D01*
X91033600Y-98303743D01*
X90940794Y-98079689D01*
X90769311Y-97908206D01*
X90545257Y-97815400D01*
X90093800Y-97815400D01*
X89941400Y-97967800D01*
X89636600Y-97967800D01*
X89484200Y-97815400D01*
X89032743Y-97815400D01*
X88808689Y-97908206D01*
X88637206Y-98079689D01*
X88544800Y-98302777D01*
X88544800Y-98161200D01*
X88498397Y-97927916D01*
X88366252Y-97730148D01*
X88070952Y-97434848D01*
X87873184Y-97302703D01*
X87639900Y-97256300D01*
X75410900Y-97256300D01*
X75177616Y-97302703D01*
X74979848Y-97434848D01*
X73380941Y-99033755D01*
X73375595Y-99006877D01*
X73144342Y-98660782D01*
X72837204Y-98455559D01*
X73281708Y-98209480D01*
X73617363Y-97787970D01*
X73766163Y-97270096D01*
X73614825Y-97053400D01*
X72542400Y-97053400D01*
X72542400Y-97073400D01*
X72237600Y-97073400D01*
X72237600Y-97053400D01*
X71165175Y-97053400D01*
X71013837Y-97270096D01*
X71162637Y-97787970D01*
X71498292Y-98209480D01*
X71942796Y-98455559D01*
X71635658Y-98660782D01*
X71404405Y-99006877D01*
X71323200Y-99415124D01*
X71323200Y-99974876D01*
X71404405Y-100383123D01*
X71635658Y-100729218D01*
X71942796Y-100934441D01*
X71498292Y-101180520D01*
X71162637Y-101602030D01*
X71013837Y-102119904D01*
X71165174Y-102336598D01*
X71018400Y-102336598D01*
X71018400Y-102341701D01*
X69438498Y-100761800D01*
X69875876Y-100761800D01*
X70284123Y-100680595D01*
X70630218Y-100449342D01*
X70861471Y-100103247D01*
X70942676Y-99695000D01*
X70861471Y-99286753D01*
X70630218Y-98940658D01*
X70284123Y-98709405D01*
X69875876Y-98628200D01*
X69316124Y-98628200D01*
X68907877Y-98709405D01*
X68561782Y-98940658D01*
X68330529Y-99286753D01*
X68269627Y-99592929D01*
X67542700Y-98866002D01*
X67542700Y-98380099D01*
X67586500Y-98336299D01*
X67795729Y-98023166D01*
X67869200Y-97653800D01*
X67869200Y-96531904D01*
X71013837Y-96531904D01*
X71165175Y-96748600D01*
X72237600Y-96748600D01*
X72237600Y-95437363D01*
X72542400Y-95437363D01*
X72542400Y-96748600D01*
X73614825Y-96748600D01*
X73766163Y-96531904D01*
X73617363Y-96014030D01*
X73281708Y-95592520D01*
X72810299Y-95331546D01*
X72753761Y-95324516D01*
X72542400Y-95437363D01*
X72237600Y-95437363D01*
X72026239Y-95324516D01*
X71969701Y-95331546D01*
X71498292Y-95592520D01*
X71162637Y-96014030D01*
X71013837Y-96531904D01*
X67869200Y-96531904D01*
X67869200Y-92379800D01*
X77368400Y-92379800D01*
X77368400Y-93466257D01*
X77461206Y-93690311D01*
X77632689Y-93861794D01*
X77856743Y-93954600D01*
X78435200Y-93954600D01*
X78587600Y-93802200D01*
X78587600Y-92227400D01*
X78892400Y-92227400D01*
X78892400Y-93802200D01*
X79044800Y-93954600D01*
X79623257Y-93954600D01*
X79847311Y-93861794D01*
X80018794Y-93690311D01*
X80111600Y-93466257D01*
X80111600Y-92379800D01*
X79959200Y-92227400D01*
X78892400Y-92227400D01*
X78587600Y-92227400D01*
X77520800Y-92227400D01*
X77368400Y-92379800D01*
X67869200Y-92379800D01*
X67869200Y-91826700D01*
X67795729Y-91457334D01*
X67743632Y-91379366D01*
X67586500Y-91144201D01*
X66382861Y-89940563D01*
X66770153Y-90017600D01*
X67849847Y-90017600D01*
X68277534Y-89932528D01*
X68640110Y-89690263D01*
X68882375Y-89327687D01*
X68967447Y-88900000D01*
X68882375Y-88472313D01*
X68640110Y-88109737D01*
X68277534Y-87867472D01*
X67849847Y-87782400D01*
X66770153Y-87782400D01*
X66342466Y-87867472D01*
X66141300Y-88001887D01*
X66141300Y-87570453D01*
X66649600Y-87731600D01*
X67157600Y-87731600D01*
X67157600Y-86512400D01*
X67462400Y-86512400D01*
X67462400Y-87731600D01*
X67970400Y-87731600D01*
X68483688Y-87568872D01*
X68895631Y-87222104D01*
X69140484Y-86723761D01*
X69027637Y-86512400D01*
X67462400Y-86512400D01*
X67157600Y-86512400D01*
X67137600Y-86512400D01*
X67137600Y-86207600D01*
X67157600Y-86207600D01*
X67157600Y-84988400D01*
X67462400Y-84988400D01*
X67462400Y-86207600D01*
X69027637Y-86207600D01*
X69140484Y-85996239D01*
X68895631Y-85497896D01*
X68483688Y-85151128D01*
X67970400Y-84988400D01*
X67462400Y-84988400D01*
X67157600Y-84988400D01*
X66649600Y-84988400D01*
X66141300Y-85149547D01*
X66141300Y-84785200D01*
X66241702Y-84785200D01*
X66342466Y-84852528D01*
X66770153Y-84937600D01*
X67849847Y-84937600D01*
X68277534Y-84852528D01*
X68640110Y-84610263D01*
X68882375Y-84247687D01*
X68967447Y-83820000D01*
X68882375Y-83392313D01*
X68640110Y-83029737D01*
X68277534Y-82787472D01*
X67849847Y-82702400D01*
X66770153Y-82702400D01*
X66342466Y-82787472D01*
X66241702Y-82854800D01*
X65176100Y-82854800D01*
X64806734Y-82928271D01*
X64493601Y-83137501D01*
X64284371Y-83450634D01*
X64210900Y-83820000D01*
X64210900Y-90098800D01*
X64260429Y-90347800D01*
X64284371Y-90468166D01*
X64493601Y-90781299D01*
X65938800Y-92226499D01*
X65938800Y-93432457D01*
X65864890Y-93321843D01*
X65271584Y-92925409D01*
X64571733Y-92786200D01*
X62428267Y-92786200D01*
X61728416Y-92925409D01*
X61135110Y-93321843D01*
X60738676Y-93915149D01*
X60599467Y-94615000D01*
X60738676Y-95314851D01*
X61135110Y-95908157D01*
X61728416Y-96304591D01*
X62428267Y-96443800D01*
X64571733Y-96443800D01*
X65271584Y-96304591D01*
X65864890Y-95908157D01*
X65938800Y-95797543D01*
X65938800Y-97254002D01*
X65895001Y-97297801D01*
X65685771Y-97610934D01*
X65612300Y-97980300D01*
X65612300Y-99265800D01*
X65647204Y-99441273D01*
X65685771Y-99635166D01*
X65895001Y-99948299D01*
X73551601Y-107604900D01*
X73864734Y-107814129D01*
X74234100Y-107887600D01*
X74792602Y-107887600D01*
X77081501Y-110176500D01*
X77284348Y-110312038D01*
X77057523Y-110311840D01*
X76291730Y-110628259D01*
X75705318Y-111213648D01*
X75550704Y-111586000D01*
X74360052Y-110395348D01*
X74162284Y-110263203D01*
X74004466Y-110231811D01*
X74676000Y-110231811D01*
X74794927Y-110208155D01*
X74895748Y-110140788D01*
X74963115Y-110039967D01*
X74986771Y-109921040D01*
X74986771Y-108331000D01*
X74963115Y-108212073D01*
X74895748Y-108111252D01*
X74794927Y-108043885D01*
X74676000Y-108020229D01*
X72009000Y-108020229D01*
X71890073Y-108043885D01*
X71789252Y-108111252D01*
X71721885Y-108212073D01*
X71698229Y-108331000D01*
X71698229Y-108516400D01*
X71604170Y-108516400D01*
X71573000Y-108510200D01*
X70799011Y-108510200D01*
X70773799Y-108484944D01*
X70498499Y-108370630D01*
X70200409Y-108370370D01*
X69924910Y-108484204D01*
X69713944Y-108694801D01*
X69599630Y-108970101D01*
X69599619Y-108982199D01*
X69368499Y-108886230D01*
X69070409Y-108885970D01*
X68794910Y-108999804D01*
X68583944Y-109210401D01*
X68469630Y-109485701D01*
X68469370Y-109783791D01*
X68583204Y-110059290D01*
X68793801Y-110270256D01*
X69069101Y-110384570D01*
X69105898Y-110384602D01*
X69978747Y-111257452D01*
X70176516Y-111389597D01*
X70409800Y-111436000D01*
X73676496Y-111436000D01*
X74258685Y-112018189D01*
X72009000Y-112018189D01*
X71890073Y-112041845D01*
X71789252Y-112109212D01*
X71721885Y-112210033D01*
X71698229Y-112328960D01*
X71698229Y-113919000D01*
X71721885Y-114037927D01*
X71789252Y-114138748D01*
X71890073Y-114206115D01*
X72009000Y-114229771D01*
X74676000Y-114229771D01*
X74794927Y-114206115D01*
X74895748Y-114138748D01*
X74963115Y-114037927D01*
X74971943Y-113993547D01*
X75886595Y-114908200D01*
X72383204Y-114908200D01*
X71546299Y-114071295D01*
X71546330Y-114035609D01*
X71432496Y-113760110D01*
X71221899Y-113549144D01*
X70946599Y-113434830D01*
X70648509Y-113434570D01*
X70373010Y-113548404D01*
X70162044Y-113759001D01*
X70047730Y-114034301D01*
X70047530Y-114264052D01*
X69593292Y-114515520D01*
X69257637Y-114937030D01*
X69215000Y-115085421D01*
X69172363Y-114937030D01*
X68836708Y-114515520D01*
X68365299Y-114254546D01*
X68308761Y-114247516D01*
X68097400Y-114360363D01*
X68097400Y-115671600D01*
X69169825Y-115671600D01*
X69215000Y-115606915D01*
X69260175Y-115671600D01*
X70332600Y-115671600D01*
X70332600Y-115651600D01*
X70637400Y-115651600D01*
X70637400Y-115671600D01*
X70657400Y-115671600D01*
X70657400Y-115976400D01*
X70637400Y-115976400D01*
X70637400Y-115996400D01*
X70332600Y-115996400D01*
X70332600Y-115976400D01*
X69260175Y-115976400D01*
X69215000Y-116041085D01*
X69169825Y-115976400D01*
X68097400Y-115976400D01*
X68097400Y-115996400D01*
X67792600Y-115996400D01*
X67792600Y-115976400D01*
X66720175Y-115976400D01*
X66568837Y-116193096D01*
X66717637Y-116710970D01*
X67053292Y-117132480D01*
X67289903Y-117263469D01*
X67190658Y-117329782D01*
X66959405Y-117675877D01*
X66954059Y-117702755D01*
X64706208Y-115454904D01*
X66568837Y-115454904D01*
X66720175Y-115671600D01*
X67792600Y-115671600D01*
X67792600Y-114360363D01*
X67581239Y-114247516D01*
X67524701Y-114254546D01*
X67053292Y-114515520D01*
X66717637Y-114937030D01*
X66568837Y-115454904D01*
X64706208Y-115454904D01*
X63779904Y-114528600D01*
X64782700Y-114528600D01*
X64935100Y-114376200D01*
X64935100Y-113276380D01*
X65239900Y-113276380D01*
X65239900Y-114376200D01*
X65392300Y-114528600D01*
X66542257Y-114528600D01*
X66766311Y-114435794D01*
X66937794Y-114264311D01*
X67030600Y-114040257D01*
X67030600Y-113428780D01*
X66878200Y-113276380D01*
X65239900Y-113276380D01*
X64935100Y-113276380D01*
X63296800Y-113276380D01*
X63144400Y-113428780D01*
X63144400Y-113893096D01*
X61459007Y-112207703D01*
X63144400Y-112207703D01*
X63144400Y-112819180D01*
X63296800Y-112971580D01*
X64935100Y-112971580D01*
X64935100Y-111871760D01*
X65239900Y-111871760D01*
X65239900Y-112971580D01*
X66878200Y-112971580D01*
X67030600Y-112819180D01*
X67030600Y-112207703D01*
X66937794Y-111983649D01*
X66766311Y-111812166D01*
X66542257Y-111719360D01*
X65392300Y-111719360D01*
X65239900Y-111871760D01*
X64935100Y-111871760D01*
X64782700Y-111719360D01*
X63632743Y-111719360D01*
X63408689Y-111812166D01*
X63237206Y-111983649D01*
X63144400Y-112207703D01*
X61459007Y-112207703D01*
X61004700Y-111753396D01*
X61004700Y-108331000D01*
X63443229Y-108331000D01*
X63443229Y-109921040D01*
X63466885Y-110039967D01*
X63534252Y-110140788D01*
X63635073Y-110208155D01*
X63754000Y-110231811D01*
X66421000Y-110231811D01*
X66539927Y-110208155D01*
X66640748Y-110140788D01*
X66708115Y-110039967D01*
X66731771Y-109921040D01*
X66731771Y-108331000D01*
X66708115Y-108212073D01*
X66640748Y-108111252D01*
X66539927Y-108043885D01*
X66421000Y-108020229D01*
X63754000Y-108020229D01*
X63635073Y-108043885D01*
X63534252Y-108111252D01*
X63466885Y-108212073D01*
X63443229Y-108331000D01*
X61004700Y-108331000D01*
X61004700Y-105872984D01*
X61135110Y-106068157D01*
X61728416Y-106464591D01*
X62428267Y-106603800D01*
X64571733Y-106603800D01*
X65271584Y-106464591D01*
X65864890Y-106068157D01*
X66261324Y-105474851D01*
X66400533Y-104775000D01*
X66261324Y-104075149D01*
X65864890Y-103481843D01*
X65271584Y-103085409D01*
X64571733Y-102946200D01*
X62428267Y-102946200D01*
X61728416Y-103085409D01*
X61135110Y-103481843D01*
X61004700Y-103677016D01*
X61004700Y-100996111D01*
X61029956Y-100970899D01*
X61144270Y-100695599D01*
X61144530Y-100397509D01*
X61030696Y-100122010D01*
X60820099Y-99911044D01*
X60544799Y-99796730D01*
X60246709Y-99796470D01*
X60109100Y-99853329D01*
X60109100Y-82327477D01*
X60146840Y-82327477D01*
X60463259Y-83093270D01*
X61048648Y-83679682D01*
X61813888Y-83997437D01*
X62642477Y-83998160D01*
X63408270Y-83681741D01*
X63994682Y-83096352D01*
X64312437Y-82331112D01*
X64313160Y-81502523D01*
X63996741Y-80736730D01*
X63411352Y-80150318D01*
X62646112Y-79832563D01*
X61817523Y-79831840D01*
X61051730Y-80148259D01*
X60465318Y-80733648D01*
X60147563Y-81498888D01*
X60146840Y-82327477D01*
X60109100Y-82327477D01*
X60109100Y-79794100D01*
X74466395Y-79794100D01*
X74275648Y-79984848D01*
X74275648Y-79984848D01*
G37*
X74275648Y-79984848D02*
X74143503Y-80182616D01*
X74097100Y-80415900D01*
X74097100Y-87545700D01*
X74143503Y-87778984D01*
X74275648Y-87976752D01*
X77105148Y-90806252D01*
X77302916Y-90938397D01*
X77368400Y-90951423D01*
X77368400Y-91770200D01*
X77520800Y-91922600D01*
X78587600Y-91922600D01*
X78587600Y-91902600D01*
X78892400Y-91902600D01*
X78892400Y-91922600D01*
X79959200Y-91922600D01*
X80111600Y-91770200D01*
X80111600Y-90984800D01*
X80390022Y-90984800D01*
X80294405Y-91127901D01*
X80213200Y-91536148D01*
X80213200Y-92613852D01*
X80294405Y-93022099D01*
X80525658Y-93368194D01*
X80871753Y-93599447D01*
X81280000Y-93680652D01*
X81688247Y-93599447D01*
X82034342Y-93368194D01*
X82265595Y-93022099D01*
X82346800Y-92613852D01*
X82346800Y-91536148D01*
X82265595Y-91127901D01*
X82034342Y-90781806D01*
X81889600Y-90685093D01*
X81889600Y-90375200D01*
X81843197Y-90141916D01*
X81711052Y-89944148D01*
X81513284Y-89812003D01*
X81280000Y-89765600D01*
X77788704Y-89765600D01*
X77100582Y-89077478D01*
X77882477Y-89078160D01*
X78648270Y-88761741D01*
X79234682Y-88176352D01*
X79552437Y-87411112D01*
X79553160Y-86582523D01*
X79236741Y-85816730D01*
X78651352Y-85230318D01*
X78130641Y-85014100D01*
X85257400Y-85014100D01*
X85626766Y-84940629D01*
X85938600Y-84732267D01*
X85938600Y-89934496D01*
X85928948Y-89944148D01*
X85796803Y-90141916D01*
X85750400Y-90375200D01*
X85750400Y-90685093D01*
X85605658Y-90781806D01*
X85374405Y-91127901D01*
X85293200Y-91536148D01*
X85293200Y-92613852D01*
X85374405Y-93022099D01*
X85470022Y-93165200D01*
X84709978Y-93165200D01*
X84805595Y-93022099D01*
X84886800Y-92613852D01*
X84886800Y-91536148D01*
X84805595Y-91127901D01*
X84574342Y-90781806D01*
X84228247Y-90550553D01*
X83820000Y-90469348D01*
X83411753Y-90550553D01*
X83065658Y-90781806D01*
X82834405Y-91127901D01*
X82753200Y-91536148D01*
X82753200Y-92613852D01*
X82834405Y-93022099D01*
X83065658Y-93368194D01*
X83210400Y-93464907D01*
X83210400Y-93774800D01*
X83256803Y-94008084D01*
X83388948Y-94205852D01*
X83586716Y-94337997D01*
X83820000Y-94384400D01*
X91906500Y-94384400D01*
X92139784Y-94337997D01*
X92337552Y-94205852D01*
X93141053Y-93402352D01*
X93194767Y-93321962D01*
X93225658Y-93368194D01*
X93571753Y-93599447D01*
X93980000Y-93680652D01*
X94388247Y-93599447D01*
X94734342Y-93368194D01*
X94965595Y-93022099D01*
X95046800Y-92613852D01*
X95046800Y-91536148D01*
X95453200Y-91536148D01*
X95453200Y-92613852D01*
X95534405Y-93022099D01*
X95765658Y-93368194D01*
X96111753Y-93599447D01*
X96520000Y-93680652D01*
X96928247Y-93599447D01*
X97274342Y-93368194D01*
X97505595Y-93022099D01*
X97586800Y-92613852D01*
X97586800Y-91536148D01*
X97505595Y-91127901D01*
X97274342Y-90781806D01*
X96928247Y-90550553D01*
X96520000Y-90469348D01*
X96111753Y-90550553D01*
X95765658Y-90781806D01*
X95534405Y-91127901D01*
X95453200Y-91536148D01*
X95046800Y-91536148D01*
X94965595Y-91127901D01*
X94734342Y-90781806D01*
X94388247Y-90550553D01*
X94213926Y-90515879D01*
X95436305Y-89293500D01*
X113744489Y-89293500D01*
X113769701Y-89318756D01*
X114045001Y-89433070D01*
X114343091Y-89433330D01*
X114618590Y-89319496D01*
X114829556Y-89108899D01*
X114943870Y-88833599D01*
X114944130Y-88535509D01*
X114830296Y-88260010D01*
X114619699Y-88049044D01*
X114344399Y-87934730D01*
X114046309Y-87934470D01*
X113770810Y-88048304D01*
X113744768Y-88074300D01*
X95183800Y-88074300D01*
X94950516Y-88120703D01*
X94871844Y-88173270D01*
X94752748Y-88252847D01*
X92278948Y-90726648D01*
X92218217Y-90817538D01*
X92194342Y-90781806D01*
X92049600Y-90685093D01*
X92049600Y-87244452D01*
X92239334Y-87371229D01*
X92608700Y-87444700D01*
X118893602Y-87444700D01*
X121194800Y-89745899D01*
X121194800Y-90028343D01*
X121152885Y-90091073D01*
X121143481Y-90138350D01*
X121127115Y-90056073D01*
X121059748Y-89955252D01*
X120958927Y-89887885D01*
X120840000Y-89864229D01*
X115880000Y-89864229D01*
X115761073Y-89887885D01*
X115660252Y-89955252D01*
X115592885Y-90056073D01*
X115569229Y-90175000D01*
X115569229Y-93975000D01*
X115592885Y-94093927D01*
X115660252Y-94194748D01*
X115761073Y-94262115D01*
X115880000Y-94285771D01*
X117394800Y-94285771D01*
X117394800Y-94944229D01*
X115880000Y-94944229D01*
X115761073Y-94967885D01*
X115660252Y-95035252D01*
X115592885Y-95136073D01*
X115569229Y-95255000D01*
X115569229Y-96189800D01*
X115016100Y-96189800D01*
X114646734Y-96263271D01*
X114333601Y-96472501D01*
X114124371Y-96785634D01*
X114050900Y-97155000D01*
X114124371Y-97524366D01*
X114333601Y-97837499D01*
X114646734Y-98046729D01*
X115016100Y-98120200D01*
X115569229Y-98120200D01*
X115569229Y-99055000D01*
X115592885Y-99173927D01*
X115660252Y-99274748D01*
X115761073Y-99342115D01*
X115880000Y-99365771D01*
X117394800Y-99365771D01*
X117394800Y-100024229D01*
X115880000Y-100024229D01*
X115761073Y-100047885D01*
X115660252Y-100115252D01*
X115592885Y-100216073D01*
X115569229Y-100335000D01*
X115569229Y-104135000D01*
X115592885Y-104253927D01*
X115660252Y-104354748D01*
X115761073Y-104422115D01*
X115880000Y-104445771D01*
X117394800Y-104445771D01*
X117394800Y-105104229D01*
X115880000Y-105104229D01*
X115761073Y-105127885D01*
X115660252Y-105195252D01*
X115592885Y-105296073D01*
X115569229Y-105415000D01*
X115569229Y-106349800D01*
X115016100Y-106349800D01*
X114708015Y-106411082D01*
X114646733Y-106423271D01*
X114333600Y-106632501D01*
X112755922Y-108210179D01*
X112826800Y-107853852D01*
X112826800Y-106776148D01*
X112745595Y-106367901D01*
X112514342Y-106021806D01*
X112244944Y-105841800D01*
X112298852Y-105841800D01*
X112707099Y-105760595D01*
X113053194Y-105529342D01*
X113284447Y-105183247D01*
X113365652Y-104775000D01*
X113284447Y-104366753D01*
X113053194Y-104020658D01*
X112707099Y-103789405D01*
X112298852Y-103708200D01*
X111221148Y-103708200D01*
X110812901Y-103789405D01*
X110466806Y-104020658D01*
X110235553Y-104366753D01*
X110154348Y-104775000D01*
X110235553Y-105183247D01*
X110466806Y-105529342D01*
X110812901Y-105760595D01*
X111221148Y-105841800D01*
X111275056Y-105841800D01*
X111005658Y-106021806D01*
X110774405Y-106367901D01*
X110693200Y-106776148D01*
X110693200Y-107853852D01*
X110774405Y-108262099D01*
X110952609Y-108528800D01*
X110027391Y-108528800D01*
X110205595Y-108262099D01*
X110286800Y-107853852D01*
X110286800Y-106776148D01*
X110205595Y-106367901D01*
X109974342Y-106021806D01*
X109628247Y-105790553D01*
X109220000Y-105709348D01*
X108811753Y-105790553D01*
X108465658Y-106021806D01*
X108234405Y-106367901D01*
X108153200Y-106776148D01*
X108153200Y-107853852D01*
X108234405Y-108262099D01*
X108412609Y-108528800D01*
X107487391Y-108528800D01*
X107665595Y-108262099D01*
X107746800Y-107853852D01*
X107746800Y-106776148D01*
X107665595Y-106367901D01*
X107434342Y-106021806D01*
X107088247Y-105790553D01*
X106680000Y-105709348D01*
X106271753Y-105790553D01*
X105925658Y-106021806D01*
X105694405Y-106367901D01*
X105613200Y-106776148D01*
X105613200Y-107853852D01*
X105694405Y-108262099D01*
X105872609Y-108528800D01*
X104947391Y-108528800D01*
X105125595Y-108262099D01*
X105206800Y-107853852D01*
X105206800Y-106776148D01*
X105125595Y-106367901D01*
X104894342Y-106021806D01*
X104548247Y-105790553D01*
X104140000Y-105709348D01*
X103731753Y-105790553D01*
X103385658Y-106021806D01*
X103154405Y-106367901D01*
X103073200Y-106776148D01*
X103073200Y-107853852D01*
X103154405Y-108262099D01*
X103332609Y-108528800D01*
X102407391Y-108528800D01*
X102585595Y-108262099D01*
X102666800Y-107853852D01*
X102666800Y-106776148D01*
X102585595Y-106367901D01*
X102354342Y-106021806D01*
X102008247Y-105790553D01*
X101600000Y-105709348D01*
X101191753Y-105790553D01*
X100845658Y-106021806D01*
X100614405Y-106367901D01*
X100533200Y-106776148D01*
X100533200Y-107853852D01*
X100614405Y-108262099D01*
X100792609Y-108528800D01*
X99867391Y-108528800D01*
X100045595Y-108262099D01*
X100126800Y-107853852D01*
X100126800Y-106776148D01*
X100045595Y-106367901D01*
X99814342Y-106021806D01*
X99468247Y-105790553D01*
X99060000Y-105709348D01*
X98651753Y-105790553D01*
X98305658Y-106021806D01*
X98074405Y-106367901D01*
X97993200Y-106776148D01*
X97993200Y-107853852D01*
X98074405Y-108262099D01*
X98252609Y-108528800D01*
X97327391Y-108528800D01*
X97505595Y-108262099D01*
X97586800Y-107853852D01*
X97586800Y-106776148D01*
X97505595Y-106367901D01*
X97274342Y-106021806D01*
X96928247Y-105790553D01*
X96520000Y-105709348D01*
X96111753Y-105790553D01*
X95765658Y-106021806D01*
X95534405Y-106367901D01*
X95453200Y-106776148D01*
X95453200Y-107853852D01*
X95534405Y-108262099D01*
X95712609Y-108528800D01*
X94787391Y-108528800D01*
X94965595Y-108262099D01*
X95046800Y-107853852D01*
X95046800Y-106776148D01*
X94965595Y-106367901D01*
X94734342Y-106021806D01*
X94388247Y-105790553D01*
X93980000Y-105709348D01*
X93571753Y-105790553D01*
X93225658Y-106021806D01*
X92994405Y-106367901D01*
X92913200Y-106776148D01*
X92913200Y-107853852D01*
X92994405Y-108262099D01*
X93172609Y-108528800D01*
X92247391Y-108528800D01*
X92425595Y-108262099D01*
X92506800Y-107853852D01*
X92506800Y-106776148D01*
X92425595Y-106367901D01*
X92194342Y-106021806D01*
X91848916Y-105791000D01*
X92194342Y-105560194D01*
X92425595Y-105214099D01*
X92506800Y-104805852D01*
X92506800Y-103728148D01*
X92425595Y-103319901D01*
X92194342Y-102973806D01*
X91848247Y-102742553D01*
X91440000Y-102661348D01*
X91031753Y-102742553D01*
X90685658Y-102973806D01*
X90454405Y-103319901D01*
X90373200Y-103728148D01*
X90373200Y-104805852D01*
X90454405Y-105214099D01*
X90685658Y-105560194D01*
X91031084Y-105791000D01*
X90685658Y-106021806D01*
X90454405Y-106367901D01*
X90373200Y-106776148D01*
X90373200Y-107853852D01*
X90454405Y-108262099D01*
X90632609Y-108528800D01*
X89707391Y-108528800D01*
X89885595Y-108262099D01*
X89966800Y-107853852D01*
X89966800Y-106776148D01*
X89885595Y-106367901D01*
X89654342Y-106021806D01*
X89308916Y-105791000D01*
X89654342Y-105560194D01*
X89885595Y-105214099D01*
X89966800Y-104805852D01*
X89966800Y-103728148D01*
X89885595Y-103319901D01*
X89654342Y-102973806D01*
X89308247Y-102742553D01*
X88900000Y-102661348D01*
X88491753Y-102742553D01*
X88145658Y-102973806D01*
X87914405Y-103319901D01*
X87833200Y-103728148D01*
X87833200Y-104805852D01*
X87914405Y-105214099D01*
X88145658Y-105560194D01*
X88491084Y-105791000D01*
X88145658Y-106021806D01*
X87914405Y-106367901D01*
X87833200Y-106776148D01*
X87833200Y-107853852D01*
X87914405Y-108262099D01*
X88092609Y-108528800D01*
X87167391Y-108528800D01*
X87345595Y-108262099D01*
X87426800Y-107853852D01*
X87426800Y-106776148D01*
X87345595Y-106367901D01*
X87114342Y-106021806D01*
X86814501Y-105821459D01*
X87150263Y-105597110D01*
X87392528Y-105234534D01*
X87477600Y-104806847D01*
X87477600Y-103727153D01*
X87392528Y-103299466D01*
X87150263Y-102936890D01*
X86891700Y-102764124D01*
X87110366Y-102720629D01*
X87423499Y-102511399D01*
X87632729Y-102198266D01*
X87706200Y-101828900D01*
X87706200Y-101110882D01*
X87710967Y-101103748D01*
X87727123Y-101022527D01*
X88507447Y-101802852D01*
X88601407Y-101865634D01*
X88705216Y-101934997D01*
X88938500Y-101981400D01*
X91596200Y-101981400D01*
X91829484Y-101934997D01*
X92027252Y-101802852D01*
X92255504Y-101574600D01*
X93142273Y-101574600D01*
X92994405Y-101795901D01*
X92913200Y-102204148D01*
X92913200Y-103281852D01*
X92994405Y-103690099D01*
X93225658Y-104036194D01*
X93571753Y-104267447D01*
X93980000Y-104348652D01*
X94388247Y-104267447D01*
X94734342Y-104036194D01*
X94965595Y-103690099D01*
X95046800Y-103281852D01*
X95046800Y-102204148D01*
X94965595Y-101795901D01*
X94817727Y-101574600D01*
X95682273Y-101574600D01*
X95534405Y-101795901D01*
X95453200Y-102204148D01*
X95453200Y-103281852D01*
X95534405Y-103690099D01*
X95765658Y-104036194D01*
X96111753Y-104267447D01*
X96520000Y-104348652D01*
X96928247Y-104267447D01*
X97274342Y-104036194D01*
X97505595Y-103690099D01*
X97586800Y-103281852D01*
X97586800Y-102204148D01*
X97505595Y-101795901D01*
X97357727Y-101574600D01*
X98222273Y-101574600D01*
X98074405Y-101795901D01*
X97993200Y-102204148D01*
X97993200Y-103281852D01*
X98074405Y-103690099D01*
X98305658Y-104036194D01*
X98651753Y-104267447D01*
X99060000Y-104348652D01*
X99468247Y-104267447D01*
X99814342Y-104036194D01*
X100045595Y-103690099D01*
X100126800Y-103281852D01*
X100126800Y-102204148D01*
X100045595Y-101795901D01*
X99897727Y-101574600D01*
X100762273Y-101574600D01*
X100614405Y-101795901D01*
X100533200Y-102204148D01*
X100533200Y-103281852D01*
X100614405Y-103690099D01*
X100845658Y-104036194D01*
X101191753Y-104267447D01*
X101600000Y-104348652D01*
X102008247Y-104267447D01*
X102354342Y-104036194D01*
X102585595Y-103690099D01*
X102666800Y-103281852D01*
X102666800Y-102204148D01*
X102585595Y-101795901D01*
X102354342Y-101449806D01*
X102209600Y-101353093D01*
X102209600Y-101043200D01*
X102163197Y-100809916D01*
X102097402Y-100711447D01*
X102069884Y-100670263D01*
X102354342Y-100480194D01*
X102585595Y-100134099D01*
X102666800Y-99725852D01*
X102666800Y-98648148D01*
X102585595Y-98239901D01*
X102439597Y-98021400D01*
X103300403Y-98021400D01*
X103154405Y-98239901D01*
X103073200Y-98648148D01*
X103073200Y-99725852D01*
X103154405Y-100134099D01*
X103385658Y-100480194D01*
X103731753Y-100711447D01*
X104140000Y-100792652D01*
X104548247Y-100711447D01*
X104809900Y-100536616D01*
X104809900Y-101393384D01*
X104548247Y-101218553D01*
X104140000Y-101137348D01*
X103731753Y-101218553D01*
X103385658Y-101449806D01*
X103154405Y-101795901D01*
X103073200Y-102204148D01*
X103073200Y-103281852D01*
X103154405Y-103690099D01*
X103385658Y-104036194D01*
X103731753Y-104267447D01*
X104140000Y-104348652D01*
X104548247Y-104267447D01*
X104894342Y-104036194D01*
X104908434Y-104015103D01*
X104988448Y-104134852D01*
X106055648Y-105202052D01*
X106253416Y-105334197D01*
X106486700Y-105380600D01*
X106752189Y-105380600D01*
X106777401Y-105405856D01*
X107052701Y-105520170D01*
X107350791Y-105520430D01*
X107626290Y-105406596D01*
X107837256Y-105195999D01*
X107951570Y-104920699D01*
X107951830Y-104622609D01*
X107837996Y-104347110D01*
X107627399Y-104136144D01*
X107416079Y-104048397D01*
X107434342Y-104036194D01*
X107665595Y-103690099D01*
X107746800Y-103281852D01*
X107746800Y-102204148D01*
X107665595Y-101795901D01*
X107434342Y-101449806D01*
X107088247Y-101218553D01*
X106680000Y-101137348D01*
X106271753Y-101218553D01*
X106029100Y-101380688D01*
X106029100Y-100549312D01*
X106271753Y-100711447D01*
X106680000Y-100792652D01*
X107088247Y-100711447D01*
X107434342Y-100480194D01*
X107477887Y-100415025D01*
X107488003Y-100465884D01*
X107620148Y-100663652D01*
X108430748Y-101474253D01*
X108443590Y-101482834D01*
X108234405Y-101795901D01*
X108153200Y-102204148D01*
X108153200Y-103281852D01*
X108234405Y-103690099D01*
X108465658Y-104036194D01*
X108811753Y-104267447D01*
X109220000Y-104348652D01*
X109628247Y-104267447D01*
X109974342Y-104036194D01*
X110205595Y-103690099D01*
X110286800Y-103281852D01*
X110286800Y-102719944D01*
X110466806Y-102989342D01*
X110812901Y-103220595D01*
X111221148Y-103301800D01*
X112298852Y-103301800D01*
X112707099Y-103220595D01*
X113053194Y-102989342D01*
X113284447Y-102643247D01*
X113365652Y-102235000D01*
X113284447Y-101826753D01*
X113053194Y-101480658D01*
X112707099Y-101249405D01*
X112298852Y-101168200D01*
X111221148Y-101168200D01*
X110812901Y-101249405D01*
X110466806Y-101480658D01*
X110235553Y-101826753D01*
X110223642Y-101886632D01*
X110205595Y-101795901D01*
X109974342Y-101449806D01*
X109829600Y-101353093D01*
X109829600Y-101043200D01*
X109783197Y-100809916D01*
X109689883Y-100670263D01*
X109974342Y-100480194D01*
X110205595Y-100134099D01*
X110223642Y-100043368D01*
X110235553Y-100103247D01*
X110466806Y-100449342D01*
X110812901Y-100680595D01*
X111221148Y-100761800D01*
X112298852Y-100761800D01*
X112707099Y-100680595D01*
X113053194Y-100449342D01*
X113284447Y-100103247D01*
X113365652Y-99695000D01*
X113284447Y-99286753D01*
X113053194Y-98940658D01*
X112707099Y-98709405D01*
X112298852Y-98628200D01*
X111221148Y-98628200D01*
X110812901Y-98709405D01*
X110466806Y-98940658D01*
X110286800Y-99210056D01*
X110286800Y-98648148D01*
X110205595Y-98239901D01*
X109974342Y-97893806D01*
X109628247Y-97662553D01*
X109220000Y-97581348D01*
X108811753Y-97662553D01*
X108660800Y-97763416D01*
X108660800Y-97155000D01*
X110154348Y-97155000D01*
X110235553Y-97563247D01*
X110466806Y-97909342D01*
X110812901Y-98140595D01*
X111221148Y-98221800D01*
X112298852Y-98221800D01*
X112707099Y-98140595D01*
X113053194Y-97909342D01*
X113284447Y-97563247D01*
X113365652Y-97155000D01*
X113284447Y-96746753D01*
X113053194Y-96400658D01*
X112707099Y-96169405D01*
X112298852Y-96088200D01*
X111221148Y-96088200D01*
X110812901Y-96169405D01*
X110466806Y-96400658D01*
X110235553Y-96746753D01*
X110154348Y-97155000D01*
X108660800Y-97155000D01*
X108660800Y-95607100D01*
X108614397Y-95373816D01*
X108482252Y-95176048D01*
X107921204Y-94615000D01*
X110154348Y-94615000D01*
X110235553Y-95023247D01*
X110466806Y-95369342D01*
X110812901Y-95600595D01*
X111221148Y-95681800D01*
X112298852Y-95681800D01*
X112707099Y-95600595D01*
X113053194Y-95369342D01*
X113284447Y-95023247D01*
X113365652Y-94615000D01*
X113284447Y-94206753D01*
X113053194Y-93860658D01*
X112707099Y-93629405D01*
X112298852Y-93548200D01*
X112244944Y-93548200D01*
X112514342Y-93368194D01*
X112745595Y-93022099D01*
X112826800Y-92613852D01*
X112826800Y-91536148D01*
X112745595Y-91127901D01*
X112514342Y-90781806D01*
X112168247Y-90550553D01*
X111760000Y-90469348D01*
X111351753Y-90550553D01*
X111005658Y-90781806D01*
X110774405Y-91127901D01*
X110693200Y-91536148D01*
X110693200Y-92613852D01*
X110774405Y-93022099D01*
X111005658Y-93368194D01*
X111275056Y-93548200D01*
X111221148Y-93548200D01*
X110812901Y-93629405D01*
X110466806Y-93860658D01*
X110235553Y-94206753D01*
X110154348Y-94615000D01*
X107921204Y-94615000D01*
X106935946Y-93629742D01*
X107088247Y-93599447D01*
X107434342Y-93368194D01*
X107665595Y-93022099D01*
X107746800Y-92613852D01*
X107746800Y-91536148D01*
X108153200Y-91536148D01*
X108153200Y-92613852D01*
X108234405Y-93022099D01*
X108465658Y-93368194D01*
X108811753Y-93599447D01*
X109220000Y-93680652D01*
X109628247Y-93599447D01*
X109974342Y-93368194D01*
X110205595Y-93022099D01*
X110286800Y-92613852D01*
X110286800Y-91536148D01*
X110205595Y-91127901D01*
X109974342Y-90781806D01*
X109628247Y-90550553D01*
X109220000Y-90469348D01*
X108811753Y-90550553D01*
X108465658Y-90781806D01*
X108234405Y-91127901D01*
X108153200Y-91536148D01*
X107746800Y-91536148D01*
X107665595Y-91127901D01*
X107434342Y-90781806D01*
X107088247Y-90550553D01*
X106680000Y-90469348D01*
X106271753Y-90550553D01*
X106049881Y-90698803D01*
X105944396Y-90443510D01*
X105733799Y-90232544D01*
X105458499Y-90118230D01*
X105160409Y-90117970D01*
X104884910Y-90231804D01*
X104673944Y-90442401D01*
X104611489Y-90592810D01*
X104548247Y-90550553D01*
X104140000Y-90469348D01*
X103731753Y-90550553D01*
X103385658Y-90781806D01*
X103154405Y-91127901D01*
X103073200Y-91536148D01*
X103073200Y-92613852D01*
X103154405Y-93022099D01*
X103385658Y-93368194D01*
X103731753Y-93599447D01*
X104140000Y-93680652D01*
X104548247Y-93599447D01*
X104894342Y-93368194D01*
X104916712Y-93334716D01*
X107441600Y-95859604D01*
X107441600Y-97904668D01*
X107434342Y-97893806D01*
X107088247Y-97662553D01*
X106680000Y-97581348D01*
X106271753Y-97662553D01*
X106029100Y-97824688D01*
X106029100Y-97716500D01*
X105982697Y-97483216D01*
X105870197Y-97314848D01*
X105850553Y-97285448D01*
X102101944Y-93536840D01*
X102354342Y-93368194D01*
X102585595Y-93022099D01*
X102666800Y-92613852D01*
X102666800Y-91536148D01*
X102585595Y-91127901D01*
X102354342Y-90781806D01*
X102008247Y-90550553D01*
X101600000Y-90469348D01*
X101191753Y-90550553D01*
X100845658Y-90781806D01*
X100614405Y-91127901D01*
X100533200Y-91536148D01*
X100533200Y-92613852D01*
X100614405Y-93022099D01*
X100710022Y-93165200D01*
X99949978Y-93165200D01*
X100045595Y-93022099D01*
X100126800Y-92613852D01*
X100126800Y-91536148D01*
X100045595Y-91127901D01*
X99814342Y-90781806D01*
X99468247Y-90550553D01*
X99060000Y-90469348D01*
X98651753Y-90550553D01*
X98305658Y-90781806D01*
X98074405Y-91127901D01*
X97993200Y-91536148D01*
X97993200Y-92613852D01*
X98074405Y-93022099D01*
X98305658Y-93368194D01*
X98450400Y-93464907D01*
X98450400Y-93774800D01*
X98496803Y-94008084D01*
X98628948Y-94205852D01*
X98826716Y-94337997D01*
X99060000Y-94384400D01*
X101225296Y-94384400D01*
X103643095Y-96802200D01*
X95253711Y-96802200D01*
X95228499Y-96776944D01*
X94953199Y-96662630D01*
X94655109Y-96662370D01*
X94379610Y-96776204D01*
X94168644Y-96986801D01*
X94054330Y-97262101D01*
X94054070Y-97560191D01*
X94070228Y-97599295D01*
X93980000Y-97581348D01*
X93571753Y-97662553D01*
X93225658Y-97893806D01*
X92994405Y-98239901D01*
X92913200Y-98648148D01*
X92913200Y-99725852D01*
X92994405Y-100134099D01*
X93142273Y-100355400D01*
X92003000Y-100355400D01*
X91769716Y-100401803D01*
X91571948Y-100533948D01*
X91343696Y-100762200D01*
X91033600Y-100762200D01*
X91033600Y-99999800D01*
X90881200Y-99847400D01*
X89941400Y-99847400D01*
X89941400Y-99867400D01*
X89636600Y-99867400D01*
X89636600Y-99847400D01*
X89616600Y-99847400D01*
X89616600Y-99542600D01*
X89636600Y-99542600D01*
X89636600Y-97967800D01*
X89941400Y-97967800D01*
X89941400Y-99542600D01*
X90881200Y-99542600D01*
X91033600Y-99390200D01*
X91033600Y-98303743D01*
X90940794Y-98079689D01*
X90769311Y-97908206D01*
X90545257Y-97815400D01*
X90093800Y-97815400D01*
X89941400Y-97967800D01*
X89636600Y-97967800D01*
X89484200Y-97815400D01*
X89032743Y-97815400D01*
X88808689Y-97908206D01*
X88637206Y-98079689D01*
X88544800Y-98302777D01*
X88544800Y-98161200D01*
X88498397Y-97927916D01*
X88366252Y-97730148D01*
X88070952Y-97434848D01*
X87873184Y-97302703D01*
X87639900Y-97256300D01*
X75410900Y-97256300D01*
X75177616Y-97302703D01*
X74979848Y-97434848D01*
X73380941Y-99033755D01*
X73375595Y-99006877D01*
X73144342Y-98660782D01*
X72837204Y-98455559D01*
X73281708Y-98209480D01*
X73617363Y-97787970D01*
X73766163Y-97270096D01*
X73614825Y-97053400D01*
X72542400Y-97053400D01*
X72542400Y-97073400D01*
X72237600Y-97073400D01*
X72237600Y-97053400D01*
X71165175Y-97053400D01*
X71013837Y-97270096D01*
X71162637Y-97787970D01*
X71498292Y-98209480D01*
X71942796Y-98455559D01*
X71635658Y-98660782D01*
X71404405Y-99006877D01*
X71323200Y-99415124D01*
X71323200Y-99974876D01*
X71404405Y-100383123D01*
X71635658Y-100729218D01*
X71942796Y-100934441D01*
X71498292Y-101180520D01*
X71162637Y-101602030D01*
X71013837Y-102119904D01*
X71165174Y-102336598D01*
X71018400Y-102336598D01*
X71018400Y-102341701D01*
X69438498Y-100761800D01*
X69875876Y-100761800D01*
X70284123Y-100680595D01*
X70630218Y-100449342D01*
X70861471Y-100103247D01*
X70942676Y-99695000D01*
X70861471Y-99286753D01*
X70630218Y-98940658D01*
X70284123Y-98709405D01*
X69875876Y-98628200D01*
X69316124Y-98628200D01*
X68907877Y-98709405D01*
X68561782Y-98940658D01*
X68330529Y-99286753D01*
X68269627Y-99592929D01*
X67542700Y-98866002D01*
X67542700Y-98380099D01*
X67586500Y-98336299D01*
X67795729Y-98023166D01*
X67869200Y-97653800D01*
X67869200Y-96531904D01*
X71013837Y-96531904D01*
X71165175Y-96748600D01*
X72237600Y-96748600D01*
X72237600Y-95437363D01*
X72542400Y-95437363D01*
X72542400Y-96748600D01*
X73614825Y-96748600D01*
X73766163Y-96531904D01*
X73617363Y-96014030D01*
X73281708Y-95592520D01*
X72810299Y-95331546D01*
X72753761Y-95324516D01*
X72542400Y-95437363D01*
X72237600Y-95437363D01*
X72026239Y-95324516D01*
X71969701Y-95331546D01*
X71498292Y-95592520D01*
X71162637Y-96014030D01*
X71013837Y-96531904D01*
X67869200Y-96531904D01*
X67869200Y-92379800D01*
X77368400Y-92379800D01*
X77368400Y-93466257D01*
X77461206Y-93690311D01*
X77632689Y-93861794D01*
X77856743Y-93954600D01*
X78435200Y-93954600D01*
X78587600Y-93802200D01*
X78587600Y-92227400D01*
X78892400Y-92227400D01*
X78892400Y-93802200D01*
X79044800Y-93954600D01*
X79623257Y-93954600D01*
X79847311Y-93861794D01*
X80018794Y-93690311D01*
X80111600Y-93466257D01*
X80111600Y-92379800D01*
X79959200Y-92227400D01*
X78892400Y-92227400D01*
X78587600Y-92227400D01*
X77520800Y-92227400D01*
X77368400Y-92379800D01*
X67869200Y-92379800D01*
X67869200Y-91826700D01*
X67795729Y-91457334D01*
X67743632Y-91379366D01*
X67586500Y-91144201D01*
X66382861Y-89940563D01*
X66770153Y-90017600D01*
X67849847Y-90017600D01*
X68277534Y-89932528D01*
X68640110Y-89690263D01*
X68882375Y-89327687D01*
X68967447Y-88900000D01*
X68882375Y-88472313D01*
X68640110Y-88109737D01*
X68277534Y-87867472D01*
X67849847Y-87782400D01*
X66770153Y-87782400D01*
X66342466Y-87867472D01*
X66141300Y-88001887D01*
X66141300Y-87570453D01*
X66649600Y-87731600D01*
X67157600Y-87731600D01*
X67157600Y-86512400D01*
X67462400Y-86512400D01*
X67462400Y-87731600D01*
X67970400Y-87731600D01*
X68483688Y-87568872D01*
X68895631Y-87222104D01*
X69140484Y-86723761D01*
X69027637Y-86512400D01*
X67462400Y-86512400D01*
X67157600Y-86512400D01*
X67137600Y-86512400D01*
X67137600Y-86207600D01*
X67157600Y-86207600D01*
X67157600Y-84988400D01*
X67462400Y-84988400D01*
X67462400Y-86207600D01*
X69027637Y-86207600D01*
X69140484Y-85996239D01*
X68895631Y-85497896D01*
X68483688Y-85151128D01*
X67970400Y-84988400D01*
X67462400Y-84988400D01*
X67157600Y-84988400D01*
X66649600Y-84988400D01*
X66141300Y-85149547D01*
X66141300Y-84785200D01*
X66241702Y-84785200D01*
X66342466Y-84852528D01*
X66770153Y-84937600D01*
X67849847Y-84937600D01*
X68277534Y-84852528D01*
X68640110Y-84610263D01*
X68882375Y-84247687D01*
X68967447Y-83820000D01*
X68882375Y-83392313D01*
X68640110Y-83029737D01*
X68277534Y-82787472D01*
X67849847Y-82702400D01*
X66770153Y-82702400D01*
X66342466Y-82787472D01*
X66241702Y-82854800D01*
X65176100Y-82854800D01*
X64806734Y-82928271D01*
X64493601Y-83137501D01*
X64284371Y-83450634D01*
X64210900Y-83820000D01*
X64210900Y-90098800D01*
X64260429Y-90347800D01*
X64284371Y-90468166D01*
X64493601Y-90781299D01*
X65938800Y-92226499D01*
X65938800Y-93432457D01*
X65864890Y-93321843D01*
X65271584Y-92925409D01*
X64571733Y-92786200D01*
X62428267Y-92786200D01*
X61728416Y-92925409D01*
X61135110Y-93321843D01*
X60738676Y-93915149D01*
X60599467Y-94615000D01*
X60738676Y-95314851D01*
X61135110Y-95908157D01*
X61728416Y-96304591D01*
X62428267Y-96443800D01*
X64571733Y-96443800D01*
X65271584Y-96304591D01*
X65864890Y-95908157D01*
X65938800Y-95797543D01*
X65938800Y-97254002D01*
X65895001Y-97297801D01*
X65685771Y-97610934D01*
X65612300Y-97980300D01*
X65612300Y-99265800D01*
X65647204Y-99441273D01*
X65685771Y-99635166D01*
X65895001Y-99948299D01*
X73551601Y-107604900D01*
X73864734Y-107814129D01*
X74234100Y-107887600D01*
X74792602Y-107887600D01*
X77081501Y-110176500D01*
X77284348Y-110312038D01*
X77057523Y-110311840D01*
X76291730Y-110628259D01*
X75705318Y-111213648D01*
X75550704Y-111586000D01*
X74360052Y-110395348D01*
X74162284Y-110263203D01*
X74004466Y-110231811D01*
X74676000Y-110231811D01*
X74794927Y-110208155D01*
X74895748Y-110140788D01*
X74963115Y-110039967D01*
X74986771Y-109921040D01*
X74986771Y-108331000D01*
X74963115Y-108212073D01*
X74895748Y-108111252D01*
X74794927Y-108043885D01*
X74676000Y-108020229D01*
X72009000Y-108020229D01*
X71890073Y-108043885D01*
X71789252Y-108111252D01*
X71721885Y-108212073D01*
X71698229Y-108331000D01*
X71698229Y-108516400D01*
X71604170Y-108516400D01*
X71573000Y-108510200D01*
X70799011Y-108510200D01*
X70773799Y-108484944D01*
X70498499Y-108370630D01*
X70200409Y-108370370D01*
X69924910Y-108484204D01*
X69713944Y-108694801D01*
X69599630Y-108970101D01*
X69599619Y-108982199D01*
X69368499Y-108886230D01*
X69070409Y-108885970D01*
X68794910Y-108999804D01*
X68583944Y-109210401D01*
X68469630Y-109485701D01*
X68469370Y-109783791D01*
X68583204Y-110059290D01*
X68793801Y-110270256D01*
X69069101Y-110384570D01*
X69105898Y-110384602D01*
X69978747Y-111257452D01*
X70176516Y-111389597D01*
X70409800Y-111436000D01*
X73676496Y-111436000D01*
X74258685Y-112018189D01*
X72009000Y-112018189D01*
X71890073Y-112041845D01*
X71789252Y-112109212D01*
X71721885Y-112210033D01*
X71698229Y-112328960D01*
X71698229Y-113919000D01*
X71721885Y-114037927D01*
X71789252Y-114138748D01*
X71890073Y-114206115D01*
X72009000Y-114229771D01*
X74676000Y-114229771D01*
X74794927Y-114206115D01*
X74895748Y-114138748D01*
X74963115Y-114037927D01*
X74971943Y-113993547D01*
X75886595Y-114908200D01*
X72383204Y-114908200D01*
X71546299Y-114071295D01*
X71546330Y-114035609D01*
X71432496Y-113760110D01*
X71221899Y-113549144D01*
X70946599Y-113434830D01*
X70648509Y-113434570D01*
X70373010Y-113548404D01*
X70162044Y-113759001D01*
X70047730Y-114034301D01*
X70047530Y-114264052D01*
X69593292Y-114515520D01*
X69257637Y-114937030D01*
X69215000Y-115085421D01*
X69172363Y-114937030D01*
X68836708Y-114515520D01*
X68365299Y-114254546D01*
X68308761Y-114247516D01*
X68097400Y-114360363D01*
X68097400Y-115671600D01*
X69169825Y-115671600D01*
X69215000Y-115606915D01*
X69260175Y-115671600D01*
X70332600Y-115671600D01*
X70332600Y-115651600D01*
X70637400Y-115651600D01*
X70637400Y-115671600D01*
X70657400Y-115671600D01*
X70657400Y-115976400D01*
X70637400Y-115976400D01*
X70637400Y-115996400D01*
X70332600Y-115996400D01*
X70332600Y-115976400D01*
X69260175Y-115976400D01*
X69215000Y-116041085D01*
X69169825Y-115976400D01*
X68097400Y-115976400D01*
X68097400Y-115996400D01*
X67792600Y-115996400D01*
X67792600Y-115976400D01*
X66720175Y-115976400D01*
X66568837Y-116193096D01*
X66717637Y-116710970D01*
X67053292Y-117132480D01*
X67289903Y-117263469D01*
X67190658Y-117329782D01*
X66959405Y-117675877D01*
X66954059Y-117702755D01*
X64706208Y-115454904D01*
X66568837Y-115454904D01*
X66720175Y-115671600D01*
X67792600Y-115671600D01*
X67792600Y-114360363D01*
X67581239Y-114247516D01*
X67524701Y-114254546D01*
X67053292Y-114515520D01*
X66717637Y-114937030D01*
X66568837Y-115454904D01*
X64706208Y-115454904D01*
X63779904Y-114528600D01*
X64782700Y-114528600D01*
X64935100Y-114376200D01*
X64935100Y-113276380D01*
X65239900Y-113276380D01*
X65239900Y-114376200D01*
X65392300Y-114528600D01*
X66542257Y-114528600D01*
X66766311Y-114435794D01*
X66937794Y-114264311D01*
X67030600Y-114040257D01*
X67030600Y-113428780D01*
X66878200Y-113276380D01*
X65239900Y-113276380D01*
X64935100Y-113276380D01*
X63296800Y-113276380D01*
X63144400Y-113428780D01*
X63144400Y-113893096D01*
X61459007Y-112207703D01*
X63144400Y-112207703D01*
X63144400Y-112819180D01*
X63296800Y-112971580D01*
X64935100Y-112971580D01*
X64935100Y-111871760D01*
X65239900Y-111871760D01*
X65239900Y-112971580D01*
X66878200Y-112971580D01*
X67030600Y-112819180D01*
X67030600Y-112207703D01*
X66937794Y-111983649D01*
X66766311Y-111812166D01*
X66542257Y-111719360D01*
X65392300Y-111719360D01*
X65239900Y-111871760D01*
X64935100Y-111871760D01*
X64782700Y-111719360D01*
X63632743Y-111719360D01*
X63408689Y-111812166D01*
X63237206Y-111983649D01*
X63144400Y-112207703D01*
X61459007Y-112207703D01*
X61004700Y-111753396D01*
X61004700Y-108331000D01*
X63443229Y-108331000D01*
X63443229Y-109921040D01*
X63466885Y-110039967D01*
X63534252Y-110140788D01*
X63635073Y-110208155D01*
X63754000Y-110231811D01*
X66421000Y-110231811D01*
X66539927Y-110208155D01*
X66640748Y-110140788D01*
X66708115Y-110039967D01*
X66731771Y-109921040D01*
X66731771Y-108331000D01*
X66708115Y-108212073D01*
X66640748Y-108111252D01*
X66539927Y-108043885D01*
X66421000Y-108020229D01*
X63754000Y-108020229D01*
X63635073Y-108043885D01*
X63534252Y-108111252D01*
X63466885Y-108212073D01*
X63443229Y-108331000D01*
X61004700Y-108331000D01*
X61004700Y-105872984D01*
X61135110Y-106068157D01*
X61728416Y-106464591D01*
X62428267Y-106603800D01*
X64571733Y-106603800D01*
X65271584Y-106464591D01*
X65864890Y-106068157D01*
X66261324Y-105474851D01*
X66400533Y-104775000D01*
X66261324Y-104075149D01*
X65864890Y-103481843D01*
X65271584Y-103085409D01*
X64571733Y-102946200D01*
X62428267Y-102946200D01*
X61728416Y-103085409D01*
X61135110Y-103481843D01*
X61004700Y-103677016D01*
X61004700Y-100996111D01*
X61029956Y-100970899D01*
X61144270Y-100695599D01*
X61144530Y-100397509D01*
X61030696Y-100122010D01*
X60820099Y-99911044D01*
X60544799Y-99796730D01*
X60246709Y-99796470D01*
X60109100Y-99853329D01*
X60109100Y-82327477D01*
X60146840Y-82327477D01*
X60463259Y-83093270D01*
X61048648Y-83679682D01*
X61813888Y-83997437D01*
X62642477Y-83998160D01*
X63408270Y-83681741D01*
X63994682Y-83096352D01*
X64312437Y-82331112D01*
X64313160Y-81502523D01*
X63996741Y-80736730D01*
X63411352Y-80150318D01*
X62646112Y-79832563D01*
X61817523Y-79831840D01*
X61051730Y-80148259D01*
X60465318Y-80733648D01*
X60147563Y-81498888D01*
X60146840Y-82327477D01*
X60109100Y-82327477D01*
X60109100Y-79794100D01*
X74466395Y-79794100D01*
X74275648Y-79984848D01*
G36*
X78892400Y-81762600D02*
X78912400Y-81762600D01*
X78912400Y-82067400D01*
X78892400Y-82067400D01*
X78892400Y-82087400D01*
X78587600Y-82087400D01*
X78587600Y-82067400D01*
X78567600Y-82067400D01*
X78567600Y-81762600D01*
X78587600Y-81762600D01*
X78587600Y-81742600D01*
X78892400Y-81742600D01*
X78892400Y-81762600D01*
X78892400Y-81762600D01*
G37*
X78892400Y-81762600D02*
X78912400Y-81762600D01*
X78912400Y-82067400D01*
X78892400Y-82067400D01*
X78892400Y-82087400D01*
X78587600Y-82087400D01*
X78587600Y-82067400D01*
X78567600Y-82067400D01*
X78567600Y-81762600D01*
X78587600Y-81762600D01*
X78587600Y-81742600D01*
X78892400Y-81742600D01*
X78892400Y-81762600D01*
M02*
