M48
;DRILL file {KiCad no-vcs-found-7584~57~ubuntu16.04.1} date Fri Feb  3 12:31:03 2017
;FORMAT={-:-/ absolute / inch / decimal}
FMAT,2
INCH,TZ
T1C0.025
T2C0.035
T3C0.039
T4C0.040
T5C0.043
T6C0.047
T7C0.063
T8C0.071
T9C0.090
T10C0.130
%
G90
G05
M72
T1
X2.7309Y-4.106
X2.8659Y-4.2924
X3.0552Y-4.0438
X3.1771Y-4.3063
X4.35Y-4.4717
X4.5214Y-4.2824
X4.5452Y-4.4242
X4.5876Y-3.6293
X4.6807Y-4.4685
X4.6844Y-3.523
X4.7222Y-3.7141
X4.7495Y-4.1322
X4.7497Y-4.0596
X4.9126Y-3.6589
X5.0449Y-3.6533
X5.1045Y-4.1777
X5.4604Y-4.0629
T2
X2.75Y-3.925
X2.85Y-3.825
X2.85Y-3.925
X2.85Y-4.025
T3
X2.65Y-4.35
X2.65Y-4.45
X2.65Y-4.55
T4
X3.1Y-3.625
X3.1Y-4.225
X3.2Y-3.625
X3.2Y-4.125
X3.2Y-4.225
X3.3Y-3.625
X3.3Y-4.225
X3.4Y-3.625
X3.4Y-4.125
X3.4Y-4.225
X3.5Y-3.625
X3.5Y-4.125
X3.5Y-4.225
X3.6Y-3.625
X3.6Y-4.125
X3.6Y-4.225
X3.7Y-3.625
X3.7Y-3.925
X3.7Y-4.025
X3.7Y-4.225
X3.8Y-3.625
X3.8Y-3.925
X3.8Y-4.025
X3.8Y-4.225
X3.9Y-3.625
X3.9Y-3.925
X3.9Y-4.025
X3.9Y-4.225
X4.Y-3.625
X4.Y-3.925
X4.Y-4.025
X4.Y-4.225
X4.1Y-3.625
X4.1Y-3.925
X4.1Y-4.025
X4.1Y-4.225
X4.2Y-3.625
X4.2Y-3.925
X4.2Y-4.025
X4.2Y-4.225
X4.3Y-3.625
X4.3Y-3.925
X4.3Y-4.025
X4.3Y-4.225
X4.4Y-3.625
X4.4Y-3.725
X4.4Y-3.825
X4.4Y-3.925
X4.4Y-4.025
X4.4Y-4.125
X4.4Y-4.225
T5
X3.Y-3.225
X3.Y-4.625
X3.1Y-3.225
X3.1Y-4.625
X3.2Y-3.225
X3.2Y-4.625
X3.3Y-3.225
X3.3Y-4.625
X3.4Y-3.225
X3.4Y-4.625
X3.5Y-3.225
X3.5Y-4.625
X3.6Y-3.225
X3.6Y-4.625
X3.7Y-3.225
X3.7Y-4.625
X3.8Y-3.225
X3.8Y-4.625
X3.9Y-3.225
X3.9Y-4.625
X4.Y-3.225
X4.Y-4.625
X4.1Y-3.225
X4.1Y-4.625
X4.2Y-3.225
X4.2Y-4.625
X4.3Y-3.225
X4.3Y-4.625
X4.4Y-3.225
X4.4Y-4.625
X4.5Y-3.225
X4.5Y-4.625
T6
X4.83Y-3.415
X4.83Y-4.435
X4.88Y-3.365
X4.88Y-4.485
X5.17Y-3.365
X5.17Y-4.485
X5.22Y-3.415
X5.22Y-4.435
X5.235Y-3.73
X5.235Y-4.12
T7
X5.5701Y-3.925
T8
X5.3929Y-3.925
T9
X2.5Y-3.725
X2.5Y-4.125
T10
X2.45Y-3.225
X2.45Y-4.625
X3.05Y-3.425
X3.05Y-4.425
X4.65Y-3.225
X4.65Y-3.925
X4.65Y-4.625
T0
M30
