G04 #@! TF.GenerationSoftware,KiCad,Pcbnew,no-vcs-found-df2ff50~58~ubuntu16.04.1*
G04 #@! TF.CreationDate,2017-05-23T13:41:26-04:00*
G04 #@! TF.ProjectId,modular_device_base_3x2,6D6F64756C61725F6465766963655F62,1.1*
G04 #@! TF.FileFunction,Soldermask,Bot*
G04 #@! TF.FilePolarity,Negative*
%FSLAX46Y46*%
G04 Gerber Fmt 4.6, Leading zero omitted, Abs format (unit mm)*
G04 Created by KiCad (PCBNEW no-vcs-found-df2ff50~58~ubuntu16.04.1) date Tue May 23 13:41:26 2017*
%MOMM*%
%LPD*%
G01*
G04 APERTURE LIST*
%ADD10C,0.100000*%
%ADD11C,0.228600*%
%ADD12O,2.432000X1.924000*%
%ADD13O,1.924000X2.432000*%
%ADD14R,3.110000X2.900000*%
%ADD15R,2.940000X1.670000*%
%ADD16O,2.940000X1.924000*%
%ADD17C,1.600200*%
%ADD18R,1.670000X2.940000*%
%ADD19C,3.956000*%
%ADD20O,2.254200X2.940000*%
%ADD21R,2.254200X2.940000*%
%ADD22R,1.924000X2.940000*%
%ADD23O,1.924000X2.940000*%
%ADD24O,5.480000X3.448000*%
%ADD25R,2.997200X5.029200*%
%ADD26R,2.178000X4.591000*%
%ADD27C,2.330400*%
%ADD28O,4.972000X3.956000*%
%ADD29O,4.464000X5.480000*%
%ADD30O,5.480000X3.956000*%
%ADD31R,5.160000X4.000000*%
%ADD32R,1.640000X1.800000*%
%ADD33R,1.534160X0.762000*%
G04 APERTURE END LIST*
D10*
D11*
X143510000Y-79375000D02*
X59690000Y-79375000D01*
X143510000Y-120015000D02*
X143510000Y-79375000D01*
X59690000Y-120015000D02*
X143510000Y-120015000D01*
X59690000Y-79375000D02*
X59690000Y-120015000D01*
D12*
X139319000Y-107950000D03*
X141859000Y-107950000D03*
D13*
X67945000Y-115824000D03*
X67945000Y-118364000D03*
D14*
X73060000Y-92710000D03*
X69180000Y-92710000D03*
D15*
X71755000Y-83566000D03*
X71755000Y-86614000D03*
X63500000Y-89789000D03*
X63500000Y-86741000D03*
D16*
X67310000Y-86360000D03*
X67310000Y-88900000D03*
X67310000Y-83820000D03*
D17*
X131318000Y-113919000D03*
X123952000Y-113919000D03*
D15*
X63500000Y-98171000D03*
X63500000Y-101219000D03*
D18*
X72009000Y-106045000D03*
X68961000Y-106045000D03*
D19*
X62230000Y-81915000D03*
X62230000Y-117475000D03*
X140970000Y-81915000D03*
D20*
X78740000Y-81915000D03*
X81280000Y-81915000D03*
D21*
X76200000Y-81915000D03*
D20*
X83820000Y-81915000D03*
X86360000Y-81915000D03*
X88900000Y-81915000D03*
X91440000Y-81915000D03*
X93980000Y-81915000D03*
X96520000Y-81915000D03*
X99060000Y-81915000D03*
X101600000Y-81915000D03*
X104140000Y-81915000D03*
X106680000Y-81915000D03*
X109220000Y-81915000D03*
X111760000Y-81915000D03*
X114300000Y-81915000D03*
X114300000Y-117475000D03*
X111760000Y-117475000D03*
X109220000Y-117475000D03*
X106680000Y-117475000D03*
X104140000Y-117475000D03*
X101600000Y-117475000D03*
X99060000Y-117475000D03*
X96520000Y-117475000D03*
X93980000Y-117475000D03*
X91440000Y-117475000D03*
X88900000Y-117475000D03*
X86360000Y-117475000D03*
X83820000Y-117475000D03*
X81280000Y-117475000D03*
X78740000Y-117475000D03*
X76200000Y-117475000D03*
D19*
X77470000Y-86995000D03*
X77470000Y-112395000D03*
X118110000Y-117475000D03*
X118110000Y-81915000D03*
D22*
X78740000Y-92075000D03*
D23*
X81280000Y-92075000D03*
X83820000Y-92075000D03*
X86360000Y-92075000D03*
X88900000Y-92075000D03*
X91440000Y-92075000D03*
X93980000Y-92075000D03*
X96520000Y-92075000D03*
X99060000Y-92075000D03*
X101600000Y-92075000D03*
X104140000Y-92075000D03*
X106680000Y-92075000D03*
X109220000Y-92075000D03*
X111760000Y-92075000D03*
X111760000Y-107315000D03*
X109220000Y-107315000D03*
X106680000Y-107315000D03*
X104140000Y-107315000D03*
X101600000Y-107315000D03*
X99060000Y-107315000D03*
X96520000Y-107315000D03*
X93980000Y-107315000D03*
X91440000Y-107315000D03*
X88900000Y-107315000D03*
X86360000Y-107315000D03*
X83820000Y-107315000D03*
X81280000Y-107315000D03*
X78740000Y-107315000D03*
D16*
X111760000Y-104775000D03*
X111760000Y-102235000D03*
X111760000Y-99695000D03*
X111760000Y-97155000D03*
X111760000Y-94615000D03*
D23*
X81280000Y-104267000D03*
X86360000Y-104267000D03*
X88900000Y-104267000D03*
X91440000Y-104267000D03*
X93980000Y-102743000D03*
X93980000Y-99187000D03*
X96520000Y-102743000D03*
X96520000Y-99187000D03*
X99060000Y-99187000D03*
X101600000Y-99187000D03*
X104140000Y-99187000D03*
X106680000Y-99187000D03*
X109220000Y-99187000D03*
X99060000Y-102743000D03*
X101600000Y-102743000D03*
X104140000Y-102743000D03*
X106680000Y-102743000D03*
X109220000Y-102743000D03*
D24*
X63500000Y-104775000D03*
X63500000Y-94615000D03*
D12*
X69596000Y-99695000D03*
D13*
X72390000Y-99695000D03*
X72390000Y-96901000D03*
X72390000Y-102489000D03*
D25*
X121640600Y-83185000D03*
X133629400Y-83185000D03*
D17*
X122682000Y-86741000D03*
X132588000Y-86741000D03*
D26*
X125095000Y-89916000D03*
X127635000Y-89916000D03*
X130175000Y-89916000D03*
D17*
X123952000Y-85471000D03*
X131318000Y-85471000D03*
D26*
X125095000Y-109474000D03*
X127635000Y-109474000D03*
X130175000Y-109474000D03*
D17*
X122682000Y-112649000D03*
X132588000Y-112649000D03*
D25*
X121640600Y-116205000D03*
X133629400Y-116205000D03*
D27*
X140512800Y-99695000D03*
D28*
X137007600Y-99695000D03*
D29*
X131521200Y-99695000D03*
D30*
X138506200Y-104190800D03*
X138506200Y-95199200D03*
D19*
X140970000Y-117475000D03*
D15*
X63500000Y-109601000D03*
X63500000Y-112649000D03*
D31*
X120400000Y-94615000D03*
D32*
X116600000Y-93550000D03*
X116600000Y-95680000D03*
D31*
X120400000Y-99695000D03*
D32*
X116600000Y-98630000D03*
X116600000Y-100760000D03*
D31*
X120400000Y-104775000D03*
D32*
X116600000Y-103710000D03*
X116600000Y-105840000D03*
D33*
X70413880Y-110175040D03*
X70413880Y-111125000D03*
X70413880Y-112074960D03*
X68016120Y-112074960D03*
X68016120Y-111125000D03*
X68016120Y-110175040D03*
D13*
X70485000Y-118364000D03*
X70485000Y-115824000D03*
D18*
X116586000Y-111760000D03*
X119634000Y-111760000D03*
M02*
