G04 #@! TF.GenerationSoftware,KiCad,Pcbnew,no-vcs-found-7584~57~ubuntu16.04.1*
G04 #@! TF.CreationDate,2017-02-08T11:01:07-05:00*
G04 #@! TF.ProjectId,modular_device_base_3x2,6D6F64756C61725F6465766963655F62,1.0*
G04 #@! TF.FileFunction,Copper,L1,Top,Signal*
G04 #@! TF.FilePolarity,Positive*
%FSLAX46Y46*%
G04 Gerber Fmt 4.6, Leading zero omitted, Abs format (unit mm)*
G04 Created by KiCad (PCBNEW no-vcs-found-7584~57~ubuntu16.04.1) date Wed Feb  8 11:01:07 2017*
%MOMM*%
%LPD*%
G01*
G04 APERTURE LIST*
%ADD10C,0.100000*%
%ADD11C,0.228600*%
%ADD12R,1.440000X1.600000*%
%ADD13R,4.960000X3.800000*%
%ADD14O,2.540000X1.524000*%
%ADD15R,1.590040X2.667000*%
%ADD16R,1.778000X4.191000*%
%ADD17C,1.397000*%
%ADD18R,2.794000X4.826000*%
%ADD19R,1.270000X2.540000*%
%ADD20R,2.710000X2.500000*%
%ADD21C,3.556000*%
%ADD22O,1.854200X2.540000*%
%ADD23R,1.854200X2.540000*%
%ADD24R,1.524000X2.540000*%
%ADD25O,1.524000X2.540000*%
%ADD26O,5.080000X3.048000*%
%ADD27O,2.032000X1.524000*%
%ADD28O,1.524000X2.032000*%
%ADD29C,1.930400*%
%ADD30O,4.572000X3.556000*%
%ADD31O,4.064000X5.080000*%
%ADD32O,5.080000X3.556000*%
%ADD33C,0.889000*%
%ADD34C,1.219200*%
%ADD35C,0.609600*%
%ADD36C,0.203200*%
G04 APERTURE END LIST*
D10*
D11*
X143510000Y-79375000D02*
X59690000Y-79375000D01*
X143510000Y-120015000D02*
X143510000Y-79375000D01*
X59690000Y-120015000D02*
X143510000Y-120015000D01*
X59690000Y-79375000D02*
X59690000Y-120015000D01*
D12*
X126605000Y-97585000D03*
X126605000Y-95455000D03*
D13*
X122805000Y-96520000D03*
D12*
X126605000Y-103935000D03*
X126605000Y-101805000D03*
D13*
X122805000Y-102870000D03*
D14*
X67310000Y-113030000D03*
X67310000Y-115570000D03*
X67310000Y-110490000D03*
D15*
X67851020Y-81597500D03*
X67851020Y-89852500D03*
X71848980Y-81597500D03*
X71848980Y-89852500D03*
D16*
X128905000Y-110744000D03*
X126365000Y-110744000D03*
D17*
X131318000Y-113919000D03*
X123952000Y-113919000D03*
D18*
X132359400Y-117475000D03*
X122910600Y-117475000D03*
D19*
X86741000Y-99695000D03*
X89789000Y-99695000D03*
D20*
X83220000Y-99695000D03*
X79340000Y-99695000D03*
D21*
X62230000Y-81915000D03*
X62230000Y-117475000D03*
X140970000Y-81915000D03*
D22*
X78740000Y-81915000D03*
X81280000Y-81915000D03*
D23*
X76200000Y-81915000D03*
D22*
X83820000Y-81915000D03*
X86360000Y-81915000D03*
X88900000Y-81915000D03*
X91440000Y-81915000D03*
X93980000Y-81915000D03*
X96520000Y-81915000D03*
X99060000Y-81915000D03*
X101600000Y-81915000D03*
X104140000Y-81915000D03*
X106680000Y-81915000D03*
X109220000Y-81915000D03*
X111760000Y-81915000D03*
X114300000Y-81915000D03*
X114300000Y-117475000D03*
X111760000Y-117475000D03*
X109220000Y-117475000D03*
X106680000Y-117475000D03*
X104140000Y-117475000D03*
X101600000Y-117475000D03*
X99060000Y-117475000D03*
X96520000Y-117475000D03*
X93980000Y-117475000D03*
X91440000Y-117475000D03*
X88900000Y-117475000D03*
X86360000Y-117475000D03*
X83820000Y-117475000D03*
X81280000Y-117475000D03*
X78740000Y-117475000D03*
X76200000Y-117475000D03*
D21*
X77470000Y-86995000D03*
X77470000Y-112395000D03*
X118110000Y-117475000D03*
X118110000Y-81915000D03*
D24*
X78740000Y-92075000D03*
D25*
X81280000Y-92075000D03*
X83820000Y-92075000D03*
X86360000Y-92075000D03*
X88900000Y-92075000D03*
X91440000Y-92075000D03*
X93980000Y-92075000D03*
X96520000Y-92075000D03*
X99060000Y-92075000D03*
X101600000Y-92075000D03*
X104140000Y-92075000D03*
X106680000Y-92075000D03*
X109220000Y-92075000D03*
X111760000Y-92075000D03*
X111760000Y-107315000D03*
X109220000Y-107315000D03*
X106680000Y-107315000D03*
X104140000Y-107315000D03*
X101600000Y-107315000D03*
X99060000Y-107315000D03*
X96520000Y-107315000D03*
X93980000Y-107315000D03*
X91440000Y-107315000D03*
X88900000Y-107315000D03*
X86360000Y-107315000D03*
X83820000Y-107315000D03*
X81280000Y-107315000D03*
X78740000Y-107315000D03*
D14*
X111760000Y-104775000D03*
X111760000Y-102235000D03*
X111760000Y-99695000D03*
X111760000Y-97155000D03*
X111760000Y-94615000D03*
D25*
X81280000Y-104267000D03*
X86360000Y-104267000D03*
X88900000Y-104267000D03*
X91440000Y-104267000D03*
X93980000Y-102743000D03*
X93980000Y-99187000D03*
X96520000Y-102743000D03*
X96520000Y-99187000D03*
X99060000Y-99187000D03*
X101600000Y-99187000D03*
X104140000Y-99187000D03*
X106680000Y-99187000D03*
X109220000Y-99187000D03*
X99060000Y-102743000D03*
X101600000Y-102743000D03*
X104140000Y-102743000D03*
X106680000Y-102743000D03*
X109220000Y-102743000D03*
D26*
X63500000Y-104775000D03*
X63500000Y-94615000D03*
D27*
X69596000Y-99695000D03*
D28*
X72390000Y-99695000D03*
X72390000Y-96901000D03*
X72390000Y-102489000D03*
D17*
X122682000Y-86741000D03*
X132588000Y-86741000D03*
D16*
X126365000Y-88646000D03*
X128905000Y-88646000D03*
D17*
X123952000Y-85471000D03*
X131318000Y-85471000D03*
D18*
X122910600Y-81915000D03*
X132359400Y-81915000D03*
D17*
X122682000Y-112649000D03*
X132588000Y-112649000D03*
D29*
X140512800Y-99695000D03*
D30*
X137007600Y-99695000D03*
D31*
X131521200Y-99695000D03*
D32*
X138506200Y-104190800D03*
X138506200Y-95199200D03*
D21*
X140970000Y-117475000D03*
D33*
X86362400Y-86567200D03*
X72580400Y-109071000D03*
X76575500Y-92086800D03*
D34*
X126605000Y-101805000D02*
X127397000Y-101805000D01*
X126930900Y-102271100D02*
X126605000Y-102271100D01*
X127397000Y-101805000D02*
X126930900Y-102271100D01*
X126605000Y-103935000D02*
X126605000Y-102271100D01*
X128625300Y-100576700D02*
X127397000Y-101805000D01*
X128625300Y-99695000D02*
X128625300Y-100576700D01*
X131521200Y-99695000D02*
X128625300Y-99695000D01*
X129426000Y-91605400D02*
X128905000Y-91605400D01*
X137515600Y-99695000D02*
X129426000Y-91605400D01*
X128905000Y-88646000D02*
X128905000Y-91605400D01*
X129426000Y-107784600D02*
X128905000Y-107784600D01*
X137515600Y-99695000D02*
X129426000Y-107784600D01*
X128905000Y-110744000D02*
X128905000Y-107784600D01*
X78740000Y-81915000D02*
X78740000Y-84048900D01*
X71849000Y-89852500D02*
X71849000Y-92049900D01*
X78740000Y-92075000D02*
X78740000Y-94208900D01*
X89789000Y-99695000D02*
X89789000Y-97561100D01*
X82092200Y-97561100D02*
X89789000Y-97561100D01*
X78740000Y-94208900D02*
X82092200Y-97561100D01*
X72390000Y-97155000D02*
X72390000Y-95021100D01*
X73605100Y-93806000D02*
X72390000Y-95021100D01*
X71849000Y-92049900D02*
X73605100Y-93806000D01*
X74008000Y-94208900D02*
X78740000Y-94208900D01*
X73605100Y-93806000D02*
X74008000Y-94208900D01*
X74015900Y-102235000D02*
X74015900Y-97155000D01*
X72390000Y-102235000D02*
X74015900Y-102235000D01*
X72390000Y-97155000D02*
X74015900Y-97155000D01*
X78740000Y-92075000D02*
X78740000Y-89941100D01*
X81258300Y-87422800D02*
X78740000Y-89941100D01*
X81258300Y-86567200D02*
X81258300Y-87422800D01*
X86362400Y-86567200D02*
X81258300Y-86567200D01*
X81258300Y-86567200D02*
X78740000Y-84048900D01*
X126605000Y-95455000D02*
X126605000Y-97585000D01*
X126365000Y-93551100D02*
X126605000Y-93791100D01*
X126365000Y-88646000D02*
X126365000Y-93551100D01*
X126605000Y-95455000D02*
X126605000Y-93791100D01*
X81604200Y-101808900D02*
X83220000Y-101808900D01*
X81280000Y-102133100D02*
X81604200Y-101808900D01*
X81280000Y-104775000D02*
X81280000Y-102133100D01*
X83220000Y-99695000D02*
X83220000Y-101808900D01*
X122805000Y-102870000D02*
X122805000Y-96520000D01*
X124214300Y-105633900D02*
X122805000Y-105633900D01*
X126365000Y-107784600D02*
X124214300Y-105633900D01*
X126365000Y-110744000D02*
X126365000Y-107784600D01*
X122805000Y-102870000D02*
X122805000Y-105633900D01*
X113399900Y-115039000D02*
X122805000Y-105633900D01*
X73992900Y-115039000D02*
X113399900Y-115039000D01*
X69443900Y-110490000D02*
X73992900Y-115039000D01*
X67310000Y-110490000D02*
X69443900Y-110490000D01*
X79340000Y-99695000D02*
X79340000Y-101808900D01*
X78740000Y-102408900D02*
X79340000Y-101808900D01*
X78740000Y-105181100D02*
X78740000Y-102408900D01*
X78740000Y-107315000D02*
X78740000Y-105237300D01*
X78740000Y-105237300D02*
X78740000Y-105181100D01*
X76414100Y-105237300D02*
X72580400Y-109071000D01*
X78740000Y-105237300D02*
X76414100Y-105237300D01*
D35*
X68310300Y-83360800D02*
X67851000Y-83360800D01*
X76575500Y-91626000D02*
X68310300Y-83360800D01*
X76575500Y-92086800D02*
X76575500Y-91626000D01*
X67851000Y-81597500D02*
X67851000Y-83360800D01*
X86360000Y-92075000D02*
X86360000Y-90375200D01*
X86360000Y-81915000D02*
X86360000Y-83614800D01*
X88242600Y-85497400D02*
X86360000Y-83614800D01*
X88242600Y-88492600D02*
X88242600Y-85497400D01*
X86360000Y-90375200D02*
X88242600Y-88492600D01*
X88954100Y-83668900D02*
X88900000Y-83614800D01*
X88954100Y-90321100D02*
X88954100Y-83668900D01*
X88900000Y-90375200D02*
X88954100Y-90321100D01*
X88900000Y-92075000D02*
X88900000Y-90375200D01*
X88900000Y-81915000D02*
X88900000Y-83614800D01*
X91440000Y-92075000D02*
X91440000Y-81915000D01*
X93980000Y-92075000D02*
X93980000Y-81915000D01*
X96520000Y-92075000D02*
X96520000Y-81915000D01*
X104140000Y-92075000D02*
X104140000Y-81915000D01*
X106680000Y-90375200D02*
X106680000Y-83614800D01*
X106680000Y-92075000D02*
X106680000Y-90375200D01*
X106680000Y-81915000D02*
X106680000Y-83614800D01*
X109220000Y-81915000D02*
X109220000Y-83614800D01*
X109220000Y-92075000D02*
X109220000Y-90375200D01*
X109220000Y-90375200D02*
X109220000Y-83614800D01*
X111760000Y-92075000D02*
X111760000Y-81915000D01*
D34*
X85976400Y-101828900D02*
X86741000Y-101828900D01*
X83820000Y-103985300D02*
X85976400Y-101828900D01*
X83820000Y-107315000D02*
X83820000Y-103985300D01*
X86741000Y-99695000D02*
X86741000Y-101828900D01*
D35*
X83409400Y-84044400D02*
X81280000Y-81915000D01*
X85492500Y-84044400D02*
X83409400Y-84044400D01*
X87531100Y-86083000D02*
X85492500Y-84044400D01*
X87531100Y-87051400D02*
X87531100Y-86083000D01*
X85143600Y-89438900D02*
X87531100Y-87051400D01*
X85143600Y-93054200D02*
X85143600Y-89438900D01*
X86551100Y-94461700D02*
X85143600Y-93054200D01*
X96034500Y-94461700D02*
X86551100Y-94461700D01*
X99060000Y-97487200D02*
X96034500Y-94461700D01*
X99060000Y-99695000D02*
X99060000Y-97487200D01*
X100266100Y-83121100D02*
X99060000Y-81915000D01*
X100266100Y-92990200D02*
X100266100Y-83121100D01*
X105410000Y-98134100D02*
X100266100Y-92990200D01*
X105410000Y-100220100D02*
X105410000Y-98134100D01*
X106233100Y-101043200D02*
X105410000Y-100220100D01*
X106680000Y-101043200D02*
X106233100Y-101043200D01*
X106680000Y-102235000D02*
X106680000Y-101043200D01*
X101600000Y-88872100D02*
X101600000Y-81915000D01*
X102870000Y-90142100D02*
X101600000Y-88872100D01*
X102870000Y-93075100D02*
X102870000Y-90142100D01*
X108028200Y-98233300D02*
X102870000Y-93075100D01*
X108028200Y-100223900D02*
X108028200Y-98233300D01*
X108847500Y-101043200D02*
X108028200Y-100223900D01*
X109220000Y-101043200D02*
X108847500Y-101043200D01*
X109220000Y-102235000D02*
X109220000Y-101043200D01*
X114300000Y-94453300D02*
X114300000Y-81915000D01*
X112868300Y-95885000D02*
X114300000Y-94453300D01*
X110699400Y-95885000D02*
X112868300Y-95885000D01*
X109220000Y-97364400D02*
X110699400Y-95885000D01*
X109220000Y-99695000D02*
X109220000Y-97364400D01*
X99060000Y-102235000D02*
X99060000Y-104442800D01*
X97170000Y-104442800D02*
X99060000Y-104442800D01*
X95247200Y-106365600D02*
X97170000Y-104442800D01*
X95247200Y-108215000D02*
X95247200Y-106365600D01*
X93607100Y-109855100D02*
X95247200Y-108215000D01*
X74789200Y-109855100D02*
X93607100Y-109855100D01*
X74372400Y-110271900D02*
X74789200Y-109855100D01*
X72128500Y-110271900D02*
X74372400Y-110271900D01*
X69850000Y-107993400D02*
X72128500Y-110271900D01*
X69850000Y-99695000D02*
X69850000Y-107993400D01*
D36*
G36*
X121202829Y-84328000D02*
X121226485Y-84446927D01*
X121293852Y-84547748D01*
X121394673Y-84615115D01*
X121513600Y-84638771D01*
X123365563Y-84638771D01*
X123101939Y-84901934D01*
X122948874Y-85270556D01*
X122948526Y-85669693D01*
X122996219Y-85785117D01*
X122882444Y-85737874D01*
X122483307Y-85737526D01*
X122114419Y-85889948D01*
X121831939Y-86171934D01*
X121678874Y-86540556D01*
X121678526Y-86939693D01*
X121830948Y-87308581D01*
X122112934Y-87591061D01*
X122481556Y-87744126D01*
X122880693Y-87744474D01*
X123249581Y-87592052D01*
X123532061Y-87310066D01*
X123685126Y-86941444D01*
X123685474Y-86542307D01*
X123637781Y-86426883D01*
X123751556Y-86474126D01*
X124150693Y-86474474D01*
X124519581Y-86322052D01*
X124802061Y-86040066D01*
X124955126Y-85671444D01*
X124955474Y-85272307D01*
X124803052Y-84903419D01*
X124521066Y-84620939D01*
X124457385Y-84594496D01*
X124527348Y-84547748D01*
X124594715Y-84446927D01*
X124618371Y-84328000D01*
X124618371Y-79794100D01*
X130651629Y-79794100D01*
X130651629Y-84328000D01*
X130675285Y-84446927D01*
X130742652Y-84547748D01*
X130812386Y-84594343D01*
X130750419Y-84619948D01*
X130467939Y-84901934D01*
X130314874Y-85270556D01*
X130314526Y-85669693D01*
X130466948Y-86038581D01*
X130748934Y-86321061D01*
X131117556Y-86474126D01*
X131516693Y-86474474D01*
X131632117Y-86426781D01*
X131584874Y-86540556D01*
X131584526Y-86939693D01*
X131736948Y-87308581D01*
X132018934Y-87591061D01*
X132387556Y-87744126D01*
X132786693Y-87744474D01*
X133155581Y-87592052D01*
X133438061Y-87310066D01*
X133591126Y-86941444D01*
X133591474Y-86542307D01*
X133439052Y-86173419D01*
X133157066Y-85890939D01*
X132788444Y-85737874D01*
X132389307Y-85737526D01*
X132273883Y-85785219D01*
X132321126Y-85671444D01*
X132321474Y-85272307D01*
X132169052Y-84903419D01*
X131904867Y-84638771D01*
X133756400Y-84638771D01*
X133875327Y-84615115D01*
X133976148Y-84547748D01*
X134043515Y-84446927D01*
X134067171Y-84328000D01*
X134067171Y-82327477D01*
X138886840Y-82327477D01*
X139203259Y-83093270D01*
X139788648Y-83679682D01*
X140553888Y-83997437D01*
X141382477Y-83998160D01*
X142148270Y-83681741D01*
X142734682Y-83096352D01*
X143052437Y-82331112D01*
X143053160Y-81502523D01*
X142736741Y-80736730D01*
X142151352Y-80150318D01*
X141386112Y-79832563D01*
X140557523Y-79831840D01*
X139791730Y-80148259D01*
X139205318Y-80733648D01*
X138887563Y-81498888D01*
X138886840Y-82327477D01*
X134067171Y-82327477D01*
X134067171Y-79794100D01*
X143090900Y-79794100D01*
X143090900Y-119595900D01*
X134067171Y-119595900D01*
X134067171Y-117887477D01*
X138886840Y-117887477D01*
X139203259Y-118653270D01*
X139788648Y-119239682D01*
X140553888Y-119557437D01*
X141382477Y-119558160D01*
X142148270Y-119241741D01*
X142734682Y-118656352D01*
X143052437Y-117891112D01*
X143053160Y-117062523D01*
X142736741Y-116296730D01*
X142151352Y-115710318D01*
X141386112Y-115392563D01*
X140557523Y-115391840D01*
X139791730Y-115708259D01*
X139205318Y-116293648D01*
X138887563Y-117058888D01*
X138886840Y-117887477D01*
X134067171Y-117887477D01*
X134067171Y-115062000D01*
X134043515Y-114943073D01*
X133976148Y-114842252D01*
X133875327Y-114774885D01*
X133756400Y-114751229D01*
X131904437Y-114751229D01*
X132168061Y-114488066D01*
X132321126Y-114119444D01*
X132321474Y-113720307D01*
X132273781Y-113604883D01*
X132387556Y-113652126D01*
X132786693Y-113652474D01*
X133155581Y-113500052D01*
X133438061Y-113218066D01*
X133591126Y-112849444D01*
X133591474Y-112450307D01*
X133439052Y-112081419D01*
X133157066Y-111798939D01*
X132788444Y-111645874D01*
X132389307Y-111645526D01*
X132020419Y-111797948D01*
X131737939Y-112079934D01*
X131584874Y-112448556D01*
X131584526Y-112847693D01*
X131632219Y-112963117D01*
X131518444Y-112915874D01*
X131119307Y-112915526D01*
X130750419Y-113067948D01*
X130467939Y-113349934D01*
X130314874Y-113718556D01*
X130314526Y-114117693D01*
X130466948Y-114486581D01*
X130748934Y-114769061D01*
X130812615Y-114795504D01*
X130742652Y-114842252D01*
X130675285Y-114943073D01*
X130651629Y-115062000D01*
X130651629Y-119595900D01*
X124618371Y-119595900D01*
X124618371Y-115062000D01*
X124594715Y-114943073D01*
X124527348Y-114842252D01*
X124457614Y-114795657D01*
X124519581Y-114770052D01*
X124802061Y-114488066D01*
X124955126Y-114119444D01*
X124955474Y-113720307D01*
X124803052Y-113351419D01*
X124521066Y-113068939D01*
X124152444Y-112915874D01*
X123753307Y-112915526D01*
X123637883Y-112963219D01*
X123685126Y-112849444D01*
X123685474Y-112450307D01*
X123533052Y-112081419D01*
X123251066Y-111798939D01*
X122882444Y-111645874D01*
X122483307Y-111645526D01*
X122114419Y-111797948D01*
X121831939Y-112079934D01*
X121678874Y-112448556D01*
X121678526Y-112847693D01*
X121830948Y-113216581D01*
X122112934Y-113499061D01*
X122481556Y-113652126D01*
X122880693Y-113652474D01*
X122996117Y-113604781D01*
X122948874Y-113718556D01*
X122948526Y-114117693D01*
X123100948Y-114486581D01*
X123365133Y-114751229D01*
X121513600Y-114751229D01*
X121394673Y-114774885D01*
X121293852Y-114842252D01*
X121226485Y-114943073D01*
X121202829Y-115062000D01*
X121202829Y-119595900D01*
X60109100Y-119595900D01*
X60109100Y-117887477D01*
X60146840Y-117887477D01*
X60463259Y-118653270D01*
X61048648Y-119239682D01*
X61813888Y-119557437D01*
X62642477Y-119558160D01*
X63408270Y-119241741D01*
X63994682Y-118656352D01*
X64312437Y-117891112D01*
X64313127Y-117100253D01*
X74917300Y-117100253D01*
X74917300Y-117849747D01*
X75014940Y-118340615D01*
X75292994Y-118756753D01*
X75709132Y-119034807D01*
X76200000Y-119132447D01*
X76690868Y-119034807D01*
X77107006Y-118756753D01*
X77385060Y-118340615D01*
X77470000Y-117913594D01*
X77554940Y-118340615D01*
X77832994Y-118756753D01*
X78249132Y-119034807D01*
X78740000Y-119132447D01*
X79230868Y-119034807D01*
X79647006Y-118756753D01*
X79925060Y-118340615D01*
X80010000Y-117913594D01*
X80094940Y-118340615D01*
X80372994Y-118756753D01*
X80789132Y-119034807D01*
X81280000Y-119132447D01*
X81770868Y-119034807D01*
X82187006Y-118756753D01*
X82465060Y-118340615D01*
X82550000Y-117913594D01*
X82634940Y-118340615D01*
X82912994Y-118756753D01*
X83329132Y-119034807D01*
X83820000Y-119132447D01*
X84310868Y-119034807D01*
X84727006Y-118756753D01*
X85005060Y-118340615D01*
X85102700Y-117849747D01*
X85102700Y-117101248D01*
X85128100Y-117101248D01*
X85128100Y-117848752D01*
X85221873Y-118320180D01*
X85488915Y-118719837D01*
X85888572Y-118986879D01*
X86360000Y-119080652D01*
X86831428Y-118986879D01*
X87231085Y-118719837D01*
X87498127Y-118320180D01*
X87591900Y-117848752D01*
X87591900Y-117101248D01*
X87668100Y-117101248D01*
X87668100Y-117848752D01*
X87761873Y-118320180D01*
X88028915Y-118719837D01*
X88428572Y-118986879D01*
X88900000Y-119080652D01*
X89371428Y-118986879D01*
X89771085Y-118719837D01*
X90038127Y-118320180D01*
X90131900Y-117848752D01*
X90131900Y-117101248D01*
X90208100Y-117101248D01*
X90208100Y-117848752D01*
X90301873Y-118320180D01*
X90568915Y-118719837D01*
X90968572Y-118986879D01*
X91440000Y-119080652D01*
X91911428Y-118986879D01*
X92311085Y-118719837D01*
X92578127Y-118320180D01*
X92671900Y-117848752D01*
X92671900Y-117101248D01*
X92748100Y-117101248D01*
X92748100Y-117848752D01*
X92841873Y-118320180D01*
X93108915Y-118719837D01*
X93508572Y-118986879D01*
X93980000Y-119080652D01*
X94451428Y-118986879D01*
X94851085Y-118719837D01*
X95118127Y-118320180D01*
X95211900Y-117848752D01*
X95211900Y-117101248D01*
X95288100Y-117101248D01*
X95288100Y-117848752D01*
X95381873Y-118320180D01*
X95648915Y-118719837D01*
X96048572Y-118986879D01*
X96520000Y-119080652D01*
X96991428Y-118986879D01*
X97391085Y-118719837D01*
X97658127Y-118320180D01*
X97751900Y-117848752D01*
X97751900Y-117101248D01*
X97828100Y-117101248D01*
X97828100Y-117848752D01*
X97921873Y-118320180D01*
X98188915Y-118719837D01*
X98588572Y-118986879D01*
X99060000Y-119080652D01*
X99531428Y-118986879D01*
X99931085Y-118719837D01*
X100198127Y-118320180D01*
X100291900Y-117848752D01*
X100291900Y-117101248D01*
X100368100Y-117101248D01*
X100368100Y-117848752D01*
X100461873Y-118320180D01*
X100728915Y-118719837D01*
X101128572Y-118986879D01*
X101600000Y-119080652D01*
X102071428Y-118986879D01*
X102471085Y-118719837D01*
X102738127Y-118320180D01*
X102831900Y-117848752D01*
X102831900Y-117101248D01*
X102908100Y-117101248D01*
X102908100Y-117848752D01*
X103001873Y-118320180D01*
X103268915Y-118719837D01*
X103668572Y-118986879D01*
X104140000Y-119080652D01*
X104611428Y-118986879D01*
X105011085Y-118719837D01*
X105278127Y-118320180D01*
X105371900Y-117848752D01*
X105371900Y-117101248D01*
X105448100Y-117101248D01*
X105448100Y-117848752D01*
X105541873Y-118320180D01*
X105808915Y-118719837D01*
X106208572Y-118986879D01*
X106680000Y-119080652D01*
X107151428Y-118986879D01*
X107551085Y-118719837D01*
X107818127Y-118320180D01*
X107911900Y-117848752D01*
X107911900Y-117101248D01*
X107988100Y-117101248D01*
X107988100Y-117848752D01*
X108081873Y-118320180D01*
X108348915Y-118719837D01*
X108748572Y-118986879D01*
X109220000Y-119080652D01*
X109691428Y-118986879D01*
X110091085Y-118719837D01*
X110358127Y-118320180D01*
X110451900Y-117848752D01*
X110451900Y-117101248D01*
X110528100Y-117101248D01*
X110528100Y-117848752D01*
X110621873Y-118320180D01*
X110888915Y-118719837D01*
X111288572Y-118986879D01*
X111760000Y-119080652D01*
X112231428Y-118986879D01*
X112631085Y-118719837D01*
X112898127Y-118320180D01*
X112991900Y-117848752D01*
X112991900Y-117101248D01*
X113068100Y-117101248D01*
X113068100Y-117848752D01*
X113161873Y-118320180D01*
X113428915Y-118719837D01*
X113828572Y-118986879D01*
X114300000Y-119080652D01*
X114771428Y-118986879D01*
X115171085Y-118719837D01*
X115438127Y-118320180D01*
X115524197Y-117887477D01*
X116026840Y-117887477D01*
X116343259Y-118653270D01*
X116928648Y-119239682D01*
X117693888Y-119557437D01*
X118522477Y-119558160D01*
X119288270Y-119241741D01*
X119874682Y-118656352D01*
X120192437Y-117891112D01*
X120193160Y-117062523D01*
X119876741Y-116296730D01*
X119291352Y-115710318D01*
X118526112Y-115392563D01*
X117697523Y-115391840D01*
X116931730Y-115708259D01*
X116345318Y-116293648D01*
X116027563Y-117058888D01*
X116026840Y-117887477D01*
X115524197Y-117887477D01*
X115531900Y-117848752D01*
X115531900Y-117101248D01*
X115438127Y-116629820D01*
X115171085Y-116230163D01*
X114771428Y-115963121D01*
X114300000Y-115869348D01*
X113828572Y-115963121D01*
X113428915Y-116230163D01*
X113161873Y-116629820D01*
X113068100Y-117101248D01*
X112991900Y-117101248D01*
X112898127Y-116629820D01*
X112631085Y-116230163D01*
X112231428Y-115963121D01*
X111760000Y-115869348D01*
X111288572Y-115963121D01*
X110888915Y-116230163D01*
X110621873Y-116629820D01*
X110528100Y-117101248D01*
X110451900Y-117101248D01*
X110358127Y-116629820D01*
X110091085Y-116230163D01*
X109691428Y-115963121D01*
X109220000Y-115869348D01*
X108748572Y-115963121D01*
X108348915Y-116230163D01*
X108081873Y-116629820D01*
X107988100Y-117101248D01*
X107911900Y-117101248D01*
X107818127Y-116629820D01*
X107551085Y-116230163D01*
X107151428Y-115963121D01*
X106680000Y-115869348D01*
X106208572Y-115963121D01*
X105808915Y-116230163D01*
X105541873Y-116629820D01*
X105448100Y-117101248D01*
X105371900Y-117101248D01*
X105278127Y-116629820D01*
X105011085Y-116230163D01*
X104611428Y-115963121D01*
X104140000Y-115869348D01*
X103668572Y-115963121D01*
X103268915Y-116230163D01*
X103001873Y-116629820D01*
X102908100Y-117101248D01*
X102831900Y-117101248D01*
X102738127Y-116629820D01*
X102471085Y-116230163D01*
X102071428Y-115963121D01*
X101600000Y-115869348D01*
X101128572Y-115963121D01*
X100728915Y-116230163D01*
X100461873Y-116629820D01*
X100368100Y-117101248D01*
X100291900Y-117101248D01*
X100198127Y-116629820D01*
X99931085Y-116230163D01*
X99531428Y-115963121D01*
X99060000Y-115869348D01*
X98588572Y-115963121D01*
X98188915Y-116230163D01*
X97921873Y-116629820D01*
X97828100Y-117101248D01*
X97751900Y-117101248D01*
X97658127Y-116629820D01*
X97391085Y-116230163D01*
X96991428Y-115963121D01*
X96520000Y-115869348D01*
X96048572Y-115963121D01*
X95648915Y-116230163D01*
X95381873Y-116629820D01*
X95288100Y-117101248D01*
X95211900Y-117101248D01*
X95118127Y-116629820D01*
X94851085Y-116230163D01*
X94451428Y-115963121D01*
X93980000Y-115869348D01*
X93508572Y-115963121D01*
X93108915Y-116230163D01*
X92841873Y-116629820D01*
X92748100Y-117101248D01*
X92671900Y-117101248D01*
X92578127Y-116629820D01*
X92311085Y-116230163D01*
X91911428Y-115963121D01*
X91440000Y-115869348D01*
X90968572Y-115963121D01*
X90568915Y-116230163D01*
X90301873Y-116629820D01*
X90208100Y-117101248D01*
X90131900Y-117101248D01*
X90038127Y-116629820D01*
X89771085Y-116230163D01*
X89371428Y-115963121D01*
X88900000Y-115869348D01*
X88428572Y-115963121D01*
X88028915Y-116230163D01*
X87761873Y-116629820D01*
X87668100Y-117101248D01*
X87591900Y-117101248D01*
X87498127Y-116629820D01*
X87231085Y-116230163D01*
X86831428Y-115963121D01*
X86360000Y-115869348D01*
X85888572Y-115963121D01*
X85488915Y-116230163D01*
X85221873Y-116629820D01*
X85128100Y-117101248D01*
X85102700Y-117101248D01*
X85102700Y-117100253D01*
X85005060Y-116609385D01*
X84727006Y-116193247D01*
X84310868Y-115915193D01*
X83820000Y-115817553D01*
X83329132Y-115915193D01*
X82912994Y-116193247D01*
X82634940Y-116609385D01*
X82550000Y-117036406D01*
X82465060Y-116609385D01*
X82187006Y-116193247D01*
X81770868Y-115915193D01*
X81280000Y-115817553D01*
X80789132Y-115915193D01*
X80372994Y-116193247D01*
X80094940Y-116609385D01*
X80010000Y-117036406D01*
X79925060Y-116609385D01*
X79647006Y-116193247D01*
X79230868Y-115915193D01*
X78740000Y-115817553D01*
X78249132Y-115915193D01*
X77832994Y-116193247D01*
X77554940Y-116609385D01*
X77470000Y-117036406D01*
X77385060Y-116609385D01*
X77107006Y-116193247D01*
X76690868Y-115915193D01*
X76200000Y-115817553D01*
X75709132Y-115915193D01*
X75292994Y-116193247D01*
X75014940Y-116609385D01*
X74917300Y-117100253D01*
X64313127Y-117100253D01*
X64313160Y-117062523D01*
X63996741Y-116296730D01*
X63411352Y-115710318D01*
X63073429Y-115570000D01*
X65652553Y-115570000D01*
X65737625Y-115997687D01*
X65979890Y-116360263D01*
X66342466Y-116602528D01*
X66770153Y-116687600D01*
X67849847Y-116687600D01*
X68277534Y-116602528D01*
X68640110Y-116360263D01*
X68882375Y-115997687D01*
X68967447Y-115570000D01*
X68882375Y-115142313D01*
X68640110Y-114779737D01*
X68277534Y-114537472D01*
X67849847Y-114452400D01*
X66770153Y-114452400D01*
X66342466Y-114537472D01*
X65979890Y-114779737D01*
X65737625Y-115142313D01*
X65652553Y-115570000D01*
X63073429Y-115570000D01*
X62646112Y-115392563D01*
X61817523Y-115391840D01*
X61051730Y-115708259D01*
X60465318Y-116293648D01*
X60147563Y-117058888D01*
X60146840Y-117887477D01*
X60109100Y-117887477D01*
X60109100Y-113030000D01*
X65652553Y-113030000D01*
X65737625Y-113457687D01*
X65979890Y-113820263D01*
X66342466Y-114062528D01*
X66770153Y-114147600D01*
X67849847Y-114147600D01*
X68277534Y-114062528D01*
X68640110Y-113820263D01*
X68882375Y-113457687D01*
X68967447Y-113030000D01*
X68882375Y-112602313D01*
X68640110Y-112239737D01*
X68277534Y-111997472D01*
X67849847Y-111912400D01*
X66770153Y-111912400D01*
X66342466Y-111997472D01*
X65979890Y-112239737D01*
X65737625Y-112602313D01*
X65652553Y-113030000D01*
X60109100Y-113030000D01*
X60109100Y-110853761D01*
X65479516Y-110853761D01*
X65724369Y-111352104D01*
X66136312Y-111698872D01*
X66649600Y-111861600D01*
X67157600Y-111861600D01*
X67157600Y-110642400D01*
X67462400Y-110642400D01*
X67462400Y-111861600D01*
X67970400Y-111861600D01*
X68483688Y-111698872D01*
X68895631Y-111352104D01*
X69140484Y-110853761D01*
X69027637Y-110642400D01*
X67462400Y-110642400D01*
X67157600Y-110642400D01*
X65592363Y-110642400D01*
X65479516Y-110853761D01*
X60109100Y-110853761D01*
X60109100Y-110126239D01*
X65479516Y-110126239D01*
X65592363Y-110337600D01*
X67157600Y-110337600D01*
X67157600Y-109118400D01*
X67462400Y-109118400D01*
X67462400Y-110337600D01*
X69027637Y-110337600D01*
X69140484Y-110126239D01*
X68895631Y-109627896D01*
X68483688Y-109281128D01*
X67970400Y-109118400D01*
X67462400Y-109118400D01*
X67157600Y-109118400D01*
X66649600Y-109118400D01*
X66136312Y-109281128D01*
X65724369Y-109627896D01*
X65479516Y-110126239D01*
X60109100Y-110126239D01*
X60109100Y-104775000D01*
X60599467Y-104775000D01*
X60738676Y-105474851D01*
X61135110Y-106068157D01*
X61728416Y-106464591D01*
X62428267Y-106603800D01*
X64571733Y-106603800D01*
X65271584Y-106464591D01*
X65864890Y-106068157D01*
X66261324Y-105474851D01*
X66400533Y-104775000D01*
X66261324Y-104075149D01*
X65864890Y-103481843D01*
X65271584Y-103085409D01*
X64571733Y-102946200D01*
X62428267Y-102946200D01*
X61728416Y-103085409D01*
X61135110Y-103481843D01*
X60738676Y-104075149D01*
X60599467Y-104775000D01*
X60109100Y-104775000D01*
X60109100Y-94615000D01*
X60599467Y-94615000D01*
X60738676Y-95314851D01*
X61135110Y-95908157D01*
X61728416Y-96304591D01*
X62428267Y-96443800D01*
X64571733Y-96443800D01*
X65271584Y-96304591D01*
X65864890Y-95908157D01*
X66261324Y-95314851D01*
X66400533Y-94615000D01*
X66261324Y-93915149D01*
X65864890Y-93321843D01*
X65271584Y-92925409D01*
X64571733Y-92786200D01*
X62428267Y-92786200D01*
X61728416Y-92925409D01*
X61135110Y-93321843D01*
X60738676Y-93915149D01*
X60599467Y-94615000D01*
X60109100Y-94615000D01*
X60109100Y-88519000D01*
X66745229Y-88519000D01*
X66745229Y-91186000D01*
X66768885Y-91304927D01*
X66836252Y-91405748D01*
X66937073Y-91473115D01*
X67056000Y-91496771D01*
X68646040Y-91496771D01*
X68764967Y-91473115D01*
X68865788Y-91405748D01*
X68933155Y-91304927D01*
X68956811Y-91186000D01*
X68956811Y-88519000D01*
X68933155Y-88400073D01*
X68865788Y-88299252D01*
X68764967Y-88231885D01*
X68646040Y-88208229D01*
X67056000Y-88208229D01*
X66937073Y-88231885D01*
X66836252Y-88299252D01*
X66768885Y-88400073D01*
X66745229Y-88519000D01*
X60109100Y-88519000D01*
X60109100Y-82327477D01*
X60146840Y-82327477D01*
X60463259Y-83093270D01*
X61048648Y-83679682D01*
X61813888Y-83997437D01*
X62642477Y-83998160D01*
X63408270Y-83681741D01*
X63994682Y-83096352D01*
X64312437Y-82331112D01*
X64313160Y-81502523D01*
X63996741Y-80736730D01*
X63524836Y-80264000D01*
X66745229Y-80264000D01*
X66745229Y-82931000D01*
X66768885Y-83049927D01*
X66836252Y-83150748D01*
X66937073Y-83218115D01*
X67056000Y-83241771D01*
X67241400Y-83241771D01*
X67241400Y-83360800D01*
X67287803Y-83594084D01*
X67419948Y-83791852D01*
X67617716Y-83923997D01*
X67851000Y-83970400D01*
X68057796Y-83970400D01*
X72243830Y-88156434D01*
X71053960Y-88156434D01*
X70915212Y-88184033D01*
X70797587Y-88262627D01*
X70718993Y-88380252D01*
X70691394Y-88519000D01*
X70691394Y-91186000D01*
X70718993Y-91324748D01*
X70797587Y-91442373D01*
X70883800Y-91499978D01*
X70883800Y-92049900D01*
X70937543Y-92320084D01*
X70957271Y-92419266D01*
X71166501Y-92732399D01*
X72240101Y-93806000D01*
X71707501Y-94338601D01*
X71498271Y-94651734D01*
X71424800Y-95021100D01*
X71424800Y-96091678D01*
X71357472Y-96192442D01*
X71272400Y-96620129D01*
X71272400Y-97181871D01*
X71357472Y-97609558D01*
X71599737Y-97972134D01*
X71962313Y-98214399D01*
X72390000Y-98299471D01*
X72817687Y-98214399D01*
X72958666Y-98120200D01*
X73050700Y-98120200D01*
X73050700Y-98598212D01*
X72798247Y-98429529D01*
X72390000Y-98348324D01*
X71981753Y-98429529D01*
X71635658Y-98660782D01*
X71404405Y-99006877D01*
X71323200Y-99415124D01*
X71323200Y-99974876D01*
X71404405Y-100383123D01*
X71635658Y-100729218D01*
X71981753Y-100960471D01*
X72390000Y-101041676D01*
X72798247Y-100960471D01*
X73050700Y-100791788D01*
X73050700Y-101269800D01*
X72958666Y-101269800D01*
X72817687Y-101175601D01*
X72390000Y-101090529D01*
X71962313Y-101175601D01*
X71599737Y-101417866D01*
X71357472Y-101780442D01*
X71272400Y-102208129D01*
X71272400Y-102769871D01*
X71357472Y-103197558D01*
X71599737Y-103560134D01*
X71962313Y-103802399D01*
X72390000Y-103887471D01*
X72817687Y-103802399D01*
X73180263Y-103560134D01*
X73420763Y-103200200D01*
X74015900Y-103200200D01*
X74385266Y-103126729D01*
X74698399Y-102917499D01*
X74907629Y-102604366D01*
X74981100Y-102235000D01*
X74981100Y-97155000D01*
X74907629Y-96785634D01*
X74698399Y-96472501D01*
X74385266Y-96263271D01*
X74015900Y-96189800D01*
X73420763Y-96189800D01*
X73355200Y-96091678D01*
X73355200Y-95420898D01*
X73669358Y-95106740D01*
X74008000Y-95174100D01*
X78340202Y-95174100D01*
X81409701Y-98243600D01*
X81526916Y-98321921D01*
X81502434Y-98445000D01*
X81502434Y-100863942D01*
X81254441Y-100913271D01*
X81234834Y-100917171D01*
X81036778Y-101049509D01*
X81057566Y-100945000D01*
X81057566Y-98445000D01*
X81029967Y-98306252D01*
X80951373Y-98188627D01*
X80833748Y-98110033D01*
X80695000Y-98082434D01*
X77985000Y-98082434D01*
X77846252Y-98110033D01*
X77728627Y-98188627D01*
X77650033Y-98306252D01*
X77622434Y-98445000D01*
X77622434Y-100945000D01*
X77650033Y-101083748D01*
X77728627Y-101201373D01*
X77846252Y-101279967D01*
X77985000Y-101307566D01*
X78374800Y-101307566D01*
X78374800Y-101409101D01*
X78057501Y-101726401D01*
X77848271Y-102039534D01*
X77774800Y-102408900D01*
X77774800Y-104272100D01*
X76414100Y-104272100D01*
X76044734Y-104345571D01*
X75731601Y-104554800D01*
X71897901Y-108388501D01*
X71688671Y-108701634D01*
X71644153Y-108925448D01*
X70459600Y-107740896D01*
X70459600Y-100563345D01*
X70630218Y-100449342D01*
X70861471Y-100103247D01*
X70942676Y-99695000D01*
X70861471Y-99286753D01*
X70630218Y-98940658D01*
X70284123Y-98709405D01*
X69875876Y-98628200D01*
X69316124Y-98628200D01*
X68907877Y-98709405D01*
X68561782Y-98940658D01*
X68330529Y-99286753D01*
X68249324Y-99695000D01*
X68330529Y-100103247D01*
X68561782Y-100449342D01*
X68907877Y-100680595D01*
X69240400Y-100746738D01*
X69240400Y-107993400D01*
X69286803Y-108226684D01*
X69418948Y-108424452D01*
X71697448Y-110702953D01*
X71758880Y-110744000D01*
X71895216Y-110835097D01*
X72128500Y-110881500D01*
X74372400Y-110881500D01*
X74605684Y-110835097D01*
X74803452Y-110702952D01*
X75041704Y-110464700D01*
X76687573Y-110464700D01*
X76291730Y-110628259D01*
X75705318Y-111213648D01*
X75387563Y-111978888D01*
X75386840Y-112807477D01*
X75703259Y-113573270D01*
X76288648Y-114159682D01*
X77053888Y-114477437D01*
X77882477Y-114478160D01*
X78648270Y-114161741D01*
X79234682Y-113576352D01*
X79552437Y-112811112D01*
X79553160Y-111982523D01*
X79236741Y-111216730D01*
X79069104Y-111048800D01*
X124866400Y-111048800D01*
X124866400Y-112960757D01*
X124959206Y-113184811D01*
X125130689Y-113356294D01*
X125354743Y-113449100D01*
X126060200Y-113449100D01*
X126212600Y-113296700D01*
X126212600Y-110896400D01*
X125018800Y-110896400D01*
X124866400Y-111048800D01*
X79069104Y-111048800D01*
X78651352Y-110630318D01*
X78252499Y-110464700D01*
X93607100Y-110464700D01*
X93840384Y-110418297D01*
X94038152Y-110286152D01*
X95678253Y-108646052D01*
X95734603Y-108561717D01*
X95765658Y-108608194D01*
X96111753Y-108839447D01*
X96520000Y-108920652D01*
X96928247Y-108839447D01*
X97274342Y-108608194D01*
X97505595Y-108262099D01*
X97586800Y-107853852D01*
X97586800Y-106776148D01*
X97993200Y-106776148D01*
X97993200Y-107853852D01*
X98074405Y-108262099D01*
X98305658Y-108608194D01*
X98651753Y-108839447D01*
X99060000Y-108920652D01*
X99468247Y-108839447D01*
X99814342Y-108608194D01*
X100045595Y-108262099D01*
X100126800Y-107853852D01*
X100126800Y-106776148D01*
X100533200Y-106776148D01*
X100533200Y-107853852D01*
X100614405Y-108262099D01*
X100845658Y-108608194D01*
X101191753Y-108839447D01*
X101600000Y-108920652D01*
X102008247Y-108839447D01*
X102354342Y-108608194D01*
X102585595Y-108262099D01*
X102666800Y-107853852D01*
X102666800Y-106776148D01*
X103073200Y-106776148D01*
X103073200Y-107853852D01*
X103154405Y-108262099D01*
X103385658Y-108608194D01*
X103731753Y-108839447D01*
X104140000Y-108920652D01*
X104548247Y-108839447D01*
X104894342Y-108608194D01*
X105125595Y-108262099D01*
X105206800Y-107853852D01*
X105206800Y-106776148D01*
X105613200Y-106776148D01*
X105613200Y-107853852D01*
X105694405Y-108262099D01*
X105925658Y-108608194D01*
X106271753Y-108839447D01*
X106680000Y-108920652D01*
X107088247Y-108839447D01*
X107434342Y-108608194D01*
X107665595Y-108262099D01*
X107746800Y-107853852D01*
X107746800Y-106776148D01*
X108153200Y-106776148D01*
X108153200Y-107853852D01*
X108234405Y-108262099D01*
X108465658Y-108608194D01*
X108811753Y-108839447D01*
X109220000Y-108920652D01*
X109628247Y-108839447D01*
X109974342Y-108608194D01*
X110205595Y-108262099D01*
X110286800Y-107853852D01*
X110286800Y-106776148D01*
X110205595Y-106367901D01*
X109974342Y-106021806D01*
X109628247Y-105790553D01*
X109220000Y-105709348D01*
X108811753Y-105790553D01*
X108465658Y-106021806D01*
X108234405Y-106367901D01*
X108153200Y-106776148D01*
X107746800Y-106776148D01*
X107665595Y-106367901D01*
X107434342Y-106021806D01*
X107088247Y-105790553D01*
X106680000Y-105709348D01*
X106271753Y-105790553D01*
X105925658Y-106021806D01*
X105694405Y-106367901D01*
X105613200Y-106776148D01*
X105206800Y-106776148D01*
X105125595Y-106367901D01*
X104894342Y-106021806D01*
X104548247Y-105790553D01*
X104140000Y-105709348D01*
X103731753Y-105790553D01*
X103385658Y-106021806D01*
X103154405Y-106367901D01*
X103073200Y-106776148D01*
X102666800Y-106776148D01*
X102585595Y-106367901D01*
X102354342Y-106021806D01*
X102008247Y-105790553D01*
X101600000Y-105709348D01*
X101191753Y-105790553D01*
X100845658Y-106021806D01*
X100614405Y-106367901D01*
X100533200Y-106776148D01*
X100126800Y-106776148D01*
X100045595Y-106367901D01*
X99814342Y-106021806D01*
X99468247Y-105790553D01*
X99060000Y-105709348D01*
X98651753Y-105790553D01*
X98305658Y-106021806D01*
X98074405Y-106367901D01*
X97993200Y-106776148D01*
X97586800Y-106776148D01*
X97505595Y-106367901D01*
X97274342Y-106021806D01*
X96928247Y-105790553D01*
X96724816Y-105750088D01*
X97422504Y-105052400D01*
X99060000Y-105052400D01*
X99293284Y-105005997D01*
X99491052Y-104873852D01*
X99557103Y-104775000D01*
X110154348Y-104775000D01*
X110235553Y-105183247D01*
X110466806Y-105529342D01*
X110812901Y-105760595D01*
X111221148Y-105841800D01*
X111275056Y-105841800D01*
X111005658Y-106021806D01*
X110774405Y-106367901D01*
X110693200Y-106776148D01*
X110693200Y-107853852D01*
X110774405Y-108262099D01*
X111005658Y-108608194D01*
X111351753Y-108839447D01*
X111760000Y-108920652D01*
X112168247Y-108839447D01*
X112514342Y-108608194D01*
X112568431Y-108527243D01*
X124866400Y-108527243D01*
X124866400Y-110439200D01*
X125018800Y-110591600D01*
X126212600Y-110591600D01*
X126212600Y-108191300D01*
X126517400Y-108191300D01*
X126517400Y-110591600D01*
X126537400Y-110591600D01*
X126537400Y-110896400D01*
X126517400Y-110896400D01*
X126517400Y-113296700D01*
X126669800Y-113449100D01*
X127375257Y-113449100D01*
X127599311Y-113356294D01*
X127770794Y-113184811D01*
X127797227Y-113120996D01*
X127877252Y-113174467D01*
X128016000Y-113202066D01*
X129794000Y-113202066D01*
X129932748Y-113174467D01*
X130050373Y-113095873D01*
X130128967Y-112978248D01*
X130156566Y-112839500D01*
X130156566Y-108648500D01*
X130128967Y-108509752D01*
X130102946Y-108470809D01*
X130108499Y-108467099D01*
X134384798Y-104190800D01*
X135605667Y-104190800D01*
X135764211Y-104987853D01*
X136215705Y-105663562D01*
X136891414Y-106115056D01*
X137688467Y-106273600D01*
X139323933Y-106273600D01*
X140120986Y-106115056D01*
X140796695Y-105663562D01*
X141248189Y-104987853D01*
X141406733Y-104190800D01*
X141248189Y-103393747D01*
X140796695Y-102718038D01*
X140120986Y-102266544D01*
X139323933Y-102108000D01*
X137688467Y-102108000D01*
X136891414Y-102266544D01*
X136215705Y-102718038D01*
X135764211Y-103393747D01*
X135605667Y-104190800D01*
X134384798Y-104190800D01*
X136746998Y-101828600D01*
X137567352Y-101828600D01*
X138383845Y-101666189D01*
X139076035Y-101203683D01*
X139536473Y-100514589D01*
X139792463Y-100771026D01*
X140259073Y-100964779D01*
X140764310Y-100965220D01*
X141231258Y-100772282D01*
X141588826Y-100415337D01*
X141782579Y-99948727D01*
X141783020Y-99443490D01*
X141590082Y-98976542D01*
X141233137Y-98618974D01*
X140766527Y-98425221D01*
X140261290Y-98424780D01*
X139794342Y-98617718D01*
X139536363Y-98875247D01*
X139076035Y-98186317D01*
X138383845Y-97723811D01*
X137567352Y-97561400D01*
X136746998Y-97561400D01*
X134384798Y-95199200D01*
X135605667Y-95199200D01*
X135764211Y-95996253D01*
X136215705Y-96671962D01*
X136891414Y-97123456D01*
X137688467Y-97282000D01*
X139323933Y-97282000D01*
X140120986Y-97123456D01*
X140796695Y-96671962D01*
X141248189Y-95996253D01*
X141406733Y-95199200D01*
X141248189Y-94402147D01*
X140796695Y-93726438D01*
X140120986Y-93274944D01*
X139323933Y-93116400D01*
X137688467Y-93116400D01*
X136891414Y-93274944D01*
X136215705Y-93726438D01*
X135764211Y-94402147D01*
X135605667Y-95199200D01*
X134384798Y-95199200D01*
X130108499Y-90922901D01*
X130102946Y-90919191D01*
X130128967Y-90880248D01*
X130156566Y-90741500D01*
X130156566Y-86550500D01*
X130128967Y-86411752D01*
X130050373Y-86294127D01*
X129932748Y-86215533D01*
X129794000Y-86187934D01*
X128016000Y-86187934D01*
X127877252Y-86215533D01*
X127759627Y-86294127D01*
X127681033Y-86411752D01*
X127653434Y-86550500D01*
X127653434Y-90741500D01*
X127681033Y-90880248D01*
X127759627Y-90997873D01*
X127877252Y-91076467D01*
X127939800Y-91088909D01*
X127939800Y-91605400D01*
X128013271Y-91974766D01*
X128222501Y-92287899D01*
X128535634Y-92497129D01*
X128905000Y-92570600D01*
X129026202Y-92570600D01*
X134820105Y-98364503D01*
X134476659Y-98878507D01*
X134314248Y-99695000D01*
X134476659Y-100511493D01*
X134820105Y-101025497D01*
X129026202Y-106819400D01*
X128905000Y-106819400D01*
X128535634Y-106892871D01*
X128222501Y-107102101D01*
X128013271Y-107415234D01*
X127939800Y-107784600D01*
X127939800Y-108301091D01*
X127877252Y-108313533D01*
X127797227Y-108367004D01*
X127770794Y-108303189D01*
X127599311Y-108131706D01*
X127375257Y-108038900D01*
X126669800Y-108038900D01*
X126517400Y-108191300D01*
X126212600Y-108191300D01*
X126060200Y-108038900D01*
X125354743Y-108038900D01*
X125130689Y-108131706D01*
X124959206Y-108303189D01*
X124866400Y-108527243D01*
X112568431Y-108527243D01*
X112745595Y-108262099D01*
X112826800Y-107853852D01*
X112826800Y-106776148D01*
X112745595Y-106367901D01*
X112514342Y-106021806D01*
X112244944Y-105841800D01*
X112298852Y-105841800D01*
X112707099Y-105760595D01*
X113053194Y-105529342D01*
X113284447Y-105183247D01*
X113365652Y-104775000D01*
X113284447Y-104366753D01*
X113053194Y-104020658D01*
X112707099Y-103789405D01*
X112298852Y-103708200D01*
X111221148Y-103708200D01*
X110812901Y-103789405D01*
X110466806Y-104020658D01*
X110235553Y-104366753D01*
X110154348Y-104775000D01*
X99557103Y-104775000D01*
X99623197Y-104676084D01*
X99669600Y-104442800D01*
X99669600Y-104132907D01*
X99814342Y-104036194D01*
X100045595Y-103690099D01*
X100126800Y-103281852D01*
X100126800Y-102204148D01*
X100533200Y-102204148D01*
X100533200Y-103281852D01*
X100614405Y-103690099D01*
X100845658Y-104036194D01*
X101191753Y-104267447D01*
X101600000Y-104348652D01*
X102008247Y-104267447D01*
X102354342Y-104036194D01*
X102585595Y-103690099D01*
X102666800Y-103281852D01*
X102666800Y-102204148D01*
X103073200Y-102204148D01*
X103073200Y-103281852D01*
X103154405Y-103690099D01*
X103385658Y-104036194D01*
X103731753Y-104267447D01*
X104140000Y-104348652D01*
X104548247Y-104267447D01*
X104894342Y-104036194D01*
X105125595Y-103690099D01*
X105206800Y-103281852D01*
X105206800Y-102204148D01*
X105125595Y-101795901D01*
X104894342Y-101449806D01*
X104548247Y-101218553D01*
X104140000Y-101137348D01*
X103731753Y-101218553D01*
X103385658Y-101449806D01*
X103154405Y-101795901D01*
X103073200Y-102204148D01*
X102666800Y-102204148D01*
X102585595Y-101795901D01*
X102354342Y-101449806D01*
X102008247Y-101218553D01*
X101600000Y-101137348D01*
X101191753Y-101218553D01*
X100845658Y-101449806D01*
X100614405Y-101795901D01*
X100533200Y-102204148D01*
X100126800Y-102204148D01*
X100045595Y-101795901D01*
X99814342Y-101449806D01*
X99468247Y-101218553D01*
X99060000Y-101137348D01*
X98651753Y-101218553D01*
X98305658Y-101449806D01*
X98074405Y-101795901D01*
X97993200Y-102204148D01*
X97993200Y-103281852D01*
X98074405Y-103690099D01*
X98170022Y-103833200D01*
X97409978Y-103833200D01*
X97505595Y-103690099D01*
X97586800Y-103281852D01*
X97586800Y-102204148D01*
X97505595Y-101795901D01*
X97274342Y-101449806D01*
X96928247Y-101218553D01*
X96520000Y-101137348D01*
X96111753Y-101218553D01*
X95765658Y-101449806D01*
X95534405Y-101795901D01*
X95453200Y-102204148D01*
X95453200Y-103281852D01*
X95534405Y-103690099D01*
X95765658Y-104036194D01*
X96111753Y-104267447D01*
X96421614Y-104329082D01*
X94816148Y-105934548D01*
X94746093Y-106039392D01*
X94734342Y-106021806D01*
X94388247Y-105790553D01*
X93980000Y-105709348D01*
X93571753Y-105790553D01*
X93225658Y-106021806D01*
X92994405Y-106367901D01*
X92913200Y-106776148D01*
X92913200Y-107853852D01*
X92994405Y-108262099D01*
X93225658Y-108608194D01*
X93571753Y-108839447D01*
X93729309Y-108870787D01*
X93354596Y-109245500D01*
X74789200Y-109245500D01*
X74555916Y-109291903D01*
X74358148Y-109424048D01*
X74119896Y-109662300D01*
X73354098Y-109662300D01*
X76813899Y-106202500D01*
X77774800Y-106202500D01*
X77774800Y-106246702D01*
X77707472Y-106347466D01*
X77622400Y-106775153D01*
X77622400Y-107854847D01*
X77707472Y-108282534D01*
X77949737Y-108645110D01*
X78312313Y-108887375D01*
X78740000Y-108972447D01*
X79167687Y-108887375D01*
X79530263Y-108645110D01*
X79772528Y-108282534D01*
X79857600Y-107854847D01*
X79857600Y-106775153D01*
X79772528Y-106347466D01*
X79705200Y-106246702D01*
X79705200Y-102808698D01*
X80022499Y-102491400D01*
X80231729Y-102178267D01*
X80259324Y-102039534D01*
X80305200Y-101808900D01*
X80305200Y-101307566D01*
X80695000Y-101307566D01*
X80751843Y-101296259D01*
X80597501Y-101450601D01*
X80388271Y-101763734D01*
X80314800Y-102133100D01*
X80314800Y-103198702D01*
X80247472Y-103299466D01*
X80162400Y-103727153D01*
X80162400Y-104806847D01*
X80247472Y-105234534D01*
X80489737Y-105597110D01*
X80779915Y-105791000D01*
X80489737Y-105984890D01*
X80247472Y-106347466D01*
X80162400Y-106775153D01*
X80162400Y-107854847D01*
X80247472Y-108282534D01*
X80489737Y-108645110D01*
X80852313Y-108887375D01*
X81280000Y-108972447D01*
X81707687Y-108887375D01*
X82070263Y-108645110D01*
X82312528Y-108282534D01*
X82397600Y-107854847D01*
X82397600Y-106775153D01*
X82312528Y-106347466D01*
X82070263Y-105984890D01*
X81780085Y-105791000D01*
X82070263Y-105597110D01*
X82312528Y-105234534D01*
X82397600Y-104806847D01*
X82397600Y-103727153D01*
X82312528Y-103299466D01*
X82245200Y-103198702D01*
X82245200Y-102774100D01*
X83220000Y-102774100D01*
X83589366Y-102700629D01*
X83902499Y-102491399D01*
X84111729Y-102178266D01*
X84185200Y-101808900D01*
X84185200Y-101307566D01*
X84575000Y-101307566D01*
X84713748Y-101279967D01*
X84831373Y-101201373D01*
X84909967Y-101083748D01*
X84937566Y-100945000D01*
X84937566Y-98526300D01*
X85743434Y-98526300D01*
X85743434Y-100910040D01*
X85668315Y-100924982D01*
X85607033Y-100937171D01*
X85293900Y-101146401D01*
X83137501Y-103302801D01*
X82928271Y-103615934D01*
X82854800Y-103985300D01*
X82854800Y-106246702D01*
X82787472Y-106347466D01*
X82702400Y-106775153D01*
X82702400Y-107854847D01*
X82787472Y-108282534D01*
X83029737Y-108645110D01*
X83392313Y-108887375D01*
X83820000Y-108972447D01*
X84247687Y-108887375D01*
X84610263Y-108645110D01*
X84852528Y-108282534D01*
X84937600Y-107854847D01*
X84937600Y-106775153D01*
X84852528Y-106347466D01*
X84785200Y-106246702D01*
X84785200Y-104385098D01*
X85242400Y-103927898D01*
X85242400Y-104806847D01*
X85327472Y-105234534D01*
X85569737Y-105597110D01*
X85905499Y-105821459D01*
X85605658Y-106021806D01*
X85374405Y-106367901D01*
X85293200Y-106776148D01*
X85293200Y-107853852D01*
X85374405Y-108262099D01*
X85605658Y-108608194D01*
X85951753Y-108839447D01*
X86360000Y-108920652D01*
X86768247Y-108839447D01*
X87114342Y-108608194D01*
X87345595Y-108262099D01*
X87426800Y-107853852D01*
X87426800Y-106776148D01*
X87345595Y-106367901D01*
X87114342Y-106021806D01*
X86814501Y-105821459D01*
X87150263Y-105597110D01*
X87392528Y-105234534D01*
X87477600Y-104806847D01*
X87477600Y-103728148D01*
X87833200Y-103728148D01*
X87833200Y-104805852D01*
X87914405Y-105214099D01*
X88145658Y-105560194D01*
X88491084Y-105791000D01*
X88145658Y-106021806D01*
X87914405Y-106367901D01*
X87833200Y-106776148D01*
X87833200Y-107853852D01*
X87914405Y-108262099D01*
X88145658Y-108608194D01*
X88491753Y-108839447D01*
X88900000Y-108920652D01*
X89308247Y-108839447D01*
X89654342Y-108608194D01*
X89885595Y-108262099D01*
X89966800Y-107853852D01*
X89966800Y-106776148D01*
X89885595Y-106367901D01*
X89654342Y-106021806D01*
X89308916Y-105791000D01*
X89654342Y-105560194D01*
X89885595Y-105214099D01*
X89966800Y-104805852D01*
X89966800Y-103728148D01*
X90373200Y-103728148D01*
X90373200Y-104805852D01*
X90454405Y-105214099D01*
X90685658Y-105560194D01*
X91031084Y-105791000D01*
X90685658Y-106021806D01*
X90454405Y-106367901D01*
X90373200Y-106776148D01*
X90373200Y-107853852D01*
X90454405Y-108262099D01*
X90685658Y-108608194D01*
X91031753Y-108839447D01*
X91440000Y-108920652D01*
X91848247Y-108839447D01*
X92194342Y-108608194D01*
X92425595Y-108262099D01*
X92506800Y-107853852D01*
X92506800Y-106776148D01*
X92425595Y-106367901D01*
X92194342Y-106021806D01*
X91848916Y-105791000D01*
X92194342Y-105560194D01*
X92425595Y-105214099D01*
X92506800Y-104805852D01*
X92506800Y-103728148D01*
X92425595Y-103319901D01*
X92194342Y-102973806D01*
X91848247Y-102742553D01*
X91440000Y-102661348D01*
X91031753Y-102742553D01*
X90685658Y-102973806D01*
X90454405Y-103319901D01*
X90373200Y-103728148D01*
X89966800Y-103728148D01*
X89885595Y-103319901D01*
X89654342Y-102973806D01*
X89308247Y-102742553D01*
X88900000Y-102661348D01*
X88491753Y-102742553D01*
X88145658Y-102973806D01*
X87914405Y-103319901D01*
X87833200Y-103728148D01*
X87477600Y-103728148D01*
X87477600Y-103727153D01*
X87392528Y-103299466D01*
X87150263Y-102936890D01*
X86891700Y-102764124D01*
X87110366Y-102720629D01*
X87423499Y-102511399D01*
X87628798Y-102204148D01*
X92913200Y-102204148D01*
X92913200Y-103281852D01*
X92994405Y-103690099D01*
X93225658Y-104036194D01*
X93571753Y-104267447D01*
X93980000Y-104348652D01*
X94388247Y-104267447D01*
X94734342Y-104036194D01*
X94965595Y-103690099D01*
X95046800Y-103281852D01*
X95046800Y-102204148D01*
X94965595Y-101795901D01*
X94734342Y-101449806D01*
X94388247Y-101218553D01*
X93980000Y-101137348D01*
X93571753Y-101218553D01*
X93225658Y-101449806D01*
X92994405Y-101795901D01*
X92913200Y-102204148D01*
X87628798Y-102204148D01*
X87632729Y-102198266D01*
X87706200Y-101828900D01*
X87706200Y-101110882D01*
X87710967Y-101103748D01*
X87738566Y-100965000D01*
X87738566Y-98526300D01*
X88791434Y-98526300D01*
X88791434Y-100965000D01*
X88819033Y-101103748D01*
X88897627Y-101221373D01*
X89015252Y-101299967D01*
X89154000Y-101327566D01*
X90424000Y-101327566D01*
X90562748Y-101299967D01*
X90680373Y-101221373D01*
X90758967Y-101103748D01*
X90786566Y-100965000D01*
X90786566Y-98648148D01*
X92913200Y-98648148D01*
X92913200Y-99725852D01*
X92994405Y-100134099D01*
X93225658Y-100480194D01*
X93571753Y-100711447D01*
X93980000Y-100792652D01*
X94388247Y-100711447D01*
X94734342Y-100480194D01*
X94965595Y-100134099D01*
X95046800Y-99725852D01*
X95046800Y-98648148D01*
X95453200Y-98648148D01*
X95453200Y-99725852D01*
X95534405Y-100134099D01*
X95765658Y-100480194D01*
X96111753Y-100711447D01*
X96520000Y-100792652D01*
X96928247Y-100711447D01*
X97274342Y-100480194D01*
X97505595Y-100134099D01*
X97586800Y-99725852D01*
X97586800Y-98648148D01*
X97505595Y-98239901D01*
X97274342Y-97893806D01*
X96928247Y-97662553D01*
X96520000Y-97581348D01*
X96111753Y-97662553D01*
X95765658Y-97893806D01*
X95534405Y-98239901D01*
X95453200Y-98648148D01*
X95046800Y-98648148D01*
X94965595Y-98239901D01*
X94734342Y-97893806D01*
X94388247Y-97662553D01*
X93980000Y-97581348D01*
X93571753Y-97662553D01*
X93225658Y-97893806D01*
X92994405Y-98239901D01*
X92913200Y-98648148D01*
X90786566Y-98648148D01*
X90786566Y-98425000D01*
X90758967Y-98286252D01*
X90754200Y-98279118D01*
X90754200Y-97561100D01*
X90680729Y-97191734D01*
X90471499Y-96878601D01*
X90158366Y-96669371D01*
X89789000Y-96595900D01*
X82491999Y-96595900D01*
X79705200Y-93809102D01*
X79705200Y-93636902D01*
X79758373Y-93601373D01*
X79836967Y-93483748D01*
X79864566Y-93345000D01*
X79864566Y-91536148D01*
X80213200Y-91536148D01*
X80213200Y-92613852D01*
X80294405Y-93022099D01*
X80525658Y-93368194D01*
X80871753Y-93599447D01*
X81280000Y-93680652D01*
X81688247Y-93599447D01*
X82034342Y-93368194D01*
X82265595Y-93022099D01*
X82346800Y-92613852D01*
X82346800Y-91536148D01*
X82265595Y-91127901D01*
X82034342Y-90781806D01*
X81688247Y-90550553D01*
X81280000Y-90469348D01*
X80871753Y-90550553D01*
X80525658Y-90781806D01*
X80294405Y-91127901D01*
X80213200Y-91536148D01*
X79864566Y-91536148D01*
X79864566Y-90805000D01*
X79836967Y-90666252D01*
X79758373Y-90548627D01*
X79705200Y-90513098D01*
X79705200Y-90340898D01*
X81940799Y-88105299D01*
X82150029Y-87792166D01*
X82185349Y-87614597D01*
X82201699Y-87532400D01*
X86187996Y-87532400D01*
X84712548Y-89007848D01*
X84580403Y-89205616D01*
X84534000Y-89438900D01*
X84534000Y-90754850D01*
X84228247Y-90550553D01*
X83820000Y-90469348D01*
X83411753Y-90550553D01*
X83065658Y-90781806D01*
X82834405Y-91127901D01*
X82753200Y-91536148D01*
X82753200Y-92613852D01*
X82834405Y-93022099D01*
X83065658Y-93368194D01*
X83411753Y-93599447D01*
X83820000Y-93680652D01*
X84228247Y-93599447D01*
X84574342Y-93368194D01*
X84604337Y-93323303D01*
X84712548Y-93485252D01*
X86120048Y-94892753D01*
X86238602Y-94971967D01*
X86317816Y-95024897D01*
X86551100Y-95071300D01*
X95781996Y-95071300D01*
X98450400Y-97739704D01*
X98450400Y-97797093D01*
X98305658Y-97893806D01*
X98074405Y-98239901D01*
X97993200Y-98648148D01*
X97993200Y-99725852D01*
X98074405Y-100134099D01*
X98305658Y-100480194D01*
X98651753Y-100711447D01*
X99060000Y-100792652D01*
X99468247Y-100711447D01*
X99814342Y-100480194D01*
X100045595Y-100134099D01*
X100126800Y-99725852D01*
X100126800Y-98648148D01*
X100533200Y-98648148D01*
X100533200Y-99725852D01*
X100614405Y-100134099D01*
X100845658Y-100480194D01*
X101191753Y-100711447D01*
X101600000Y-100792652D01*
X102008247Y-100711447D01*
X102354342Y-100480194D01*
X102585595Y-100134099D01*
X102666800Y-99725852D01*
X102666800Y-98648148D01*
X102585595Y-98239901D01*
X102354342Y-97893806D01*
X102008247Y-97662553D01*
X101600000Y-97581348D01*
X101191753Y-97662553D01*
X100845658Y-97893806D01*
X100614405Y-98239901D01*
X100533200Y-98648148D01*
X100126800Y-98648148D01*
X100045595Y-98239901D01*
X99814342Y-97893806D01*
X99669600Y-97797093D01*
X99669600Y-97487200D01*
X99623197Y-97253916D01*
X99491052Y-97056148D01*
X96465552Y-94030648D01*
X96267784Y-93898503D01*
X96034500Y-93852100D01*
X86803605Y-93852100D01*
X86587003Y-93635498D01*
X86768247Y-93599447D01*
X87114342Y-93368194D01*
X87345595Y-93022099D01*
X87426800Y-92613852D01*
X87426800Y-91536148D01*
X87345595Y-91127901D01*
X87114342Y-90781806D01*
X86969600Y-90685093D01*
X86969600Y-90627704D01*
X88344500Y-89252805D01*
X88344500Y-90130397D01*
X88336803Y-90141916D01*
X88290400Y-90375200D01*
X88290400Y-90685093D01*
X88145658Y-90781806D01*
X87914405Y-91127901D01*
X87833200Y-91536148D01*
X87833200Y-92613852D01*
X87914405Y-93022099D01*
X88145658Y-93368194D01*
X88491753Y-93599447D01*
X88900000Y-93680652D01*
X89308247Y-93599447D01*
X89654342Y-93368194D01*
X89885595Y-93022099D01*
X89966800Y-92613852D01*
X89966800Y-91536148D01*
X89885595Y-91127901D01*
X89654342Y-90781806D01*
X89509600Y-90685093D01*
X89509600Y-90565903D01*
X89517297Y-90554384D01*
X89563700Y-90321100D01*
X89563700Y-83668900D01*
X89517297Y-83435616D01*
X89509600Y-83424097D01*
X89509600Y-83334556D01*
X89771085Y-83159837D01*
X90038127Y-82760180D01*
X90131900Y-82288752D01*
X90131900Y-81541248D01*
X90208100Y-81541248D01*
X90208100Y-82288752D01*
X90301873Y-82760180D01*
X90568915Y-83159837D01*
X90830400Y-83334556D01*
X90830400Y-90685093D01*
X90685658Y-90781806D01*
X90454405Y-91127901D01*
X90373200Y-91536148D01*
X90373200Y-92613852D01*
X90454405Y-93022099D01*
X90685658Y-93368194D01*
X91031753Y-93599447D01*
X91440000Y-93680652D01*
X91848247Y-93599447D01*
X92194342Y-93368194D01*
X92425595Y-93022099D01*
X92506800Y-92613852D01*
X92506800Y-91536148D01*
X92425595Y-91127901D01*
X92194342Y-90781806D01*
X92049600Y-90685093D01*
X92049600Y-83334556D01*
X92311085Y-83159837D01*
X92578127Y-82760180D01*
X92671900Y-82288752D01*
X92671900Y-81541248D01*
X92748100Y-81541248D01*
X92748100Y-82288752D01*
X92841873Y-82760180D01*
X93108915Y-83159837D01*
X93370400Y-83334556D01*
X93370400Y-90685093D01*
X93225658Y-90781806D01*
X92994405Y-91127901D01*
X92913200Y-91536148D01*
X92913200Y-92613852D01*
X92994405Y-93022099D01*
X93225658Y-93368194D01*
X93571753Y-93599447D01*
X93980000Y-93680652D01*
X94388247Y-93599447D01*
X94734342Y-93368194D01*
X94965595Y-93022099D01*
X95046800Y-92613852D01*
X95046800Y-91536148D01*
X94965595Y-91127901D01*
X94734342Y-90781806D01*
X94589600Y-90685093D01*
X94589600Y-83334556D01*
X94851085Y-83159837D01*
X95118127Y-82760180D01*
X95211900Y-82288752D01*
X95211900Y-81541248D01*
X95288100Y-81541248D01*
X95288100Y-82288752D01*
X95381873Y-82760180D01*
X95648915Y-83159837D01*
X95910400Y-83334556D01*
X95910400Y-90685093D01*
X95765658Y-90781806D01*
X95534405Y-91127901D01*
X95453200Y-91536148D01*
X95453200Y-92613852D01*
X95534405Y-93022099D01*
X95765658Y-93368194D01*
X96111753Y-93599447D01*
X96520000Y-93680652D01*
X96928247Y-93599447D01*
X97274342Y-93368194D01*
X97505595Y-93022099D01*
X97586800Y-92613852D01*
X97586800Y-91536148D01*
X97505595Y-91127901D01*
X97274342Y-90781806D01*
X97129600Y-90685093D01*
X97129600Y-83334556D01*
X97391085Y-83159837D01*
X97658127Y-82760180D01*
X97751900Y-82288752D01*
X97751900Y-81541248D01*
X97828100Y-81541248D01*
X97828100Y-82288752D01*
X97921873Y-82760180D01*
X98188915Y-83159837D01*
X98588572Y-83426879D01*
X99060000Y-83520652D01*
X99531428Y-83426879D01*
X99638339Y-83355443D01*
X99656500Y-83373604D01*
X99656500Y-90676339D01*
X99468247Y-90550553D01*
X99060000Y-90469348D01*
X98651753Y-90550553D01*
X98305658Y-90781806D01*
X98074405Y-91127901D01*
X97993200Y-91536148D01*
X97993200Y-92613852D01*
X98074405Y-93022099D01*
X98305658Y-93368194D01*
X98651753Y-93599447D01*
X99060000Y-93680652D01*
X99468247Y-93599447D01*
X99804147Y-93375006D01*
X99835048Y-93421252D01*
X104019177Y-97605381D01*
X103731753Y-97662553D01*
X103385658Y-97893806D01*
X103154405Y-98239901D01*
X103073200Y-98648148D01*
X103073200Y-99725852D01*
X103154405Y-100134099D01*
X103385658Y-100480194D01*
X103731753Y-100711447D01*
X104140000Y-100792652D01*
X104548247Y-100711447D01*
X104873861Y-100493879D01*
X104978948Y-100651152D01*
X105802048Y-101474252D01*
X105876212Y-101523807D01*
X105694405Y-101795901D01*
X105613200Y-102204148D01*
X105613200Y-103281852D01*
X105694405Y-103690099D01*
X105925658Y-104036194D01*
X106271753Y-104267447D01*
X106680000Y-104348652D01*
X107088247Y-104267447D01*
X107434342Y-104036194D01*
X107665595Y-103690099D01*
X107746800Y-103281852D01*
X107746800Y-102204148D01*
X107665595Y-101795901D01*
X107434342Y-101449806D01*
X107289600Y-101353093D01*
X107289600Y-101043200D01*
X107243197Y-100809916D01*
X107149883Y-100670263D01*
X107434342Y-100480194D01*
X107461496Y-100439555D01*
X107465003Y-100457184D01*
X107597148Y-100654952D01*
X108416448Y-101474252D01*
X108439176Y-101489439D01*
X108234405Y-101795901D01*
X108153200Y-102204148D01*
X108153200Y-103281852D01*
X108234405Y-103690099D01*
X108465658Y-104036194D01*
X108811753Y-104267447D01*
X109220000Y-104348652D01*
X109628247Y-104267447D01*
X109974342Y-104036194D01*
X110205595Y-103690099D01*
X110286800Y-103281852D01*
X110286800Y-102719944D01*
X110466806Y-102989342D01*
X110812901Y-103220595D01*
X111221148Y-103301800D01*
X112298852Y-103301800D01*
X112707099Y-103220595D01*
X112775636Y-103174800D01*
X119715400Y-103174800D01*
X119715400Y-104891257D01*
X119808206Y-105115311D01*
X119979689Y-105286794D01*
X120203743Y-105379600D01*
X122500200Y-105379600D01*
X122652600Y-105227200D01*
X122652600Y-103022400D01*
X119867800Y-103022400D01*
X119715400Y-103174800D01*
X112775636Y-103174800D01*
X113053194Y-102989342D01*
X113284447Y-102643247D01*
X113365652Y-102235000D01*
X113284447Y-101826753D01*
X113053194Y-101480658D01*
X112707099Y-101249405D01*
X112298852Y-101168200D01*
X111221148Y-101168200D01*
X110812901Y-101249405D01*
X110466806Y-101480658D01*
X110235553Y-101826753D01*
X110223642Y-101886632D01*
X110205595Y-101795901D01*
X109974342Y-101449806D01*
X109829600Y-101353093D01*
X109829600Y-101043200D01*
X109790921Y-100848743D01*
X119715400Y-100848743D01*
X119715400Y-102565200D01*
X119867800Y-102717600D01*
X122652600Y-102717600D01*
X122652600Y-100512800D01*
X122957400Y-100512800D01*
X122957400Y-102717600D01*
X122977400Y-102717600D01*
X122977400Y-103022400D01*
X122957400Y-103022400D01*
X122957400Y-105227200D01*
X123109800Y-105379600D01*
X125406257Y-105379600D01*
X125630311Y-105286794D01*
X125801794Y-105115311D01*
X125834739Y-105035774D01*
X125885000Y-105045771D01*
X127325000Y-105045771D01*
X127443927Y-105022115D01*
X127544748Y-104954748D01*
X127612115Y-104853927D01*
X127635771Y-104735000D01*
X127635771Y-103135000D01*
X127612115Y-103016073D01*
X127583652Y-102973475D01*
X127613399Y-102953599D01*
X128079500Y-102487499D01*
X128079502Y-102487496D01*
X129307800Y-101259199D01*
X129340229Y-101210665D01*
X129832912Y-101948016D01*
X130607505Y-102465583D01*
X131521200Y-102647328D01*
X132434895Y-102465583D01*
X133209488Y-101948016D01*
X133727055Y-101173423D01*
X133908800Y-100259728D01*
X133908800Y-99130272D01*
X133727055Y-98216577D01*
X133209488Y-97441984D01*
X132434895Y-96924417D01*
X131521200Y-96742672D01*
X130607505Y-96924417D01*
X129832912Y-97441984D01*
X129315345Y-98216577D01*
X129213259Y-98729800D01*
X128625300Y-98729800D01*
X128255934Y-98803271D01*
X127942801Y-99012501D01*
X127733571Y-99325634D01*
X127660100Y-99695000D01*
X127660100Y-100176901D01*
X127142773Y-100694229D01*
X125885000Y-100694229D01*
X125834739Y-100704226D01*
X125801794Y-100624689D01*
X125630311Y-100453206D01*
X125406257Y-100360400D01*
X123109800Y-100360400D01*
X122957400Y-100512800D01*
X122652600Y-100512800D01*
X122500200Y-100360400D01*
X120203743Y-100360400D01*
X119979689Y-100453206D01*
X119808206Y-100624689D01*
X119715400Y-100848743D01*
X109790921Y-100848743D01*
X109783197Y-100809916D01*
X109689883Y-100670263D01*
X109974342Y-100480194D01*
X110205595Y-100134099D01*
X110223642Y-100043368D01*
X110235553Y-100103247D01*
X110466806Y-100449342D01*
X110812901Y-100680595D01*
X111221148Y-100761800D01*
X112298852Y-100761800D01*
X112707099Y-100680595D01*
X113053194Y-100449342D01*
X113284447Y-100103247D01*
X113365652Y-99695000D01*
X113284447Y-99286753D01*
X113053194Y-98940658D01*
X112707099Y-98709405D01*
X112298852Y-98628200D01*
X111221148Y-98628200D01*
X110812901Y-98709405D01*
X110466806Y-98940658D01*
X110286800Y-99210056D01*
X110286800Y-98648148D01*
X110205595Y-98239901D01*
X109974342Y-97893806D01*
X109829600Y-97797093D01*
X109829600Y-97616904D01*
X110177104Y-97269401D01*
X110235553Y-97563247D01*
X110466806Y-97909342D01*
X110812901Y-98140595D01*
X111221148Y-98221800D01*
X112298852Y-98221800D01*
X112707099Y-98140595D01*
X113053194Y-97909342D01*
X113284447Y-97563247D01*
X113365652Y-97155000D01*
X113299972Y-96824800D01*
X119715400Y-96824800D01*
X119715400Y-98541257D01*
X119808206Y-98765311D01*
X119979689Y-98936794D01*
X120203743Y-99029600D01*
X122500200Y-99029600D01*
X122652600Y-98877200D01*
X122652600Y-96672400D01*
X119867800Y-96672400D01*
X119715400Y-96824800D01*
X113299972Y-96824800D01*
X113284447Y-96746753D01*
X113086909Y-96451116D01*
X113101584Y-96448197D01*
X113299352Y-96316052D01*
X114731053Y-94884352D01*
X114857584Y-94694984D01*
X114863197Y-94686584D01*
X114900560Y-94498743D01*
X119715400Y-94498743D01*
X119715400Y-96215200D01*
X119867800Y-96367600D01*
X122652600Y-96367600D01*
X122652600Y-94162800D01*
X122957400Y-94162800D01*
X122957400Y-96367600D01*
X122977400Y-96367600D01*
X122977400Y-96672400D01*
X122957400Y-96672400D01*
X122957400Y-98877200D01*
X123109800Y-99029600D01*
X125406257Y-99029600D01*
X125630311Y-98936794D01*
X125801794Y-98765311D01*
X125834739Y-98685774D01*
X125885000Y-98695771D01*
X127325000Y-98695771D01*
X127443927Y-98672115D01*
X127544748Y-98604748D01*
X127612115Y-98503927D01*
X127635771Y-98385000D01*
X127635771Y-96785000D01*
X127612115Y-96666073D01*
X127570200Y-96603343D01*
X127570200Y-96436657D01*
X127612115Y-96373927D01*
X127635771Y-96255000D01*
X127635771Y-94655000D01*
X127612115Y-94536073D01*
X127570200Y-94473343D01*
X127570200Y-93791100D01*
X127496729Y-93421734D01*
X127496729Y-93421733D01*
X127330200Y-93172506D01*
X127330200Y-91088909D01*
X127392748Y-91076467D01*
X127510373Y-90997873D01*
X127588967Y-90880248D01*
X127616566Y-90741500D01*
X127616566Y-86550500D01*
X127588967Y-86411752D01*
X127510373Y-86294127D01*
X127392748Y-86215533D01*
X127254000Y-86187934D01*
X125476000Y-86187934D01*
X125337252Y-86215533D01*
X125219627Y-86294127D01*
X125141033Y-86411752D01*
X125113434Y-86550500D01*
X125113434Y-90741500D01*
X125141033Y-90880248D01*
X125219627Y-90997873D01*
X125337252Y-91076467D01*
X125399800Y-91088909D01*
X125399800Y-93551100D01*
X125468902Y-93898503D01*
X125473271Y-93920466D01*
X125582005Y-94083197D01*
X125406257Y-94010400D01*
X123109800Y-94010400D01*
X122957400Y-94162800D01*
X122652600Y-94162800D01*
X122500200Y-94010400D01*
X120203743Y-94010400D01*
X119979689Y-94103206D01*
X119808206Y-94274689D01*
X119715400Y-94498743D01*
X114900560Y-94498743D01*
X114909600Y-94453300D01*
X114909600Y-83334556D01*
X115171085Y-83159837D01*
X115438127Y-82760180D01*
X115524197Y-82327477D01*
X116026840Y-82327477D01*
X116343259Y-83093270D01*
X116928648Y-83679682D01*
X117693888Y-83997437D01*
X118522477Y-83998160D01*
X119288270Y-83681741D01*
X119874682Y-83096352D01*
X120192437Y-82331112D01*
X120193160Y-81502523D01*
X119876741Y-80736730D01*
X119291352Y-80150318D01*
X118526112Y-79832563D01*
X117697523Y-79831840D01*
X116931730Y-80148259D01*
X116345318Y-80733648D01*
X116027563Y-81498888D01*
X116026840Y-82327477D01*
X115524197Y-82327477D01*
X115531900Y-82288752D01*
X115531900Y-81541248D01*
X115438127Y-81069820D01*
X115171085Y-80670163D01*
X114771428Y-80403121D01*
X114300000Y-80309348D01*
X113828572Y-80403121D01*
X113428915Y-80670163D01*
X113161873Y-81069820D01*
X113068100Y-81541248D01*
X113068100Y-82288752D01*
X113161873Y-82760180D01*
X113428915Y-83159837D01*
X113690400Y-83334556D01*
X113690400Y-94200795D01*
X113350810Y-94540385D01*
X113284447Y-94206753D01*
X113053194Y-93860658D01*
X112707099Y-93629405D01*
X112298852Y-93548200D01*
X112244944Y-93548200D01*
X112514342Y-93368194D01*
X112745595Y-93022099D01*
X112826800Y-92613852D01*
X112826800Y-91536148D01*
X112745595Y-91127901D01*
X112514342Y-90781806D01*
X112369600Y-90685093D01*
X112369600Y-83334556D01*
X112631085Y-83159837D01*
X112898127Y-82760180D01*
X112991900Y-82288752D01*
X112991900Y-81541248D01*
X112898127Y-81069820D01*
X112631085Y-80670163D01*
X112231428Y-80403121D01*
X111760000Y-80309348D01*
X111288572Y-80403121D01*
X110888915Y-80670163D01*
X110621873Y-81069820D01*
X110528100Y-81541248D01*
X110528100Y-82288752D01*
X110621873Y-82760180D01*
X110888915Y-83159837D01*
X111150400Y-83334556D01*
X111150400Y-90685093D01*
X111005658Y-90781806D01*
X110774405Y-91127901D01*
X110693200Y-91536148D01*
X110693200Y-92613852D01*
X110774405Y-93022099D01*
X111005658Y-93368194D01*
X111275056Y-93548200D01*
X111221148Y-93548200D01*
X110812901Y-93629405D01*
X110466806Y-93860658D01*
X110235553Y-94206753D01*
X110154348Y-94615000D01*
X110235553Y-95023247D01*
X110444633Y-95336158D01*
X110394969Y-95369342D01*
X110268348Y-95453947D01*
X108788948Y-96933348D01*
X108656803Y-97131116D01*
X108610400Y-97364400D01*
X108610400Y-97797093D01*
X108503524Y-97868505D01*
X108459252Y-97802247D01*
X104304863Y-93647859D01*
X104548247Y-93599447D01*
X104894342Y-93368194D01*
X105125595Y-93022099D01*
X105206800Y-92613852D01*
X105206800Y-91536148D01*
X105125595Y-91127901D01*
X104894342Y-90781806D01*
X104749600Y-90685093D01*
X104749600Y-83334556D01*
X105011085Y-83159837D01*
X105278127Y-82760180D01*
X105371900Y-82288752D01*
X105371900Y-81541248D01*
X105448100Y-81541248D01*
X105448100Y-82288752D01*
X105541873Y-82760180D01*
X105808915Y-83159837D01*
X106070400Y-83334556D01*
X106070400Y-90685093D01*
X105925658Y-90781806D01*
X105694405Y-91127901D01*
X105613200Y-91536148D01*
X105613200Y-92613852D01*
X105694405Y-93022099D01*
X105925658Y-93368194D01*
X106271753Y-93599447D01*
X106680000Y-93680652D01*
X107088247Y-93599447D01*
X107434342Y-93368194D01*
X107665595Y-93022099D01*
X107746800Y-92613852D01*
X107746800Y-91536148D01*
X107665595Y-91127901D01*
X107434342Y-90781806D01*
X107289600Y-90685093D01*
X107289600Y-83334556D01*
X107551085Y-83159837D01*
X107818127Y-82760180D01*
X107911900Y-82288752D01*
X107911900Y-81541248D01*
X107988100Y-81541248D01*
X107988100Y-82288752D01*
X108081873Y-82760180D01*
X108348915Y-83159837D01*
X108610400Y-83334556D01*
X108610400Y-90685093D01*
X108465658Y-90781806D01*
X108234405Y-91127901D01*
X108153200Y-91536148D01*
X108153200Y-92613852D01*
X108234405Y-93022099D01*
X108465658Y-93368194D01*
X108811753Y-93599447D01*
X109220000Y-93680652D01*
X109628247Y-93599447D01*
X109974342Y-93368194D01*
X110205595Y-93022099D01*
X110286800Y-92613852D01*
X110286800Y-91536148D01*
X110205595Y-91127901D01*
X109974342Y-90781806D01*
X109829600Y-90685093D01*
X109829600Y-83334556D01*
X110091085Y-83159837D01*
X110358127Y-82760180D01*
X110451900Y-82288752D01*
X110451900Y-81541248D01*
X110358127Y-81069820D01*
X110091085Y-80670163D01*
X109691428Y-80403121D01*
X109220000Y-80309348D01*
X108748572Y-80403121D01*
X108348915Y-80670163D01*
X108081873Y-81069820D01*
X107988100Y-81541248D01*
X107911900Y-81541248D01*
X107818127Y-81069820D01*
X107551085Y-80670163D01*
X107151428Y-80403121D01*
X106680000Y-80309348D01*
X106208572Y-80403121D01*
X105808915Y-80670163D01*
X105541873Y-81069820D01*
X105448100Y-81541248D01*
X105371900Y-81541248D01*
X105278127Y-81069820D01*
X105011085Y-80670163D01*
X104611428Y-80403121D01*
X104140000Y-80309348D01*
X103668572Y-80403121D01*
X103268915Y-80670163D01*
X103001873Y-81069820D01*
X102908100Y-81541248D01*
X102908100Y-82288752D01*
X103001873Y-82760180D01*
X103268915Y-83159837D01*
X103530400Y-83334556D01*
X103530400Y-90685093D01*
X103479600Y-90719036D01*
X103479600Y-90142100D01*
X103433197Y-89908816D01*
X103301052Y-89711048D01*
X102209600Y-88619596D01*
X102209600Y-83334556D01*
X102471085Y-83159837D01*
X102738127Y-82760180D01*
X102831900Y-82288752D01*
X102831900Y-81541248D01*
X102738127Y-81069820D01*
X102471085Y-80670163D01*
X102071428Y-80403121D01*
X101600000Y-80309348D01*
X101128572Y-80403121D01*
X100728915Y-80670163D01*
X100461873Y-81069820D01*
X100368100Y-81541248D01*
X100368100Y-82288752D01*
X100386038Y-82378934D01*
X100291900Y-82284796D01*
X100291900Y-81541248D01*
X100198127Y-81069820D01*
X99931085Y-80670163D01*
X99531428Y-80403121D01*
X99060000Y-80309348D01*
X98588572Y-80403121D01*
X98188915Y-80670163D01*
X97921873Y-81069820D01*
X97828100Y-81541248D01*
X97751900Y-81541248D01*
X97658127Y-81069820D01*
X97391085Y-80670163D01*
X96991428Y-80403121D01*
X96520000Y-80309348D01*
X96048572Y-80403121D01*
X95648915Y-80670163D01*
X95381873Y-81069820D01*
X95288100Y-81541248D01*
X95211900Y-81541248D01*
X95118127Y-81069820D01*
X94851085Y-80670163D01*
X94451428Y-80403121D01*
X93980000Y-80309348D01*
X93508572Y-80403121D01*
X93108915Y-80670163D01*
X92841873Y-81069820D01*
X92748100Y-81541248D01*
X92671900Y-81541248D01*
X92578127Y-81069820D01*
X92311085Y-80670163D01*
X91911428Y-80403121D01*
X91440000Y-80309348D01*
X90968572Y-80403121D01*
X90568915Y-80670163D01*
X90301873Y-81069820D01*
X90208100Y-81541248D01*
X90131900Y-81541248D01*
X90038127Y-81069820D01*
X89771085Y-80670163D01*
X89371428Y-80403121D01*
X88900000Y-80309348D01*
X88428572Y-80403121D01*
X88028915Y-80670163D01*
X87761873Y-81069820D01*
X87668100Y-81541248D01*
X87668100Y-82288752D01*
X87761873Y-82760180D01*
X88028915Y-83159837D01*
X88290400Y-83334556D01*
X88290400Y-83614800D01*
X88336803Y-83848084D01*
X88344500Y-83859603D01*
X88344500Y-84737195D01*
X86969600Y-83362296D01*
X86969600Y-83334556D01*
X87231085Y-83159837D01*
X87498127Y-82760180D01*
X87591900Y-82288752D01*
X87591900Y-81541248D01*
X87498127Y-81069820D01*
X87231085Y-80670163D01*
X86831428Y-80403121D01*
X86360000Y-80309348D01*
X85888572Y-80403121D01*
X85488915Y-80670163D01*
X85221873Y-81069820D01*
X85128100Y-81541248D01*
X85128100Y-82288752D01*
X85221873Y-82760180D01*
X85488915Y-83159837D01*
X85750400Y-83334556D01*
X85750400Y-83497651D01*
X85725784Y-83481203D01*
X85492500Y-83434800D01*
X84251607Y-83434800D01*
X84291428Y-83426879D01*
X84691085Y-83159837D01*
X84958127Y-82760180D01*
X85051900Y-82288752D01*
X85051900Y-81541248D01*
X84958127Y-81069820D01*
X84691085Y-80670163D01*
X84291428Y-80403121D01*
X83820000Y-80309348D01*
X83348572Y-80403121D01*
X82948915Y-80670163D01*
X82681873Y-81069820D01*
X82588100Y-81541248D01*
X82588100Y-82288752D01*
X82606038Y-82378934D01*
X82511900Y-82284796D01*
X82511900Y-81541248D01*
X82418127Y-81069820D01*
X82151085Y-80670163D01*
X81751428Y-80403121D01*
X81280000Y-80309348D01*
X80808572Y-80403121D01*
X80408915Y-80670163D01*
X80141873Y-81069820D01*
X80048100Y-81541248D01*
X80048100Y-82288752D01*
X80141873Y-82760180D01*
X80408915Y-83159837D01*
X80808572Y-83426879D01*
X81280000Y-83520652D01*
X81751428Y-83426879D01*
X81858339Y-83355443D01*
X82978347Y-84475452D01*
X83086546Y-84547748D01*
X83176116Y-84607597D01*
X83409400Y-84654000D01*
X85239996Y-84654000D01*
X86187996Y-85602000D01*
X81658098Y-85602000D01*
X79705200Y-83649102D01*
X79705200Y-83109659D01*
X79925060Y-82780615D01*
X80022700Y-82289747D01*
X80022700Y-81540253D01*
X79925060Y-81049385D01*
X79647006Y-80633247D01*
X79230868Y-80355193D01*
X78740000Y-80257553D01*
X78249132Y-80355193D01*
X77832994Y-80633247D01*
X77736700Y-80777361D01*
X77736700Y-80523743D01*
X77643894Y-80299689D01*
X77472411Y-80128206D01*
X77248357Y-80035400D01*
X76504800Y-80035400D01*
X76352400Y-80187800D01*
X76352400Y-81762600D01*
X76372400Y-81762600D01*
X76372400Y-82067400D01*
X76352400Y-82067400D01*
X76352400Y-83642200D01*
X76504800Y-83794600D01*
X77248357Y-83794600D01*
X77472411Y-83701794D01*
X77643894Y-83530311D01*
X77736700Y-83306257D01*
X77736700Y-83052639D01*
X77774800Y-83109659D01*
X77774800Y-84048900D01*
X77820308Y-84277684D01*
X77848271Y-84418266D01*
X78057501Y-84731399D01*
X78489010Y-85162908D01*
X77886112Y-84912563D01*
X77057523Y-84911840D01*
X76291730Y-85228259D01*
X75705318Y-85813648D01*
X75387563Y-86578888D01*
X75386840Y-87407477D01*
X75703259Y-88173270D01*
X76288648Y-88759682D01*
X77053888Y-89077437D01*
X77882477Y-89078160D01*
X78488237Y-88827865D01*
X78057501Y-89258601D01*
X77848271Y-89571734D01*
X77774800Y-89941100D01*
X77774800Y-90513098D01*
X77721627Y-90548627D01*
X77643033Y-90666252D01*
X77615434Y-90805000D01*
X77615434Y-93243700D01*
X74407798Y-93243700D01*
X74287604Y-93123506D01*
X74287600Y-93123500D01*
X74287597Y-93123498D01*
X72814200Y-91650102D01*
X72814200Y-91499952D01*
X72900373Y-91442373D01*
X72978967Y-91324748D01*
X73006566Y-91186000D01*
X73006566Y-88919170D01*
X75884473Y-91797077D01*
X75826330Y-91937101D01*
X75826070Y-92235191D01*
X75939904Y-92510690D01*
X76150501Y-92721656D01*
X76425801Y-92835970D01*
X76723891Y-92836230D01*
X76999390Y-92722396D01*
X77210356Y-92511799D01*
X77324670Y-92236499D01*
X77324930Y-91938409D01*
X77211096Y-91662910D01*
X77185100Y-91636868D01*
X77185100Y-91626000D01*
X77138697Y-91392716D01*
X77006552Y-91194948D01*
X68904466Y-83092862D01*
X68933155Y-83049927D01*
X68956811Y-82931000D01*
X68956811Y-80264000D01*
X70743189Y-80264000D01*
X70743189Y-82931000D01*
X70766845Y-83049927D01*
X70834212Y-83150748D01*
X70935033Y-83218115D01*
X71053960Y-83241771D01*
X72644000Y-83241771D01*
X72762927Y-83218115D01*
X72863748Y-83150748D01*
X72931115Y-83049927D01*
X72954771Y-82931000D01*
X72954771Y-82219800D01*
X74663300Y-82219800D01*
X74663300Y-83306257D01*
X74756106Y-83530311D01*
X74927589Y-83701794D01*
X75151643Y-83794600D01*
X75895200Y-83794600D01*
X76047600Y-83642200D01*
X76047600Y-82067400D01*
X74815700Y-82067400D01*
X74663300Y-82219800D01*
X72954771Y-82219800D01*
X72954771Y-80523743D01*
X74663300Y-80523743D01*
X74663300Y-81610200D01*
X74815700Y-81762600D01*
X76047600Y-81762600D01*
X76047600Y-80187800D01*
X75895200Y-80035400D01*
X75151643Y-80035400D01*
X74927589Y-80128206D01*
X74756106Y-80299689D01*
X74663300Y-80523743D01*
X72954771Y-80523743D01*
X72954771Y-80264000D01*
X72931115Y-80145073D01*
X72863748Y-80044252D01*
X72762927Y-79976885D01*
X72644000Y-79953229D01*
X71053960Y-79953229D01*
X70935033Y-79976885D01*
X70834212Y-80044252D01*
X70766845Y-80145073D01*
X70743189Y-80264000D01*
X68956811Y-80264000D01*
X68933155Y-80145073D01*
X68865788Y-80044252D01*
X68764967Y-79976885D01*
X68646040Y-79953229D01*
X67056000Y-79953229D01*
X66937073Y-79976885D01*
X66836252Y-80044252D01*
X66768885Y-80145073D01*
X66745229Y-80264000D01*
X63524836Y-80264000D01*
X63411352Y-80150318D01*
X62646112Y-79832563D01*
X61817523Y-79831840D01*
X61051730Y-80148259D01*
X60465318Y-80733648D01*
X60147563Y-81498888D01*
X60146840Y-82327477D01*
X60109100Y-82327477D01*
X60109100Y-79794100D01*
X121202829Y-79794100D01*
X121202829Y-84328000D01*
X121202829Y-84328000D01*
G37*
X121202829Y-84328000D02*
X121226485Y-84446927D01*
X121293852Y-84547748D01*
X121394673Y-84615115D01*
X121513600Y-84638771D01*
X123365563Y-84638771D01*
X123101939Y-84901934D01*
X122948874Y-85270556D01*
X122948526Y-85669693D01*
X122996219Y-85785117D01*
X122882444Y-85737874D01*
X122483307Y-85737526D01*
X122114419Y-85889948D01*
X121831939Y-86171934D01*
X121678874Y-86540556D01*
X121678526Y-86939693D01*
X121830948Y-87308581D01*
X122112934Y-87591061D01*
X122481556Y-87744126D01*
X122880693Y-87744474D01*
X123249581Y-87592052D01*
X123532061Y-87310066D01*
X123685126Y-86941444D01*
X123685474Y-86542307D01*
X123637781Y-86426883D01*
X123751556Y-86474126D01*
X124150693Y-86474474D01*
X124519581Y-86322052D01*
X124802061Y-86040066D01*
X124955126Y-85671444D01*
X124955474Y-85272307D01*
X124803052Y-84903419D01*
X124521066Y-84620939D01*
X124457385Y-84594496D01*
X124527348Y-84547748D01*
X124594715Y-84446927D01*
X124618371Y-84328000D01*
X124618371Y-79794100D01*
X130651629Y-79794100D01*
X130651629Y-84328000D01*
X130675285Y-84446927D01*
X130742652Y-84547748D01*
X130812386Y-84594343D01*
X130750419Y-84619948D01*
X130467939Y-84901934D01*
X130314874Y-85270556D01*
X130314526Y-85669693D01*
X130466948Y-86038581D01*
X130748934Y-86321061D01*
X131117556Y-86474126D01*
X131516693Y-86474474D01*
X131632117Y-86426781D01*
X131584874Y-86540556D01*
X131584526Y-86939693D01*
X131736948Y-87308581D01*
X132018934Y-87591061D01*
X132387556Y-87744126D01*
X132786693Y-87744474D01*
X133155581Y-87592052D01*
X133438061Y-87310066D01*
X133591126Y-86941444D01*
X133591474Y-86542307D01*
X133439052Y-86173419D01*
X133157066Y-85890939D01*
X132788444Y-85737874D01*
X132389307Y-85737526D01*
X132273883Y-85785219D01*
X132321126Y-85671444D01*
X132321474Y-85272307D01*
X132169052Y-84903419D01*
X131904867Y-84638771D01*
X133756400Y-84638771D01*
X133875327Y-84615115D01*
X133976148Y-84547748D01*
X134043515Y-84446927D01*
X134067171Y-84328000D01*
X134067171Y-82327477D01*
X138886840Y-82327477D01*
X139203259Y-83093270D01*
X139788648Y-83679682D01*
X140553888Y-83997437D01*
X141382477Y-83998160D01*
X142148270Y-83681741D01*
X142734682Y-83096352D01*
X143052437Y-82331112D01*
X143053160Y-81502523D01*
X142736741Y-80736730D01*
X142151352Y-80150318D01*
X141386112Y-79832563D01*
X140557523Y-79831840D01*
X139791730Y-80148259D01*
X139205318Y-80733648D01*
X138887563Y-81498888D01*
X138886840Y-82327477D01*
X134067171Y-82327477D01*
X134067171Y-79794100D01*
X143090900Y-79794100D01*
X143090900Y-119595900D01*
X134067171Y-119595900D01*
X134067171Y-117887477D01*
X138886840Y-117887477D01*
X139203259Y-118653270D01*
X139788648Y-119239682D01*
X140553888Y-119557437D01*
X141382477Y-119558160D01*
X142148270Y-119241741D01*
X142734682Y-118656352D01*
X143052437Y-117891112D01*
X143053160Y-117062523D01*
X142736741Y-116296730D01*
X142151352Y-115710318D01*
X141386112Y-115392563D01*
X140557523Y-115391840D01*
X139791730Y-115708259D01*
X139205318Y-116293648D01*
X138887563Y-117058888D01*
X138886840Y-117887477D01*
X134067171Y-117887477D01*
X134067171Y-115062000D01*
X134043515Y-114943073D01*
X133976148Y-114842252D01*
X133875327Y-114774885D01*
X133756400Y-114751229D01*
X131904437Y-114751229D01*
X132168061Y-114488066D01*
X132321126Y-114119444D01*
X132321474Y-113720307D01*
X132273781Y-113604883D01*
X132387556Y-113652126D01*
X132786693Y-113652474D01*
X133155581Y-113500052D01*
X133438061Y-113218066D01*
X133591126Y-112849444D01*
X133591474Y-112450307D01*
X133439052Y-112081419D01*
X133157066Y-111798939D01*
X132788444Y-111645874D01*
X132389307Y-111645526D01*
X132020419Y-111797948D01*
X131737939Y-112079934D01*
X131584874Y-112448556D01*
X131584526Y-112847693D01*
X131632219Y-112963117D01*
X131518444Y-112915874D01*
X131119307Y-112915526D01*
X130750419Y-113067948D01*
X130467939Y-113349934D01*
X130314874Y-113718556D01*
X130314526Y-114117693D01*
X130466948Y-114486581D01*
X130748934Y-114769061D01*
X130812615Y-114795504D01*
X130742652Y-114842252D01*
X130675285Y-114943073D01*
X130651629Y-115062000D01*
X130651629Y-119595900D01*
X124618371Y-119595900D01*
X124618371Y-115062000D01*
X124594715Y-114943073D01*
X124527348Y-114842252D01*
X124457614Y-114795657D01*
X124519581Y-114770052D01*
X124802061Y-114488066D01*
X124955126Y-114119444D01*
X124955474Y-113720307D01*
X124803052Y-113351419D01*
X124521066Y-113068939D01*
X124152444Y-112915874D01*
X123753307Y-112915526D01*
X123637883Y-112963219D01*
X123685126Y-112849444D01*
X123685474Y-112450307D01*
X123533052Y-112081419D01*
X123251066Y-111798939D01*
X122882444Y-111645874D01*
X122483307Y-111645526D01*
X122114419Y-111797948D01*
X121831939Y-112079934D01*
X121678874Y-112448556D01*
X121678526Y-112847693D01*
X121830948Y-113216581D01*
X122112934Y-113499061D01*
X122481556Y-113652126D01*
X122880693Y-113652474D01*
X122996117Y-113604781D01*
X122948874Y-113718556D01*
X122948526Y-114117693D01*
X123100948Y-114486581D01*
X123365133Y-114751229D01*
X121513600Y-114751229D01*
X121394673Y-114774885D01*
X121293852Y-114842252D01*
X121226485Y-114943073D01*
X121202829Y-115062000D01*
X121202829Y-119595900D01*
X60109100Y-119595900D01*
X60109100Y-117887477D01*
X60146840Y-117887477D01*
X60463259Y-118653270D01*
X61048648Y-119239682D01*
X61813888Y-119557437D01*
X62642477Y-119558160D01*
X63408270Y-119241741D01*
X63994682Y-118656352D01*
X64312437Y-117891112D01*
X64313127Y-117100253D01*
X74917300Y-117100253D01*
X74917300Y-117849747D01*
X75014940Y-118340615D01*
X75292994Y-118756753D01*
X75709132Y-119034807D01*
X76200000Y-119132447D01*
X76690868Y-119034807D01*
X77107006Y-118756753D01*
X77385060Y-118340615D01*
X77470000Y-117913594D01*
X77554940Y-118340615D01*
X77832994Y-118756753D01*
X78249132Y-119034807D01*
X78740000Y-119132447D01*
X79230868Y-119034807D01*
X79647006Y-118756753D01*
X79925060Y-118340615D01*
X80010000Y-117913594D01*
X80094940Y-118340615D01*
X80372994Y-118756753D01*
X80789132Y-119034807D01*
X81280000Y-119132447D01*
X81770868Y-119034807D01*
X82187006Y-118756753D01*
X82465060Y-118340615D01*
X82550000Y-117913594D01*
X82634940Y-118340615D01*
X82912994Y-118756753D01*
X83329132Y-119034807D01*
X83820000Y-119132447D01*
X84310868Y-119034807D01*
X84727006Y-118756753D01*
X85005060Y-118340615D01*
X85102700Y-117849747D01*
X85102700Y-117101248D01*
X85128100Y-117101248D01*
X85128100Y-117848752D01*
X85221873Y-118320180D01*
X85488915Y-118719837D01*
X85888572Y-118986879D01*
X86360000Y-119080652D01*
X86831428Y-118986879D01*
X87231085Y-118719837D01*
X87498127Y-118320180D01*
X87591900Y-117848752D01*
X87591900Y-117101248D01*
X87668100Y-117101248D01*
X87668100Y-117848752D01*
X87761873Y-118320180D01*
X88028915Y-118719837D01*
X88428572Y-118986879D01*
X88900000Y-119080652D01*
X89371428Y-118986879D01*
X89771085Y-118719837D01*
X90038127Y-118320180D01*
X90131900Y-117848752D01*
X90131900Y-117101248D01*
X90208100Y-117101248D01*
X90208100Y-117848752D01*
X90301873Y-118320180D01*
X90568915Y-118719837D01*
X90968572Y-118986879D01*
X91440000Y-119080652D01*
X91911428Y-118986879D01*
X92311085Y-118719837D01*
X92578127Y-118320180D01*
X92671900Y-117848752D01*
X92671900Y-117101248D01*
X92748100Y-117101248D01*
X92748100Y-117848752D01*
X92841873Y-118320180D01*
X93108915Y-118719837D01*
X93508572Y-118986879D01*
X93980000Y-119080652D01*
X94451428Y-118986879D01*
X94851085Y-118719837D01*
X95118127Y-118320180D01*
X95211900Y-117848752D01*
X95211900Y-117101248D01*
X95288100Y-117101248D01*
X95288100Y-117848752D01*
X95381873Y-118320180D01*
X95648915Y-118719837D01*
X96048572Y-118986879D01*
X96520000Y-119080652D01*
X96991428Y-118986879D01*
X97391085Y-118719837D01*
X97658127Y-118320180D01*
X97751900Y-117848752D01*
X97751900Y-117101248D01*
X97828100Y-117101248D01*
X97828100Y-117848752D01*
X97921873Y-118320180D01*
X98188915Y-118719837D01*
X98588572Y-118986879D01*
X99060000Y-119080652D01*
X99531428Y-118986879D01*
X99931085Y-118719837D01*
X100198127Y-118320180D01*
X100291900Y-117848752D01*
X100291900Y-117101248D01*
X100368100Y-117101248D01*
X100368100Y-117848752D01*
X100461873Y-118320180D01*
X100728915Y-118719837D01*
X101128572Y-118986879D01*
X101600000Y-119080652D01*
X102071428Y-118986879D01*
X102471085Y-118719837D01*
X102738127Y-118320180D01*
X102831900Y-117848752D01*
X102831900Y-117101248D01*
X102908100Y-117101248D01*
X102908100Y-117848752D01*
X103001873Y-118320180D01*
X103268915Y-118719837D01*
X103668572Y-118986879D01*
X104140000Y-119080652D01*
X104611428Y-118986879D01*
X105011085Y-118719837D01*
X105278127Y-118320180D01*
X105371900Y-117848752D01*
X105371900Y-117101248D01*
X105448100Y-117101248D01*
X105448100Y-117848752D01*
X105541873Y-118320180D01*
X105808915Y-118719837D01*
X106208572Y-118986879D01*
X106680000Y-119080652D01*
X107151428Y-118986879D01*
X107551085Y-118719837D01*
X107818127Y-118320180D01*
X107911900Y-117848752D01*
X107911900Y-117101248D01*
X107988100Y-117101248D01*
X107988100Y-117848752D01*
X108081873Y-118320180D01*
X108348915Y-118719837D01*
X108748572Y-118986879D01*
X109220000Y-119080652D01*
X109691428Y-118986879D01*
X110091085Y-118719837D01*
X110358127Y-118320180D01*
X110451900Y-117848752D01*
X110451900Y-117101248D01*
X110528100Y-117101248D01*
X110528100Y-117848752D01*
X110621873Y-118320180D01*
X110888915Y-118719837D01*
X111288572Y-118986879D01*
X111760000Y-119080652D01*
X112231428Y-118986879D01*
X112631085Y-118719837D01*
X112898127Y-118320180D01*
X112991900Y-117848752D01*
X112991900Y-117101248D01*
X113068100Y-117101248D01*
X113068100Y-117848752D01*
X113161873Y-118320180D01*
X113428915Y-118719837D01*
X113828572Y-118986879D01*
X114300000Y-119080652D01*
X114771428Y-118986879D01*
X115171085Y-118719837D01*
X115438127Y-118320180D01*
X115524197Y-117887477D01*
X116026840Y-117887477D01*
X116343259Y-118653270D01*
X116928648Y-119239682D01*
X117693888Y-119557437D01*
X118522477Y-119558160D01*
X119288270Y-119241741D01*
X119874682Y-118656352D01*
X120192437Y-117891112D01*
X120193160Y-117062523D01*
X119876741Y-116296730D01*
X119291352Y-115710318D01*
X118526112Y-115392563D01*
X117697523Y-115391840D01*
X116931730Y-115708259D01*
X116345318Y-116293648D01*
X116027563Y-117058888D01*
X116026840Y-117887477D01*
X115524197Y-117887477D01*
X115531900Y-117848752D01*
X115531900Y-117101248D01*
X115438127Y-116629820D01*
X115171085Y-116230163D01*
X114771428Y-115963121D01*
X114300000Y-115869348D01*
X113828572Y-115963121D01*
X113428915Y-116230163D01*
X113161873Y-116629820D01*
X113068100Y-117101248D01*
X112991900Y-117101248D01*
X112898127Y-116629820D01*
X112631085Y-116230163D01*
X112231428Y-115963121D01*
X111760000Y-115869348D01*
X111288572Y-115963121D01*
X110888915Y-116230163D01*
X110621873Y-116629820D01*
X110528100Y-117101248D01*
X110451900Y-117101248D01*
X110358127Y-116629820D01*
X110091085Y-116230163D01*
X109691428Y-115963121D01*
X109220000Y-115869348D01*
X108748572Y-115963121D01*
X108348915Y-116230163D01*
X108081873Y-116629820D01*
X107988100Y-117101248D01*
X107911900Y-117101248D01*
X107818127Y-116629820D01*
X107551085Y-116230163D01*
X107151428Y-115963121D01*
X106680000Y-115869348D01*
X106208572Y-115963121D01*
X105808915Y-116230163D01*
X105541873Y-116629820D01*
X105448100Y-117101248D01*
X105371900Y-117101248D01*
X105278127Y-116629820D01*
X105011085Y-116230163D01*
X104611428Y-115963121D01*
X104140000Y-115869348D01*
X103668572Y-115963121D01*
X103268915Y-116230163D01*
X103001873Y-116629820D01*
X102908100Y-117101248D01*
X102831900Y-117101248D01*
X102738127Y-116629820D01*
X102471085Y-116230163D01*
X102071428Y-115963121D01*
X101600000Y-115869348D01*
X101128572Y-115963121D01*
X100728915Y-116230163D01*
X100461873Y-116629820D01*
X100368100Y-117101248D01*
X100291900Y-117101248D01*
X100198127Y-116629820D01*
X99931085Y-116230163D01*
X99531428Y-115963121D01*
X99060000Y-115869348D01*
X98588572Y-115963121D01*
X98188915Y-116230163D01*
X97921873Y-116629820D01*
X97828100Y-117101248D01*
X97751900Y-117101248D01*
X97658127Y-116629820D01*
X97391085Y-116230163D01*
X96991428Y-115963121D01*
X96520000Y-115869348D01*
X96048572Y-115963121D01*
X95648915Y-116230163D01*
X95381873Y-116629820D01*
X95288100Y-117101248D01*
X95211900Y-117101248D01*
X95118127Y-116629820D01*
X94851085Y-116230163D01*
X94451428Y-115963121D01*
X93980000Y-115869348D01*
X93508572Y-115963121D01*
X93108915Y-116230163D01*
X92841873Y-116629820D01*
X92748100Y-117101248D01*
X92671900Y-117101248D01*
X92578127Y-116629820D01*
X92311085Y-116230163D01*
X91911428Y-115963121D01*
X91440000Y-115869348D01*
X90968572Y-115963121D01*
X90568915Y-116230163D01*
X90301873Y-116629820D01*
X90208100Y-117101248D01*
X90131900Y-117101248D01*
X90038127Y-116629820D01*
X89771085Y-116230163D01*
X89371428Y-115963121D01*
X88900000Y-115869348D01*
X88428572Y-115963121D01*
X88028915Y-116230163D01*
X87761873Y-116629820D01*
X87668100Y-117101248D01*
X87591900Y-117101248D01*
X87498127Y-116629820D01*
X87231085Y-116230163D01*
X86831428Y-115963121D01*
X86360000Y-115869348D01*
X85888572Y-115963121D01*
X85488915Y-116230163D01*
X85221873Y-116629820D01*
X85128100Y-117101248D01*
X85102700Y-117101248D01*
X85102700Y-117100253D01*
X85005060Y-116609385D01*
X84727006Y-116193247D01*
X84310868Y-115915193D01*
X83820000Y-115817553D01*
X83329132Y-115915193D01*
X82912994Y-116193247D01*
X82634940Y-116609385D01*
X82550000Y-117036406D01*
X82465060Y-116609385D01*
X82187006Y-116193247D01*
X81770868Y-115915193D01*
X81280000Y-115817553D01*
X80789132Y-115915193D01*
X80372994Y-116193247D01*
X80094940Y-116609385D01*
X80010000Y-117036406D01*
X79925060Y-116609385D01*
X79647006Y-116193247D01*
X79230868Y-115915193D01*
X78740000Y-115817553D01*
X78249132Y-115915193D01*
X77832994Y-116193247D01*
X77554940Y-116609385D01*
X77470000Y-117036406D01*
X77385060Y-116609385D01*
X77107006Y-116193247D01*
X76690868Y-115915193D01*
X76200000Y-115817553D01*
X75709132Y-115915193D01*
X75292994Y-116193247D01*
X75014940Y-116609385D01*
X74917300Y-117100253D01*
X64313127Y-117100253D01*
X64313160Y-117062523D01*
X63996741Y-116296730D01*
X63411352Y-115710318D01*
X63073429Y-115570000D01*
X65652553Y-115570000D01*
X65737625Y-115997687D01*
X65979890Y-116360263D01*
X66342466Y-116602528D01*
X66770153Y-116687600D01*
X67849847Y-116687600D01*
X68277534Y-116602528D01*
X68640110Y-116360263D01*
X68882375Y-115997687D01*
X68967447Y-115570000D01*
X68882375Y-115142313D01*
X68640110Y-114779737D01*
X68277534Y-114537472D01*
X67849847Y-114452400D01*
X66770153Y-114452400D01*
X66342466Y-114537472D01*
X65979890Y-114779737D01*
X65737625Y-115142313D01*
X65652553Y-115570000D01*
X63073429Y-115570000D01*
X62646112Y-115392563D01*
X61817523Y-115391840D01*
X61051730Y-115708259D01*
X60465318Y-116293648D01*
X60147563Y-117058888D01*
X60146840Y-117887477D01*
X60109100Y-117887477D01*
X60109100Y-113030000D01*
X65652553Y-113030000D01*
X65737625Y-113457687D01*
X65979890Y-113820263D01*
X66342466Y-114062528D01*
X66770153Y-114147600D01*
X67849847Y-114147600D01*
X68277534Y-114062528D01*
X68640110Y-113820263D01*
X68882375Y-113457687D01*
X68967447Y-113030000D01*
X68882375Y-112602313D01*
X68640110Y-112239737D01*
X68277534Y-111997472D01*
X67849847Y-111912400D01*
X66770153Y-111912400D01*
X66342466Y-111997472D01*
X65979890Y-112239737D01*
X65737625Y-112602313D01*
X65652553Y-113030000D01*
X60109100Y-113030000D01*
X60109100Y-110853761D01*
X65479516Y-110853761D01*
X65724369Y-111352104D01*
X66136312Y-111698872D01*
X66649600Y-111861600D01*
X67157600Y-111861600D01*
X67157600Y-110642400D01*
X67462400Y-110642400D01*
X67462400Y-111861600D01*
X67970400Y-111861600D01*
X68483688Y-111698872D01*
X68895631Y-111352104D01*
X69140484Y-110853761D01*
X69027637Y-110642400D01*
X67462400Y-110642400D01*
X67157600Y-110642400D01*
X65592363Y-110642400D01*
X65479516Y-110853761D01*
X60109100Y-110853761D01*
X60109100Y-110126239D01*
X65479516Y-110126239D01*
X65592363Y-110337600D01*
X67157600Y-110337600D01*
X67157600Y-109118400D01*
X67462400Y-109118400D01*
X67462400Y-110337600D01*
X69027637Y-110337600D01*
X69140484Y-110126239D01*
X68895631Y-109627896D01*
X68483688Y-109281128D01*
X67970400Y-109118400D01*
X67462400Y-109118400D01*
X67157600Y-109118400D01*
X66649600Y-109118400D01*
X66136312Y-109281128D01*
X65724369Y-109627896D01*
X65479516Y-110126239D01*
X60109100Y-110126239D01*
X60109100Y-104775000D01*
X60599467Y-104775000D01*
X60738676Y-105474851D01*
X61135110Y-106068157D01*
X61728416Y-106464591D01*
X62428267Y-106603800D01*
X64571733Y-106603800D01*
X65271584Y-106464591D01*
X65864890Y-106068157D01*
X66261324Y-105474851D01*
X66400533Y-104775000D01*
X66261324Y-104075149D01*
X65864890Y-103481843D01*
X65271584Y-103085409D01*
X64571733Y-102946200D01*
X62428267Y-102946200D01*
X61728416Y-103085409D01*
X61135110Y-103481843D01*
X60738676Y-104075149D01*
X60599467Y-104775000D01*
X60109100Y-104775000D01*
X60109100Y-94615000D01*
X60599467Y-94615000D01*
X60738676Y-95314851D01*
X61135110Y-95908157D01*
X61728416Y-96304591D01*
X62428267Y-96443800D01*
X64571733Y-96443800D01*
X65271584Y-96304591D01*
X65864890Y-95908157D01*
X66261324Y-95314851D01*
X66400533Y-94615000D01*
X66261324Y-93915149D01*
X65864890Y-93321843D01*
X65271584Y-92925409D01*
X64571733Y-92786200D01*
X62428267Y-92786200D01*
X61728416Y-92925409D01*
X61135110Y-93321843D01*
X60738676Y-93915149D01*
X60599467Y-94615000D01*
X60109100Y-94615000D01*
X60109100Y-88519000D01*
X66745229Y-88519000D01*
X66745229Y-91186000D01*
X66768885Y-91304927D01*
X66836252Y-91405748D01*
X66937073Y-91473115D01*
X67056000Y-91496771D01*
X68646040Y-91496771D01*
X68764967Y-91473115D01*
X68865788Y-91405748D01*
X68933155Y-91304927D01*
X68956811Y-91186000D01*
X68956811Y-88519000D01*
X68933155Y-88400073D01*
X68865788Y-88299252D01*
X68764967Y-88231885D01*
X68646040Y-88208229D01*
X67056000Y-88208229D01*
X66937073Y-88231885D01*
X66836252Y-88299252D01*
X66768885Y-88400073D01*
X66745229Y-88519000D01*
X60109100Y-88519000D01*
X60109100Y-82327477D01*
X60146840Y-82327477D01*
X60463259Y-83093270D01*
X61048648Y-83679682D01*
X61813888Y-83997437D01*
X62642477Y-83998160D01*
X63408270Y-83681741D01*
X63994682Y-83096352D01*
X64312437Y-82331112D01*
X64313160Y-81502523D01*
X63996741Y-80736730D01*
X63524836Y-80264000D01*
X66745229Y-80264000D01*
X66745229Y-82931000D01*
X66768885Y-83049927D01*
X66836252Y-83150748D01*
X66937073Y-83218115D01*
X67056000Y-83241771D01*
X67241400Y-83241771D01*
X67241400Y-83360800D01*
X67287803Y-83594084D01*
X67419948Y-83791852D01*
X67617716Y-83923997D01*
X67851000Y-83970400D01*
X68057796Y-83970400D01*
X72243830Y-88156434D01*
X71053960Y-88156434D01*
X70915212Y-88184033D01*
X70797587Y-88262627D01*
X70718993Y-88380252D01*
X70691394Y-88519000D01*
X70691394Y-91186000D01*
X70718993Y-91324748D01*
X70797587Y-91442373D01*
X70883800Y-91499978D01*
X70883800Y-92049900D01*
X70937543Y-92320084D01*
X70957271Y-92419266D01*
X71166501Y-92732399D01*
X72240101Y-93806000D01*
X71707501Y-94338601D01*
X71498271Y-94651734D01*
X71424800Y-95021100D01*
X71424800Y-96091678D01*
X71357472Y-96192442D01*
X71272400Y-96620129D01*
X71272400Y-97181871D01*
X71357472Y-97609558D01*
X71599737Y-97972134D01*
X71962313Y-98214399D01*
X72390000Y-98299471D01*
X72817687Y-98214399D01*
X72958666Y-98120200D01*
X73050700Y-98120200D01*
X73050700Y-98598212D01*
X72798247Y-98429529D01*
X72390000Y-98348324D01*
X71981753Y-98429529D01*
X71635658Y-98660782D01*
X71404405Y-99006877D01*
X71323200Y-99415124D01*
X71323200Y-99974876D01*
X71404405Y-100383123D01*
X71635658Y-100729218D01*
X71981753Y-100960471D01*
X72390000Y-101041676D01*
X72798247Y-100960471D01*
X73050700Y-100791788D01*
X73050700Y-101269800D01*
X72958666Y-101269800D01*
X72817687Y-101175601D01*
X72390000Y-101090529D01*
X71962313Y-101175601D01*
X71599737Y-101417866D01*
X71357472Y-101780442D01*
X71272400Y-102208129D01*
X71272400Y-102769871D01*
X71357472Y-103197558D01*
X71599737Y-103560134D01*
X71962313Y-103802399D01*
X72390000Y-103887471D01*
X72817687Y-103802399D01*
X73180263Y-103560134D01*
X73420763Y-103200200D01*
X74015900Y-103200200D01*
X74385266Y-103126729D01*
X74698399Y-102917499D01*
X74907629Y-102604366D01*
X74981100Y-102235000D01*
X74981100Y-97155000D01*
X74907629Y-96785634D01*
X74698399Y-96472501D01*
X74385266Y-96263271D01*
X74015900Y-96189800D01*
X73420763Y-96189800D01*
X73355200Y-96091678D01*
X73355200Y-95420898D01*
X73669358Y-95106740D01*
X74008000Y-95174100D01*
X78340202Y-95174100D01*
X81409701Y-98243600D01*
X81526916Y-98321921D01*
X81502434Y-98445000D01*
X81502434Y-100863942D01*
X81254441Y-100913271D01*
X81234834Y-100917171D01*
X81036778Y-101049509D01*
X81057566Y-100945000D01*
X81057566Y-98445000D01*
X81029967Y-98306252D01*
X80951373Y-98188627D01*
X80833748Y-98110033D01*
X80695000Y-98082434D01*
X77985000Y-98082434D01*
X77846252Y-98110033D01*
X77728627Y-98188627D01*
X77650033Y-98306252D01*
X77622434Y-98445000D01*
X77622434Y-100945000D01*
X77650033Y-101083748D01*
X77728627Y-101201373D01*
X77846252Y-101279967D01*
X77985000Y-101307566D01*
X78374800Y-101307566D01*
X78374800Y-101409101D01*
X78057501Y-101726401D01*
X77848271Y-102039534D01*
X77774800Y-102408900D01*
X77774800Y-104272100D01*
X76414100Y-104272100D01*
X76044734Y-104345571D01*
X75731601Y-104554800D01*
X71897901Y-108388501D01*
X71688671Y-108701634D01*
X71644153Y-108925448D01*
X70459600Y-107740896D01*
X70459600Y-100563345D01*
X70630218Y-100449342D01*
X70861471Y-100103247D01*
X70942676Y-99695000D01*
X70861471Y-99286753D01*
X70630218Y-98940658D01*
X70284123Y-98709405D01*
X69875876Y-98628200D01*
X69316124Y-98628200D01*
X68907877Y-98709405D01*
X68561782Y-98940658D01*
X68330529Y-99286753D01*
X68249324Y-99695000D01*
X68330529Y-100103247D01*
X68561782Y-100449342D01*
X68907877Y-100680595D01*
X69240400Y-100746738D01*
X69240400Y-107993400D01*
X69286803Y-108226684D01*
X69418948Y-108424452D01*
X71697448Y-110702953D01*
X71758880Y-110744000D01*
X71895216Y-110835097D01*
X72128500Y-110881500D01*
X74372400Y-110881500D01*
X74605684Y-110835097D01*
X74803452Y-110702952D01*
X75041704Y-110464700D01*
X76687573Y-110464700D01*
X76291730Y-110628259D01*
X75705318Y-111213648D01*
X75387563Y-111978888D01*
X75386840Y-112807477D01*
X75703259Y-113573270D01*
X76288648Y-114159682D01*
X77053888Y-114477437D01*
X77882477Y-114478160D01*
X78648270Y-114161741D01*
X79234682Y-113576352D01*
X79552437Y-112811112D01*
X79553160Y-111982523D01*
X79236741Y-111216730D01*
X79069104Y-111048800D01*
X124866400Y-111048800D01*
X124866400Y-112960757D01*
X124959206Y-113184811D01*
X125130689Y-113356294D01*
X125354743Y-113449100D01*
X126060200Y-113449100D01*
X126212600Y-113296700D01*
X126212600Y-110896400D01*
X125018800Y-110896400D01*
X124866400Y-111048800D01*
X79069104Y-111048800D01*
X78651352Y-110630318D01*
X78252499Y-110464700D01*
X93607100Y-110464700D01*
X93840384Y-110418297D01*
X94038152Y-110286152D01*
X95678253Y-108646052D01*
X95734603Y-108561717D01*
X95765658Y-108608194D01*
X96111753Y-108839447D01*
X96520000Y-108920652D01*
X96928247Y-108839447D01*
X97274342Y-108608194D01*
X97505595Y-108262099D01*
X97586800Y-107853852D01*
X97586800Y-106776148D01*
X97993200Y-106776148D01*
X97993200Y-107853852D01*
X98074405Y-108262099D01*
X98305658Y-108608194D01*
X98651753Y-108839447D01*
X99060000Y-108920652D01*
X99468247Y-108839447D01*
X99814342Y-108608194D01*
X100045595Y-108262099D01*
X100126800Y-107853852D01*
X100126800Y-106776148D01*
X100533200Y-106776148D01*
X100533200Y-107853852D01*
X100614405Y-108262099D01*
X100845658Y-108608194D01*
X101191753Y-108839447D01*
X101600000Y-108920652D01*
X102008247Y-108839447D01*
X102354342Y-108608194D01*
X102585595Y-108262099D01*
X102666800Y-107853852D01*
X102666800Y-106776148D01*
X103073200Y-106776148D01*
X103073200Y-107853852D01*
X103154405Y-108262099D01*
X103385658Y-108608194D01*
X103731753Y-108839447D01*
X104140000Y-108920652D01*
X104548247Y-108839447D01*
X104894342Y-108608194D01*
X105125595Y-108262099D01*
X105206800Y-107853852D01*
X105206800Y-106776148D01*
X105613200Y-106776148D01*
X105613200Y-107853852D01*
X105694405Y-108262099D01*
X105925658Y-108608194D01*
X106271753Y-108839447D01*
X106680000Y-108920652D01*
X107088247Y-108839447D01*
X107434342Y-108608194D01*
X107665595Y-108262099D01*
X107746800Y-107853852D01*
X107746800Y-106776148D01*
X108153200Y-106776148D01*
X108153200Y-107853852D01*
X108234405Y-108262099D01*
X108465658Y-108608194D01*
X108811753Y-108839447D01*
X109220000Y-108920652D01*
X109628247Y-108839447D01*
X109974342Y-108608194D01*
X110205595Y-108262099D01*
X110286800Y-107853852D01*
X110286800Y-106776148D01*
X110205595Y-106367901D01*
X109974342Y-106021806D01*
X109628247Y-105790553D01*
X109220000Y-105709348D01*
X108811753Y-105790553D01*
X108465658Y-106021806D01*
X108234405Y-106367901D01*
X108153200Y-106776148D01*
X107746800Y-106776148D01*
X107665595Y-106367901D01*
X107434342Y-106021806D01*
X107088247Y-105790553D01*
X106680000Y-105709348D01*
X106271753Y-105790553D01*
X105925658Y-106021806D01*
X105694405Y-106367901D01*
X105613200Y-106776148D01*
X105206800Y-106776148D01*
X105125595Y-106367901D01*
X104894342Y-106021806D01*
X104548247Y-105790553D01*
X104140000Y-105709348D01*
X103731753Y-105790553D01*
X103385658Y-106021806D01*
X103154405Y-106367901D01*
X103073200Y-106776148D01*
X102666800Y-106776148D01*
X102585595Y-106367901D01*
X102354342Y-106021806D01*
X102008247Y-105790553D01*
X101600000Y-105709348D01*
X101191753Y-105790553D01*
X100845658Y-106021806D01*
X100614405Y-106367901D01*
X100533200Y-106776148D01*
X100126800Y-106776148D01*
X100045595Y-106367901D01*
X99814342Y-106021806D01*
X99468247Y-105790553D01*
X99060000Y-105709348D01*
X98651753Y-105790553D01*
X98305658Y-106021806D01*
X98074405Y-106367901D01*
X97993200Y-106776148D01*
X97586800Y-106776148D01*
X97505595Y-106367901D01*
X97274342Y-106021806D01*
X96928247Y-105790553D01*
X96724816Y-105750088D01*
X97422504Y-105052400D01*
X99060000Y-105052400D01*
X99293284Y-105005997D01*
X99491052Y-104873852D01*
X99557103Y-104775000D01*
X110154348Y-104775000D01*
X110235553Y-105183247D01*
X110466806Y-105529342D01*
X110812901Y-105760595D01*
X111221148Y-105841800D01*
X111275056Y-105841800D01*
X111005658Y-106021806D01*
X110774405Y-106367901D01*
X110693200Y-106776148D01*
X110693200Y-107853852D01*
X110774405Y-108262099D01*
X111005658Y-108608194D01*
X111351753Y-108839447D01*
X111760000Y-108920652D01*
X112168247Y-108839447D01*
X112514342Y-108608194D01*
X112568431Y-108527243D01*
X124866400Y-108527243D01*
X124866400Y-110439200D01*
X125018800Y-110591600D01*
X126212600Y-110591600D01*
X126212600Y-108191300D01*
X126517400Y-108191300D01*
X126517400Y-110591600D01*
X126537400Y-110591600D01*
X126537400Y-110896400D01*
X126517400Y-110896400D01*
X126517400Y-113296700D01*
X126669800Y-113449100D01*
X127375257Y-113449100D01*
X127599311Y-113356294D01*
X127770794Y-113184811D01*
X127797227Y-113120996D01*
X127877252Y-113174467D01*
X128016000Y-113202066D01*
X129794000Y-113202066D01*
X129932748Y-113174467D01*
X130050373Y-113095873D01*
X130128967Y-112978248D01*
X130156566Y-112839500D01*
X130156566Y-108648500D01*
X130128967Y-108509752D01*
X130102946Y-108470809D01*
X130108499Y-108467099D01*
X134384798Y-104190800D01*
X135605667Y-104190800D01*
X135764211Y-104987853D01*
X136215705Y-105663562D01*
X136891414Y-106115056D01*
X137688467Y-106273600D01*
X139323933Y-106273600D01*
X140120986Y-106115056D01*
X140796695Y-105663562D01*
X141248189Y-104987853D01*
X141406733Y-104190800D01*
X141248189Y-103393747D01*
X140796695Y-102718038D01*
X140120986Y-102266544D01*
X139323933Y-102108000D01*
X137688467Y-102108000D01*
X136891414Y-102266544D01*
X136215705Y-102718038D01*
X135764211Y-103393747D01*
X135605667Y-104190800D01*
X134384798Y-104190800D01*
X136746998Y-101828600D01*
X137567352Y-101828600D01*
X138383845Y-101666189D01*
X139076035Y-101203683D01*
X139536473Y-100514589D01*
X139792463Y-100771026D01*
X140259073Y-100964779D01*
X140764310Y-100965220D01*
X141231258Y-100772282D01*
X141588826Y-100415337D01*
X141782579Y-99948727D01*
X141783020Y-99443490D01*
X141590082Y-98976542D01*
X141233137Y-98618974D01*
X140766527Y-98425221D01*
X140261290Y-98424780D01*
X139794342Y-98617718D01*
X139536363Y-98875247D01*
X139076035Y-98186317D01*
X138383845Y-97723811D01*
X137567352Y-97561400D01*
X136746998Y-97561400D01*
X134384798Y-95199200D01*
X135605667Y-95199200D01*
X135764211Y-95996253D01*
X136215705Y-96671962D01*
X136891414Y-97123456D01*
X137688467Y-97282000D01*
X139323933Y-97282000D01*
X140120986Y-97123456D01*
X140796695Y-96671962D01*
X141248189Y-95996253D01*
X141406733Y-95199200D01*
X141248189Y-94402147D01*
X140796695Y-93726438D01*
X140120986Y-93274944D01*
X139323933Y-93116400D01*
X137688467Y-93116400D01*
X136891414Y-93274944D01*
X136215705Y-93726438D01*
X135764211Y-94402147D01*
X135605667Y-95199200D01*
X134384798Y-95199200D01*
X130108499Y-90922901D01*
X130102946Y-90919191D01*
X130128967Y-90880248D01*
X130156566Y-90741500D01*
X130156566Y-86550500D01*
X130128967Y-86411752D01*
X130050373Y-86294127D01*
X129932748Y-86215533D01*
X129794000Y-86187934D01*
X128016000Y-86187934D01*
X127877252Y-86215533D01*
X127759627Y-86294127D01*
X127681033Y-86411752D01*
X127653434Y-86550500D01*
X127653434Y-90741500D01*
X127681033Y-90880248D01*
X127759627Y-90997873D01*
X127877252Y-91076467D01*
X127939800Y-91088909D01*
X127939800Y-91605400D01*
X128013271Y-91974766D01*
X128222501Y-92287899D01*
X128535634Y-92497129D01*
X128905000Y-92570600D01*
X129026202Y-92570600D01*
X134820105Y-98364503D01*
X134476659Y-98878507D01*
X134314248Y-99695000D01*
X134476659Y-100511493D01*
X134820105Y-101025497D01*
X129026202Y-106819400D01*
X128905000Y-106819400D01*
X128535634Y-106892871D01*
X128222501Y-107102101D01*
X128013271Y-107415234D01*
X127939800Y-107784600D01*
X127939800Y-108301091D01*
X127877252Y-108313533D01*
X127797227Y-108367004D01*
X127770794Y-108303189D01*
X127599311Y-108131706D01*
X127375257Y-108038900D01*
X126669800Y-108038900D01*
X126517400Y-108191300D01*
X126212600Y-108191300D01*
X126060200Y-108038900D01*
X125354743Y-108038900D01*
X125130689Y-108131706D01*
X124959206Y-108303189D01*
X124866400Y-108527243D01*
X112568431Y-108527243D01*
X112745595Y-108262099D01*
X112826800Y-107853852D01*
X112826800Y-106776148D01*
X112745595Y-106367901D01*
X112514342Y-106021806D01*
X112244944Y-105841800D01*
X112298852Y-105841800D01*
X112707099Y-105760595D01*
X113053194Y-105529342D01*
X113284447Y-105183247D01*
X113365652Y-104775000D01*
X113284447Y-104366753D01*
X113053194Y-104020658D01*
X112707099Y-103789405D01*
X112298852Y-103708200D01*
X111221148Y-103708200D01*
X110812901Y-103789405D01*
X110466806Y-104020658D01*
X110235553Y-104366753D01*
X110154348Y-104775000D01*
X99557103Y-104775000D01*
X99623197Y-104676084D01*
X99669600Y-104442800D01*
X99669600Y-104132907D01*
X99814342Y-104036194D01*
X100045595Y-103690099D01*
X100126800Y-103281852D01*
X100126800Y-102204148D01*
X100533200Y-102204148D01*
X100533200Y-103281852D01*
X100614405Y-103690099D01*
X100845658Y-104036194D01*
X101191753Y-104267447D01*
X101600000Y-104348652D01*
X102008247Y-104267447D01*
X102354342Y-104036194D01*
X102585595Y-103690099D01*
X102666800Y-103281852D01*
X102666800Y-102204148D01*
X103073200Y-102204148D01*
X103073200Y-103281852D01*
X103154405Y-103690099D01*
X103385658Y-104036194D01*
X103731753Y-104267447D01*
X104140000Y-104348652D01*
X104548247Y-104267447D01*
X104894342Y-104036194D01*
X105125595Y-103690099D01*
X105206800Y-103281852D01*
X105206800Y-102204148D01*
X105125595Y-101795901D01*
X104894342Y-101449806D01*
X104548247Y-101218553D01*
X104140000Y-101137348D01*
X103731753Y-101218553D01*
X103385658Y-101449806D01*
X103154405Y-101795901D01*
X103073200Y-102204148D01*
X102666800Y-102204148D01*
X102585595Y-101795901D01*
X102354342Y-101449806D01*
X102008247Y-101218553D01*
X101600000Y-101137348D01*
X101191753Y-101218553D01*
X100845658Y-101449806D01*
X100614405Y-101795901D01*
X100533200Y-102204148D01*
X100126800Y-102204148D01*
X100045595Y-101795901D01*
X99814342Y-101449806D01*
X99468247Y-101218553D01*
X99060000Y-101137348D01*
X98651753Y-101218553D01*
X98305658Y-101449806D01*
X98074405Y-101795901D01*
X97993200Y-102204148D01*
X97993200Y-103281852D01*
X98074405Y-103690099D01*
X98170022Y-103833200D01*
X97409978Y-103833200D01*
X97505595Y-103690099D01*
X97586800Y-103281852D01*
X97586800Y-102204148D01*
X97505595Y-101795901D01*
X97274342Y-101449806D01*
X96928247Y-101218553D01*
X96520000Y-101137348D01*
X96111753Y-101218553D01*
X95765658Y-101449806D01*
X95534405Y-101795901D01*
X95453200Y-102204148D01*
X95453200Y-103281852D01*
X95534405Y-103690099D01*
X95765658Y-104036194D01*
X96111753Y-104267447D01*
X96421614Y-104329082D01*
X94816148Y-105934548D01*
X94746093Y-106039392D01*
X94734342Y-106021806D01*
X94388247Y-105790553D01*
X93980000Y-105709348D01*
X93571753Y-105790553D01*
X93225658Y-106021806D01*
X92994405Y-106367901D01*
X92913200Y-106776148D01*
X92913200Y-107853852D01*
X92994405Y-108262099D01*
X93225658Y-108608194D01*
X93571753Y-108839447D01*
X93729309Y-108870787D01*
X93354596Y-109245500D01*
X74789200Y-109245500D01*
X74555916Y-109291903D01*
X74358148Y-109424048D01*
X74119896Y-109662300D01*
X73354098Y-109662300D01*
X76813899Y-106202500D01*
X77774800Y-106202500D01*
X77774800Y-106246702D01*
X77707472Y-106347466D01*
X77622400Y-106775153D01*
X77622400Y-107854847D01*
X77707472Y-108282534D01*
X77949737Y-108645110D01*
X78312313Y-108887375D01*
X78740000Y-108972447D01*
X79167687Y-108887375D01*
X79530263Y-108645110D01*
X79772528Y-108282534D01*
X79857600Y-107854847D01*
X79857600Y-106775153D01*
X79772528Y-106347466D01*
X79705200Y-106246702D01*
X79705200Y-102808698D01*
X80022499Y-102491400D01*
X80231729Y-102178267D01*
X80259324Y-102039534D01*
X80305200Y-101808900D01*
X80305200Y-101307566D01*
X80695000Y-101307566D01*
X80751843Y-101296259D01*
X80597501Y-101450601D01*
X80388271Y-101763734D01*
X80314800Y-102133100D01*
X80314800Y-103198702D01*
X80247472Y-103299466D01*
X80162400Y-103727153D01*
X80162400Y-104806847D01*
X80247472Y-105234534D01*
X80489737Y-105597110D01*
X80779915Y-105791000D01*
X80489737Y-105984890D01*
X80247472Y-106347466D01*
X80162400Y-106775153D01*
X80162400Y-107854847D01*
X80247472Y-108282534D01*
X80489737Y-108645110D01*
X80852313Y-108887375D01*
X81280000Y-108972447D01*
X81707687Y-108887375D01*
X82070263Y-108645110D01*
X82312528Y-108282534D01*
X82397600Y-107854847D01*
X82397600Y-106775153D01*
X82312528Y-106347466D01*
X82070263Y-105984890D01*
X81780085Y-105791000D01*
X82070263Y-105597110D01*
X82312528Y-105234534D01*
X82397600Y-104806847D01*
X82397600Y-103727153D01*
X82312528Y-103299466D01*
X82245200Y-103198702D01*
X82245200Y-102774100D01*
X83220000Y-102774100D01*
X83589366Y-102700629D01*
X83902499Y-102491399D01*
X84111729Y-102178266D01*
X84185200Y-101808900D01*
X84185200Y-101307566D01*
X84575000Y-101307566D01*
X84713748Y-101279967D01*
X84831373Y-101201373D01*
X84909967Y-101083748D01*
X84937566Y-100945000D01*
X84937566Y-98526300D01*
X85743434Y-98526300D01*
X85743434Y-100910040D01*
X85668315Y-100924982D01*
X85607033Y-100937171D01*
X85293900Y-101146401D01*
X83137501Y-103302801D01*
X82928271Y-103615934D01*
X82854800Y-103985300D01*
X82854800Y-106246702D01*
X82787472Y-106347466D01*
X82702400Y-106775153D01*
X82702400Y-107854847D01*
X82787472Y-108282534D01*
X83029737Y-108645110D01*
X83392313Y-108887375D01*
X83820000Y-108972447D01*
X84247687Y-108887375D01*
X84610263Y-108645110D01*
X84852528Y-108282534D01*
X84937600Y-107854847D01*
X84937600Y-106775153D01*
X84852528Y-106347466D01*
X84785200Y-106246702D01*
X84785200Y-104385098D01*
X85242400Y-103927898D01*
X85242400Y-104806847D01*
X85327472Y-105234534D01*
X85569737Y-105597110D01*
X85905499Y-105821459D01*
X85605658Y-106021806D01*
X85374405Y-106367901D01*
X85293200Y-106776148D01*
X85293200Y-107853852D01*
X85374405Y-108262099D01*
X85605658Y-108608194D01*
X85951753Y-108839447D01*
X86360000Y-108920652D01*
X86768247Y-108839447D01*
X87114342Y-108608194D01*
X87345595Y-108262099D01*
X87426800Y-107853852D01*
X87426800Y-106776148D01*
X87345595Y-106367901D01*
X87114342Y-106021806D01*
X86814501Y-105821459D01*
X87150263Y-105597110D01*
X87392528Y-105234534D01*
X87477600Y-104806847D01*
X87477600Y-103728148D01*
X87833200Y-103728148D01*
X87833200Y-104805852D01*
X87914405Y-105214099D01*
X88145658Y-105560194D01*
X88491084Y-105791000D01*
X88145658Y-106021806D01*
X87914405Y-106367901D01*
X87833200Y-106776148D01*
X87833200Y-107853852D01*
X87914405Y-108262099D01*
X88145658Y-108608194D01*
X88491753Y-108839447D01*
X88900000Y-108920652D01*
X89308247Y-108839447D01*
X89654342Y-108608194D01*
X89885595Y-108262099D01*
X89966800Y-107853852D01*
X89966800Y-106776148D01*
X89885595Y-106367901D01*
X89654342Y-106021806D01*
X89308916Y-105791000D01*
X89654342Y-105560194D01*
X89885595Y-105214099D01*
X89966800Y-104805852D01*
X89966800Y-103728148D01*
X90373200Y-103728148D01*
X90373200Y-104805852D01*
X90454405Y-105214099D01*
X90685658Y-105560194D01*
X91031084Y-105791000D01*
X90685658Y-106021806D01*
X90454405Y-106367901D01*
X90373200Y-106776148D01*
X90373200Y-107853852D01*
X90454405Y-108262099D01*
X90685658Y-108608194D01*
X91031753Y-108839447D01*
X91440000Y-108920652D01*
X91848247Y-108839447D01*
X92194342Y-108608194D01*
X92425595Y-108262099D01*
X92506800Y-107853852D01*
X92506800Y-106776148D01*
X92425595Y-106367901D01*
X92194342Y-106021806D01*
X91848916Y-105791000D01*
X92194342Y-105560194D01*
X92425595Y-105214099D01*
X92506800Y-104805852D01*
X92506800Y-103728148D01*
X92425595Y-103319901D01*
X92194342Y-102973806D01*
X91848247Y-102742553D01*
X91440000Y-102661348D01*
X91031753Y-102742553D01*
X90685658Y-102973806D01*
X90454405Y-103319901D01*
X90373200Y-103728148D01*
X89966800Y-103728148D01*
X89885595Y-103319901D01*
X89654342Y-102973806D01*
X89308247Y-102742553D01*
X88900000Y-102661348D01*
X88491753Y-102742553D01*
X88145658Y-102973806D01*
X87914405Y-103319901D01*
X87833200Y-103728148D01*
X87477600Y-103728148D01*
X87477600Y-103727153D01*
X87392528Y-103299466D01*
X87150263Y-102936890D01*
X86891700Y-102764124D01*
X87110366Y-102720629D01*
X87423499Y-102511399D01*
X87628798Y-102204148D01*
X92913200Y-102204148D01*
X92913200Y-103281852D01*
X92994405Y-103690099D01*
X93225658Y-104036194D01*
X93571753Y-104267447D01*
X93980000Y-104348652D01*
X94388247Y-104267447D01*
X94734342Y-104036194D01*
X94965595Y-103690099D01*
X95046800Y-103281852D01*
X95046800Y-102204148D01*
X94965595Y-101795901D01*
X94734342Y-101449806D01*
X94388247Y-101218553D01*
X93980000Y-101137348D01*
X93571753Y-101218553D01*
X93225658Y-101449806D01*
X92994405Y-101795901D01*
X92913200Y-102204148D01*
X87628798Y-102204148D01*
X87632729Y-102198266D01*
X87706200Y-101828900D01*
X87706200Y-101110882D01*
X87710967Y-101103748D01*
X87738566Y-100965000D01*
X87738566Y-98526300D01*
X88791434Y-98526300D01*
X88791434Y-100965000D01*
X88819033Y-101103748D01*
X88897627Y-101221373D01*
X89015252Y-101299967D01*
X89154000Y-101327566D01*
X90424000Y-101327566D01*
X90562748Y-101299967D01*
X90680373Y-101221373D01*
X90758967Y-101103748D01*
X90786566Y-100965000D01*
X90786566Y-98648148D01*
X92913200Y-98648148D01*
X92913200Y-99725852D01*
X92994405Y-100134099D01*
X93225658Y-100480194D01*
X93571753Y-100711447D01*
X93980000Y-100792652D01*
X94388247Y-100711447D01*
X94734342Y-100480194D01*
X94965595Y-100134099D01*
X95046800Y-99725852D01*
X95046800Y-98648148D01*
X95453200Y-98648148D01*
X95453200Y-99725852D01*
X95534405Y-100134099D01*
X95765658Y-100480194D01*
X96111753Y-100711447D01*
X96520000Y-100792652D01*
X96928247Y-100711447D01*
X97274342Y-100480194D01*
X97505595Y-100134099D01*
X97586800Y-99725852D01*
X97586800Y-98648148D01*
X97505595Y-98239901D01*
X97274342Y-97893806D01*
X96928247Y-97662553D01*
X96520000Y-97581348D01*
X96111753Y-97662553D01*
X95765658Y-97893806D01*
X95534405Y-98239901D01*
X95453200Y-98648148D01*
X95046800Y-98648148D01*
X94965595Y-98239901D01*
X94734342Y-97893806D01*
X94388247Y-97662553D01*
X93980000Y-97581348D01*
X93571753Y-97662553D01*
X93225658Y-97893806D01*
X92994405Y-98239901D01*
X92913200Y-98648148D01*
X90786566Y-98648148D01*
X90786566Y-98425000D01*
X90758967Y-98286252D01*
X90754200Y-98279118D01*
X90754200Y-97561100D01*
X90680729Y-97191734D01*
X90471499Y-96878601D01*
X90158366Y-96669371D01*
X89789000Y-96595900D01*
X82491999Y-96595900D01*
X79705200Y-93809102D01*
X79705200Y-93636902D01*
X79758373Y-93601373D01*
X79836967Y-93483748D01*
X79864566Y-93345000D01*
X79864566Y-91536148D01*
X80213200Y-91536148D01*
X80213200Y-92613852D01*
X80294405Y-93022099D01*
X80525658Y-93368194D01*
X80871753Y-93599447D01*
X81280000Y-93680652D01*
X81688247Y-93599447D01*
X82034342Y-93368194D01*
X82265595Y-93022099D01*
X82346800Y-92613852D01*
X82346800Y-91536148D01*
X82265595Y-91127901D01*
X82034342Y-90781806D01*
X81688247Y-90550553D01*
X81280000Y-90469348D01*
X80871753Y-90550553D01*
X80525658Y-90781806D01*
X80294405Y-91127901D01*
X80213200Y-91536148D01*
X79864566Y-91536148D01*
X79864566Y-90805000D01*
X79836967Y-90666252D01*
X79758373Y-90548627D01*
X79705200Y-90513098D01*
X79705200Y-90340898D01*
X81940799Y-88105299D01*
X82150029Y-87792166D01*
X82185349Y-87614597D01*
X82201699Y-87532400D01*
X86187996Y-87532400D01*
X84712548Y-89007848D01*
X84580403Y-89205616D01*
X84534000Y-89438900D01*
X84534000Y-90754850D01*
X84228247Y-90550553D01*
X83820000Y-90469348D01*
X83411753Y-90550553D01*
X83065658Y-90781806D01*
X82834405Y-91127901D01*
X82753200Y-91536148D01*
X82753200Y-92613852D01*
X82834405Y-93022099D01*
X83065658Y-93368194D01*
X83411753Y-93599447D01*
X83820000Y-93680652D01*
X84228247Y-93599447D01*
X84574342Y-93368194D01*
X84604337Y-93323303D01*
X84712548Y-93485252D01*
X86120048Y-94892753D01*
X86238602Y-94971967D01*
X86317816Y-95024897D01*
X86551100Y-95071300D01*
X95781996Y-95071300D01*
X98450400Y-97739704D01*
X98450400Y-97797093D01*
X98305658Y-97893806D01*
X98074405Y-98239901D01*
X97993200Y-98648148D01*
X97993200Y-99725852D01*
X98074405Y-100134099D01*
X98305658Y-100480194D01*
X98651753Y-100711447D01*
X99060000Y-100792652D01*
X99468247Y-100711447D01*
X99814342Y-100480194D01*
X100045595Y-100134099D01*
X100126800Y-99725852D01*
X100126800Y-98648148D01*
X100533200Y-98648148D01*
X100533200Y-99725852D01*
X100614405Y-100134099D01*
X100845658Y-100480194D01*
X101191753Y-100711447D01*
X101600000Y-100792652D01*
X102008247Y-100711447D01*
X102354342Y-100480194D01*
X102585595Y-100134099D01*
X102666800Y-99725852D01*
X102666800Y-98648148D01*
X102585595Y-98239901D01*
X102354342Y-97893806D01*
X102008247Y-97662553D01*
X101600000Y-97581348D01*
X101191753Y-97662553D01*
X100845658Y-97893806D01*
X100614405Y-98239901D01*
X100533200Y-98648148D01*
X100126800Y-98648148D01*
X100045595Y-98239901D01*
X99814342Y-97893806D01*
X99669600Y-97797093D01*
X99669600Y-97487200D01*
X99623197Y-97253916D01*
X99491052Y-97056148D01*
X96465552Y-94030648D01*
X96267784Y-93898503D01*
X96034500Y-93852100D01*
X86803605Y-93852100D01*
X86587003Y-93635498D01*
X86768247Y-93599447D01*
X87114342Y-93368194D01*
X87345595Y-93022099D01*
X87426800Y-92613852D01*
X87426800Y-91536148D01*
X87345595Y-91127901D01*
X87114342Y-90781806D01*
X86969600Y-90685093D01*
X86969600Y-90627704D01*
X88344500Y-89252805D01*
X88344500Y-90130397D01*
X88336803Y-90141916D01*
X88290400Y-90375200D01*
X88290400Y-90685093D01*
X88145658Y-90781806D01*
X87914405Y-91127901D01*
X87833200Y-91536148D01*
X87833200Y-92613852D01*
X87914405Y-93022099D01*
X88145658Y-93368194D01*
X88491753Y-93599447D01*
X88900000Y-93680652D01*
X89308247Y-93599447D01*
X89654342Y-93368194D01*
X89885595Y-93022099D01*
X89966800Y-92613852D01*
X89966800Y-91536148D01*
X89885595Y-91127901D01*
X89654342Y-90781806D01*
X89509600Y-90685093D01*
X89509600Y-90565903D01*
X89517297Y-90554384D01*
X89563700Y-90321100D01*
X89563700Y-83668900D01*
X89517297Y-83435616D01*
X89509600Y-83424097D01*
X89509600Y-83334556D01*
X89771085Y-83159837D01*
X90038127Y-82760180D01*
X90131900Y-82288752D01*
X90131900Y-81541248D01*
X90208100Y-81541248D01*
X90208100Y-82288752D01*
X90301873Y-82760180D01*
X90568915Y-83159837D01*
X90830400Y-83334556D01*
X90830400Y-90685093D01*
X90685658Y-90781806D01*
X90454405Y-91127901D01*
X90373200Y-91536148D01*
X90373200Y-92613852D01*
X90454405Y-93022099D01*
X90685658Y-93368194D01*
X91031753Y-93599447D01*
X91440000Y-93680652D01*
X91848247Y-93599447D01*
X92194342Y-93368194D01*
X92425595Y-93022099D01*
X92506800Y-92613852D01*
X92506800Y-91536148D01*
X92425595Y-91127901D01*
X92194342Y-90781806D01*
X92049600Y-90685093D01*
X92049600Y-83334556D01*
X92311085Y-83159837D01*
X92578127Y-82760180D01*
X92671900Y-82288752D01*
X92671900Y-81541248D01*
X92748100Y-81541248D01*
X92748100Y-82288752D01*
X92841873Y-82760180D01*
X93108915Y-83159837D01*
X93370400Y-83334556D01*
X93370400Y-90685093D01*
X93225658Y-90781806D01*
X92994405Y-91127901D01*
X92913200Y-91536148D01*
X92913200Y-92613852D01*
X92994405Y-93022099D01*
X93225658Y-93368194D01*
X93571753Y-93599447D01*
X93980000Y-93680652D01*
X94388247Y-93599447D01*
X94734342Y-93368194D01*
X94965595Y-93022099D01*
X95046800Y-92613852D01*
X95046800Y-91536148D01*
X94965595Y-91127901D01*
X94734342Y-90781806D01*
X94589600Y-90685093D01*
X94589600Y-83334556D01*
X94851085Y-83159837D01*
X95118127Y-82760180D01*
X95211900Y-82288752D01*
X95211900Y-81541248D01*
X95288100Y-81541248D01*
X95288100Y-82288752D01*
X95381873Y-82760180D01*
X95648915Y-83159837D01*
X95910400Y-83334556D01*
X95910400Y-90685093D01*
X95765658Y-90781806D01*
X95534405Y-91127901D01*
X95453200Y-91536148D01*
X95453200Y-92613852D01*
X95534405Y-93022099D01*
X95765658Y-93368194D01*
X96111753Y-93599447D01*
X96520000Y-93680652D01*
X96928247Y-93599447D01*
X97274342Y-93368194D01*
X97505595Y-93022099D01*
X97586800Y-92613852D01*
X97586800Y-91536148D01*
X97505595Y-91127901D01*
X97274342Y-90781806D01*
X97129600Y-90685093D01*
X97129600Y-83334556D01*
X97391085Y-83159837D01*
X97658127Y-82760180D01*
X97751900Y-82288752D01*
X97751900Y-81541248D01*
X97828100Y-81541248D01*
X97828100Y-82288752D01*
X97921873Y-82760180D01*
X98188915Y-83159837D01*
X98588572Y-83426879D01*
X99060000Y-83520652D01*
X99531428Y-83426879D01*
X99638339Y-83355443D01*
X99656500Y-83373604D01*
X99656500Y-90676339D01*
X99468247Y-90550553D01*
X99060000Y-90469348D01*
X98651753Y-90550553D01*
X98305658Y-90781806D01*
X98074405Y-91127901D01*
X97993200Y-91536148D01*
X97993200Y-92613852D01*
X98074405Y-93022099D01*
X98305658Y-93368194D01*
X98651753Y-93599447D01*
X99060000Y-93680652D01*
X99468247Y-93599447D01*
X99804147Y-93375006D01*
X99835048Y-93421252D01*
X104019177Y-97605381D01*
X103731753Y-97662553D01*
X103385658Y-97893806D01*
X103154405Y-98239901D01*
X103073200Y-98648148D01*
X103073200Y-99725852D01*
X103154405Y-100134099D01*
X103385658Y-100480194D01*
X103731753Y-100711447D01*
X104140000Y-100792652D01*
X104548247Y-100711447D01*
X104873861Y-100493879D01*
X104978948Y-100651152D01*
X105802048Y-101474252D01*
X105876212Y-101523807D01*
X105694405Y-101795901D01*
X105613200Y-102204148D01*
X105613200Y-103281852D01*
X105694405Y-103690099D01*
X105925658Y-104036194D01*
X106271753Y-104267447D01*
X106680000Y-104348652D01*
X107088247Y-104267447D01*
X107434342Y-104036194D01*
X107665595Y-103690099D01*
X107746800Y-103281852D01*
X107746800Y-102204148D01*
X107665595Y-101795901D01*
X107434342Y-101449806D01*
X107289600Y-101353093D01*
X107289600Y-101043200D01*
X107243197Y-100809916D01*
X107149883Y-100670263D01*
X107434342Y-100480194D01*
X107461496Y-100439555D01*
X107465003Y-100457184D01*
X107597148Y-100654952D01*
X108416448Y-101474252D01*
X108439176Y-101489439D01*
X108234405Y-101795901D01*
X108153200Y-102204148D01*
X108153200Y-103281852D01*
X108234405Y-103690099D01*
X108465658Y-104036194D01*
X108811753Y-104267447D01*
X109220000Y-104348652D01*
X109628247Y-104267447D01*
X109974342Y-104036194D01*
X110205595Y-103690099D01*
X110286800Y-103281852D01*
X110286800Y-102719944D01*
X110466806Y-102989342D01*
X110812901Y-103220595D01*
X111221148Y-103301800D01*
X112298852Y-103301800D01*
X112707099Y-103220595D01*
X112775636Y-103174800D01*
X119715400Y-103174800D01*
X119715400Y-104891257D01*
X119808206Y-105115311D01*
X119979689Y-105286794D01*
X120203743Y-105379600D01*
X122500200Y-105379600D01*
X122652600Y-105227200D01*
X122652600Y-103022400D01*
X119867800Y-103022400D01*
X119715400Y-103174800D01*
X112775636Y-103174800D01*
X113053194Y-102989342D01*
X113284447Y-102643247D01*
X113365652Y-102235000D01*
X113284447Y-101826753D01*
X113053194Y-101480658D01*
X112707099Y-101249405D01*
X112298852Y-101168200D01*
X111221148Y-101168200D01*
X110812901Y-101249405D01*
X110466806Y-101480658D01*
X110235553Y-101826753D01*
X110223642Y-101886632D01*
X110205595Y-101795901D01*
X109974342Y-101449806D01*
X109829600Y-101353093D01*
X109829600Y-101043200D01*
X109790921Y-100848743D01*
X119715400Y-100848743D01*
X119715400Y-102565200D01*
X119867800Y-102717600D01*
X122652600Y-102717600D01*
X122652600Y-100512800D01*
X122957400Y-100512800D01*
X122957400Y-102717600D01*
X122977400Y-102717600D01*
X122977400Y-103022400D01*
X122957400Y-103022400D01*
X122957400Y-105227200D01*
X123109800Y-105379600D01*
X125406257Y-105379600D01*
X125630311Y-105286794D01*
X125801794Y-105115311D01*
X125834739Y-105035774D01*
X125885000Y-105045771D01*
X127325000Y-105045771D01*
X127443927Y-105022115D01*
X127544748Y-104954748D01*
X127612115Y-104853927D01*
X127635771Y-104735000D01*
X127635771Y-103135000D01*
X127612115Y-103016073D01*
X127583652Y-102973475D01*
X127613399Y-102953599D01*
X128079500Y-102487499D01*
X128079502Y-102487496D01*
X129307800Y-101259199D01*
X129340229Y-101210665D01*
X129832912Y-101948016D01*
X130607505Y-102465583D01*
X131521200Y-102647328D01*
X132434895Y-102465583D01*
X133209488Y-101948016D01*
X133727055Y-101173423D01*
X133908800Y-100259728D01*
X133908800Y-99130272D01*
X133727055Y-98216577D01*
X133209488Y-97441984D01*
X132434895Y-96924417D01*
X131521200Y-96742672D01*
X130607505Y-96924417D01*
X129832912Y-97441984D01*
X129315345Y-98216577D01*
X129213259Y-98729800D01*
X128625300Y-98729800D01*
X128255934Y-98803271D01*
X127942801Y-99012501D01*
X127733571Y-99325634D01*
X127660100Y-99695000D01*
X127660100Y-100176901D01*
X127142773Y-100694229D01*
X125885000Y-100694229D01*
X125834739Y-100704226D01*
X125801794Y-100624689D01*
X125630311Y-100453206D01*
X125406257Y-100360400D01*
X123109800Y-100360400D01*
X122957400Y-100512800D01*
X122652600Y-100512800D01*
X122500200Y-100360400D01*
X120203743Y-100360400D01*
X119979689Y-100453206D01*
X119808206Y-100624689D01*
X119715400Y-100848743D01*
X109790921Y-100848743D01*
X109783197Y-100809916D01*
X109689883Y-100670263D01*
X109974342Y-100480194D01*
X110205595Y-100134099D01*
X110223642Y-100043368D01*
X110235553Y-100103247D01*
X110466806Y-100449342D01*
X110812901Y-100680595D01*
X111221148Y-100761800D01*
X112298852Y-100761800D01*
X112707099Y-100680595D01*
X113053194Y-100449342D01*
X113284447Y-100103247D01*
X113365652Y-99695000D01*
X113284447Y-99286753D01*
X113053194Y-98940658D01*
X112707099Y-98709405D01*
X112298852Y-98628200D01*
X111221148Y-98628200D01*
X110812901Y-98709405D01*
X110466806Y-98940658D01*
X110286800Y-99210056D01*
X110286800Y-98648148D01*
X110205595Y-98239901D01*
X109974342Y-97893806D01*
X109829600Y-97797093D01*
X109829600Y-97616904D01*
X110177104Y-97269401D01*
X110235553Y-97563247D01*
X110466806Y-97909342D01*
X110812901Y-98140595D01*
X111221148Y-98221800D01*
X112298852Y-98221800D01*
X112707099Y-98140595D01*
X113053194Y-97909342D01*
X113284447Y-97563247D01*
X113365652Y-97155000D01*
X113299972Y-96824800D01*
X119715400Y-96824800D01*
X119715400Y-98541257D01*
X119808206Y-98765311D01*
X119979689Y-98936794D01*
X120203743Y-99029600D01*
X122500200Y-99029600D01*
X122652600Y-98877200D01*
X122652600Y-96672400D01*
X119867800Y-96672400D01*
X119715400Y-96824800D01*
X113299972Y-96824800D01*
X113284447Y-96746753D01*
X113086909Y-96451116D01*
X113101584Y-96448197D01*
X113299352Y-96316052D01*
X114731053Y-94884352D01*
X114857584Y-94694984D01*
X114863197Y-94686584D01*
X114900560Y-94498743D01*
X119715400Y-94498743D01*
X119715400Y-96215200D01*
X119867800Y-96367600D01*
X122652600Y-96367600D01*
X122652600Y-94162800D01*
X122957400Y-94162800D01*
X122957400Y-96367600D01*
X122977400Y-96367600D01*
X122977400Y-96672400D01*
X122957400Y-96672400D01*
X122957400Y-98877200D01*
X123109800Y-99029600D01*
X125406257Y-99029600D01*
X125630311Y-98936794D01*
X125801794Y-98765311D01*
X125834739Y-98685774D01*
X125885000Y-98695771D01*
X127325000Y-98695771D01*
X127443927Y-98672115D01*
X127544748Y-98604748D01*
X127612115Y-98503927D01*
X127635771Y-98385000D01*
X127635771Y-96785000D01*
X127612115Y-96666073D01*
X127570200Y-96603343D01*
X127570200Y-96436657D01*
X127612115Y-96373927D01*
X127635771Y-96255000D01*
X127635771Y-94655000D01*
X127612115Y-94536073D01*
X127570200Y-94473343D01*
X127570200Y-93791100D01*
X127496729Y-93421734D01*
X127496729Y-93421733D01*
X127330200Y-93172506D01*
X127330200Y-91088909D01*
X127392748Y-91076467D01*
X127510373Y-90997873D01*
X127588967Y-90880248D01*
X127616566Y-90741500D01*
X127616566Y-86550500D01*
X127588967Y-86411752D01*
X127510373Y-86294127D01*
X127392748Y-86215533D01*
X127254000Y-86187934D01*
X125476000Y-86187934D01*
X125337252Y-86215533D01*
X125219627Y-86294127D01*
X125141033Y-86411752D01*
X125113434Y-86550500D01*
X125113434Y-90741500D01*
X125141033Y-90880248D01*
X125219627Y-90997873D01*
X125337252Y-91076467D01*
X125399800Y-91088909D01*
X125399800Y-93551100D01*
X125468902Y-93898503D01*
X125473271Y-93920466D01*
X125582005Y-94083197D01*
X125406257Y-94010400D01*
X123109800Y-94010400D01*
X122957400Y-94162800D01*
X122652600Y-94162800D01*
X122500200Y-94010400D01*
X120203743Y-94010400D01*
X119979689Y-94103206D01*
X119808206Y-94274689D01*
X119715400Y-94498743D01*
X114900560Y-94498743D01*
X114909600Y-94453300D01*
X114909600Y-83334556D01*
X115171085Y-83159837D01*
X115438127Y-82760180D01*
X115524197Y-82327477D01*
X116026840Y-82327477D01*
X116343259Y-83093270D01*
X116928648Y-83679682D01*
X117693888Y-83997437D01*
X118522477Y-83998160D01*
X119288270Y-83681741D01*
X119874682Y-83096352D01*
X120192437Y-82331112D01*
X120193160Y-81502523D01*
X119876741Y-80736730D01*
X119291352Y-80150318D01*
X118526112Y-79832563D01*
X117697523Y-79831840D01*
X116931730Y-80148259D01*
X116345318Y-80733648D01*
X116027563Y-81498888D01*
X116026840Y-82327477D01*
X115524197Y-82327477D01*
X115531900Y-82288752D01*
X115531900Y-81541248D01*
X115438127Y-81069820D01*
X115171085Y-80670163D01*
X114771428Y-80403121D01*
X114300000Y-80309348D01*
X113828572Y-80403121D01*
X113428915Y-80670163D01*
X113161873Y-81069820D01*
X113068100Y-81541248D01*
X113068100Y-82288752D01*
X113161873Y-82760180D01*
X113428915Y-83159837D01*
X113690400Y-83334556D01*
X113690400Y-94200795D01*
X113350810Y-94540385D01*
X113284447Y-94206753D01*
X113053194Y-93860658D01*
X112707099Y-93629405D01*
X112298852Y-93548200D01*
X112244944Y-93548200D01*
X112514342Y-93368194D01*
X112745595Y-93022099D01*
X112826800Y-92613852D01*
X112826800Y-91536148D01*
X112745595Y-91127901D01*
X112514342Y-90781806D01*
X112369600Y-90685093D01*
X112369600Y-83334556D01*
X112631085Y-83159837D01*
X112898127Y-82760180D01*
X112991900Y-82288752D01*
X112991900Y-81541248D01*
X112898127Y-81069820D01*
X112631085Y-80670163D01*
X112231428Y-80403121D01*
X111760000Y-80309348D01*
X111288572Y-80403121D01*
X110888915Y-80670163D01*
X110621873Y-81069820D01*
X110528100Y-81541248D01*
X110528100Y-82288752D01*
X110621873Y-82760180D01*
X110888915Y-83159837D01*
X111150400Y-83334556D01*
X111150400Y-90685093D01*
X111005658Y-90781806D01*
X110774405Y-91127901D01*
X110693200Y-91536148D01*
X110693200Y-92613852D01*
X110774405Y-93022099D01*
X111005658Y-93368194D01*
X111275056Y-93548200D01*
X111221148Y-93548200D01*
X110812901Y-93629405D01*
X110466806Y-93860658D01*
X110235553Y-94206753D01*
X110154348Y-94615000D01*
X110235553Y-95023247D01*
X110444633Y-95336158D01*
X110394969Y-95369342D01*
X110268348Y-95453947D01*
X108788948Y-96933348D01*
X108656803Y-97131116D01*
X108610400Y-97364400D01*
X108610400Y-97797093D01*
X108503524Y-97868505D01*
X108459252Y-97802247D01*
X104304863Y-93647859D01*
X104548247Y-93599447D01*
X104894342Y-93368194D01*
X105125595Y-93022099D01*
X105206800Y-92613852D01*
X105206800Y-91536148D01*
X105125595Y-91127901D01*
X104894342Y-90781806D01*
X104749600Y-90685093D01*
X104749600Y-83334556D01*
X105011085Y-83159837D01*
X105278127Y-82760180D01*
X105371900Y-82288752D01*
X105371900Y-81541248D01*
X105448100Y-81541248D01*
X105448100Y-82288752D01*
X105541873Y-82760180D01*
X105808915Y-83159837D01*
X106070400Y-83334556D01*
X106070400Y-90685093D01*
X105925658Y-90781806D01*
X105694405Y-91127901D01*
X105613200Y-91536148D01*
X105613200Y-92613852D01*
X105694405Y-93022099D01*
X105925658Y-93368194D01*
X106271753Y-93599447D01*
X106680000Y-93680652D01*
X107088247Y-93599447D01*
X107434342Y-93368194D01*
X107665595Y-93022099D01*
X107746800Y-92613852D01*
X107746800Y-91536148D01*
X107665595Y-91127901D01*
X107434342Y-90781806D01*
X107289600Y-90685093D01*
X107289600Y-83334556D01*
X107551085Y-83159837D01*
X107818127Y-82760180D01*
X107911900Y-82288752D01*
X107911900Y-81541248D01*
X107988100Y-81541248D01*
X107988100Y-82288752D01*
X108081873Y-82760180D01*
X108348915Y-83159837D01*
X108610400Y-83334556D01*
X108610400Y-90685093D01*
X108465658Y-90781806D01*
X108234405Y-91127901D01*
X108153200Y-91536148D01*
X108153200Y-92613852D01*
X108234405Y-93022099D01*
X108465658Y-93368194D01*
X108811753Y-93599447D01*
X109220000Y-93680652D01*
X109628247Y-93599447D01*
X109974342Y-93368194D01*
X110205595Y-93022099D01*
X110286800Y-92613852D01*
X110286800Y-91536148D01*
X110205595Y-91127901D01*
X109974342Y-90781806D01*
X109829600Y-90685093D01*
X109829600Y-83334556D01*
X110091085Y-83159837D01*
X110358127Y-82760180D01*
X110451900Y-82288752D01*
X110451900Y-81541248D01*
X110358127Y-81069820D01*
X110091085Y-80670163D01*
X109691428Y-80403121D01*
X109220000Y-80309348D01*
X108748572Y-80403121D01*
X108348915Y-80670163D01*
X108081873Y-81069820D01*
X107988100Y-81541248D01*
X107911900Y-81541248D01*
X107818127Y-81069820D01*
X107551085Y-80670163D01*
X107151428Y-80403121D01*
X106680000Y-80309348D01*
X106208572Y-80403121D01*
X105808915Y-80670163D01*
X105541873Y-81069820D01*
X105448100Y-81541248D01*
X105371900Y-81541248D01*
X105278127Y-81069820D01*
X105011085Y-80670163D01*
X104611428Y-80403121D01*
X104140000Y-80309348D01*
X103668572Y-80403121D01*
X103268915Y-80670163D01*
X103001873Y-81069820D01*
X102908100Y-81541248D01*
X102908100Y-82288752D01*
X103001873Y-82760180D01*
X103268915Y-83159837D01*
X103530400Y-83334556D01*
X103530400Y-90685093D01*
X103479600Y-90719036D01*
X103479600Y-90142100D01*
X103433197Y-89908816D01*
X103301052Y-89711048D01*
X102209600Y-88619596D01*
X102209600Y-83334556D01*
X102471085Y-83159837D01*
X102738127Y-82760180D01*
X102831900Y-82288752D01*
X102831900Y-81541248D01*
X102738127Y-81069820D01*
X102471085Y-80670163D01*
X102071428Y-80403121D01*
X101600000Y-80309348D01*
X101128572Y-80403121D01*
X100728915Y-80670163D01*
X100461873Y-81069820D01*
X100368100Y-81541248D01*
X100368100Y-82288752D01*
X100386038Y-82378934D01*
X100291900Y-82284796D01*
X100291900Y-81541248D01*
X100198127Y-81069820D01*
X99931085Y-80670163D01*
X99531428Y-80403121D01*
X99060000Y-80309348D01*
X98588572Y-80403121D01*
X98188915Y-80670163D01*
X97921873Y-81069820D01*
X97828100Y-81541248D01*
X97751900Y-81541248D01*
X97658127Y-81069820D01*
X97391085Y-80670163D01*
X96991428Y-80403121D01*
X96520000Y-80309348D01*
X96048572Y-80403121D01*
X95648915Y-80670163D01*
X95381873Y-81069820D01*
X95288100Y-81541248D01*
X95211900Y-81541248D01*
X95118127Y-81069820D01*
X94851085Y-80670163D01*
X94451428Y-80403121D01*
X93980000Y-80309348D01*
X93508572Y-80403121D01*
X93108915Y-80670163D01*
X92841873Y-81069820D01*
X92748100Y-81541248D01*
X92671900Y-81541248D01*
X92578127Y-81069820D01*
X92311085Y-80670163D01*
X91911428Y-80403121D01*
X91440000Y-80309348D01*
X90968572Y-80403121D01*
X90568915Y-80670163D01*
X90301873Y-81069820D01*
X90208100Y-81541248D01*
X90131900Y-81541248D01*
X90038127Y-81069820D01*
X89771085Y-80670163D01*
X89371428Y-80403121D01*
X88900000Y-80309348D01*
X88428572Y-80403121D01*
X88028915Y-80670163D01*
X87761873Y-81069820D01*
X87668100Y-81541248D01*
X87668100Y-82288752D01*
X87761873Y-82760180D01*
X88028915Y-83159837D01*
X88290400Y-83334556D01*
X88290400Y-83614800D01*
X88336803Y-83848084D01*
X88344500Y-83859603D01*
X88344500Y-84737195D01*
X86969600Y-83362296D01*
X86969600Y-83334556D01*
X87231085Y-83159837D01*
X87498127Y-82760180D01*
X87591900Y-82288752D01*
X87591900Y-81541248D01*
X87498127Y-81069820D01*
X87231085Y-80670163D01*
X86831428Y-80403121D01*
X86360000Y-80309348D01*
X85888572Y-80403121D01*
X85488915Y-80670163D01*
X85221873Y-81069820D01*
X85128100Y-81541248D01*
X85128100Y-82288752D01*
X85221873Y-82760180D01*
X85488915Y-83159837D01*
X85750400Y-83334556D01*
X85750400Y-83497651D01*
X85725784Y-83481203D01*
X85492500Y-83434800D01*
X84251607Y-83434800D01*
X84291428Y-83426879D01*
X84691085Y-83159837D01*
X84958127Y-82760180D01*
X85051900Y-82288752D01*
X85051900Y-81541248D01*
X84958127Y-81069820D01*
X84691085Y-80670163D01*
X84291428Y-80403121D01*
X83820000Y-80309348D01*
X83348572Y-80403121D01*
X82948915Y-80670163D01*
X82681873Y-81069820D01*
X82588100Y-81541248D01*
X82588100Y-82288752D01*
X82606038Y-82378934D01*
X82511900Y-82284796D01*
X82511900Y-81541248D01*
X82418127Y-81069820D01*
X82151085Y-80670163D01*
X81751428Y-80403121D01*
X81280000Y-80309348D01*
X80808572Y-80403121D01*
X80408915Y-80670163D01*
X80141873Y-81069820D01*
X80048100Y-81541248D01*
X80048100Y-82288752D01*
X80141873Y-82760180D01*
X80408915Y-83159837D01*
X80808572Y-83426879D01*
X81280000Y-83520652D01*
X81751428Y-83426879D01*
X81858339Y-83355443D01*
X82978347Y-84475452D01*
X83086546Y-84547748D01*
X83176116Y-84607597D01*
X83409400Y-84654000D01*
X85239996Y-84654000D01*
X86187996Y-85602000D01*
X81658098Y-85602000D01*
X79705200Y-83649102D01*
X79705200Y-83109659D01*
X79925060Y-82780615D01*
X80022700Y-82289747D01*
X80022700Y-81540253D01*
X79925060Y-81049385D01*
X79647006Y-80633247D01*
X79230868Y-80355193D01*
X78740000Y-80257553D01*
X78249132Y-80355193D01*
X77832994Y-80633247D01*
X77736700Y-80777361D01*
X77736700Y-80523743D01*
X77643894Y-80299689D01*
X77472411Y-80128206D01*
X77248357Y-80035400D01*
X76504800Y-80035400D01*
X76352400Y-80187800D01*
X76352400Y-81762600D01*
X76372400Y-81762600D01*
X76372400Y-82067400D01*
X76352400Y-82067400D01*
X76352400Y-83642200D01*
X76504800Y-83794600D01*
X77248357Y-83794600D01*
X77472411Y-83701794D01*
X77643894Y-83530311D01*
X77736700Y-83306257D01*
X77736700Y-83052639D01*
X77774800Y-83109659D01*
X77774800Y-84048900D01*
X77820308Y-84277684D01*
X77848271Y-84418266D01*
X78057501Y-84731399D01*
X78489010Y-85162908D01*
X77886112Y-84912563D01*
X77057523Y-84911840D01*
X76291730Y-85228259D01*
X75705318Y-85813648D01*
X75387563Y-86578888D01*
X75386840Y-87407477D01*
X75703259Y-88173270D01*
X76288648Y-88759682D01*
X77053888Y-89077437D01*
X77882477Y-89078160D01*
X78488237Y-88827865D01*
X78057501Y-89258601D01*
X77848271Y-89571734D01*
X77774800Y-89941100D01*
X77774800Y-90513098D01*
X77721627Y-90548627D01*
X77643033Y-90666252D01*
X77615434Y-90805000D01*
X77615434Y-93243700D01*
X74407798Y-93243700D01*
X74287604Y-93123506D01*
X74287600Y-93123500D01*
X74287597Y-93123498D01*
X72814200Y-91650102D01*
X72814200Y-91499952D01*
X72900373Y-91442373D01*
X72978967Y-91324748D01*
X73006566Y-91186000D01*
X73006566Y-88919170D01*
X75884473Y-91797077D01*
X75826330Y-91937101D01*
X75826070Y-92235191D01*
X75939904Y-92510690D01*
X76150501Y-92721656D01*
X76425801Y-92835970D01*
X76723891Y-92836230D01*
X76999390Y-92722396D01*
X77210356Y-92511799D01*
X77324670Y-92236499D01*
X77324930Y-91938409D01*
X77211096Y-91662910D01*
X77185100Y-91636868D01*
X77185100Y-91626000D01*
X77138697Y-91392716D01*
X77006552Y-91194948D01*
X68904466Y-83092862D01*
X68933155Y-83049927D01*
X68956811Y-82931000D01*
X68956811Y-80264000D01*
X70743189Y-80264000D01*
X70743189Y-82931000D01*
X70766845Y-83049927D01*
X70834212Y-83150748D01*
X70935033Y-83218115D01*
X71053960Y-83241771D01*
X72644000Y-83241771D01*
X72762927Y-83218115D01*
X72863748Y-83150748D01*
X72931115Y-83049927D01*
X72954771Y-82931000D01*
X72954771Y-82219800D01*
X74663300Y-82219800D01*
X74663300Y-83306257D01*
X74756106Y-83530311D01*
X74927589Y-83701794D01*
X75151643Y-83794600D01*
X75895200Y-83794600D01*
X76047600Y-83642200D01*
X76047600Y-82067400D01*
X74815700Y-82067400D01*
X74663300Y-82219800D01*
X72954771Y-82219800D01*
X72954771Y-80523743D01*
X74663300Y-80523743D01*
X74663300Y-81610200D01*
X74815700Y-81762600D01*
X76047600Y-81762600D01*
X76047600Y-80187800D01*
X75895200Y-80035400D01*
X75151643Y-80035400D01*
X74927589Y-80128206D01*
X74756106Y-80299689D01*
X74663300Y-80523743D01*
X72954771Y-80523743D01*
X72954771Y-80264000D01*
X72931115Y-80145073D01*
X72863748Y-80044252D01*
X72762927Y-79976885D01*
X72644000Y-79953229D01*
X71053960Y-79953229D01*
X70935033Y-79976885D01*
X70834212Y-80044252D01*
X70766845Y-80145073D01*
X70743189Y-80264000D01*
X68956811Y-80264000D01*
X68933155Y-80145073D01*
X68865788Y-80044252D01*
X68764967Y-79976885D01*
X68646040Y-79953229D01*
X67056000Y-79953229D01*
X66937073Y-79976885D01*
X66836252Y-80044252D01*
X66768885Y-80145073D01*
X66745229Y-80264000D01*
X63524836Y-80264000D01*
X63411352Y-80150318D01*
X62646112Y-79832563D01*
X61817523Y-79831840D01*
X61051730Y-80148259D01*
X60465318Y-80733648D01*
X60147563Y-81498888D01*
X60146840Y-82327477D01*
X60109100Y-82327477D01*
X60109100Y-79794100D01*
X121202829Y-79794100D01*
X121202829Y-84328000D01*
M02*
